<svg id="svg" version="1.1" xmlns="http://www.w3.org/2000/svg" xmlns:xlink="http://www.w3.org/1999/xlink" width="400" height="471.4733542319749" viewBox="0, 0, 400,471.4733542319749"><g id="svgg"><path id="path0" d="M201.800 6.466 C 177.007 8.086,154.832 23.431,144.075 46.411 C 142.730 49.284,141.102 53.863,139.598 59.000 C 137.256 67.003,137.256 84.197,139.598 92.200 C 144.467 108.832,151.753 120.149,163.800 129.791 C 173.655 137.679,183.715 142.017,197.761 144.436 C 230.841 150.131,266.369 125.922,274.391 92.220 C 283.603 53.524,257.592 12.976,220.000 7.429 C 219.010 7.282,217.390 7.002,216.400 6.806 C 213.813 6.293,206.909 6.132,201.800 6.466 M213.000 37.422 C 244.622 42.867,256.580 80.929,233.732 103.415 C 221.000 115.946,200.041 117.608,185.030 107.277 C 151.775 84.390,173.317 30.590,213.000 37.422 M70.769 256.564 C 70.673 256.660,68.706 256.938,66.397 257.183 C 54.117 258.482,45.563 266.463,43.655 278.400 C 42.657 284.643,42.626 284.064,44.996 303.600 C 45.303 306.130,45.743 309.910,45.974 312.000 C 46.205 314.090,46.569 317.060,46.783 318.600 C 46.997 320.140,47.449 323.740,47.788 326.600 C 48.127 329.460,48.587 333.150,48.810 334.800 C 49.033 336.450,49.399 339.420,49.624 341.400 C 49.849 343.380,50.296 347.160,50.617 349.800 C 50.939 352.440,51.377 356.220,51.592 358.200 C 51.806 360.180,52.093 362.430,52.228 363.200 C 52.363 363.970,52.630 365.950,52.820 367.600 C 53.221 371.088,54.104 378.479,54.969 385.600 C 55.303 388.350,55.756 392.220,55.977 394.200 C 56.197 396.180,56.555 399.060,56.772 400.600 C 56.990 402.140,57.451 405.830,57.797 408.800 C 58.142 411.770,58.598 415.370,58.809 416.800 C 59.021 418.230,59.372 421.110,59.591 423.200 C 60.898 435.688,61.941 441.832,63.236 444.678 C 63.656 445.601,64.000 446.477,64.000 446.624 C 64.000 447.131,67.589 452.202,69.103 453.834 C 72.180 457.151,76.549 459.828,82.200 461.859 C 84.477 462.677,323.006 463.238,328.182 462.437 C 336.903 461.088,343.187 457.059,348.329 449.519 C 351.808 444.419,352.519 441.227,354.819 420.400 C 355.026 418.530,355.287 416.550,355.399 416.000 C 355.511 415.450,355.778 413.380,355.992 411.400 C 356.206 409.420,356.662 405.550,357.006 402.800 C 357.626 397.832,358.290 392.376,359.438 382.800 C 359.768 380.050,360.200 376.540,360.399 375.000 C 360.598 373.460,361.041 369.860,361.383 367.000 C 361.725 364.140,362.272 359.640,362.598 357.000 C 362.924 354.360,363.368 350.580,363.584 348.600 C 363.799 346.620,364.161 343.650,364.386 342.000 C 364.612 340.350,365.073 336.660,365.412 333.800 C 365.751 330.940,366.203 327.340,366.417 325.800 C 366.631 324.260,366.995 321.290,367.227 319.200 C 367.458 317.110,367.905 313.330,368.220 310.800 C 368.534 308.270,368.972 304.580,369.193 302.600 C 369.639 298.600,370.171 294.611,370.900 289.800 C 371.496 285.869,371.533 275.100,370.954 274.343 C 370.725 274.044,370.211 272.900,369.812 271.800 C 367.727 266.048,360.807 260.149,354.000 258.318 C 347.430 256.551,356.045 256.658,208.972 256.520 C 133.056 256.448,70.865 256.468,70.769 256.564 M339.850 289.300 C 339.568 291.173,338.659 298.594,338.023 304.200 C 337.799 306.180,337.433 309.150,337.210 310.800 C 336.987 312.450,336.527 316.140,336.188 319.000 C 335.849 321.860,335.397 325.460,335.183 327.000 C 334.969 328.540,334.605 331.510,334.374 333.600 C 333.901 337.880,333.141 344.203,332.210 351.600 C 331.435 357.760,330.969 361.646,330.290 367.605 C 330.001 370.137,329.627 372.432,329.459 372.705 C 329.007 373.436,84.862 373.432,84.588 372.700 C 84.485 372.425,84.229 370.670,84.018 368.800 C 83.387 363.185,82.443 355.296,81.794 350.200 C 81.457 347.560,81.007 343.780,80.792 341.800 C 80.578 339.820,80.311 337.750,80.200 337.200 C 80.089 336.650,79.818 334.580,79.600 332.600 C 79.203 329.012,78.612 324.069,77.401 314.200 C 77.050 311.340,76.604 307.648,76.410 305.997 C 75.789 300.712,75.178 295.875,74.784 293.123 C 74.573 291.651,74.400 289.806,74.400 289.023 L 74.400 287.600 207.253 287.600 L 340.105 287.600 339.850 289.300 M325.367 406.200 C 325.349 407.300,325.035 410.630,324.669 413.600 C 324.303 416.570,323.827 420.530,323.612 422.400 C 323.396 424.270,323.013 427.195,322.761 428.901 L 322.302 432.001 207.051 431.901 L 91.800 431.800 91.554 430.000 C 91.419 429.010,91.106 426.490,90.860 424.400 C 90.280 419.493,89.754 415.332,88.973 409.506 C 88.628 406.925,88.458 404.630,88.596 404.406 C 88.766 404.131,127.231 404.031,207.124 404.099 L 325.400 404.200 325.367 406.200 " stroke="none" fill="#1c2c44" fill-rule="evenodd"></path><path id="path1" d="M195.200 160.254 C 187.531 161.172,177.542 163.392,173.000 165.188 C 172.560 165.362,171.390 165.820,170.400 166.206 C 157.211 171.352,147.035 178.055,136.885 188.285 C 132.789 192.413,125.716 201.229,124.685 203.492 C 124.458 203.991,124.120 204.400,123.936 204.400 C 123.751 204.400,123.600 204.584,123.600 204.808 C 123.600 205.032,123.117 205.977,122.526 206.908 C 121.076 209.191,116.800 217.860,116.800 218.516 C 116.800 218.804,116.643 219.211,116.451 219.420 C 116.096 219.807,114.243 225.208,113.095 229.200 C 112.472 231.369,111.672 234.892,110.826 239.200 C 110.267 242.049,109.603 249.796,109.601 253.500 L 109.600 256.400 207.100 256.400 L 304.600 256.400 304.278 249.911 C 303.091 226.042,293.618 204.739,276.640 187.760 C 265.433 176.554,251.433 168.122,237.200 164.008 C 235.550 163.531,233.750 162.993,233.200 162.812 C 232.017 162.424,229.149 161.831,224.200 160.950 C 220.731 160.333,198.914 159.809,195.200 160.254 " stroke="none" fill="#fc1c1c" fill-rule="evenodd"></path><path id="path2" d="M0.000 235.600 L 0.000 471.200 200.000 471.200 L 400.000 471.200 400.000 235.600 L 400.000 0.000 200.000 0.000 L 0.000 0.000 0.000 235.600 M215.200 6.020 C 216.410 6.213,218.480 6.539,219.800 6.743 C 224.647 7.494,231.298 9.632,236.515 12.117 C 238.229 12.932,239.718 13.600,239.825 13.600 C 239.932 13.600,241.230 14.355,242.710 15.278 C 256.132 23.649,266.004 35.144,272.013 49.400 C 272.357 50.217,274.607 57.187,275.260 59.457 C 277.403 66.918,277.394 84.593,275.242 91.743 C 274.075 95.624,272.318 101.107,272.020 101.800 C 257.221 136.198,221.531 153.001,185.800 142.392 C 184.920 142.131,184.020 141.793,183.800 141.642 C 183.580 141.491,182.680 141.132,181.800 140.845 C 180.920 140.559,178.337 139.396,176.061 138.262 C 170.330 135.407,170.400 135.446,170.400 135.105 C 170.400 134.937,170.218 134.800,169.996 134.800 C 169.140 134.800,162.587 129.856,159.400 126.806 C 153.540 121.197,147.312 113.251,146.150 109.900 C 146.016 109.515,145.748 109.200,145.553 109.200 C 145.359 109.200,145.200 109.036,145.200 108.836 C 145.200 108.635,144.392 106.790,143.405 104.736 C 142.418 102.681,141.608 100.696,141.605 100.324 C 141.602 99.952,141.440 99.549,141.245 99.428 C 141.050 99.307,140.768 98.555,140.618 97.755 C 140.468 96.956,140.193 96.009,140.007 95.651 C 139.654 94.972,138.835 91.640,137.930 87.200 C 137.208 83.658,137.208 67.542,137.930 64.000 C 138.835 59.560,139.654 56.228,140.007 55.549 C 140.193 55.191,140.468 54.244,140.618 53.445 C 140.768 52.645,141.050 51.893,141.245 51.772 C 141.440 51.651,141.602 51.248,141.605 50.876 C 141.608 50.504,142.418 48.519,143.405 46.464 C 144.392 44.410,145.200 42.565,145.200 42.364 C 145.200 42.164,145.380 42.000,145.600 42.000 C 145.820 42.000,146.000 41.743,146.000 41.429 C 146.000 41.114,146.225 40.619,146.500 40.329 C 146.775 40.038,147.270 39.268,147.600 38.617 C 149.731 34.414,158.298 24.772,163.262 20.990 C 167.330 17.889,168.696 16.896,169.200 16.672 C 169.906 16.358,171.314 15.489,171.600 15.192 C 172.483 14.273,181.352 10.351,185.600 9.000 C 191.908 6.994,191.325 7.125,198.800 6.038 C 201.809 5.600,212.504 5.588,215.200 6.020 M200.200 38.157 C 198.880 38.401,197.620 38.711,197.400 38.847 C 197.180 38.984,196.328 39.216,195.507 39.364 C 193.895 39.655,186.171 43.429,185.200 44.400 C 185.090 44.510,184.190 45.251,183.200 46.046 C 178.939 49.469,175.358 53.913,173.163 58.501 C 172.506 59.875,171.818 61.276,171.635 61.613 C 171.452 61.950,171.168 62.850,171.005 63.613 C 170.841 64.376,170.573 65.180,170.408 65.400 C 169.875 66.114,168.697 75.216,168.916 76.933 C 169.572 82.060,170.064 85.091,170.357 85.800 C 170.539 86.240,171.278 88.130,171.999 90.000 C 180.618 112.353,209.285 120.696,228.991 106.586 C 232.937 103.760,239.200 97.060,239.200 95.664 C 239.200 95.445,239.335 95.207,239.500 95.133 C 239.752 95.021,241.521 91.553,242.831 88.600 C 244.493 84.853,245.371 73.819,244.406 68.800 C 243.480 63.985,243.251 63.308,241.024 58.800 C 239.381 55.474,238.909 54.652,237.940 53.431 C 233.188 47.444,228.302 43.396,223.000 41.053 C 220.098 39.770,219.819 39.666,217.600 39.039 C 212.346 37.554,205.385 37.201,200.200 38.157 M217.200 159.585 C 221.691 159.946,227.951 160.767,228.800 161.106 C 229.130 161.238,230.390 161.568,231.600 161.840 C 235.414 162.695,237.374 163.203,238.200 163.553 C 238.640 163.739,239.990 164.219,241.200 164.621 C 242.410 165.023,243.850 165.587,244.400 165.873 C 244.950 166.160,245.627 166.396,245.905 166.398 C 246.183 166.399,246.723 166.571,247.105 166.780 C 247.487 166.988,249.330 167.908,251.200 168.824 C 257.079 171.703,259.340 173.036,265.000 176.967 C 271.490 181.473,279.979 189.688,285.400 196.710 C 285.620 196.995,285.980 197.449,286.200 197.719 C 288.235 200.220,294.303 210.073,294.644 211.431 C 294.777 211.964,295.047 212.400,295.243 212.400 C 295.440 212.400,295.600 212.592,295.600 212.826 C 295.600 213.060,296.026 214.185,296.547 215.326 C 297.068 216.467,297.894 218.390,298.382 219.600 C 298.869 220.810,299.410 222.076,299.583 222.413 C 299.757 222.750,300.034 223.644,300.200 224.400 C 300.366 225.156,300.642 226.050,300.813 226.387 C 300.985 226.724,301.398 228.080,301.732 229.400 C 302.066 230.720,302.528 232.524,302.759 233.409 C 303.153 234.925,303.647 237.746,304.403 242.800 C 304.584 244.010,304.749 246.530,304.770 248.400 C 304.790 250.270,304.920 252.741,305.058 253.890 L 305.309 255.980 326.755 256.117 C 341.935 256.214,348.843 256.399,350.400 256.750 C 353.187 257.379,356.990 258.697,358.794 259.657 C 359.561 260.066,360.416 260.400,360.694 260.400 C 360.972 260.400,361.204 260.535,361.209 260.700 C 361.213 260.865,362.217 261.716,363.439 262.592 C 368.020 265.874,371.431 272.089,372.005 278.200 C 372.302 281.360,372.191 282.987,371.008 292.800 C 370.677 295.550,370.228 299.510,370.012 301.600 C 369.796 303.690,369.442 306.390,369.226 307.600 C 369.010 308.810,368.735 311.060,368.615 312.600 C 368.495 314.140,368.223 316.570,368.011 318.000 C 367.799 319.430,367.341 323.030,366.993 326.000 C 366.645 328.970,366.276 331.940,366.173 332.600 C 365.935 334.123,364.869 343.144,364.399 347.600 C 364.202 349.470,363.852 352.350,363.621 354.000 C 363.390 355.650,362.929 359.250,362.597 362.000 C 362.264 364.750,361.805 368.440,361.576 370.200 C 360.961 374.930,360.449 379.327,360.016 383.600 C 359.804 385.690,359.450 388.570,359.229 390.000 C 359.007 391.430,358.553 394.940,358.219 397.800 C 357.886 400.660,357.521 403.720,357.409 404.600 C 356.779 409.561,355.893 416.799,355.401 421.000 C 353.441 437.743,353.591 436.689,352.531 441.200 C 352.195 442.630,351.781 443.980,351.612 444.200 C 351.443 444.420,351.081 445.292,350.808 446.139 C 348.928 451.973,337.786 461.948,333.085 462.006 C 332.818 462.009,331.880 462.271,331.000 462.588 C 329.620 463.086,312.568 463.165,207.000 463.165 C 101.432 463.165,84.380 463.086,83.000 462.588 C 82.120 462.271,81.171 462.009,80.892 462.006 C 76.385 461.953,63.200 450.009,63.200 445.980 C 63.200 445.639,63.043 445.189,62.851 444.980 C 62.312 444.392,61.237 440.501,60.757 437.400 C 60.289 434.374,60.282 434.319,59.381 426.600 C 59.047 423.740,58.593 420.230,58.371 418.800 C 58.150 417.370,57.795 414.490,57.581 412.400 C 57.368 410.310,56.921 406.440,56.587 403.800 C 56.254 401.160,55.824 397.560,55.631 395.800 C 55.259 392.406,54.664 387.734,53.977 382.800 C 53.747 381.150,53.396 378.270,53.197 376.400 C 52.825 372.909,51.758 363.850,51.383 361.000 C 51.267 360.120,50.908 357.240,50.586 354.600 C 50.263 351.960,49.810 348.450,49.579 346.800 C 49.348 345.150,48.998 342.270,48.801 340.400 C 48.429 336.872,47.359 327.791,46.986 325.000 C 46.869 324.120,46.508 321.240,46.186 318.600 C 45.863 315.960,45.410 312.450,45.179 310.800 C 44.948 309.150,44.605 306.270,44.416 304.400 C 43.601 296.335,43.135 292.473,42.748 290.600 C 41.984 286.901,42.890 275.454,44.044 274.220 C 44.240 274.011,44.400 273.596,44.400 273.298 C 44.400 271.417,48.630 264.847,51.071 262.938 C 51.871 262.312,52.992 261.429,53.563 260.974 C 58.671 256.909,62.751 256.342,88.300 256.140 L 108.800 255.979 108.800 253.310 C 108.800 250.793,109.015 248.602,110.007 241.000 C 110.638 236.159,111.799 230.622,112.416 229.505 C 112.627 229.123,112.800 228.569,112.800 228.273 C 112.800 227.456,114.454 222.253,114.851 221.820 C 115.043 221.611,115.200 221.219,115.200 220.948 C 115.200 218.901,124.968 200.595,126.805 199.200 C 126.950 199.090,127.233 198.706,127.434 198.347 C 130.668 192.578,143.560 180.400,152.600 174.575 C 156.825 171.853,165.655 167.200,166.596 167.200 C 166.928 167.200,167.200 167.020,167.200 166.800 C 167.200 166.580,167.515 166.399,167.900 166.398 C 168.285 166.396,169.063 166.153,169.629 165.858 C 170.557 165.374,176.406 163.412,180.000 162.379 C 188.991 159.796,204.920 158.599,217.200 159.585 M108.005 288.700 C 108.010 289.430,109.491 295.407,110.608 299.200 C 110.964 300.410,111.405 301.940,111.587 302.600 C 112.678 306.555,116.264 316.486,117.819 319.860 C 118.139 320.554,118.400 321.218,118.400 321.337 C 118.400 321.965,124.172 333.824,126.994 338.993 C 132.729 349.498,143.656 365.165,149.527 371.300 L 150.962 372.800 239.854 372.800 C 328.422 372.800,328.747 372.797,329.000 371.999 C 329.140 371.559,329.430 369.714,329.644 367.899 C 329.858 366.085,330.294 362.440,330.614 359.800 C 330.933 357.160,331.374 353.290,331.593 351.200 C 331.812 349.110,332.169 346.320,332.387 345.000 C 332.606 343.680,332.992 340.710,333.247 338.400 C 333.501 336.090,333.848 333.120,334.018 331.800 C 335.041 323.840,336.542 311.302,337.156 305.600 C 337.381 303.510,337.751 300.450,337.979 298.800 C 338.794 292.888,339.200 289.555,339.200 288.784 C 339.200 288.007,338.130 288.000,223.600 288.000 C 113.770 288.000,108.000 288.035,108.005 288.700 M187.799 405.198 C 188.371 406.124,199.584 412.752,207.400 416.784 C 215.770 421.102,222.605 423.926,238.600 429.675 L 243.400 431.400 282.663 431.506 L 321.925 431.612 322.142 429.506 C 322.262 428.348,322.639 425.060,322.981 422.200 C 323.323 419.340,323.696 416.190,323.811 415.200 C 324.289 411.091,324.841 406.930,325.045 405.900 L 325.264 404.800 256.408 404.800 C 210.866 404.800,187.636 404.935,187.799 405.198 " stroke="none" fill="#fbfbfb" fill-rule="evenodd"></path><path id="path3" d="M201.500 5.882 C 201.995 5.978,202.805 5.978,203.300 5.882 C 203.795 5.787,203.390 5.709,202.400 5.709 C 201.410 5.709,201.005 5.787,201.500 5.882 M210.905 5.887 C 211.514 5.979,212.414 5.977,212.905 5.882 C 213.397 5.787,212.900 5.711,211.800 5.714 C 210.700 5.717,210.297 5.795,210.905 5.887 M196.400 6.406 C 195.978 6.682,196.215 6.723,197.200 6.542 C 198.925 6.225,199.251 5.998,197.967 6.006 C 197.435 6.009,196.730 6.189,196.400 6.406 M215.233 6.143 C 215.325 6.221,216.030 6.401,216.800 6.542 C 217.785 6.723,218.022 6.682,217.600 6.406 C 217.058 6.050,214.837 5.803,215.233 6.143 M191.600 7.200 C 190.796 7.457,190.757 7.523,191.400 7.532 C 191.840 7.538,192.560 7.389,193.000 7.200 C 194.019 6.762,192.968 6.762,191.600 7.200 M251.200 21.325 C 251.200 21.394,251.785 21.979,252.500 22.625 L 253.800 23.800 252.625 22.500 C 251.530 21.288,251.200 21.016,251.200 21.325 M160.778 23.100 L 159.400 24.600 160.900 23.222 C 161.725 22.463,162.400 21.788,162.400 21.722 C 162.400 21.416,162.062 21.704,160.778 23.100 M154.378 29.500 L 153.000 31.000 154.500 29.622 C 155.325 28.863,156.000 28.188,156.000 28.122 C 156.000 27.816,155.662 28.104,154.378 29.500 M259.800 30.000 C 260.659 30.880,261.452 31.600,261.562 31.600 C 261.672 31.600,261.059 30.880,260.200 30.000 C 259.341 29.120,258.548 28.400,258.438 28.400 C 258.328 28.400,258.941 29.120,259.800 30.000 M205.907 37.490 C 206.626 37.579,207.706 37.577,208.307 37.486 C 208.908 37.395,208.320 37.322,207.000 37.324 C 205.680 37.326,205.188 37.401,205.907 37.490 M199.800 38.019 C 199.242 38.271,199.485 38.307,200.600 38.138 C 201.480 38.004,202.275 37.828,202.367 37.747 C 202.710 37.444,200.568 37.671,199.800 38.019 M231.800 46.800 C 232.659 47.680,233.452 48.400,233.562 48.400 C 233.672 48.400,233.059 47.680,232.200 46.800 C 231.341 45.920,230.548 45.200,230.438 45.200 C 230.328 45.200,230.941 45.920,231.800 46.800 M181.375 47.300 L 180.200 48.600 181.500 47.425 C 182.215 46.779,182.800 46.194,182.800 46.125 C 182.800 45.816,182.470 46.088,181.375 47.300 M141.979 49.455 C 141.758 50.036,141.652 50.585,141.743 50.676 C 141.833 50.767,142.099 50.292,142.333 49.620 C 142.853 48.128,142.539 47.982,141.979 49.455 M234.400 49.325 C 234.400 49.394,234.985 49.979,235.700 50.625 L 237.000 51.800 235.825 50.500 C 234.730 49.288,234.400 49.016,234.400 49.325 M274.056 56.000 C 274.056 56.330,274.211 56.960,274.400 57.400 C 274.617 57.904,274.744 57.978,274.744 57.600 C 274.744 57.270,274.589 56.640,274.400 56.200 C 274.183 55.696,274.056 55.622,274.056 56.000 M137.693 66.000 C 137.693 66.770,137.775 67.085,137.876 66.700 C 137.976 66.315,137.976 65.685,137.876 65.300 C 137.775 64.915,137.693 65.230,137.693 66.000 M243.606 65.433 C 243.609 65.855,243.795 66.470,244.018 66.800 C 244.315 67.238,244.352 67.076,244.156 66.200 C 243.827 64.729,243.598 64.410,243.606 65.433 M276.282 67.221 C 276.408 68.199,276.575 69.075,276.655 69.167 C 276.981 69.542,276.760 66.555,276.421 66.021 C 276.184 65.646,276.135 66.070,276.282 67.221 M137.293 68.800 C 137.293 69.570,137.375 69.885,137.476 69.500 C 137.576 69.115,137.576 68.485,137.476 68.100 C 137.375 67.715,137.293 68.030,137.293 68.800 M169.293 69.600 C 169.293 70.370,169.375 70.685,169.476 70.300 C 169.576 69.915,169.576 69.285,169.476 68.900 C 169.375 68.515,169.293 68.830,169.293 69.600 M244.954 75.600 C 244.954 78.350,245.018 79.475,245.096 78.100 C 245.174 76.725,245.174 74.475,245.096 73.100 C 245.018 71.725,244.954 72.850,244.954 75.600 M276.928 75.600 C 276.928 77.030,277.001 77.615,277.089 76.900 C 277.178 76.185,277.178 75.015,277.089 74.300 C 277.001 73.585,276.928 74.170,276.928 75.600 M169.293 81.200 C 169.293 81.970,169.375 82.285,169.476 81.900 C 169.576 81.515,169.576 80.885,169.476 80.500 C 169.375 80.115,169.293 80.430,169.293 81.200 M137.293 82.400 C 137.293 83.170,137.375 83.485,137.476 83.100 C 137.576 82.715,137.576 82.085,137.476 81.700 C 137.375 81.315,137.293 81.630,137.293 82.400 M276.493 83.200 C 276.493 83.970,276.575 84.285,276.676 83.900 C 276.776 83.515,276.776 82.885,276.676 82.500 C 276.575 82.115,276.493 82.430,276.493 83.200 M137.693 85.200 C 137.693 85.970,137.775 86.285,137.876 85.900 C 137.976 85.515,137.976 84.885,137.876 84.500 C 137.775 84.115,137.693 84.430,137.693 85.200 M243.849 84.615 C 243.712 84.973,243.615 85.566,243.634 85.933 C 243.653 86.300,243.827 86.069,244.021 85.420 C 244.398 84.158,244.265 83.533,243.849 84.615 M180.000 102.600 C 181.417 104.030,182.667 105.200,182.777 105.200 C 182.887 105.200,181.817 104.030,180.400 102.600 C 178.983 101.170,177.733 100.000,177.623 100.000 C 177.513 100.000,178.583 101.170,180.000 102.600 M141.818 101.300 C 141.968 101.795,142.255 102.376,142.456 102.591 C 142.657 102.806,142.619 102.401,142.372 101.691 C 141.865 100.238,141.397 99.908,141.818 101.300 M219.800 111.414 C 218.795 111.898,218.763 111.953,219.600 111.751 C 220.150 111.619,220.771 111.350,220.980 111.155 C 221.498 110.671,221.214 110.733,219.800 111.414 M196.600 112.400 C 197.040 112.589,197.670 112.744,198.000 112.744 C 198.378 112.744,198.304 112.617,197.800 112.400 C 197.360 112.211,196.730 112.056,196.400 112.056 C 196.022 112.056,196.096 112.183,196.600 112.400 M203.000 113.623 C 203.880 113.805,205.140 113.942,205.800 113.927 C 206.700 113.907,206.550 113.820,205.200 113.580 C 202.786 113.150,200.894 113.187,203.000 113.623 M208.100 113.876 C 208.485 113.976,209.115 113.976,209.500 113.876 C 209.885 113.775,209.570 113.693,208.800 113.693 C 208.030 113.693,207.715 113.775,208.100 113.876 M160.200 127.600 C 161.059 128.480,161.852 129.200,161.962 129.200 C 162.072 129.200,161.459 128.480,160.600 127.600 C 159.741 126.720,158.948 126.000,158.838 126.000 C 158.728 126.000,159.341 126.720,160.200 127.600 M187.200 142.782 C 187.530 143.005,188.145 143.191,188.567 143.194 C 189.590 143.202,189.271 142.973,187.800 142.644 C 186.924 142.448,186.762 142.485,187.200 142.782 M192.000 143.982 C 192.330 144.205,192.945 144.391,193.367 144.394 C 194.390 144.402,194.071 144.173,192.600 143.844 C 191.724 143.648,191.562 143.685,192.000 143.982 M212.000 145.200 L 209.400 145.462 211.800 145.503 C 213.120 145.525,214.560 145.389,215.000 145.200 C 215.883 144.821,215.767 144.821,212.000 145.200 M201.107 145.490 C 201.826 145.579,202.906 145.577,203.507 145.486 C 204.108 145.395,203.520 145.322,202.200 145.324 C 200.880 145.326,200.388 145.401,201.107 145.490 M67.800 256.403 C 67.285 256.626,67.713 256.667,69.000 256.518 C 70.100 256.391,71.075 256.223,71.167 256.144 C 71.514 255.845,68.564 256.072,67.800 256.403 M343.233 256.147 C 343.325 256.228,344.660 256.386,346.200 256.499 C 347.802 256.616,348.658 256.565,348.200 256.380 C 347.422 256.065,342.900 255.853,343.233 256.147 M371.462 275.800 C 371.596 276.680,371.772 277.475,371.853 277.567 C 372.156 277.910,371.929 275.768,371.581 275.000 C 371.329 274.442,371.293 274.685,371.462 275.800 M42.649 279.415 C 42.512 279.773,42.425 280.816,42.456 281.733 C 42.509 283.301,42.529 283.270,42.792 281.200 C 43.090 278.855,43.051 278.368,42.649 279.415 M371.440 286.840 C 371.293 287.757,371.252 288.585,371.347 288.680 C 371.442 288.776,371.646 288.110,371.800 287.200 C 371.954 286.290,371.996 285.462,371.893 285.360 C 371.790 285.257,371.587 285.923,371.440 286.840 M42.428 288.233 C 42.444 289.095,42.609 290.160,42.796 290.600 C 43.008 291.098,43.051 290.569,42.912 289.200 C 42.644 286.565,42.389 286.057,42.428 288.233 M91.248 287.900 L 74.697 288.009 74.969 289.904 C 75.119 290.947,75.500 293.960,75.816 296.600 C 77.549 311.105,77.769 312.864,78.417 317.400 C 78.637 318.940,79.001 321.910,79.225 324.000 C 79.694 328.362,80.504 335.270,81.359 342.200 C 81.685 344.840,82.250 349.430,82.615 352.400 C 82.980 355.370,83.427 358.970,83.608 360.400 C 83.790 361.830,84.168 365.205,84.447 367.900 L 84.956 372.800 117.959 372.800 L 150.962 372.800 149.527 371.300 C 143.656 365.165,132.729 349.498,126.994 338.993 C 124.172 333.824,118.400 321.965,118.400 321.337 C 118.400 321.218,118.139 320.554,117.819 319.860 C 116.264 316.486,112.678 306.555,111.587 302.600 C 111.405 301.940,110.964 300.410,110.608 299.200 C 109.491 295.407,108.010 289.430,108.005 288.700 C 107.999 287.787,339.003 287.587,339.309 288.500 C 339.406 288.787,339.458 288.745,339.433 288.400 C 339.392 287.836,156.659 287.467,91.248 287.900 M338.893 292.000 C 338.893 292.770,338.975 293.085,339.076 292.700 C 339.176 292.315,339.176 291.685,339.076 291.300 C 338.975 290.915,338.893 291.230,338.893 292.000 M370.449 295.800 C 370.416 296.240,370.296 297.050,370.183 297.600 L 369.977 298.600 370.406 297.619 C 370.642 297.079,370.761 296.269,370.672 295.819 C 370.513 295.021,370.507 295.021,370.449 295.800 M43.701 298.200 C 43.705 299.080,43.787 299.393,43.883 298.895 C 43.979 298.398,43.975 297.678,43.875 297.295 C 43.775 296.913,43.696 297.320,43.701 298.200 M337.709 301.600 C 337.709 302.590,337.787 302.995,337.882 302.500 C 337.978 302.005,337.978 301.195,337.882 300.700 C 337.787 300.205,337.709 300.610,337.709 301.600 M369.301 305.400 C 369.305 306.280,369.387 306.593,369.483 306.095 C 369.579 305.598,369.575 304.878,369.475 304.495 C 369.375 304.113,369.296 304.520,369.301 305.400 M44.909 308.000 C 44.909 308.990,44.987 309.395,45.082 308.900 C 45.178 308.405,45.178 307.595,45.082 307.100 C 44.987 306.605,44.909 307.010,44.909 308.000 M336.493 310.800 C 336.493 311.570,336.575 311.885,336.676 311.500 C 336.776 311.115,336.776 310.485,336.676 310.100 C 336.575 309.715,336.493 310.030,336.493 310.800 M368.109 315.200 C 368.109 316.190,368.187 316.595,368.282 316.100 C 368.378 315.605,368.378 314.795,368.282 314.300 C 368.187 313.805,368.109 314.210,368.109 315.200 M46.093 317.600 C 46.093 318.370,46.175 318.685,46.276 318.300 C 46.376 317.915,46.376 317.285,46.276 316.900 C 46.175 316.515,46.093 316.830,46.093 317.600 M335.456 319.284 C 335.321 319.788,335.227 320.560,335.246 321.000 C 335.265 321.440,335.445 321.098,335.646 320.240 C 336.036 318.578,335.870 317.740,335.456 319.284 M366.893 324.800 C 366.893 325.570,366.975 325.885,367.076 325.500 C 367.176 325.115,367.176 324.485,367.076 324.100 C 366.975 323.715,366.893 324.030,366.893 324.800 M46.828 324.833 C 46.844 325.365,47.019 326.160,47.219 326.600 C 47.471 327.158,47.507 326.915,47.338 325.800 C 47.055 323.943,46.787 323.436,46.828 324.833 M334.200 329.600 C 334.046 330.510,334.004 331.338,334.107 331.440 C 334.210 331.543,334.413 330.877,334.560 329.960 C 334.707 329.043,334.748 328.215,334.653 328.120 C 334.558 328.024,334.354 328.690,334.200 329.600 M48.093 334.800 C 48.093 335.570,48.175 335.885,48.276 335.500 C 48.376 335.115,48.376 334.485,48.276 334.100 C 48.175 333.715,48.093 334.030,48.093 334.800 M333.309 337.600 C 333.309 338.590,333.387 338.995,333.482 338.500 C 333.578 338.005,333.578 337.195,333.482 336.700 C 333.387 336.205,333.309 336.610,333.309 337.600 M364.893 342.000 C 364.893 342.770,364.975 343.085,365.076 342.700 C 365.176 342.315,365.176 341.685,365.076 341.300 C 364.975 340.915,364.893 341.230,364.893 342.000 M49.309 344.000 C 49.309 344.990,49.387 345.395,49.482 344.900 C 49.578 344.405,49.578 343.595,49.482 343.100 C 49.387 342.605,49.309 343.010,49.309 344.000 M332.101 347.400 C 332.105 348.280,332.187 348.593,332.283 348.095 C 332.379 347.598,332.375 346.878,332.275 346.495 C 332.175 346.113,332.096 346.520,332.101 347.400 M363.709 351.200 C 363.709 352.190,363.787 352.595,363.882 352.100 C 363.978 351.605,363.978 350.795,363.882 350.300 C 363.787 349.805,363.709 350.210,363.709 351.200 M50.493 353.600 C 50.493 354.370,50.575 354.685,50.676 354.300 C 50.776 353.915,50.776 353.285,50.676 352.900 C 50.575 352.515,50.493 352.830,50.493 353.600 M331.056 355.284 C 330.921 355.788,330.827 356.560,330.846 357.000 C 330.865 357.440,331.045 357.098,331.246 356.240 C 331.636 354.578,331.470 353.740,331.056 355.284 M362.493 360.800 C 362.493 361.570,362.575 361.885,362.676 361.500 C 362.776 361.115,362.776 360.485,362.676 360.100 C 362.575 359.715,362.493 360.030,362.493 360.800 M51.228 360.833 C 51.244 361.365,51.419 362.160,51.619 362.600 C 51.871 363.158,51.907 362.915,51.738 361.800 C 51.455 359.943,51.187 359.436,51.228 360.833 M329.800 365.600 C 329.646 366.510,329.604 367.338,329.707 367.440 C 329.810 367.543,330.013 366.877,330.160 365.960 C 330.307 365.043,330.348 364.215,330.253 364.120 C 330.158 364.024,329.954 364.690,329.800 365.600 M52.493 370.800 C 52.493 371.570,52.575 371.885,52.676 371.500 C 52.776 371.115,52.776 370.485,52.676 370.100 C 52.575 369.715,52.493 370.030,52.493 370.800 M360.493 378.000 C 360.493 378.770,360.575 379.085,360.676 378.700 C 360.776 378.315,360.776 377.685,360.676 377.300 C 360.575 376.915,360.493 377.230,360.493 378.000 M53.709 380.000 C 53.709 380.990,53.787 381.395,53.882 380.900 C 53.978 380.405,53.978 379.595,53.882 379.100 C 53.787 378.605,53.709 379.010,53.709 380.000 M359.301 387.800 C 359.305 388.680,359.387 388.993,359.483 388.495 C 359.579 387.998,359.575 387.278,359.475 386.895 C 359.375 386.513,359.296 386.920,359.301 387.800 M54.893 389.600 C 54.893 390.370,54.975 390.685,55.076 390.300 C 55.176 389.915,55.176 389.285,55.076 388.900 C 54.975 388.515,54.893 388.830,54.893 389.600 M358.093 396.800 C 358.093 397.570,358.175 397.885,358.276 397.500 C 358.376 397.115,358.376 396.485,358.276 396.100 C 358.175 395.715,358.093 396.030,358.093 396.800 M55.687 397.200 C 55.683 397.750,55.824 398.650,56.000 399.200 C 56.431 400.544,56.431 399.092,56.000 397.400 C 55.726 396.322,55.694 396.302,55.687 397.200 M357.249 404.200 C 357.216 404.640,357.096 405.450,356.983 406.000 L 356.777 407.000 357.206 406.019 C 357.442 405.479,357.561 404.669,357.472 404.219 C 357.313 403.421,357.307 403.421,357.249 404.200 M138.065 404.700 L 89.129 404.803 89.335 407.102 C 89.449 408.366,89.830 411.740,90.182 414.600 C 90.535 417.460,90.990 421.330,91.194 423.200 C 91.398 425.070,91.773 427.725,92.027 429.100 L 92.491 431.600 168.345 431.568 C 210.065 431.551,243.930 431.441,243.600 431.324 C 243.270 431.207,240.930 430.400,238.400 429.531 C 225.494 425.095,216.029 421.222,207.763 416.994 C 200.321 413.187,197.358 411.473,190.400 406.950 L 187.400 405.000 256.400 404.798 L 325.400 404.597 256.200 404.597 C 218.140 404.597,164.979 404.643,138.065 404.700 M56.893 406.800 C 56.893 407.570,56.975 407.885,57.076 407.500 C 57.176 407.115,57.176 406.485,57.076 406.100 C 56.975 405.715,56.893 406.030,56.893 406.800 M324.493 410.000 C 324.493 410.770,324.575 411.085,324.676 410.700 C 324.776 410.315,324.776 409.685,324.676 409.300 C 324.575 408.915,324.493 409.230,324.493 410.000 M356.093 414.000 C 356.093 414.770,356.175 415.085,356.276 414.700 C 356.376 414.315,356.376 413.685,356.276 413.300 C 356.175 412.915,356.093 413.230,356.093 414.000 M58.101 416.600 C 58.105 417.480,58.187 417.793,58.283 417.295 C 58.379 416.798,58.375 416.078,58.275 415.695 C 58.175 415.313,58.096 415.720,58.101 416.600 M323.456 417.284 C 323.321 417.788,323.231 418.830,323.255 419.600 C 323.289 420.669,323.375 420.480,323.618 418.802 C 323.953 416.492,323.872 415.733,323.456 417.284 M354.901 423.800 C 354.905 424.680,354.987 424.993,355.083 424.495 C 355.179 423.998,355.175 423.278,355.075 422.895 C 354.975 422.513,354.896 422.920,354.901 423.800 M59.293 425.600 C 59.293 426.370,59.375 426.685,59.476 426.300 C 59.576 425.915,59.576 425.285,59.476 424.900 C 59.375 424.515,59.293 424.830,59.293 425.600 M322.249 427.415 C 322.112 427.773,322.023 428.636,322.050 429.333 C 322.092 430.387,322.150 430.298,322.399 428.800 C 322.717 426.886,322.659 426.348,322.249 427.415 M353.709 433.600 C 353.709 434.590,353.787 434.995,353.882 434.500 C 353.978 434.005,353.978 433.195,353.882 432.700 C 353.787 432.205,353.709 432.610,353.709 433.600 M60.028 433.233 C 60.044 433.765,60.219 434.560,60.419 435.000 C 60.671 435.558,60.707 435.315,60.538 434.200 C 60.255 432.343,59.987 431.836,60.028 433.233 M61.206 440.233 C 61.209 440.655,61.395 441.270,61.618 441.600 C 61.915 442.038,61.952 441.876,61.756 441.000 C 61.427 439.529,61.198 439.210,61.206 440.233 " stroke="none" fill="#c4ccdb" fill-rule="evenodd"></path><path id="path4" d="M204.500 5.876 C 204.885 5.976,205.515 5.976,205.900 5.876 C 206.285 5.775,205.970 5.693,205.200 5.693 C 204.430 5.693,204.115 5.775,204.500 5.876 M157.978 25.900 L 156.600 27.400 158.100 26.022 C 158.925 25.263,159.600 24.588,159.600 24.522 C 159.600 24.216,159.262 24.504,157.978 25.900 M276.514 71.000 C 276.517 72.100,276.595 72.503,276.687 71.895 C 276.779 71.286,276.777 70.386,276.682 69.895 C 276.587 69.403,276.511 69.900,276.514 71.000 M137.301 71.400 C 137.305 72.280,137.387 72.593,137.483 72.095 C 137.579 71.598,137.575 70.878,137.475 70.495 C 137.375 70.113,137.296 70.520,137.301 71.400 M137.301 79.800 C 137.305 80.680,137.387 80.993,137.483 80.495 C 137.579 79.998,137.575 79.278,137.475 78.895 C 137.375 78.513,137.296 78.920,137.301 79.800 M276.514 80.200 C 276.517 81.300,276.595 81.703,276.687 81.095 C 276.779 80.486,276.777 79.586,276.682 79.095 C 276.587 78.603,276.511 79.100,276.514 80.200 M256.185 124.900 L 254.200 127.000 256.300 125.015 C 258.251 123.171,258.583 122.800,258.285 122.800 C 258.222 122.800,257.277 123.745,256.185 124.900 M205.491 145.489 C 206.201 145.577,207.461 145.579,208.291 145.492 C 209.121 145.405,208.540 145.333,207.000 145.331 C 205.460 145.329,204.781 145.400,205.491 145.489 M80.728 256.300 C 86.078 256.363,94.718 256.363,99.928 256.300 C 105.137 256.236,100.760 256.185,90.200 256.185 C 79.640 256.185,75.377 256.237,80.728 256.300 M314.300 256.300 C 319.635 256.363,328.365 256.363,333.700 256.300 C 339.035 256.237,334.670 256.185,324.000 256.185 C 313.330 256.185,308.965 256.237,314.300 256.300 M42.514 285.000 C 42.517 286.100,42.595 286.503,42.687 285.895 C 42.779 285.286,42.777 284.386,42.682 283.895 C 42.587 283.403,42.511 283.900,42.514 285.000 M82.900 287.900 C 87.465 287.964,94.935 287.964,99.500 287.900 C 104.065 287.835,100.330 287.783,91.200 287.783 C 82.070 287.783,78.335 287.835,82.900 287.900 M75.309 294.000 C 75.309 294.990,75.387 295.395,75.482 294.900 C 75.578 294.405,75.578 293.595,75.482 293.100 C 75.387 292.605,75.309 293.010,75.309 294.000 M76.268 302.600 C 76.571 304.577,76.802 304.914,76.794 303.367 C 76.791 302.725,76.616 301.930,76.405 301.600 C 76.145 301.191,76.101 301.510,76.268 302.600 M77.462 312.200 C 77.596 313.080,77.772 313.875,77.853 313.967 C 78.156 314.310,77.929 312.168,77.581 311.400 C 77.329 310.842,77.293 311.085,77.462 312.200 M78.501 320.200 C 78.505 321.080,78.587 321.393,78.683 320.895 C 78.779 320.398,78.775 319.678,78.675 319.295 C 78.575 318.913,78.496 319.320,78.501 320.200 M79.709 330.000 C 79.709 330.990,79.787 331.395,79.882 330.900 C 79.978 330.405,79.978 329.595,79.882 329.100 C 79.787 328.605,79.709 329.010,79.709 330.000 M80.901 339.800 C 80.905 340.680,80.987 340.993,81.083 340.495 C 81.179 339.998,81.175 339.278,81.075 338.895 C 80.975 338.513,80.896 338.920,80.901 339.800 M81.862 348.200 C 81.996 349.080,82.172 349.875,82.253 349.967 C 82.556 350.310,82.329 348.168,81.981 347.400 C 81.729 346.842,81.693 347.085,81.862 348.200 M82.887 357.000 C 82.891 357.440,83.032 358.340,83.200 359.000 C 83.474 360.078,83.506 360.098,83.513 359.200 C 83.517 358.650,83.376 357.750,83.200 357.200 C 82.949 356.416,82.881 356.373,82.887 357.000 M84.109 366.000 C 84.109 366.990,84.187 367.395,84.282 366.900 C 84.378 366.405,84.378 365.595,84.282 365.100 C 84.187 364.605,84.109 365.010,84.109 366.000 M88.938 405.017 C 88.808 405.357,88.813 405.747,88.951 405.884 C 89.088 406.021,89.200 405.834,89.200 405.468 C 89.200 404.852,92.815 404.796,138.100 404.700 L 187.000 404.597 138.087 404.498 C 94.312 404.410,89.150 404.465,88.938 405.017 M89.701 411.800 C 89.705 412.680,89.787 412.993,89.883 412.495 C 89.979 411.998,89.975 411.278,89.875 410.895 C 89.775 410.513,89.696 410.920,89.701 411.800 M90.650 420.800 C 90.975 423.041,91.202 423.360,91.194 421.567 C 91.191 420.815,91.008 419.930,90.788 419.600 C 90.509 419.181,90.467 419.542,90.650 420.800 M91.687 428.800 C 91.683 429.350,91.824 430.250,92.000 430.800 C 92.431 432.144,92.431 430.692,92.000 429.000 C 91.726 427.922,91.694 427.902,91.687 428.800 M264.500 431.900 C 275.005 431.959,292.195 431.959,302.700 431.900 C 313.205 431.841,304.610 431.792,283.600 431.792 C 262.590 431.792,253.995 431.841,264.500 431.900 M345.375 453.700 L 344.200 455.000 345.500 453.825 C 346.215 453.179,346.800 452.594,346.800 452.525 C 346.800 452.216,346.470 452.488,345.375 453.700 " stroke="none" fill="#9fa8b3" fill-rule="evenodd"></path><path id="path5" d="M196.100 159.876 C 196.485 159.976,197.115 159.976,197.500 159.876 C 197.885 159.775,197.570 159.693,196.800 159.693 C 196.030 159.693,195.715 159.775,196.100 159.876 " stroke="none" fill="#fca5a2" fill-rule="evenodd"></path><path id="path6" d="M202.500 159.899 C 205.085 159.968,209.315 159.968,211.900 159.899 C 214.485 159.829,212.370 159.772,207.200 159.772 C 202.030 159.772,199.915 159.829,202.500 159.899 M194.500 160.276 C 194.885 160.376,195.515 160.376,195.900 160.276 C 196.285 160.175,195.970 160.093,195.200 160.093 C 194.430 160.093,194.115 160.175,194.500 160.276 M218.100 160.276 C 218.485 160.376,219.115 160.376,219.500 160.276 C 219.885 160.175,219.570 160.093,218.800 160.093 C 218.030 160.093,217.715 160.175,218.100 160.276 M223.000 160.823 C 225.026 161.242,226.663 161.223,225.000 160.800 C 224.340 160.632,223.260 160.494,222.600 160.493 C 221.591 160.492,221.655 160.545,223.000 160.823 M229.600 162.000 C 230.968 162.438,232.019 162.438,231.000 162.000 C 230.560 161.811,229.840 161.662,229.400 161.668 C 228.757 161.677,228.796 161.743,229.600 162.000 M233.200 162.741 C 233.530 162.934,234.340 163.209,235.000 163.352 C 235.768 163.518,235.984 163.484,235.600 163.259 C 235.270 163.066,234.460 162.791,233.800 162.648 C 233.032 162.482,232.816 162.516,233.200 162.741 M178.400 163.218 C 177.962 163.515,178.124 163.552,179.000 163.356 C 180.471 163.027,180.790 162.798,179.767 162.806 C 179.345 162.809,178.730 162.995,178.400 163.218 M153.300 174.446 C 151.937 175.319,151.495 175.906,152.700 175.243 C 153.618 174.739,155.056 173.627,154.800 173.619 C 154.690 173.616,154.015 173.988,153.300 174.446 M262.600 175.905 C 263.222 176.562,269.600 181.219,269.600 181.016 C 269.600 180.917,268.205 179.781,266.500 178.491 C 263.335 176.096,261.847 175.110,262.600 175.905 M147.185 178.829 L 145.800 180.058 147.300 178.981 C 148.626 178.030,149.057 177.600,148.685 177.600 C 148.622 177.600,147.947 178.153,147.185 178.829 M143.400 181.849 L 141.400 183.681 143.500 182.003 C 145.318 180.551,145.895 179.976,145.500 180.008 C 145.445 180.013,144.500 180.841,143.400 181.849 M270.000 181.325 C 270.000 181.394,270.585 181.979,271.300 182.625 L 272.600 183.800 271.425 182.500 C 270.330 181.288,270.000 181.016,270.000 181.325 M276.600 187.600 C 278.792 189.800,280.675 191.600,280.785 191.600 C 280.895 191.600,279.192 189.800,277.000 187.600 C 274.808 185.400,272.925 183.600,272.815 183.600 C 272.705 183.600,274.408 185.400,276.600 187.600 M137.188 187.500 L 134.600 190.200 137.300 187.612 C 138.785 186.188,140.000 184.973,140.000 184.912 C 140.000 184.617,139.593 184.992,137.188 187.500 M132.175 192.900 L 131.000 194.200 132.300 193.025 C 133.512 191.930,133.784 191.600,133.475 191.600 C 133.406 191.600,132.821 192.185,132.175 192.900 M128.485 197.500 C 126.292 200.391,124.341 203.257,124.877 202.800 C 125.343 202.402,131.192 194.400,131.016 194.400 C 130.917 194.400,129.778 195.795,128.485 197.500 M285.619 198.000 C 286.968 199.870,288.264 201.580,288.499 201.800 C 289.240 202.493,285.679 197.460,284.393 195.997 C 283.718 195.229,284.270 196.130,285.619 198.000 M292.800 209.200 C 293.249 210.080,293.706 210.800,293.816 210.800 C 293.926 210.800,293.649 210.080,293.200 209.200 C 292.751 208.320,292.294 207.600,292.184 207.600 C 292.074 207.600,292.351 208.320,292.800 209.200 M118.465 213.817 C 117.795 215.288,117.923 215.602,118.647 214.265 C 118.986 213.640,119.188 213.054,119.096 212.963 C 119.005 212.871,118.721 213.256,118.465 213.817 M114.044 224.844 C 113.798 225.551,113.666 226.200,113.752 226.285 C 113.838 226.371,114.109 225.862,114.356 225.156 C 114.602 224.449,114.734 223.800,114.648 223.715 C 114.562 223.629,114.291 224.138,114.044 224.844 M113.029 228.229 C 112.881 228.815,112.838 229.372,112.932 229.466 C 113.027 229.560,113.224 229.158,113.371 228.571 C 113.519 227.985,113.562 227.428,113.468 227.334 C 113.373 227.240,113.176 227.642,113.029 228.229 M111.850 232.450 C 111.517 234.117,111.840 234.440,112.200 232.800 C 112.352 232.109,112.393 231.459,112.291 231.358 C 112.189 231.256,111.991 231.747,111.850 232.450 M302.006 233.433 C 302.009 233.855,302.195 234.470,302.418 234.800 C 302.715 235.238,302.752 235.076,302.556 234.200 C 302.227 232.729,301.998 232.410,302.006 233.433 M303.072 238.200 C 303.199 239.300,303.369 240.275,303.451 240.367 C 303.732 240.682,303.520 238.199,303.180 237.200 C 302.951 236.526,302.916 236.851,303.072 238.200 M110.849 237.400 C 110.816 237.840,110.696 238.650,110.583 239.200 L 110.377 240.200 110.806 239.219 C 111.042 238.679,111.161 237.869,111.072 237.419 C 110.913 236.621,110.907 236.621,110.849 237.400 M109.724 246.600 C 109.726 247.920,109.801 248.412,109.890 247.693 C 109.979 246.974,109.977 245.894,109.886 245.293 C 109.795 244.692,109.722 245.280,109.724 246.600 M304.313 250.000 C 304.422 253.190,304.576 255.875,304.656 255.967 C 304.917 256.268,304.728 248.649,304.418 246.400 C 304.241 245.113,304.198 246.608,304.313 250.000 M109.337 253.000 C 109.339 254.760,109.409 255.430,109.493 254.489 C 109.578 253.549,109.577 252.109,109.491 251.289 C 109.405 250.470,109.336 251.240,109.337 253.000 " stroke="none" fill="#fc8c84" fill-rule="evenodd"></path><path id="path7" d="M207.200 6.020 C 208.203 6.321,213.880 6.529,213.567 6.253 C 213.475 6.172,211.780 6.019,209.800 5.912 C 207.820 5.806,206.650 5.854,207.200 6.020 M201.700 6.291 C 202.525 6.378,203.875 6.378,204.700 6.291 C 205.525 6.205,204.850 6.134,203.200 6.134 C 201.550 6.134,200.875 6.205,201.700 6.291 M194.900 7.076 C 195.285 7.176,195.915 7.176,196.300 7.076 C 196.685 6.975,196.370 6.893,195.600 6.893 C 194.830 6.893,194.515 6.975,194.900 7.076 M217.700 7.076 C 218.085 7.176,218.715 7.176,219.100 7.076 C 219.485 6.975,219.170 6.893,218.400 6.893 C 217.630 6.893,217.315 6.975,217.700 7.076 M190.000 8.000 C 189.176 8.264,189.141 8.326,189.800 8.354 C 190.240 8.373,190.870 8.213,191.200 8.000 C 191.901 7.547,191.414 7.547,190.000 8.000 M253.000 23.600 C 253.859 24.480,254.652 25.200,254.762 25.200 C 254.872 25.200,254.259 24.480,253.400 23.600 C 252.541 22.720,251.748 22.000,251.638 22.000 C 251.528 22.000,252.141 22.720,253.000 23.600 M159.578 24.700 L 158.200 26.200 159.700 24.822 C 160.525 24.063,161.200 23.388,161.200 23.322 C 161.200 23.016,160.862 23.304,159.578 24.700 M155.978 28.300 L 154.600 29.800 156.100 28.422 C 156.925 27.663,157.600 26.988,157.600 26.922 C 157.600 26.616,157.262 26.904,155.978 28.300 M259.000 29.600 C 259.859 30.480,260.652 31.200,260.762 31.200 C 260.872 31.200,260.259 30.480,259.400 29.600 C 258.541 28.720,257.748 28.000,257.638 28.000 C 257.528 28.000,258.141 28.720,259.000 29.600 M205.312 37.095 C 206.364 37.177,207.984 37.176,208.912 37.092 C 209.840 37.008,208.980 36.941,207.000 36.942 C 205.020 36.943,204.260 37.012,205.312 37.095 M196.400 38.418 C 195.962 38.715,196.124 38.752,197.000 38.556 C 198.471 38.227,198.790 37.998,197.767 38.006 C 197.345 38.009,196.730 38.195,196.400 38.418 M215.633 38.144 C 215.725 38.223,216.340 38.408,217.000 38.556 C 217.876 38.752,218.038 38.715,217.600 38.418 C 217.060 38.053,215.232 37.798,215.633 38.144 M193.400 39.414 C 192.400 39.896,192.366 39.951,193.200 39.748 C 194.333 39.471,195.607 38.821,195.000 38.830 C 194.780 38.833,194.060 39.096,193.400 39.414 M228.200 43.471 C 228.420 43.674,229.500 44.521,230.600 45.353 L 232.600 46.866 231.000 45.398 C 230.120 44.591,229.040 43.744,228.600 43.516 C 228.160 43.288,227.980 43.268,228.200 43.471 M181.273 46.850 C 180.323 47.746,179.614 48.548,179.698 48.631 C 179.782 48.715,180.641 47.977,181.608 46.992 C 183.801 44.757,183.587 44.666,181.273 46.850 M177.775 50.500 L 176.600 51.800 177.900 50.625 C 179.112 49.530,179.384 49.200,179.075 49.200 C 179.006 49.200,178.421 49.785,177.775 50.500 M274.406 59.033 C 274.409 59.455,274.595 60.070,274.818 60.400 C 275.115 60.838,275.152 60.676,274.956 59.800 C 274.627 58.329,274.398 58.010,274.406 59.033 M138.493 63.200 C 138.493 63.970,138.575 64.285,138.676 63.900 C 138.776 63.515,138.776 62.885,138.676 62.500 C 138.575 62.115,138.493 62.430,138.493 63.200 M275.481 64.400 C 275.606 65.610,275.774 66.675,275.854 66.767 C 276.135 67.087,275.917 64.191,275.587 63.200 C 275.371 62.554,275.334 62.980,275.481 64.400 M169.646 65.667 C 169.621 66.034,169.496 66.664,169.370 67.067 C 169.152 67.762,169.163 67.763,169.597 67.087 C 169.848 66.696,169.973 66.066,169.873 65.687 C 169.711 65.068,169.688 65.066,169.646 65.667 M137.720 70.000 C 137.720 71.210,137.795 71.705,137.887 71.100 C 137.978 70.495,137.978 69.505,137.887 68.900 C 137.795 68.295,137.720 68.790,137.720 70.000 M168.551 75.600 C 168.551 78.130,168.616 79.165,168.696 77.900 C 168.775 76.635,168.775 74.565,168.696 73.300 C 168.616 72.035,168.551 73.070,168.551 75.600 M245.348 75.600 C 245.348 77.910,245.414 78.855,245.495 77.700 C 245.576 76.545,245.576 74.655,245.495 73.500 C 245.414 72.345,245.348 73.290,245.348 75.600 M137.334 75.600 C 137.334 77.250,137.405 77.925,137.491 77.100 C 137.578 76.275,137.578 74.925,137.491 74.100 C 137.405 73.275,137.334 73.950,137.334 75.600 M276.534 75.600 C 276.534 77.250,276.605 77.925,276.691 77.100 C 276.778 76.275,276.778 74.925,276.691 74.100 C 276.605 73.275,276.534 73.950,276.534 75.600 M137.720 81.200 C 137.720 82.410,137.795 82.905,137.887 82.300 C 137.978 81.695,137.978 80.705,137.887 80.100 C 137.795 79.495,137.720 79.990,137.720 81.200 M169.268 83.600 C 169.288 84.639,169.918 86.346,169.932 85.400 C 169.938 84.960,169.789 84.240,169.600 83.800 C 169.389 83.310,169.261 83.232,169.268 83.600 M275.660 85.250 C 275.627 85.828,275.511 86.908,275.401 87.650 L 275.203 89.000 275.624 87.657 C 275.855 86.919,275.972 85.839,275.882 85.257 L 275.720 84.200 275.660 85.250 M138.493 88.000 C 138.493 88.770,138.575 89.085,138.676 88.700 C 138.776 88.315,138.776 87.685,138.676 87.300 C 138.575 86.915,138.493 87.230,138.493 88.000 M243.244 88.044 C 242.998 88.751,242.866 89.400,242.952 89.485 C 243.038 89.571,243.309 89.062,243.556 88.356 C 243.802 87.649,243.934 87.000,243.848 86.915 C 243.762 86.829,243.491 87.338,243.244 88.044 M274.600 91.200 C 274.448 91.891,274.407 92.541,274.509 92.642 C 274.611 92.744,274.809 92.253,274.950 91.550 C 275.283 89.883,274.960 89.560,274.600 91.200 M178.025 101.031 C 178.781 101.928,179.481 102.597,179.580 102.517 C 179.679 102.438,179.060 101.704,178.205 100.887 L 176.650 99.400 178.025 101.031 M142.428 101.800 C 142.428 102.020,142.686 102.650,143.000 103.200 C 143.314 103.750,143.572 104.020,143.572 103.800 C 143.572 103.580,143.314 102.950,143.000 102.400 C 142.686 101.850,142.428 101.580,142.428 101.800 M181.400 104.400 C 182.259 105.280,183.052 106.000,183.162 106.000 C 183.272 106.000,182.659 105.280,181.800 104.400 C 180.941 103.520,180.148 102.800,180.038 102.800 C 179.928 102.800,180.541 103.520,181.400 104.400 M231.570 105.068 L 230.600 106.136 231.687 105.368 C 232.286 104.946,232.781 104.465,232.787 104.300 C 232.808 103.807,232.589 103.946,231.570 105.068 M268.481 107.809 C 268.002 108.794,267.694 109.600,267.797 109.600 C 268.068 109.600,269.684 106.351,269.503 106.170 C 269.419 106.086,268.959 106.824,268.481 107.809 M146.349 109.800 C 146.565 110.240,147.034 110.960,147.393 111.400 L 148.044 112.200 147.651 111.400 C 147.435 110.960,146.966 110.240,146.607 109.800 L 145.956 109.000 146.349 109.800 M221.800 111.014 C 220.795 111.498,220.763 111.553,221.600 111.351 C 222.150 111.219,222.771 110.950,222.980 110.755 C 223.498 110.271,223.214 110.333,221.800 111.014 M198.200 113.200 C 198.640 113.389,199.360 113.538,199.800 113.532 C 200.443 113.523,200.404 113.457,199.600 113.200 C 198.232 112.762,197.181 112.762,198.200 113.200 M214.600 113.200 C 213.493 113.482,213.477 113.509,214.400 113.547 C 214.950 113.569,215.670 113.413,216.000 113.200 C 216.681 112.760,216.329 112.760,214.600 113.200 M258.213 122.343 L 256.226 124.600 258.513 122.414 C 259.771 121.211,260.800 120.176,260.800 120.114 C 260.800 119.648,259.911 120.415,258.213 122.343 M155.983 122.900 C 156.964 123.945,157.819 124.800,157.883 124.800 C 158.184 124.800,157.866 124.441,156.100 122.783 L 154.200 121.000 155.983 122.900 M159.800 126.800 C 160.659 127.680,161.452 128.400,161.562 128.400 C 161.672 128.400,161.059 127.680,160.200 126.800 C 159.341 125.920,158.548 125.200,158.438 125.200 C 158.328 125.200,158.941 125.920,159.800 126.800 M253.781 126.900 L 252.200 128.600 253.900 127.019 C 255.481 125.548,255.784 125.200,255.481 125.200 C 255.416 125.200,254.651 125.965,253.781 126.900 M162.124 128.677 C 162.460 129.221,165.600 131.755,165.600 131.482 C 165.600 131.380,164.753 130.603,163.719 129.755 C 162.684 128.907,161.966 128.422,162.124 128.677 M168.200 133.407 C 168.640 133.766,169.360 134.235,169.800 134.451 L 170.600 134.844 169.800 134.193 C 169.360 133.834,168.640 133.365,168.200 133.149 L 167.400 132.756 168.200 133.407 M234.701 139.165 C 232.624 140.135,232.246 140.631,234.200 139.821 C 235.080 139.457,235.971 138.988,236.180 138.779 C 236.680 138.280,236.487 138.331,234.701 139.165 M230.200 141.014 C 229.200 141.496,229.166 141.551,230.000 141.348 C 231.133 141.071,232.407 140.421,231.800 140.430 C 231.580 140.433,230.860 140.696,230.200 141.014 M190.200 143.200 C 190.640 143.389,191.270 143.544,191.600 143.544 C 191.978 143.544,191.904 143.417,191.400 143.200 C 190.960 143.011,190.330 142.856,190.000 142.856 C 189.622 142.856,189.696 142.983,190.200 143.200 M222.600 143.200 C 222.096 143.417,222.022 143.544,222.400 143.544 C 222.730 143.544,223.360 143.389,223.800 143.200 C 224.304 142.983,224.378 142.856,224.000 142.856 C 223.670 142.856,223.040 143.011,222.600 143.200 M196.200 144.400 C 197.892 144.831,199.344 144.831,198.000 144.400 C 197.450 144.224,196.550 144.083,196.000 144.087 C 195.102 144.094,195.122 144.126,196.200 144.400 M216.000 144.400 C 214.656 144.831,216.108 144.831,217.800 144.400 C 218.878 144.126,218.898 144.094,218.000 144.087 C 217.450 144.083,216.550 144.224,216.000 144.400 M202.100 145.087 C 202.705 145.178,203.695 145.178,204.300 145.087 C 204.905 144.995,204.410 144.920,203.200 144.920 C 201.990 144.920,201.495 144.995,202.100 145.087 M209.700 145.087 C 210.305 145.178,211.295 145.178,211.900 145.087 C 212.505 144.995,212.010 144.920,210.800 144.920 C 209.590 144.920,209.095 144.995,209.700 145.087 M344.500 256.676 C 344.885 256.776,345.515 256.776,345.900 256.676 C 346.285 256.575,345.970 256.493,345.200 256.493 C 344.430 256.493,344.115 256.575,344.500 256.676 M65.705 257.087 C 66.314 257.179,67.214 257.177,67.705 257.082 C 68.197 256.987,67.700 256.911,66.600 256.914 C 65.500 256.917,65.097 256.995,65.705 257.087 M347.633 256.944 C 347.725 257.024,348.610 257.196,349.600 257.327 C 350.802 257.486,351.134 257.447,350.600 257.210 C 349.836 256.872,347.286 256.643,347.633 256.944 M352.800 257.982 C 353.130 258.205,353.745 258.391,354.167 258.394 C 355.190 258.402,354.871 258.173,353.400 257.844 C 352.524 257.648,352.362 257.685,352.800 257.982 M54.122 261.029 L 53.000 262.058 54.300 261.154 C 55.015 260.657,55.600 260.193,55.600 260.125 C 55.600 259.809,55.158 260.080,54.122 261.029 M361.200 261.556 C 362.829 262.901,365.600 264.864,365.600 264.673 C 365.600 264.464,361.667 261.487,360.800 261.040 C 360.470 260.870,360.650 261.102,361.200 261.556 M50.800 263.634 L 49.000 265.265 50.900 263.784 C 52.566 262.486,53.059 261.997,52.700 262.001 C 52.645 262.002,51.790 262.736,50.800 263.634 M367.999 268.300 C 368.522 269.015,369.013 269.600,369.089 269.600 C 369.393 269.600,368.401 268.100,367.745 267.567 C 367.313 267.216,367.410 267.496,367.999 268.300 M44.379 273.855 C 44.158 274.436,44.052 274.985,44.143 275.076 C 44.233 275.167,44.499 274.692,44.733 274.020 C 45.253 272.528,44.939 272.382,44.379 273.855 M371.724 281.400 C 371.726 282.720,371.801 283.212,371.890 282.493 C 371.979 281.774,371.977 280.694,371.886 280.093 C 371.795 279.492,371.722 280.080,371.724 281.400 M42.909 282.000 C 42.909 282.990,42.987 283.395,43.082 282.900 C 43.178 282.405,43.178 281.595,43.082 281.100 C 42.987 280.605,42.909 281.010,42.909 282.000 M42.901 288.200 C 42.905 289.080,42.987 289.393,43.083 288.895 C 43.179 288.398,43.175 287.678,43.075 287.295 C 42.975 286.913,42.896 287.320,42.901 288.200 M74.520 289.600 C 74.520 290.810,74.595 291.305,74.687 290.700 C 74.778 290.095,74.778 289.105,74.687 288.500 C 74.595 287.895,74.520 288.390,74.520 289.600 M339.433 289.633 C 339.283 290.766,339.241 291.774,339.339 291.872 C 339.437 291.971,339.645 291.128,339.800 290.000 C 339.955 288.872,339.998 287.864,339.894 287.761 C 339.791 287.658,339.584 288.500,339.433 289.633 M370.585 290.985 C 370.430 292.223,370.390 293.323,370.495 293.429 C 370.601 293.534,370.807 292.601,370.954 291.354 C 371.100 290.107,371.141 289.007,371.043 288.910 C 370.946 288.812,370.739 289.746,370.585 290.985 M43.301 291.800 C 43.305 292.680,43.387 292.993,43.483 292.495 C 43.579 291.998,43.575 291.278,43.475 290.895 C 43.375 290.513,43.296 290.920,43.301 291.800 M75.277 296.600 C 75.267 297.260,75.403 298.610,75.580 299.600 L 75.900 301.400 75.903 299.600 C 75.904 298.610,75.768 297.260,75.600 296.600 L 75.295 295.400 75.277 296.600 M338.509 298.000 C 338.509 298.990,338.587 299.395,338.682 298.900 C 338.778 298.405,338.778 297.595,338.682 297.100 C 338.587 296.605,338.509 297.010,338.509 298.000 M369.701 299.000 C 369.705 299.880,369.787 300.193,369.883 299.695 C 369.979 299.198,369.975 298.478,369.875 298.095 C 369.775 297.713,369.696 298.120,369.701 299.000 M44.509 301.600 C 44.509 302.590,44.587 302.995,44.682 302.500 C 44.778 302.005,44.778 301.195,44.682 300.700 C 44.587 300.205,44.509 300.610,44.509 301.600 M76.483 305.800 C 76.470 306.680,76.603 308.210,76.780 309.200 C 77.230 311.731,77.265 309.064,76.818 306.200 C 76.515 304.252,76.506 304.241,76.483 305.800 M337.309 308.000 C 337.309 308.990,337.387 309.395,337.482 308.900 C 337.578 308.405,337.578 307.595,337.482 307.100 C 337.387 306.605,337.309 307.010,337.309 308.000 M368.509 308.800 C 368.509 309.790,368.587 310.195,368.682 309.700 C 368.778 309.205,368.778 308.395,368.682 307.900 C 368.587 307.405,368.509 307.810,368.509 308.800 M45.477 309.800 C 45.600 311.120,45.768 312.275,45.850 312.367 C 46.118 312.664,45.915 309.834,45.580 308.600 C 45.365 307.811,45.330 308.222,45.477 309.800 M77.482 314.600 C 77.604 316.140,77.850 318.120,78.030 319.000 C 78.253 320.094,78.286 319.630,78.134 317.532 C 78.012 315.844,77.765 313.864,77.586 313.132 C 77.373 312.261,77.337 312.770,77.482 314.600 M336.493 314.800 C 336.493 315.570,336.575 315.885,336.676 315.500 C 336.776 315.115,336.776 314.485,336.676 314.100 C 336.575 313.715,336.493 314.030,336.493 314.800 M367.385 316.985 C 367.230 318.223,367.190 319.323,367.295 319.429 C 367.401 319.534,367.607 318.601,367.754 317.354 C 367.900 316.107,367.941 315.007,367.843 314.910 C 367.746 314.812,367.539 315.746,367.385 316.985 M336.101 317.800 C 336.105 318.680,336.187 318.993,336.283 318.495 C 336.379 317.998,336.375 317.278,336.275 316.895 C 336.175 316.513,336.096 316.920,336.101 317.800 M46.677 319.800 C 46.800 321.120,46.968 322.275,47.050 322.367 C 47.318 322.664,47.115 319.834,46.780 318.600 C 46.565 317.811,46.530 318.222,46.677 319.800 M78.671 324.400 C 78.791 326.050,79.036 328.030,79.215 328.800 C 79.634 330.600,79.229 325.261,78.775 323.000 C 78.556 321.909,78.523 322.354,78.671 324.400 M335.046 325.446 C 334.900 326.693,334.859 327.793,334.957 327.890 C 335.054 327.988,335.261 327.054,335.415 325.815 C 335.570 324.577,335.610 323.477,335.505 323.371 C 335.399 323.266,335.193 324.199,335.046 325.446 M366.185 326.985 C 366.030 328.223,365.990 329.323,366.095 329.429 C 366.201 329.534,366.407 328.601,366.554 327.354 C 366.700 326.107,366.741 325.007,366.643 324.910 C 366.546 324.812,366.339 325.746,366.185 326.985 M47.701 327.800 C 47.705 328.680,47.787 328.993,47.883 328.495 C 47.979 327.998,47.975 327.278,47.875 326.895 C 47.775 326.513,47.696 326.920,47.701 327.800 M48.093 330.800 C 48.093 331.570,48.175 331.885,48.276 331.500 C 48.376 331.115,48.376 330.485,48.276 330.100 C 48.175 329.715,48.093 330.030,48.093 330.800 M79.677 332.600 C 79.667 333.260,79.803 334.610,79.980 335.600 L 80.300 337.400 80.303 335.600 C 80.304 334.610,80.168 333.260,80.000 332.600 L 79.695 331.400 79.677 332.600 M333.846 335.446 C 333.700 336.693,333.659 337.793,333.757 337.890 C 333.854 337.988,334.061 337.054,334.215 335.815 C 334.370 334.577,334.410 333.477,334.305 333.371 C 334.199 333.266,333.993 334.199,333.846 335.446 M365.301 335.000 C 365.305 335.880,365.387 336.193,365.483 335.695 C 365.579 335.198,365.575 334.478,365.475 334.095 C 365.375 333.713,365.296 334.120,365.301 335.000 M48.909 337.600 C 48.909 338.590,48.987 338.995,49.082 338.500 C 49.178 338.005,49.178 337.195,49.082 336.700 C 48.987 336.205,48.909 336.610,48.909 337.600 M364.893 338.000 C 364.893 338.770,364.975 339.085,365.076 338.700 C 365.176 338.315,365.176 337.685,365.076 337.300 C 364.975 336.915,364.893 337.230,364.893 338.000 M80.869 342.400 C 80.856 343.170,80.995 344.520,81.177 345.400 L 81.508 347.000 81.531 345.600 C 81.544 344.830,81.405 343.480,81.223 342.600 L 80.892 341.000 80.869 342.400 M332.909 344.000 C 332.909 344.990,332.987 345.395,333.082 344.900 C 333.178 344.405,333.178 343.595,333.082 343.100 C 332.987 342.605,332.909 343.010,332.909 344.000 M364.109 344.800 C 364.109 345.790,364.187 346.195,364.282 345.700 C 364.378 345.205,364.378 344.395,364.282 343.900 C 364.187 343.405,364.109 343.810,364.109 344.800 M50.109 347.600 C 50.109 348.590,50.187 348.995,50.282 348.500 C 50.378 348.005,50.378 347.195,50.282 346.700 C 50.187 346.205,50.109 346.610,50.109 347.600 M81.877 350.600 C 81.996 352.140,82.242 354.030,82.423 354.800 C 82.642 355.727,82.676 355.216,82.524 353.289 C 82.398 351.688,82.152 349.798,81.978 349.089 C 81.779 348.281,81.741 348.844,81.877 350.600 M331.701 353.800 C 331.705 354.680,331.787 354.993,331.883 354.495 C 331.979 353.998,331.975 353.278,331.875 352.895 C 331.775 352.513,331.696 352.920,331.701 353.800 M362.909 354.800 C 362.909 355.790,362.987 356.195,363.082 355.700 C 363.178 355.205,363.178 354.395,363.082 353.900 C 362.987 353.405,362.909 353.810,362.909 354.800 M51.077 355.800 C 51.200 357.120,51.368 358.275,51.450 358.367 C 51.718 358.664,51.515 355.834,51.180 354.600 C 50.965 353.811,50.930 354.222,51.077 355.800 M83.076 360.711 C 83.202 362.312,83.448 364.202,83.622 364.911 C 83.821 365.719,83.859 365.156,83.723 363.400 C 83.604 361.860,83.358 359.970,83.177 359.200 C 82.958 358.273,82.924 358.784,83.076 360.711 M330.901 360.600 C 330.905 361.480,330.987 361.793,331.083 361.295 C 331.179 360.798,331.175 360.078,331.075 359.695 C 330.975 359.313,330.896 359.720,330.901 360.600 M361.785 362.985 C 361.630 364.223,361.590 365.323,361.695 365.429 C 361.801 365.534,362.007 364.601,362.154 363.354 C 362.300 362.107,362.341 361.007,362.243 360.910 C 362.146 360.812,361.939 361.746,361.785 362.985 M52.069 364.000 C 52.056 364.550,52.195 365.720,52.377 366.600 C 52.589 367.626,52.716 367.841,52.731 367.200 C 52.744 366.650,52.605 365.480,52.423 364.600 C 52.211 363.574,52.084 363.359,52.069 364.000 M84.245 369.986 C 84.363 371.408,84.547 372.713,84.653 372.886 C 85.156 373.700,329.150 373.242,329.586 372.426 C 329.814 372.001,329.975 371.056,329.946 370.326 C 329.903 369.281,329.858 369.212,329.734 370.000 C 329.647 370.550,329.488 371.405,329.380 371.900 L 329.185 372.800 206.992 372.800 L 84.800 372.800 84.753 371.300 C 84.727 370.475,84.554 369.260,84.369 368.600 C 84.140 367.786,84.100 368.232,84.245 369.986 M360.600 372.800 C 360.445 373.928,360.402 374.936,360.506 375.039 C 360.609 375.142,360.816 374.300,360.967 373.167 C 361.117 372.034,361.159 371.026,361.061 370.928 C 360.963 370.829,360.755 371.672,360.600 372.800 M53.309 373.600 C 53.309 374.590,53.387 374.995,53.482 374.500 C 53.578 374.005,53.578 373.195,53.482 372.700 C 53.387 372.205,53.309 372.610,53.309 373.600 M359.709 380.800 C 359.709 381.790,359.787 382.195,359.882 381.700 C 359.978 381.205,359.978 380.395,359.882 379.900 C 359.787 379.405,359.709 379.810,359.709 380.800 M54.509 383.600 C 54.509 384.590,54.587 384.995,54.682 384.500 C 54.778 384.005,54.778 383.195,54.682 382.700 C 54.587 382.205,54.509 382.610,54.509 383.600 M359.293 384.000 C 359.293 384.770,359.375 385.085,359.476 384.700 C 359.576 384.315,359.576 383.685,359.476 383.300 C 359.375 382.915,359.293 383.230,359.293 384.000 M358.509 390.800 C 358.509 391.790,358.587 392.195,358.682 391.700 C 358.778 391.205,358.778 390.395,358.682 389.900 C 358.587 389.405,358.509 389.810,358.509 390.800 M55.701 393.400 C 55.705 394.280,55.787 394.593,55.883 394.095 C 55.979 393.598,55.975 392.878,55.875 392.495 C 55.775 392.113,55.696 392.520,55.701 393.400 M357.301 400.600 C 357.305 401.480,357.387 401.793,357.483 401.295 C 357.579 400.798,357.575 400.078,357.475 399.695 C 357.375 399.313,357.296 399.720,357.301 400.600 M56.470 400.200 C 56.457 400.640,56.595 401.720,56.777 402.600 C 57.055 403.945,57.108 404.009,57.107 403.000 C 57.105 401.599,56.508 398.970,56.470 400.200 M88.587 404.499 C 88.483 404.775,88.567 406.080,88.774 407.400 L 89.150 409.800 89.075 407.200 L 89.000 404.600 207.158 404.499 L 325.315 404.399 325.092 407.299 C 324.910 409.664,324.939 409.904,325.251 408.600 C 325.461 407.720,325.580 406.370,325.516 405.600 L 325.400 404.200 207.088 404.099 C 112.647 404.019,88.737 404.100,88.587 404.499 M356.215 408.615 C 356.061 409.854,356.017 410.950,356.119 411.052 C 356.220 411.154,356.430 410.223,356.585 408.985 C 356.739 407.746,356.783 406.650,356.681 406.548 C 356.580 406.446,356.370 407.377,356.215 408.615 M57.673 409.800 C 57.658 410.460,57.795 411.720,57.977 412.600 C 58.413 414.706,58.450 412.814,58.020 410.400 C 57.780 409.050,57.693 408.900,57.673 409.800 M89.669 414.400 C 89.656 415.170,89.795 416.520,89.977 417.400 L 90.308 419.000 90.331 417.600 C 90.344 416.830,90.205 415.480,90.023 414.600 L 89.692 413.000 89.669 414.400 M324.109 416.400 C 324.109 417.390,324.187 417.795,324.282 417.300 C 324.378 416.805,324.378 415.995,324.282 415.500 C 324.187 415.005,324.109 415.410,324.109 416.400 M355.029 418.429 C 354.876 419.779,354.833 420.966,354.933 421.067 C 355.034 421.167,355.244 420.147,355.400 418.800 C 355.556 417.453,355.599 416.266,355.495 416.162 C 355.391 416.058,355.181 417.078,355.029 418.429 M58.909 419.600 C 58.909 420.590,58.987 420.995,59.082 420.500 C 59.178 420.005,59.178 419.195,59.082 418.700 C 58.987 418.205,58.909 418.610,58.909 419.600 M90.847 424.433 C 90.873 425.405,91.042 426.740,91.221 427.400 C 91.427 428.157,91.465 427.566,91.325 425.800 C 91.071 422.621,90.776 421.776,90.847 424.433 M322.901 426.200 C 322.905 427.080,322.987 427.393,323.083 426.895 C 323.179 426.398,323.175 425.678,323.075 425.295 C 322.975 424.913,322.896 425.320,322.901 426.200 M354.109 426.800 C 354.109 427.790,354.187 428.195,354.282 427.700 C 354.378 427.205,354.378 426.395,354.282 425.900 C 354.187 425.405,354.109 425.810,354.109 426.800 M60.101 429.400 C 60.105 430.280,60.187 430.593,60.283 430.095 C 60.379 429.598,60.375 428.878,60.275 428.495 C 60.175 428.113,60.096 428.520,60.101 429.400 M91.734 430.800 L 91.800 431.800 168.800 431.802 L 245.800 431.803 168.928 431.701 L 92.055 431.598 91.862 430.699 C 91.692 429.909,91.677 429.921,91.734 430.800 M60.828 436.233 C 60.844 436.875,61.016 437.760,61.210 438.200 C 61.447 438.734,61.486 438.402,61.327 437.200 C 61.046 435.080,60.788 434.580,60.828 436.233 M352.893 436.400 C 352.893 437.170,352.975 437.485,353.076 437.100 C 353.176 436.715,353.176 436.085,353.076 435.700 C 352.975 435.315,352.893 435.630,352.893 436.400 M351.800 441.600 C 351.648 442.291,351.607 442.941,351.709 443.042 C 351.811 443.144,352.009 442.653,352.150 441.950 C 352.483 440.283,352.160 439.960,351.800 441.600 M348.892 448.629 C 348.397 449.383,348.072 450.000,348.169 450.000 C 348.447 450.000,350.104 447.571,349.939 447.406 C 349.857 447.324,349.386 447.874,348.892 448.629 M66.696 451.400 C 67.150 452.060,68.029 453.050,68.650 453.600 C 69.399 454.264,69.259 453.996,68.232 452.800 C 66.136 450.357,65.715 449.974,66.696 451.400 M346.226 452.313 C 344.815 454.003,344.788 454.075,345.960 453.000 C 347.071 451.982,348.288 450.370,347.914 450.413 C 347.851 450.420,347.092 451.275,346.226 452.313 M80.800 461.541 C 81.130 461.734,81.940 462.009,82.600 462.152 C 83.368 462.318,83.584 462.284,83.200 462.059 C 82.870 461.866,82.060 461.591,81.400 461.448 C 80.632 461.282,80.416 461.316,80.800 461.541 M330.800 462.018 C 330.362 462.315,330.524 462.352,331.400 462.156 C 332.871 461.827,333.190 461.598,332.167 461.606 C 331.745 461.609,331.130 461.795,330.800 462.018 M85.300 462.676 C 85.685 462.776,86.315 462.776,86.700 462.676 C 87.085 462.575,86.770 462.493,86.000 462.493 C 85.230 462.493,84.915 462.575,85.300 462.676 M327.700 462.676 C 328.085 462.776,328.715 462.776,329.100 462.676 C 329.485 462.575,329.170 462.493,328.400 462.493 C 327.630 462.493,327.315 462.575,327.700 462.676 M147.332 463.100 C 180.295 463.156,234.115 463.156,266.932 463.100 C 299.750 463.044,272.780 462.997,207.000 462.997 C 141.220 462.997,114.370 463.044,147.332 463.100 " stroke="none" fill="#8494a4" fill-rule="evenodd"></path><path id="path8" d="M203.321 159.498 C 205.477 159.571,208.897 159.570,210.921 159.498 C 212.944 159.425,211.180 159.366,207.000 159.367 C 202.820 159.367,201.164 159.426,203.321 159.498 M192.400 160.020 C 191.726 160.249,192.051 160.284,193.400 160.128 C 194.500 160.001,195.475 159.831,195.567 159.749 C 195.882 159.468,193.399 159.680,192.400 160.020 M218.433 159.749 C 218.525 159.831,219.500 160.001,220.600 160.128 C 221.949 160.284,222.274 160.249,221.600 160.020 C 220.601 159.680,218.118 159.468,218.433 159.749 M185.200 161.218 C 184.762 161.515,184.924 161.552,185.800 161.356 C 187.271 161.027,187.590 160.798,186.567 160.806 C 186.145 160.809,185.530 160.995,185.200 161.218 M226.800 160.955 C 226.800 161.040,227.330 161.187,227.979 161.282 C 228.627 161.377,229.067 161.308,228.955 161.128 C 228.757 160.807,226.800 160.650,226.800 160.955 M180.000 162.418 C 179.562 162.715,179.724 162.752,180.600 162.556 C 182.071 162.227,182.390 161.998,181.367 162.006 C 180.945 162.009,180.330 162.195,180.000 162.418 M273.800 184.400 C 274.659 185.280,275.452 186.000,275.562 186.000 C 275.672 186.000,275.059 185.280,274.200 184.400 C 273.341 183.520,272.548 182.800,272.438 182.800 C 272.328 182.800,272.941 183.520,273.800 184.400 M136.992 187.300 L 133.000 191.400 137.187 187.400 C 139.490 185.200,141.455 183.355,141.554 183.300 C 141.653 183.245,141.565 183.200,141.359 183.200 C 141.153 183.200,139.188 185.045,136.992 187.300 M279.583 190.100 C 280.564 191.145,281.419 192.000,281.483 192.000 C 281.784 192.000,281.466 191.641,279.700 189.983 L 277.800 188.200 279.583 190.100 M114.379 222.655 C 114.158 223.236,114.052 223.785,114.143 223.876 C 114.233 223.967,114.499 223.492,114.733 222.820 C 115.253 221.328,114.939 221.182,114.379 222.655 M304.093 242.000 C 304.093 242.770,304.175 243.085,304.276 242.700 C 304.376 242.315,304.376 241.685,304.276 241.300 C 304.175 240.915,304.093 241.230,304.093 242.000 M108.942 252.600 C 108.941 254.580,109.008 255.440,109.092 254.512 C 109.176 253.584,109.177 251.964,109.095 250.912 C 109.012 249.860,108.943 250.620,108.942 252.600 M304.901 254.600 C 304.905 255.480,304.987 255.793,305.083 255.295 C 305.179 254.798,305.175 254.078,305.075 253.695 C 304.975 253.313,304.896 253.720,304.901 254.600 " stroke="none" fill="#fcccc4" fill-rule="evenodd"></path></g></svg>