<svg id="svg" version="1.1" xmlns="http://www.w3.org/2000/svg" xmlns:xlink="http://www.w3.org/1999/xlink" width="400" height="361.3333333333333" viewBox="0, 0, 400,361.3333333333333"><g id="svgg"><path id="path0" d="M121.138 50.827 L 36.856 92.970 36.856 126.702 L 36.856 160.434 205.691 160.344 L 374.526 160.253 374.618 126.643 L 374.710 93.032 290.364 50.852 C 243.974 27.653,205.884 8.675,205.719 8.678 C 205.555 8.681,167.493 27.648,121.138 50.827 M273.761 79.743 L 341.463 113.597 341.463 120.213 L 341.463 126.829 205.773 126.829 L 70.083 126.829 70.182 120.141 L 70.280 113.452 137.669 79.709 C 174.734 61.151,205.283 45.950,205.558 45.928 C 205.833 45.907,236.524 61.124,273.761 79.743 M202.349 76.603 C 202.051 76.796,201.527 76.956,201.184 76.959 C 196.579 77.000,190.384 84.031,189.362 90.375 C 186.190 110.072,214.180 116.799,221.513 98.103 C 224.863 89.562,219.113 79.206,209.653 76.742 C 207.449 76.168,203.149 76.086,202.349 76.603 M70.822 236.676 L 70.822 295.574 87.263 295.574 L 103.704 295.574 103.704 236.676 L 103.704 177.778 87.263 177.778 L 70.822 177.778 70.822 236.676 M155.375 236.676 L 155.375 295.574 171.996 295.574 L 188.618 295.574 188.618 236.676 L 188.618 177.778 171.996 177.778 L 155.375 177.778 155.375 236.676 M222.945 236.672 L 222.945 295.574 239.567 295.574 L 256.190 295.574 256.099 236.766 L 256.007 177.958 239.476 177.864 L 222.945 177.770 222.945 236.672 M307.498 236.676 L 307.498 295.574 324.119 295.574 L 340.741 295.574 340.741 236.676 L 340.741 177.778 324.119 177.778 L 307.498 177.778 307.498 236.676 M36.856 329.900 L 36.856 346.522 205.785 346.522 L 374.714 346.522 374.620 329.991 L 374.526 313.460 205.691 313.369 L 36.856 313.278 36.856 329.900 " stroke="none" fill="#4c4c4c" fill-rule="evenodd"></path><path id="path1" d="M0.000 180.668 L 0.000 361.337 200.000 361.337 L 400.000 361.337 400.000 180.668 L 400.000 0.000 200.000 0.000 L 0.000 0.000 0.000 180.668 M210.027 9.644 C 210.375 9.752,210.659 9.984,210.659 10.160 C 210.659 10.335,210.985 10.479,211.382 10.479 C 211.780 10.479,212.105 10.641,212.105 10.840 C 212.105 11.039,212.430 11.201,212.827 11.201 C 213.225 11.201,213.550 11.364,213.550 11.563 C 213.550 11.762,213.741 11.924,213.975 11.924 C 214.547 11.924,219.842 14.535,219.994 14.893 C 220.060 15.049,220.426 15.176,220.807 15.176 C 221.188 15.176,221.500 15.339,221.500 15.537 C 221.500 15.736,221.654 15.899,221.842 15.899 C 222.360 15.899,227.805 18.552,227.943 18.872 C 228.010 19.025,228.375 19.151,228.756 19.151 C 229.137 19.151,229.449 19.274,229.449 19.424 C 229.449 19.574,229.977 19.918,230.623 20.189 C 233.145 21.245,237.224 23.296,237.338 23.565 C 237.404 23.721,237.770 23.848,238.151 23.848 C 238.532 23.848,238.844 24.011,238.844 24.210 C 238.844 24.408,239.008 24.571,239.209 24.571 C 239.757 24.571,245.148 27.199,245.288 27.533 C 245.354 27.693,245.720 27.823,246.101 27.823 C 246.481 27.823,246.793 27.986,246.793 28.184 C 246.793 28.383,246.960 28.546,247.164 28.546 C 247.575 28.546,254.456 31.834,254.743 32.167 C 254.842 32.283,255.574 32.674,256.369 33.037 C 260.510 34.927,262.523 35.946,262.632 36.206 C 262.698 36.365,263.064 36.495,263.445 36.495 C 263.826 36.495,264.137 36.658,264.137 36.856 C 264.137 37.055,264.304 37.218,264.508 37.218 C 264.919 37.218,271.800 40.506,272.087 40.839 C 272.186 40.955,272.918 41.346,273.713 41.709 C 277.854 43.599,279.868 44.618,279.976 44.878 C 280.042 45.037,280.268 45.167,280.477 45.167 C 281.013 45.167,289.224 49.246,289.371 49.585 C 289.437 49.739,289.803 49.864,290.184 49.864 C 290.565 49.864,290.876 50.027,290.876 50.226 C 290.876 50.425,291.067 50.587,291.301 50.587 C 291.874 50.587,297.168 53.199,297.320 53.556 C 297.386 53.712,297.752 53.839,298.133 53.839 C 298.514 53.839,298.826 54.002,298.826 54.201 C 298.826 54.399,298.980 54.562,299.168 54.562 C 299.686 54.562,305.131 57.215,305.269 57.535 C 305.336 57.688,305.702 57.814,306.083 57.814 C 306.463 57.814,306.775 57.977,306.775 58.175 C 306.775 58.374,307.100 58.537,307.498 58.537 C 307.895 58.537,308.220 58.699,308.220 58.898 C 308.220 59.097,308.412 59.259,308.645 59.259 C 309.218 59.259,314.512 61.871,314.664 62.228 C 314.731 62.384,315.096 62.511,315.477 62.511 C 315.858 62.511,316.170 62.674,316.170 62.873 C 316.170 63.071,316.324 63.234,316.512 63.234 C 317.030 63.234,322.476 65.887,322.614 66.207 C 322.680 66.360,323.046 66.486,323.427 66.486 C 323.808 66.486,324.119 66.649,324.119 66.847 C 324.119 67.046,324.289 67.209,324.497 67.209 C 324.929 67.209,331.794 70.482,332.069 70.819 C 332.168 70.941,332.900 71.337,333.695 71.700 C 337.836 73.590,339.850 74.609,339.958 74.869 C 340.024 75.028,340.390 75.158,340.771 75.158 C 341.152 75.158,341.463 75.321,341.463 75.519 C 341.463 75.718,341.630 75.881,341.834 75.881 C 342.245 75.881,349.126 79.169,349.413 79.502 C 349.512 79.618,350.244 80.009,351.039 80.372 C 355.180 82.263,357.194 83.281,357.302 83.541 C 357.368 83.700,357.734 83.830,358.115 83.830 C 358.496 83.830,358.808 83.993,358.808 84.192 C 358.808 84.390,358.974 84.553,359.178 84.553 C 359.589 84.553,366.470 87.841,366.757 88.174 C 366.856 88.290,367.588 88.681,368.383 89.044 C 372.403 90.879,374.569 91.972,374.977 92.371 C 375.332 92.718,375.429 100.087,375.429 126.804 L 375.429 160.796 205.691 160.705 L 35.953 160.614 35.861 126.785 C 35.783 98.114,35.846 92.891,36.276 92.534 C 37.076 91.870,51.694 84.553,52.221 84.553 C 52.482 84.553,52.749 84.426,52.815 84.271 C 52.969 83.910,146.380 37.214,146.944 37.216 C 147.176 37.217,147.419 37.092,147.486 36.939 C 147.552 36.786,160.671 30.134,176.639 22.158 L 205.672 7.654 207.533 8.551 C 208.557 9.045,209.679 9.537,210.027 9.644 M137.777 80.528 L 70.856 114.002 70.839 120.235 L 70.822 126.468 205.601 126.468 L 340.379 126.468 340.379 120.177 L 340.379 113.886 338.820 113.131 C 337.962 112.715,337.082 112.376,336.863 112.376 C 336.644 112.376,336.411 112.254,336.344 112.105 C 336.189 111.754,277.441 82.385,276.896 82.385 C 276.669 82.385,276.429 82.263,276.363 82.114 C 276.207 81.764,260.095 73.713,259.550 73.713 C 259.324 73.713,259.085 73.591,259.018 73.442 C 258.756 72.852,206.446 46.976,205.594 47.014 C 205.101 47.037,174.583 62.118,137.777 80.528 M209.033 75.863 C 212.173 76.255,214.749 77.577,217.618 80.267 C 219.633 82.157,221.496 84.778,221.498 85.727 C 221.499 86.075,221.662 86.360,221.861 86.360 C 222.060 86.360,222.222 86.815,222.222 87.371 C 222.222 87.928,222.395 88.556,222.607 88.768 C 223.349 89.510,222.617 99.368,221.820 99.368 C 221.644 99.368,221.500 99.638,221.500 99.968 C 221.500 101.804,217.060 106.625,213.892 108.231 C 209.183 110.617,202.745 110.702,197.981 108.441 C 195.049 107.049,189.702 101.432,189.702 99.744 C 189.702 99.532,189.550 99.076,189.365 98.730 C 187.952 96.104,187.955 90.286,189.371 86.811 C 189.967 85.348,190.601 84.014,190.787 83.830 C 190.888 83.731,191.451 82.999,192.039 82.204 C 193.349 80.432,195.505 78.430,196.116 78.419 C 196.364 78.414,196.567 78.265,196.567 78.087 C 196.567 77.526,201.206 75.881,202.804 75.875 C 203.647 75.872,204.580 75.707,204.878 75.509 C 205.176 75.311,205.745 75.249,206.143 75.371 C 206.540 75.493,207.841 75.714,209.033 75.863 M104.607 236.676 L 104.607 296.116 87.173 296.209 L 69.738 296.303 69.738 236.920 C 69.738 204.259,69.848 177.427,69.982 177.293 C 70.117 177.158,77.962 177.090,87.417 177.142 L 104.607 177.236 104.607 236.676 M189.160 236.676 L 189.160 296.116 171.816 296.116 L 154.472 296.116 154.379 237.037 C 154.328 204.544,154.364 177.754,154.459 177.503 C 154.596 177.144,158.277 177.068,171.896 177.142 L 189.160 177.236 189.160 236.676 M256.911 236.679 L 256.911 296.303 239.657 296.209 L 222.403 296.116 222.310 237.037 C 222.259 204.544,222.295 177.755,222.389 177.507 C 222.523 177.154,226.328 177.055,239.736 177.055 L 256.911 177.055 256.911 236.679 M341.463 236.679 L 341.463 296.303 324.210 296.209 L 306.956 296.116 306.863 237.037 C 306.812 204.544,306.847 177.755,306.942 177.507 C 307.076 177.154,310.881 177.055,324.289 177.055 L 341.463 177.055 341.463 236.679 M375.429 329.720 L 375.429 346.884 205.691 346.794 L 35.953 346.703 35.859 330.081 C 35.807 320.939,35.843 313.257,35.938 313.008 C 36.076 312.648,70.376 312.556,205.770 312.556 L 375.429 312.556 375.429 329.720 " stroke="none" fill="#fcfcfc" fill-rule="evenodd"></path><path id="path2" d="M202.383 9.293 C 200.547 10.182,199.121 10.985,199.214 11.078 C 199.307 11.171,200.823 10.523,202.584 9.639 L 205.785 8.031 208.222 9.260 C 209.563 9.936,210.659 10.343,210.659 10.165 C 210.659 9.986,210.375 9.752,210.027 9.644 C 209.679 9.537,208.568 9.050,207.558 8.563 L 205.722 7.677 202.383 9.293 M194.105 13.414 C 192.453 14.225,191.176 14.964,191.268 15.056 C 191.454 15.242,197.290 12.378,197.290 12.101 C 197.290 11.844,197.367 11.812,194.105 13.414 M213.942 12.063 C 214.434 12.516,220.053 15.136,220.048 14.909 C 220.041 14.635,214.617 11.924,214.075 11.924 C 213.919 11.924,213.859 11.987,213.942 12.063 M189.223 15.789 C 188.661 16.084,188.280 16.404,188.376 16.500 C 188.566 16.690,190.786 15.628,190.786 15.348 C 190.786 15.079,190.329 15.208,189.223 15.789 M221.861 15.988 C 222.294 16.439,228.003 19.132,228.000 18.884 C 227.998 18.733,226.756 18.040,225.239 17.344 C 222.206 15.953,221.590 15.706,221.861 15.988 M184.711 18.111 C 183.058 18.923,181.781 19.662,181.873 19.753 C 182.059 19.939,187.895 17.075,187.895 16.798 C 187.895 16.541,187.972 16.509,184.711 18.111 M176.041 22.448 C 173.993 23.461,172.390 24.362,172.480 24.452 C 172.664 24.637,179.946 21.049,179.946 20.774 C 179.946 20.511,180.054 20.465,176.041 22.448 M231.286 20.735 C 231.778 21.188,237.397 23.808,237.392 23.581 C 237.385 23.307,231.961 20.596,231.420 20.596 C 231.263 20.596,231.203 20.659,231.286 20.735 M239.205 24.652 C 239.615 25.098,245.348 27.809,245.344 27.556 C 245.342 27.405,244.163 26.733,242.725 26.062 C 239.844 24.720,238.931 24.355,239.205 24.652 M168.085 26.420 C 166.828 27.030,165.877 27.605,165.971 27.699 C 166.160 27.888,170.551 25.750,170.551 25.469 C 170.551 25.220,170.599 25.201,168.085 26.420 M159.241 30.801 C 156.895 31.991,155.049 33.038,155.138 33.126 C 155.314 33.303,164.047 28.972,164.047 28.708 C 164.047 28.402,163.498 28.641,159.241 30.801 M247.154 28.635 C 247.585 29.085,254.742 32.500,254.735 32.253 C 254.731 32.102,253.177 31.247,251.282 30.352 C 247.744 28.683,246.839 28.306,247.154 28.635 M256.590 33.376 C 256.988 33.824,262.692 36.476,262.688 36.211 C 262.686 36.069,261.508 35.405,260.069 34.734 C 257.055 33.331,256.280 33.028,256.590 33.376 M150.741 35.092 C 149.484 35.702,148.533 36.277,148.627 36.371 C 148.816 36.560,153.207 34.422,153.207 34.141 C 153.207 33.892,153.255 33.873,150.741 35.092 M143.348 38.743 C 141.801 39.546,140.605 40.274,140.691 40.360 C 140.870 40.539,146.703 37.662,146.703 37.394 C 146.703 37.063,146.161 37.281,143.348 38.743 M264.499 37.307 C 264.930 37.757,272.086 41.172,272.079 40.925 C 272.075 40.774,270.521 39.919,268.626 39.024 C 265.089 37.355,264.183 36.978,264.499 37.307 M138.636 41.083 C 138.074 41.378,137.693 41.698,137.789 41.794 C 137.979 41.984,140.199 40.921,140.199 40.641 C 140.199 40.373,139.742 40.502,138.636 41.083 M273.934 42.048 C 274.332 42.497,280.036 45.148,280.033 44.883 C 280.031 44.741,278.852 44.077,277.413 43.406 C 274.399 42.003,273.624 41.700,273.934 42.048 M133.397 43.764 C 132.140 44.374,131.189 44.949,131.283 45.043 C 131.471 45.232,135.863 43.094,135.863 42.813 C 135.863 42.564,135.911 42.545,133.397 43.764 M280.428 45.307 C 280.919 45.762,289.429 49.821,289.420 49.596 C 289.415 49.446,287.479 48.388,285.119 47.245 C 281.361 45.425,279.907 44.824,280.428 45.307 M203.487 47.337 C 202.424 47.905,201.454 48.471,201.330 48.594 C 200.992 48.932,202.374 48.374,203.715 47.631 C 205.319 46.742,206.354 46.803,208.329 47.906 C 209.248 48.419,210.079 48.759,210.177 48.661 C 210.334 48.504,205.877 46.210,205.549 46.278 C 205.478 46.293,204.550 46.769,203.487 47.337 M124.558 48.137 C 123.011 48.941,121.816 49.669,121.901 49.754 C 122.080 49.933,127.913 47.056,127.913 46.789 C 127.913 46.458,127.372 46.676,124.558 48.137 M117.331 51.747 C 116.180 52.353,115.310 52.919,115.397 53.006 C 115.577 53.186,119.964 51.031,119.964 50.763 C 119.964 50.440,119.437 50.637,117.331 51.747 M291.268 50.726 C 291.760 51.179,297.379 53.799,297.374 53.572 C 297.367 53.298,291.943 50.587,291.402 50.587 C 291.245 50.587,291.185 50.650,291.268 50.726 M193.934 52.108 C 192.784 52.714,191.907 53.275,191.987 53.354 C 192.141 53.509,196.567 51.319,196.567 51.088 C 196.567 50.804,195.973 51.034,193.934 52.108 M216.441 51.794 C 216.441 52.065,219.404 53.526,219.585 53.345 C 219.677 53.253,219.129 52.893,218.367 52.545 C 217.606 52.196,216.861 51.847,216.712 51.770 C 216.563 51.692,216.441 51.703,216.441 51.794 M299.187 54.651 C 299.620 55.102,305.329 57.795,305.326 57.547 C 305.324 57.396,304.082 56.703,302.565 56.007 C 299.532 54.616,298.916 54.369,299.187 54.651 M186.143 56.009 C 184.544 56.864,182.889 57.985,184.101 57.392 C 184.300 57.295,185.397 56.769,186.540 56.223 C 187.683 55.678,188.618 55.162,188.618 55.077 C 188.618 54.776,188.052 54.990,186.143 56.009 M107.214 56.809 C 105.667 57.613,104.472 58.341,104.557 58.427 C 104.736 58.606,110.569 55.729,110.569 55.461 C 110.569 55.130,110.028 55.348,107.214 56.809 M224.390 55.769 C 224.390 56.039,227.353 57.501,227.534 57.320 C 227.626 57.228,227.078 56.868,226.317 56.519 C 225.555 56.171,224.810 55.822,224.661 55.744 C 224.512 55.667,224.390 55.678,224.390 55.769 M99.986 60.419 C 98.836 61.025,97.966 61.591,98.053 61.678 C 98.233 61.858,102.620 59.703,102.620 59.435 C 102.620 59.113,102.093 59.309,99.986 60.419 M308.612 59.398 C 309.104 59.851,314.723 62.471,314.718 62.244 C 314.711 61.970,309.287 59.259,308.746 59.259 C 308.589 59.259,308.529 59.322,308.612 59.398 M176.590 60.780 C 175.440 61.386,174.563 61.947,174.642 62.026 C 174.797 62.181,179.223 59.991,179.223 59.760 C 179.223 59.476,178.629 59.706,176.590 60.780 M233.785 60.497 C 233.785 60.789,238.166 62.948,238.361 62.753 C 238.453 62.662,237.582 62.135,236.427 61.584 C 235.272 61.032,234.205 60.518,234.056 60.441 C 233.907 60.364,233.785 60.389,233.785 60.497 M316.531 63.323 C 316.964 63.774,322.674 66.467,322.670 66.219 C 322.668 66.068,321.426 65.375,319.909 64.679 C 316.876 63.289,316.261 63.041,316.531 63.323 M168.640 64.755 C 167.490 65.361,166.614 65.921,166.693 66.000 C 166.848 66.155,171.274 63.966,171.274 63.734 C 171.274 63.451,170.680 63.681,168.640 64.755 M89.870 65.481 C 88.323 66.285,87.127 67.013,87.213 67.099 C 87.392 67.278,93.225 64.401,93.225 64.133 C 93.225 63.802,92.684 64.020,89.870 65.481 M241.734 64.441 C 241.734 64.711,244.697 66.173,244.879 65.992 C 244.970 65.900,244.422 65.540,243.661 65.191 C 242.899 64.843,242.154 64.494,242.005 64.417 C 241.856 64.339,241.734 64.350,241.734 64.441 M84.078 68.365 C 82.922 68.962,82.045 69.518,82.128 69.602 C 82.302 69.776,86.721 67.638,86.721 67.379 C 86.721 67.073,86.212 67.263,84.078 68.365 M324.481 67.290 C 324.890 67.736,332.068 71.168,332.063 70.916 C 332.060 70.765,330.583 69.940,328.782 69.083 C 325.345 67.448,324.180 66.962,324.481 67.290 M159.246 69.452 C 158.095 70.058,157.219 70.619,157.298 70.698 C 157.453 70.853,161.879 68.663,161.879 68.432 C 161.879 68.148,161.285 68.378,159.246 69.452 M249.684 68.415 C 249.684 68.689,254.075 70.887,254.258 70.705 C 254.350 70.612,253.481 70.085,252.326 69.533 C 251.171 68.981,250.104 68.467,249.955 68.390 C 249.806 68.313,249.684 68.324,249.684 68.415 M78.654 71.074 C 78.092 71.369,77.711 71.689,77.807 71.785 C 77.997 71.974,80.217 70.912,80.217 70.632 C 80.217 70.364,79.760 70.493,78.654 71.074 M152.023 73.060 C 150.478 73.872,149.275 74.599,149.351 74.675 C 149.487 74.810,154.896 72.144,155.294 71.746 C 155.822 71.218,154.579 71.717,152.023 73.060 M333.916 72.039 C 334.314 72.488,340.018 75.139,340.015 74.874 C 340.013 74.732,338.834 74.068,337.395 73.397 C 334.381 71.994,333.606 71.691,333.916 72.039 M73.247 73.788 C 72.097 74.394,71.227 74.961,71.314 75.048 C 71.494 75.228,75.881 73.072,75.881 72.804 C 75.881 72.482,75.354 72.679,73.247 73.788 M259.079 73.330 C 259.079 73.541,259.328 73.713,259.633 73.713 C 259.938 73.713,260.594 73.979,261.090 74.304 C 261.586 74.629,262.081 74.805,262.191 74.696 C 262.300 74.587,261.766 74.212,261.005 73.864 C 260.244 73.515,259.499 73.166,259.350 73.089 C 259.201 73.011,259.079 73.120,259.079 73.330 M204.878 75.519 C 204.479 75.778,204.716 75.870,205.781 75.870 C 206.846 75.870,207.084 75.778,206.685 75.519 C 206.387 75.327,205.980 75.169,205.781 75.169 C 205.583 75.169,205.176 75.327,204.878 75.519 M66.016 77.404 C 64.466 78.202,63.270 78.928,63.359 79.017 C 63.542 79.200,69.377 76.330,69.377 76.057 C 69.377 75.733,68.852 75.943,66.016 77.404 M198.826 76.840 C 197.584 77.348,196.567 77.903,196.567 78.072 C 196.567 78.242,197.363 77.981,198.336 77.492 C 199.309 77.003,200.325 76.601,200.594 76.598 C 200.864 76.595,201.328 76.435,201.626 76.242 C 202.690 75.555,201.178 75.877,198.826 76.840 M211.155 76.618 C 212.322 77.030,213.698 77.642,214.212 77.979 C 214.727 78.315,215.035 78.406,214.896 78.181 C 214.540 77.604,211.551 76.247,210.181 76.041 C 209.519 75.941,209.931 76.185,211.155 76.618 M341.825 75.970 C 342.256 76.420,349.412 79.835,349.405 79.588 C 349.401 79.437,347.847 78.582,345.952 77.687 C 342.415 76.018,341.510 75.641,341.825 75.970 M142.069 78.091 C 140.812 78.701,139.854 79.270,139.941 79.357 C 140.105 79.520,144.535 77.348,144.535 77.104 C 144.535 76.896,144.530 76.898,142.069 78.091 M267.028 77.087 C 267.028 77.361,271.420 79.559,271.602 79.377 C 271.695 79.284,270.825 78.757,269.670 78.205 C 268.515 77.653,267.448 77.139,267.299 77.062 C 267.150 76.985,267.028 76.997,267.028 77.087 M193.729 80.268 C 192.696 81.290,191.907 82.181,191.975 82.249 C 192.043 82.317,193.020 81.481,194.145 80.392 C 195.270 79.302,196.059 78.410,195.898 78.410 C 195.738 78.410,194.761 79.246,193.729 80.268 M61.310 79.746 C 60.748 80.041,60.367 80.361,60.463 80.457 C 60.653 80.647,62.873 79.585,62.873 79.304 C 62.873 79.036,62.416 79.165,61.310 79.746 M134.679 81.733 C 133.133 82.545,131.931 83.271,132.007 83.347 C 132.142 83.482,137.551 80.817,137.949 80.419 C 138.478 79.890,137.235 80.390,134.679 81.733 M219.216 82.385 C 220.016 83.478,220.780 84.680,220.913 85.056 C 221.046 85.432,221.254 85.642,221.374 85.522 C 221.652 85.244,219.575 81.987,218.542 81.082 C 218.113 80.706,218.416 81.292,219.216 82.385 M351.260 80.712 C 351.658 81.160,357.362 83.811,357.359 83.546 C 357.357 83.404,356.178 82.740,354.739 82.070 C 351.726 80.666,350.950 80.363,351.260 80.712 M56.071 82.427 C 54.814 83.037,53.862 83.613,53.956 83.707 C 54.145 83.895,58.537 81.757,58.537 81.476 C 58.537 81.227,58.585 81.208,56.071 82.427 M276.423 82.002 C 276.423 82.213,276.672 82.385,276.977 82.385 C 277.283 82.385,277.938 82.651,278.434 82.976 C 278.930 83.301,279.425 83.477,279.535 83.368 C 279.644 83.259,279.111 82.884,278.349 82.536 C 277.588 82.187,276.843 81.838,276.694 81.761 C 276.545 81.683,276.423 81.792,276.423 82.002 M190.112 84.935 C 189.426 86.486,189.803 86.624,190.535 85.090 C 190.865 84.397,191.015 83.830,190.868 83.830 C 190.721 83.830,190.381 84.327,190.112 84.935 M48.681 86.069 C 47.135 86.881,45.940 87.614,46.024 87.698 C 46.201 87.875,52.033 84.994,52.033 84.729 C 52.033 84.381,51.449 84.614,48.681 86.069 M359.169 84.643 C 359.600 85.093,366.756 88.507,366.749 88.260 C 366.745 88.109,365.191 87.254,363.296 86.360 C 359.759 84.690,358.854 84.313,359.169 84.643 M124.725 86.763 C 123.468 87.373,122.517 87.949,122.613 88.045 C 122.789 88.221,127.191 86.044,127.191 85.781 C 127.191 85.567,127.194 85.566,124.725 86.763 M284.372 85.760 C 284.372 86.033,288.764 88.231,288.946 88.049 C 289.039 87.956,288.170 87.429,287.014 86.877 C 285.859 86.326,284.792 85.811,284.643 85.734 C 284.494 85.657,284.372 85.669,284.372 85.760 M189.244 86.968 C 189.150 87.130,188.980 87.913,188.865 88.708 L 188.657 90.154 189.175 88.553 C 189.641 87.114,189.680 86.207,189.244 86.968 M43.965 88.418 C 43.404 88.713,43.023 89.033,43.119 89.129 C 43.308 89.319,45.528 88.257,45.528 87.976 C 45.528 87.708,45.071 87.837,43.965 88.418 M222.475 89.874 C 222.756 91.689,222.945 91.834,222.945 90.235 C 222.945 89.518,222.792 88.837,222.605 88.721 C 222.402 88.596,222.350 89.062,222.475 89.874 M117.489 90.340 C 114.678 91.812,113.789 92.414,115.274 91.839 C 116.539 91.350,120.687 89.195,120.687 89.028 C 120.687 88.736,120.061 88.993,117.489 90.340 M39.996 90.421 C 38.841 91.011,37.971 91.569,38.062 91.661 C 38.248 91.846,42.638 89.702,42.638 89.426 C 42.638 89.131,42.180 89.303,39.996 90.421 M368.608 89.415 C 368.699 89.506,370.148 90.278,371.830 91.131 L 374.887 92.683 374.887 126.739 C 374.887 145.470,375.009 160.795,375.158 160.795 C 375.665 160.795,375.486 92.867,374.977 92.370 C 374.729 92.127,373.268 91.326,371.730 90.589 C 369.161 89.359,368.185 88.992,368.608 89.415 M188.378 92.864 C 188.378 94.354,188.442 94.964,188.520 94.219 C 188.598 93.473,188.598 92.254,188.520 91.509 C 188.442 90.763,188.378 91.373,188.378 92.864 M293.767 90.457 C 293.767 90.728,296.730 92.189,296.911 92.008 C 297.003 91.916,296.455 91.556,295.693 91.208 C 294.932 90.859,294.187 90.510,294.038 90.433 C 293.889 90.355,293.767 90.366,293.767 90.457 M36.370 92.440 C 35.659 93.226,35.427 160.177,36.134 160.614 C 36.374 160.763,36.495 149.400,36.495 126.800 C 36.495 94.807,36.533 92.734,37.127 92.283 C 37.475 92.019,37.582 91.797,37.364 91.791 C 37.146 91.785,36.699 92.077,36.370 92.440 M108.658 94.746 C 107.508 95.352,106.632 95.912,106.711 95.991 C 106.866 96.146,111.292 93.957,111.292 93.725 C 111.292 93.442,110.698 93.672,108.658 94.746 M300.271 93.704 C 300.271 93.958,304.691 96.152,304.861 95.982 C 304.945 95.898,304.068 95.378,302.913 94.827 C 301.758 94.275,300.691 93.761,300.542 93.684 C 300.393 93.607,300.271 93.616,300.271 93.704 M222.636 95.032 C 222.602 95.528,222.483 96.341,222.373 96.838 C 222.200 97.617,222.229 97.653,222.581 97.102 C 222.806 96.749,222.924 95.936,222.844 95.295 C 222.731 94.387,222.685 94.329,222.636 95.032 M188.848 97.019 C 188.969 97.814,189.221 98.627,189.410 98.826 C 189.777 99.213,189.469 97.585,188.931 96.296 C 188.740 95.837,188.709 96.101,188.848 97.019 M99.264 99.443 C 98.114 100.049,97.244 100.617,97.332 100.705 C 97.499 100.872,101.897 98.678,101.897 98.428 C 101.897 98.139,101.313 98.364,99.264 99.443 M311.111 99.160 C 311.111 99.452,315.492 101.611,315.687 101.416 C 315.779 101.325,314.909 100.798,313.753 100.247 C 312.598 99.695,311.531 99.181,311.382 99.104 C 311.233 99.027,311.111 99.052,311.111 99.160 M189.702 99.677 C 189.702 100.113,191.482 102.981,191.752 102.981 C 191.874 102.981,190.220 99.917,189.818 99.398 C 189.754 99.315,189.702 99.440,189.702 99.677 M220.442 101.484 C 219.309 103.705,215.906 106.806,213.026 108.244 C 211.625 108.943,210.885 109.406,211.382 109.273 C 215.069 108.283,222.621 101.453,221.391 100.222 C 221.280 100.111,220.852 100.679,220.442 101.484 M91.314 103.418 C 90.164 104.024,89.288 104.584,89.367 104.664 C 89.522 104.818,93.948 102.629,93.948 102.397 C 93.948 102.114,93.354 102.344,91.314 103.418 M319.061 103.104 C 319.061 103.375,322.023 104.836,322.205 104.655 C 322.296 104.563,321.748 104.203,320.987 103.854 C 320.225 103.506,319.481 103.157,319.332 103.080 C 319.182 103.002,319.061 103.013,319.061 103.104 M193.135 104.788 C 193.911 105.583,194.613 106.233,194.695 106.233 C 195.000 106.233,192.399 103.402,192.068 103.373 C 191.878 103.356,192.358 103.993,193.135 104.788 M195.122 106.451 C 195.122 107.017,199.662 109.504,200.631 109.469 C 200.880 109.459,200.034 108.966,198.751 108.373 C 197.468 107.779,196.126 107.030,195.770 106.707 C 195.414 106.385,195.122 106.270,195.122 106.451 M81.357 108.440 C 80.494 108.845,79.868 109.257,79.967 109.356 C 80.161 109.550,83.107 108.139,83.107 107.852 C 83.107 107.617,83.133 107.608,81.357 108.440 M328.455 107.833 C 328.455 108.124,332.836 110.283,333.031 110.088 C 333.123 109.997,332.253 109.470,331.098 108.919 C 329.942 108.367,328.875 107.853,328.726 107.776 C 328.577 107.699,328.455 107.724,328.455 107.833 M202.112 109.931 C 202.342 110.077,203.911 110.197,205.601 110.197 C 207.290 110.197,208.859 110.077,209.088 109.931 C 209.317 109.785,207.747 109.666,205.600 109.666 C 203.452 109.666,201.882 109.785,202.112 109.931 M74.855 111.646 C 73.753 112.261,72.685 113.092,73.532 112.675 C 73.731 112.577,74.503 112.218,75.248 111.878 C 75.994 111.537,76.603 111.184,76.603 111.094 C 76.603 110.797,76.077 110.963,74.855 111.646 M336.405 111.993 C 336.405 112.204,336.654 112.376,336.959 112.376 C 337.265 112.376,337.920 112.642,338.416 112.967 C 338.912 113.292,339.407 113.468,339.517 113.359 C 339.626 113.250,339.092 112.875,338.331 112.527 C 337.570 112.178,336.825 111.829,336.676 111.752 C 336.527 111.674,336.405 111.783,336.405 111.993 M340.305 119.963 C 340.367 123.787,340.553 126.468,340.757 126.468 C 341.135 126.468,341.251 114.992,340.883 114.031 C 340.334 112.601,340.206 113.911,340.305 119.963 M70.609 120.325 C 70.609 123.803,70.664 125.226,70.730 123.487 C 70.796 121.748,70.796 118.902,70.730 117.164 C 70.664 115.425,70.609 116.847,70.609 120.325 M69.982 177.293 C 69.332 177.943,69.718 296.297,70.370 296.268 C 70.748 296.251,70.821 296.166,70.551 296.057 C 70.192 295.912,70.099 283.690,70.099 236.642 L 70.099 177.409 87.173 177.503 L 104.246 177.597 104.337 236.457 C 104.410 283.195,104.335 295.429,103.976 295.865 C 103.603 296.316,103.619 296.382,104.065 296.235 C 104.544 296.076,104.607 289.134,104.607 236.646 L 104.607 177.236 87.417 177.142 C 77.962 177.090,70.117 177.158,69.982 177.293 M154.459 177.503 C 153.783 179.280,154.507 296.109,155.194 296.180 C 155.758 296.238,155.778 296.214,155.283 296.068 C 154.683 295.891,154.655 292.837,154.741 236.739 L 154.833 177.597 171.906 177.503 L 188.979 177.409 188.979 236.642 C 188.979 276.733,188.860 295.934,188.609 296.058 C 188.405 296.159,188.446 296.200,188.699 296.149 C 189.070 296.074,189.160 284.505,189.160 236.646 L 189.160 177.236 171.896 177.142 C 158.277 177.068,154.596 177.144,154.459 177.503 M222.463 177.296 C 222.129 177.631,222.158 295.853,222.493 296.060 C 222.642 296.152,222.723 269.495,222.672 236.822 L 222.579 177.416 239.534 177.416 C 252.760 177.416,256.529 177.516,256.671 177.868 C 256.780 178.138,256.865 178.065,256.882 177.687 C 256.911 177.037,223.106 176.653,222.463 177.296 M307.016 177.296 C 306.681 177.631,306.711 295.853,307.046 296.060 C 307.195 296.152,307.275 269.492,307.225 236.815 L 307.132 177.403 324.298 177.500 C 333.739 177.553,341.464 177.475,341.464 177.326 C 341.463 176.991,307.350 176.962,307.016 177.296 M36.013 312.797 C 35.615 313.195,35.727 346.451,36.127 346.699 C 36.356 346.840,36.516 340.850,36.578 329.737 C 36.632 320.288,36.581 312.556,36.465 312.556 C 36.349 312.556,36.146 312.665,36.013 312.797 M374.887 329.720 C 374.887 339.160,375.009 346.883,375.158 346.883 C 375.307 346.883,375.429 339.160,375.429 329.720 C 375.429 320.280,375.307 312.556,375.158 312.556 C 375.009 312.556,374.887 320.280,374.887 329.720 " stroke="none" fill="#ececec" fill-rule="evenodd"></path><path id="path3" d="M197.290 12.466 C 196.396 12.945,195.792 13.344,195.949 13.353 C 196.333 13.375,199.097 11.955,199.097 11.736 C 199.097 11.497,199.112 11.491,197.290 12.466 M179.946 21.138 C 179.051 21.617,178.448 22.016,178.605 22.025 C 178.989 22.047,181.752 20.627,181.752 20.408 C 181.752 20.169,181.767 20.163,179.946 21.138 M171.274 25.474 C 169.982 26.151,169.052 26.712,169.206 26.721 C 169.590 26.745,173.803 24.604,173.803 24.385 C 173.803 24.142,173.888 24.106,171.274 25.474 M153.930 34.146 C 152.638 34.823,151.707 35.384,151.862 35.393 C 152.246 35.417,156.459 33.276,156.459 33.057 C 156.459 32.814,156.544 32.778,153.930 34.146 M145.528 38.326 C 144.783 38.720,144.173 39.122,144.173 39.221 C 144.173 39.320,144.824 39.069,145.619 38.663 C 146.414 38.258,147.064 37.848,147.064 37.752 C 147.064 37.516,147.062 37.517,145.528 38.326 M136.585 42.818 C 135.294 43.495,134.363 44.056,134.518 44.066 C 134.902 44.090,139.115 41.948,139.115 41.729 C 139.115 41.486,139.199 41.450,136.585 42.818 M280.397 45.694 C 280.397 45.794,281.048 46.207,281.843 46.612 C 282.638 47.018,283.288 47.269,283.288 47.169 C 283.288 47.070,282.638 46.657,281.843 46.251 C 281.048 45.846,280.397 45.595,280.397 45.694 M204.755 46.161 C 204.663 46.310,205.133 46.444,205.799 46.458 C 206.465 46.473,206.927 46.351,206.826 46.187 C 206.596 45.815,204.979 45.795,204.755 46.161 M288.347 49.669 C 288.347 49.769,288.997 50.182,289.792 50.587 C 290.587 50.993,291.238 51.243,291.238 51.144 C 291.238 51.044,290.587 50.631,289.792 50.226 C 288.997 49.820,288.347 49.570,288.347 49.669 M297.742 54.367 C 297.742 54.466,298.392 54.879,299.187 55.285 C 299.982 55.690,300.632 55.941,300.632 55.841 C 300.632 55.742,299.982 55.329,299.187 54.923 C 298.392 54.518,297.742 54.267,297.742 54.367 M305.691 58.341 C 305.691 58.441,306.341 58.854,307.136 59.259 C 307.931 59.665,308.582 59.915,308.582 59.816 C 308.582 59.717,307.931 59.303,307.136 58.898 C 306.341 58.492,305.691 58.242,305.691 58.341 M102.620 59.801 C 101.725 60.280,101.122 60.679,101.279 60.688 C 101.663 60.710,104.426 59.290,104.426 59.071 C 104.426 58.832,104.441 58.826,102.620 59.801 M323.035 67.013 C 323.035 67.113,323.686 67.526,324.481 67.931 C 325.276 68.337,325.926 68.587,325.926 68.488 C 325.926 68.389,325.276 67.976,324.481 67.570 C 323.686 67.164,323.035 66.914,323.035 67.013 M76.603 72.809 C 75.312 73.486,74.381 74.047,74.536 74.057 C 74.920 74.080,79.133 71.939,79.133 71.720 C 79.133 71.477,79.218 71.441,76.603 72.809 M150.226 73.376 C 149.481 73.769,148.871 74.172,148.871 74.271 C 148.871 74.432,151.725 73.098,152.093 72.765 C 152.509 72.389,151.423 72.744,150.226 73.376 M340.379 75.685 C 340.379 75.785,341.030 76.198,341.825 76.603 C 342.620 77.009,343.270 77.259,343.270 77.160 C 343.270 77.061,342.620 76.648,341.825 76.242 C 341.030 75.837,340.379 75.586,340.379 75.685 M204.794 76.143 C 205.444 76.223,206.419 76.221,206.962 76.139 C 207.505 76.056,206.974 75.991,205.781 75.993 C 204.589 75.995,204.145 76.062,204.794 76.143 M201.265 76.603 C 200.520 76.842,200.489 76.898,201.084 76.923 C 201.481 76.940,202.051 76.796,202.349 76.603 C 202.982 76.194,202.542 76.194,201.265 76.603 M209.033 76.603 C 209.431 76.774,210.081 76.909,210.479 76.903 C 211.060 76.895,211.024 76.836,210.298 76.603 C 209.063 76.208,208.113 76.208,209.033 76.603 M193.677 81.120 C 192.799 82.014,192.162 82.746,192.261 82.746 C 192.361 82.746,193.160 82.014,194.038 81.120 C 194.916 80.226,195.552 79.494,195.453 79.494 C 195.354 79.494,194.554 80.226,193.677 81.120 M216.093 79.542 C 216.086 79.668,216.696 80.399,217.450 81.168 C 218.203 81.937,219.188 83.053,219.638 83.650 C 220.101 84.263,220.291 84.393,220.076 83.948 C 219.664 83.093,216.116 79.169,216.093 79.542 M59.259 81.481 C 57.967 82.158,57.037 82.719,57.192 82.729 C 57.576 82.753,61.789 80.611,61.789 80.392 C 61.789 80.149,61.873 80.113,59.259 81.481 M355.947 83.607 C 356.315 83.944,360.614 85.990,360.614 85.828 C 360.614 85.625,356.440 83.469,356.048 83.469 C 355.909 83.469,355.864 83.531,355.947 83.607 M221.933 89.070 C 221.933 89.467,222.063 90.199,222.222 90.696 C 222.451 91.411,222.512 91.448,222.512 90.876 C 222.512 90.479,222.381 89.747,222.222 89.250 C 221.993 88.535,221.933 88.497,221.933 89.070 M42.638 89.792 C 41.743 90.271,41.140 90.670,41.297 90.679 C 41.681 90.701,44.444 89.281,44.444 89.062 C 44.444 88.823,44.459 88.817,42.638 89.792 M115.537 90.720 C 114.792 91.114,114.182 91.516,114.182 91.615 C 114.182 91.776,117.037 90.442,117.404 90.109 C 117.820 89.733,116.735 90.088,115.537 90.720 M371.846 91.553 C 372.218 91.886,374.345 92.863,374.345 92.701 C 374.345 92.493,372.342 91.418,371.954 91.418 C 371.812 91.418,371.763 91.479,371.846 91.553 M37.127 92.531 C 36.531 92.878,36.500 94.831,36.583 126.576 L 36.672 160.253 36.766 126.687 C 36.854 95.246,36.900 93.091,37.491 92.643 C 38.238 92.075,38.023 92.009,37.127 92.531 M189.063 94.670 C 189.063 95.366,189.137 95.650,189.228 95.303 C 189.319 94.955,189.319 94.386,189.228 94.038 C 189.137 93.690,189.063 93.975,189.063 94.670 M222.062 95.594 C 221.926 96.319,221.887 96.984,221.975 97.073 C 222.063 97.161,222.247 96.640,222.383 95.915 C 222.519 95.190,222.558 94.524,222.470 94.436 C 222.381 94.348,222.198 94.869,222.062 95.594 M219.330 102.349 C 218.798 103.075,218.711 103.328,219.102 103.011 C 219.694 102.530,220.590 101.174,220.316 101.174 C 220.247 101.174,219.803 101.703,219.330 102.349 M192.156 102.800 C 193.137 104.243,195.357 106.299,196.971 107.261 C 199.178 108.576,198.977 108.124,196.701 106.653 C 195.521 105.890,193.850 104.467,192.987 103.491 C 192.125 102.515,191.751 102.204,192.156 102.800 M217.321 104.878 L 216.260 106.052 217.435 104.991 C 218.080 104.407,218.609 103.879,218.609 103.817 C 218.609 103.538,218.311 103.783,217.321 104.878 M203.774 109.565 C 204.856 109.728,206.644 109.728,207.749 109.566 C 209.492 109.311,209.234 109.272,205.781 109.270 C 202.361 109.269,202.081 109.310,203.774 109.565 M340.706 113.599 C 341.011 113.966,341.104 115.959,341.028 120.473 C 340.969 123.969,341.043 126.830,341.192 126.830 C 341.816 126.829,341.499 113.551,340.870 113.310 C 340.390 113.125,340.358 113.180,340.706 113.599 M70.702 177.657 C 70.569 177.790,70.461 204.456,70.461 236.917 L 70.461 295.935 87.263 295.935 L 104.065 295.935 104.065 236.676 L 104.065 177.416 87.504 177.416 C 78.395 177.416,70.834 177.525,70.702 177.657 M155.180 177.868 C 155.086 178.117,155.050 204.743,155.101 237.037 L 155.194 295.754 171.816 295.760 L 188.437 295.765 171.906 295.666 L 155.375 295.566 155.375 236.676 L 155.375 177.785 172.087 177.687 L 188.799 177.590 172.075 177.503 C 158.965 177.435,155.315 177.514,155.180 177.868 M222.752 177.864 C 222.657 178.115,222.620 204.743,222.671 237.037 L 222.764 295.754 239.658 295.848 L 256.551 295.942 256.460 236.770 L 256.369 177.597 239.647 177.503 C 226.462 177.429,222.888 177.506,222.752 177.864 M324.119 177.686 L 340.741 177.785 340.741 236.676 L 340.741 295.566 324.029 295.666 L 307.317 295.765 324.119 295.760 L 340.921 295.754 340.921 236.676 L 340.921 177.597 324.210 177.592 L 307.498 177.586 324.119 177.686 M103.704 236.676 L 103.704 295.574 87.263 295.574 L 70.822 295.574 70.822 236.676 L 70.822 177.778 87.263 177.778 L 103.704 177.778 103.704 236.676 M256.099 236.766 L 256.190 295.574 239.567 295.574 L 222.945 295.574 222.945 236.672 L 222.945 177.770 239.476 177.864 L 256.007 177.958 256.099 236.766 M36.660 313.369 C 36.565 313.618,36.531 321.220,36.585 330.262 L 36.683 346.703 36.770 329.990 L 36.856 313.278 205.781 313.369 C 298.690 313.419,374.706 313.338,374.706 313.189 C 374.706 312.679,36.856 312.860,36.660 313.369 " stroke="none" fill="#989494" fill-rule="evenodd"></path><path id="path4" d="M212.827 49.673 C 212.827 49.773,213.803 50.347,214.995 50.949 C 216.188 51.550,217.164 51.962,217.164 51.862 C 217.164 51.763,216.188 51.189,214.995 50.587 C 213.803 49.985,212.827 49.574,212.827 49.673 M232.008 59.394 C 232.380 59.727,234.508 60.704,234.508 60.542 C 234.508 60.334,232.504 59.259,232.117 59.259 C 231.974 59.259,231.926 59.320,232.008 59.394 M247.516 67.013 C 247.516 67.113,248.166 67.526,248.961 67.931 C 249.756 68.337,250.407 68.587,250.407 68.488 C 250.407 68.389,249.756 67.976,248.961 67.570 C 248.166 67.164,247.516 66.914,247.516 67.013 M255.465 70.988 C 255.465 71.087,256.116 71.501,256.911 71.906 C 257.706 72.312,258.356 72.562,258.356 72.463 C 258.356 72.363,257.706 71.950,256.911 71.545 C 256.116 71.139,255.465 70.889,255.465 70.988 M264.860 75.685 C 264.860 75.785,265.510 76.198,266.305 76.603 C 267.100 77.009,267.751 77.259,267.751 77.160 C 267.751 77.061,267.100 76.648,266.305 76.242 C 265.510 75.837,264.860 75.586,264.860 75.685 M201.626 76.247 C 201.245 76.497,201.459 76.534,202.349 76.370 C 203.907 76.084,204.201 75.879,203.041 75.886 C 202.561 75.889,201.924 76.052,201.626 76.247 M195.628 79.084 C 194.853 79.653,193.812 80.585,193.315 81.154 C 192.748 81.804,193.017 81.654,194.038 80.751 C 194.932 79.960,196.070 79.037,196.567 78.700 C 197.064 78.363,197.373 78.078,197.254 78.068 C 197.135 78.057,196.403 78.515,195.628 79.084 M217.525 80.759 C 218.199 81.454,218.832 82.023,218.931 82.023 C 219.031 82.023,218.560 81.454,217.886 80.759 C 217.212 80.063,216.579 79.494,216.480 79.494 C 216.380 79.494,216.851 80.063,217.525 80.759 M272.809 79.660 C 272.809 79.759,273.460 80.173,274.255 80.578 C 275.050 80.984,275.700 81.234,275.700 81.135 C 275.700 81.035,275.050 80.622,274.255 80.217 C 273.460 79.811,272.809 79.561,272.809 79.660 M191.376 83.559 L 190.726 84.734 191.470 83.830 C 192.131 83.029,192.424 82.385,192.128 82.385 C 192.072 82.385,191.733 82.913,191.376 83.559 M282.596 84.688 C 282.967 85.020,285.095 85.998,285.095 85.836 C 285.095 85.628,283.092 84.553,282.704 84.553 C 282.562 84.553,282.513 84.613,282.596 84.688 M290.154 88.332 C 290.154 88.432,290.804 88.845,291.599 89.250 C 292.394 89.656,293.044 89.906,293.044 89.807 C 293.044 89.708,292.394 89.294,291.599 88.889 C 290.804 88.483,290.154 88.233,290.154 88.332 M188.846 89.702 C 188.555 90.785,188.604 95.412,188.914 96.192 C 189.049 96.533,189.160 95.029,189.160 92.850 C 189.160 88.519,189.161 88.526,188.846 89.702 M222.682 92.864 C 222.682 93.758,222.752 94.124,222.839 93.677 C 222.925 93.229,222.925 92.498,222.839 92.051 C 222.752 91.603,222.682 91.969,222.682 92.864 M374.255 92.502 C 374.609 92.899,374.706 100.262,374.706 126.722 L 374.706 160.435 205.601 160.344 C 112.593 160.294,36.495 160.375,36.495 160.524 C 36.495 160.674,112.633 160.755,205.691 160.705 L 374.887 160.614 374.979 126.785 C 375.066 94.890,375.035 92.928,374.437 92.475 C 373.897 92.067,373.870 92.071,374.255 92.502 M307.498 97.009 C 307.498 97.108,308.473 97.682,309.666 98.284 C 310.858 98.886,311.834 99.297,311.834 99.197 C 311.834 99.098,310.858 98.524,309.666 97.922 C 308.473 97.320,307.498 96.909,307.498 97.009 M315.447 100.979 C 315.447 101.078,316.098 101.491,316.893 101.897 C 317.687 102.303,318.338 102.553,318.338 102.454 C 318.338 102.354,317.687 101.941,316.893 101.536 C 316.098 101.130,315.447 100.880,315.447 100.979 M193.677 104.968 C 194.351 105.664,194.984 106.233,195.083 106.233 C 195.182 106.233,194.712 105.664,194.038 104.968 C 193.364 104.273,192.731 103.704,192.631 103.704 C 192.532 103.704,193.002 104.273,193.677 104.968 M326.679 106.729 C 327.051 107.062,329.178 108.039,329.178 107.878 C 329.178 107.670,327.175 106.594,326.787 106.594 C 326.645 106.594,326.596 106.655,326.679 106.729 M332.791 109.651 C 332.791 109.750,333.442 110.164,334.237 110.569 C 335.032 110.975,335.682 111.225,335.682 111.126 C 335.682 111.026,335.032 110.613,334.237 110.208 C 333.442 109.802,332.791 109.552,332.791 109.651 M70.325 114.016 C 70.201 114.339,70.133 117.313,70.173 120.626 L 70.247 126.649 70.444 120.145 C 70.657 113.114,70.658 113.147,70.325 114.016 M138.331 126.739 C 175.560 126.790,236.373 126.790,273.471 126.739 C 310.569 126.688,280.108 126.647,205.781 126.647 C 131.454 126.647,101.102 126.688,138.331 126.739 M70.187 236.766 C 70.235 269.408,70.316 286.522,70.367 274.797 C 70.614 218.220,70.615 177.416,70.370 177.416 C 70.221 177.416,70.139 204.124,70.187 236.766 M154.893 177.657 C 154.558 177.992,154.588 295.935,154.923 295.935 C 155.072 295.935,155.194 269.268,155.194 236.676 C 155.194 204.083,155.181 177.416,155.164 177.416 C 155.148 177.416,155.026 177.525,154.893 177.657 M188.794 236.676 C 188.794 269.368,188.837 282.742,188.889 266.396 C 188.941 250.050,188.941 223.302,188.889 206.956 C 188.837 190.610,188.794 203.984,188.794 236.676 M307.315 236.766 L 307.317 296.116 323.848 296.121 L 340.380 296.127 323.940 296.027 L 307.500 295.928 307.407 236.672 L 307.314 177.416 307.315 236.766 M340.921 236.710 C 340.921 269.284,341.043 295.935,341.192 295.935 C 341.547 295.935,341.547 177.872,341.192 177.653 C 341.043 177.561,340.921 204.137,340.921 236.710 M104.241 236.676 C 104.241 269.169,104.284 282.462,104.336 266.215 C 104.388 249.968,104.388 223.383,104.336 207.136 C 104.284 190.890,104.241 204.182,104.241 236.676 M256.726 236.676 C 256.726 268.970,256.768 282.182,256.820 266.034 C 256.872 249.887,256.872 223.464,256.820 207.317 C 256.768 191.170,256.726 204.381,256.726 236.676 M222.894 296.029 C 223.045 296.180,230.558 296.261,239.588 296.210 L 256.007 296.115 239.313 295.935 C 230.132 295.836,222.743 295.878,222.894 296.029 M79.067 296.206 C 83.701 296.263,91.181 296.263,95.689 296.206 C 100.196 296.148,96.405 296.101,87.263 296.102 C 78.121 296.102,74.433 296.148,79.067 296.206 M163.776 296.206 C 168.297 296.263,175.696 296.263,180.217 296.206 C 184.738 296.148,181.039 296.101,171.996 296.101 C 162.954 296.101,159.255 296.148,163.776 296.206 M36.732 312.827 C 36.640 312.976,112.646 313.057,205.635 313.007 L 374.706 312.916 374.706 329.719 L 374.706 346.521 205.601 346.613 L 36.495 346.704 205.691 346.703 L 374.887 346.703 374.887 329.720 L 374.887 312.737 205.893 312.646 C 112.947 312.597,36.824 312.678,36.732 312.827 " stroke="none" fill="#a4a4a4" fill-rule="evenodd"></path></g></svg>