<svg id="svg" version="1.1" xmlns="http://www.w3.org/2000/svg" xmlns:xlink="http://www.w3.org/1999/xlink" width="400" height="363.4218289085546" viewBox="0, 0, 400,363.4218289085546"><g id="svgg"><path id="path0" d="M186.000 23.850 C 167.014 24.804,167.229 24.788,156.000 26.031 C 148.987 26.807,143.991 27.558,134.727 29.229 C 127.603 30.513,116.894 33.195,108.909 35.695 C 103.519 37.383,93.655 41.024,90.247 42.584 C 88.983 43.163,87.879 43.636,87.793 43.636 C 87.324 43.636,78.066 48.258,74.000 50.522 C 37.719 70.723,13.265 103.970,6.570 142.198 C 4.530 153.843,4.429 187.147,6.407 195.455 C 7.719 200.961,11.235 207.734,15.035 212.071 C 16.266 213.476,17.426 214.838,17.613 215.098 C 17.857 215.434,17.220 216.436,15.387 218.603 C 11.786 222.859,10.393 225.143,7.880 230.909 C 2.513 243.223,6.118 263.934,15.095 272.368 C 16.362 273.558,16.265 273.923,13.967 276.632 C -5.674 299.783,9.349 337.730,41.341 345.779 C 47.288 347.275,47.085 347.273,196.727 347.273 C 346.053 347.273,346.004 347.273,352.226 345.795 C 384.108 338.221,399.618 298.466,379.333 276.313 C 377.089 273.862,377.114 274.089,378.847 272.023 C 391.982 256.364,391.461 232.805,377.649 217.894 L 375.530 215.606 376.433 214.621 C 378.489 212.378,379.041 211.723,380.517 209.769 C 387.350 200.723,388.349 195.701,388.354 170.364 C 388.358 148.530,388.221 146.737,385.666 135.273 C 376.839 95.671,345.468 60.142,303.990 42.773 C 287.455 35.850,271.908 31.409,253.091 28.235 C 244.234 26.742,240.473 26.256,228.909 25.110 C 219.547 24.182,194.203 23.438,186.000 23.850 M222.084 47.072 C 236.222 48.179,246.934 49.674,259.091 52.237 C 271.407 54.832,286.739 59.670,295.818 63.824 C 297.018 64.373,299.227 65.385,300.727 66.074 C 335.456 82.010,359.205 112.120,365.346 148.000 C 366.353 153.881,366.331 187.572,365.319 190.545 C 363.140 196.946,359.104 201.156,353.050 203.343 L 350.727 204.182 198.080 204.275 C 30.508 204.378,42.919 204.537,37.967 202.220 C 33.503 200.131,29.569 195.173,28.208 189.918 C 27.371 186.690,27.367 154.291,28.203 148.700 C 30.699 132.005,38.151 114.534,48.510 101.091 C 74.323 67.595,120.066 49.004,183.091 46.393 C 189.855 46.113,215.554 46.560,222.084 47.072 M127.028 76.744 C 118.287 78.471,115.049 89.077,121.327 95.414 C 125.423 99.548,131.878 99.778,136.454 95.953 C 144.945 88.856,137.942 74.586,127.028 76.744 M262.301 76.733 C 253.648 78.504,250.609 88.774,256.761 95.450 C 260.693 99.714,267.597 99.824,272.078 95.693 C 280.141 88.261,273.060 74.531,262.301 76.733 M194.289 106.876 C 181.717 110.088,183.797 128.727,196.727 128.727 C 206.571 128.727,211.501 117.526,204.882 110.200 C 202.390 107.442,197.762 105.989,194.289 106.876 M90.608 245.545 L 109.217 264.182 76.345 264.275 C 39.904 264.378,41.695 264.483,37.273 261.980 C 22.252 253.479,25.463 231.581,42.364 227.262 C 42.964 227.109,49.877 226.967,57.727 226.946 L 71.999 226.909 90.608 245.545 M243.468 273.441 C 198.544 318.366,196.913 319.952,196.241 319.350 C 195.738 318.901,105.114 228.206,104.030 227.068 C 103.947 226.981,145.756 226.909,196.939 226.909 L 289.999 226.909 243.468 273.441 M353.273 227.793 C 370.536 234.246,369.921 258.567,352.365 263.676 C 350.125 264.328,348.293 264.364,317.093 264.364 L 284.184 264.364 302.910 245.624 L 321.636 226.884 336.545 226.999 C 350.042 227.103,351.627 227.178,353.273 227.793 M150.669 305.727 L 169.446 324.545 110.450 324.644 C 50.077 324.744,48.855 324.720,44.527 323.313 C 28.501 318.104,21.792 296.501,33.838 288.897 C 37.034 286.879,34.857 286.962,85.310 286.934 L 131.892 286.909 150.669 305.727 M356.278 287.427 C 372.852 291.839,367.162 317.327,348.182 323.692 L 345.636 324.545 285.000 324.645 C 251.650 324.699,224.364 324.618,224.364 324.464 C 224.364 324.310,232.749 315.797,242.999 305.547 L 261.634 286.909 307.999 286.913 C 346.597 286.917,354.684 287.003,356.278 287.427 " stroke="none" fill="#fc1d1d" fill-rule="evenodd"></path><path id="path1" d="M0.000 181.818 L 0.000 363.636 200.000 363.636 L 400.000 363.636 400.000 181.818 L 400.000 0.000 200.000 0.000 L 0.000 0.000 0.000 181.818 M218.545 24.351 C 250.974 26.200,278.672 32.172,303.990 42.773 C 349.919 62.006,381.731 101.591,387.822 147.091 C 388.584 152.783,388.592 188.280,387.832 192.545 C 386.547 199.758,382.817 207.534,378.152 212.727 C 377.703 213.227,376.929 214.079,376.433 214.621 L 375.530 215.606 377.649 217.894 C 391.461 232.805,391.982 256.364,378.847 272.023 C 377.114 274.089,377.089 273.862,379.333 276.313 C 399.618 298.466,384.108 338.221,352.226 345.795 C 346.004 347.273,346.053 347.273,196.727 347.273 C 47.085 347.273,47.288 347.275,41.341 345.779 C 9.349 337.730,-5.674 299.783,13.967 276.632 C 16.265 273.923,16.362 273.558,15.095 272.368 C 6.118 263.934,2.513 243.223,7.880 230.909 C 10.393 225.143,11.786 222.859,15.387 218.603 C 17.220 216.436,17.857 215.434,17.613 215.098 C 17.426 214.838,16.266 213.476,15.035 212.071 C 11.235 207.734,7.719 200.961,6.407 195.455 C 4.429 187.147,4.530 153.843,6.570 142.198 C 13.265 103.970,37.719 70.723,74.000 50.522 C 78.066 48.258,87.324 43.636,87.793 43.636 C 87.879 43.636,88.983 43.163,90.247 42.584 C 95.817 40.034,109.196 35.386,116.545 33.448 C 133.012 29.105,143.994 27.200,164.545 25.120 C 167.683 24.802,171.248 24.591,186.000 23.850 C 190.282 23.635,211.799 23.966,218.545 24.351 M183.091 46.393 C 166.670 47.074,152.084 48.781,136.364 51.863 C 75.869 63.723,35.503 99.863,28.203 148.700 C 27.367 154.291,27.371 186.690,28.208 189.918 C 29.569 195.173,33.503 200.131,37.967 202.220 C 42.919 204.537,30.508 204.378,198.080 204.275 L 350.727 204.182 353.050 203.343 C 359.104 201.156,363.140 196.946,365.319 190.545 C 366.331 187.572,366.353 153.881,365.346 148.000 C 359.205 112.120,335.456 82.010,300.727 66.074 C 299.227 65.385,297.018 64.373,295.818 63.824 C 286.739 59.670,271.407 54.832,259.091 52.237 C 246.934 49.674,236.222 48.179,222.084 47.072 C 215.554 46.560,189.855 46.113,183.091 46.393 M133.705 77.488 C 139.164 79.814,141.919 87.589,139.094 92.692 C 135.402 99.359,126.575 100.711,121.327 95.414 C 112.720 86.727,122.420 72.678,133.705 77.488 M268.708 77.324 C 274.381 79.662,277.240 87.088,274.542 92.479 C 271.137 99.281,261.740 100.851,256.761 95.450 C 248.525 86.514,257.599 72.747,268.708 77.324 M201.791 107.804 C 208.693 111.302,209.999 121.253,204.180 126.021 C 196.581 132.248,185.820 127.258,185.818 117.507 C 185.818 109.440,194.550 104.135,201.791 107.804 M42.364 227.262 C 25.463 231.581,22.252 253.479,37.273 261.980 C 41.695 264.483,39.904 264.378,76.345 264.275 L 109.217 264.182 90.608 245.545 L 71.999 226.909 57.727 226.946 C 49.877 226.967,42.964 227.109,42.364 227.262 M104.030 227.068 C 105.114 228.206,195.738 318.901,196.241 319.350 C 196.913 319.952,198.544 318.366,243.468 273.441 L 289.999 226.909 196.939 226.909 C 145.756 226.909,103.947 226.981,104.030 227.068 M302.910 245.624 L 284.184 264.364 317.093 264.364 C 348.293 264.364,350.125 264.328,352.365 263.676 C 367.735 259.203,370.874 238.595,357.493 230.013 C 352.899 227.067,353.321 227.128,336.545 226.999 L 321.636 226.884 302.910 245.624 M36.954 287.504 C 21.325 292.304,26.654 317.504,44.527 323.313 C 48.855 324.720,50.077 324.744,110.450 324.644 L 169.446 324.545 150.669 305.727 L 131.892 286.909 85.310 286.934 C 45.021 286.956,38.488 287.033,36.954 287.504 M242.999 305.547 C 232.749 315.797,224.364 324.310,224.364 324.464 C 224.364 324.618,251.650 324.699,285.000 324.645 L 345.636 324.545 348.182 323.692 C 367.162 317.327,372.852 291.839,356.278 287.427 C 354.684 287.003,346.597 286.917,307.999 286.913 L 261.634 286.909 242.999 305.547 " stroke="none" fill="#fcfbfb" fill-rule="evenodd"></path></g></svg>