<svg id="svg" version="1.1" xmlns="http://www.w3.org/2000/svg" xmlns:xlink="http://www.w3.org/1999/xlink" width="400" height="388.8268156424581" viewBox="0, 0, 400,388.8268156424581"><g id="svgg"><path id="path0" d="M155.837 21.741 C 149.927 23.300,146.485 29.827,148.607 35.449 C 149.806 38.627,151.408 40.187,155.955 42.603 C 165.348 47.595,173.135 56.520,174.515 63.876 L 174.775 65.266 170.753 66.536 C 151.494 72.617,136.976 89.871,134.257 109.911 C 133.728 113.807,134.733 113.128,123.884 116.920 C 111.349 121.301,90.621 128.521,78.988 132.557 C 73.745 134.376,68.054 136.365,66.342 136.976 C 64.630 137.587,61.128 138.814,58.560 139.704 C 55.992 140.593,50.739 142.423,46.887 143.771 C 43.035 145.119,36.644 147.350,32.685 148.730 C 22.854 152.157,21.629 152.929,19.875 156.809 C 18.627 159.570,18.628 276.231,19.876 278.988 C 21.768 283.169,24.611 284.606,42.607 290.481 C 43.463 290.760,46.702 291.891,49.805 292.994 C 56.356 295.321,61.869 297.243,66.537 298.826 C 68.356 299.443,72.383 300.851,75.486 301.955 C 78.589 303.058,82.091 304.280,83.268 304.669 C 84.446 305.058,88.735 306.544,92.802 307.970 C 96.868 309.397,100.895 310.796,101.751 311.078 C 102.607 311.361,105.846 312.499,108.949 313.609 C 112.053 314.718,115.292 315.858,116.148 316.141 C 118.832 317.029,128.750 320.475,134.630 322.563 C 137.733 323.664,141.761 325.069,143.580 325.684 C 148.284 327.274,153.392 329.048,157.004 330.346 C 158.716 330.961,164.232 332.890,169.261 334.633 C 174.290 336.376,180.068 338.388,182.101 339.105 C 186.737 340.739,209.983 348.830,217.510 351.430 C 220.613 352.502,224.903 353.995,227.043 354.749 C 235.338 357.672,237.349 358.374,242.996 360.318 C 246.206 361.423,250.233 362.816,251.946 363.414 C 260.599 366.438,263.491 367.454,266.342 368.470 C 268.054 369.081,272.344 370.575,275.875 371.791 C 283.621 374.459,287.883 375.945,292.023 377.422 C 295.243 378.570,304.660 381.838,308.755 383.227 C 314.138 385.054,317.238 384.753,327.821 381.381 C 358.905 371.475,377.345 348.724,381.120 315.624 C 382.015 307.780,382.010 158.419,381.115 151.036 C 376.107 109.729,355.842 75.797,323.829 55.116 C 316.227 50.204,315.509 50.167,304.280 54.097 C 299.893 55.632,292.889 58.081,288.716 59.540 C 284.543 60.998,277.802 63.358,273.735 64.784 C 269.669 66.210,265.642 67.607,264.786 67.888 C 263.930 68.170,260.691 69.302,257.588 70.404 C 254.484 71.506,250.457 72.915,248.638 73.535 C 245.744 74.521,234.623 78.400,228.423 80.587 L 226.302 81.335 224.338 79.435 C 216.964 72.299,208.805 67.851,198.054 65.107 C 196.723 64.767,196.674 64.685,195.870 61.384 C 192.215 46.374,182.659 33.505,169.455 25.808 C 162.653 21.843,159.275 20.834,155.837 21.741 M316.125 75.521 C 338.263 90.758,354.015 117.157,359.151 147.627 C 365.196 183.487,348.949 220.881,316.342 246.158 C 314.951 247.236,313.610 248.236,313.362 248.379 C 312.968 248.608,306.756 246.568,293.191 241.757 C 291.051 240.999,287.899 239.892,286.187 239.300 C 284.475 238.707,281.235 237.573,278.988 236.780 C 276.741 235.987,273.502 234.849,271.790 234.251 C 262.211 230.904,260.211 230.196,257.198 229.081 C 249.733 226.320,244.448 227.674,241.432 233.121 L 240.272 235.214 240.077 259.922 C 239.939 277.300,239.748 284.919,239.434 285.603 C 235.464 294.255,223.677 294.487,219.693 285.992 C 218.883 284.266,218.869 283.781,218.677 252.335 C 218.461 216.876,218.646 219.200,215.787 216.036 C 214.015 214.074,213.314 213.749,203.753 210.449 C 199.442 208.961,194.426 207.216,192.607 206.570 C 188.460 205.099,178.528 201.651,176.459 200.964 C 175.603 200.680,171.313 199.193,166.926 197.659 C 159.368 195.018,153.595 193.009,132.296 185.607 C 127.267 183.859,121.401 181.819,119.261 181.073 C 111.206 178.266,104.033 175.782,102.529 175.281 C 101.673 174.995,98.434 173.865,95.331 172.770 C 92.228 171.674,88.200 170.271,86.381 169.652 C 84.562 169.033,79.484 167.274,75.097 165.742 C 70.710 164.210,65.985 162.565,64.597 162.086 C 61.885 161.151,61.936 160.830,64.938 159.917 C 65.496 159.747,69.543 158.352,73.930 156.817 C 92.388 150.359,99.895 147.745,101.362 147.263 C 102.218 146.982,105.720 145.761,109.144 144.550 C 112.568 143.338,116.070 142.120,116.926 141.842 C 117.782 141.563,121.809 140.165,125.875 138.733 C 136.162 135.112,136.522 135.008,136.860 135.544 C 137.016 135.790,137.684 137.229,138.345 138.742 C 149.109 163.391,178.035 176.136,203.677 167.529 C 229.950 158.709,245.318 130.480,238.304 103.920 C 237.189 99.696,237.054 99.971,240.856 98.704 C 244.202 97.588,254.081 94.148,276.459 86.307 C 280.739 84.807,284.942 83.350,285.798 83.068 C 286.654 82.786,289.893 81.656,292.996 80.556 C 296.099 79.456,301.089 77.705,304.086 76.665 C 307.082 75.625,310.233 74.509,311.089 74.185 C 313.203 73.385,312.906 73.306,316.125 75.521 M195.817 86.605 C 220.349 93.948,226.673 126.012,206.731 141.937 C 185.995 158.497,155.242 143.793,155.167 117.281 C 155.107 95.980,175.563 80.543,195.817 86.605 M308.691 104.682 C 300.532 106.316,297.669 116.905,303.828 122.666 C 310.544 128.948,321.401 124.200,321.401 114.981 C 321.401 108.257,315.344 103.349,308.691 104.682 M264.005 147.997 C 254.576 152.388,256.795 166.916,267.057 167.975 C 276.081 168.906,282.008 159.433,277.216 151.736 C 274.613 147.555,268.605 145.854,264.005 147.997 M321.631 154.698 C 310.607 158.737,313.387 175.097,325.097 175.097 C 334.711 175.097,339.314 163.663,332.325 157.145 C 329.269 154.294,325.246 153.373,321.631 154.698 M43.609 177.279 C 45.198 177.838,50.000 179.513,54.280 181.003 C 58.560 182.492,63.813 184.320,65.953 185.065 C 68.093 185.810,71.333 186.928,73.152 187.548 C 74.971 188.169,78.998 189.570,82.101 190.661 C 85.204 191.753,89.232 193.153,91.051 193.772 C 92.870 194.391,97.947 196.148,102.335 197.678 C 106.722 199.207,114.339 201.857,119.261 203.567 C 124.183 205.277,129.961 207.286,132.101 208.032 C 134.241 208.777,138.181 210.147,140.856 211.075 C 143.531 212.003,149.309 214.015,153.696 215.547 C 158.084 217.079,163.161 218.837,164.981 219.454 C 166.800 220.071,171.615 221.739,175.681 223.161 C 179.747 224.583,186.138 226.805,189.883 228.099 C 193.628 229.393,196.913 230.627,197.183 230.841 C 197.567 231.146,197.652 234.879,197.572 248.008 C 197.455 267.340,198.079 265.327,192.802 263.416 C 191.089 262.796,187.062 261.390,183.852 260.292 C 180.642 259.194,176.615 257.800,174.903 257.194 C 173.191 256.587,165.136 253.781,157.004 250.957 C 148.872 248.134,138.453 244.514,133.852 242.914 C 109.743 234.531,106.296 233.336,104.864 232.863 C 104.008 232.580,100.768 231.449,97.665 230.351 C 94.562 229.252,90.535 227.849,88.716 227.233 C 86.897 226.618,81.819 224.863,77.432 223.334 C 61.282 217.705,51.433 214.282,46.559 212.604 C 43.811 211.658,41.228 210.705,40.820 210.487 C 40.028 210.063,39.613 176.265,40.399 176.265 C 40.576 176.265,42.020 176.721,43.609 177.279 M287.907 196.928 C 282.636 197.710,279.251 201.852,279.287 207.477 C 279.356 218.641,294.723 221.743,299.250 211.507 C 302.646 203.825,296.310 195.682,287.907 196.928 M360.606 271.498 C 360.445 315.771,360.452 315.638,358.106 324.125 C 353.803 339.688,344.475 350.869,330.162 357.620 C 327.932 358.672,325.924 359.533,325.699 359.533 C 325.418 359.533,325.296 345.100,325.305 312.743 L 325.317 265.953 328.320 263.750 C 338.033 256.624,349.794 244.715,357.369 234.339 C 358.814 232.359,360.166 230.739,360.375 230.739 C 360.620 230.739,360.702 245.186,360.606 271.498 M49.222 235.996 C 53.288 237.435,57.315 238.840,58.171 239.118 C 59.027 239.396,62.529 240.611,65.953 241.819 C 69.377 243.026,73.667 244.519,75.486 245.135 C 77.305 245.752,82.121 247.420,86.187 248.842 C 93.748 251.487,111.170 257.540,113.619 258.374 C 114.368 258.629,116.381 259.332,118.093 259.935 C 119.805 260.539,123.833 261.937,127.043 263.042 C 130.253 264.147,134.280 265.547,135.992 266.155 C 138.818 267.157,144.320 269.069,167.315 277.037 C 171.488 278.483,177.179 280.461,179.961 281.431 C 182.743 282.402,187.980 284.225,191.598 285.482 L 198.176 287.768 198.906 290.432 C 204.599 311.214,230.826 320.530,247.723 307.773 C 250.340 305.797,249.067 305.577,262.716 310.355 C 286.245 318.590,288.638 319.426,295.805 321.919 C 299.811 323.313,303.269 324.564,303.490 324.701 C 303.755 324.865,303.891 330.672,303.891 341.883 L 303.891 358.817 302.626 358.540 C 301.931 358.388,300.049 357.776,298.444 357.180 C 296.839 356.584,292.636 355.102,289.105 353.888 C 285.574 352.673,281.284 351.185,279.572 350.582 C 277.860 349.979,272.082 347.965,266.732 346.107 C 261.381 344.249,255.603 342.232,253.891 341.625 C 250.419 340.393,227.799 332.520,219.066 329.504 C 215.963 328.432,211.673 326.938,209.533 326.184 C 200.887 323.138,199.035 322.491,189.689 319.255 C 184.339 317.402,178.560 315.392,176.848 314.789 C 175.136 314.185,169.358 312.171,164.008 310.313 C 151.808 306.077,148.594 304.952,143.969 303.300 C 141.936 302.574,137.646 301.081,134.436 299.982 C 131.226 298.883,127.198 297.494,125.486 296.894 C 123.774 296.294,121.848 295.624,121.206 295.406 C 120.564 295.188,117.500 294.108,114.397 293.006 C 111.294 291.904,107.267 290.499,105.447 289.883 C 103.628 289.267,98.813 287.598,94.747 286.175 C 90.681 284.752,84.903 282.736,81.907 281.696 C 78.911 280.656,73.132 278.644,69.066 277.224 C 54.909 272.281,46.089 269.215,43.093 268.194 L 40.078 267.166 40.078 250.075 L 40.078 232.983 40.953 233.182 C 41.435 233.291,45.156 234.558,49.222 235.996 M267.078 255.101 C 281.596 260.204,300.247 266.732,302.335 267.440 L 303.696 267.902 303.798 284.924 C 303.880 298.644,303.802 301.946,303.396 301.946 C 303.119 301.946,300.884 301.225,298.430 300.344 C 295.977 299.464,293.268 298.515,292.412 298.237 C 291.556 297.959,288.317 296.829,285.214 295.726 C 282.111 294.624,278.872 293.490,278.016 293.207 C 277.160 292.924,273.658 291.692,270.233 290.470 C 266.809 289.248,263.327 288.064,262.496 287.838 L 260.984 287.427 261.229 284.278 C 261.364 282.546,261.475 274.869,261.476 267.218 C 261.478 259.567,261.591 253.307,261.728 253.307 C 261.865 253.307,264.272 254.114,267.078 255.101 " stroke="none" fill="#fc1d1d" fill-rule="evenodd"></path><path id="path1" d="M0.000 194.553 L 0.000 389.105 200.000 389.105 L 400.000 389.105 400.000 194.553 L 400.000 0.000 200.000 0.000 L 0.000 0.000 0.000 194.553 M164.278 22.988 C 181.061 31.414,191.729 44.378,195.870 61.384 C 196.674 64.685,196.723 64.767,198.054 65.107 C 208.805 67.851,216.964 72.299,224.338 79.435 L 226.302 81.335 228.423 80.587 C 234.623 78.400,245.744 74.521,248.638 73.535 C 250.457 72.915,254.484 71.506,257.588 70.404 C 260.691 69.302,263.930 68.170,264.786 67.888 C 265.642 67.607,269.669 66.210,273.735 64.784 C 277.802 63.358,284.543 60.998,288.716 59.540 C 292.889 58.081,299.893 55.632,304.280 54.097 C 315.509 50.167,316.227 50.204,323.829 55.116 C 355.842 75.797,376.107 109.729,381.115 151.036 C 382.010 158.419,382.015 307.780,381.120 315.624 C 377.345 348.724,358.905 371.475,327.821 381.381 C 317.238 384.753,314.138 385.054,308.755 383.227 C 304.660 381.838,295.243 378.570,292.023 377.422 C 287.883 375.945,283.621 374.459,275.875 371.791 C 272.344 370.575,268.054 369.081,266.342 368.470 C 263.491 367.454,260.599 366.438,251.946 363.414 C 250.233 362.816,246.206 361.423,242.996 360.318 C 237.349 358.374,235.338 357.672,227.043 354.749 C 224.903 353.995,220.613 352.502,217.510 351.430 C 209.983 348.830,186.737 340.739,182.101 339.105 C 180.068 338.388,174.290 336.376,169.261 334.633 C 164.232 332.890,158.716 330.961,157.004 330.346 C 153.392 329.048,148.284 327.274,143.580 325.684 C 141.761 325.069,137.733 323.664,134.630 322.563 C 128.750 320.475,118.832 317.029,116.148 316.141 C 115.292 315.858,112.053 314.718,108.949 313.609 C 105.846 312.499,102.607 311.361,101.751 311.078 C 100.895 310.796,96.868 309.397,92.802 307.970 C 88.735 306.544,84.446 305.058,83.268 304.669 C 82.091 304.280,78.589 303.058,75.486 301.955 C 72.383 300.851,68.356 299.443,66.537 298.826 C 61.869 297.243,56.356 295.321,49.805 292.994 C 46.702 291.891,43.463 290.760,42.607 290.481 C 24.611 284.606,21.768 283.169,19.876 278.988 C 18.628 276.231,18.627 159.570,19.875 156.809 C 21.629 152.929,22.854 152.157,32.685 148.730 C 36.644 147.350,43.035 145.119,46.887 143.771 C 50.739 142.423,55.992 140.593,58.560 139.704 C 61.128 138.814,64.630 137.587,66.342 136.976 C 68.054 136.365,73.745 134.376,78.988 132.557 C 90.621 128.521,111.349 121.301,123.884 116.920 C 134.733 113.128,133.728 113.807,134.257 109.911 C 136.976 89.871,151.494 72.617,170.753 66.536 L 174.775 65.266 174.515 63.876 C 173.135 56.520,165.348 47.595,155.955 42.603 C 149.963 39.419,147.518 35.921,147.990 31.208 C 148.794 23.185,156.710 19.189,164.278 22.988 M311.089 74.185 C 310.233 74.509,307.082 75.625,304.086 76.665 C 301.089 77.705,296.099 79.456,292.996 80.556 C 289.893 81.656,286.654 82.786,285.798 83.068 C 284.942 83.350,280.739 84.807,276.459 86.307 C 254.081 94.148,244.202 97.588,240.856 98.704 C 237.054 99.971,237.189 99.696,238.304 103.920 C 245.318 130.480,229.950 158.709,203.677 167.529 C 178.035 176.136,149.109 163.391,138.345 138.742 C 137.684 137.229,137.016 135.790,136.860 135.544 C 136.522 135.008,136.162 135.112,125.875 138.733 C 121.809 140.165,117.782 141.563,116.926 141.842 C 116.070 142.120,112.568 143.338,109.144 144.550 C 105.720 145.761,102.218 146.982,101.362 147.263 C 99.895 147.745,92.388 150.359,73.930 156.817 C 69.543 158.352,65.496 159.747,64.938 159.917 C 61.936 160.830,61.885 161.151,64.597 162.086 C 65.985 162.565,70.710 164.210,75.097 165.742 C 79.484 167.274,84.562 169.033,86.381 169.652 C 88.200 170.271,92.228 171.674,95.331 172.770 C 98.434 173.865,101.673 174.995,102.529 175.281 C 104.033 175.782,111.206 178.266,119.261 181.073 C 121.401 181.819,127.267 183.859,132.296 185.607 C 153.595 193.009,159.368 195.018,166.926 197.659 C 171.313 199.193,175.603 200.680,176.459 200.964 C 178.528 201.651,188.460 205.099,192.607 206.570 C 194.426 207.216,199.442 208.961,203.753 210.449 C 213.314 213.749,214.015 214.074,215.787 216.036 C 218.646 219.200,218.461 216.876,218.677 252.335 C 218.869 283.781,218.883 284.266,219.693 285.992 C 223.677 294.487,235.464 294.255,239.434 285.603 C 239.748 284.919,239.939 277.300,240.077 259.922 L 240.272 235.214 241.432 233.121 C 244.448 227.674,249.733 226.320,257.198 229.081 C 260.211 230.196,262.211 230.904,271.790 234.251 C 273.502 234.849,276.741 235.987,278.988 236.780 C 281.235 237.573,284.475 238.707,286.187 239.300 C 287.899 239.892,291.051 240.999,293.191 241.757 C 306.756 246.568,312.968 248.608,313.362 248.379 C 313.610 248.236,314.951 247.236,316.342 246.158 C 348.949 220.881,365.196 183.487,359.151 147.627 C 354.015 117.157,338.263 90.758,316.125 75.521 C 312.906 73.306,313.203 73.385,311.089 74.185 M182.490 85.585 C 163.728 87.774,150.632 108.218,156.432 126.265 C 166.989 159.109,214.373 154.866,218.366 120.720 C 220.771 100.147,203.411 83.144,182.490 85.585 M315.370 105.431 C 318.973 106.994,321.401 110.838,321.401 114.981 C 321.401 124.200,310.544 128.948,303.828 122.666 C 295.153 114.552,304.437 100.688,315.370 105.431 M272.020 147.615 C 281.552 151.023,280.871 165.363,271.063 167.735 C 260.802 170.216,253.748 158.367,260.744 150.399 C 263.317 147.468,268.221 146.257,272.020 147.615 M328.550 154.713 C 331.286 155.645,334.083 158.436,335.029 161.177 C 339.112 173.009,323.047 180.716,316.227 170.197 C 310.917 162.009,319.246 151.543,328.550 154.713 M40.078 193.177 C 40.078 209.417,40.107 210.105,40.820 210.487 C 41.228 210.705,43.811 211.658,46.559 212.604 C 51.433 214.282,61.282 217.705,77.432 223.334 C 81.819 224.863,86.897 226.618,88.716 227.233 C 90.535 227.849,94.562 229.252,97.665 230.351 C 100.768 231.449,104.008 232.580,104.864 232.863 C 106.296 233.336,109.743 234.531,133.852 242.914 C 138.453 244.514,148.872 248.134,157.004 250.957 C 165.136 253.781,173.191 256.587,174.903 257.194 C 176.615 257.800,180.642 259.194,183.852 260.292 C 187.062 261.390,191.089 262.796,192.802 263.416 C 198.079 265.327,197.455 267.340,197.572 248.008 C 197.652 234.879,197.567 231.146,197.183 230.841 C 196.913 230.627,193.628 229.393,189.883 228.099 C 186.138 226.805,179.747 224.583,175.681 223.161 C 171.615 221.739,166.800 220.071,164.981 219.454 C 163.161 218.837,158.084 217.079,153.696 215.547 C 149.309 214.015,143.531 212.003,140.856 211.075 C 138.181 210.147,134.241 208.777,132.101 208.032 C 129.961 207.286,124.183 205.277,119.261 203.567 C 114.339 201.857,106.722 199.207,102.335 197.678 C 97.947 196.148,92.870 194.391,91.051 193.772 C 89.232 193.153,85.204 191.753,82.101 190.661 C 78.998 189.570,74.971 188.169,73.152 187.548 C 71.333 186.928,68.093 185.810,65.953 185.065 C 63.813 184.320,58.560 182.492,54.280 181.003 C 50.000 179.513,45.198 177.838,43.609 177.279 C 42.020 176.721,40.576 176.265,40.399 176.265 C 40.222 176.265,40.078 183.875,40.078 193.177 M295.107 198.211 C 299.522 200.799,301.367 206.719,299.250 211.507 C 294.723 221.743,279.356 218.641,279.287 207.477 C 279.234 199.035,287.875 193.973,295.107 198.211 M357.369 234.339 C 349.794 244.715,338.033 256.624,328.320 263.750 L 325.317 265.953 325.305 312.743 C 325.296 345.100,325.418 359.533,325.699 359.533 C 325.924 359.533,327.932 358.672,330.162 357.620 C 346.694 349.822,355.970 337.051,359.578 317.121 C 360.548 311.763,361.296 230.739,360.375 230.739 C 360.166 230.739,358.814 232.359,357.369 234.339 M40.078 250.075 L 40.078 267.166 43.093 268.194 C 46.089 269.215,54.909 272.281,69.066 277.224 C 73.132 278.644,78.911 280.656,81.907 281.696 C 84.903 282.736,90.681 284.752,94.747 286.175 C 98.813 287.598,103.628 289.267,105.447 289.883 C 107.267 290.499,111.294 291.904,114.397 293.006 C 117.500 294.108,120.564 295.188,121.206 295.406 C 121.848 295.624,123.774 296.294,125.486 296.894 C 127.198 297.494,131.226 298.883,134.436 299.982 C 137.646 301.081,141.936 302.574,143.969 303.300 C 148.594 304.952,151.808 306.077,164.008 310.313 C 169.358 312.171,175.136 314.185,176.848 314.789 C 178.560 315.392,184.339 317.402,189.689 319.255 C 199.035 322.491,200.887 323.138,209.533 326.184 C 211.673 326.938,215.963 328.432,219.066 329.504 C 227.799 332.520,250.419 340.393,253.891 341.625 C 255.603 342.232,261.381 344.249,266.732 346.107 C 272.082 347.965,277.860 349.979,279.572 350.582 C 281.284 351.185,285.574 352.673,289.105 353.888 C 292.636 355.102,296.839 356.584,298.444 357.180 C 300.049 357.776,301.931 358.388,302.626 358.540 L 303.891 358.817 303.891 341.883 C 303.891 330.672,303.755 324.865,303.490 324.701 C 303.269 324.564,299.811 323.313,295.805 321.919 C 288.638 319.426,286.245 318.590,262.716 310.355 C 249.067 305.577,250.340 305.797,247.723 307.773 C 230.826 320.530,204.599 311.214,198.906 290.432 L 198.176 287.768 191.598 285.482 C 187.980 284.225,182.743 282.402,179.961 281.431 C 177.179 280.461,171.488 278.483,167.315 277.037 C 144.320 269.069,138.818 267.157,135.992 266.155 C 134.280 265.547,130.253 264.147,127.043 263.042 C 123.833 261.937,119.805 260.539,118.093 259.935 C 116.381 259.332,114.368 258.629,113.619 258.374 C 111.170 257.540,93.748 251.487,86.187 248.842 C 82.121 247.420,77.305 245.752,75.486 245.135 C 73.667 244.519,69.377 243.026,65.953 241.819 C 62.529 240.611,59.027 239.396,58.171 239.118 C 57.315 238.840,53.288 237.435,49.222 235.996 C 45.156 234.558,41.435 233.291,40.953 233.182 L 40.078 232.983 40.078 250.075 M261.476 267.218 C 261.475 274.869,261.364 282.546,261.229 284.278 L 260.984 287.427 262.496 287.838 C 263.327 288.064,266.809 289.248,270.233 290.470 C 273.658 291.692,277.160 292.924,278.016 293.207 C 278.872 293.490,282.111 294.624,285.214 295.726 C 288.317 296.829,291.556 297.959,292.412 298.237 C 293.268 298.515,295.977 299.464,298.430 300.344 C 300.884 301.225,303.119 301.946,303.396 301.946 C 303.802 301.946,303.880 298.644,303.798 284.924 L 303.696 267.902 302.335 267.440 C 300.247 266.732,281.596 260.204,267.078 255.101 C 264.272 254.114,261.865 253.307,261.728 253.307 C 261.591 253.307,261.478 259.567,261.476 267.218 " stroke="none" fill="#fcfbfb" fill-rule="evenodd"></path></g></svg>