<svg id="svg" version="1.1" xmlns="http://www.w3.org/2000/svg" xmlns:xlink="http://www.w3.org/1999/xlink" width="400" height="355.2870090634441" viewBox="0, 0, 400,355.2870090634441"><g id="svgg"><path id="path0" d="M144.000 174.802 C 128.294 175.897,113.127 183.291,100.950 195.792 C 97.609 199.222,92.102 205.648,92.076 206.147 C 92.068 206.286,91.537 207.014,90.894 207.764 L 89.726 209.129 87.441 208.165 C 79.658 204.883,70.589 205.187,63.691 208.962 C 62.786 209.458,61.244 210.305,60.267 210.844 C 56.363 212.998,54.822 213.839,52.267 215.211 C 40.414 221.574,35.409 228.303,34.600 238.963 C 34.208 244.126,36.415 251.544,42.737 266.311 C 43.483 268.054,43.729 268.668,45.156 272.356 C 45.950 274.409,46.746 276.409,46.924 276.800 C 47.102 277.191,48.469 280.631,49.962 284.444 C 51.454 288.258,52.884 291.858,53.140 292.444 C 53.396 293.031,54.353 295.431,55.267 297.778 C 56.181 300.124,57.075 302.364,57.253 302.756 C 57.432 303.147,58.228 305.147,59.022 307.200 C 59.817 309.253,60.605 311.253,60.775 311.644 C 61.705 313.792,62.262 315.184,63.474 318.400 C 64.211 320.356,64.951 322.108,65.118 322.293 C 65.285 322.479,65.422 322.828,65.422 323.069 C 65.422 324.558,69.023 330.758,71.311 333.209 C 74.211 336.315,80.278 340.260,82.163 340.265 C 82.473 340.266,82.843 340.384,82.987 340.528 C 83.553 341.094,87.477 341.644,91.022 341.653 C 96.965 341.670,100.118 340.659,107.556 336.354 C 108.142 336.014,109.902 335.051,111.467 334.214 C 124.467 327.256,127.843 324.182,130.708 316.695 C 131.247 315.286,131.838 313.933,132.021 313.689 C 132.283 313.338,140.072 313.244,168.873 313.244 C 192.803 313.244,206.118 313.116,207.496 312.871 C 215.019 311.536,218.368 310.567,223.580 308.214 C 224.816 307.656,225.888 307.200,225.962 307.200 C 226.035 307.200,228.784 305.664,232.070 303.786 C 235.356 301.908,238.684 300.010,239.467 299.569 C 242.253 297.998,243.631 297.214,246.154 295.764 C 247.561 294.956,250.471 293.300,252.622 292.083 C 254.773 290.866,257.342 289.393,258.330 288.808 C 259.318 288.224,260.838 287.348,261.708 286.861 C 262.577 286.375,266.889 283.927,271.289 281.422 C 275.689 278.917,280.009 276.466,280.889 275.974 C 281.769 275.482,283.662 274.387,285.096 273.540 C 286.530 272.693,287.757 272.000,287.822 272.000 C 287.888 272.000,289.194 271.258,290.726 270.352 C 292.258 269.445,295.271 267.710,297.422 266.496 C 299.573 265.281,304.438 262.503,308.234 260.322 C 312.029 258.140,315.204 256.356,315.290 256.356 C 315.376 256.356,315.870 256.058,316.390 255.695 C 316.909 255.331,318.293 254.505,319.467 253.859 C 320.640 253.212,322.320 252.287,323.200 251.802 C 324.080 251.317,325.225 250.623,325.744 250.260 C 326.263 249.897,326.760 249.600,326.848 249.600 C 326.937 249.600,328.432 248.774,330.171 247.764 C 331.910 246.754,334.933 245.025,336.889 243.921 C 338.844 242.816,341.084 241.518,341.867 241.035 C 342.649 240.553,343.903 239.842,344.653 239.457 C 352.654 235.346,359.557 219.921,358.066 209.487 C 355.816 193.739,345.756 186.159,323.317 183.306 C 312.978 181.991,303.010 183.005,291.911 186.500 C 287.657 187.839,286.992 188.100,282.795 190.077 C 277.574 192.535,274.087 194.133,273.943 194.133 C 273.862 194.133,272.792 194.592,271.564 195.153 C 270.337 195.714,268.533 196.534,267.556 196.976 C 266.578 197.418,264.606 198.320,263.174 198.979 C 261.742 199.638,260.506 200.178,260.427 200.178 C 260.349 200.178,259.280 200.636,258.053 201.197 C 255.899 202.180,253.752 203.158,250.242 204.753 C 247.743 205.888,247.637 205.829,246.959 202.933 C 244.552 192.664,236.925 184.044,228.089 181.606 C 223.766 180.414,221.340 180.287,198.618 180.067 L 175.548 179.844 172.663 178.826 C 168.807 177.466,165.895 176.742,159.991 175.676 C 156.279 175.006,147.757 174.541,144.000 174.802 M156.622 198.217 C 161.095 199.048,162.808 199.530,169.126 201.734 L 171.673 202.623 196.503 202.871 L 221.333 203.118 222.808 204.638 C 225.718 207.638,225.842 213.602,223.062 216.849 L 221.811 218.311 198.017 218.311 L 174.222 218.311 174.222 229.867 L 174.222 241.422 197.067 241.416 C 219.699 241.410,225.149 241.194,228.118 240.186 C 230.430 239.401,232.935 238.205,234.176 237.293 C 235.189 236.550,236.283 236.005,241.600 233.602 C 242.578 233.159,244.549 232.258,245.982 231.599 C 247.414 230.939,248.650 230.400,248.728 230.400 C 248.807 230.400,249.875 229.941,251.102 229.380 C 252.329 228.820,254.133 227.999,255.111 227.557 C 256.089 227.115,258.061 226.214,259.493 225.554 C 260.925 224.895,262.161 224.356,262.239 224.356 C 262.318 224.356,263.386 223.897,264.613 223.336 C 265.840 222.775,267.644 221.955,268.622 221.513 C 269.600 221.071,271.572 220.169,273.004 219.510 C 274.436 218.851,275.671 218.311,275.749 218.311 C 275.826 218.311,276.815 217.890,277.945 217.374 C 282.575 215.264,284.354 214.455,286.044 213.692 C 287.022 213.251,289.182 212.248,290.844 211.464 C 303.252 205.611,313.878 204.200,325.867 206.816 C 335.111 208.832,337.210 210.883,335.153 215.886 C 334.090 218.469,332.531 220.430,330.794 221.367 C 329.383 222.129,325.341 224.411,315.733 229.873 C 312.702 231.596,308.622 233.916,306.667 235.028 C 304.711 236.139,301.961 237.710,300.554 238.519 C 299.148 239.327,297.468 240.286,296.821 240.650 C 296.174 241.014,292.124 243.318,287.822 245.771 C 283.520 248.223,279.200 250.675,278.222 251.219 C 277.244 251.763,275.271 252.902,273.837 253.749 C 272.403 254.596,271.190 255.289,271.141 255.289 C 271.093 255.289,268.684 256.649,265.788 258.311 C 262.893 259.973,260.479 261.333,260.424 261.333 C 260.369 261.333,258.699 262.293,256.711 263.467 C 254.724 264.640,253.044 265.600,252.978 265.600 C 252.913 265.600,251.686 266.293,250.252 267.140 C 247.671 268.665,246.455 269.353,242.311 271.636 C 241.138 272.283,239.753 273.109,239.234 273.473 C 238.715 273.836,238.221 274.133,238.137 274.133 C 238.053 274.133,235.998 275.272,233.570 276.663 C 231.142 278.054,227.396 280.188,225.244 281.405 C 223.093 282.621,220.693 283.986,219.911 284.436 C 214.690 287.443,210.422 289.132,205.573 290.108 C 204.296 290.365,191.361 290.489,165.880 290.489 L 128.081 290.489 127.551 289.333 C 127.259 288.698,126.506 286.818,125.878 285.156 C 125.249 283.493,124.528 281.653,124.275 281.067 C 124.021 280.480,123.377 278.880,122.843 277.511 C 122.309 276.142,121.739 274.702,121.576 274.311 C 121.414 273.920,120.617 271.920,119.807 269.867 C 118.997 267.813,118.122 265.653,117.863 265.067 C 117.604 264.480,116.725 262.240,115.911 260.089 C 115.097 257.938,114.213 255.698,113.947 255.111 C 112.665 252.283,104.178 230.569,104.178 230.116 C 104.178 228.968,109.111 221.238,112.510 217.062 C 124.980 201.735,140.309 195.187,156.622 198.217 M78.496 229.319 C 78.940 229.689,79.547 230.604,79.845 231.352 C 80.599 233.242,80.910 233.995,81.363 235.022 C 81.579 235.511,82.405 237.591,83.200 239.644 C 83.995 241.698,84.784 243.698,84.954 244.089 C 85.125 244.480,85.698 245.920,86.229 247.289 C 86.760 248.658,87.330 250.098,87.497 250.489 C 87.664 250.880,88.450 252.880,89.244 254.933 C 90.740 258.798,91.013 259.478,91.675 260.978 C 91.890 261.467,92.717 263.547,93.511 265.600 C 94.306 267.653,95.102 269.653,95.280 270.044 C 95.458 270.436,96.352 272.676,97.266 275.022 C 98.180 277.369,99.137 279.769,99.393 280.356 C 99.649 280.942,101.079 284.542,102.572 288.356 C 104.064 292.169,105.431 295.609,105.609 296.000 C 105.787 296.391,106.583 298.391,107.378 300.444 C 108.172 302.498,108.999 304.528,109.215 304.956 C 110.474 307.451,109.534 309.347,106.180 311.072 C 105.372 311.487,103.911 312.278,102.933 312.829 C 101.956 313.379,99.556 314.687,97.600 315.734 C 95.644 316.781,93.564 317.928,92.978 318.284 C 88.860 320.781,88.924 320.894,76.749 289.778 C 75.410 286.356,74.162 283.236,73.975 282.844 C 73.789 282.453,71.619 277.013,69.154 270.756 C 66.688 264.498,64.456 258.898,64.193 258.311 C 63.931 257.724,63.040 255.484,62.214 253.333 C 61.388 251.182,60.508 248.942,60.258 248.356 C 56.682 239.944,56.617 238.923,59.559 237.298 C 59.948 237.083,61.387 236.302,62.756 235.562 C 64.124 234.821,65.724 233.939,66.311 233.600 C 66.898 233.261,68.489 232.383,69.847 231.648 C 71.205 230.913,72.965 229.938,73.758 229.482 C 75.511 228.473,77.404 228.408,78.496 229.319 " stroke="none" fill="#1d2d45" fill-rule="evenodd"></path><path id="path1" d="M251.733 3.557 C 247.618 3.818,246.917 3.912,242.249 4.828 C 217.117 9.761,195.593 27.902,186.307 51.976 C 172.433 87.949,188.369 129.283,222.784 146.591 C 225.730 148.072,226.702 148.518,229.507 149.670 C 240.785 154.303,258.403 156.176,269.878 153.962 C 275.570 152.863,276.510 152.640,280.533 151.428 C 317.249 140.367,340.884 99.784,332.071 62.933 C 323.073 25.310,290.339 1.117,251.733 3.557 M266.942 34.222 C 267.038 39.688,267.059 39.822,267.806 39.822 C 269.959 39.822,277.926 43.077,281.998 45.620 C 282.658 46.032,282.652 46.553,281.967 48.178 C 281.802 48.569,280.511 51.929,279.099 55.644 C 275.967 63.885,276.224 63.521,274.360 62.384 C 265.492 56.974,254.740 55.743,253.140 59.953 C 251.967 63.037,254.549 65.411,262.756 68.793 C 278.696 75.362,285.757 85.134,283.598 97.640 C 282.152 106.022,277.743 111.730,269.689 115.646 C 268.516 116.217,267.316 116.807,267.022 116.958 C 266.590 117.180,266.455 118.404,266.311 123.416 L 266.133 129.600 257.422 129.600 L 248.711 129.600 248.533 124.028 C 248.436 120.964,248.276 118.392,248.178 118.313 C 248.080 118.234,246.800 117.887,245.333 117.543 C 240.488 116.406,232.928 112.882,230.795 110.766 C 230.311 110.285,231.825 105.507,235.221 96.796 C 235.698 95.572,236.089 94.327,236.089 94.030 C 236.089 92.967,237.141 93.119,239.177 94.475 C 249.006 101.024,260.131 102.211,262.792 96.995 C 264.817 93.027,261.907 89.850,253.054 86.360 C 239.087 80.855,232.533 73.359,232.533 62.888 C 232.533 53.664,236.797 46.748,244.996 42.672 C 246.648 41.851,248.240 41.056,248.533 40.907 C 248.967 40.685,249.084 39.583,249.159 34.984 C 249.209 31.876,249.326 29.130,249.417 28.883 C 249.546 28.532,251.499 28.453,258.213 28.527 L 266.844 28.622 266.942 34.222 " stroke="none" fill="#fc1c1c" fill-rule="evenodd"></path><path id="path2" d="M0.000 177.778 L 0.000 355.556 200.000 355.556 L 400.000 355.556 400.000 177.778 L 400.000 0.000 200.000 0.000 L 0.000 0.000 0.000 177.778 M270.400 4.063 C 290.525 7.954,306.570 17.667,318.445 33.150 C 323.535 39.787,329.163 50.630,330.674 56.711 C 330.820 57.298,331.261 58.978,331.654 60.444 C 335.635 75.295,334.557 92.183,328.687 106.950 C 326.043 113.600,322.607 119.668,318.276 125.330 C 314.810 129.861,311.516 133.292,307.022 137.048 C 265.271 171.957,201.924 154.165,184.761 102.710 C 183.914 100.171,183.017 96.633,182.075 92.116 C 180.815 86.074,180.812 72.152,182.070 66.127 C 184.582 54.097,187.738 46.224,193.630 37.288 C 206.086 18.397,227.439 5.477,249.600 3.422 C 253.270 3.082,267.612 3.523,270.400 4.063 M249.520 34.755 L 249.422 40.711 248.178 41.313 C 243.796 43.434,242.823 43.985,241.067 45.342 C 234.962 50.060,231.862 57.613,232.869 65.311 C 234.088 74.620,239.821 80.529,252.978 86.035 C 262.494 90.017,265.349 93.405,262.742 97.622 C 260.299 101.576,250.917 101.430,243.556 97.324 C 240.465 95.601,239.050 94.753,238.263 94.155 C 237.035 93.222,236.643 93.349,236.131 94.844 C 235.321 97.214,233.907 101.136,233.600 101.867 C 233.436 102.258,232.877 103.778,232.359 105.244 C 231.840 106.711,231.267 108.279,231.086 108.728 C 230.518 110.132,230.700 110.472,232.741 111.827 C 236.685 114.445,241.741 116.561,246.211 117.464 L 248.356 117.897 248.533 123.571 L 248.711 129.244 257.333 129.340 L 265.956 129.435 265.961 123.473 C 265.967 116.918,265.955 116.964,267.733 116.282 C 277.717 112.448,283.470 104.239,283.470 93.825 C 283.470 83.195,277.707 75.671,265.422 70.261 C 253.055 64.815,250.994 63.005,253.146 59.476 C 255.501 55.614,264.032 56.493,273.345 61.557 L 275.934 62.964 276.499 61.616 C 279.783 53.774,282.319 46.434,281.890 46.015 C 281.267 45.407,277.472 43.296,275.911 42.688 C 275.227 42.422,274.187 42.007,273.600 41.766 C 272.503 41.314,269.377 40.399,267.644 40.022 L 266.667 39.809 266.667 34.304 L 266.667 28.800 258.142 28.800 L 249.617 28.800 249.520 34.755 M158.639 174.916 C 159.485 175.109,161.538 175.522,163.200 175.834 C 164.862 176.146,166.622 176.535,167.111 176.698 C 167.600 176.860,168.960 177.263,170.133 177.592 C 172.402 178.228,173.954 178.732,175.111 179.209 C 175.502 179.370,186.302 179.589,199.111 179.694 C 221.075 179.875,225.623 180.078,227.733 180.972 C 228.124 181.137,229.284 181.558,230.311 181.907 C 231.338 182.255,232.178 182.669,232.178 182.826 C 232.178 182.983,232.391 183.111,232.652 183.111 C 233.517 183.111,237.299 185.983,239.601 188.387 C 243.468 192.427,245.925 196.954,247.330 202.631 C 247.649 203.922,247.959 205.032,248.017 205.099 C 248.122 205.218,251.245 203.863,257.013 201.195 C 258.646 200.440,260.055 199.822,260.144 199.822 C 260.233 199.822,261.057 199.481,261.975 199.064 C 262.893 198.646,264.524 197.906,265.600 197.417 C 266.676 196.929,268.727 195.990,270.159 195.331 C 271.591 194.672,272.817 194.133,272.883 194.133 C 273.038 194.133,277.775 191.960,281.422 190.216 C 282.987 189.468,285.147 188.507,286.222 188.080 C 287.298 187.653,288.498 187.173,288.889 187.013 C 289.941 186.582,292.580 185.733,294.400 185.240 C 295.280 185.002,296.400 184.679,296.889 184.523 C 297.378 184.367,299.378 183.976,301.333 183.654 C 303.289 183.333,305.756 182.919,306.815 182.735 C 309.331 182.297,320.643 182.303,323.179 182.743 C 324.266 182.932,326.676 183.347,328.533 183.665 C 333.553 184.526,337.895 185.737,341.767 187.355 C 348.288 190.080,356.622 198.218,356.622 201.860 C 356.622 202.114,356.775 202.599,356.962 202.938 C 359.068 206.762,358.964 216.988,356.752 223.644 C 356.019 225.852,353.030 231.822,352.659 231.822 C 352.492 231.822,352.356 232.027,352.356 232.278 C 352.356 233.246,346.772 238.752,344.494 240.031 C 343.245 240.733,338.382 243.517,333.689 246.218 C 324.879 251.289,324.237 251.655,321.244 253.312 C 320.267 253.854,319.307 254.418,319.111 254.567 C 318.916 254.716,318.010 255.248,317.098 255.750 C 316.187 256.251,313.387 257.846,310.876 259.293 C 308.365 260.741,305.591 262.332,304.711 262.829 C 303.831 263.326,301.961 264.391,300.554 265.194 C 299.148 265.998,297.468 266.956,296.821 267.323 C 296.174 267.690,294.221 268.813,292.482 269.818 C 290.743 270.822,289.248 271.644,289.159 271.644 C 289.071 271.644,288.574 271.942,288.055 272.305 C 287.536 272.668,286.391 273.362,285.511 273.846 C 284.631 274.331,282.951 275.259,281.778 275.909 C 280.604 276.559,279.324 277.265,278.933 277.479 C 278.542 277.692,278.142 277.947,278.044 278.044 C 277.946 278.142,277.306 278.523,276.622 278.890 C 275.166 279.671,274.505 280.047,268.508 283.504 C 262.852 286.765,260.863 287.892,258.844 288.982 C 257.964 289.457,257.084 289.969,256.889 290.120 C 256.693 290.271,255.813 290.791,254.933 291.276 C 253.585 292.020,249.316 294.435,243.911 297.512 C 243.227 297.902,242.107 298.521,241.422 298.888 C 240.738 299.255,240.098 299.636,240.000 299.733 C 239.902 299.831,239.502 300.086,239.111 300.299 C 238.125 300.837,234.369 302.918,233.001 303.683 C 232.378 304.032,231.258 304.699,230.512 305.165 C 228.617 306.350,221.644 309.689,221.065 309.689 C 220.802 309.689,220.435 309.817,220.249 309.973 C 219.893 310.272,217.324 311.132,214.933 311.752 C 214.151 311.955,212.852 312.294,212.047 312.505 C 207.894 313.594,203.699 313.723,168.089 313.849 L 131.911 313.978 131.911 314.729 C 131.911 315.802,129.549 320.571,127.980 322.667 C 125.000 326.647,121.827 329.160,115.556 332.508 C 113.893 333.395,110.213 335.394,107.378 336.949 C 97.635 342.293,88.831 343.697,82.489 340.917 C 82.000 340.702,81.280 340.408,80.889 340.263 C 76.368 338.587,72.047 335.251,69.148 331.200 C 67.070 328.295,65.845 325.587,60.626 312.356 C 58.158 306.098,56.004 300.658,55.839 300.267 C 54.946 298.149,54.461 296.941,54.056 295.822 C 53.808 295.138,53.304 293.900,52.936 293.071 C 52.568 292.242,52.267 291.466,52.267 291.346 C 52.267 291.227,52.039 290.626,51.760 290.009 C 51.481 289.393,50.502 286.969,49.585 284.622 C 48.667 282.276,47.717 279.876,47.473 279.289 C 47.229 278.702,46.746 277.502,46.400 276.622 C 46.054 275.742,45.566 274.542,45.317 273.956 C 45.068 273.369,44.351 271.529,43.722 269.867 C 42.690 267.135,42.145 265.782,41.219 263.644 C 41.050 263.253,40.261 261.253,39.467 259.200 C 38.672 257.147,37.883 255.147,37.714 254.756 C 36.694 252.401,36.306 251.421,35.955 250.311 C 35.738 249.627,35.327 248.321,35.040 247.410 C 33.930 243.879,34.068 233.766,35.237 233.044 C 35.412 232.936,35.556 232.541,35.556 232.167 C 35.556 228.970,41.435 221.308,46.236 218.249 C 48.119 217.049,49.209 216.429,54.400 213.606 C 55.671 212.914,57.591 211.846,58.667 211.232 C 69.915 204.810,78.664 203.740,87.421 207.715 C 88.667 208.280,89.721 208.696,89.763 208.638 C 102.128 191.704,113.877 182.339,129.067 177.309 C 132.766 176.084,139.349 174.664,142.400 174.432 C 145.436 174.202,157.019 174.547,158.639 174.916 M142.400 198.397 C 128.843 200.695,113.635 212.552,106.504 226.383 C 106.121 227.126,105.500 228.187,105.124 228.742 C 104.453 229.733,104.669 231.655,105.609 233.067 C 105.740 233.262,106.451 235.022,107.190 236.978 C 107.929 238.933,108.753 241.053,109.022 241.689 C 109.291 242.324,109.731 243.364,110.000 244.000 C 110.269 244.636,111.167 246.916,111.994 249.067 C 112.822 251.218,113.777 253.618,114.116 254.400 C 114.455 255.182,114.936 256.382,115.186 257.067 C 115.435 257.751,115.842 258.791,116.091 259.378 C 116.339 259.964,117.130 261.964,117.849 263.822 C 118.568 265.680,119.292 267.520,119.458 267.911 C 119.625 268.302,120.589 270.702,121.600 273.244 C 122.611 275.787,123.571 278.187,123.732 278.578 C 123.893 278.969,124.115 279.529,124.226 279.822 C 124.337 280.116,125.275 282.516,126.311 285.156 L 128.194 289.956 165.164 290.065 C 192.247 290.145,202.799 290.063,204.622 289.758 C 207.525 289.271,211.223 288.354,211.733 287.993 C 211.929 287.855,212.489 287.645,212.978 287.526 C 213.744 287.340,217.815 285.166,222.756 282.304 C 223.538 281.851,224.898 281.091,225.778 280.615 C 226.658 280.138,228.418 279.143,229.689 278.403 C 230.960 277.663,232.560 276.739,233.244 276.350 C 233.929 275.961,235.529 275.047,236.800 274.320 C 238.901 273.117,240.755 272.076,244.267 270.126 C 244.951 269.746,245.671 269.314,245.867 269.165 C 246.062 269.016,247.182 268.367,248.356 267.722 C 252.210 265.605,252.974 265.172,253.333 264.898 C 253.529 264.749,254.649 264.100,255.822 263.456 C 256.996 262.811,258.436 262.016,259.022 261.689 C 259.609 261.362,261.049 260.567,262.222 259.922 C 263.396 259.278,264.516 258.629,264.711 258.480 C 265.071 258.206,265.834 257.773,269.689 255.655 C 270.862 255.011,271.982 254.362,272.178 254.213 C 272.373 254.064,273.173 253.584,273.956 253.146 C 276.292 251.839,283.100 247.996,284.554 247.164 C 285.299 246.737,287.059 245.727,288.466 244.919 C 289.872 244.112,292.782 242.455,294.933 241.239 C 297.084 240.022,299.404 238.706,300.089 238.313 C 300.773 237.921,302.484 236.942,303.890 236.139 C 306.451 234.676,306.817 234.466,311.111 232.009 C 313.212 230.806,315.066 229.765,318.578 227.815 C 319.262 227.435,319.982 227.002,320.178 226.854 C 320.373 226.705,321.493 226.056,322.667 225.411 C 332.456 220.034,332.821 219.761,334.373 216.659 C 336.955 211.502,335.389 209.635,326.578 207.365 C 320.451 205.787,309.934 205.759,303.644 207.305 C 300.733 208.020,298.091 208.793,297.516 209.096 C 297.176 209.276,296.737 209.422,296.541 209.422 C 296.344 209.422,294.542 210.197,292.536 211.145 C 290.530 212.092,288.329 213.119,287.644 213.425 C 285.292 214.479,282.129 215.917,279.530 217.113 C 278.098 217.772,276.862 218.311,276.785 218.311 C 276.707 218.311,275.719 218.733,274.588 219.248 C 270.452 221.134,268.227 222.146,266.489 222.933 C 265.511 223.376,263.707 224.197,262.480 224.758 C 261.253 225.319,260.185 225.778,260.106 225.778 C 260.027 225.778,258.791 226.317,257.359 226.977 C 255.927 227.636,253.956 228.537,252.978 228.979 C 252.000 229.421,250.196 230.242,248.969 230.803 C 247.742 231.363,246.673 231.822,246.595 231.822 C 246.516 231.822,245.200 232.397,243.670 233.100 C 242.141 233.803,239.878 234.843,238.642 235.411 C 237.406 235.980,236.301 236.444,236.187 236.444 C 236.072 236.444,235.437 236.857,234.776 237.362 C 233.336 238.460,229.957 240.017,227.022 240.933 C 225.020 241.559,223.326 241.600,199.467 241.600 L 174.044 241.600 173.951 229.956 L 173.857 218.311 197.174 218.311 C 214.145 218.311,220.703 218.199,221.268 217.900 C 225.975 215.406,225.656 205.051,220.831 203.735 C 220.086 203.532,209.717 203.325,195.911 203.239 C 171.167 203.085,171.400 203.100,166.400 201.311 C 164.738 200.716,162.338 199.969,161.067 199.650 C 159.796 199.332,158.196 198.911,157.511 198.715 C 155.876 198.247,144.676 198.011,142.400 198.397 M72.872 230.503 C 69.118 232.484,67.632 233.319,65.808 234.470 C 65.017 234.969,64.304 235.378,64.223 235.378 C 64.143 235.378,62.786 236.104,61.207 236.991 C 57.281 239.199,57.177 240.138,60.135 246.693 C 60.516 247.538,60.922 248.698,61.036 249.271 C 61.151 249.843,61.384 250.311,61.556 250.311 C 61.727 250.311,61.867 250.622,61.867 251.001 C 61.867 251.381,62.014 251.783,62.195 251.894 C 62.375 252.006,62.636 252.610,62.773 253.237 C 62.911 253.864,63.145 254.622,63.293 254.922 C 63.440 255.221,63.729 255.867,63.934 256.356 C 64.973 258.829,65.521 260.156,65.771 260.800 C 66.974 263.890,67.354 264.846,67.749 265.778 C 67.998 266.364,68.716 268.204,69.344 269.867 C 69.973 271.529,70.707 273.409,70.977 274.044 C 72.001 276.460,72.441 277.550,72.878 278.756 C 73.126 279.440,73.630 280.678,73.998 281.507 C 74.366 282.336,74.667 283.112,74.667 283.231 C 74.667 283.351,74.923 284.032,75.236 284.746 C 75.550 285.460,75.930 286.364,76.083 286.756 C 77.326 289.952,77.691 290.854,78.271 292.174 C 78.635 293.003,78.933 293.779,78.933 293.898 C 78.933 294.104,79.164 294.659,80.491 297.654 C 80.808 298.368,81.067 299.130,81.067 299.347 C 81.067 299.565,81.213 300.021,81.392 300.360 C 81.999 301.511,82.787 303.460,83.259 304.978 C 83.517 305.809,83.850 306.489,83.998 306.489 C 84.146 306.489,84.267 306.723,84.267 307.010 C 84.267 307.297,84.529 308.137,84.849 308.877 C 85.170 309.617,85.553 310.542,85.702 310.933 C 85.850 311.324,86.228 312.229,86.542 312.943 C 86.855 313.657,87.111 314.412,87.111 314.621 C 87.111 316.004,89.282 318.543,90.489 318.572 C 91.105 318.587,94.789 316.951,95.289 316.441 C 95.387 316.341,96.987 315.478,98.844 314.522 C 100.702 313.567,103.102 312.303,104.178 311.714 C 105.253 311.125,106.453 310.468,106.844 310.255 C 109.197 308.971,109.763 307.210,108.652 304.634 C 107.613 302.225,107.062 300.865,105.444 296.711 C 104.530 294.364,103.636 292.124,103.458 291.733 C 103.279 291.342,102.483 289.342,101.689 287.289 C 100.894 285.236,100.089 283.196,99.900 282.756 C 99.711 282.316,99.403 281.596,99.217 281.156 C 99.031 280.716,96.860 275.236,94.392 268.978 C 91.925 262.720,89.691 257.120,89.430 256.533 C 89.168 255.947,88.439 254.107,87.811 252.444 C 86.785 249.731,86.304 248.532,85.311 246.222 C 84.287 243.842,79.644 231.868,79.643 231.606 C 79.629 229.078,76.530 228.573,72.872 230.503 " stroke="none" fill="#fbfbfb" fill-rule="evenodd"></path><path id="path3" d="M251.992 3.457 C 252.623 3.535,253.743 3.536,254.481 3.459 C 255.219 3.383,254.702 3.318,253.333 3.317 C 251.964 3.315,251.361 3.378,251.992 3.457 M260.170 3.457 C 260.801 3.535,261.921 3.536,262.659 3.459 C 263.396 3.383,262.880 3.318,261.511 3.317 C 260.142 3.315,259.539 3.378,260.170 3.457 M247.200 3.801 C 247.542 3.890,248.102 3.890,248.444 3.801 C 248.787 3.711,248.507 3.638,247.822 3.638 C 247.138 3.638,246.858 3.711,247.200 3.801 M265.985 3.689 C 266.067 3.762,267.093 3.911,268.267 4.020 C 269.669 4.151,270.035 4.120,269.333 3.929 C 268.237 3.632,265.721 3.451,265.985 3.689 M241.600 4.622 C 240.642 4.866,240.624 4.894,241.422 4.900 C 241.911 4.904,242.711 4.779,243.200 4.622 C 244.395 4.240,243.104 4.240,241.600 4.622 M237.333 5.689 C 236.885 5.881,236.819 5.994,237.156 5.994 C 237.449 5.994,238.009 5.857,238.400 5.689 C 238.848 5.496,238.914 5.383,238.578 5.383 C 238.284 5.383,237.724 5.521,237.333 5.689 M275.941 5.461 C 276.022 5.531,276.569 5.696,277.156 5.827 C 277.935 6.002,278.078 5.969,277.689 5.705 C 277.209 5.380,275.584 5.153,275.941 5.461 M279.289 6.400 C 279.680 6.568,280.240 6.706,280.533 6.706 C 280.870 6.706,280.804 6.593,280.356 6.400 C 279.964 6.232,279.404 6.094,279.111 6.094 C 278.775 6.094,278.841 6.207,279.289 6.400 M284.119 7.957 C 284.448 8.257,289.564 10.288,289.684 10.167 C 289.756 10.096,288.617 9.539,287.154 8.930 C 284.732 7.921,283.724 7.598,284.119 7.957 M222.489 11.401 C 221.364 11.981,220.444 12.536,220.444 12.633 C 220.444 12.730,221.404 12.326,222.578 11.733 C 223.751 11.141,224.711 10.579,224.711 10.484 C 224.711 10.247,224.777 10.220,222.489 11.401 M216.889 14.610 C 216.298 15.092,216.239 15.213,216.711 14.969 C 217.871 14.370,218.514 13.877,218.133 13.880 C 217.938 13.881,217.378 14.210,216.889 14.610 M297.577 14.510 C 298.052 14.897,298.932 15.483,299.532 15.814 L 300.622 16.415 299.757 15.712 C 299.281 15.326,298.401 14.739,297.801 14.408 L 296.711 13.807 297.577 14.510 M213.892 16.540 C 212.928 17.207,211.888 18.013,211.581 18.333 C 211.274 18.652,212.102 18.165,213.422 17.251 C 214.742 16.337,215.822 15.522,215.822 15.439 C 215.822 15.211,215.772 15.240,213.892 16.540 M303.289 18.225 C 303.289 18.308,304.609 19.452,306.222 20.768 C 307.836 22.084,308.436 22.492,307.556 21.674 C 305.715 19.965,303.289 18.003,303.289 18.225 M204.524 24.444 L 199.931 28.978 204.054 25.093 C 206.322 22.957,208.493 20.917,208.879 20.560 C 209.265 20.203,209.476 19.911,209.349 19.911 C 209.221 19.911,207.050 21.951,204.524 24.444 M310.400 24.289 C 310.400 24.350,310.920 24.870,311.556 25.445 L 312.711 26.489 311.667 25.333 C 310.693 24.256,310.400 24.014,310.400 24.289 M313.969 27.999 C 313.977 28.146,314.817 29.153,315.836 30.236 C 317.788 32.310,317.496 31.796,315.273 29.243 C 314.548 28.412,313.962 27.852,313.969 27.999 M249.488 28.675 C 249.354 28.809,249.244 31.500,249.244 34.655 C 249.244 38.741,249.117 40.534,248.800 40.890 C 248.422 41.314,248.448 41.318,248.978 40.917 C 249.526 40.502,249.600 39.753,249.600 34.623 L 249.600 28.800 258.124 28.800 L 266.649 28.800 266.761 34.311 L 266.872 39.823 266.858 34.223 L 266.844 28.622 258.288 28.527 C 253.581 28.475,249.621 28.542,249.488 28.675 M198.555 30.667 L 197.511 31.822 198.667 30.778 C 199.302 30.204,199.822 29.684,199.822 29.622 C 199.822 29.348,199.529 29.590,198.555 30.667 M196.928 32.622 C 195.905 33.857,195.472 34.489,195.648 34.489 C 195.746 34.489,196.254 33.929,196.776 33.244 C 197.745 31.974,197.862 31.495,196.928 32.622 M320.202 35.911 C 321.804 38.242,322.471 38.992,321.626 37.511 C 321.291 36.924,320.531 35.884,319.938 35.200 C 319.068 34.197,319.119 34.334,320.202 35.911 M194.211 36.356 C 192.913 38.272,192.632 38.756,192.818 38.756 C 192.899 38.756,193.550 37.876,194.264 36.800 C 194.979 35.724,195.489 34.844,195.398 34.844 C 195.308 34.844,194.774 35.524,194.211 36.356 M192.136 39.556 C 190.912 41.632,190.832 41.809,191.455 41.067 C 192.177 40.206,192.800 39.111,192.567 39.111 C 192.474 39.111,192.280 39.311,192.136 39.556 M267.407 39.949 C 267.489 40.019,268.116 40.178,268.800 40.304 C 269.676 40.465,269.886 40.429,269.511 40.183 C 269.029 39.867,267.055 39.647,267.407 39.949 M270.933 40.889 C 271.227 41.078,271.707 41.234,272.000 41.234 C 272.474 41.234,272.474 41.195,272.000 40.889 C 271.707 40.699,271.227 40.544,270.933 40.544 C 270.459 40.544,270.459 40.583,270.933 40.889 M246.844 41.611 C 245.654 42.090,245.876 42.333,247.111 41.902 C 247.698 41.698,248.178 41.466,248.178 41.387 C 248.178 41.177,247.745 41.249,246.844 41.611 M273.067 41.450 C 273.067 41.690,274.914 42.360,275.090 42.184 C 275.170 42.104,274.748 41.868,274.151 41.660 C 273.555 41.452,273.067 41.357,273.067 41.450 M325.405 44.614 C 325.830 45.490,326.240 46.146,326.314 46.071 C 326.475 45.910,325.038 43.022,324.797 43.022 C 324.706 43.022,324.980 43.739,325.405 44.614 M189.138 44.834 C 188.729 45.636,188.456 46.352,188.530 46.427 C 188.605 46.501,189.014 45.846,189.439 44.970 C 190.408 42.975,190.146 42.858,189.138 44.834 M241.339 44.832 L 240.178 45.931 241.511 44.968 C 242.244 44.438,242.844 43.943,242.844 43.869 C 242.844 43.538,242.419 43.810,241.339 44.832 M280.533 44.891 C 280.533 44.963,281.013 45.377,281.600 45.810 C 282.187 46.244,282.667 46.469,282.667 46.310 C 282.667 46.150,282.187 45.736,281.600 45.390 C 281.013 45.043,280.533 44.819,280.533 44.891 M238.759 46.930 C 238.199 47.514,237.809 48.049,237.893 48.119 C 237.976 48.188,238.500 47.710,239.057 47.056 C 240.315 45.579,240.129 45.500,238.759 46.930 M280.217 51.951 C 279.998 52.579,279.881 53.155,279.957 53.231 C 280.033 53.307,280.275 52.856,280.494 52.227 C 280.713 51.599,280.830 51.022,280.754 50.946 C 280.678 50.870,280.436 51.322,280.217 51.951 M330.173 56.000 C 330.465 57.307,330.668 57.591,330.661 56.681 C 330.658 56.307,330.493 55.760,330.295 55.467 C 330.031 55.077,329.998 55.221,330.173 56.000 M278.440 56.573 C 278.220 57.201,278.103 57.778,278.180 57.854 C 278.256 57.930,278.497 57.478,278.716 56.849 C 278.935 56.221,279.052 55.645,278.976 55.569 C 278.900 55.493,278.659 55.944,278.440 56.573 M232.761 58.030 C 232.641 58.478,232.561 59.404,232.583 60.089 C 232.613 61.039,232.689 60.871,232.905 59.379 C 233.202 57.326,233.130 56.651,232.761 58.030 M256.444 57.490 C 256.787 57.579,257.347 57.579,257.689 57.490 C 258.031 57.400,257.751 57.327,257.067 57.327 C 256.382 57.327,256.102 57.400,256.444 57.490 M260.296 57.372 C 260.378 57.443,261.324 57.590,262.400 57.700 C 263.617 57.823,264.087 57.785,263.644 57.597 C 262.963 57.307,259.990 57.108,260.296 57.372 M265.244 58.311 C 265.538 58.501,266.018 58.656,266.311 58.656 C 266.785 58.656,266.785 58.617,266.311 58.311 C 266.018 58.122,265.538 57.966,265.244 57.966 C 264.770 57.966,264.770 58.005,265.244 58.311 M183.333 60.133 C 183.037 61.615,183.324 61.903,183.644 60.444 C 183.779 59.830,183.816 59.253,183.725 59.162 C 183.635 59.072,183.458 59.509,183.333 60.133 M252.660 60.296 C 252.360 61.078,252.390 62.503,252.711 62.699 C 252.858 62.789,252.982 62.158,252.987 61.298 C 252.998 59.563,252.972 59.484,252.660 60.296 M331.783 61.867 C 331.783 62.160,331.921 62.720,332.089 63.111 C 332.281 63.559,332.394 63.625,332.394 63.289 C 332.394 62.996,332.257 62.436,332.089 62.044 C 331.896 61.596,331.783 61.530,331.783 61.867 M276.138 62.400 C 275.963 62.855,275.767 62.889,275.116 62.573 C 274.341 62.198,274.337 62.204,275.006 62.739 C 275.690 63.287,277.146 62.627,276.556 62.038 C 276.445 61.927,276.257 62.090,276.138 62.400 M182.578 63.289 C 182.443 63.904,182.406 64.481,182.497 64.571 C 182.588 64.662,182.764 64.225,182.889 63.600 C 183.185 62.118,182.898 61.831,182.578 63.289 M253.868 64.127 C 254.746 65.132,257.980 67.196,258.667 67.190 C 258.862 67.189,258.143 66.703,257.069 66.111 C 255.995 65.519,254.636 64.602,254.048 64.073 L 252.980 63.111 253.868 64.127 M232.558 65.452 C 232.572 66.316,232.717 67.342,232.880 67.733 C 233.059 68.163,233.100 67.599,232.984 66.311 C 232.751 63.742,232.524 63.283,232.558 65.452 M332.883 67.378 C 332.884 67.964,333.006 68.924,333.156 69.511 C 333.532 70.990,333.548 69.534,333.176 67.733 C 332.929 66.538,332.882 66.481,332.883 67.378 M181.547 69.547 C 181.413 70.847,181.377 71.984,181.465 72.073 C 181.554 72.161,181.740 71.174,181.879 69.879 C 182.017 68.583,182.054 67.446,181.960 67.352 C 181.866 67.258,181.680 68.246,181.547 69.547 M263.870 69.500 C 264.169 69.799,266.667 70.770,266.667 70.587 C 266.667 70.490,266.087 70.167,265.379 69.871 C 264.067 69.323,263.572 69.201,263.870 69.500 M333.644 79.111 C 333.645 85.229,333.673 85.546,333.945 82.468 C 334.110 80.599,334.109 77.559,333.944 75.713 C 333.673 72.688,333.644 73.025,333.644 79.111 M235.511 73.867 C 236.237 75.267,238.710 77.994,240.457 79.320 C 241.366 80.009,241.087 79.661,239.750 78.437 C 238.537 77.326,237.030 75.623,236.401 74.653 C 235.146 72.716,234.719 72.338,235.511 73.867 M271.644 73.355 C 271.644 73.438,272.324 73.955,273.156 74.504 C 273.987 75.053,275.561 76.314,276.655 77.306 C 277.837 78.379,277.675 78.173,276.258 76.800 C 274.188 74.795,271.644 72.896,271.644 73.355 M181.114 79.111 C 181.114 81.458,181.172 82.372,181.241 81.142 C 181.311 79.912,181.310 77.992,181.240 76.875 C 181.170 75.758,181.113 76.764,181.114 79.111 M279.466 80.622 C 279.931 81.258,280.367 81.778,280.435 81.778 C 280.705 81.778,279.823 80.444,279.240 79.971 C 278.856 79.659,278.942 79.907,279.466 80.622 M242.489 80.798 C 243.152 81.438,245.689 82.966,245.689 82.726 C 245.689 82.629,244.849 82.040,243.822 81.417 C 242.796 80.794,242.196 80.516,242.489 80.798 M281.538 84.250 C 281.865 85.023,282.183 85.514,282.244 85.341 C 282.356 85.021,281.345 82.844,281.084 82.844 C 281.006 82.844,281.210 83.477,281.538 84.250 M250.359 85.144 C 250.658 85.443,253.156 86.414,253.156 86.232 C 253.156 86.134,252.576 85.812,251.868 85.516 C 250.556 84.968,250.061 84.846,250.359 85.144 M181.577 88.356 C 181.687 89.724,181.837 90.911,181.910 90.993 C 182.158 91.266,182.007 88.726,181.690 87.289 C 181.450 86.196,181.424 86.443,181.577 88.356 M332.964 89.764 C 332.827 90.865,332.791 91.843,332.885 91.937 C 332.979 92.030,333.162 91.201,333.292 90.092 C 333.423 88.984,333.458 88.006,333.372 87.920 C 333.285 87.833,333.102 88.663,332.964 89.764 M261.554 91.007 C 262.164 91.700,262.839 92.587,263.054 92.978 C 263.269 93.369,263.450 93.480,263.456 93.224 C 263.462 92.968,262.787 92.081,261.956 91.253 C 260.936 90.238,260.805 90.158,261.554 91.007 M283.528 94.222 C 283.528 97.805,283.565 98.058,283.825 96.267 C 283.989 95.142,283.989 93.302,283.825 92.178 C 283.565 90.386,283.528 90.639,283.528 94.222 M236.212 93.704 C 236.096 94.006,236.101 94.353,236.223 94.475 C 236.345 94.597,236.444 94.411,236.444 94.062 C 236.444 93.603,236.641 93.480,237.156 93.614 C 237.547 93.717,237.778 93.655,237.668 93.478 C 237.351 92.964,236.442 93.105,236.212 93.704 M182.460 94.044 C 182.455 94.436,182.587 95.076,182.756 95.467 C 183.145 96.373,183.145 95.438,182.756 94.222 C 182.527 93.508,182.469 93.473,182.460 94.044 M331.956 95.333 C 331.659 96.815,331.946 97.103,332.267 95.644 C 332.402 95.030,332.438 94.453,332.347 94.362 C 332.257 94.272,332.080 94.709,331.956 95.333 M183.172 97.067 C 183.190 97.991,183.749 99.508,183.762 98.667 C 183.768 98.276,183.635 97.636,183.467 97.244 C 183.279 96.809,183.165 96.740,183.172 97.067 M331.225 98.337 C 331.095 98.858,331.056 99.352,331.140 99.436 C 331.224 99.520,331.399 99.162,331.530 98.641 C 331.661 98.120,331.699 97.625,331.616 97.541 C 331.532 97.458,331.356 97.815,331.225 98.337 M246.044 98.429 C 246.338 98.610,246.978 98.865,247.467 98.996 C 248.084 99.161,248.193 99.133,247.822 98.904 C 247.529 98.723,246.889 98.468,246.400 98.337 C 245.782 98.172,245.674 98.200,246.044 98.429 M260.800 99.031 C 260.018 99.513,259.519 99.908,259.691 99.909 C 260.056 99.911,262.400 98.503,262.400 98.282 C 262.400 98.056,262.330 98.089,260.800 99.031 M282.844 99.911 C 282.709 100.526,282.673 101.103,282.764 101.193 C 282.854 101.284,283.031 100.847,283.156 100.222 C 283.452 98.740,283.165 98.453,282.844 99.911 M255.467 100.267 L 252.622 100.492 255.289 100.532 C 256.756 100.554,258.276 100.435,258.667 100.267 C 259.059 100.098,259.139 99.979,258.844 100.001 C 258.551 100.023,257.031 100.143,255.467 100.267 M185.804 105.600 C 185.935 106.089,186.190 106.729,186.371 107.022 C 186.600 107.393,186.628 107.284,186.463 106.667 C 186.332 106.178,186.077 105.538,185.896 105.244 C 185.667 104.874,185.639 104.982,185.804 105.600 M276.806 110.341 C 275.245 111.938,274.605 112.739,275.384 112.122 C 276.708 111.072,277.650 110.115,279.265 108.178 C 280.534 106.656,279.633 107.449,276.806 110.341 M230.428 109.931 C 230.413 110.260,230.920 110.873,231.556 111.294 L 232.711 112.059 231.780 111.229 C 231.268 110.773,230.760 110.160,230.652 109.867 C 230.492 109.432,230.451 109.444,230.428 109.931 M325.763 112.900 C 325.139 114.165,324.705 115.200,324.798 115.200 C 325.036 115.200,327.186 110.890,327.027 110.731 C 326.956 110.659,326.387 111.635,325.763 112.900 M188.444 111.777 C 188.444 112.161,189.857 114.844,190.059 114.844 C 190.157 114.844,189.894 114.164,189.475 113.333 C 188.650 111.699,188.444 111.388,188.444 111.777 M240.000 115.851 C 240.293 116.032,240.933 116.288,241.422 116.418 C 242.040 116.584,242.148 116.556,241.778 116.327 C 241.484 116.145,240.844 115.890,240.356 115.759 C 239.738 115.594,239.629 115.622,240.000 115.851 M268.267 116.101 C 267.373 116.532,267.344 116.580,268.089 116.401 C 268.578 116.283,269.130 116.045,269.316 115.871 C 269.776 115.441,269.523 115.496,268.267 116.101 M323.780 116.711 L 323.141 117.867 323.874 116.978 C 324.524 116.189,324.812 115.556,324.521 115.556 C 324.465 115.556,324.132 116.076,323.780 116.711 M191.243 117.156 C 191.435 117.547,191.853 118.187,192.171 118.578 L 192.750 119.289 192.401 118.578 C 192.209 118.187,191.792 117.547,191.473 117.156 L 190.894 116.444 191.243 117.156 M243.022 116.978 C 243.413 117.146,243.973 117.283,244.267 117.283 C 244.603 117.283,244.537 117.170,244.089 116.978 C 243.698 116.810,243.138 116.672,242.844 116.672 C 242.508 116.672,242.574 116.785,243.022 116.978 M266.171 117.185 C 266.053 117.494,265.956 120.379,265.956 123.597 L 265.956 129.446 257.262 129.345 C 252.480 129.290,248.691 129.367,248.842 129.518 C 248.992 129.668,252.944 129.748,257.624 129.695 L 266.133 129.600 266.231 123.581 C 266.291 119.879,266.479 117.382,266.719 117.092 C 266.967 116.793,266.978 116.622,266.748 116.622 C 266.550 116.622,266.290 116.875,266.171 117.185 M245.867 117.672 C 246.258 117.849,246.924 118.006,247.348 118.019 C 247.772 118.033,248.199 118.244,248.298 118.489 C 248.427 118.809,248.485 118.815,248.505 118.510 C 248.542 117.954,248.278 117.824,246.578 117.566 C 245.586 117.416,245.371 117.448,245.867 117.672 M192.926 119.911 C 193.711 121.271,197.038 125.829,197.557 126.255 C 197.892 126.530,197.443 125.796,196.559 124.622 C 195.675 123.449,194.506 121.809,193.962 120.978 C 193.070 119.615,192.294 118.817,192.926 119.911 M319.644 123.022 C 319.227 123.609,318.965 124.089,319.063 124.089 C 319.160 124.089,319.582 123.609,320.000 123.022 C 320.418 122.436,320.680 121.956,320.582 121.956 C 320.484 121.956,320.062 122.436,319.644 123.022 M311.299 132.738 C 308.237 135.849,307.544 136.669,309.236 135.181 C 311.344 133.326,316.471 127.933,316.037 128.027 C 315.968 128.042,313.836 130.162,311.299 132.738 M203.200 132.622 C 205.148 134.578,206.822 136.178,206.920 136.178 C 207.018 136.178,205.504 134.578,203.556 132.622 C 201.607 130.667,199.933 129.067,199.836 129.067 C 199.738 129.067,201.252 130.667,203.200 132.622 M209.746 138.423 C 210.294 139.113,212.267 140.598,212.267 140.321 C 212.267 140.226,211.587 139.618,210.756 138.970 C 209.924 138.322,209.470 138.076,209.746 138.423 M302.334 140.382 C 299.364 142.627,299.094 142.997,301.703 141.248 C 303.485 140.054,305.182 138.590,304.666 138.693 C 304.593 138.708,303.544 139.468,302.334 140.382 M219.733 145.234 C 219.733 145.332,220.693 145.897,221.867 146.489 C 223.040 147.081,224.000 147.486,224.000 147.388 C 224.000 147.290,223.040 146.726,221.867 146.133 C 220.693 145.541,219.733 145.136,219.733 145.234 M287.644 148.800 C 287.156 149.079,286.916 149.308,287.111 149.308 C 287.307 149.308,287.867 149.079,288.356 148.800 C 288.844 148.521,289.084 148.292,288.889 148.292 C 288.693 148.292,288.133 148.521,287.644 148.800 M236.089 152.162 C 236.382 152.360,236.929 152.525,237.304 152.528 C 238.213 152.535,237.930 152.332,236.622 152.039 C 235.843 151.865,235.699 151.898,236.089 152.162 M277.867 152.178 C 277.418 152.370,277.353 152.483,277.689 152.483 C 277.982 152.483,278.542 152.346,278.933 152.178 C 279.382 151.985,279.447 151.872,279.111 151.872 C 278.818 151.872,278.258 152.010,277.867 152.178 M239.319 153.016 C 239.400 153.085,240.027 153.245,240.711 153.371 C 241.587 153.531,241.797 153.495,241.422 153.249 C 240.940 152.933,238.966 152.714,239.319 153.016 M273.600 153.244 C 272.694 153.634,273.629 153.634,274.844 153.244 C 275.559 153.016,275.594 152.958,275.022 152.949 C 274.631 152.944,273.991 153.076,273.600 153.244 M243.556 153.956 C 244.044 154.112,244.844 154.237,245.333 154.234 C 246.132 154.228,246.114 154.199,245.156 153.956 C 243.652 153.573,242.361 153.573,243.556 153.956 M269.689 153.956 C 268.737 154.198,268.718 154.227,269.511 154.227 C 270.000 154.227,270.880 154.105,271.467 153.956 C 272.418 153.713,272.437 153.684,271.644 153.684 C 271.156 153.684,270.276 153.806,269.689 153.956 M250.933 154.927 C 251.764 155.002,253.124 155.002,253.956 154.927 C 254.787 154.852,254.107 154.791,252.444 154.791 C 250.782 154.791,250.102 154.852,250.933 154.927 M260.889 154.927 C 261.720 155.002,263.080 155.002,263.911 154.927 C 264.742 154.852,264.062 154.791,262.400 154.791 C 260.738 154.791,260.058 154.852,260.889 154.927 M256.800 155.267 C 257.142 155.357,257.702 155.357,258.044 155.267 C 258.387 155.178,258.107 155.105,257.422 155.105 C 256.738 155.105,256.458 155.178,256.800 155.267 M142.400 174.432 C 139.349 174.664,132.766 176.084,129.067 177.309 C 113.877 182.339,102.128 191.704,89.763 208.638 C 89.721 208.696,88.647 208.267,87.377 207.685 C 86.106 207.103,84.447 206.539,83.689 206.431 L 82.311 206.236 83.733 206.717 C 84.516 206.982,86.184 207.633,87.441 208.164 L 89.726 209.129 90.894 207.764 C 91.537 207.014,92.068 206.286,92.076 206.147 C 92.102 205.648,97.609 199.222,100.950 195.792 C 118.567 177.707,141.048 171.017,165.156 176.685 C 165.938 176.869,167.279 177.196,168.136 177.411 C 168.993 177.626,169.772 177.725,169.867 177.630 C 169.962 177.535,169.581 177.356,169.020 177.233 C 168.459 177.110,167.600 176.872,167.111 176.705 C 166.622 176.538,164.862 176.146,163.200 175.834 C 161.538 175.522,159.485 175.109,158.639 174.916 C 157.019 174.547,145.436 174.202,142.400 174.432 M170.341 177.924 C 170.422 178.004,171.634 178.469,173.033 178.957 L 175.576 179.844 198.633 180.067 C 221.340 180.287,223.767 180.414,228.089 181.606 C 236.925 184.044,244.552 192.664,246.959 202.933 C 247.644 205.859,247.726 205.900,250.423 204.670 C 251.437 204.207,253.067 203.466,254.044 203.023 C 255.022 202.579,256.826 201.758,258.053 201.197 C 259.280 200.637,260.349 200.178,260.427 200.178 C 260.506 200.178,261.742 199.638,263.174 198.979 C 264.606 198.320,266.578 197.418,267.556 196.976 C 268.533 196.534,270.337 195.714,271.564 195.153 C 272.792 194.592,273.862 194.133,273.943 194.133 C 274.087 194.133,277.574 192.535,282.795 190.077 C 286.997 188.098,287.659 187.839,291.911 186.505 C 294.160 185.800,296.491 185.068,297.092 184.878 C 297.692 184.688,298.572 184.522,299.047 184.508 C 299.522 184.495,300.231 184.333,300.622 184.150 C 301.495 183.741,298.246 184.052,296.889 184.508 C 296.400 184.672,295.280 185.002,294.400 185.240 C 292.580 185.733,289.941 186.582,288.889 187.013 C 288.498 187.173,287.298 187.653,286.222 188.080 C 285.147 188.507,282.987 189.468,281.422 190.216 C 277.775 191.960,273.038 194.133,272.883 194.133 C 272.817 194.133,271.591 194.672,270.159 195.331 C 268.727 195.990,266.676 196.929,265.600 197.417 C 264.524 197.906,262.893 198.646,261.975 199.064 C 261.057 199.481,260.233 199.822,260.144 199.822 C 260.055 199.822,258.646 200.440,257.013 201.195 C 251.245 203.863,248.122 205.218,248.017 205.099 C 247.959 205.032,247.649 203.922,247.330 202.631 C 245.925 196.954,243.468 192.427,239.601 188.387 C 237.299 185.983,233.517 183.111,232.652 183.111 C 232.391 183.111,232.178 182.983,232.178 182.826 C 232.178 182.669,231.338 182.255,230.311 181.907 C 229.284 181.558,228.124 181.137,227.733 180.972 C 225.623 180.078,221.075 179.875,199.111 179.694 C 186.302 179.589,175.502 179.362,175.111 179.191 C 173.194 178.353,169.882 177.473,170.341 177.924 M306.489 182.782 C 305.609 182.945,304.114 183.178,303.167 183.300 C 302.221 183.421,301.528 183.602,301.629 183.703 C 301.729 183.803,303.897 183.631,306.447 183.321 C 312.296 182.607,317.788 182.603,323.317 183.306 C 345.486 186.125,355.351 193.398,358.015 208.889 L 358.320 210.667 358.360 209.121 C 358.400 207.590,357.617 204.126,356.962 202.938 C 356.775 202.599,356.622 202.114,356.622 201.860 C 356.622 200.870,353.152 195.641,351.120 193.570 C 346.264 188.621,339.095 185.477,328.533 183.665 C 326.676 183.347,324.266 182.932,323.179 182.743 C 320.813 182.333,308.753 182.360,306.489 182.782 M141.935 197.991 C 141.483 198.118,144.594 198.222,148.848 198.222 C 153.102 198.222,156.111 198.121,155.535 197.998 C 154.151 197.701,142.985 197.695,141.935 197.991 M136.000 199.530 C 127.547 202.446,119.539 208.422,112.510 217.062 C 109.111 221.238,104.178 228.968,104.178 230.116 C 104.178 230.569,112.665 252.283,113.947 255.111 C 114.213 255.698,115.097 257.938,115.911 260.089 C 116.725 262.240,117.604 264.480,117.863 265.067 C 118.122 265.653,118.997 267.813,119.807 269.867 C 120.617 271.920,121.414 273.920,121.576 274.311 C 121.739 274.702,122.309 276.142,122.843 277.511 C 123.377 278.880,124.021 280.480,124.275 281.067 C 124.528 281.653,125.249 283.493,125.878 285.156 C 126.506 286.818,127.259 288.698,127.551 289.333 L 128.081 290.489 165.880 290.489 C 191.361 290.489,204.296 290.365,205.573 290.108 C 210.422 289.132,214.690 287.443,219.911 284.436 C 220.693 283.986,223.093 282.621,225.244 281.405 C 227.396 280.188,231.142 278.054,233.570 276.663 C 235.998 275.272,238.053 274.133,238.137 274.133 C 238.221 274.133,238.715 273.836,239.234 273.473 C 239.753 273.109,241.138 272.283,242.311 271.636 C 246.455 269.353,247.671 268.665,250.252 267.140 C 251.686 266.293,252.913 265.600,252.978 265.600 C 253.044 265.600,254.724 264.640,256.711 263.467 C 258.699 262.293,260.369 261.333,260.424 261.333 C 260.479 261.333,262.893 259.973,265.788 258.311 C 268.684 256.649,271.093 255.289,271.141 255.289 C 271.190 255.289,272.403 254.596,273.837 253.749 C 275.271 252.902,277.244 251.763,278.222 251.219 C 279.200 250.675,283.520 248.223,287.822 245.771 C 292.124 243.318,296.174 241.014,296.821 240.650 C 297.468 240.286,299.148 239.327,300.554 238.519 C 301.961 237.710,304.711 236.139,306.667 235.028 C 308.622 233.916,312.702 231.596,315.733 229.873 C 325.341 224.411,329.383 222.129,330.794 221.367 C 335.576 218.787,337.382 211.613,333.799 209.433 C 331.677 208.141,324.052 206.035,322.462 206.301 C 321.874 206.399,322.166 206.527,323.378 206.704 C 327.987 207.375,333.316 209.216,334.581 210.574 C 335.622 211.692,335.532 214.344,334.373 216.659 C 332.821 219.761,332.456 220.034,322.667 225.411 C 321.493 226.056,320.373 226.705,320.178 226.854 C 319.982 227.002,319.262 227.435,318.578 227.815 C 315.066 229.765,313.212 230.806,311.111 232.009 C 306.817 234.466,306.451 234.676,303.890 236.139 C 302.484 236.942,300.773 237.921,300.089 238.313 C 299.404 238.706,297.084 240.022,294.933 241.239 C 292.782 242.455,289.872 244.112,288.466 244.919 C 287.059 245.727,285.299 246.737,284.554 247.164 C 283.100 247.996,276.292 251.839,273.956 253.146 C 273.173 253.584,272.373 254.064,272.178 254.213 C 271.982 254.362,270.862 255.011,269.689 255.655 C 265.834 257.773,265.071 258.206,264.711 258.480 C 264.516 258.629,263.396 259.278,262.222 259.922 C 261.049 260.567,259.609 261.362,259.022 261.689 C 258.436 262.016,256.996 262.811,255.822 263.456 C 254.649 264.100,253.529 264.749,253.333 264.898 C 252.974 265.172,252.210 265.605,248.356 267.722 C 247.182 268.367,246.062 269.016,245.867 269.165 C 245.671 269.314,244.951 269.746,244.267 270.126 C 240.755 272.076,238.901 273.117,236.800 274.320 C 235.529 275.047,233.929 275.961,233.244 276.350 C 232.560 276.739,230.960 277.663,229.689 278.403 C 228.418 279.143,226.658 280.138,225.778 280.615 C 224.898 281.091,223.538 281.851,222.756 282.304 C 217.815 285.166,213.744 287.340,212.978 287.526 C 212.489 287.645,211.929 287.855,211.733 287.993 C 211.223 288.354,207.525 289.271,204.622 289.758 C 202.799 290.063,192.247 290.145,165.164 290.065 L 128.194 289.956 126.311 285.156 C 125.275 282.516,124.337 280.116,124.226 279.822 C 124.115 279.529,123.893 278.969,123.732 278.578 C 123.571 278.187,122.611 275.787,121.600 273.244 C 120.589 270.702,119.625 268.302,119.458 267.911 C 119.292 267.520,118.568 265.680,117.849 263.822 C 117.130 261.964,116.339 259.964,116.091 259.378 C 115.842 258.791,115.435 257.751,115.186 257.067 C 114.936 256.382,114.455 255.182,114.116 254.400 C 113.777 253.618,112.822 251.218,111.994 249.067 C 111.167 246.916,110.269 244.636,110.000 244.000 C 109.731 243.364,109.291 242.324,109.022 241.689 C 108.753 241.053,107.929 238.933,107.190 236.978 C 106.451 235.022,105.740 233.262,105.609 233.067 C 104.669 231.655,104.453 229.733,105.124 228.742 C 105.500 228.187,106.121 227.126,106.504 226.383 C 112.741 214.285,130.858 199.169,139.197 199.106 C 139.590 199.103,140.151 198.945,140.444 198.756 C 141.586 198.018,139.157 198.441,136.000 199.530 M157.511 198.738 C 158.000 198.893,159.280 199.218,160.356 199.461 C 161.431 199.705,163.911 200.463,165.867 201.147 C 170.020 202.600,172.730 203.116,169.067 201.757 C 165.284 200.353,163.625 199.823,160.711 199.084 C 158.032 198.405,155.646 198.147,157.511 198.738 M175.111 203.028 C 177.067 203.174,188.027 203.313,199.467 203.337 C 224.270 203.387,222.127 202.985,224.337 208.000 C 224.700 208.823,224.715 208.799,224.539 207.674 C 224.332 206.344,222.974 204.352,221.754 203.589 C 221.124 203.195,216.312 203.071,196.267 202.932 C 182.676 202.838,173.156 202.881,175.111 203.028 M71.234 205.783 C 71.008 205.927,73.362 206.044,76.465 206.044 C 79.568 206.044,81.833 205.936,81.498 205.803 C 80.669 205.474,71.747 205.457,71.234 205.783 M310.044 205.867 C 309.330 206.017,311.451 206.131,315.022 206.135 C 319.200 206.139,320.777 206.044,319.822 205.846 C 318.100 205.490,311.771 205.503,310.044 205.867 M67.294 206.918 C 65.646 207.511,62.236 209.234,58.233 211.495 C 57.506 211.906,55.826 212.832,54.500 213.552 C 49.248 216.407,48.131 217.041,46.236 218.249 C 41.435 221.308,35.556 228.970,35.556 232.167 C 35.556 232.541,35.412 232.936,35.237 233.044 C 34.068 233.766,33.930 243.879,35.040 247.410 C 35.327 248.321,35.738 249.627,35.955 250.311 C 36.306 251.421,36.694 252.401,37.714 254.756 C 37.883 255.147,38.672 257.147,39.467 259.200 C 40.261 261.253,41.052 263.253,41.223 263.644 C 41.395 264.036,41.634 264.658,41.754 265.029 C 41.874 265.399,42.062 265.612,42.172 265.502 C 42.282 265.392,41.014 261.889,39.355 257.718 C 34.146 244.621,33.561 241.108,35.398 233.956 C 37.489 225.816,42.125 220.664,52.267 215.208 C 55.460 213.490,58.384 211.895,61.511 210.166 C 65.007 208.233,65.403 208.049,68.089 207.123 C 69.458 206.650,70.258 206.260,69.867 206.256 C 69.476 206.251,68.318 206.549,67.294 206.918 M303.822 206.781 C 300.617 207.532,297.892 208.410,298.105 208.624 C 298.274 208.793,300.249 208.299,303.492 207.277 C 304.092 207.088,305.052 206.917,305.625 206.898 C 306.198 206.878,307.067 206.734,307.556 206.578 C 309.168 206.061,306.206 206.223,303.822 206.781 M295.111 209.554 C 294.036 210.002,292.116 210.861,290.844 211.464 C 288.726 212.470,287.094 213.220,282.133 215.467 C 281.156 215.910,279.352 216.731,278.124 217.292 C 276.897 217.852,275.829 218.311,275.750 218.311 C 275.672 218.311,274.436 218.851,273.004 219.510 C 271.572 220.169,269.600 221.071,268.622 221.513 C 267.644 221.955,265.840 222.775,264.613 223.336 C 263.386 223.897,262.318 224.356,262.239 224.356 C 262.161 224.356,260.925 224.895,259.493 225.554 C 258.061 226.214,256.089 227.115,255.111 227.557 C 254.133 227.999,252.329 228.820,251.102 229.380 C 249.875 229.941,248.807 230.400,248.728 230.400 C 248.650 230.400,247.414 230.939,245.982 231.599 C 244.549 232.258,242.578 233.159,241.600 233.602 C 236.265 236.013,235.167 236.559,234.351 237.200 C 233.301 238.026,229.598 239.777,228.136 240.138 C 227.575 240.277,227.214 240.488,227.334 240.608 C 227.687 240.961,232.415 238.960,234.316 237.652 C 235.282 236.988,236.144 236.444,236.233 236.444 C 236.322 236.444,237.406 235.980,238.642 235.411 C 239.878 234.843,242.141 233.803,243.670 233.100 C 245.200 232.397,246.516 231.822,246.595 231.822 C 246.673 231.822,247.742 231.363,248.969 230.803 C 250.196 230.242,252.000 229.421,252.978 228.979 C 253.956 228.537,255.927 227.636,257.359 226.977 C 258.791 226.317,260.027 225.778,260.106 225.778 C 260.185 225.778,261.253 225.319,262.480 224.759 C 265.116 223.555,267.939 222.271,270.400 221.156 C 271.378 220.713,273.182 219.891,274.409 219.331 C 275.636 218.770,276.704 218.311,276.783 218.311 C 276.862 218.311,278.098 217.772,279.530 217.113 C 282.129 215.917,285.292 214.479,287.644 213.425 C 288.329 213.119,290.530 212.092,292.536 211.145 C 294.542 210.197,296.412 209.422,296.693 209.422 C 296.973 209.422,297.301 209.262,297.422 209.067 C 297.741 208.550,297.303 208.643,295.111 209.554 M224.818 210.844 C 224.818 211.920,224.884 212.360,224.966 211.822 C 225.047 211.284,225.047 210.404,224.966 209.867 C 224.884 209.329,224.818 209.769,224.818 210.844 M224.029 214.275 C 223.636 215.717,222.525 217.205,221.333 217.884 C 220.746 218.219,220.726 218.291,221.217 218.300 C 222.016 218.315,224.261 215.642,224.548 214.333 C 224.895 212.752,224.458 212.703,224.029 214.275 M357.935 216.889 C 356.871 225.671,350.537 236.434,344.653 239.457 C 343.903 239.842,342.649 240.553,341.867 241.035 C 341.084 241.518,338.844 242.816,336.889 243.921 C 334.933 245.025,331.910 246.754,330.171 247.764 C 328.432 248.774,326.937 249.600,326.848 249.600 C 326.760 249.600,326.263 249.897,325.744 250.261 C 325.225 250.624,323.840 251.450,322.667 252.097 C 321.493 252.743,319.813 253.669,318.933 254.154 C 318.053 254.638,316.909 255.332,316.390 255.695 C 315.870 256.058,315.376 256.356,315.290 256.356 C 315.204 256.356,312.029 258.140,308.234 260.322 C 304.438 262.503,299.573 265.281,297.422 266.496 C 295.271 267.710,292.258 269.445,290.726 270.352 C 289.194 271.258,287.888 272.000,287.822 272.000 C 287.757 272.000,286.530 272.693,285.096 273.540 C 283.662 274.387,281.769 275.482,280.889 275.974 C 280.009 276.466,275.689 278.917,271.289 281.422 C 266.889 283.927,262.794 286.255,262.189 286.595 C 257.357 289.315,247.053 295.236,244.172 296.948 C 243.241 297.502,242.361 297.959,242.217 297.963 C 241.794 297.976,240.143 299.361,240.540 299.370 C 240.739 299.374,241.490 298.978,242.210 298.489 C 242.929 298.000,243.584 297.600,243.665 297.600 C 243.746 297.600,246.182 296.240,249.077 294.578 C 251.973 292.916,254.398 291.556,254.467 291.556 C 254.536 291.556,255.254 291.138,256.063 290.627 C 256.872 290.116,258.189 289.343,258.989 288.908 C 260.907 287.867,263.058 286.646,268.508 283.504 C 274.505 280.047,275.166 279.671,276.622 278.890 C 277.306 278.523,277.946 278.142,278.044 278.044 C 278.142 277.947,278.542 277.692,278.933 277.479 C 279.324 277.265,280.604 276.559,281.778 275.909 C 282.951 275.259,284.631 274.331,285.511 273.846 C 286.391 273.362,287.536 272.668,288.055 272.305 C 288.574 271.942,289.071 271.644,289.159 271.644 C 289.248 271.644,290.743 270.822,292.482 269.818 C 294.221 268.813,296.174 267.690,296.821 267.323 C 297.468 266.956,299.148 265.998,300.554 265.194 C 301.961 264.391,303.831 263.326,304.711 262.829 C 305.591 262.332,308.365 260.741,310.876 259.293 C 313.387 257.846,316.187 256.251,317.098 255.750 C 318.010 255.248,318.916 254.716,319.111 254.567 C 319.307 254.418,320.267 253.854,321.244 253.312 C 324.237 251.655,324.879 251.289,333.689 246.218 C 338.382 243.517,343.245 240.733,344.494 240.031 C 346.772 238.752,352.356 233.246,352.356 232.278 C 352.356 232.027,352.492 231.822,352.659 231.822 C 354.070 231.822,358.652 218.917,358.340 215.822 C 358.242 214.843,358.155 215.071,357.935 216.889 M174.037 229.867 L 174.044 241.600 199.644 241.595 C 219.429 241.592,225.446 241.490,226.133 241.146 C 226.976 240.724,226.958 240.712,225.778 240.924 C 225.093 241.047,213.216 241.220,199.383 241.308 L 174.232 241.469 174.131 229.801 L 174.029 218.133 174.037 229.867 M73.758 229.482 C 72.965 229.938,71.205 230.913,69.847 231.648 C 68.489 232.383,66.898 233.261,66.311 233.600 C 65.724 233.939,64.124 234.821,62.756 235.562 C 61.387 236.302,59.948 237.083,59.559 237.298 C 56.617 238.923,56.682 239.944,60.258 248.356 C 60.508 248.942,61.388 251.182,62.214 253.333 C 63.040 255.484,63.931 257.724,64.193 258.311 C 64.456 258.898,66.688 264.498,69.154 270.756 C 71.619 277.013,73.789 282.453,73.975 282.844 C 74.162 283.236,75.410 286.356,76.749 289.778 C 88.924 320.894,88.860 320.781,92.978 318.284 C 93.564 317.928,95.644 316.781,97.600 315.734 C 99.556 314.687,101.956 313.379,102.933 312.829 C 103.911 312.278,105.372 311.487,106.180 311.072 C 109.534 309.347,110.474 307.451,109.215 304.956 C 108.999 304.528,108.172 302.498,107.378 300.444 C 106.583 298.391,105.787 296.391,105.609 296.000 C 105.431 295.609,104.064 292.169,102.572 288.356 C 101.079 284.542,99.649 280.942,99.393 280.356 C 99.137 279.769,98.180 277.369,97.266 275.022 C 96.352 272.676,95.458 270.436,95.280 270.044 C 95.102 269.653,94.306 267.653,93.511 265.600 C 92.717 263.547,91.890 261.467,91.675 260.978 C 91.013 259.478,90.740 258.798,89.244 254.933 C 88.450 252.880,87.664 250.880,87.497 250.489 C 87.330 250.098,86.760 248.658,86.229 247.289 C 85.698 245.920,85.125 244.480,84.954 244.089 C 84.784 243.698,83.995 241.698,83.200 239.644 C 82.405 237.591,81.579 235.511,81.363 235.022 C 80.910 233.995,80.599 233.242,79.845 231.352 C 78.749 228.603,76.492 227.909,73.758 229.482 M78.843 230.312 C 79.282 230.849,79.642 231.432,79.643 231.606 C 79.644 231.868,84.287 243.842,85.311 246.222 C 86.304 248.532,86.785 249.731,87.811 252.444 C 88.439 254.107,89.168 255.947,89.430 256.533 C 89.691 257.120,91.925 262.720,94.392 268.978 C 96.860 275.236,99.031 280.716,99.217 281.156 C 99.403 281.596,99.711 282.316,99.900 282.756 C 100.089 283.196,100.894 285.236,101.689 287.289 C 102.483 289.342,103.279 291.342,103.458 291.733 C 103.636 292.124,104.530 294.364,105.444 296.711 C 107.062 300.865,107.613 302.225,108.652 304.634 C 109.763 307.210,109.197 308.971,106.844 310.255 C 106.453 310.468,105.253 311.125,104.178 311.714 C 103.102 312.303,100.702 313.567,98.844 314.522 C 96.987 315.478,95.387 316.341,95.289 316.441 C 94.789 316.951,91.105 318.587,90.489 318.572 C 89.282 318.543,87.111 316.004,87.111 314.621 C 87.111 314.412,86.855 313.657,86.542 312.943 C 86.228 312.229,85.850 311.324,85.702 310.933 C 85.553 310.542,85.170 309.617,84.849 308.877 C 84.529 308.137,84.267 307.297,84.267 307.010 C 84.267 306.723,84.146 306.489,83.998 306.489 C 83.850 306.489,83.517 305.809,83.259 304.978 C 82.787 303.460,81.999 301.511,81.392 300.360 C 81.213 300.021,81.067 299.565,81.067 299.347 C 81.067 299.130,80.808 298.368,80.491 297.654 C 79.164 294.659,78.933 294.104,78.933 293.898 C 78.933 293.779,78.635 293.003,78.271 292.174 C 77.691 290.854,77.326 289.952,76.083 286.756 C 75.930 286.364,75.550 285.460,75.236 284.746 C 74.923 284.032,74.667 283.351,74.667 283.231 C 74.667 283.112,74.366 282.336,73.998 281.507 C 73.630 280.678,73.126 279.440,72.878 278.756 C 72.441 277.550,72.001 276.460,70.977 274.044 C 70.707 273.409,69.973 271.529,69.344 269.867 C 68.716 268.204,67.998 266.364,67.749 265.778 C 67.354 264.846,66.974 263.890,65.771 260.800 C 65.521 260.156,64.973 258.829,63.934 256.356 C 63.729 255.867,63.440 255.221,63.293 254.922 C 63.145 254.622,62.911 253.864,62.773 253.237 C 62.636 252.610,62.375 252.006,62.195 251.894 C 62.014 251.783,61.867 251.381,61.867 251.001 C 61.867 250.622,61.727 250.311,61.556 250.311 C 61.384 250.311,61.151 249.843,61.036 249.271 C 60.922 248.698,60.516 247.538,60.135 246.693 C 57.177 240.138,57.281 239.199,61.207 236.991 C 62.786 236.104,64.143 235.378,64.223 235.378 C 64.304 235.378,65.017 234.969,65.808 234.470 C 67.632 233.319,69.118 232.484,72.872 230.503 C 76.291 228.700,77.494 228.661,78.843 230.312 M42.311 266.077 C 42.311 266.260,44.619 272.308,45.318 273.956 C 45.567 274.542,46.054 275.742,46.400 276.622 C 46.746 277.502,47.229 278.702,47.473 279.289 C 47.717 279.876,48.667 282.276,49.585 284.622 C 50.502 286.969,51.481 289.393,51.760 290.009 C 52.039 290.626,52.267 291.227,52.267 291.346 C 52.267 291.466,52.568 292.242,52.936 293.071 C 53.304 293.900,53.808 295.138,54.056 295.822 C 54.461 296.941,54.946 298.149,55.839 300.267 C 56.004 300.658,58.158 306.098,60.626 312.356 C 63.095 318.613,65.678 324.933,66.368 326.400 C 69.534 333.135,74.239 337.602,81.067 340.359 C 81.556 340.556,82.276 340.850,82.667 341.012 C 84.192 341.643,87.764 342.042,91.354 341.981 L 95.111 341.917 90.667 341.668 C 85.750 341.393,83.281 341.041,82.993 340.574 C 82.888 340.405,82.532 340.266,82.201 340.265 C 80.282 340.260,74.239 336.345,71.311 333.209 C 69.023 330.758,65.422 324.558,65.422 323.069 C 65.422 322.828,65.285 322.479,65.118 322.293 C 64.951 322.108,64.211 320.356,63.474 318.400 C 62.262 315.184,61.705 313.792,60.775 311.644 C 60.605 311.253,59.817 309.253,59.022 307.200 C 58.228 305.147,57.432 303.147,57.253 302.756 C 57.075 302.364,56.181 300.124,55.267 297.778 C 54.353 295.431,53.396 293.031,53.140 292.444 C 52.884 291.858,51.454 288.258,49.962 284.444 C 48.469 280.631,47.102 277.191,46.924 276.800 C 46.746 276.409,45.953 274.409,45.163 272.356 C 44.372 270.302,43.567 268.344,43.374 268.005 C 43.180 267.665,43.022 267.155,43.022 266.870 C 43.022 266.586,42.862 266.254,42.667 266.133 C 42.471 266.012,42.311 265.987,42.311 266.077 M232.978 303.210 C 229.409 305.274,226.555 307.029,226.636 307.110 C 226.770 307.244,230.459 305.334,231.289 304.701 C 231.484 304.552,232.364 304.031,233.244 303.543 C 234.124 303.055,235.724 302.149,236.800 301.530 C 237.876 300.912,239.036 300.315,239.378 300.206 C 239.976 300.014,240.281 299.336,239.733 299.417 C 239.587 299.439,236.547 301.146,232.978 303.210 M224.000 308.024 C 222.077 308.970,217.835 310.590,216.356 310.944 C 215.769 311.084,215.493 311.274,215.742 311.365 C 216.211 311.537,219.652 310.474,220.249 309.973 C 220.435 309.817,220.784 309.689,221.024 309.689 C 221.543 309.689,226.133 307.600,226.133 307.363 C 226.133 307.068,225.622 307.227,224.000 308.024 M211.911 311.996 C 210.836 312.259,209.076 312.640,208.000 312.842 L 206.044 313.211 208.225 313.060 C 210.393 312.909,213.220 312.350,214.578 311.802 L 215.289 311.515 214.578 311.516 C 214.187 311.517,212.987 311.733,211.911 311.996 M132.021 313.689 C 131.838 313.933,131.247 315.286,130.708 316.695 C 127.843 324.182,124.467 327.256,111.467 334.214 C 109.902 335.051,108.142 336.014,107.556 336.354 C 102.687 339.172,100.294 340.255,96.889 341.181 L 95.111 341.664 96.788 341.479 C 99.064 341.227,101.667 340.112,107.556 336.867 C 110.293 335.358,113.893 333.397,115.556 332.509 C 121.831 329.157,125.001 326.646,127.980 322.667 C 129.557 320.561,131.911 315.800,131.911 314.718 L 131.911 313.956 166.844 313.924 C 186.058 313.907,202.578 313.769,203.556 313.616 C 204.533 313.464,188.913 313.318,168.844 313.292 C 140.022 313.254,132.284 313.338,132.021 313.689 " stroke="none" fill="#a2a8b1" fill-rule="evenodd"></path></g></svg>