<svg id="svg" version="1.1" xmlns="http://www.w3.org/2000/svg" xmlns:xlink="http://www.w3.org/1999/xlink" width="400" height="390.1477832512315" viewBox="0, 0, 400,390.1477832512315"><g id="svgg"><path id="path0" d="M187.317 41.027 C 180.999 42.741,177.674 44.302,173.387 47.563 C 170.577 49.700,166.591 54.111,165.434 56.364 C 165.096 57.022,164.363 58.439,163.806 59.512 C 161.153 64.622,159.618 76.708,161.144 80.469 C 161.344 80.962,161.810 82.420,162.178 83.707 C 163.941 89.871,169.875 97.908,175.073 101.171 C 181.940 105.481,186.158 106.695,194.146 106.658 C 198.342 106.639,200.442 106.465,201.561 106.045 C 202.420 105.723,203.912 105.231,204.878 104.952 C 208.506 103.903,215.780 99.214,217.656 96.716 C 217.925 96.359,218.903 95.178,219.830 94.091 C 221.705 91.895,224.375 86.987,225.161 84.293 C 225.443 83.327,225.922 81.754,226.225 80.797 C 227.044 78.217,226.983 68.897,226.129 66.021 C 225.039 62.352,224.286 60.384,223.267 58.537 C 222.734 57.571,222.096 56.393,221.849 55.920 C 218.526 49.564,209.875 43.535,200.724 41.198 C 198.037 40.512,189.611 40.404,187.317 41.027 M26.732 331.054 C 18.059 334.460,16.506 345.283,23.955 350.408 C 27.026 352.521,17.800 352.420,198.439 352.304 L 367.805 352.195 369.605 351.332 C 377.587 347.503,377.563 335.417,369.566 331.577 L 367.805 330.732 197.854 330.663 C 68.215 330.611,27.625 330.704,26.732 331.054 " stroke="none" fill="#1f2e46" fill-rule="evenodd"></path><path id="path1" d="M181.659 122.951 C 171.042 124.088,170.362 124.191,161.951 125.918 C 160.341 126.249,158.498 126.668,157.854 126.850 C 157.210 127.032,155.541 127.463,154.146 127.807 C 152.751 128.151,151.171 128.581,150.634 128.762 C 150.098 128.943,148.605 129.382,147.317 129.739 C 146.029 130.095,144.671 130.553,144.298 130.755 C 143.925 130.957,143.361 131.122,143.043 131.122 C 142.725 131.122,141.889 131.375,141.184 131.685 C 140.479 131.995,138.042 132.947,135.769 133.801 C 120.732 139.446,96.921 153.204,88.921 160.868 C 88.629 161.148,87.600 161.985,86.634 162.727 C 85.668 163.470,84.790 164.171,84.683 164.286 C 84.576 164.401,83.083 165.713,81.366 167.202 C 73.736 173.820,63.016 185.439,56.148 194.537 C 53.305 198.302,47.220 207.090,47.220 207.429 C 47.220 207.520,46.607 208.552,45.859 209.722 C 42.459 215.036,36.731 225.870,34.389 231.415 C 30.671 240.219,30.269 241.261,28.363 247.050 C 24.754 258.015,22.787 265.940,21.299 275.512 C 17.107 302.476,18.894 311.730,28.862 314.691 C 32.100 315.652,362.827 315.652,366.065 314.691 C 369.866 313.562,372.723 311.142,374.534 307.519 L 375.610 305.366 375.532 297.381 C 375.461 290.102,374.831 282.249,373.871 276.683 C 372.956 271.372,372.211 267.405,371.894 266.146 C 371.705 265.395,371.261 263.463,370.907 261.854 C 370.553 260.244,370.110 258.400,369.923 257.756 C 368.961 254.451,366.328 245.949,366.056 245.268 C 365.885 244.839,365.168 242.907,364.464 240.976 C 363.760 239.044,363.038 237.297,362.860 237.093 C 362.682 236.889,362.537 236.498,362.537 236.225 C 362.537 235.383,355.603 220.887,353.142 216.585 C 352.467 215.405,351.380 213.473,350.726 212.293 C 348.584 208.423,339.441 194.846,338.374 193.951 C 338.247 193.844,337.626 193.054,336.995 192.195 C 332.201 185.671,320.578 173.260,313.599 167.212 C 312.117 165.928,310.712 164.700,310.477 164.482 C 310.241 164.264,309.259 163.477,308.293 162.732 C 307.327 161.987,306.273 161.122,305.951 160.811 C 305.024 159.915,297.088 154.091,293.659 151.791 C 283.309 144.848,269.347 137.572,258.927 133.691 C 256.780 132.891,254.448 131.986,253.743 131.679 C 253.038 131.373,252.201 131.122,251.884 131.122 C 251.566 131.122,251.002 130.957,250.629 130.755 C 250.256 130.553,248.898 130.095,247.610 129.739 C 246.322 129.382,244.829 128.943,244.293 128.762 C 243.756 128.581,242.176 128.149,240.780 127.801 C 239.385 127.454,237.629 127.008,236.878 126.811 C 233.217 125.851,228.134 124.899,220.293 123.705 C 209.418 122.050,193.058 121.730,181.659 122.951 M206.439 149.657 C 213.356 150.157,217.003 150.603,223.805 151.784 C 225.817 152.134,235.848 154.648,239.415 155.697 C 247.466 158.064,262.497 164.711,269.522 169.011 C 270.892 169.850,272.102 170.537,272.211 170.537 C 272.634 170.537,281.766 176.685,285.463 179.459 C 316.919 203.060,339.503 238.350,346.309 274.537 C 346.673 276.468,347.142 278.927,347.353 280.000 C 347.564 281.073,347.774 283.268,347.819 284.878 L 347.902 287.805 197.699 287.903 C 101.684 287.966,47.332 287.865,47.042 287.625 C 45.647 286.467,51.243 260.745,54.644 252.683 C 54.825 252.254,55.980 249.444,57.211 246.439 C 66.789 223.048,85.558 197.903,104.000 183.754 C 104.644 183.260,105.259 182.756,105.366 182.635 C 106.499 181.348,115.868 174.808,122.146 170.921 C 127.681 167.494,143.470 159.610,144.796 159.610 C 145.008 159.610,145.486 159.428,145.859 159.206 C 146.531 158.805,153.264 156.357,155.512 155.696 C 159.094 154.644,169.111 152.134,171.122 151.785 C 177.904 150.608,181.890 150.106,187.902 149.672 C 196.851 149.026,197.687 149.025,206.439 149.657 " stroke="none" fill="#fb1e1e" fill-rule="evenodd"></path><path id="path2" d="M0.000 195.122 L 0.000 390.244 200.000 390.244 L 400.000 390.244 400.000 195.122 L 400.000 0.000 200.000 0.000 L 0.000 0.000 0.000 195.122 M198.049 40.083 C 199.766 40.185,201.338 40.428,201.541 40.622 C 201.745 40.817,202.272 40.977,202.712 40.978 C 203.152 40.979,204.015 41.243,204.630 41.563 C 205.245 41.884,205.964 42.146,206.229 42.146 C 206.864 42.146,209.094 43.268,209.381 43.732 C 209.505 43.933,209.948 44.098,210.364 44.098 C 210.781 44.098,211.122 44.273,211.122 44.488 C 211.122 44.702,211.358 44.878,211.648 44.878 C 211.937 44.878,212.595 45.249,213.111 45.702 C 213.627 46.155,214.839 47.165,215.805 47.946 C 216.771 48.727,217.649 49.471,217.756 49.599 C 217.863 49.728,218.566 50.583,219.317 51.499 C 220.068 52.415,220.935 53.428,221.244 53.750 C 222.560 55.121,225.951 62.017,225.951 63.320 C 225.951 63.823,226.122 64.405,226.330 64.613 C 227.968 66.251,227.968 81.262,226.330 82.899 C 226.122 83.108,225.951 83.759,225.951 84.348 C 225.951 84.936,225.789 85.518,225.591 85.640 C 225.393 85.762,225.116 86.387,224.975 87.029 C 224.834 87.670,224.557 88.195,224.359 88.195 C 224.162 88.195,224.000 88.444,224.000 88.749 C 224.000 89.445,222.734 91.702,222.341 91.705 C 222.180 91.706,222.049 91.909,222.049 92.155 C 222.049 94.110,211.234 103.805,209.053 103.805 C 208.724 103.805,208.397 103.937,208.325 104.098 C 208.084 104.640,205.603 105.756,204.638 105.756 C 204.111 105.756,203.291 105.999,202.816 106.295 C 200.256 107.891,187.256 107.891,184.697 106.295 C 184.221 105.999,183.446 105.756,182.974 105.756 C 181.936 105.756,179.122 104.561,179.122 104.120 C 179.122 103.947,178.850 103.805,178.518 103.805 C 177.816 103.805,174.002 101.430,172.318 99.945 C 169.167 97.167,166.244 93.952,166.244 93.265 C 166.244 93.052,166.108 92.878,165.942 92.878 C 165.777 92.878,165.299 92.220,164.880 91.415 C 164.462 90.610,163.720 89.296,163.231 88.496 C 162.742 87.695,162.341 86.793,162.341 86.491 C 162.341 86.190,162.079 85.440,161.759 84.825 C 161.438 84.210,161.174 83.347,161.173 82.907 C 161.172 82.467,161.009 81.940,160.811 81.737 C 160.456 81.370,160.005 77.167,159.955 73.756 C 159.873 68.068,161.230 62.503,163.858 57.756 C 164.036 57.434,164.499 56.569,164.886 55.833 C 166.453 52.855,173.532 45.733,175.567 45.087 C 176.020 44.943,176.390 44.662,176.390 44.462 C 176.390 44.261,176.741 44.098,177.171 44.098 C 177.600 44.098,177.951 43.956,177.951 43.782 C 177.951 43.449,180.660 42.146,181.355 42.146 C 181.580 42.146,182.267 41.884,182.882 41.563 C 183.497 41.243,184.385 40.979,184.855 40.978 C 185.325 40.977,185.819 40.800,185.951 40.585 C 186.084 40.371,187.455 40.183,188.999 40.168 C 190.542 40.153,192.156 39.985,192.585 39.796 C 193.015 39.606,193.717 39.551,194.146 39.674 C 194.576 39.796,196.332 39.980,198.049 40.083 M210.732 122.159 C 217.937 122.789,222.251 123.261,222.829 123.481 C 223.151 123.603,224.556 123.888,225.951 124.114 C 227.346 124.340,229.366 124.666,230.439 124.839 C 231.512 125.013,233.268 125.373,234.341 125.641 C 235.415 125.909,236.907 126.272,237.659 126.448 C 241.085 127.250,244.155 128.103,244.775 128.427 C 245.148 128.621,245.824 128.780,246.277 128.780 C 246.731 128.780,247.655 129.022,248.331 129.317 C 249.008 129.612,250.439 130.128,251.512 130.463 C 257.929 132.466,270.018 137.481,274.886 140.158 C 275.293 140.382,277.137 141.360,278.984 142.331 C 280.830 143.303,282.781 144.383,283.319 144.732 C 284.756 145.665,285.672 146.203,287.415 147.141 C 288.273 147.603,289.810 148.578,290.830 149.308 C 291.850 150.037,292.845 150.634,293.042 150.634 C 293.238 150.634,293.457 150.766,293.528 150.927 C 293.600 151.088,294.449 151.732,295.415 152.357 C 297.333 153.600,305.600 159.718,306.418 160.500 C 306.698 160.768,307.717 161.594,308.683 162.337 C 309.649 163.080,310.527 163.779,310.634 163.892 C 310.741 164.005,312.491 165.590,314.523 167.415 C 324.125 176.039,332.263 184.957,340.210 195.562 C 342.402 198.488,344.195 201.063,344.195 201.286 C 344.195 201.509,344.332 201.750,344.500 201.821 C 344.817 201.956,348.098 206.776,348.098 207.106 C 348.098 207.210,348.493 207.844,348.976 208.517 C 349.931 209.847,350.574 210.884,351.196 212.098 C 351.416 212.527,352.030 213.580,352.561 214.439 C 354.647 217.815,362.927 234.918,362.927 235.852 C 362.927 236.116,363.073 236.499,363.253 236.702 C 363.432 236.906,363.887 237.951,364.265 239.024 C 364.643 240.098,365.178 241.502,365.455 242.146 C 365.732 242.790,366.179 244.020,366.448 244.878 C 366.717 245.737,367.062 246.790,367.215 247.220 C 367.368 247.649,367.713 248.615,367.981 249.366 C 368.250 250.117,368.553 251.171,368.654 251.707 C 368.756 252.244,368.988 253.034,369.170 253.463 C 369.855 255.077,372.112 263.893,372.718 267.317 C 372.889 268.283,373.322 270.566,373.681 272.390 C 374.040 274.215,374.471 276.937,374.638 278.439 C 374.805 279.941,375.126 282.488,375.351 284.098 C 376.889 295.128,376.675 304.475,374.799 308.237 C 373.970 309.899,370.196 313.756,369.400 313.756 C 369.059 313.756,368.780 313.890,368.780 314.055 C 368.780 314.219,367.923 314.658,366.874 315.030 C 363.984 316.057,30.909 316.085,28.111 315.058 C 20.762 312.363,18.230 307.123,18.806 295.805 C 19.231 287.473,19.737 281.868,20.479 277.268 C 20.825 275.122,21.264 272.400,21.454 271.220 C 21.644 270.039,22.089 267.844,22.443 266.341 C 22.798 264.839,23.238 262.907,23.421 262.049 C 24.234 258.233,24.692 256.559,25.017 256.215 C 25.209 256.011,25.366 255.507,25.366 255.096 C 25.366 254.290,26.012 252.147,27.682 247.415 C 27.948 246.663,28.252 245.698,28.359 245.268 C 28.466 244.839,28.693 244.137,28.864 243.707 C 29.196 242.874,30.339 239.923,30.829 238.634 C 34.385 229.284,39.973 218.184,46.152 208.195 C 47.878 205.405,49.439 203.063,49.621 202.992 C 49.803 202.920,49.951 202.699,49.951 202.501 C 49.951 201.949,58.927 189.715,60.699 187.853 C 60.929 187.611,61.898 186.481,62.851 185.343 C 67.940 179.271,76.833 170.374,83.700 164.483 C 85.199 163.198,86.865 161.751,87.404 161.268 C 87.942 160.785,88.604 160.390,88.874 160.390 C 89.145 160.390,89.366 160.242,89.366 160.062 C 89.366 159.594,96.857 154.095,102.829 150.179 C 107.571 147.069,109.384 145.971,112.780 144.148 C 113.531 143.744,114.234 143.327,114.341 143.220 C 115.039 142.523,126.713 136.831,130.732 135.228 C 131.698 134.843,133.058 134.281,133.755 133.978 C 135.687 133.139,143.652 130.298,144.985 129.972 C 145.634 129.813,146.544 129.480,147.008 129.232 C 147.472 128.984,148.216 128.780,148.663 128.780 C 149.109 128.780,149.779 128.621,150.152 128.427 C 150.772 128.103,153.841 127.250,157.268 126.448 C 158.020 126.272,159.512 125.909,160.585 125.641 C 161.659 125.373,163.415 125.013,164.488 124.839 C 165.561 124.666,167.580 124.340,168.976 124.114 C 170.371 123.888,171.776 123.603,172.098 123.481 C 172.675 123.261,177.333 122.743,183.805 122.180 C 188.403 121.779,206.236 121.765,210.732 122.159 M368.218 330.329 C 368.635 330.644,369.371 330.908,369.854 330.914 C 370.337 330.921,370.733 331.059,370.734 331.220 C 370.736 331.380,371.344 331.925,372.085 332.430 C 373.635 333.486,375.805 336.656,375.805 337.865 C 375.805 338.316,375.980 338.794,376.195 338.927 C 376.410 339.059,376.585 340.201,376.585 341.463 C 376.585 342.726,376.410 343.867,376.195 344.000 C 375.980 344.133,375.805 344.611,375.805 345.062 C 375.805 347.005,371.299 351.970,369.497 352.012 C 369.210 352.019,368.635 352.283,368.218 352.598 C 367.555 353.100,346.347 353.171,197.595 353.171 L 27.729 353.171 25.572 352.150 C 23.326 351.086,20.787 348.847,20.031 347.263 C 17.678 342.331,17.712 340.088,20.207 335.415 C 21.173 333.607,22.765 332.191,25.246 330.935 L 27.512 329.787 197.486 329.772 C 346.351 329.758,367.555 329.827,368.218 330.329 " stroke="none" fill="#fbfbfb" fill-rule="evenodd"></path><path id="path3" d="M192.585 39.796 C 192.156 39.985,190.542 40.153,188.999 40.168 C 187.455 40.183,186.084 40.371,185.951 40.585 C 185.819 40.800,185.325 40.977,184.855 40.978 C 184.385 40.979,183.497 41.243,182.882 41.563 C 182.267 41.884,181.580 42.146,181.355 42.146 C 180.660 42.146,177.951 43.449,177.951 43.782 C 177.951 43.956,177.600 44.098,177.171 44.098 C 176.741 44.098,176.390 44.261,176.390 44.462 C 176.390 44.662,176.020 44.943,175.567 45.087 C 173.532 45.733,166.453 52.855,164.886 55.833 C 164.499 56.569,164.036 57.434,163.858 57.756 C 161.230 62.503,159.873 68.068,159.955 73.756 C 160.005 77.167,160.456 81.370,160.811 81.737 C 161.009 81.940,161.172 82.467,161.173 82.907 C 161.174 83.347,161.438 84.210,161.759 84.825 C 162.079 85.440,162.341 86.190,162.341 86.491 C 162.341 86.793,162.742 87.695,163.231 88.496 C 163.720 89.296,164.462 90.610,164.880 91.415 C 165.299 92.220,165.777 92.878,165.942 92.878 C 166.108 92.878,166.244 93.052,166.244 93.265 C 166.244 93.952,169.167 97.167,172.318 99.945 C 174.002 101.430,177.816 103.805,178.518 103.805 C 178.850 103.805,179.122 103.947,179.122 104.120 C 179.122 104.561,181.936 105.756,182.974 105.756 C 183.446 105.756,184.221 105.999,184.697 106.295 C 187.256 107.891,200.256 107.891,202.816 106.295 C 203.291 105.999,204.111 105.756,204.638 105.756 C 205.603 105.756,208.084 104.640,208.325 104.098 C 208.397 103.937,208.724 103.805,209.053 103.805 C 211.234 103.805,222.049 94.110,222.049 92.155 C 222.049 91.909,222.180 91.706,222.341 91.705 C 222.734 91.702,224.000 89.445,224.000 88.749 C 224.000 88.444,224.162 88.195,224.359 88.195 C 224.557 88.195,224.834 87.670,224.975 87.029 C 225.116 86.387,225.393 85.762,225.591 85.640 C 225.789 85.518,225.951 84.936,225.951 84.348 C 225.951 83.759,226.122 83.108,226.330 82.899 C 227.968 81.262,227.968 66.251,226.330 64.613 C 226.122 64.405,225.951 63.823,225.951 63.320 C 225.951 62.017,222.560 55.121,221.244 53.750 C 220.935 53.428,220.068 52.415,219.317 51.499 C 218.566 50.583,217.863 49.728,217.756 49.599 C 217.649 49.471,216.771 48.727,215.805 47.946 C 214.839 47.165,213.627 46.155,213.111 45.702 C 212.595 45.249,211.937 44.878,211.648 44.878 C 211.358 44.878,211.122 44.702,211.122 44.488 C 211.122 44.273,210.781 44.098,210.364 44.098 C 209.948 44.098,209.505 43.933,209.381 43.732 C 209.094 43.268,206.864 42.146,206.229 42.146 C 205.964 42.146,205.245 41.884,204.630 41.563 C 204.015 41.243,203.152 40.979,202.712 40.978 C 202.272 40.977,201.745 40.817,201.541 40.622 C 201.338 40.428,199.766 40.185,198.049 40.083 C 196.332 39.980,194.576 39.796,194.146 39.674 C 193.717 39.551,193.015 39.606,192.585 39.796 M200.724 41.198 C 209.152 43.350,214.733 46.878,220.065 53.423 C 220.799 54.323,221.601 55.447,221.849 55.920 C 222.096 56.393,222.734 57.571,223.267 58.537 C 224.286 60.384,225.039 62.352,226.129 66.021 C 226.983 68.897,227.044 78.217,226.225 80.797 C 225.922 81.754,225.443 83.327,225.161 84.293 C 224.375 86.987,221.705 91.895,219.830 94.091 C 218.903 95.178,217.925 96.359,217.656 96.716 C 215.780 99.214,208.506 103.903,204.878 104.952 C 203.912 105.231,202.420 105.723,201.561 106.045 C 199.144 106.952,189.022 106.906,185.951 105.974 C 181.190 104.529,180.365 104.220,178.496 103.181 C 174.766 101.109,173.528 100.189,170.757 97.428 C 166.393 93.080,163.565 88.557,162.178 83.707 C 161.810 82.420,161.344 80.962,161.144 80.469 C 159.618 76.708,161.153 64.622,163.806 59.512 C 164.363 58.439,165.096 57.022,165.434 56.364 C 166.591 54.111,170.577 49.700,173.387 47.563 C 177.674 44.302,180.999 42.741,187.317 41.027 C 189.611 40.404,198.037 40.512,200.724 41.198 M183.805 122.180 C 177.333 122.743,172.675 123.261,172.098 123.481 C 171.776 123.603,170.371 123.888,168.976 124.114 C 167.580 124.340,165.561 124.666,164.488 124.839 C 163.415 125.013,161.659 125.373,160.585 125.641 C 159.512 125.909,158.020 126.272,157.268 126.448 C 153.841 127.250,150.772 128.103,150.152 128.427 C 149.779 128.621,149.109 128.780,148.663 128.780 C 148.216 128.780,147.472 128.984,147.008 129.232 C 146.544 129.480,145.634 129.813,144.985 129.972 C 143.652 130.298,135.687 133.139,133.755 133.978 C 133.058 134.281,131.698 134.843,130.732 135.228 C 126.713 136.831,115.039 142.523,114.341 143.220 C 114.234 143.327,113.531 143.744,112.780 144.148 C 109.384 145.971,107.571 147.069,102.829 150.179 C 96.857 154.095,89.366 159.594,89.366 160.062 C 89.366 160.242,89.145 160.390,88.874 160.390 C 88.604 160.390,87.942 160.785,87.404 161.268 C 86.865 161.751,85.199 163.198,83.700 164.483 C 76.833 170.374,67.940 179.271,62.851 185.343 C 61.898 186.481,60.929 187.611,60.699 187.853 C 58.927 189.715,49.951 201.949,49.951 202.501 C 49.951 202.699,49.803 202.920,49.621 202.992 C 49.315 203.112,44.173 211.232,42.125 214.829 C 40.751 217.240,35.070 228.581,33.713 231.622 C 32.644 234.015,31.867 235.906,30.829 238.634 C 30.339 239.923,29.196 242.874,28.864 243.707 C 28.693 244.137,28.466 244.839,28.359 245.268 C 28.252 245.698,27.948 246.663,27.682 247.415 C 26.012 252.147,25.366 254.290,25.366 255.096 C 25.366 255.507,25.209 256.011,25.017 256.215 C 24.692 256.559,24.234 258.233,23.421 262.049 C 23.238 262.907,22.798 264.839,22.443 266.341 C 22.089 267.844,21.644 270.039,21.454 271.220 C 21.264 272.400,20.825 275.122,20.479 277.268 C 17.975 292.788,18.139 304.974,20.911 309.334 C 22.360 311.614,25.479 314.093,28.111 315.058 C 30.909 316.085,363.984 316.057,366.874 315.030 C 367.923 314.658,368.780 314.219,368.780 314.055 C 368.780 313.890,369.059 313.756,369.400 313.756 C 370.196 313.756,373.970 309.899,374.799 308.237 C 376.675 304.475,376.889 295.128,375.351 284.098 C 375.126 282.488,374.805 279.941,374.638 278.439 C 374.471 276.937,374.040 274.215,373.681 272.390 C 373.322 270.566,372.889 268.283,372.718 267.317 C 372.112 263.893,369.855 255.077,369.170 253.463 C 368.988 253.034,368.756 252.244,368.654 251.707 C 368.553 251.171,368.250 250.117,367.981 249.366 C 367.713 248.615,367.368 247.649,367.215 247.220 C 367.062 246.790,366.717 245.737,366.448 244.878 C 366.179 244.020,365.732 242.790,365.455 242.146 C 365.178 241.502,364.643 240.098,364.265 239.024 C 363.887 237.951,363.432 236.906,363.253 236.702 C 363.073 236.499,362.927 236.116,362.927 235.852 C 362.927 234.918,354.647 217.815,352.561 214.439 C 352.030 213.580,351.416 212.527,351.196 212.098 C 350.574 210.884,349.931 209.847,348.976 208.517 C 348.493 207.844,348.098 207.210,348.098 207.106 C 348.098 206.776,344.817 201.956,344.500 201.821 C 344.332 201.750,344.195 201.509,344.195 201.286 C 344.195 201.063,342.402 198.488,340.210 195.562 C 336.666 190.833,335.048 188.831,330.732 183.835 C 326.079 178.450,320.368 172.664,314.523 167.415 C 312.491 165.590,310.741 164.005,310.634 163.892 C 310.527 163.779,309.649 163.080,308.683 162.337 C 307.717 161.594,306.698 160.768,306.418 160.500 C 305.600 159.718,297.333 153.600,295.415 152.357 C 294.449 151.732,293.600 151.088,293.528 150.927 C 293.457 150.766,293.238 150.634,293.042 150.634 C 292.845 150.634,291.850 150.037,290.830 149.308 C 289.810 148.578,288.273 147.603,287.415 147.141 C 285.672 146.203,284.756 145.665,283.319 144.732 C 282.781 144.383,280.830 143.303,278.984 142.331 C 277.137 141.360,275.293 140.382,274.886 140.158 C 272.928 139.081,265.516 135.723,261.854 134.253 C 256.170 131.972,255.167 131.604,251.512 130.463 C 250.439 130.128,249.008 129.612,248.331 129.317 C 247.655 129.022,246.731 128.780,246.277 128.780 C 245.824 128.780,245.148 128.621,244.775 128.427 C 244.155 128.103,241.085 127.250,237.659 126.448 C 236.907 126.272,235.415 125.909,234.341 125.641 C 233.268 125.373,231.512 125.013,230.439 124.839 C 229.366 124.666,227.346 124.340,225.951 124.114 C 224.556 123.888,223.151 123.603,222.829 123.481 C 222.251 123.261,217.937 122.789,210.732 122.159 C 206.236 121.765,188.403 121.779,183.805 122.180 M211.317 122.719 C 214.751 123.033,218.790 123.476,220.293 123.705 C 228.134 124.899,233.217 125.851,236.878 126.811 C 237.629 127.008,239.385 127.454,240.780 127.801 C 242.176 128.149,243.756 128.581,244.293 128.762 C 244.829 128.943,246.322 129.382,247.610 129.739 C 248.898 130.095,250.256 130.553,250.629 130.755 C 251.002 130.957,251.566 131.122,251.884 131.122 C 252.201 131.122,253.038 131.373,253.743 131.679 C 254.448 131.986,256.780 132.891,258.927 133.691 C 269.347 137.572,283.309 144.848,293.659 151.791 C 297.088 154.091,305.024 159.915,305.951 160.811 C 306.273 161.122,307.327 161.987,308.293 162.732 C 309.259 163.477,310.241 164.264,310.477 164.482 C 310.712 164.700,312.117 165.928,313.599 167.212 C 320.578 173.260,332.201 185.671,336.995 192.195 C 337.626 193.054,338.247 193.844,338.374 193.951 C 339.441 194.846,348.584 208.423,350.726 212.293 C 351.380 213.473,352.467 215.405,353.142 216.585 C 355.603 220.887,362.537 235.383,362.537 236.225 C 362.537 236.498,362.682 236.889,362.860 237.093 C 363.038 237.297,363.760 239.044,364.464 240.976 C 365.168 242.907,365.885 244.839,366.056 245.268 C 366.328 245.949,368.961 254.451,369.923 257.756 C 370.110 258.400,370.553 260.244,370.907 261.854 C 371.261 263.463,371.705 265.395,371.894 266.146 C 372.211 267.405,372.956 271.372,373.871 276.683 C 374.831 282.249,375.461 290.102,375.532 297.381 L 375.610 305.366 374.534 307.519 C 372.723 311.142,369.866 313.562,366.065 314.691 C 362.827 315.652,32.100 315.652,28.862 314.691 C 19.731 311.979,17.425 303.196,20.320 282.146 C 22.261 268.038,24.107 259.982,28.363 247.050 C 30.269 241.261,30.671 240.219,34.389 231.415 C 36.731 225.870,42.459 215.036,45.859 209.722 C 46.607 208.552,47.220 207.520,47.220 207.429 C 47.220 207.090,53.305 198.302,56.148 194.537 C 63.016 185.439,73.736 173.820,81.366 167.202 C 83.083 165.713,84.576 164.401,84.683 164.286 C 84.790 164.171,85.668 163.470,86.634 162.727 C 87.600 161.985,88.629 161.148,88.921 160.868 C 89.739 160.085,95.040 156.116,98.732 153.524 C 109.639 145.864,123.979 138.227,135.769 133.801 C 138.042 132.947,140.479 131.995,141.184 131.685 C 141.889 131.375,142.725 131.122,143.043 131.122 C 143.361 131.122,143.925 130.957,144.298 130.755 C 144.671 130.553,146.029 130.095,147.317 129.739 C 148.605 129.382,150.098 128.943,150.634 128.762 C 151.171 128.581,152.751 128.151,154.146 127.807 C 155.541 127.463,157.210 127.032,157.854 126.850 C 158.954 126.540,161.774 125.937,167.220 124.850 C 178.980 122.501,198.564 121.555,211.317 122.719 M187.902 149.672 C 181.890 150.106,177.904 150.608,171.122 151.785 C 169.111 152.134,159.094 154.644,155.512 155.696 C 153.264 156.357,146.531 158.805,145.859 159.206 C 145.486 159.428,145.008 159.610,144.796 159.610 C 143.470 159.610,127.681 167.494,122.146 170.921 C 115.868 174.808,106.499 181.348,105.366 182.635 C 105.259 182.756,104.644 183.260,104.000 183.754 C 85.558 197.903,66.789 223.048,57.211 246.439 C 55.980 249.444,54.825 252.254,54.644 252.683 C 51.243 260.745,45.647 286.467,47.042 287.625 C 47.332 287.865,101.684 287.966,197.699 287.903 L 347.902 287.805 347.819 284.878 C 347.774 283.268,347.564 281.073,347.353 280.000 C 347.142 278.927,346.673 276.468,346.309 274.537 C 343.860 261.514,339.276 248.424,332.508 235.122 C 320.006 210.552,300.545 188.965,276.985 173.534 C 274.467 171.885,272.319 170.537,272.211 170.537 C 272.102 170.537,270.892 169.850,269.522 169.011 C 262.497 164.711,247.466 158.064,239.415 155.697 C 235.848 154.648,225.817 152.134,223.805 151.784 C 209.884 149.367,200.097 148.791,187.902 149.672 M25.246 330.935 C 20.990 333.090,18.341 337.129,18.341 341.463 C 18.341 343.295,18.660 344.389,20.031 347.263 C 20.787 348.847,23.326 351.086,25.572 352.150 L 27.729 353.171 197.595 353.171 C 346.347 353.171,367.555 353.100,368.218 352.598 C 368.635 352.283,369.210 352.019,369.497 352.012 C 371.299 351.970,375.805 347.005,375.805 345.062 C 375.805 344.611,375.980 344.133,376.195 344.000 C 376.410 343.867,376.585 342.726,376.585 341.463 C 376.585 340.201,376.410 339.059,376.195 338.927 C 375.980 338.794,375.805 338.316,375.805 337.865 C 375.805 336.656,373.635 333.486,372.085 332.430 C 371.344 331.925,370.736 331.380,370.734 331.220 C 370.733 331.059,370.337 330.921,369.854 330.914 C 369.371 330.908,368.635 330.644,368.218 330.329 C 367.555 329.827,346.351 329.758,197.486 329.772 L 27.512 329.787 25.246 330.935 M369.566 331.577 C 377.563 335.417,377.587 347.503,369.605 351.332 L 367.805 352.195 198.439 352.304 C 17.800 352.420,27.026 352.521,23.955 350.408 C 16.506 345.283,18.059 334.460,26.732 331.054 C 27.625 330.704,68.215 330.611,197.854 330.663 L 367.805 330.732 369.566 331.577 " stroke="none" fill="#c4cbdb" fill-rule="evenodd"></path></g></svg>