<svg id="svg" version="1.1" xmlns="http://www.w3.org/2000/svg" xmlns:xlink="http://www.w3.org/1999/xlink" width="400" height="340.7407407407407" viewBox="0, 0, 400,340.7407407407407"><g id="svgg"><path id="path0" d="M280.648 19.163 C 257.269 23.122,237.905 40.390,233.274 61.408 C 233.085 62.267,232.842 63.201,232.733 63.483 C 232.597 63.839,233.191 64.422,234.683 65.394 C 241.555 69.872,248.996 77.244,254.014 84.545 C 255.685 86.977,256.113 87.261,255.440 85.491 C 254.848 83.934,254.049 78.434,254.056 75.959 C 254.065 72.634,255.385 65.470,256.142 64.638 C 256.304 64.460,256.436 64.106,256.436 63.851 C 256.436 63.005,259.227 57.742,260.804 55.612 C 280.620 28.859,322.762 42.873,322.762 76.215 C 322.762 82.185,322.728 82.405,320.992 87.639 C 312.715 112.584,279.603 118.678,262.300 98.438 C 261.099 97.033,260.989 97.716,262.064 99.915 C 264.471 104.840,266.667 116.440,266.667 124.233 L 266.667 129.159 267.775 129.575 C 268.384 129.805,269.190 130.115,269.565 130.264 C 279.532 134.242,295.049 134.491,306.223 130.852 C 306.880 130.638,307.570 130.363,307.758 130.240 C 307.945 130.118,308.550 129.909,309.101 129.777 C 314.120 128.574,323.747 122.301,329.096 116.748 C 362.381 82.197,343.765 26.791,296.295 19.120 C 293.605 18.685,283.301 18.713,280.648 19.163 M90.708 20.094 C 64.960 24.789,47.111 42.938,42.809 68.798 C 40.618 81.970,45.047 100.222,52.876 110.282 C 62.289 122.378,72.009 129.081,85.081 132.491 C 95.689 135.258,109.568 134.565,119.351 130.781 L 121.228 130.055 121.444 124.107 C 121.748 115.724,122.881 109.257,125.278 102.217 C 125.901 100.388,126.395 98.893,126.377 98.893 C 126.358 98.894,125.113 100.084,123.610 101.536 C 107.758 116.857,82.960 114.066,70.733 95.585 C 69.715 94.047,68.883 92.709,68.883 92.610 C 68.883 92.512,68.517 91.621,68.070 90.632 C 58.832 70.185,71.881 46.555,94.498 42.773 C 117.335 38.954,137.874 60.140,133.499 83.002 C 132.894 86.166,132.978 86.419,134.056 84.673 C 137.178 79.613,145.272 71.326,151.524 66.790 C 153.616 65.271,155.298 63.855,155.261 63.643 C 150.502 36.359,118.799 14.972,90.708 20.094 M36.303 126.257 C 28.762 134.632,22.094 146.410,18.880 157.033 C 15.512 168.163,14.929 173.884,15.070 194.373 L 15.175 209.548 16.136 211.424 C 17.677 214.432,19.537 216.126,22.847 217.533 C 24.521 218.244,79.743 218.533,80.187 217.833 C 80.546 217.267,80.556 196.048,80.198 195.484 C 79.989 195.156,75.218 195.041,58.976 194.973 L 38.022 194.885 38.058 185.768 C 38.133 167.045,42.518 154.066,52.722 142.366 L 54.881 139.891 51.567 136.669 C 48.046 133.248,43.246 128.700,40.374 126.064 C 38.217 124.085,38.261 124.083,36.303 126.257 M348.454 126.268 C 347.392 127.247,344.937 129.496,342.998 131.267 C 332.804 140.572,333.572 139.367,335.997 142.257 C 341.052 148.281,344.762 155.010,347.100 162.396 C 349.624 170.370,349.900 172.364,350.114 184.228 L 350.298 194.373 329.113 194.373 L 307.928 194.373 307.928 205.803 L 307.928 217.232 336.317 217.141 L 364.706 217.050 366.581 216.152 C 368.876 215.053,370.773 213.219,371.980 210.932 L 372.890 209.207 372.890 190.963 C 372.890 172.347,372.888 172.316,371.481 164.876 C 368.871 151.082,361.769 136.765,351.985 125.575 C 350.746 124.158,350.741 124.159,348.454 126.268 M115.194 191.869 C 103.956 201.948,94.105 214.842,87.749 227.792 C 85.677 232.014,83.887 235.978,83.887 236.347 C 83.887 236.523,83.744 236.934,83.568 237.260 C 83.392 237.585,82.863 238.926,82.392 240.239 C 79.283 248.909,77.538 256.211,75.996 267.008 C 75.103 273.253,75.340 319.293,76.274 321.228 C 77.477 323.719,79.276 325.530,81.763 326.755 L 84.044 327.877 194.196 327.877 L 304.348 327.877 306.288 326.924 C 308.649 325.765,311.256 323.005,312.176 320.689 C 313.431 317.535,313.296 274.265,312.005 265.585 C 310.426 254.968,307.530 243.948,304.358 236.488 C 304.119 235.925,303.638 234.774,303.290 233.930 C 297.368 219.597,285.444 202.932,273.700 192.578 L 271.014 190.210 270.284 191.013 C 269.882 191.455,267.871 193.811,265.816 196.249 C 263.760 198.687,261.998 200.759,261.900 200.853 C 261.802 200.946,261.152 201.733,260.455 202.601 C 259.758 203.468,258.573 204.850,257.821 205.670 C 256.194 207.446,256.147 207.758,257.374 208.643 C 257.890 209.015,259.875 210.905,261.784 212.844 C 277.025 228.314,285.809 245.716,289.125 267.008 C 290.039 272.876,290.241 277.666,290.135 291.049 L 290.026 305.030 194.203 305.030 L 98.380 305.030 98.380 288.491 C 98.380 271.395,98.452 270.212,99.946 262.575 C 103.998 241.870,114.339 223.647,130.179 209.298 C 132.874 206.857,133.024 207.420,128.133 201.631 C 125.835 198.912,122.686 195.169,121.134 193.314 C 117.825 189.357,117.959 189.389,115.194 191.869 M182.863 231.626 L 182.950 265.132 194.032 265.132 L 205.115 265.132 205.202 231.626 L 205.289 198.119 202.815 198.372 C 199.581 198.702,189.555 198.706,185.761 198.378 L 182.776 198.120 182.863 231.626 " stroke="none" fill="#1f2f47" fill-rule="evenodd"></path><path id="path1" d="M183.120 53.862 C 141.578 60.629,114.460 99.740,122.934 140.665 C 129.967 174.626,159.468 198.599,194.203 198.579 C 203.195 198.574,203.851 198.498,211.424 196.583 C 252.693 186.149,276.598 142.758,263.084 102.813 C 261.273 97.461,260.710 96.209,257.181 89.685 C 247.299 71.416,228.542 58.283,206.220 54.006 C 201.676 53.136,188.100 53.051,183.120 53.862 " stroke="none" fill="#fb1c1c" fill-rule="evenodd"></path><path id="path2" d="M0.000 170.503 L 0.000 341.006 200.000 341.006 L 400.000 341.006 400.000 170.503 L 400.000 0.000 200.000 0.000 L 0.000 0.000 0.000 170.503 M294.837 18.616 C 297.442 18.914,300.418 19.388,301.449 19.668 C 302.481 19.949,303.939 20.325,304.689 20.504 C 306.597 20.959,312.508 23.252,312.646 23.591 C 312.708 23.745,312.938 23.871,313.157 23.872 C 313.997 23.875,321.277 28.071,321.512 28.687 C 321.574 28.851,321.777 28.986,321.962 28.986 C 322.148 28.986,322.502 29.177,322.749 29.412 C 322.996 29.646,323.628 30.145,324.153 30.520 C 328.515 33.635,335.512 41.569,338.138 46.377 C 338.496 47.033,338.870 47.647,338.969 47.741 C 339.341 48.093,342.029 53.858,342.029 54.302 C 342.029 54.557,342.161 54.911,342.323 55.090 C 342.637 55.434,343.281 57.134,343.739 58.824 C 343.891 59.386,344.274 60.767,344.590 61.893 C 346.922 70.206,346.670 85.635,344.093 92.242 C 343.947 92.617,343.563 93.768,343.240 94.800 C 342.538 97.042,342.468 97.214,340.685 101.029 C 338.208 106.332,334.235 112.027,329.970 116.389 C 326.855 119.576,326.893 119.203,329.504 120.918 C 332.285 122.746,336.270 125.966,339.519 129.011 C 340.955 130.357,342.195 131.431,342.274 131.398 C 342.354 131.366,344.111 129.755,346.179 127.818 C 350.893 123.405,350.661 123.528,351.821 124.833 C 352.343 125.420,353.344 126.537,354.045 127.315 C 354.745 128.093,355.321 128.821,355.323 128.932 C 355.326 129.044,355.716 129.581,356.191 130.126 C 357.377 131.488,361.167 137.190,362.403 139.471 C 365.050 144.357,367.604 149.701,367.604 150.352 C 367.604 150.562,367.740 151.000,367.906 151.326 C 369.040 153.556,370.875 159.586,371.768 164.024 C 373.072 170.492,373.156 171.955,373.290 190.364 L 373.424 208.690 372.497 210.654 C 371.323 213.138,369.289 215.324,367.287 216.251 C 366.430 216.648,365.361 217.143,364.910 217.352 C 364.330 217.622,355.908 217.732,335.925 217.732 L 307.758 217.732 307.758 205.968 L 307.758 194.203 319.457 194.113 L 331.155 194.023 331.017 184.224 C 330.704 162.087,325.357 147.375,312.229 132.535 C 309.989 130.003,309.832 129.958,306.809 130.983 C 296.851 134.358,283.886 134.821,274.339 132.143 C 273.214 131.828,271.833 131.439,271.270 131.281 C 269.907 130.897,267.962 130.154,267.434 129.815 C 267.150 129.633,267.003 129.749,266.993 130.159 C 266.945 132.158,265.567 141.188,264.974 143.393 C 263.384 149.297,262.957 150.521,260.689 155.669 C 258.681 160.226,258.137 161.227,255.126 165.899 C 249.843 174.095,242.674 181.309,234.164 186.993 C 231.026 189.089,221.556 194.032,220.678 194.032 C 220.460 194.032,220.014 194.180,219.688 194.359 C 218.800 194.850,214.318 196.235,211.424 196.912 C 210.017 197.241,208.214 197.669,207.417 197.862 L 205.968 198.213 205.968 231.746 C 205.968 264.550,205.953 265.286,205.308 265.632 C 204.412 266.111,183.653 266.111,182.757 265.632 C 182.112 265.286,182.097 264.550,182.097 231.746 L 182.097 198.213 180.648 197.843 C 179.851 197.639,178.124 197.225,176.812 196.922 C 172.814 196.001,167.290 194.078,163.379 192.245 C 160.751 191.013,160.644 191.047,156.004 194.560 C 135.387 210.168,121.014 232.174,115.478 256.607 C 113.063 267.267,112.801 270.344,112.748 288.662 L 112.702 304.348 201.068 304.434 L 289.434 304.520 289.687 291.365 C 289.868 281.988,289.825 277.164,289.538 274.569 C 288.493 265.101,288.505 265.185,287.483 260.017 C 287.260 258.892,286.936 257.705,286.762 257.379 C 286.587 257.053,286.445 256.410,286.445 255.950 C 286.445 255.489,286.309 255.029,286.143 254.926 C 285.977 254.824,285.738 254.051,285.612 253.209 C 285.486 252.367,285.238 251.589,285.061 251.480 C 284.885 251.371,284.740 250.916,284.740 250.469 C 284.740 250.022,284.604 249.573,284.438 249.470 C 284.271 249.367,284.039 248.768,283.920 248.138 C 283.802 247.508,283.325 246.202,282.859 245.237 C 282.393 244.272,282.012 243.381,282.012 243.258 C 282.012 243.134,281.064 241.100,279.906 238.738 C 277.381 233.588,273.314 226.925,270.523 223.366 C 267.100 219.001,264.949 216.588,260.849 212.509 C 255.098 206.790,255.123 208.126,260.652 201.755 C 261.001 201.352,261.845 200.332,262.527 199.488 C 263.210 198.645,263.849 197.877,263.949 197.783 C 264.048 197.690,265.351 196.155,266.843 194.373 C 270.681 189.793,270.621 189.850,271.326 190.077 C 272.179 190.351,281.017 199.011,283.922 202.419 C 286.376 205.298,286.557 205.518,288.496 208.002 C 289.150 208.839,289.951 209.825,290.277 210.193 C 290.604 210.561,290.959 211.142,291.068 211.484 C 291.176 211.826,291.408 212.106,291.583 212.106 C 291.758 212.106,291.901 212.323,291.901 212.589 C 291.901 212.855,292.022 213.123,292.169 213.186 C 293.282 213.658,303.836 232.651,303.836 234.183 C 303.836 234.349,304.220 235.280,304.689 236.252 C 305.158 237.224,305.541 238.326,305.541 238.703 C 305.541 239.079,305.656 239.388,305.797 239.389 C 305.938 239.391,306.335 240.350,306.680 241.520 C 307.025 242.691,307.440 243.956,307.601 244.331 C 308.198 245.720,308.951 248.297,308.951 248.951 C 308.951 249.322,309.098 249.892,309.277 250.218 C 309.709 251.006,310.656 255.066,310.656 256.134 C 310.656 256.601,310.794 257.128,310.963 257.306 C 311.131 257.484,311.351 258.244,311.452 258.994 C 311.553 259.744,311.879 262.046,312.176 264.109 C 313.383 272.495,314.355 315.709,313.409 318.923 C 311.972 323.804,308.547 327.458,304.689 328.228 C 302.602 328.644,85.190 328.804,84.775 328.390 C 84.587 328.202,84.009 328.048,83.490 328.048 C 82.453 328.048,80.136 327.062,80.136 326.621 C 80.136 326.468,79.959 326.343,79.741 326.343 C 79.261 326.343,76.595 323.489,76.123 322.470 C 74.495 318.952,74.577 320.619,74.763 294.899 C 74.876 279.234,75.066 270.398,75.311 269.395 C 75.517 268.551,75.853 266.326,76.057 264.450 C 76.627 259.231,76.771 258.339,77.102 257.988 C 77.271 257.810,77.408 257.221,77.408 256.680 C 77.408 255.577,78.351 251.470,78.813 250.559 C 78.978 250.233,79.113 249.685,79.113 249.341 C 79.113 248.764,79.824 246.293,80.457 244.672 C 80.603 244.297,81.006 243.069,81.351 241.944 C 81.697 240.818,82.086 239.668,82.217 239.386 C 82.347 239.105,82.720 238.184,83.046 237.340 C 87.410 226.046,94.004 214.794,101.933 205.115 C 108.649 196.917,118.670 187.581,118.670 189.523 C 118.670 189.694,119.444 190.740,120.390 191.848 C 121.337 192.956,122.372 194.179,122.692 194.567 C 125.867 198.419,124.999 198.396,129.828 194.756 C 134.483 191.248,139.914 187.818,144.966 185.196 L 148.523 183.350 143.047 177.864 C 136.130 170.935,132.123 165.421,128.527 157.886 C 127.946 156.667,127.310 155.368,127.114 155.000 C 126.579 153.995,124.407 147.950,124.230 146.974 C 124.145 146.505,123.942 145.814,123.780 145.439 C 123.181 144.054,122.216 138.986,121.638 134.186 C 121.412 132.310,121.074 130.784,120.887 130.795 C 120.283 130.828,118.510 131.373,118.159 131.634 C 117.971 131.772,116.667 132.156,115.260 132.487 C 113.853 132.818,112.396 133.206,112.020 133.350 C 107.599 135.045,90.172 135.011,86.876 133.300 C 86.550 133.131,86.002 132.992,85.658 132.992 C 84.970 132.992,81.995 132.100,81.116 131.631 C 78.607 130.289,76.944 131.469,72.037 138.077 C 61.355 152.464,57.490 164.633,57.055 185.251 L 56.855 194.714 68.630 194.714 C 79.052 194.714,80.428 194.776,80.611 195.254 C 80.882 195.958,80.882 217.341,80.611 218.045 C 80.291 218.881,26.132 218.863,23.241 218.027 C 20.101 217.119,17.154 214.715,15.983 212.106 C 14.613 209.052,14.630 209.348,14.772 191.284 C 14.910 173.829,15.138 170.029,16.336 165.217 C 16.523 164.467,16.833 163.086,17.026 162.148 C 17.606 159.319,19.286 154.066,20.159 152.349 C 20.325 152.023,20.460 151.612,20.460 151.435 C 20.460 149.630,28.482 135.062,31.468 131.443 C 31.771 131.076,32.756 129.856,33.656 128.731 C 36.026 125.772,37.908 123.784,38.333 123.790 C 38.537 123.792,40.519 125.560,42.737 127.719 L 46.769 131.642 49.045 129.488 C 52.565 126.156,55.156 124.040,58.259 121.964 L 61.105 120.060 59.112 118.071 C 55.427 114.393,51.641 109.583,49.920 106.394 C 49.565 105.737,49.194 105.124,49.095 105.030 C 48.996 104.936,48.617 104.169,48.252 103.325 C 47.888 102.481,47.504 101.714,47.400 101.620 C 47.296 101.526,46.930 100.759,46.588 99.915 C 46.246 99.071,45.859 98.150,45.729 97.869 C 45.599 97.587,45.209 96.436,44.864 95.311 C 44.518 94.186,44.124 92.958,43.988 92.583 C 41.474 85.661,41.474 68.133,43.988 61.211 C 44.124 60.835,44.514 59.608,44.855 58.483 C 45.196 57.357,45.601 56.291,45.755 56.113 C 45.909 55.934,46.036 55.592,46.036 55.352 C 46.036 52.225,55.722 38.184,60.729 34.053 C 61.557 33.370,62.694 32.407,63.257 31.911 C 66.783 28.808,76.256 23.449,80.136 22.361 C 80.605 22.230,81.296 22.000,81.671 21.850 C 83.394 21.162,86.588 20.420,91.977 19.454 C 94.615 18.981,105.120 18.967,106.733 19.433 C 107.388 19.623,108.416 19.778,109.018 19.778 C 109.620 19.778,110.465 19.914,110.896 20.079 C 111.327 20.245,112.907 20.654,114.408 20.989 C 115.908 21.324,117.281 21.725,117.460 21.881 C 117.638 22.038,117.998 22.165,118.260 22.165 C 118.743 22.165,119.311 22.392,122.857 24.000 C 123.940 24.491,124.976 24.893,125.159 24.893 C 125.341 24.893,125.490 25.047,125.490 25.234 C 125.490 25.422,125.695 25.575,125.945 25.575 C 126.515 25.575,131.114 28.355,133.909 30.389 C 137.222 32.800,143.209 38.688,145.098 41.394 C 145.473 41.931,146.095 42.773,146.480 43.265 C 147.242 44.239,150.725 49.723,150.725 49.948 C 150.725 50.025,151.338 51.392,152.089 52.985 C 152.839 54.579,153.453 56.097,153.453 56.359 C 153.453 56.620,153.552 56.934,153.673 57.055 C 154.006 57.388,155.134 60.782,155.147 61.489 C 155.184 63.580,157.962 62.995,162.148 60.014 C 162.835 59.525,169.391 56.982,172.208 56.112 C 176.851 54.677,178.687 54.269,185.206 53.219 C 188.124 52.749,199.943 52.749,202.859 53.220 C 208.539 54.135,211.120 54.663,213.811 55.460 C 218.385 56.815,219.167 57.089,222.677 58.571 C 224.421 59.306,228.957 61.508,229.156 61.715 C 229.250 61.813,229.962 62.238,230.739 62.661 C 232.386 63.557,232.229 63.739,233.305 59.680 C 233.678 58.275,234.092 56.970,234.227 56.781 C 234.361 56.592,234.754 55.615,235.100 54.612 C 235.722 52.806,238.901 46.366,239.333 46.036 C 239.456 45.942,239.852 45.328,240.213 44.672 C 240.574 44.015,240.966 43.402,241.085 43.308 C 241.203 43.214,241.949 42.217,242.742 41.091 C 244.288 38.898,250.039 32.890,252.003 31.416 C 252.660 30.923,253.579 30.175,254.046 29.753 C 254.513 29.331,255.076 28.986,255.296 28.986 C 255.517 28.986,255.749 28.854,255.811 28.693 C 256.357 27.291,268.013 21.615,272.634 20.502 C 273.384 20.322,274.919 19.931,276.044 19.635 C 281.357 18.234,288.244 17.861,294.837 18.616 M105.541 45.736 C 85.855 58.339,78.772 83.293,88.857 104.518 C 91.166 109.378,91.983 110.325,94.168 110.674 C 104.554 112.331,115.988 108.639,123.402 101.234 C 131.695 92.951,136.121 76.137,132.322 67.349 C 132.160 66.974,131.747 65.823,131.404 64.791 C 131.062 63.760,130.703 62.839,130.608 62.745 C 130.513 62.651,130.151 61.961,129.805 61.211 C 126.864 54.840,119.655 48.218,112.413 45.233 C 108.613 43.668,108.794 43.654,105.541 45.736 M273.146 45.603 C 270.188 46.726,264.155 51.919,260.955 56.095 C 257.169 61.037,254.691 68.708,254.630 75.676 C 254.601 79.074,255.319 84.812,255.812 85.116 C 255.968 85.213,256.095 85.622,256.095 86.026 C 256.095 86.856,260.184 95.081,261.417 96.731 C 269.392 107.403,285.841 113.095,297.357 109.167 C 297.826 109.007,298.824 108.684,299.574 108.449 C 304.248 106.985,305.870 105.698,306.710 102.786 C 313.286 79.994,301.525 55.999,279.444 47.159 C 275.901 45.740,274.013 45.274,273.146 45.603 " stroke="none" fill="#fbfbfb" fill-rule="evenodd"></path><path id="path3" d="M284.399 18.414 C 283.483 18.557,285.200 18.655,288.662 18.659 C 292.642 18.662,293.924 18.581,292.754 18.399 C 290.698 18.079,286.508 18.086,284.399 18.414 M95.993 19.147 C 92.196 19.394,89.246 19.832,85.934 20.641 C 84.714 20.938,83.333 21.270,82.864 21.378 C 82.396 21.486,81.858 21.687,81.671 21.823 C 81.483 21.960,80.904 22.173,80.383 22.298 C 76.793 23.156,66.889 28.715,63.257 31.911 C 62.694 32.407,61.557 33.370,60.729 34.053 C 55.722 38.184,46.036 52.225,46.036 55.352 C 46.036 55.592,45.909 55.934,45.755 56.113 C 45.601 56.291,45.196 57.357,44.855 58.483 C 44.514 59.608,44.124 60.835,43.988 61.211 C 41.474 68.133,41.474 85.661,43.988 92.583 C 44.124 92.958,44.518 94.186,44.864 95.311 C 45.209 96.436,45.599 97.587,45.729 97.869 C 45.859 98.150,46.246 99.071,46.588 99.915 C 46.930 100.759,47.296 101.526,47.400 101.620 C 47.504 101.714,47.888 102.481,48.252 103.325 C 48.617 104.169,48.996 104.936,49.095 105.030 C 49.194 105.124,49.565 105.737,49.920 106.394 C 51.641 109.583,55.427 114.393,59.112 118.071 L 61.105 120.060 58.259 121.964 C 55.156 124.040,52.565 126.156,49.045 129.488 L 46.769 131.642 42.737 127.719 C 40.519 125.560,38.537 123.792,38.333 123.790 C 37.908 123.784,36.026 125.772,33.656 128.731 C 32.756 129.856,31.771 131.076,31.468 131.443 C 28.994 134.441,21.764 147.027,22.241 147.504 C 22.340 147.603,23.077 146.335,23.880 144.686 C 26.789 138.708,31.844 131.210,36.303 126.257 C 38.261 124.083,38.217 124.085,40.374 126.064 C 43.246 128.700,48.046 133.248,51.567 136.669 L 54.881 139.891 52.722 142.366 C 46.671 149.304,41.613 159.317,39.603 168.334 C 38.311 174.134,38.095 176.570,38.058 185.768 L 38.022 194.885 58.976 194.973 C 75.218 195.041,79.989 195.156,80.198 195.484 C 80.556 196.048,80.546 217.267,80.187 217.833 C 79.743 218.533,24.521 218.244,22.847 217.533 C 19.537 216.126,17.677 214.432,16.136 211.424 L 15.175 209.548 15.175 191.320 C 15.175 181.295,15.078 173.546,14.959 174.100 C 14.841 174.653,14.726 182.722,14.704 192.030 C 14.661 209.781,14.631 209.341,16.128 212.447 C 17.261 214.797,20.290 217.174,23.241 218.027 C 26.132 218.863,80.291 218.881,80.611 218.045 C 80.882 217.341,80.882 195.958,80.611 195.254 C 80.428 194.776,79.052 194.714,68.630 194.714 L 56.855 194.714 57.055 185.251 C 57.349 171.318,58.722 163.637,62.556 154.476 C 66.943 143.993,76.571 130.585,79.339 131.105 C 81.023 131.421,80.721 131.105,78.711 130.447 C 70.005 127.600,60.701 120.337,52.876 110.282 C 51.918 109.051,49.054 104.115,47.948 101.790 C 29.717 63.454,57.468 19.423,99.852 19.439 C 102.606 19.440,105.396 19.581,106.053 19.751 C 107.826 20.211,111.379 20.567,111.071 20.254 C 110.361 19.533,100.832 18.833,95.993 19.147 M278.772 19.006 C 278.210 19.087,276.905 19.384,275.874 19.666 C 274.842 19.948,273.384 20.325,272.634 20.505 C 268.038 21.604,256.358 27.289,255.811 28.693 C 255.749 28.854,255.517 28.986,255.296 28.986 C 255.076 28.986,254.513 29.331,254.046 29.753 C 253.579 30.175,252.660 30.923,252.003 31.416 C 250.039 32.890,244.288 38.898,242.742 41.091 C 241.949 42.217,241.203 43.214,241.085 43.308 C 240.966 43.402,240.574 44.015,240.213 44.672 C 239.852 45.328,239.456 45.942,239.333 46.036 C 238.901 46.366,235.722 52.806,235.100 54.612 C 234.754 55.615,234.361 56.592,234.227 56.781 C 234.092 56.970,233.678 58.275,233.305 59.680 C 232.309 63.435,232.286 63.477,231.424 63.061 C 230.709 62.717,230.708 62.721,231.359 63.242 C 232.267 63.970,232.674 63.757,233.014 62.377 C 238.607 39.657,256.733 23.213,280.648 19.163 C 282.684 18.818,281.026 18.679,278.772 19.006 M296.675 19.131 C 344.216 27.785,362.312 82.269,329.096 116.748 C 323.747 122.301,314.120 128.574,309.101 129.777 C 308.550 129.909,307.945 130.128,307.758 130.264 C 307.570 130.400,306.957 130.628,306.394 130.771 C 305.831 130.914,305.548 131.096,305.765 131.177 C 305.982 131.257,306.730 131.085,307.427 130.794 C 309.570 129.898,310.050 130.073,312.229 132.535 C 325.357 147.375,330.704 162.087,331.017 184.224 L 331.155 194.023 319.457 194.113 L 307.758 194.203 307.758 205.968 L 307.758 217.732 335.925 217.732 C 355.908 217.732,364.330 217.622,364.910 217.352 C 365.361 217.143,366.430 216.648,367.287 216.251 C 369.283 215.327,371.323 213.140,372.485 210.678 L 373.402 208.738 373.368 190.899 C 373.349 181.088,373.234 172.705,373.112 172.271 C 372.990 171.837,372.890 179.970,372.890 190.345 L 372.890 209.207 371.980 210.932 C 370.773 213.219,368.876 215.053,366.581 216.152 L 364.706 217.050 336.317 217.141 L 307.928 217.232 307.928 205.803 L 307.928 194.373 329.113 194.373 L 350.298 194.373 350.114 184.228 C 349.900 172.364,349.624 170.370,347.100 162.396 C 344.762 155.010,341.052 148.281,335.997 142.257 C 333.572 139.367,332.804 140.572,342.998 131.267 C 344.937 129.496,347.392 127.247,348.454 126.268 C 349.515 125.289,350.518 124.484,350.682 124.478 C 351.995 124.431,360.391 136.251,363.831 142.989 C 364.851 144.986,365.754 146.550,365.839 146.465 C 365.988 146.317,364.572 143.427,362.411 139.471 C 361.151 137.164,357.361 131.470,356.191 130.126 C 355.716 129.581,355.326 129.044,355.323 128.932 C 355.321 128.821,354.745 128.093,354.045 127.315 C 353.344 126.537,352.343 125.420,351.821 124.833 C 350.661 123.528,350.893 123.405,346.179 127.818 C 344.111 129.755,342.354 131.366,342.274 131.398 C 342.195 131.431,340.955 130.357,339.519 129.011 C 336.270 125.966,332.285 122.746,329.504 120.918 C 326.893 119.203,326.855 119.576,329.970 116.389 C 334.235 112.027,338.208 106.332,340.685 101.029 C 342.468 97.214,342.538 97.042,343.240 94.800 C 343.563 93.768,343.947 92.617,344.093 92.242 C 346.670 85.635,346.922 70.206,344.590 61.893 C 344.274 60.767,343.891 59.386,343.739 58.824 C 343.281 57.134,342.637 55.434,342.323 55.090 C 342.161 54.911,342.029 54.557,342.029 54.302 C 342.029 53.858,339.341 48.093,338.969 47.741 C 338.870 47.647,338.496 47.033,338.138 46.377 C 335.512 41.569,328.515 33.635,324.153 30.520 C 323.628 30.145,322.996 29.646,322.749 29.412 C 322.502 29.177,322.148 28.986,321.962 28.986 C 321.777 28.986,321.574 28.851,321.512 28.687 C 321.277 28.071,313.997 23.875,313.157 23.872 C 312.938 23.871,312.708 23.745,312.646 23.591 C 312.508 23.252,306.597 20.959,304.689 20.504 C 303.939 20.325,302.457 19.941,301.397 19.650 C 300.336 19.360,298.418 19.047,297.134 18.956 L 294.800 18.789 296.675 19.131 M112.532 20.867 C 116.136 21.883,121.237 23.615,122.689 24.315 C 125.053 25.456,125.490 25.597,125.490 25.224 C 125.490 25.042,125.341 24.893,125.159 24.893 C 124.976 24.893,123.940 24.491,122.857 24.000 C 119.302 22.388,118.743 22.165,118.249 22.165 C 117.981 22.165,117.654 22.058,117.523 21.928 C 117.191 21.596,112.850 20.473,112.020 20.504 C 111.632 20.519,111.851 20.675,112.532 20.867 M126.002 25.916 C 126.118 26.104,126.359 26.257,126.537 26.257 C 128.396 26.257,137.952 33.808,142.283 38.698 C 148.012 45.167,154.817 57.813,154.817 61.992 C 154.817 63.545,155.591 63.909,157.175 63.101 C 157.977 62.691,158.562 62.284,158.473 62.196 C 158.385 62.108,157.767 62.358,157.099 62.751 C 155.781 63.529,155.176 63.138,155.147 61.489 C 155.134 60.782,154.006 57.388,153.673 57.055 C 153.552 56.934,153.453 56.620,153.453 56.359 C 153.453 56.097,152.839 54.579,152.089 52.985 C 151.338 51.392,150.725 50.025,150.725 49.948 C 150.725 49.723,147.242 44.239,146.480 43.265 C 146.095 42.773,145.473 41.931,145.098 41.394 C 141.996 36.951,135.173 30.904,129.102 27.216 C 126.446 25.603,125.585 25.242,126.002 25.916 M283.205 41.993 C 276.437 43.577,272.705 45.095,268.805 47.851 C 266.210 49.685,262.603 53.184,260.804 55.612 C 259.227 57.742,256.436 63.005,256.436 63.851 C 256.436 64.106,256.304 64.460,256.142 64.638 C 255.783 65.032,255.151 67.497,254.527 70.929 C 252.293 83.234,258.660 97.588,269.565 104.830 C 273.240 107.270,279.261 109.941,279.822 109.380 C 279.916 109.286,279.181 108.946,278.189 108.625 C 271.852 106.571,265.296 101.922,261.417 96.731 C 260.184 95.081,256.095 86.856,256.095 86.026 C 256.095 85.622,255.968 85.213,255.812 85.116 C 255.319 84.812,254.601 79.074,254.630 75.676 C 254.687 69.193,256.584 62.798,260.033 57.460 C 263.606 51.928,271.379 45.482,274.339 45.594 C 275.757 45.647,281.701 47.885,284.389 49.378 C 303.467 59.973,312.693 82.048,306.710 102.786 C 305.870 105.698,304.227 107.001,299.574 108.445 C 298.824 108.678,297.878 108.993,297.472 109.145 C 294.912 110.105,288.604 110.528,284.791 109.996 C 280.583 109.410,279.794 109.367,280.818 109.783 C 286.083 111.919,298.175 110.373,304.710 106.728 C 313.715 101.705,318.897 94.876,322.301 83.546 C 323.493 79.579,322.823 69.456,321.033 64.382 C 315.732 49.358,297.597 38.623,283.205 41.993 M93.947 42.810 C 71.639 46.963,58.942 70.429,68.070 90.632 C 68.517 91.621,68.883 92.512,68.883 92.610 C 68.883 93.074,72.772 98.592,74.298 100.293 C 77.921 104.332,83.570 107.902,89.314 109.783 C 92.130 110.705,97.881 111.705,95.482 110.856 C 95.013 110.690,94.131 110.539,93.523 110.520 C 92.147 110.478,90.968 108.962,88.857 104.518 C 78.772 83.293,85.855 58.339,105.541 45.736 C 108.794 43.654,108.613 43.668,112.413 45.233 C 119.655 48.218,126.864 54.840,129.805 61.211 C 130.151 61.961,130.513 62.651,130.608 62.745 C 130.703 62.839,131.062 63.760,131.404 64.791 C 131.747 65.823,132.160 66.974,132.322 67.349 C 134.761 72.990,133.866 83.467,130.365 90.267 C 129.178 92.572,128.275 94.459,128.357 94.459 C 129.050 94.459,132.991 85.768,133.472 83.179 C 137.803 59.866,116.916 38.533,93.947 42.810 M185.697 53.152 C 185.145 53.271,188.896 53.367,194.032 53.367 C 199.169 53.367,202.920 53.271,202.368 53.152 C 201.816 53.034,198.065 52.937,194.032 52.937 C 190.000 52.937,186.249 53.034,185.697 53.152 M181.074 53.879 C 179.877 54.262,181.128 54.275,182.950 53.899 L 184.314 53.616 183.120 53.611 C 182.464 53.608,181.543 53.729,181.074 53.879 M205.115 53.879 C 205.678 54.022,206.598 54.139,207.161 54.139 L 208.184 54.139 207.161 53.879 C 206.598 53.736,205.678 53.619,205.115 53.619 L 204.092 53.619 205.115 53.879 M177.575 54.547 C 176.870 54.684,176.179 54.910,176.041 55.050 C 175.754 55.339,178.164 54.945,179.199 54.534 C 180.032 54.203,179.319 54.209,177.575 54.547 M209.037 54.515 C 210.310 54.934,212.762 55.294,211.935 54.940 C 211.560 54.779,210.563 54.555,209.719 54.441 C 208.709 54.305,208.476 54.330,209.037 54.515 M172.402 55.964 C 170.253 56.658,169.332 57.169,170.973 56.757 C 173.185 56.202,175.743 55.305,175.107 55.308 C 174.731 55.310,173.514 55.605,172.402 55.964 M213.299 55.584 C 213.674 55.745,214.211 55.877,214.493 55.877 C 214.815 55.877,214.752 55.769,214.322 55.584 C 213.947 55.423,213.410 55.291,213.129 55.291 C 212.806 55.291,212.869 55.399,213.299 55.584 M215.516 56.215 C 215.797 56.380,216.488 56.614,217.050 56.736 C 217.705 56.878,217.889 56.849,217.562 56.658 C 217.280 56.493,216.590 56.258,216.027 56.137 C 215.373 55.995,215.188 56.024,215.516 56.215 M165.899 58.413 C 162.265 59.949,158.909 61.624,158.909 61.903 C 158.909 61.996,159.970 61.537,161.266 60.884 C 162.563 60.231,164.980 59.138,166.637 58.455 C 168.295 57.772,169.714 57.154,169.793 57.081 C 170.208 56.693,168.956 57.121,165.899 58.413 M219.439 57.573 C 221.132 58.367,222.594 58.830,222.244 58.462 C 221.963 58.166,219.877 57.344,218.755 57.088 C 218.380 57.003,218.688 57.221,219.439 57.573 M224.160 59.545 C 225.069 60.018,225.887 60.331,225.978 60.240 C 226.139 60.079,223.146 58.637,222.719 58.669 C 222.602 58.678,223.250 59.072,224.160 59.545 M126.429 97.783 C 123.439 102.243,116.039 107.517,110.315 109.267 C 109.190 109.611,107.917 110.026,107.486 110.189 C 107.055 110.352,106.135 110.497,105.440 110.510 C 103.771 110.542,102.323 111.110,103.836 111.140 C 107.271 111.207,114.129 108.616,118.999 105.411 C 122.373 103.190,128.693 96.505,127.418 96.505 C 127.345 96.505,126.900 97.080,126.429 97.783 M98.124 111.418 C 98.922 111.489,100.226 111.489,101.023 111.418 C 101.820 111.346,101.168 111.287,99.574 111.287 C 97.980 111.287,97.327 111.346,98.124 111.418 M266.721 130.520 C 266.774 131.765,266.779 131.769,266.913 130.701 C 267.025 129.802,267.154 129.655,267.625 129.892 C 269.199 130.682,270.842 131.285,271.367 131.264 C 271.935 131.242,271.478 130.988,269.565 130.266 C 269.190 130.124,268.454 129.836,267.929 129.625 C 266.630 129.102,266.660 129.080,266.721 130.520 M119.227 130.814 C 118.127 131.248,116.133 131.872,114.794 132.201 C 113.456 132.530,112.629 132.854,112.957 132.920 C 113.524 133.036,116.715 132.262,118.159 131.658 C 121.433 130.287,121.277 130.174,121.574 134.141 C 121.706 135.898,121.948 137.547,122.112 137.806 C 122.490 138.402,122.500 138.620,121.934 134.072 C 121.364 129.481,121.672 129.851,119.227 130.814 M80.915 131.484 C 81.288 131.876,84.935 132.987,85.763 132.960 C 86.439 132.939,86.016 132.767,83.376 131.989 C 80.970 131.280,80.662 131.217,80.915 131.484 M272.182 131.460 C 272.530 131.809,277.441 132.975,278.431 132.945 C 279.120 132.924,279.232 132.862,278.772 132.756 C 278.397 132.669,276.842 132.303,275.316 131.943 C 272.402 131.255,271.899 131.177,272.182 131.460 M302.984 131.700 C 302.234 131.890,300.699 132.240,299.574 132.478 C 297.896 132.833,297.743 132.917,298.721 132.944 C 299.842 132.974,304.765 131.836,305.142 131.460 C 305.390 131.211,304.551 131.304,302.984 131.700 M266.412 133.504 C 266.415 134.254,266.485 134.521,266.567 134.097 C 266.648 133.672,266.645 133.059,266.560 132.733 C 266.475 132.407,266.408 132.754,266.412 133.504 M86.757 133.248 C 88.362 134.858,106.856 135.019,111.814 133.466 C 113.249 133.017,111.552 133.064,108.921 133.546 C 104.754 134.310,94.399 134.311,90.237 133.548 C 86.824 132.922,86.395 132.885,86.757 133.248 M280.476 133.383 C 280.960 133.681,283.323 133.802,288.662 133.802 C 294.000 133.802,296.363 133.681,296.847 133.383 C 297.416 133.033,297.223 133.001,295.678 133.189 C 294.661 133.312,291.504 133.414,288.662 133.414 C 285.819 133.414,282.662 133.312,281.645 133.189 C 280.100 133.001,279.908 133.033,280.476 133.383 M266.042 135.763 C 266.010 136.255,265.904 137.176,265.805 137.809 C 265.641 138.863,265.656 138.889,265.992 138.119 C 266.193 137.657,266.300 136.736,266.229 136.073 C 266.135 135.202,266.083 135.116,266.042 135.763 M122.479 139.812 C 122.474 140.281,122.601 140.972,122.762 141.347 L 123.055 142.029 123.045 141.347 C 123.040 140.972,122.912 140.281,122.762 139.812 L 122.489 138.960 122.479 139.812 M265.151 141.025 C 265.023 141.709,264.994 142.346,265.088 142.440 C 265.182 142.533,265.364 142.050,265.492 141.366 C 265.620 140.682,265.649 140.045,265.555 139.951 C 265.461 139.857,265.279 140.341,265.151 141.025 M123.321 143.734 C 123.434 144.484,123.673 145.251,123.851 145.439 C 124.197 145.804,123.907 144.268,123.399 143.052 C 123.218 142.619,123.189 142.867,123.321 143.734 M264.305 144.458 C 264.086 145.324,263.978 146.103,264.063 146.188 C 264.231 146.357,264.447 145.707,264.793 143.990 C 265.132 142.306,264.756 142.666,264.305 144.458 M124.155 146.803 C 124.145 147.178,124.285 147.715,124.467 147.997 C 124.905 148.674,124.905 147.823,124.467 146.803 L 124.174 146.121 124.155 146.803 M263.451 147.509 C 263.326 148.009,263.300 148.495,263.394 148.589 C 263.488 148.682,263.667 148.350,263.792 147.850 C 263.918 147.351,263.944 146.865,263.850 146.771 C 263.756 146.678,263.577 147.010,263.451 147.509 M365.912 147.229 C 365.918 147.370,366.293 148.252,366.744 149.190 C 367.738 151.255,367.889 150.630,366.914 148.489 C 366.279 147.095,365.881 146.596,365.912 147.229 M21.171 149.546 C 20.780 150.430,20.469 151.325,20.480 151.535 C 20.491 151.746,20.876 151.089,21.337 150.075 C 21.797 149.061,22.108 148.166,22.027 148.086 C 21.947 148.006,21.562 148.663,21.171 149.546 M125.004 149.361 C 125.129 149.829,125.374 150.443,125.548 150.725 C 125.767 151.080,125.794 150.976,125.636 150.384 C 125.510 149.915,125.265 149.301,125.092 149.020 C 124.872 148.664,124.845 148.768,125.004 149.361 M262.608 150.094 C 262.156 151.390,262.138 151.647,262.531 151.219 C 262.857 150.863,263.356 149.020,263.126 149.020 C 263.047 149.020,262.814 149.503,262.608 150.094 M367.604 151.209 C 367.604 151.310,367.829 151.971,368.103 152.679 C 369.014 155.026,370.963 162.107,371.508 165.047 C 372.746 171.729,372.713 171.608,372.518 168.798 C 372.420 167.391,372.207 165.780,372.045 165.217 C 371.883 164.655,371.494 163.043,371.181 161.637 C 370.868 160.230,370.491 158.696,370.342 158.227 C 370.194 157.758,369.792 156.454,369.450 155.328 C 369.108 154.203,368.706 153.136,368.557 152.958 C 368.408 152.780,368.286 152.367,368.286 152.041 C 368.286 151.714,368.133 151.352,367.945 151.236 C 367.758 151.120,367.604 151.108,367.604 151.209 M125.831 151.663 C 125.831 152.170,127.128 155.158,127.349 155.158 C 127.523 155.158,126.250 151.713,125.973 151.435 C 125.895 151.357,125.831 151.459,125.831 151.663 M19.926 152.637 C 19.811 152.992,19.592 153.589,19.440 153.964 C 18.294 156.794,16.574 163.535,17.134 163.001 C 17.233 162.907,17.629 161.603,18.015 160.102 C 18.402 158.602,19.105 156.231,19.578 154.834 C 20.051 153.437,20.370 152.226,20.287 152.143 C 20.204 152.059,20.041 152.282,19.926 152.637 M260.927 154.458 C 260.727 155.031,260.637 155.499,260.725 155.499 C 260.955 155.499,261.599 153.727,261.430 153.558 C 261.353 153.481,261.126 153.886,260.927 154.458 M128.218 157.364 C 128.218 157.729,129.678 160.291,129.811 160.158 C 129.965 160.004,128.584 157.204,128.354 157.204 C 128.279 157.204,128.218 157.276,128.218 157.364 M258.333 159.847 C 257.683 161.113,256.738 162.823,256.233 163.648 C 255.728 164.473,255.475 165.049,255.672 164.927 C 256.091 164.668,259.122 159.436,259.603 158.142 C 260.102 156.801,259.441 157.687,258.333 159.847 M130.966 162.420 C 130.862 163.843,138.623 173.684,143.817 178.713 L 148.576 183.322 144.993 185.182 C 139.915 187.818,134.491 191.243,129.828 194.756 C 124.999 198.396,125.867 198.419,122.692 194.567 C 122.372 194.179,121.337 192.956,120.390 191.848 C 119.444 190.740,118.670 189.694,118.670 189.523 C 118.670 188.793,117.249 189.566,115.083 191.475 C 101.083 203.813,89.845 219.898,83.040 237.340 C 82.711 238.184,82.321 239.182,82.173 239.557 C 81.210 242.004,80.821 243.225,80.841 243.741 C 80.870 244.480,81.086 244.004,82.349 240.409 C 82.843 239.003,83.392 237.585,83.568 237.260 C 83.744 236.934,83.887 236.523,83.887 236.347 C 83.887 235.978,85.677 232.014,87.749 227.792 C 94.105 214.842,103.956 201.948,115.194 191.869 C 117.959 189.389,117.825 189.357,121.134 193.314 C 122.686 195.169,125.835 198.912,128.133 201.631 C 133.024 207.420,132.874 206.857,130.179 209.298 C 114.339 223.647,103.998 241.870,99.946 262.575 C 98.452 270.212,98.380 271.395,98.380 288.491 L 98.380 305.030 194.203 305.030 L 290.026 305.030 290.135 291.049 C 290.240 277.781,289.993 271.850,289.163 267.690 C 288.765 265.692,289.013 270.125,289.564 274.860 C 289.823 277.087,289.862 282.261,289.688 291.314 L 289.434 304.520 201.068 304.434 L 112.702 304.348 112.748 288.662 C 112.801 270.344,113.063 267.267,115.478 256.607 C 121.009 232.197,135.393 210.162,155.958 194.594 C 159.668 191.786,160.763 191.200,161.739 191.500 C 162.900 191.856,162.356 191.473,159.845 190.166 C 148.829 184.429,139.155 175.122,131.393 162.794 C 131.169 162.439,130.977 162.271,130.966 162.420 M16.540 164.239 C 16.428 164.777,16.198 165.754,16.029 166.411 C 15.859 167.067,15.642 168.832,15.545 170.332 C 15.385 172.827,15.397 172.900,15.689 171.185 C 15.864 170.153,16.253 168.029,16.553 166.463 C 16.853 164.898,17.018 163.537,16.920 163.439 C 16.823 163.341,16.651 163.701,16.540 164.239 M253.363 168.031 C 252.734 168.922,251.620 170.379,250.886 171.270 C 250.153 172.161,249.682 172.887,249.840 172.883 C 250.092 172.877,253.895 167.978,254.533 166.837 C 255.083 165.855,254.425 166.526,253.363 168.031 M246.110 176.617 C 241.162 181.665,235.874 185.873,231.079 188.579 C 230.004 189.186,229.192 189.749,229.273 189.830 C 230.184 190.741,243.580 180.259,247.981 175.192 C 250.472 172.324,249.867 172.785,246.110 176.617 M270.067 190.538 C 269.791 190.866,268.342 192.593,266.847 194.374 C 265.352 196.155,264.048 197.690,263.949 197.783 C 263.849 197.877,263.210 198.645,262.527 199.488 C 261.845 200.332,261.001 201.352,260.652 201.755 C 255.123 208.126,255.098 206.790,260.849 212.509 C 264.949 216.588,267.100 219.001,270.523 223.366 C 273.314 226.925,277.381 233.588,279.906 238.738 C 281.064 241.100,282.012 243.114,282.012 243.213 C 282.012 243.664,283.452 246.585,283.601 246.436 C 283.909 246.128,280.116 237.912,277.591 233.419 C 274.948 228.716,269.680 221.275,266.486 217.732 C 264.164 215.156,258.311 209.319,257.374 208.643 C 256.147 207.758,256.194 207.446,257.821 205.670 C 258.573 204.850,259.758 203.468,260.455 202.601 C 261.152 201.733,261.802 200.946,261.900 200.853 C 261.998 200.759,263.760 198.687,265.816 196.249 C 267.871 193.811,269.882 191.455,270.284 191.013 L 271.014 190.210 273.700 192.578 C 285.196 202.714,298.793 221.662,303.130 233.589 C 303.369 234.246,303.635 234.600,303.722 234.377 C 303.878 233.975,300.089 225.966,298.026 222.336 C 296.333 219.356,292.463 213.310,292.169 213.186 C 292.022 213.123,291.901 212.855,291.901 212.589 C 291.901 212.323,291.758 212.106,291.583 212.106 C 291.408 212.106,291.176 211.826,291.068 211.484 C 290.959 211.142,290.604 210.561,290.277 210.193 C 289.951 209.825,289.150 208.839,288.496 208.002 C 286.537 205.493,286.367 205.287,283.905 202.419 C 279.918 197.776,271.833 189.940,271.030 189.940 C 270.777 189.940,270.343 190.209,270.067 190.538 M225.746 191.475 C 224.902 191.927,224.333 192.303,224.481 192.312 C 224.843 192.333,227.451 190.993,227.451 190.786 C 227.451 190.560,227.465 190.554,225.746 191.475 M162.660 191.807 C 162.660 192.006,165.583 193.356,165.966 193.335 C 166.280 193.317,163.305 191.684,162.916 191.661 C 162.775 191.652,162.660 191.718,162.660 191.807 M222.025 193.098 C 221.009 193.498,220.330 193.875,220.514 193.937 C 220.868 194.055,224.041 192.746,224.041 192.482 C 224.041 192.290,224.208 192.239,222.025 193.098 M166.446 193.499 C 166.756 193.809,172.046 195.737,172.541 195.720 C 172.827 195.711,171.603 195.174,169.821 194.527 C 166.565 193.345,166.172 193.225,166.446 193.499 M218.670 194.414 C 218.061 194.590,217.562 194.809,217.562 194.901 C 217.562 195.149,219.385 194.675,219.761 194.329 C 220.133 193.989,220.145 193.988,218.670 194.414 M213.981 195.914 C 212.668 196.347,211.748 196.714,211.936 196.731 C 212.385 196.770,216.918 195.472,217.153 195.237 C 217.503 194.887,216.346 195.134,213.981 195.914 M173.572 196.035 C 173.853 196.203,174.621 196.436,175.277 196.552 C 176.082 196.695,176.249 196.669,175.789 196.472 C 174.734 196.020,172.967 195.672,173.572 196.035 M177.494 197.086 C 178.148 197.382,179.975 197.575,179.682 197.317 C 179.604 197.248,178.926 197.098,178.176 196.984 C 177.225 196.839,177.018 196.870,177.494 197.086 M209.378 197.101 L 208.525 197.374 209.378 197.384 C 209.847 197.390,210.537 197.263,210.912 197.101 L 211.594 196.808 210.912 196.818 C 210.537 196.824,209.847 196.951,209.378 197.101 M180.989 197.868 L 182.097 198.223 182.097 231.751 C 182.097 264.550,182.112 265.286,182.757 265.632 C 183.653 266.111,204.412 266.111,205.308 265.632 C 205.953 265.286,205.968 264.550,205.968 231.729 L 205.968 198.179 207.015 197.949 C 207.591 197.822,207.992 197.648,207.905 197.561 C 207.818 197.474,207.232 197.537,206.602 197.700 L 205.456 197.997 205.286 231.565 L 205.115 265.132 194.032 265.132 L 182.950 265.132 182.863 231.500 L 182.776 197.868 181.712 197.655 C 180.134 197.340,179.722 197.461,180.989 197.868 M303.836 235.157 C 303.836 235.270,304.046 235.845,304.301 236.436 C 304.557 237.027,304.931 237.894,305.131 238.363 C 305.360 238.899,305.504 239.010,305.518 238.662 C 305.543 238.079,304.255 234.953,303.991 234.953 C 303.906 234.953,303.836 235.045,303.836 235.157 M305.690 239.964 C 305.812 240.282,306.155 241.286,306.452 242.194 C 306.749 243.103,307.070 243.769,307.164 243.675 C 307.419 243.420,306.100 239.392,305.761 239.389 C 305.600 239.388,305.568 239.646,305.690 239.964 M307.441 244.971 C 308.022 247.323,308.892 249.726,308.920 249.059 C 308.957 248.196,307.947 244.819,307.506 244.331 C 307.321 244.125,307.295 244.380,307.441 244.971 M80.341 244.879 C 79.299 248.136,79.079 249.014,79.179 249.527 C 79.243 249.857,79.632 248.907,80.044 247.415 C 80.456 245.923,80.725 244.635,80.643 244.553 C 80.561 244.471,80.425 244.617,80.341 244.879 M283.884 247.911 C 284.019 248.568,284.267 249.251,284.435 249.429 C 284.603 249.607,284.740 250.097,284.740 250.517 C 284.740 250.937,284.893 251.376,285.081 251.492 C 285.574 251.797,285.509 251.375,284.709 249.093 C 283.873 246.711,283.536 246.228,283.884 247.911 M308.965 250.145 C 309.004 251.043,310.615 256.834,310.634 256.144 C 310.663 255.101,309.607 250.565,309.237 250.145 C 309.056 249.940,308.957 249.940,308.965 250.145 M78.657 250.676 C 77.633 254.370,76.877 259.104,77.737 256.436 C 78.304 254.679,79.143 250.555,78.969 250.381 C 78.870 250.282,78.729 250.415,78.657 250.676 M285.603 253.197 C 285.737 253.947,285.981 254.707,286.145 254.885 C 286.310 255.063,286.445 255.629,286.445 256.144 C 286.445 256.658,286.598 257.173,286.786 257.289 C 287.259 257.582,287.222 257.278,286.456 254.599 C 285.688 251.913,285.247 251.187,285.603 253.197 M310.656 257.432 C 310.656 257.627,310.880 258.979,311.153 260.436 C 311.426 261.894,311.802 264.007,311.988 265.132 C 312.313 267.102,312.319 267.071,312.145 264.314 C 312.046 262.738,311.824 261.079,311.652 260.626 C 311.479 260.173,311.338 259.284,311.338 258.651 C 311.338 258.018,311.185 257.405,310.997 257.289 C 310.810 257.173,310.656 257.238,310.656 257.432 M76.954 258.028 C 76.829 258.153,76.726 258.757,76.726 259.370 C 76.726 259.983,76.589 260.844,76.422 261.284 C 76.255 261.724,76.032 263.461,75.927 265.143 C 75.763 267.776,75.782 267.941,76.061 266.326 C 77.455 258.256,77.543 257.438,76.954 258.028 M287.127 258.354 C 287.127 258.721,287.357 259.905,287.639 260.985 C 287.920 262.065,288.152 263.363,288.155 263.870 C 288.158 264.377,288.309 265.021,288.491 265.303 C 289.013 266.110,288.928 265.190,288.128 261.356 C 287.424 257.987,287.127 257.096,287.127 258.354 M312.644 272.293 C 313.228 285.336,312.916 318.553,312.191 320.523 C 311.290 322.970,308.766 325.708,306.288 326.924 L 304.348 327.877 194.196 327.877 L 84.044 327.877 81.763 326.755 C 79.276 325.530,77.477 323.719,76.274 321.228 C 75.534 319.695,75.533 319.666,75.533 294.393 C 75.533 279.686,75.409 269.406,75.236 269.841 C 75.073 270.252,74.860 281.451,74.763 294.727 C 74.575 320.636,74.492 318.947,76.123 322.470 C 76.595 323.489,79.261 326.343,79.741 326.343 C 79.959 326.343,80.136 326.468,80.136 326.621 C 80.136 327.062,82.453 328.048,83.490 328.048 C 84.009 328.048,84.587 328.202,84.775 328.390 C 85.190 328.804,302.602 328.644,304.689 328.228 C 308.467 327.474,311.858 323.922,313.345 319.157 C 314.060 316.868,313.497 270.772,312.723 268.201 C 312.530 267.560,312.500 269.089,312.644 272.293 " stroke="none" fill="#c4ccdb" fill-rule="evenodd"></path></g></svg>