<svg id="svg" version="1.1" xmlns="http://www.w3.org/2000/svg" xmlns:xlink="http://www.w3.org/1999/xlink" width="400" height="354.863813229572" viewBox="0, 0, 400,354.863813229572"><g id="svgg"><path id="path0" d="M0.000 177.462 L 0.000 354.925 200.000 354.925 L 400.000 354.925 400.000 177.462 L 400.000 0.000 200.000 0.000 L 0.000 0.000 0.000 177.462 M214.374 20.044 C 223.239 20.931,227.746 21.633,236.025 23.417 C 241.931 24.689,252.631 27.909,257.494 29.877 C 258.472 30.273,259.632 30.740,260.071 30.915 C 264.178 32.552,266.909 33.792,272.326 36.477 C 298.019 49.215,319.296 68.102,335.591 92.637 C 338.026 96.302,340.018 99.385,340.018 99.488 C 340.018 99.591,340.710 100.846,341.556 102.278 C 343.745 105.982,349.138 117.180,350.714 121.295 C 350.883 121.735,351.165 122.453,351.342 122.893 C 352.596 126.003,355.025 133.214,356.034 136.823 C 356.253 137.604,356.645 138.962,356.905 139.840 C 357.166 140.719,357.694 142.795,358.078 144.454 C 359.686 151.400,360.723 157.502,361.727 165.927 C 362.356 171.210,362.356 192.942,361.727 198.225 C 361.182 202.803,360.352 208.563,359.913 210.825 C 358.680 217.170,357.638 221.845,356.905 224.312 C 356.645 225.191,356.229 226.628,355.982 227.507 C 355.081 230.713,352.370 238.758,351.347 241.260 C 351.167 241.699,350.877 242.418,350.702 242.857 C 339.078 272.030,317.779 298.482,291.505 316.377 C 281.916 322.907,269.233 329.703,260.253 333.123 C 258.933 333.625,257.613 334.154,257.320 334.297 C 255.865 335.010,240.841 339.668,238.509 340.130 C 238.021 340.227,236.504 340.565,235.138 340.882 C 216.548 345.192,192.726 345.827,173.026 342.538 C 168.335 341.755,166.854 341.470,163.620 340.729 C 145.431 336.557,127.947 329.207,112.156 319.094 C 108.482 316.741,101.231 311.665,100.227 310.743 C 100.010 310.544,99.219 309.902,98.470 309.317 C 83.622 297.715,69.176 280.989,59.079 263.709 C 56.638 259.531,49.689 245.631,49.689 244.925 C 49.689 244.710,49.548 244.256,49.376 243.917 C 49.203 243.578,48.884 242.862,48.666 242.325 C 48.448 241.788,48.119 240.989,47.935 240.550 C 46.332 236.724,42.846 225.545,41.709 220.586 C 41.396 219.219,40.993 217.462,40.813 216.681 C 40.633 215.901,40.312 214.303,40.098 213.132 C 39.885 211.961,39.561 210.204,39.379 209.228 C 36.560 194.105,36.560 170.048,39.379 154.925 C 39.561 153.949,39.885 152.192,40.098 151.020 C 40.312 149.849,40.633 148.252,40.813 147.471 C 40.993 146.690,41.396 144.933,41.709 143.567 C 42.605 139.659,44.521 133.227,46.362 127.950 C 47.565 124.503,47.766 123.964,48.544 122.094 C 48.747 121.606,49.154 120.568,49.447 119.787 C 51.001 115.652,56.618 104.411,59.153 100.362 C 59.609 99.634,59.982 98.939,59.982 98.818 C 59.982 98.697,61.852 95.779,64.138 92.334 C 71.553 81.156,80.133 71.142,90.506 61.560 C 98.226 54.428,109.013 46.592,119.064 40.815 C 122.796 38.669,133.145 33.363,133.597 33.363 C 133.716 33.363,134.571 33.025,135.496 32.612 C 138.538 31.254,139.281 30.945,141.792 29.995 C 147.832 27.710,156.824 24.948,162.023 23.781 C 162.999 23.562,164.357 23.240,165.040 23.066 C 169.320 21.972,176.316 20.910,183.673 20.239 C 186.016 20.026,188.172 19.795,188.465 19.727 C 190.106 19.345,209.799 19.587,214.374 20.044 M219.606 94.796 C 205.984 96.236,193.993 106.262,190.564 119.077 C 190.408 119.663,190.107 120.781,189.897 121.562 C 189.542 122.876,189.345 123.812,188.404 128.660 C 188.215 129.636,187.951 137.063,187.819 145.164 L 187.578 159.894 174.978 160.071 L 162.378 160.248 162.286 178.793 C 162.236 188.993,162.236 197.373,162.286 197.415 C 162.337 197.458,168.048 197.578,174.978 197.682 L 187.578 197.870 187.668 239.824 L 187.758 281.778 188.910 281.985 C 189.544 282.098,197.169 282.145,205.856 282.089 L 221.650 281.988 221.828 239.929 L 222.005 197.870 233.895 197.693 L 245.785 197.516 246.044 195.386 C 246.186 194.215,246.455 191.739,246.642 189.885 C 246.828 188.030,247.395 182.600,247.900 177.817 C 249.298 164.599,249.556 162.101,249.626 161.136 L 249.689 160.248 235.847 160.071 L 222.005 159.894 221.900 148.181 C 221.832 140.669,221.935 135.705,222.187 134.339 C 224.064 124.174,226.034 122.801,239.130 122.530 L 247.382 122.360 247.382 109.119 C 247.382 96.597,247.347 95.866,246.733 95.671 C 243.613 94.681,226.050 94.114,219.606 94.796 " stroke="none" fill="#fbfbfb" fill-rule="evenodd"></path><path id="path1" d="M188.465 19.727 C 188.172 19.795,186.016 20.026,183.673 20.239 C 176.316 20.910,169.320 21.972,165.040 23.066 C 164.357 23.240,162.999 23.562,162.023 23.781 C 156.824 24.948,147.832 27.710,141.792 29.995 C 139.281 30.945,138.538 31.254,135.496 32.612 C 134.571 33.025,133.716 33.363,133.597 33.363 C 133.145 33.363,122.796 38.669,119.064 40.815 C 112.106 44.814,104.361 50.100,97.592 55.469 C 89.339 62.014,80.324 71.111,72.718 80.568 C 68.984 85.211,59.982 98.110,59.982 98.818 C 59.982 98.939,59.609 99.634,59.153 100.362 C 56.618 104.411,51.001 115.652,49.447 119.787 C 49.154 120.568,48.747 121.606,48.544 122.094 C 47.766 123.964,47.565 124.503,46.362 127.950 C 44.521 133.227,42.605 139.659,41.709 143.567 C 41.396 144.933,40.993 146.690,40.813 147.471 C 40.633 148.252,40.312 149.849,40.098 151.020 C 39.885 152.192,39.561 153.949,39.379 154.925 C 36.560 170.048,36.560 194.105,39.379 209.228 C 39.561 210.204,39.885 211.961,40.098 213.132 C 40.312 214.303,40.633 215.901,40.813 216.681 C 40.993 217.462,41.396 219.219,41.709 220.586 C 42.254 222.964,42.908 225.313,44.427 230.346 C 45.162 232.779,47.368 239.196,47.935 240.550 C 48.119 240.989,48.448 241.788,48.666 242.325 C 48.884 242.862,49.203 243.578,49.376 243.917 C 49.548 244.256,49.689 244.710,49.689 244.925 C 49.689 245.631,56.638 259.531,59.079 263.709 C 69.176 280.989,83.622 297.715,98.470 309.317 C 99.219 309.902,100.010 310.544,100.227 310.743 C 104.297 314.479,118.456 323.282,128.117 328.084 C 146.253 337.098,164.157 342.066,185.803 344.092 C 200.926 345.507,220.755 344.217,235.138 340.882 C 236.504 340.565,238.021 340.227,238.509 340.130 C 240.841 339.668,255.865 335.010,257.320 334.297 C 257.613 334.154,258.933 333.625,260.253 333.123 C 269.233 329.703,281.916 322.907,291.505 316.377 C 317.779 298.482,339.078 272.030,350.702 242.857 C 350.877 242.418,351.167 241.699,351.347 241.260 C 352.370 238.758,355.081 230.713,355.982 227.507 C 356.229 226.628,356.645 225.191,356.905 224.312 C 357.638 221.845,358.680 217.170,359.913 210.825 C 360.352 208.563,361.182 202.803,361.727 198.225 C 362.356 192.942,362.356 171.210,361.727 165.927 C 360.723 157.502,359.686 151.400,358.078 144.454 C 357.694 142.795,357.166 140.719,356.905 139.840 C 356.645 138.962,356.253 137.604,356.034 136.823 C 355.025 133.214,352.596 126.003,351.342 122.893 C 351.165 122.453,350.883 121.735,350.714 121.295 C 349.138 117.180,343.745 105.982,341.556 102.278 C 340.710 100.846,340.018 99.591,340.018 99.488 C 340.018 99.385,338.026 96.302,335.591 92.637 C 319.296 68.102,298.019 49.215,272.326 36.477 C 266.909 33.792,264.178 32.552,260.071 30.915 C 259.632 30.740,258.472 30.273,257.494 29.877 C 252.631 27.909,241.931 24.689,236.025 23.417 C 222.266 20.453,213.272 19.515,199.113 19.566 C 193.549 19.587,188.758 19.659,188.465 19.727 M240.610 94.939 C 243.620 95.228,246.375 95.558,246.733 95.671 C 247.347 95.866,247.382 96.597,247.382 109.119 L 247.382 122.360 239.130 122.530 C 226.034 122.801,224.064 124.174,222.187 134.339 C 221.935 135.705,221.832 140.669,221.900 148.181 L 222.005 159.894 235.847 160.071 L 249.689 160.248 249.626 161.136 C 249.556 162.101,249.298 164.599,247.900 177.817 C 247.395 182.600,246.828 188.030,246.642 189.885 C 246.455 191.739,246.186 194.215,246.044 195.386 L 245.785 197.516 233.895 197.693 L 222.005 197.870 221.828 239.929 L 221.650 281.988 205.856 282.089 C 197.169 282.145,189.544 282.098,188.910 281.985 L 187.758 281.778 187.668 239.824 L 187.578 197.870 174.978 197.682 C 168.048 197.578,162.337 197.458,162.286 197.415 C 162.236 197.373,162.236 188.993,162.286 178.793 L 162.378 160.248 174.978 160.071 L 187.578 159.894 187.819 145.164 C 187.951 137.063,188.215 129.636,188.404 128.660 C 189.345 123.812,189.542 122.876,189.897 121.562 C 190.107 120.781,190.408 119.663,190.564 119.077 C 193.444 108.315,203.017 98.820,213.968 95.865 C 219.483 94.377,230.714 93.986,240.610 94.939 " stroke="none" fill="#040404" fill-rule="evenodd"></path></g></svg>