<svg id="svg" version="1.1" xmlns="http://www.w3.org/2000/svg" xmlns:xlink="http://www.w3.org/1999/xlink" width="400" height="409.8765432098765" viewBox="0, 0, 400,409.8765432098765"><g id="svgg"><path id="path0" d="M353.400 26.445 C 346.765 26.850,337.252 28.341,335.491 29.251 C 335.101 29.453,333.940 29.733,332.911 29.874 C 331.882 30.015,330.581 30.370,330.020 30.663 C 329.459 30.956,328.700 31.196,328.332 31.198 C 327.965 31.199,327.155 31.450,326.532 31.756 C 325.026 32.495,322.852 33.246,321.513 33.489 C 320.915 33.598,320.218 33.937,319.964 34.244 C 319.710 34.550,319.257 34.800,318.957 34.800 C 318.657 34.800,317.374 35.314,316.106 35.943 C 314.838 36.572,312.931 37.517,311.868 38.043 C 308.665 39.630,307.810 40.109,307.592 40.437 C 307.477 40.609,306.937 40.941,306.392 41.174 C 305.218 41.676,303.885 42.487,303.589 42.880 C 303.472 43.034,303.004 43.304,302.547 43.480 C 302.090 43.656,301.195 44.202,300.558 44.694 C 299.921 45.186,297.756 46.828,295.748 48.344 C 289.184 53.297,278.579 63.801,276.887 67.023 C 276.605 67.560,276.200 68.000,275.987 68.000 C 275.774 68.000,275.600 68.270,275.600 68.600 C 275.600 68.930,275.414 69.200,275.187 69.200 C 274.961 69.200,274.654 69.515,274.507 69.900 C 274.360 70.285,273.495 71.590,272.587 72.800 C 271.678 74.010,270.812 75.270,270.663 75.600 C 270.513 75.930,270.035 76.740,269.600 77.400 C 269.165 78.060,268.680 78.870,268.523 79.200 C 268.366 79.530,267.734 80.546,267.119 81.458 C 266.504 82.370,266.000 83.247,266.000 83.407 C 266.000 83.567,265.126 85.520,264.057 87.749 C 262.988 89.977,261.800 92.610,261.417 93.600 C 261.033 94.590,260.467 95.991,260.160 96.714 C 259.852 97.436,259.600 98.347,259.600 98.737 C 259.600 99.128,259.336 99.796,259.013 100.224 C 258.690 100.651,258.421 101.360,258.415 101.800 C 258.409 102.240,258.149 103.410,257.837 104.400 C 256.483 108.700,255.610 112.964,254.520 120.600 C 253.975 124.420,253.872 133.843,253.737 192.100 L 253.582 259.200 289.129 259.200 C 323.058 259.200,324.706 259.233,325.338 259.931 C 325.948 260.606,326.000 265.521,326.000 322.499 C 326.000 356.508,326.109 384.619,326.243 384.967 C 326.659 386.052,359.803 385.915,360.386 384.826 C 361.161 383.378,360.944 26.541,360.167 26.243 C 359.819 26.109,359.234 26.034,358.867 26.076 C 358.500 26.117,356.040 26.283,353.400 26.445 M37.399 44.900 C 36.916 47.545,37.395 160.872,37.899 163.200 C 38.161 164.410,38.572 166.480,38.812 167.800 C 39.446 171.294,40.224 174.910,40.491 175.600 C 41.051 177.051,42.073 180.285,42.260 181.200 C 42.373 181.750,42.702 182.740,42.993 183.400 C 43.283 184.060,43.797 185.230,44.136 186.000 C 50.430 200.319,59.386 212.436,69.600 220.454 C 70.810 221.403,71.890 222.292,72.000 222.429 C 72.353 222.868,77.993 226.800,78.270 226.800 C 78.417 226.800,78.832 227.067,79.192 227.393 C 79.983 228.109,82.981 229.828,84.500 230.437 C 85.105 230.680,85.600 231.041,85.600 231.239 C 85.600 231.438,85.947 231.600,86.371 231.600 C 86.796 231.600,87.413 231.870,87.743 232.200 C 88.073 232.530,88.553 232.800,88.810 232.800 C 89.066 232.800,89.754 233.048,90.338 233.350 C 92.833 234.644,95.134 235.600,95.749 235.600 C 96.113 235.600,96.723 235.779,97.105 235.997 C 98.287 236.672,101.330 237.675,102.800 237.874 C 103.570 237.977,104.767 238.318,105.460 238.631 C 106.154 238.944,107.063 239.200,107.480 239.200 C 109.263 239.200,109.200 236.506,109.200 312.637 C 109.200 378.358,109.259 385.137,109.833 385.357 C 111.465 385.984,143.909 385.615,144.157 384.967 C 144.291 384.619,144.400 351.870,144.400 312.191 C 144.400 254.914,144.503 239.981,144.900 239.726 C 145.570 239.296,148.552 238.442,150.937 237.998 C 152.002 237.799,153.082 237.464,153.337 237.254 C 153.592 237.044,154.477 236.745,155.304 236.590 C 156.132 236.436,156.907 236.150,157.028 235.955 C 157.149 235.760,157.516 235.600,157.846 235.600 C 158.387 235.600,160.005 234.959,163.400 233.401 C 175.797 227.709,185.488 220.535,194.821 210.138 C 197.425 207.237,203.600 198.422,203.600 197.606 C 203.600 197.383,203.762 197.200,203.961 197.200 C 204.159 197.200,204.522 196.705,204.767 196.100 C 205.012 195.495,205.929 193.653,206.806 192.007 C 207.683 190.361,208.400 188.808,208.400 188.556 C 208.400 188.304,208.670 187.874,209.000 187.600 C 209.330 187.326,209.600 186.708,209.600 186.227 C 209.600 185.746,209.864 185.004,210.187 184.576 C 210.510 184.149,210.781 183.530,210.790 183.200 C 210.798 182.870,211.074 182.084,211.402 181.454 C 211.731 180.824,212.000 179.951,212.000 179.515 C 212.000 179.078,212.252 178.154,212.560 177.460 C 214.220 173.720,215.687 165.391,216.375 155.800 C 217.217 144.066,216.945 45.055,216.069 44.262 C 214.978 43.275,182.221 43.247,181.843 44.233 C 181.709 44.581,181.600 72.831,181.600 107.010 L 181.600 169.155 180.711 169.777 C 179.658 170.515,147.314 170.728,145.426 170.010 L 144.400 169.620 144.395 107.510 C 144.392 73.349,144.281 44.995,144.148 44.500 L 143.907 43.600 127.327 43.600 C 116.663 43.600,110.471 43.748,109.974 44.014 C 109.214 44.421,109.200 45.542,109.200 106.640 C 109.200 148.760,109.066 169.102,108.786 169.626 C 108.139 170.836,73.461 170.836,72.814 169.626 C 72.534 169.102,72.400 148.708,72.400 106.473 L 72.400 44.093 71.500 43.852 C 71.005 43.719,63.183 43.608,54.118 43.605 L 37.636 43.600 37.399 44.900 M325.520 71.680 C 325.890 72.050,326.000 89.428,326.000 147.464 L 326.000 222.769 325.125 223.584 C 324.142 224.500,292.123 224.883,289.818 224.007 L 288.785 223.614 288.935 174.907 C 289.102 120.935,289.044 122.160,291.828 113.146 C 292.142 112.127,292.400 111.016,292.400 110.679 C 292.400 110.341,292.654 109.555,292.965 108.932 C 293.276 108.310,293.816 107.125,294.165 106.300 C 294.514 105.475,295.048 104.215,295.350 103.500 C 296.429 100.949,297.804 98.400,298.099 98.400 C 298.265 98.400,298.400 98.199,298.400 97.952 C 298.400 97.511,301.119 92.789,301.597 92.400 C 301.732 92.290,302.365 91.480,303.005 90.600 C 309.749 81.319,323.556 69.716,325.520 71.680 " stroke="none" fill="#4d4d4d" fill-rule="evenodd"></path><path id="path1" d="M0.000 204.800 L 0.000 409.600 200.000 409.600 L 400.000 409.600 400.000 204.800 L 400.000 0.000 200.000 0.000 L 0.000 0.000 0.000 204.800 M361.662 25.686 C 362.283 26.666,362.077 385.438,361.454 385.955 C 361.061 386.281,355.877 386.379,342.954 386.304 L 325.000 386.200 324.800 323.400 L 324.600 260.600 289.022 260.498 C 261.169 260.418,253.376 260.288,253.128 259.898 C 252.661 259.161,252.776 124.669,253.246 122.000 C 253.460 120.790,253.798 118.319,253.998 116.509 C 254.198 114.700,254.527 112.900,254.730 112.509 C 254.932 112.119,255.226 110.919,255.382 109.841 C 255.539 108.764,255.822 107.594,256.013 107.241 C 256.203 106.889,256.469 105.749,256.603 104.709 C 256.737 103.669,257.016 102.714,257.223 102.586 C 257.430 102.458,257.600 101.986,257.600 101.537 C 257.600 101.088,257.850 100.154,258.154 99.460 C 258.459 98.767,259.113 97.030,259.608 95.600 C 260.102 94.170,260.934 92.064,261.456 90.920 C 261.978 89.775,262.583 88.425,262.802 87.920 C 263.020 87.414,263.357 86.730,263.552 86.400 C 263.746 86.070,264.296 84.990,264.774 84.000 C 265.252 83.010,265.991 81.660,266.416 81.000 C 266.841 80.340,267.382 79.354,267.619 78.808 C 267.856 78.263,268.174 77.723,268.325 77.608 C 268.476 77.494,269.046 76.545,269.592 75.500 C 270.137 74.455,270.722 73.600,270.892 73.600 C 271.061 73.600,271.200 73.416,271.200 73.192 C 271.200 72.782,276.958 65.064,278.655 63.200 C 279.156 62.650,280.046 61.660,280.634 61.000 C 283.334 57.968,284.909 56.388,288.015 53.600 C 289.852 51.950,291.679 50.287,292.074 49.904 C 292.468 49.522,294.008 48.372,295.496 47.350 C 296.983 46.328,298.382 45.291,298.605 45.046 C 299.279 44.303,301.540 42.800,301.984 42.800 C 302.213 42.800,302.400 42.632,302.400 42.427 C 302.400 42.222,302.777 41.934,303.238 41.788 C 303.698 41.642,304.823 41.045,305.738 40.461 C 308.379 38.775,308.892 38.482,310.800 37.568 C 311.790 37.093,312.870 36.555,313.200 36.372 C 314.017 35.919,317.132 34.439,318.600 33.806 C 321.867 32.398,322.703 32.085,323.897 31.823 C 324.609 31.666,325.294 31.372,325.419 31.169 C 325.545 30.966,325.952 30.799,326.324 30.798 C 326.696 30.796,327.502 30.533,328.117 30.213 C 328.731 29.892,330.081 29.449,331.117 29.227 C 332.152 29.006,333.990 28.614,335.200 28.358 C 336.410 28.101,337.967 27.645,338.660 27.345 C 339.354 27.045,340.851 26.800,341.987 26.800 C 343.123 26.800,344.416 26.605,344.861 26.367 C 345.306 26.129,348.467 25.776,351.886 25.583 C 355.305 25.389,358.214 25.118,358.351 24.980 C 358.750 24.578,361.304 25.123,361.662 25.686 M72.720 43.280 C 73.089 43.649,73.200 58.187,73.200 106.280 L 73.200 168.800 90.800 168.800 L 108.400 168.800 108.400 106.214 C 108.400 44.747,108.414 43.621,109.174 43.214 C 110.565 42.469,143.627 42.663,144.711 43.423 L 145.600 44.045 145.600 106.427 L 145.600 168.808 162.900 168.704 L 180.200 168.600 180.301 106.090 L 180.403 43.579 181.427 43.190 C 182.795 42.670,215.207 42.670,216.574 43.190 L 217.600 43.580 217.583 101.090 C 217.571 137.927,217.421 159.247,217.165 160.400 C 216.945 161.390,216.610 163.780,216.422 165.711 C 216.233 167.642,215.906 169.442,215.695 169.711 C 215.483 169.980,215.200 171.176,215.066 172.369 C 214.931 173.563,214.636 174.724,214.411 174.949 C 214.185 175.175,213.999 175.819,213.998 176.380 C 213.996 176.941,213.726 177.916,213.398 178.546 C 213.069 179.176,212.799 179.986,212.798 180.346 C 212.796 180.706,212.526 181.516,212.198 182.146 C 211.869 182.776,211.600 183.476,211.600 183.702 C 211.600 183.928,211.217 184.942,210.750 185.956 C 210.282 186.970,209.360 188.970,208.701 190.400 C 208.041 191.830,207.353 193.270,207.172 193.600 C 206.990 193.930,206.453 194.920,205.978 195.800 C 205.503 196.680,204.594 198.174,203.957 199.120 C 203.321 200.066,202.800 200.929,202.800 201.038 C 202.800 201.146,201.945 202.377,200.900 203.772 C 199.855 205.168,198.730 206.709,198.400 207.198 C 196.309 210.296,187.849 218.816,183.200 222.508 C 181.330 223.992,179.583 225.386,179.317 225.604 C 179.051 225.822,178.729 226.000,178.601 226.000 C 178.336 226.000,175.905 227.666,175.600 228.056 C 175.490 228.197,174.590 228.727,173.600 229.235 C 172.610 229.742,171.710 230.277,171.600 230.425 C 171.490 230.572,170.369 231.178,169.108 231.772 C 167.847 232.365,166.712 233.019,166.584 233.225 C 166.457 233.431,165.935 233.600,165.425 233.600 C 164.915 233.600,164.274 233.870,164.000 234.200 C 163.726 234.530,163.275 234.800,162.997 234.800 C 162.719 234.800,161.976 235.069,161.346 235.398 C 160.716 235.726,159.921 235.996,159.580 235.998 C 159.239 235.999,158.766 236.194,158.529 236.431 C 158.292 236.668,157.491 237.012,156.749 237.196 C 155.432 237.522,154.450 237.828,151.600 238.803 C 150.830 239.067,149.314 239.438,148.232 239.628 C 147.149 239.818,146.117 240.204,145.938 240.487 C 145.759 240.769,145.609 273.411,145.606 313.024 C 145.601 370.004,145.496 385.189,145.100 385.729 C 144.640 386.356,143.167 386.402,126.600 386.305 L 108.600 386.200 108.400 313.333 C 108.290 273.257,108.088 240.354,107.951 240.217 C 107.813 240.080,106.823 239.806,105.751 239.608 C 102.766 239.058,100.318 238.382,99.068 237.762 C 98.445 237.453,97.686 237.200,97.381 237.200 C 97.076 237.200,96.146 236.910,95.314 236.556 C 94.481 236.201,93.170 235.643,92.400 235.316 C 88.750 233.763,88.042 233.439,85.800 232.298 C 84.480 231.626,82.230 230.374,80.800 229.517 C 79.370 228.660,77.840 227.743,77.400 227.479 C 76.960 227.216,76.510 226.900,76.400 226.779 C 76.290 226.657,75.480 226.125,74.600 225.596 C 73.720 225.066,72.820 224.429,72.600 224.179 C 72.380 223.928,71.120 222.907,69.800 221.908 C 66.161 219.155,57.825 210.753,56.000 207.998 C 55.670 207.500,55.114 206.802,54.765 206.446 C 54.197 205.868,51.652 202.225,50.592 200.474 C 50.367 200.103,49.724 199.080,49.163 198.200 C 48.601 197.320,48.021 196.330,47.873 196.000 C 47.726 195.670,47.424 195.085,47.203 194.700 C 45.483 191.710,42.800 185.962,42.800 185.268 C 42.800 185.061,42.531 184.376,42.202 183.746 C 41.874 183.116,41.598 182.330,41.590 182.000 C 41.581 181.670,41.310 181.051,40.987 180.624 C 40.664 180.196,40.394 179.296,40.387 178.624 C 40.380 177.951,40.110 177.051,39.787 176.624 C 39.464 176.196,39.200 175.330,39.200 174.697 C 39.200 174.065,38.997 173.167,38.748 172.703 C 38.499 172.238,38.158 170.855,37.988 169.629 C 37.819 168.403,37.491 166.320,37.259 165.000 C 35.673 155.981,35.254 45.146,36.800 43.600 C 37.778 42.622,71.759 42.319,72.720 43.280 M323.961 72.218 C 323.771 72.669,321.374 74.395,320.916 74.411 C 320.742 74.417,319.970 74.963,319.200 75.624 C 318.430 76.286,316.791 77.621,315.558 78.592 C 312.212 81.227,305.823 87.946,305.377 89.300 C 305.250 89.685,305.009 90.000,304.841 90.000 C 304.398 90.000,301.673 93.815,300.411 96.200 C 300.179 96.640,299.631 97.540,299.195 98.200 C 298.759 98.860,298.204 99.895,297.962 100.500 C 297.720 101.105,297.359 101.600,297.161 101.600 C 296.962 101.600,296.800 101.880,296.800 102.222 C 296.800 102.765,296.484 103.585,294.804 107.400 C 293.320 110.770,292.800 112.223,292.800 113.002 C 292.800 113.497,292.530 114.549,292.200 115.338 C 291.870 116.128,291.600 117.332,291.600 118.013 C 291.600 118.695,291.375 119.646,291.100 120.126 C 290.158 121.772,289.948 130.661,289.763 176.690 L 289.577 222.779 290.489 223.001 C 290.990 223.123,298.870 223.172,308.000 223.111 L 324.600 223.000 324.701 148.338 C 324.790 82.798,324.670 70.530,323.961 72.218 " stroke="none" fill="#fbfbfb" fill-rule="evenodd"></path><path id="path2" d="M355.505 25.883 C 356.002 25.979,356.722 25.975,357.105 25.875 C 357.487 25.775,357.080 25.696,356.200 25.701 C 355.320 25.705,355.007 25.787,355.505 25.883 M46.100 43.500 C 50.885 43.563,58.715 43.563,63.500 43.500 C 68.285 43.436,64.370 43.384,54.800 43.384 C 45.230 43.384,41.315 43.436,46.100 43.500 M118.527 43.500 C 123.327 43.564,131.067 43.563,135.727 43.499 C 140.387 43.436,136.460 43.383,127.000 43.383 C 117.540 43.383,113.727 43.436,118.527 43.500 M190.527 43.500 C 195.327 43.564,203.067 43.563,207.727 43.499 C 212.387 43.436,208.460 43.383,199.000 43.383 C 189.540 43.383,185.727 43.436,190.527 43.500 M180.899 106.620 C 180.834 147.082,180.661 168.807,180.401 169.121 C 180.174 169.396,180.261 169.381,180.603 169.086 C 181.132 168.630,181.190 161.263,181.100 106.584 L 180.997 44.600 180.899 106.620 M253.293 125.200 C 253.293 125.970,253.375 126.285,253.476 125.900 C 253.576 125.515,253.576 124.885,253.476 124.500 C 253.375 124.115,253.293 124.430,253.293 125.200 M216.901 155.000 C 216.905 155.880,216.987 156.193,217.083 155.695 C 217.179 155.198,217.175 154.478,217.075 154.095 C 216.975 153.713,216.896 154.120,216.901 155.000 M36.909 157.200 C 36.909 158.190,36.987 158.595,37.082 158.100 C 37.178 157.605,37.178 156.795,37.082 156.300 C 36.987 155.805,36.909 156.210,36.909 157.200 M253.462 259.700 C 253.564 259.865,269.531 260.000,288.944 260.000 C 316.615 260.000,324.361 260.108,324.801 260.500 C 325.277 260.925,325.282 260.896,324.835 260.304 C 324.279 259.569,253.008 258.965,253.462 259.700 " stroke="none" fill="#a4a4a4" fill-rule="evenodd"></path><path id="path3" d="M357.000 25.183 C 355.531 25.462,355.615 25.491,358.020 25.543 C 359.461 25.574,360.856 25.816,361.120 26.080 C 361.820 26.780,361.820 384.820,361.120 385.520 C 360.612 386.028,327.126 386.253,325.833 385.757 C 325.260 385.537,325.200 379.654,325.200 323.206 C 325.200 271.480,325.109 260.822,324.662 260.451 C 324.276 260.131,314.080 259.975,288.762 259.902 L 253.400 259.800 253.400 191.800 C 253.400 154.400,253.542 122.810,253.717 121.600 C 253.986 119.729,253.956 119.520,253.517 120.200 C 252.988 121.019,252.476 257.390,252.994 259.498 L 253.214 260.396 288.907 260.498 L 324.600 260.600 324.800 323.400 L 325.000 386.200 342.954 386.304 C 355.877 386.379,361.061 386.281,361.454 385.955 C 362.077 385.438,362.283 26.666,361.662 25.686 C 361.245 25.029,359.056 24.793,357.000 25.183 M346.296 25.984 C 345.468 26.144,344.658 26.419,344.496 26.594 C 344.333 26.770,344.920 26.776,345.800 26.609 C 346.680 26.442,349.110 26.176,351.200 26.018 L 355.000 25.732 351.400 25.712 C 349.420 25.701,347.123 25.823,346.296 25.984 M338.900 27.212 C 338.405 27.411,338.000 27.689,338.000 27.830 C 338.000 27.971,338.315 27.956,338.700 27.797 C 339.085 27.638,340.390 27.373,341.600 27.207 L 343.800 26.905 341.800 26.878 C 340.700 26.863,339.395 27.013,338.900 27.212 M333.922 28.563 C 333.109 28.853,331.737 29.204,330.875 29.342 C 329.126 29.621,326.559 30.793,327.686 30.798 C 328.064 30.799,328.964 30.545,329.686 30.234 C 330.409 29.923,332.530 29.305,334.400 28.861 C 336.270 28.417,337.260 28.050,336.600 28.044 C 335.940 28.039,334.735 28.273,333.922 28.563 M324.800 31.433 C 324.244 31.742,324.067 31.985,324.400 31.980 C 324.730 31.975,325.450 31.714,326.000 31.400 C 326.550 31.086,326.730 30.840,326.400 30.853 C 326.070 30.867,325.350 31.128,324.800 31.433 M321.600 32.600 C 321.022 32.930,320.853 33.172,321.200 33.172 C 321.530 33.172,322.250 32.914,322.800 32.600 C 323.378 32.270,323.547 32.028,323.200 32.028 C 322.870 32.028,322.150 32.286,321.600 32.600 M318.400 33.782 C 317.850 34.090,316.546 34.731,315.502 35.206 C 313.975 35.901,312.673 36.829,313.276 36.792 C 313.817 36.760,320.462 33.242,320.000 33.233 C 319.670 33.227,318.950 33.473,318.400 33.782 M310.200 37.813 C 309.320 38.351,308.240 38.955,307.800 39.156 C 307.360 39.356,306.344 39.970,305.541 40.520 C 304.739 41.070,303.704 41.640,303.241 41.787 C 302.779 41.934,302.400 42.222,302.400 42.427 C 302.400 42.632,302.213 42.800,301.984 42.800 C 301.540 42.800,299.279 44.303,298.605 45.046 C 298.382 45.291,296.983 46.328,295.496 47.350 C 294.008 48.372,292.468 49.522,292.074 49.904 C 291.679 50.287,289.852 51.950,288.015 53.600 C 284.909 56.388,283.334 57.968,280.634 61.000 C 280.046 61.660,279.156 62.650,278.655 63.200 C 276.958 65.064,271.200 72.782,271.200 73.192 C 271.200 73.416,271.061 73.600,270.892 73.600 C 270.722 73.600,270.137 74.452,269.592 75.493 C 269.046 76.534,268.375 77.627,268.100 77.921 C 267.825 78.216,267.600 78.692,267.600 78.980 C 267.600 79.267,267.330 79.726,267.000 80.000 C 266.670 80.274,266.400 80.680,266.400 80.903 C 266.400 81.474,268.231 78.927,269.207 77.000 C 269.889 75.653,271.362 73.490,275.536 67.709 C 279.875 61.699,289.517 52.214,296.600 46.989 C 300.054 44.441,303.590 42.000,303.828 42.000 C 303.909 42.000,305.556 41.066,307.488 39.925 C 309.419 38.784,311.450 37.615,312.000 37.327 C 312.550 37.040,312.730 36.812,312.400 36.820 C 312.070 36.828,311.080 37.275,310.200 37.813 M36.800 43.600 C 35.971 44.429,35.589 146.831,36.387 154.600 C 36.545 156.140,36.702 131.814,36.737 100.543 C 36.794 49.102,36.860 43.662,37.433 43.443 C 38.259 43.126,71.341 43.126,72.167 43.443 C 72.740 43.663,72.800 49.547,72.800 106.010 C 72.800 140.289,72.909 168.619,73.043 168.967 C 73.361 169.797,107.495 169.945,108.320 169.120 C 108.689 168.751,108.800 154.224,108.800 106.167 L 108.800 43.693 109.700 43.452 C 110.880 43.136,143.345 43.127,144.167 43.443 C 144.741 43.663,144.800 49.567,144.800 106.229 C 144.800 167.654,144.814 168.779,145.574 169.186 C 146.836 169.862,179.781 169.746,180.347 169.064 C 180.669 168.676,180.821 151.260,180.896 106.249 C 180.988 51.402,181.072 43.926,181.600 43.592 C 182.258 43.175,214.792 43.048,216.313 43.455 L 217.225 43.700 217.066 101.750 C 216.978 133.677,216.791 160.520,216.650 161.400 C 216.413 162.875,216.432 162.922,216.896 162.000 C 217.293 161.213,217.423 148.523,217.508 102.293 L 217.616 43.586 216.582 43.193 C 215.207 42.670,182.801 42.667,181.427 43.190 L 180.403 43.579 180.301 106.090 L 180.200 168.600 162.900 168.704 L 145.600 168.808 145.600 106.427 L 145.600 44.045 144.711 43.423 C 143.627 42.663,110.565 42.469,109.174 43.214 C 108.414 43.621,108.400 44.747,108.400 106.214 L 108.400 168.800 90.800 168.800 L 73.200 168.800 73.200 106.280 C 73.200 58.187,73.089 43.649,72.720 43.280 C 71.759 42.319,37.778 42.622,36.800 43.600 M323.000 72.532 C 315.029 78.114,309.049 83.618,304.669 89.400 C 303.336 91.160,302.131 92.690,301.990 92.800 C 301.709 93.019,298.800 97.946,298.800 98.201 C 298.800 98.289,298.260 99.160,297.600 100.138 C 296.940 101.116,296.400 102.132,296.400 102.396 C 296.400 102.660,296.146 103.354,295.836 103.938 C 295.526 104.522,294.887 105.990,294.415 107.200 C 293.943 108.410,293.357 109.805,293.111 110.299 C 292.866 110.794,292.762 111.295,292.879 111.412 C 292.996 111.530,293.325 111.035,293.609 110.313 C 294.240 108.711,295.458 105.841,296.229 104.140 C 296.543 103.446,296.800 102.591,296.800 102.240 C 296.800 101.888,296.962 101.600,297.161 101.600 C 297.359 101.600,297.720 101.105,297.962 100.500 C 298.204 99.895,298.759 98.860,299.195 98.200 C 299.631 97.540,300.179 96.640,300.411 96.200 C 301.673 93.815,304.398 90.000,304.841 90.000 C 305.009 90.000,305.250 89.685,305.377 89.300 C 305.823 87.946,312.212 81.227,315.558 78.592 C 316.791 77.621,318.430 76.286,319.200 75.624 C 319.970 74.963,320.742 74.417,320.916 74.411 C 321.305 74.398,323.700 72.739,324.068 72.228 C 324.752 71.278,324.819 79.226,324.713 148.800 L 324.600 223.000 308.000 223.111 C 298.870 223.172,290.990 223.123,290.489 223.001 L 289.577 222.779 289.768 176.690 C 289.873 151.340,290.036 128.800,290.130 126.600 L 290.300 122.600 289.915 125.600 C 289.697 127.300,289.453 149.082,289.353 175.850 L 289.175 223.100 290.088 223.345 C 291.936 223.840,324.210 223.630,324.720 223.120 C 325.436 222.404,325.417 72.672,324.700 72.095 C 324.349 71.812,323.843 71.942,323.000 72.532 M265.730 82.100 C 265.007 83.082,263.838 85.572,264.018 85.747 C 264.118 85.846,264.679 84.953,265.265 83.763 C 266.311 81.638,266.458 81.111,265.730 82.100 M263.273 86.887 C 263.013 87.147,262.800 87.504,262.800 87.679 C 262.800 87.854,262.284 89.123,261.653 90.499 C 261.023 91.875,260.102 94.170,259.608 95.600 C 259.113 97.030,258.459 98.767,258.154 99.460 C 257.850 100.154,257.600 101.088,257.600 101.537 C 257.600 101.986,257.430 102.458,257.223 102.586 C 257.016 102.714,256.737 103.669,256.603 104.709 C 256.469 105.749,256.188 106.913,255.980 107.295 C 255.771 107.677,255.605 108.307,255.612 108.695 C 255.632 109.853,256.350 108.370,256.762 106.321 C 257.276 103.764,258.240 100.480,259.204 98.000 C 259.675 96.790,260.226 95.263,260.429 94.606 C 260.850 93.243,261.620 91.465,263.019 88.629 C 264.020 86.597,264.098 86.062,263.273 86.887 M255.098 110.800 C 254.975 111.570,254.682 112.920,254.447 113.800 C 254.212 114.680,254.042 116.300,254.069 117.400 C 254.097 118.501,254.182 118.860,254.258 118.200 C 254.334 117.540,254.687 115.530,255.042 113.733 C 255.398 111.935,255.606 110.225,255.505 109.933 C 255.404 109.640,255.221 110.030,255.098 110.800 M292.315 113.000 C 291.511 116.622,291.506 116.722,292.199 115.211 C 292.549 114.447,292.779 113.367,292.708 112.811 C 292.585 111.835,292.572 111.841,292.315 113.000 M291.119 117.800 C 290.970 118.460,290.739 119.540,290.604 120.200 L 290.360 121.400 291.004 120.279 C 291.358 119.662,291.589 118.582,291.518 117.879 L 291.389 116.600 291.119 117.800 M36.985 162.200 C 37.058 164.180,37.321 166.250,37.569 166.800 C 38.050 167.865,38.065 168.080,37.185 161.200 C 36.867 158.710,36.858 158.752,36.985 162.200 M215.922 166.000 C 215.782 167.210,215.533 168.633,215.370 169.163 C 215.167 169.821,215.213 170.039,215.514 169.853 C 216.042 169.527,216.525 166.617,216.323 164.976 C 216.219 164.129,216.107 164.415,215.922 166.000 M38.046 169.313 C 38.021 170.145,38.270 171.472,38.600 172.262 C 38.930 173.051,39.200 174.181,39.200 174.772 C 39.200 175.363,39.485 176.196,39.833 176.624 C 40.456 177.389,40.461 177.389,40.191 176.600 C 39.947 175.889,39.366 173.481,38.406 169.200 L 38.092 167.800 38.046 169.313 M214.687 171.800 C 214.552 172.680,214.314 173.833,214.158 174.363 C 213.964 175.018,214.014 175.238,214.314 175.053 C 214.799 174.753,215.386 171.556,215.108 170.725 C 215.012 170.436,214.822 170.920,214.687 171.800 M213.056 178.073 C 212.151 181.147,211.325 183.425,210.568 184.932 C 210.256 185.555,210.000 186.270,210.000 186.521 C 210.000 187.260,211.125 185.438,211.437 184.194 C 211.595 183.567,211.965 182.591,212.259 182.027 C 212.554 181.462,212.796 180.713,212.798 180.361 C 212.799 180.010,213.083 179.156,213.428 178.464 C 213.774 177.771,213.999 176.831,213.928 176.375 C 213.851 175.873,213.506 176.543,213.056 178.073 M40.441 178.624 C 40.418 179.296,40.664 180.196,40.987 180.624 C 41.310 181.051,41.581 181.670,41.590 182.000 C 41.598 182.330,41.874 183.116,42.202 183.746 C 42.531 184.376,42.800 185.061,42.800 185.268 C 42.800 185.640,43.717 187.805,45.269 191.098 C 45.921 192.480,47.276 194.179,46.751 192.956 C 46.465 192.288,44.312 187.802,43.907 187.027 C 43.685 186.602,43.358 185.792,43.181 185.227 C 43.005 184.662,42.469 183.210,41.992 182.000 C 41.515 180.790,40.980 179.260,40.803 178.600 L 40.482 177.400 40.441 178.624 M208.706 189.506 C 207.341 192.460,207.561 192.680,209.012 189.812 C 209.628 188.594,210.048 187.515,209.945 187.412 C 209.843 187.310,209.285 188.252,208.706 189.506 M206.008 194.849 C 205.262 196.252,204.414 197.638,204.125 197.929 C 203.836 198.219,203.600 198.613,203.600 198.803 C 203.600 199.205,200.631 203.611,198.211 206.800 C 197.292 208.010,196.398 209.270,196.224 209.600 C 195.836 210.333,197.567 208.418,198.400 207.192 C 198.730 206.707,199.855 205.168,200.900 203.772 C 201.945 202.377,202.800 201.146,202.800 201.038 C 202.800 200.929,203.312 200.066,203.939 199.120 C 204.565 198.174,205.418 196.770,205.834 196.000 C 206.251 195.230,206.837 194.295,207.137 193.923 C 207.437 193.551,207.611 193.033,207.524 192.772 C 207.437 192.511,206.755 193.446,206.008 194.849 M46.800 194.084 C 46.800 194.424,47.070 194.926,47.400 195.200 C 47.730 195.474,48.000 195.859,48.000 196.057 C 48.000 196.254,48.491 197.177,49.092 198.108 C 49.692 199.039,50.367 200.103,50.592 200.474 C 51.652 202.225,54.197 205.868,54.765 206.446 C 55.114 206.802,55.670 207.500,56.000 207.998 C 57.825 210.753,66.161 219.155,69.800 221.908 C 71.120 222.907,72.380 223.928,72.600 224.179 C 72.820 224.429,73.720 225.066,74.600 225.596 C 75.480 226.125,76.325 226.742,76.478 226.967 C 76.631 227.193,76.869 227.264,77.006 227.127 C 77.144 226.990,76.389 226.290,75.328 225.572 C 65.790 219.115,56.023 208.639,49.621 198.000 C 46.694 193.135,46.800 193.282,46.800 194.084 M195.200 210.359 C 195.200 213.021,177.176 227.158,167.400 232.163 C 165.654 233.056,164.930 233.597,165.476 233.598 C 165.958 233.599,166.457 233.431,166.584 233.225 C 166.712 233.019,167.847 232.365,169.108 231.772 C 170.369 231.178,171.490 230.572,171.600 230.425 C 171.710 230.277,172.610 229.742,173.600 229.235 C 174.590 228.727,175.490 228.197,175.600 228.056 C 175.905 227.666,178.336 226.000,178.601 226.000 C 178.729 226.000,179.051 225.822,179.317 225.604 C 179.583 225.386,181.330 223.997,183.200 222.517 C 188.592 218.252,196.634 210.000,195.400 210.000 C 195.290 210.000,195.200 210.161,195.200 210.359 M77.769 227.550 C 78.032 227.975,82.509 230.622,85.800 232.298 C 88.101 233.470,89.658 234.183,92.494 235.367 C 93.212 235.666,94.481 236.201,95.314 236.556 C 96.146 236.910,97.136 237.188,97.514 237.174 C 97.891 237.160,97.210 236.780,96.000 236.330 C 90.734 234.371,80.391 229.240,78.792 227.793 C 78.077 227.146,77.423 226.990,77.769 227.550 M162.400 234.428 C 161.630 234.836,160.460 235.347,159.800 235.563 C 155.914 236.838,151.974 238.399,153.000 238.257 C 154.278 238.081,156.239 237.442,158.200 236.565 C 158.860 236.269,159.897 235.911,160.504 235.769 C 161.111 235.628,161.706 235.351,161.827 235.156 C 161.948 234.960,162.375 234.800,162.775 234.800 C 163.175 234.800,163.726 234.530,164.000 234.200 C 164.639 233.430,164.154 233.499,162.400 234.428 M98.976 237.767 C 99.404 238.115,100.174 238.400,100.689 238.400 C 101.204 238.400,102.272 238.670,103.062 239.000 C 103.851 239.330,104.971 239.582,105.549 239.559 C 106.740 239.513,106.708 239.501,102.000 238.264 C 100.790 237.947,99.440 237.562,99.000 237.411 C 98.211 237.139,98.211 237.144,98.976 237.767 M148.800 239.025 L 147.400 239.555 148.600 239.563 C 149.260 239.568,150.250 239.314,150.800 239.000 C 152.133 238.238,150.838 238.254,148.800 239.025 M107.300 239.876 C 107.685 239.976,108.044 240.090,108.097 240.129 C 108.151 240.168,108.286 273.050,108.397 313.200 L 108.600 386.200 126.600 386.305 C 143.167 386.402,144.640 386.356,145.100 385.729 C 145.496 385.189,145.601 370.004,145.606 313.024 C 145.609 273.411,145.744 240.802,145.906 240.560 C 146.068 240.318,146.470 240.017,146.800 239.892 C 147.333 239.689,147.333 239.660,146.800 239.638 C 144.897 239.557,145.014 235.272,144.800 313.085 L 144.600 385.800 126.800 385.800 L 109.000 385.800 108.800 313.200 C 108.601 241.022,108.571 239.558,107.276 239.646 C 106.667 239.688,106.669 239.711,107.300 239.876 " stroke="none" fill="#b4b4b4" fill-rule="evenodd"></path><path id="path4" d="M353.000 26.004 C 347.368 26.311,343.513 26.890,337.200 28.378 C 336.064 28.646,335.989 28.717,336.803 28.754 C 337.354 28.779,338.434 28.600,339.203 28.357 C 342.416 27.337,358.767 25.746,360.300 26.304 C 360.958 26.543,361.044 383.597,360.386 384.826 C 359.803 385.915,326.659 386.052,326.243 384.967 C 326.109 384.619,326.000 356.477,326.000 322.429 C 326.000 262.964,325.971 260.498,325.269 259.862 C 324.599 259.256,321.511 259.200,289.069 259.200 L 253.600 259.200 253.600 194.329 C 253.600 127.431,253.732 121.207,255.261 115.979 C 255.489 115.197,255.608 114.117,255.525 113.579 C 255.431 112.965,255.203 113.570,254.914 115.200 C 253.385 123.842,253.400 123.071,253.400 192.200 L 253.400 259.400 288.762 259.502 C 314.080 259.575,324.276 259.731,324.662 260.051 C 325.109 260.422,325.200 271.027,325.200 322.475 C 325.200 364.433,325.334 384.703,325.614 385.226 C 326.077 386.091,359.463 386.454,360.800 385.608 C 361.784 384.986,361.910 26.824,360.926 26.100 C 360.553 25.825,359.696 25.632,359.024 25.671 C 358.351 25.710,355.640 25.860,353.000 26.004 M332.800 29.454 L 331.000 30.004 332.984 29.798 C 334.075 29.685,335.146 29.414,335.364 29.196 C 335.886 28.674,335.094 28.754,332.800 29.454 M329.429 30.354 C 329.308 30.549,328.713 30.801,328.105 30.916 C 326.998 31.124,324.101 32.106,322.600 32.782 C 322.160 32.980,321.530 33.245,321.200 33.373 C 320.870 33.500,321.050 33.531,321.600 33.442 C 322.712 33.263,324.774 32.576,326.600 31.776 C 327.260 31.488,328.383 31.136,329.095 30.995 C 330.447 30.727,331.289 30.000,330.247 30.000 C 329.917 30.000,329.549 30.159,329.429 30.354 M319.024 34.213 C 318.402 34.683,318.372 34.800,318.875 34.800 C 319.220 34.800,319.726 34.530,320.000 34.200 C 320.634 33.437,320.039 33.444,319.024 34.213 M315.286 35.877 C 314.123 36.443,313.263 36.996,313.373 37.107 C 313.565 37.298,318.000 35.216,318.000 34.935 C 318.000 34.650,317.327 34.884,315.286 35.877 M309.200 39.000 C 308.922 39.335,308.879 39.600,309.102 39.600 C 309.322 39.600,309.726 39.330,310.000 39.000 C 310.278 38.665,310.321 38.400,310.098 38.400 C 309.878 38.400,309.474 38.670,309.200 39.000 M305.400 41.225 C 304.080 42.089,302.730 42.918,302.400 43.069 C 301.846 43.322,298.820 45.469,297.729 46.383 C 297.470 46.600,296.129 47.548,294.749 48.489 C 285.887 54.534,271.456 71.927,265.452 83.800 C 263.371 87.916,262.008 90.941,262.164 91.097 C 262.328 91.261,266.000 83.878,266.000 83.385 C 266.000 83.237,266.504 82.370,267.119 81.458 C 267.734 80.546,268.366 79.530,268.523 79.200 C 268.680 78.870,269.165 78.060,269.600 77.400 C 270.035 76.740,270.513 75.930,270.663 75.600 C 270.812 75.270,271.678 74.010,272.587 72.800 C 273.495 71.590,274.360 70.285,274.507 69.900 C 274.654 69.515,274.961 69.200,275.187 69.200 C 275.414 69.200,275.600 68.930,275.600 68.600 C 275.600 68.270,275.774 68.000,275.987 68.000 C 276.200 68.000,276.605 67.560,276.887 67.023 C 278.579 63.801,289.184 53.297,295.748 48.344 C 297.756 46.828,299.921 45.186,300.558 44.694 C 301.195 44.202,302.090 43.656,302.547 43.480 C 303.004 43.304,303.472 43.034,303.589 42.880 C 303.878 42.497,305.206 41.682,306.330 41.197 C 307.317 40.772,308.683 39.581,308.129 39.628 C 307.948 39.644,306.720 40.362,305.400 41.225 M37.049 44.215 C 36.912 44.573,36.843 69.826,36.897 100.333 L 36.993 155.800 37.197 99.800 C 37.414 40.033,37.422 43.244,37.049 44.215 M71.700 43.876 C 72.363 44.049,72.400 47.366,72.400 106.456 C 72.400 148.702,72.534 169.102,72.814 169.626 C 73.461 170.836,108.139 170.836,108.786 169.626 C 109.066 169.102,109.200 148.762,109.200 106.646 C 109.200 47.834,109.238 44.416,109.900 44.005 C 110.540 43.608,110.531 43.581,109.800 43.691 C 109.005 43.810,108.999 44.195,108.800 106.605 L 108.600 169.400 90.800 169.400 L 73.000 169.400 72.899 106.500 L 72.798 43.600 71.899 43.646 C 71.222 43.681,71.173 43.738,71.700 43.876 M144.305 106.523 C 144.376 149.242,144.543 169.503,144.825 169.785 C 145.658 170.619,179.729 170.550,180.744 169.712 L 181.606 169.000 181.703 106.338 C 181.756 71.874,181.665 43.760,181.500 43.862 C 181.335 43.964,181.200 72.081,181.200 106.344 C 181.200 154.263,181.089 168.751,180.720 169.120 C 180.212 169.628,146.726 169.853,145.433 169.357 C 144.860 169.137,144.799 163.255,144.794 106.857 C 144.791 72.616,144.656 44.392,144.494 44.138 C 144.332 43.884,144.247 71.957,144.305 106.523 M216.153 44.348 C 216.803 45.066,216.900 147.683,216.261 159.600 C 216.090 162.803,216.102 162.873,216.482 160.800 C 216.910 158.461,217.421 46.135,217.011 44.500 C 216.886 44.005,216.490 43.600,216.130 43.600 C 215.532 43.600,215.534 43.665,216.153 44.348 M321.441 72.988 C 314.880 77.297,307.658 84.196,303.005 90.600 C 302.365 91.480,301.732 92.290,301.597 92.400 C 301.119 92.789,298.400 97.511,298.400 97.952 C 298.400 98.199,298.265 98.400,298.099 98.400 C 297.804 98.400,296.429 100.949,295.350 103.500 C 295.048 104.215,294.514 105.475,294.165 106.300 C 293.816 107.125,293.276 108.310,292.965 108.932 C 292.654 109.555,292.404 110.365,292.409 110.732 C 292.420 111.514,292.930 110.478,295.185 105.096 C 296.085 102.949,297.174 100.609,297.605 99.896 C 298.037 99.183,298.575 98.240,298.801 97.800 C 299.027 97.360,299.567 96.460,300.002 95.800 C 300.436 95.140,300.915 94.330,301.066 94.000 C 302.350 91.202,311.611 81.024,316.544 76.990 C 319.334 74.708,324.131 71.579,324.600 71.734 C 324.865 71.822,325.000 97.477,325.000 147.633 L 325.000 223.400 307.200 223.400 L 289.400 223.400 289.400 176.400 C 289.400 150.550,289.526 127.780,289.680 125.800 C 289.924 122.662,289.904 122.457,289.522 124.200 C 289.224 125.565,289.037 141.676,288.935 174.907 L 288.785 223.614 289.818 224.007 C 292.123 224.883,324.142 224.500,325.125 223.584 L 326.000 222.769 326.000 147.464 C 326.000 89.428,325.890 72.050,325.520 71.680 C 324.777 70.937,324.359 71.071,321.441 72.988 M261.086 93.222 C 260.709 94.093,260.400 95.064,260.400 95.379 C 260.400 95.695,260.220 96.064,260.000 96.200 C 259.780 96.336,259.612 96.752,259.626 97.124 C 259.641 97.527,259.867 97.315,260.185 96.600 C 261.493 93.657,262.112 91.979,261.949 91.815 C 261.851 91.718,261.463 92.351,261.086 93.222 M258.749 99.695 C 258.391 100.633,257.795 102.570,257.423 104.000 C 257.051 105.430,256.489 107.516,256.174 108.635 C 255.858 109.754,255.621 111.104,255.646 111.635 C 255.681 112.375,255.768 112.273,256.020 111.200 C 256.627 108.604,257.267 106.210,257.837 104.400 C 258.149 103.410,258.403 102.279,258.402 101.886 C 258.401 101.493,258.685 100.737,259.033 100.206 C 259.381 99.674,259.606 98.958,259.533 98.615 C 259.460 98.272,259.107 98.758,258.749 99.695 M291.646 113.239 C 291.401 113.943,291.214 114.988,291.232 115.560 C 291.249 116.132,291.317 116.420,291.383 116.200 C 291.449 115.980,291.734 115.034,292.016 114.098 C 292.618 112.102,292.300 111.363,291.646 113.239 M290.477 118.138 C 290.215 118.864,290.014 119.894,290.032 120.428 C 290.049 120.963,290.117 121.220,290.183 121.000 C 290.249 120.780,290.534 119.834,290.816 118.898 C 291.429 116.865,291.157 116.257,290.477 118.138 M37.293 159.600 C 37.276 160.810,37.516 163.060,37.826 164.600 L 38.388 167.400 38.154 164.800 C 38.026 163.370,37.786 161.120,37.621 159.800 L 37.322 157.400 37.293 159.600 M215.523 165.000 C 214.866 169.407,213.402 175.563,212.560 177.460 C 212.252 178.154,212.008 179.144,212.018 179.660 C 212.051 181.474,213.549 176.485,215.397 168.400 C 215.774 166.750,216.011 164.950,215.922 164.400 C 215.794 163.604,215.713 163.727,215.523 165.000 M38.441 168.474 C 38.418 169.065,38.595 170.055,38.834 170.674 C 39.073 171.293,39.423 172.610,39.612 173.600 C 40.254 176.968,42.645 184.045,42.247 181.400 C 42.090 180.360,41.224 177.497,40.491 175.600 C 40.363 175.270,40.036 173.920,39.763 172.600 C 38.926 168.544,38.490 167.185,38.441 168.474 M211.211 181.771 C 210.985 182.365,210.794 183.065,210.787 183.326 C 210.780 183.587,210.510 184.149,210.187 184.576 C 209.864 185.004,209.606 185.724,209.613 186.176 C 209.621 186.649,209.979 186.148,210.455 185.000 C 210.911 183.900,211.476 182.595,211.710 182.101 C 211.943 181.606,212.019 181.086,211.878 180.945 C 211.738 180.804,211.437 181.176,211.211 181.771 M42.413 182.905 C 42.406 183.073,42.554 183.523,42.741 183.905 C 42.929 184.287,43.350 185.230,43.678 186.000 C 46.236 192.017,52.215 202.800,52.993 202.800 C 53.097 202.800,52.212 201.225,51.026 199.300 C 49.841 197.375,47.946 193.910,46.816 191.600 C 45.686 189.290,44.500 186.890,44.181 186.268 C 43.861 185.645,43.600 184.914,43.600 184.644 C 43.600 184.111,42.434 182.403,42.413 182.905 M208.873 187.687 C 208.613 187.947,208.400 188.369,208.400 188.624 C 208.400 188.879,207.848 190.121,207.174 191.385 C 206.500 192.648,206.026 193.759,206.120 193.853 C 206.214 193.948,207.039 192.552,207.952 190.752 C 209.579 187.546,209.821 186.739,208.873 187.687 M205.306 194.890 C 205.082 195.171,204.774 195.805,204.622 196.300 C 204.470 196.795,204.178 197.200,203.973 197.200 C 203.768 197.200,203.600 197.383,203.600 197.606 C 203.600 198.422,197.425 207.237,194.821 210.138 C 185.416 220.615,175.075 228.230,163.000 233.572 C 159.504 235.118,158.624 235.582,159.174 235.591 C 159.489 235.596,160.479 235.255,161.374 234.834 C 169.054 231.218,171.176 230.094,176.164 227.000 C 178.023 225.847,180.810 223.795,184.200 221.084 C 187.282 218.619,195.604 209.986,197.866 206.908 C 199.121 205.198,200.311 203.689,200.510 203.554 C 200.709 203.419,201.081 202.930,201.336 202.469 C 201.591 202.007,202.751 200.069,203.914 198.161 C 205.767 195.121,206.500 193.400,205.306 194.890 M54.053 204.600 C 54.507 205.370,55.041 206.000,55.240 206.000 C 55.438 206.000,55.600 206.201,55.600 206.446 C 55.600 207.674,65.728 218.142,70.121 221.455 C 71.485 222.483,72.780 223.521,73.000 223.762 C 74.438 225.337,85.600 231.970,85.600 231.249 C 85.600 231.045,85.105 230.680,84.500 230.437 C 82.981 229.828,79.983 228.109,79.192 227.393 C 78.832 227.067,78.417 226.800,78.270 226.800 C 77.993 226.800,72.353 222.868,72.000 222.429 C 71.890 222.292,70.810 221.403,69.600 220.454 C 64.940 216.796,59.922 211.561,55.458 205.700 C 53.328 202.904,52.816 202.503,54.053 204.600 M87.110 232.401 C 87.830 232.841,88.612 233.200,88.848 233.200 C 89.084 233.200,89.844 233.497,90.538 233.859 C 93.437 235.373,93.949 235.600,94.462 235.594 C 94.758 235.591,94.190 235.208,93.200 234.742 C 92.210 234.276,90.922 233.649,90.338 233.348 C 89.754 233.046,89.066 232.800,88.810 232.800 C 88.553 232.800,88.073 232.530,87.743 232.200 C 87.413 231.870,86.841 231.601,86.471 231.601 C 86.055 231.602,86.297 231.906,87.110 232.401 M96.146 236.202 C 96.776 236.531,97.586 236.799,97.946 236.798 C 98.334 236.796,98.135 236.553,97.454 236.198 C 96.824 235.869,96.014 235.601,95.654 235.602 C 95.266 235.604,95.465 235.847,96.146 236.202 M157.028 235.955 C 156.907 236.150,156.184 236.426,155.421 236.570 C 154.141 236.810,151.402 237.992,152.113 237.998 C 152.584 238.001,157.313 236.377,158.000 235.975 C 158.513 235.675,158.501 235.623,157.924 235.612 C 157.552 235.605,157.149 235.760,157.028 235.955 M99.600 237.400 C 100.150 237.714,100.870 237.972,101.200 237.972 C 101.547 237.972,101.378 237.730,100.800 237.400 C 100.250 237.086,99.530 236.828,99.200 236.828 C 98.853 236.828,99.022 237.070,99.600 237.400 M103.800 238.612 C 105.895 239.366,106.912 239.358,105.454 238.598 C 104.824 238.269,103.834 238.008,103.254 238.018 C 102.353 238.033,102.431 238.119,103.800 238.612 M148.200 238.614 C 146.607 239.344,147.773 239.342,149.800 238.612 C 151.036 238.166,151.173 238.039,150.400 238.050 C 149.850 238.058,148.860 238.312,148.200 238.614 M107.600 239.558 L 108.600 239.836 108.803 312.818 C 108.914 352.958,109.049 385.845,109.103 385.900 C 109.515 386.324,143.997 385.932,144.276 385.500 C 144.454 385.225,144.690 352.425,144.800 312.612 L 145.000 240.224 146.000 239.718 C 146.895 239.265,146.914 239.211,146.180 239.206 C 144.327 239.193,144.400 236.201,144.400 312.247 C 144.400 351.895,144.291 384.619,144.157 384.967 C 143.909 385.615,111.465 385.984,109.833 385.357 C 109.259 385.137,109.200 378.358,109.200 312.637 C 109.200 236.177,109.272 239.150,107.420 239.240 C 106.733 239.273,106.762 239.325,107.600 239.558 " stroke="none" fill="#9c9c9c" fill-rule="evenodd"></path></g></svg>