<svg id="svg" version="1.1" xmlns="http://www.w3.org/2000/svg" xmlns:xlink="http://www.w3.org/1999/xlink" width="400" height="396.55172413793105" viewBox="0, 0, 400,396.55172413793105"><g id="svgg"><path id="path0" d="M0.000 198.413 L 0.000 396.825 200.000 396.825 L 400.000 396.825 400.000 198.413 L 400.000 0.000 200.000 0.000 L 0.000 0.000 0.000 198.413 M217.460 29.326 C 228.078 30.541,230.503 30.970,242.460 33.751 C 243.224 33.929,244.474 34.249,245.238 34.463 C 246.002 34.677,247.698 35.144,249.008 35.502 C 298.126 48.913,342.508 87.866,363.638 136.111 C 364.260 137.530,365.003 139.226,365.289 139.881 C 367.493 144.914,372.207 159.264,373.469 164.782 C 373.656 165.600,373.967 166.939,374.159 167.758 C 374.941 171.095,375.778 175.418,376.367 179.167 C 376.710 181.349,377.084 183.671,377.198 184.325 C 380.102 200.929,378.723 230.777,374.181 249.603 C 370.148 266.323,363.470 283.573,356.015 296.528 C 355.544 297.346,354.826 298.596,354.419 299.306 C 343.799 317.810,326.691 337.503,309.921 350.530 C 306.696 353.034,300.758 357.312,297.619 359.392 C 289.287 364.914,275.038 372.420,266.468 375.804 C 260.536 378.147,252.491 380.922,248.611 381.964 C 242.553 383.591,235.300 385.359,233.135 385.735 C 227.807 386.662,225.855 386.969,223.016 387.327 C 197.301 390.576,173.125 388.865,149.306 382.112 C 148.596 381.911,147.436 381.588,146.726 381.394 C 144.615 380.819,137.310 378.342,134.325 377.190 C 130.308 375.639,130.227 375.605,127.183 374.208 C 125.655 373.507,123.690 372.652,122.817 372.306 C 121.944 371.961,120.694 371.385,120.040 371.025 C 119.385 370.665,117.153 369.501,115.079 368.438 C 113.006 367.375,109.702 365.537,107.738 364.353 C 105.774 363.169,103.542 361.829,102.778 361.375 C 86.544 351.729,65.741 332.445,53.905 316.071 C 52.643 314.325,51.426 312.681,51.202 312.418 C 50.687 311.813,44.950 302.985,44.034 301.389 C 41.023 296.139,40.079 294.397,37.695 289.683 C 32.655 279.715,28.074 268.035,25.400 258.333 C 25.129 257.351,24.767 256.101,24.595 255.556 C 23.872 253.263,21.945 244.474,21.072 239.484 C 18.361 223.996,17.695 203.408,19.457 189.484 C 20.606 180.395,21.870 172.700,22.812 169.048 C 23.122 167.847,23.639 165.794,23.960 164.484 C 33.167 126.982,57.100 90.011,86.905 67.248 C 88.323 66.164,89.573 65.177,89.683 65.053 C 89.792 64.930,90.751 64.215,91.813 63.466 C 92.876 62.716,94.231 61.746,94.824 61.310 C 96.279 60.238,105.159 54.365,105.323 54.365 C 105.395 54.365,107.039 53.417,108.977 52.257 C 114.455 48.980,124.734 44.024,132.143 41.088 C 134.216 40.266,136.270 39.443,136.706 39.260 C 138.144 38.655,145.787 36.157,148.214 35.498 C 149.524 35.143,151.220 34.677,151.984 34.463 C 152.748 34.249,153.998 33.929,154.762 33.751 C 167.123 30.876,170.666 30.276,180.749 29.349 C 183.366 29.108,185.597 28.821,185.707 28.711 C 186.068 28.350,213.594 28.884,217.460 29.326 M183.135 111.931 C 163.079 112.385,152.213 113.111,147.619 114.305 C 141.376 115.928,140.059 116.401,134.325 119.082 C 124.385 123.731,117.911 129.454,111.692 139.090 C 102.635 153.126,101.352 163.326,101.712 218.452 C 101.809 233.294,102.084 247.937,102.325 250.992 C 103.676 268.169,104.233 272.327,106.154 279.563 C 108.992 290.251,117.029 301.052,127.183 307.823 C 141.126 317.121,156.600 319.118,215.079 319.166 C 277.233 319.218,297.733 308.671,306.323 272.222 C 307.688 266.429,308.076 260.502,308.920 232.540 C 310.105 193.265,309.032 169.416,305.466 155.754 C 302.268 143.503,298.936 137.424,291.084 129.522 C 275.405 113.740,254.399 110.317,183.135 111.931 M234.127 130.786 C 251.120 131.382,256.022 131.751,259.615 132.703 C 270.750 135.651,280.619 142.907,284.231 150.800 C 287.489 157.919,288.655 163.552,290.061 178.968 C 291.216 191.625,290.558 248.143,289.095 261.905 C 287.647 275.535,281.304 287.961,273.810 291.852 C 266.095 295.858,263.415 296.864,257.937 297.812 C 257.173 297.944,255.119 298.298,253.373 298.599 C 240.768 300.772,207.263 301.303,175.397 299.836 C 153.654 298.834,148.581 298.044,141.567 294.571 C 133.135 290.394,125.867 282.267,124.170 275.117 C 120.876 261.235,120.426 253.434,120.473 211.111 C 120.523 165.756,120.824 162.256,125.511 152.431 C 132.093 138.634,141.184 133.587,164.286 130.907 C 173.944 129.786,204.163 129.734,234.127 130.786 M257.738 148.177 C 243.181 151.465,245.674 172.577,260.624 172.613 C 271.701 172.640,276.990 158.573,268.714 151.096 C 266.686 149.264,261.726 147.318,259.990 147.674 C 259.843 147.704,258.829 147.930,257.738 148.177 M198.413 162.934 C 182.605 164.930,169.628 172.971,160.830 186.219 C 154.872 195.192,152.019 204.776,152.004 215.873 C 151.972 239.538,169.270 261.615,192.063 266.998 C 197.412 268.261,198.625 268.385,205.357 268.351 C 212.187 268.317,213.974 268.104,219.048 266.721 C 236.345 262.008,249.927 249.158,255.507 232.227 C 264.385 205.285,250.541 175.987,224.206 165.987 C 215.477 162.671,207.741 161.756,198.413 162.934 M209.325 181.143 C 235.420 183.398,248.537 215.073,232.232 236.456 C 224.589 246.479,208.987 252.038,197.421 248.860 C 187.531 246.142,181.329 241.757,176.141 233.813 C 164.368 215.787,173.514 188.519,193.254 182.791 C 197.316 181.612,199.002 181.256,201.786 180.989 C 203.532 180.821,205.317 180.733,205.754 180.794 C 206.190 180.854,207.798 181.011,209.325 181.143 " stroke="none" fill="#fafbfb" fill-rule="evenodd"></path><path id="path1" d="M185.707 28.711 C 185.597 28.821,183.366 29.108,180.749 29.349 C 170.666 30.276,167.123 30.876,154.762 33.751 C 153.998 33.929,152.748 34.249,151.984 34.463 C 151.220 34.677,149.524 35.143,148.214 35.498 C 145.787 36.157,138.144 38.655,136.706 39.260 C 136.270 39.443,134.216 40.266,132.143 41.088 C 124.734 44.024,114.455 48.980,108.977 52.257 C 107.039 53.417,105.395 54.365,105.323 54.365 C 105.159 54.365,96.279 60.238,94.824 61.310 C 94.231 61.746,92.876 62.716,91.813 63.466 C 90.751 64.215,89.792 64.930,89.683 65.053 C 89.573 65.177,88.323 66.164,86.905 67.248 C 57.100 90.011,33.167 126.982,23.960 164.484 C 23.639 165.794,23.122 167.847,22.812 169.048 C 21.870 172.700,20.606 180.395,19.457 189.484 C 17.695 203.408,18.361 223.996,21.072 239.484 C 21.945 244.474,23.872 253.263,24.595 255.556 C 24.767 256.101,25.129 257.351,25.400 258.333 C 28.074 268.035,32.655 279.715,37.695 289.683 C 40.079 294.397,41.023 296.139,44.034 301.389 C 44.950 302.985,50.687 311.813,51.202 312.418 C 51.426 312.681,52.643 314.325,53.905 316.071 C 65.741 332.445,86.544 351.729,102.778 361.375 C 103.542 361.829,105.774 363.169,107.738 364.353 C 109.702 365.537,113.006 367.375,115.079 368.438 C 117.153 369.501,119.385 370.665,120.040 371.025 C 120.694 371.385,121.944 371.961,122.817 372.306 C 123.690 372.652,125.655 373.507,127.183 374.208 C 130.227 375.605,130.308 375.639,134.325 377.190 C 137.310 378.342,144.615 380.819,146.726 381.394 C 147.436 381.588,148.596 381.911,149.306 382.112 C 173.125 388.865,197.301 390.576,223.016 387.327 C 225.855 386.969,227.807 386.662,233.135 385.735 C 235.300 385.359,242.553 383.591,248.611 381.964 C 252.491 380.922,260.536 378.147,266.468 375.804 C 275.038 372.420,289.287 364.914,297.619 359.392 C 300.758 357.312,306.696 353.034,309.921 350.530 C 326.691 337.503,343.799 317.810,354.419 299.306 C 354.826 298.596,355.544 297.346,356.015 296.528 C 363.470 283.573,370.148 266.323,374.181 249.603 C 378.723 230.777,380.102 200.929,377.198 184.325 C 377.084 183.671,376.710 181.349,376.367 179.167 C 375.778 175.418,374.941 171.095,374.159 167.758 C 373.967 166.939,373.656 165.600,373.469 164.782 C 372.207 159.264,367.493 144.914,365.289 139.881 C 365.003 139.226,364.260 137.530,363.638 136.111 C 342.508 87.866,298.126 48.913,249.008 35.502 C 247.698 35.144,246.002 34.677,245.238 34.463 C 244.474 34.249,243.224 33.929,242.460 33.751 C 230.503 30.970,228.078 30.541,217.460 29.326 C 213.594 28.884,186.068 28.350,185.707 28.711 M231.349 111.900 C 258.118 113.019,273.537 116.296,283.532 122.989 C 290.223 127.470,297.811 136.166,300.980 142.985 C 308.508 159.181,310.467 181.276,308.920 232.540 C 308.076 260.502,307.688 266.429,306.323 272.222 C 298.923 303.621,282.777 314.952,240.079 318.711 C 226.000 319.950,167.453 318.806,152.976 317.008 C 128.163 313.927,109.641 297.745,105.124 275.198 C 103.776 268.467,103.536 266.389,102.325 250.992 C 102.084 247.937,101.809 233.294,101.712 218.452 C 101.352 163.326,102.635 153.126,111.692 139.090 C 117.911 129.454,124.385 123.731,134.325 119.082 C 140.059 116.401,141.376 115.928,147.619 114.305 C 155.575 112.238,205.283 110.810,231.349 111.900 M178.968 130.183 C 145.761 131.055,133.219 136.274,125.511 152.431 C 120.824 162.256,120.523 165.756,120.473 211.111 C 120.426 253.434,120.876 261.235,124.170 275.117 C 125.867 282.267,133.135 290.394,141.567 294.571 C 148.581 298.044,153.654 298.834,175.397 299.836 C 207.263 301.303,240.768 300.772,253.373 298.599 C 255.119 298.298,257.173 297.944,257.937 297.812 C 263.415 296.864,266.095 295.858,273.810 291.852 C 275.764 290.838,280.532 285.964,282.339 283.135 C 287.340 275.303,289.032 267.873,289.706 250.794 C 292.288 185.295,290.391 159.140,282.207 147.421 C 276.388 139.088,265.554 133.058,254.060 131.756 C 244.421 130.665,197.818 129.688,178.968 130.183 M262.371 148.066 C 269.506 149.574,273.880 155.651,272.619 162.303 C 269.784 177.252,248.257 175.499,248.240 160.317 C 248.232 152.962,251.536 149.406,259.990 147.674 C 260.137 147.644,261.208 147.820,262.371 148.066 M209.837 162.699 C 216.366 163.372,218.769 163.922,224.206 165.987 C 259.960 179.564,269.688 225.417,242.664 252.992 C 235.137 260.673,227.383 264.810,215.079 267.707 C 211.808 268.478,199.211 268.608,196.032 267.903 C 188.898 266.323,186.680 265.570,181.277 262.893 C 152.913 248.840,143.267 212.667,160.830 186.219 C 166.474 177.720,172.548 172.468,182.519 167.463 C 190.378 163.519,200.562 161.743,209.837 162.699 M201.786 180.989 C 199.002 181.256,197.316 181.612,193.254 182.791 C 173.514 188.519,164.368 215.787,176.141 233.813 C 181.329 241.757,187.531 246.142,197.421 248.860 C 208.987 252.038,224.589 246.479,232.232 236.456 C 248.537 215.073,235.420 183.398,209.325 181.143 C 207.798 181.011,206.190 180.854,205.754 180.794 C 205.317 180.733,203.532 180.821,201.786 180.989 " stroke="none" fill="#040404" fill-rule="evenodd"></path></g></svg>