<svg id="svg" version="1.1" xmlns="http://www.w3.org/2000/svg" xmlns:xlink="http://www.w3.org/1999/xlink" width="400" height="352.26337448559667" viewBox="0, 0, 400,352.26337448559667"><g id="svgg"><path id="path0" d="M0.000 176.211 L 0.000 352.423 200.000 352.423 L 400.000 352.423 400.000 176.211 L 400.000 0.000 200.000 0.000 L 0.000 0.000 0.000 176.211 M216.740 6.512 C 225.021 7.388,227.458 7.686,228.018 7.892 C 228.308 7.999,230.370 8.418,232.599 8.824 C 238.094 9.823,238.929 10.005,242.996 11.090 C 249.254 12.761,250.717 13.197,255.683 14.874 C 259.261 16.082,265.043 18.260,267.665 19.388 C 271.464 21.021,283.096 26.927,286.872 29.140 C 305.474 40.041,323.745 56.125,336.235 72.593 C 337.482 74.237,338.661 75.756,338.855 75.968 C 339.211 76.358,341.946 80.321,344.848 84.654 C 345.719 85.954,346.432 87.131,346.432 87.269 C 346.432 87.408,346.646 87.772,346.908 88.078 C 347.170 88.384,347.765 89.346,348.230 90.215 C 348.695 91.084,349.447 92.353,349.903 93.034 C 351.374 95.236,358.005 109.031,359.685 113.387 C 360.191 114.698,360.810 116.247,361.060 116.828 C 361.603 118.090,364.479 126.737,365.104 128.987 C 365.346 129.859,365.676 130.969,365.836 131.454 C 366.152 132.406,366.935 135.501,367.575 138.326 C 367.794 139.295,368.123 140.643,368.306 141.322 C 368.706 142.809,369.974 150.058,370.433 153.480 C 372.526 169.096,372.644 187.098,370.736 200.000 C 369.867 205.875,368.888 211.508,368.285 214.097 C 366.499 221.768,366.108 223.377,365.846 224.141 C 365.680 224.626,365.342 225.736,365.095 226.608 C 364.416 229.002,361.583 237.563,361.072 238.767 C 360.825 239.348,360.178 240.934,359.636 242.291 C 357.705 247.119,352.352 258.388,350.860 260.763 C 350.424 261.458,349.549 262.978,348.916 264.141 C 348.284 265.304,347.411 266.811,346.977 267.489 C 346.202 268.703,340.407 277.414,339.393 278.891 C 338.704 279.895,332.274 288.057,331.995 288.282 C 331.875 288.379,330.771 289.648,329.543 291.101 C 324.874 296.627,312.725 308.448,309.283 310.815 C 308.878 311.094,307.753 311.984,306.784 312.794 C 303.511 315.528,289.487 325.286,288.831 325.286 C 288.754 325.286,287.065 326.247,285.076 327.421 C 280.488 330.130,266.637 336.916,265.698 336.916 C 265.515 336.916,265.090 337.062,264.753 337.239 C 263.993 337.640,262.070 338.431,260.441 339.014 C 259.762 339.256,258.890 339.591,258.502 339.757 C 257.416 340.223,251.388 342.163,248.634 342.933 C 247.278 343.312,245.295 343.875,244.229 344.183 C 243.163 344.492,241.656 344.873,240.881 345.030 C 240.106 345.188,238.361 345.575,237.004 345.891 C 233.132 346.792,228.225 347.659,222.731 348.415 C 207.006 350.577,188.874 350.344,173.040 347.777 C 171.120 347.465,166.540 346.554,159.119 345.007 C 158.344 344.845,156.599 344.383,155.242 343.979 C 153.885 343.576,152.141 343.065,151.366 342.844 C 140.791 339.831,125.769 333.568,116.828 328.445 C 116.247 328.112,114.819 327.295,113.656 326.630 C 91.107 313.735,69.002 292.539,55.184 270.564 C 54.425 269.357,53.451 267.815,53.019 267.137 C 52.588 266.458,51.720 264.952,51.092 263.789 C 50.464 262.626,49.812 261.497,49.642 261.282 C 49.056 260.538,45.113 252.699,43.508 249.085 C 42.622 247.093,41.684 244.987,41.422 244.405 C 39.894 241.010,36.489 231.374,35.072 226.432 C 34.738 225.269,34.334 223.921,34.173 223.436 C 34.012 222.952,33.640 221.524,33.345 220.264 C 33.050 219.004,32.492 216.626,32.106 214.978 C 26.980 193.150,26.895 163.040,31.898 141.498 C 33.395 135.051,33.906 132.953,34.171 132.159 C 34.333 131.674,34.739 130.326,35.074 129.163 C 36.598 123.869,39.819 114.751,41.422 111.189 C 41.684 110.608,42.628 108.489,43.520 106.481 C 45.361 102.339,48.468 96.118,49.352 94.802 C 49.678 94.317,50.459 92.969,51.089 91.806 C 51.719 90.643,52.588 89.137,53.021 88.458 C 53.453 87.780,54.500 86.115,55.347 84.758 C 57.119 81.919,61.392 75.761,62.714 74.141 C 63.208 73.535,64.401 72.028,65.366 70.793 C 74.667 58.875,87.976 46.288,100.969 37.121 C 104.818 34.405,112.259 29.604,112.618 29.604 C 112.742 29.604,113.264 29.309,113.778 28.949 C 115.529 27.723,128.846 20.793,129.451 20.793 C 129.556 20.793,130.645 20.333,131.870 19.770 C 133.095 19.207,136.079 18.000,138.502 17.088 C 140.925 16.175,143.225 15.296,143.612 15.134 C 144.624 14.710,151.020 12.710,153.304 12.103 C 159.933 10.341,163.216 9.579,168.106 8.669 C 176.148 7.172,180.008 6.713,191.894 5.842 C 195.692 5.564,211.901 6.001,216.740 6.512 M136.035 99.240 C 125.373 102.072,118.481 112.957,120.685 123.487 C 124.869 143.485,150.793 147.074,160.405 128.987 C 168.704 113.370,153.359 94.638,136.035 99.240 M247.401 152.470 C 234.719 153.601,226.207 158.187,216.740 168.989 L 215.507 170.396 215.409 164.959 C 215.350 161.681,215.158 159.336,214.925 159.055 C 214.388 158.408,181.862 158.367,181.216 159.013 C 180.767 159.462,180.561 268.943,181.007 270.103 C 181.317 270.911,214.293 270.957,214.962 270.151 C 215.286 269.760,215.369 261.843,215.312 236.406 C 215.272 218.127,215.356 202.696,215.500 202.115 C 220.765 180.743,250.187 178.006,256.569 198.294 C 258.046 202.986,258.076 203.675,258.292 237.533 L 258.502 270.485 275.202 270.576 C 287.240 270.642,292.036 270.556,292.383 270.269 C 292.984 269.769,293.098 197.174,292.505 191.894 C 290.492 173.958,283.766 163.076,270.837 156.837 C 267.423 155.190,266.698 154.924,262.555 153.795 C 260.728 153.297,250.865 152.184,249.339 152.304 C 248.952 152.335,248.079 152.409,247.401 152.470 M121.044 159.031 C 120.952 159.273,120.917 184.449,120.967 214.978 L 121.057 270.485 142.180 270.575 C 158.845 270.647,163.362 270.573,163.584 270.223 C 164.301 269.094,163.917 159.342,163.195 158.955 C 162.125 158.383,121.262 158.456,121.044 159.031 " stroke="none" fill="#fbfbfb" fill-rule="evenodd"></path><path id="path1" d="M191.894 5.842 C 175.067 7.075,167.758 8.261,153.304 12.103 C 151.020 12.710,144.624 14.710,143.612 15.134 C 143.225 15.296,140.925 16.175,138.502 17.088 C 136.079 18.000,133.095 19.207,131.870 19.770 C 130.645 20.333,129.556 20.793,129.451 20.793 C 128.846 20.793,115.529 27.723,113.778 28.949 C 113.264 29.309,112.742 29.604,112.618 29.604 C 112.259 29.604,104.818 34.405,100.969 37.121 C 87.976 46.288,74.667 58.875,65.366 70.793 C 64.401 72.028,63.208 73.535,62.714 74.141 C 61.392 75.761,57.119 81.919,55.347 84.758 C 54.500 86.115,53.453 87.780,53.021 88.458 C 52.588 89.137,51.719 90.643,51.089 91.806 C 50.459 92.969,49.678 94.317,49.352 94.802 C 48.468 96.118,45.361 102.339,43.520 106.481 C 42.628 108.489,41.684 110.608,41.422 111.189 C 39.819 114.751,36.598 123.869,35.074 129.163 C 34.739 130.326,34.333 131.674,34.171 132.159 C 33.906 132.953,33.395 135.051,31.898 141.498 C 26.895 163.040,26.980 193.150,32.106 214.978 C 32.492 216.626,33.050 219.004,33.345 220.264 C 33.640 221.524,34.012 222.952,34.173 223.436 C 34.334 223.921,34.738 225.269,35.072 226.432 C 36.489 231.374,39.894 241.010,41.422 244.405 C 41.684 244.987,42.622 247.093,43.508 249.085 C 45.113 252.699,49.056 260.538,49.642 261.282 C 49.812 261.497,50.464 262.626,51.092 263.789 C 51.720 264.952,52.588 266.458,53.019 267.137 C 53.451 267.815,54.425 269.357,55.184 270.564 C 69.002 292.539,91.107 313.735,113.656 326.630 C 114.819 327.295,116.247 328.112,116.828 328.445 C 125.769 333.568,140.791 339.831,151.366 342.844 C 152.141 343.065,153.885 343.576,155.242 343.979 C 156.599 344.383,158.344 344.845,159.119 345.007 C 173.960 348.101,178.099 348.731,189.604 349.645 C 194.914 350.067,208.043 349.883,214.978 349.289 C 221.842 348.701,230.996 347.289,237.004 345.891 C 238.361 345.575,240.106 345.188,240.881 345.030 C 241.656 344.873,243.163 344.492,244.229 344.183 C 245.295 343.875,247.278 343.312,248.634 342.933 C 251.388 342.163,257.416 340.223,258.502 339.757 C 258.890 339.591,259.762 339.256,260.441 339.014 C 262.070 338.431,263.993 337.640,264.753 337.239 C 265.090 337.062,265.515 336.916,265.698 336.916 C 266.637 336.916,280.488 330.130,285.076 327.421 C 287.065 326.247,288.754 325.286,288.831 325.286 C 289.487 325.286,303.511 315.528,306.784 312.794 C 307.753 311.984,308.878 311.094,309.283 310.815 C 312.725 308.448,324.874 296.627,329.543 291.101 C 330.771 289.648,331.875 288.379,331.995 288.282 C 332.274 288.057,338.704 279.895,339.393 278.891 C 340.407 277.414,346.202 268.703,346.977 267.489 C 347.411 266.811,348.284 265.304,348.916 264.141 C 349.549 262.978,350.424 261.458,350.860 260.763 C 352.352 258.388,357.705 247.119,359.636 242.291 C 360.178 240.934,360.825 239.348,361.072 238.767 C 361.583 237.563,364.416 229.002,365.095 226.608 C 365.342 225.736,365.680 224.626,365.846 224.141 C 366.108 223.377,366.499 221.768,368.285 214.097 C 368.888 211.508,369.867 205.875,370.736 200.000 C 372.644 187.098,372.526 169.096,370.433 153.480 C 369.974 150.058,368.706 142.809,368.306 141.322 C 368.123 140.643,367.794 139.295,367.575 138.326 C 366.935 135.501,366.152 132.406,365.836 131.454 C 365.676 130.969,365.346 129.859,365.104 128.987 C 364.479 126.737,361.603 118.090,361.060 116.828 C 360.810 116.247,360.191 114.698,359.685 113.387 C 358.005 109.031,351.374 95.236,349.903 93.034 C 349.447 92.353,348.695 91.084,348.230 90.215 C 347.765 89.346,347.170 88.384,346.908 88.078 C 346.646 87.772,346.432 87.408,346.432 87.269 C 346.432 87.131,345.719 85.954,344.848 84.654 C 341.946 80.321,339.211 76.358,338.855 75.968 C 338.661 75.756,337.482 74.237,336.235 72.593 C 325.411 58.321,310.604 44.660,293.568 33.229 C 288.281 29.681,274.588 22.364,267.665 19.388 C 263.532 17.611,254.042 14.192,250.044 13.040 C 241.652 10.622,239.115 10.008,232.599 8.824 C 230.370 8.418,228.308 7.999,228.018 7.892 C 227.458 7.686,225.021 7.388,216.740 6.512 C 211.901 6.001,195.692 5.564,191.894 5.842 M146.798 99.212 C 166.762 104.282,168.064 131.525,148.722 139.484 C 138.992 143.488,125.941 137.831,121.980 127.892 C 115.450 111.505,129.819 94.900,146.798 99.212 M255.330 152.758 C 260.153 153.222,261.640 153.499,265.903 154.730 C 280.856 159.047,290.300 172.239,292.505 191.894 C 293.098 197.174,292.984 269.769,292.383 270.269 C 292.036 270.556,287.240 270.642,275.202 270.576 L 258.502 270.485 258.292 237.533 C 258.157 216.465,257.946 203.882,257.705 202.643 C 255.359 190.581,248.708 184.637,237.604 184.682 C 226.729 184.726,218.109 191.524,215.500 202.115 C 215.356 202.696,215.272 218.127,215.312 236.406 C 215.369 261.843,215.286 269.760,214.962 270.151 C 214.293 270.957,181.317 270.911,181.007 270.103 C 180.561 268.943,180.767 159.462,181.216 159.013 C 181.862 158.367,214.388 158.408,214.925 159.055 C 215.158 159.336,215.350 161.681,215.409 164.959 L 215.507 170.396 216.740 168.989 C 226.675 157.654,234.913 153.437,249.339 152.304 C 249.727 152.274,252.423 152.478,255.330 152.758 M163.195 158.955 C 163.917 159.342,164.301 269.094,163.584 270.223 C 163.362 270.573,158.845 270.647,142.180 270.575 L 121.057 270.485 120.967 214.978 C 120.917 184.449,120.952 159.273,121.044 159.031 C 121.262 158.456,162.125 158.383,163.195 158.955 " stroke="none" fill="#040404" fill-rule="evenodd"></path></g></svg>