<svg id="svg" version="1.1" xmlns="http://www.w3.org/2000/svg" xmlns:xlink="http://www.w3.org/1999/xlink" width="400" height="357.6158940397351" viewBox="0, 0, 400,357.6158940397351"><g id="svgg"><path id="path0" d="M0.000 178.891 L 0.000 357.782 200.000 357.782 L 400.000 357.782 400.000 178.891 L 400.000 0.000 200.000 0.000 L 0.000 0.000 0.000 178.891 M22.719 8.427 C 24.884 8.725,29.392 9.286,32.737 9.673 C 36.082 10.061,39.222 10.458,39.714 10.556 C 40.206 10.654,43.909 11.128,47.943 11.610 C 51.977 12.093,59.141 12.985,63.864 13.594 C 68.587 14.202,75.027 15.010,78.175 15.389 C 81.324 15.767,85.751 16.315,88.014 16.605 C 98.563 17.958,101.570 18.331,108.478 19.143 C 112.550 19.621,116.253 20.099,116.707 20.206 C 117.160 20.312,120.268 20.711,123.614 21.092 C 126.959 21.474,133.560 22.284,138.283 22.893 C 146.455 23.947,152.398 24.693,168.157 26.640 C 177.855 27.838,183.743 28.574,188.551 29.190 C 190.814 29.479,194.678 29.951,197.138 30.238 C 199.597 30.526,204.025 31.083,206.977 31.476 C 209.928 31.870,214.356 32.443,216.816 32.750 C 231.468 34.578,236.349 35.179,242.934 35.963 C 246.968 36.443,250.671 36.919,251.163 37.020 C 251.655 37.121,254.231 37.445,256.887 37.739 C 259.544 38.033,264.132 38.595,267.084 38.987 C 270.036 39.379,274.463 39.950,276.923 40.256 C 279.383 40.561,284.535 41.204,288.372 41.683 C 292.209 42.163,298.730 42.964,302.862 43.464 C 306.995 43.964,310.859 44.457,311.449 44.559 C 312.039 44.662,315.823 45.147,319.857 45.637 C 334.636 47.435,345.008 48.725,355.635 50.089 C 364.751 51.259,372.635 52.237,378.891 52.975 C 391.842 54.501,390.888 53.997,389.481 58.568 C 389.008 60.103,388.113 63.211,387.492 65.474 C 385.584 72.425,384.213 77.331,381.792 85.868 C 380.345 90.970,379.147 95.276,377.810 100.179 C 377.193 102.442,376.390 105.340,376.026 106.619 C 374.157 113.175,370.814 125.089,368.722 132.648 C 367.846 135.811,366.709 139.871,363.687 150.626 C 362.774 153.873,361.647 157.898,361.181 159.571 C 360.716 161.243,359.748 164.705,359.030 167.263 C 357.123 174.063,356.171 177.496,354.911 182.111 C 354.293 184.374,353.495 187.191,353.138 188.372 C 352.781 189.553,351.977 192.370,351.351 194.633 C 350.726 196.896,349.916 199.794,349.553 201.073 C 349.190 202.352,348.388 205.250,347.771 207.513 C 345.744 214.947,343.323 223.533,342.221 227.191 C 341.955 228.077,341.470 229.848,341.145 231.127 C 340.819 232.406,340.333 234.177,340.064 235.063 C 339.794 235.948,338.990 238.846,338.276 241.503 C 337.563 244.159,336.681 247.299,336.318 248.479 C 335.955 249.660,335.162 252.437,334.555 254.651 C 333.949 256.865,332.956 260.487,332.350 262.701 C 331.744 264.915,330.952 267.692,330.590 268.873 C 330.229 270.054,329.428 272.871,328.810 275.134 C 328.192 277.397,327.294 280.657,326.813 282.379 C 326.332 284.101,325.527 286.999,325.023 288.819 C 324.037 292.381,323.014 296.021,321.327 301.968 C 320.741 304.034,319.860 307.174,319.370 308.945 C 316.569 319.060,316.088 320.779,313.764 328.980 C 311.967 335.322,311.408 337.319,310.160 341.860 C 309.511 344.222,308.811 346.272,308.604 346.417 C 308.156 346.731,18.199 346.787,17.382 346.473 C 16.867 346.276,16.816 331.015,16.816 177.064 L 16.816 7.871 17.800 7.878 C 18.341 7.882,20.555 8.129,22.719 8.427 M224.329 122.035 C 211.751 123.652,200.554 135.322,194.497 153.128 C 193.007 157.508,193.199 157.380,189.678 156.344 C 182.197 154.143,178.017 150.185,176.175 143.559 C 175.451 140.955,175.237 140.883,172.426 142.308 C 165.555 145.787,165.044 158.588,171.516 165.060 C 174.498 168.043,180.923 170.847,186.504 171.604 C 187.444 171.731,188.287 171.955,188.378 172.102 C 188.544 172.371,186.861 179.235,184.434 188.193 C 183.714 190.850,182.889 193.909,182.600 194.991 C 180.409 203.220,174.571 220.394,173.966 220.394 C 173.855 220.394,172.270 219.502,170.443 218.411 C 151.145 206.896,130.828 206.713,119.470 217.952 C 112.443 224.906,110.863 236.841,115.927 244.731 C 125.549 259.726,161.253 259.445,178.049 244.243 C 180.286 242.218,179.772 242.194,183.097 244.484 C 193.024 251.319,207.777 256.015,217.355 255.388 L 219.045 255.277 220.580 249.911 C 222.305 243.883,222.310 244.007,220.352 244.007 C 213.929 244.007,202.051 239.670,194.216 234.464 C 189.540 231.357,189.647 231.539,191.030 229.064 C 198.609 215.493,204.457 198.478,208.582 177.996 C 209.840 171.753,209.355 172.381,213.443 171.700 C 231.380 168.716,245.034 158.016,247.736 144.827 C 250.966 129.056,241.491 119.830,224.329 122.035 M232.745 131.575 C 238.055 134.435,234.872 144.240,226.689 150.231 C 223.118 152.845,217.448 155.556,214.355 156.128 L 213.146 156.351 213.374 154.926 C 213.840 152.016,216.640 144.164,218.610 140.248 C 222.334 132.842,228.301 129.181,232.745 131.575 M145.975 224.341 C 152.633 225.203,165.653 230.769,165.653 232.754 C 165.653 233.480,160.487 237.775,157.816 239.270 C 146.331 245.699,129.139 243.677,126.976 235.642 C 124.904 227.947,133.649 222.745,145.975 224.341 " stroke="none" fill="#fcfafa" fill-rule="evenodd"></path><path id="path1" d="M17.531 177.315 L 17.531 346.333 162.940 346.333 L 308.348 346.333 309.116 343.739 C 309.538 342.312,310.266 339.857,310.735 338.283 C 311.204 336.708,311.838 334.454,312.145 333.274 C 312.452 332.093,313.113 329.678,313.613 327.907 C 314.114 326.136,315.012 322.916,315.608 320.751 C 317.242 314.820,320.088 304.648,321.213 300.716 C 321.607 299.338,322.358 296.601,322.881 294.633 C 323.404 292.665,323.931 290.814,324.050 290.519 C 324.170 290.224,324.636 288.614,325.086 286.941 C 325.537 285.268,326.380 282.209,326.961 280.143 C 329.785 270.092,331.336 264.561,332.580 260.107 C 334.881 251.867,336.955 244.456,338.289 239.714 C 338.759 238.041,339.638 234.902,340.242 232.737 C 340.847 230.572,341.740 227.393,342.227 225.671 C 342.714 223.949,343.505 221.131,343.984 219.410 C 344.464 217.688,345.261 214.830,345.757 213.059 C 346.252 211.288,347.150 208.068,347.753 205.903 C 349.425 199.901,350.457 196.211,351.482 192.576 C 352.776 187.985,353.979 183.691,355.267 179.070 C 356.802 173.556,357.914 169.578,358.968 165.832 C 359.466 164.061,360.369 160.841,360.973 158.676 C 362.019 154.935,362.568 152.982,364.720 145.349 C 365.233 143.529,366.043 140.631,366.520 138.909 C 366.997 137.187,367.886 134.007,368.496 131.843 C 370.103 126.141,371.185 122.261,372.186 118.605 C 372.671 116.834,373.508 113.855,374.047 111.986 C 374.585 110.116,375.496 106.896,376.070 104.830 C 376.644 102.764,377.497 99.705,377.966 98.032 C 378.434 96.360,379.213 93.542,379.697 91.771 C 380.496 88.842,381.170 86.438,383.759 77.281 C 384.232 75.608,385.001 72.871,385.468 71.199 C 385.935 69.526,386.835 66.306,387.469 64.043 C 389.412 57.102,389.956 54.953,389.807 54.804 C 389.728 54.725,386.797 54.364,383.293 54.001 C 379.790 53.639,376.038 53.172,374.955 52.965 C 373.873 52.757,370.572 52.341,367.621 52.040 C 364.669 51.738,361.369 51.329,360.286 51.130 C 359.204 50.931,355.662 50.457,352.415 50.076 C 349.168 49.695,343.131 48.986,338.998 48.500 C 334.866 48.015,330.519 47.444,329.338 47.233 C 328.157 47.022,324.374 46.523,320.930 46.125 C 317.487 45.726,311.610 45.021,307.871 44.557 C 304.132 44.094,297.531 43.298,293.202 42.788 C 288.873 42.278,284.526 41.707,283.542 41.520 C 282.558 41.333,279.982 41.004,277.818 40.789 C 275.653 40.573,272.835 40.229,271.556 40.024 C 270.277 39.819,265.930 39.250,261.896 38.759 C 257.862 38.269,251.503 37.492,247.764 37.032 C 244.025 36.573,237.504 35.788,233.274 35.287 C 229.043 34.787,224.615 34.206,223.435 33.996 C 222.254 33.785,218.470 33.292,215.027 32.900 C 211.583 32.508,205.626 31.784,201.789 31.292 C 192.644 30.119,182.673 28.895,173.166 27.777 C 168.936 27.280,164.589 26.705,163.506 26.499 C 162.424 26.294,158.962 25.865,155.814 25.546 C 152.665 25.228,149.964 24.892,149.812 24.800 C 149.659 24.708,146.198 24.247,142.119 23.774 C 128.613 22.209,120.260 21.171,119.607 20.978 C 119.252 20.873,115.823 20.451,111.986 20.041 C 108.148 19.630,104.757 19.218,104.448 19.125 C 104.140 19.032,100.437 18.542,96.219 18.036 C 92.002 17.530,85.492 16.740,81.753 16.281 C 78.014 15.821,71.574 15.041,67.442 14.547 C 63.309 14.053,59.687 13.563,59.392 13.458 C 59.097 13.352,55.716 12.932,51.878 12.524 C 48.041 12.115,44.630 11.698,44.297 11.598 C 43.763 11.436,39.237 10.874,24.329 9.119 C 22.066 8.852,19.611 8.558,18.873 8.466 L 17.531 8.297 17.531 177.315 M237.410 122.465 C 246.318 125.550,250.064 132.982,248.333 144.137 C 246.741 154.395,237.154 164.529,224.687 169.132 C 221.525 170.300,213.312 172.450,211.987 172.456 C 210.103 172.466,209.935 172.830,208.595 179.785 C 206.701 189.625,202.413 205.145,200.193 210.197 C 199.934 210.787,199.605 211.673,199.461 212.165 C 198.637 214.997,191.999 228.806,190.849 230.082 C 190.094 230.920,190.225 231.190,192.033 232.510 C 200.569 238.743,213.077 243.512,221.199 243.630 C 222.772 243.653,222.773 243.657,221.787 247.227 C 221.379 248.703,220.696 251.199,220.270 252.773 L 219.494 255.635 214.667 255.560 C 204.219 255.397,193.710 251.959,183.875 245.486 L 180.143 243.030 177.460 245.236 C 166.595 254.168,150.213 257.993,133.810 255.428 C 118.381 253.014,109.846 241.791,113.212 228.338 C 118.414 207.547,147.002 202.863,171.816 218.736 L 173.788 219.998 174.409 218.496 C 175.462 215.947,177.094 211.384,177.825 208.945 C 178.208 207.665,178.682 206.297,178.877 205.903 C 179.072 205.510,179.576 203.980,179.997 202.504 C 180.418 201.029,181.154 198.453,181.634 196.780 C 183.213 191.278,184.657 185.913,185.327 183.062 C 185.690 181.518,186.150 179.828,186.348 179.305 C 187.765 175.573,187.970 172.093,186.773 172.093 C 182.583 172.093,174.107 168.298,170.710 164.901 C 163.959 158.150,165.713 143.427,173.519 141.325 C 175.835 140.702,176.122 140.884,176.617 143.293 C 177.809 149.095,181.767 153.197,188.299 155.399 C 193.110 157.021,192.574 157.254,194.120 152.860 C 196.901 144.953,200.908 137.589,204.877 133.088 C 210.649 126.544,215.374 123.655,223.614 121.635 C 226.195 121.002,234.654 121.511,237.410 122.465 M226.135 132.290 C 223.295 133.748,220.305 137.369,218.380 141.682 C 218.072 142.370,217.598 143.417,217.325 144.007 C 215.723 147.475,213.463 155.635,214.105 155.635 C 218.791 155.635,228.756 149.044,232.600 143.402 C 237.858 135.686,233.640 128.436,226.135 132.290 M135.063 225.219 C 124.831 227.995,124.477 238.879,134.530 241.609 C 145.090 244.476,155.242 242.032,163.276 234.689 C 165.876 232.313,165.991 232.467,158.896 228.855 C 151.761 225.224,141.061 223.592,135.063 225.219 " stroke="none" fill="#fc1c1c" fill-rule="evenodd"></path><path id="path2" d="M227.639 121.549 C 228.377 121.626,229.584 121.626,230.322 121.549 C 231.060 121.471,230.456 121.408,228.980 121.408 C 227.504 121.408,226.901 121.471,227.639 121.549 M235.153 136.494 C 235.157 137.281,235.230 137.561,235.316 137.116 C 235.401 136.671,235.398 136.027,235.308 135.685 C 235.219 135.342,235.149 135.707,235.153 136.494 M170.304 164.334 C 170.304 164.395,170.827 164.919,171.467 165.497 L 172.630 166.547 171.579 165.385 C 170.599 164.301,170.304 164.057,170.304 164.334 M142.487 256.075 C 143.225 256.152,144.432 256.152,145.170 256.075 C 145.908 255.997,145.304 255.934,143.828 255.934 C 142.352 255.934,141.749 255.997,142.487 256.075 " stroke="none" fill="#fc716b" fill-rule="evenodd"></path><path id="path3" d="M16.993 177.102 C 16.993 270.277,17.034 308.394,17.084 261.807 C 17.134 215.219,17.134 138.985,17.084 92.397 C 17.034 45.809,16.993 83.927,16.993 177.102 M21.199 8.476 C 21.543 8.566,22.106 8.566,22.451 8.476 C 22.795 8.386,22.513 8.312,21.825 8.312 C 21.136 8.312,20.854 8.386,21.199 8.476 M23.703 8.833 C 24.047 8.923,24.611 8.923,24.955 8.833 C 25.300 8.743,25.018 8.670,24.329 8.670 C 23.640 8.670,23.359 8.743,23.703 8.833 M35.510 10.265 C 35.854 10.355,36.418 10.355,36.762 10.265 C 37.106 10.175,36.825 10.101,36.136 10.101 C 35.447 10.101,35.165 10.175,35.510 10.265 M38.014 10.622 C 38.359 10.712,38.922 10.712,39.267 10.622 C 39.611 10.532,39.329 10.459,38.640 10.459 C 37.952 10.459,37.670 10.532,38.014 10.622 M52.683 12.411 C 53.028 12.501,53.591 12.501,53.936 12.411 C 54.280 12.321,53.998 12.248,53.309 12.248 C 52.621 12.248,52.339 12.321,52.683 12.411 M66.637 14.200 C 66.981 14.290,67.545 14.290,67.889 14.200 C 68.233 14.110,67.952 14.036,67.263 14.036 C 66.574 14.036,66.292 14.110,66.637 14.200 M81.306 15.989 C 81.650 16.079,82.214 16.079,82.558 15.989 C 82.903 15.899,82.621 15.825,81.932 15.825 C 81.243 15.825,80.962 15.899,81.306 15.989 M95.617 17.778 C 95.962 17.868,96.525 17.868,96.869 17.778 C 97.214 17.688,96.932 17.614,96.243 17.614 C 95.555 17.614,95.273 17.688,95.617 17.778 M98.122 18.136 C 98.466 18.226,99.030 18.226,99.374 18.136 C 99.718 18.046,99.436 17.972,98.748 17.972 C 98.059 17.972,97.777 18.046,98.122 18.136 M112.616 19.931 C 113.061 20.017,113.705 20.013,114.047 19.924 C 114.389 19.834,114.025 19.764,113.238 19.768 C 112.451 19.772,112.171 19.845,112.616 19.931 M127.102 21.714 C 127.446 21.804,128.010 21.804,128.354 21.714 C 128.699 21.624,128.417 21.550,127.728 21.550 C 127.039 21.550,126.758 21.624,127.102 21.714 M129.606 22.071 C 129.951 22.161,130.514 22.161,130.859 22.071 C 131.203 21.981,130.921 21.908,130.233 21.908 C 129.544 21.908,129.262 21.981,129.606 22.071 M141.055 23.502 C 141.400 23.592,141.963 23.592,142.308 23.502 C 142.652 23.412,142.370 23.339,141.682 23.339 C 140.993 23.339,140.711 23.412,141.055 23.502 M158.229 25.649 C 158.573 25.739,159.137 25.739,159.481 25.649 C 159.826 25.559,159.544 25.486,158.855 25.486 C 158.166 25.486,157.885 25.559,158.229 25.649 M172.540 27.438 C 172.885 27.528,173.448 27.528,173.792 27.438 C 174.137 27.348,173.855 27.274,173.166 27.274 C 172.478 27.274,172.196 27.348,172.540 27.438 M187.209 29.227 C 187.554 29.317,188.117 29.317,188.462 29.227 C 188.806 29.137,188.524 29.063,187.835 29.063 C 187.147 29.063,186.865 29.137,187.209 29.227 M189.714 29.585 C 190.058 29.675,190.622 29.675,190.966 29.585 C 191.310 29.495,191.029 29.421,190.340 29.421 C 189.651 29.421,189.369 29.495,189.714 29.585 M201.521 31.016 C 201.865 31.106,202.428 31.106,202.773 31.016 C 203.117 30.926,202.835 30.852,202.147 30.852 C 201.458 30.852,201.176 30.926,201.521 31.016 M204.025 31.374 C 204.369 31.464,204.933 31.464,205.277 31.374 C 205.622 31.284,205.340 31.210,204.651 31.210 C 203.962 31.210,203.681 31.284,204.025 31.374 M218.336 33.163 C 218.681 33.253,219.244 33.253,219.589 33.163 C 219.933 33.073,219.651 32.999,218.962 32.999 C 218.274 32.999,217.992 33.073,218.336 33.163 M232.648 34.951 C 232.992 35.041,233.555 35.041,233.900 34.951 C 234.244 34.861,233.962 34.788,233.274 34.788 C 232.585 34.788,232.303 34.861,232.648 34.951 M247.142 36.747 C 247.587 36.832,248.231 36.829,248.573 36.740 C 248.915 36.650,248.551 36.580,247.764 36.584 C 246.977 36.588,246.697 36.661,247.142 36.747 M261.628 38.529 C 261.972 38.619,262.536 38.619,262.880 38.529 C 263.225 38.439,262.943 38.366,262.254 38.366 C 261.565 38.366,261.284 38.439,261.628 38.529 M264.132 38.887 C 264.477 38.977,265.040 38.977,265.385 38.887 C 265.729 38.797,265.447 38.723,264.758 38.723 C 264.070 38.723,263.788 38.797,264.132 38.887 M276.744 40.411 C 277.848 40.711,280.380 40.892,280.113 40.653 C 280.031 40.579,278.998 40.429,277.818 40.319 C 276.406 40.188,276.038 40.219,276.744 40.411 M292.755 42.465 C 293.099 42.555,293.663 42.555,294.007 42.465 C 294.352 42.375,294.070 42.301,293.381 42.301 C 292.692 42.301,292.411 42.375,292.755 42.465 M307.066 44.254 C 307.411 44.344,307.974 44.344,308.318 44.254 C 308.663 44.164,308.381 44.090,307.692 44.090 C 307.004 44.090,306.722 44.164,307.066 44.254 M324.240 46.400 C 324.584 46.490,325.148 46.490,325.492 46.400 C 325.836 46.310,325.555 46.237,324.866 46.237 C 324.177 46.237,323.895 46.310,324.240 46.400 M338.551 48.189 C 338.895 48.279,339.459 48.279,339.803 48.189 C 340.148 48.099,339.866 48.026,339.177 48.026 C 338.488 48.026,338.207 48.099,338.551 48.189 M352.862 49.978 C 353.207 50.068,353.770 50.068,354.114 49.978 C 354.459 49.888,354.177 49.815,353.488 49.815 C 352.800 49.815,352.518 49.888,352.862 49.978 M367.174 51.767 C 367.518 51.857,368.081 51.857,368.426 51.767 C 368.770 51.677,368.488 51.604,367.800 51.604 C 367.111 51.604,366.829 51.677,367.174 51.767 M384.347 53.914 C 384.691 54.004,385.255 54.004,385.599 53.914 C 385.944 53.824,385.662 53.750,384.973 53.750 C 384.284 53.750,384.003 53.824,384.347 53.914 M389.471 57.450 C 389.339 57.974,389.301 58.472,389.385 58.556 C 389.469 58.641,389.646 58.281,389.778 57.756 C 389.909 57.232,389.948 56.734,389.864 56.650 C 389.779 56.565,389.603 56.925,389.471 57.450 M383.746 77.843 C 383.615 78.367,383.576 78.865,383.661 78.950 C 383.745 79.034,383.922 78.674,384.053 78.150 C 384.185 77.625,384.223 77.127,384.139 77.043 C 384.055 76.959,383.878 77.319,383.746 77.843 M381.958 84.283 C 381.826 84.807,381.787 85.305,381.872 85.390 C 381.956 85.474,382.133 85.114,382.264 84.590 C 382.396 84.065,382.435 83.567,382.350 83.483 C 382.266 83.399,382.089 83.759,381.958 84.283 M215.295 124.713 C 213.958 125.438,214.039 125.741,215.385 125.045 C 215.975 124.739,216.458 124.413,216.458 124.320 C 216.458 124.090,216.420 124.103,215.295 124.713 M248.426 139.177 C 248.426 140.850,248.487 141.534,248.563 140.698 C 248.638 139.861,248.638 138.493,248.563 137.657 C 248.487 136.820,248.426 137.504,248.426 139.177 M228.623 148.209 C 227.147 149.618,226.422 150.429,227.013 150.011 C 228.066 149.266,231.796 145.603,231.471 145.632 C 231.380 145.640,230.098 146.800,228.623 148.209 M166.851 153.488 C 166.851 155.161,166.913 155.845,166.988 155.009 C 167.064 154.173,167.064 152.804,166.988 151.968 C 166.913 151.131,166.851 151.816,166.851 153.488 M214.158 151.546 C 214.026 152.070,213.988 152.568,214.072 152.653 C 214.156 152.737,214.333 152.377,214.465 151.853 C 214.596 151.328,214.635 150.830,214.551 150.746 C 214.466 150.662,214.290 151.022,214.158 151.546 M193.202 156.088 C 193.202 156.438,192.820 156.719,192.218 156.810 L 191.234 156.959 192.229 157.013 C 193.178 157.064,193.939 156.253,193.425 155.739 C 193.303 155.616,193.202 155.773,193.202 156.088 M239.525 159.302 L 237.030 161.896 239.624 159.401 C 242.034 157.084,242.382 156.708,242.119 156.708 C 242.065 156.708,240.897 157.876,239.525 159.302 M235.420 162.834 C 234.174 163.927,234.173 163.929,235.320 163.166 C 235.954 162.744,236.567 162.246,236.683 162.058 C 237.028 161.500,236.742 161.676,235.420 162.834 M355.124 180.169 C 354.992 180.693,354.954 181.191,355.038 181.275 C 355.122 181.360,355.299 181.000,355.431 180.475 C 355.562 179.951,355.601 179.453,355.517 179.369 C 355.432 179.284,355.256 179.644,355.124 180.169 M185.535 183.031 C 185.404 183.555,185.365 184.053,185.449 184.138 C 185.534 184.222,185.710 183.862,185.842 183.338 C 185.974 182.813,186.012 182.315,185.928 182.231 C 185.844 182.147,185.667 182.507,185.535 183.031 M353.335 186.609 C 353.203 187.133,353.165 187.631,353.249 187.715 C 353.333 187.800,353.510 187.440,353.642 186.915 C 353.773 186.391,353.812 185.893,353.728 185.809 C 353.643 185.724,353.467 186.084,353.335 186.609 M179.811 203.424 C 179.679 203.949,179.641 204.447,179.725 204.531 C 179.809 204.615,179.986 204.255,180.118 203.731 C 180.249 203.207,180.288 202.709,180.203 202.624 C 180.119 202.540,179.942 202.900,179.811 203.424 M347.611 207.002 C 347.479 207.527,347.440 208.025,347.525 208.109 C 347.609 208.193,347.786 207.833,347.917 207.309 C 348.049 206.785,348.087 206.287,348.003 206.202 C 347.919 206.118,347.742 206.478,347.611 207.002 M139.803 209.566 C 140.836 209.638,142.527 209.638,143.560 209.566 C 144.593 209.494,143.748 209.435,141.682 209.435 C 139.615 209.435,138.770 209.494,139.803 209.566 M135.689 209.907 C 136.033 209.997,136.597 209.997,136.941 209.907 C 137.285 209.817,137.004 209.743,136.315 209.743 C 135.626 209.743,135.344 209.817,135.689 209.907 M146.780 209.907 C 147.124 209.997,147.688 209.997,148.032 209.907 C 148.377 209.817,148.095 209.743,147.406 209.743 C 146.717 209.743,146.436 209.817,146.780 209.907 M345.822 213.442 C 345.690 213.967,345.651 214.465,345.736 214.549 C 345.820 214.633,345.997 214.273,346.128 213.749 C 346.260 213.225,346.299 212.727,346.214 212.642 C 346.130 212.558,345.953 212.918,345.822 213.442 M344.033 219.882 C 343.901 220.407,343.862 220.905,343.947 220.989 C 344.031 221.073,344.208 220.713,344.339 220.189 C 344.471 219.665,344.510 219.167,344.425 219.082 C 344.341 218.998,344.164 219.358,344.033 219.882 M139.803 224.233 C 140.640 224.309,142.008 224.309,142.844 224.233 C 143.681 224.158,142.996 224.096,141.324 224.096 C 139.651 224.096,138.967 224.158,139.803 224.233 M190.010 230.803 C 189.995 231.117,190.344 231.681,190.787 232.055 C 191.585 232.731,191.587 232.731,191.013 232.021 C 190.694 231.628,190.344 231.064,190.236 230.769 C 190.068 230.314,190.034 230.319,190.010 230.803 M112.824 233.810 C 112.825 235.385,112.888 235.984,112.964 235.143 C 113.039 234.301,113.038 233.013,112.961 232.280 C 112.884 231.548,112.823 232.236,112.824 233.810 M126.752 233.631 C 126.752 234.517,126.822 234.879,126.907 234.436 C 126.993 233.994,126.993 233.269,126.907 232.826 C 126.822 232.384,126.752 232.746,126.752 233.631 M164.203 234.258 L 162.970 235.599 164.311 234.366 C 165.560 233.219,165.817 232.916,165.544 232.916 C 165.484 232.916,164.881 233.520,164.203 234.258 M113.460 239.714 C 113.454 240.009,113.670 240.733,113.941 241.324 C 114.573 242.706,114.583 242.063,113.953 240.429 C 113.688 239.741,113.466 239.419,113.460 239.714 M338.308 240.276 C 338.177 240.800,338.138 241.298,338.222 241.383 C 338.307 241.467,338.483 241.107,338.615 240.583 C 338.746 240.058,338.785 239.560,338.701 239.476 C 338.616 239.392,338.440 239.752,338.308 240.276 M178.864 243.560 L 177.996 244.544 178.962 243.694 C 179.536 243.188,180.160 242.933,180.501 243.063 C 180.834 243.191,180.983 243.135,180.856 242.930 C 180.477 242.316,179.761 242.543,178.864 243.560 M218.694 243.896 C 219.038 243.986,219.602 243.986,219.946 243.896 C 220.291 243.806,220.009 243.732,219.320 243.732 C 218.631 243.732,218.350 243.806,218.694 243.896 M336.519 246.716 C 336.388 247.240,336.349 247.738,336.433 247.823 C 336.518 247.907,336.694 247.547,336.826 247.023 C 336.958 246.498,336.996 246.000,336.912 245.916 C 336.828 245.832,336.651 246.192,336.519 246.716 M118.068 247.764 C 118.736 248.453,119.362 249.016,119.461 249.016 C 119.559 249.016,119.093 248.453,118.426 247.764 C 117.758 247.075,117.132 246.512,117.033 246.512 C 116.935 246.512,117.400 247.075,118.068 247.764 M166.726 251.342 C 166.234 251.623,165.993 251.853,166.190 251.853 C 166.386 251.853,166.950 251.623,167.442 251.342 C 167.934 251.060,168.175 250.830,167.979 250.830 C 167.782 250.830,167.218 251.060,166.726 251.342 M219.882 252.083 C 219.751 252.607,219.712 253.105,219.797 253.189 C 219.881 253.274,220.058 252.914,220.189 252.389 C 220.321 251.865,220.359 251.367,220.275 251.283 C 220.191 251.198,220.014 251.558,219.882 252.083 M161.181 253.309 C 160.730 253.503,160.664 253.617,161.002 253.617 C 161.297 253.617,161.860 253.479,162.254 253.309 C 162.705 253.116,162.771 253.002,162.433 253.002 C 162.138 253.002,161.574 253.140,161.181 253.309 M211.543 255.355 C 212.087 255.437,212.892 255.435,213.332 255.350 C 213.772 255.265,213.327 255.198,212.343 255.201 C 211.360 255.203,211.000 255.273,211.543 255.355 M217.352 255.456 L 215.564 255.702 217.242 255.758 C 218.165 255.789,219.020 255.653,219.141 255.456 C 219.263 255.259,219.313 255.124,219.252 255.155 C 219.191 255.186,218.336 255.321,217.352 255.456 M332.584 260.670 C 332.452 261.194,332.413 261.692,332.498 261.776 C 332.582 261.861,332.759 261.501,332.890 260.976 C 333.022 260.452,333.061 259.954,332.976 259.870 C 332.892 259.785,332.715 260.145,332.584 260.670 M330.795 267.110 C 330.663 267.634,330.625 268.132,330.709 268.216 C 330.793 268.301,330.970 267.941,331.101 267.416 C 331.233 266.892,331.272 266.394,331.187 266.310 C 331.103 266.225,330.926 266.585,330.795 267.110 M325.070 287.503 C 324.939 288.028,324.900 288.526,324.984 288.610 C 325.069 288.694,325.245 288.334,325.377 287.810 C 325.509 287.286,325.547 286.788,325.463 286.703 C 325.379 286.619,325.202 286.979,325.070 287.503 M323.281 293.943 C 323.150 294.468,323.111 294.966,323.195 295.050 C 323.280 295.134,323.456 294.774,323.588 294.250 C 323.720 293.726,323.758 293.228,323.674 293.143 C 323.590 293.059,323.413 293.419,323.281 293.943 M321.492 300.383 C 321.361 300.908,321.322 301.406,321.407 301.490 C 321.491 301.574,321.668 301.214,321.799 300.690 C 321.931 300.166,321.969 299.668,321.885 299.583 C 321.801 299.499,321.624 299.859,321.492 300.383 M319.346 307.897 C 319.214 308.421,319.175 308.919,319.260 309.003 C 319.344 309.088,319.521 308.728,319.652 308.203 C 319.784 307.679,319.823 307.181,319.738 307.097 C 319.654 307.012,319.477 307.372,319.346 307.897 M317.557 314.337 C 317.425 314.861,317.387 315.359,317.471 315.443 C 317.555 315.528,317.732 315.168,317.864 314.643 C 317.995 314.119,318.034 313.621,317.949 313.537 C 317.865 313.452,317.688 313.812,317.557 314.337 M315.768 320.777 C 315.636 321.301,315.598 321.799,315.682 321.884 C 315.766 321.968,315.943 321.608,316.075 321.084 C 316.206 320.559,316.245 320.061,316.161 319.977 C 316.076 319.893,315.900 320.253,315.768 320.777 M313.979 327.217 C 313.847 327.741,313.809 328.239,313.893 328.324 C 313.977 328.408,314.154 328.048,314.286 327.524 C 314.417 326.999,314.456 326.501,314.372 326.417 C 314.287 326.333,314.111 326.693,313.979 327.217 M310.043 341.170 C 309.912 341.695,309.873 342.193,309.958 342.277 C 310.042 342.361,310.219 342.001,310.350 341.477 C 310.482 340.953,310.520 340.455,310.436 340.370 C 310.352 340.286,310.175 340.646,310.043 341.170 M90.280 346.601 C 130.390 346.651,195.917 346.651,235.897 346.601 C 275.876 346.551,243.059 346.510,162.970 346.510 C 82.880 346.510,50.170 346.551,90.280 346.601 " stroke="none" fill="#fc8c8c" fill-rule="evenodd"></path><path id="path4" d="M17.351 177.281 C 17.351 270.358,17.392 308.488,17.442 262.015 C 17.492 215.542,17.492 139.388,17.442 92.784 C 17.392 46.180,17.351 84.204,17.351 177.281 M30.143 9.907 C 30.487 9.997,31.051 9.997,31.395 9.907 C 31.740 9.817,31.458 9.743,30.769 9.743 C 30.081 9.743,29.799 9.817,30.143 9.907 M75.764 15.638 C 76.210 15.723,76.854 15.720,77.196 15.630 C 77.538 15.541,77.174 15.471,76.386 15.475 C 75.599 15.479,75.319 15.552,75.764 15.638 M90.250 17.420 C 90.595 17.510,91.158 17.510,91.503 17.420 C 91.847 17.330,91.565 17.257,90.877 17.257 C 90.188 17.257,89.906 17.330,90.250 17.420 M121.735 21.356 C 122.080 21.446,122.643 21.446,122.987 21.356 C 123.332 21.266,123.050 21.192,122.361 21.192 C 121.673 21.192,121.391 21.266,121.735 21.356 M135.689 23.145 C 136.033 23.235,136.597 23.235,136.941 23.145 C 137.285 23.055,137.004 22.981,136.315 22.981 C 135.626 22.981,135.344 23.055,135.689 23.145 M150.358 24.934 C 150.702 25.024,151.266 25.024,151.610 24.934 C 151.954 24.844,151.673 24.770,150.984 24.770 C 150.295 24.770,150.013 24.844,150.358 24.934 M164.669 26.722 C 165.013 26.812,165.577 26.812,165.921 26.722 C 166.266 26.632,165.984 26.559,165.295 26.559 C 164.606 26.559,164.325 26.632,164.669 26.722 M181.668 28.876 C 182.113 28.961,182.757 28.958,183.099 28.868 C 183.441 28.779,183.077 28.709,182.290 28.713 C 181.503 28.717,181.223 28.790,181.668 28.876 M196.154 30.658 C 196.498 30.748,197.062 30.748,197.406 30.658 C 197.750 30.568,197.469 30.494,196.780 30.494 C 196.091 30.494,195.809 30.568,196.154 30.658 M210.290 32.453 C 210.735 32.539,211.379 32.536,211.722 32.446 C 212.064 32.357,211.699 32.287,210.912 32.291 C 210.125 32.295,209.845 32.368,210.290 32.453 M224.776 34.236 C 225.121 34.326,225.684 34.326,226.029 34.236 C 226.373 34.146,226.091 34.072,225.403 34.072 C 224.714 34.072,224.432 34.146,224.776 34.236 M241.592 36.383 C 241.936 36.473,242.500 36.473,242.844 36.383 C 243.189 36.293,242.907 36.219,242.218 36.219 C 241.530 36.219,241.248 36.293,241.592 36.383 M256.261 38.171 C 256.606 38.261,257.169 38.261,257.513 38.171 C 257.858 38.082,257.576 38.008,256.887 38.008 C 256.199 38.008,255.917 38.082,256.261 38.171 M284.884 41.749 C 285.228 41.839,285.792 41.839,286.136 41.749 C 286.480 41.659,286.199 41.586,285.510 41.586 C 284.821 41.586,284.539 41.659,284.884 41.749 M301.699 43.896 C 302.044 43.986,302.607 43.986,302.952 43.896 C 303.296 43.806,303.014 43.732,302.326 43.732 C 301.637 43.732,301.355 43.806,301.699 43.896 M316.194 45.691 C 316.639 45.777,317.283 45.774,317.625 45.684 C 317.967 45.595,317.603 45.525,316.816 45.529 C 316.029 45.532,315.749 45.606,316.194 45.691 M330.680 47.474 C 331.024 47.564,331.588 47.564,331.932 47.474 C 332.276 47.384,331.995 47.310,331.306 47.310 C 330.617 47.310,330.335 47.384,330.680 47.474 M361.807 51.409 C 362.151 51.499,362.715 51.499,363.059 51.409 C 363.403 51.319,363.122 51.246,362.433 51.246 C 361.744 51.246,361.462 51.319,361.807 51.409 M376.301 53.205 C 376.746 53.290,377.390 53.287,377.732 53.198 C 378.074 53.108,377.710 53.038,376.923 53.042 C 376.136 53.046,375.856 53.119,376.301 53.205 M228.421 148.211 L 227.370 149.374 228.533 148.323 C 229.173 147.745,229.696 147.222,229.696 147.160 C 229.696 146.884,229.401 147.127,228.421 148.211 M363.353 149.757 C 363.221 150.282,363.183 150.780,363.267 150.864 C 363.351 150.948,363.528 150.588,363.660 150.064 C 363.791 149.540,363.830 149.042,363.746 148.957 C 363.661 148.873,363.485 149.233,363.353 149.757 M166.479 153.667 C 166.481 154.848,166.548 155.288,166.628 154.645 C 166.707 154.002,166.706 153.036,166.624 152.498 C 166.543 151.960,166.477 152.487,166.479 153.667 M238.797 160.376 L 237.746 161.538 238.909 160.488 C 239.548 159.910,240.072 159.386,240.072 159.325 C 240.072 159.048,239.776 159.292,238.797 160.376 M355.840 176.591 C 355.708 177.115,355.669 177.613,355.754 177.698 C 355.838 177.782,356.015 177.422,356.146 176.898 C 356.278 176.373,356.316 175.875,356.232 175.791 C 356.148 175.707,355.971 176.067,355.840 176.591 M185.893 180.526 C 185.762 181.051,185.723 181.549,185.807 181.633 C 185.892 181.717,186.068 181.357,186.200 180.833 C 186.331 180.309,186.370 179.811,186.286 179.726 C 186.201 179.642,186.025 180.002,185.893 180.526 M207.913 182.171 C 207.890 182.499,207.779 183.063,207.665 183.423 C 207.470 184.045,207.481 184.045,207.868 183.441 C 208.093 183.091,208.204 182.527,208.116 182.189 C 207.970 181.635,207.950 181.633,207.913 182.171 M348.326 203.424 C 348.194 203.949,348.156 204.447,348.240 204.531 C 348.324 204.615,348.501 204.255,348.633 203.731 C 348.764 203.207,348.803 202.709,348.719 202.624 C 348.634 202.540,348.458 202.900,348.326 203.424 M178.514 206.669 C 178.317 207.188,178.222 207.679,178.303 207.760 C 178.384 207.841,178.622 207.417,178.831 206.816 C 179.296 205.481,179.015 205.351,178.514 206.669 M139.459 224.594 C 140.697 224.664,142.629 224.664,143.753 224.593 C 144.877 224.522,143.864 224.465,141.503 224.466 C 139.141 224.466,138.222 224.524,139.459 224.594 M112.466 233.810 C 112.467 235.385,112.530 235.984,112.606 235.143 C 112.681 234.301,112.680 233.013,112.604 232.280 C 112.527 231.548,112.465 232.236,112.466 233.810 M127.110 233.631 C 127.110 234.517,127.180 234.879,127.265 234.436 C 127.350 233.994,127.350 233.269,127.265 232.826 C 127.180 232.384,127.110 232.746,127.110 233.631 M165.064 232.446 C 165.199 232.581,164.703 233.346,163.961 234.146 L 162.612 235.599 164.118 234.199 C 165.422 232.987,165.783 232.200,165.036 232.200 C 164.916 232.200,164.929 232.311,165.064 232.446 M147.138 242.465 C 147.482 242.555,148.046 242.555,148.390 242.465 C 148.734 242.375,148.453 242.301,147.764 242.301 C 147.075 242.301,146.793 242.375,147.138 242.465 M335.088 250.652 C 334.957 251.176,334.918 251.674,335.002 251.758 C 335.087 251.843,335.263 251.483,335.395 250.958 C 335.526 250.434,335.565 249.936,335.481 249.852 C 335.396 249.767,335.220 250.127,335.088 250.652 M327.575 277.485 C 327.443 278.010,327.404 278.508,327.489 278.592 C 327.573 278.676,327.750 278.316,327.881 277.792 C 328.013 277.268,328.052 276.770,327.967 276.685 C 327.883 276.601,327.706 276.961,327.575 277.485 M320.061 304.319 C 319.930 304.843,319.891 305.341,319.975 305.426 C 320.060 305.510,320.236 305.150,320.368 304.626 C 320.500 304.101,320.538 303.603,320.454 303.519 C 320.370 303.435,320.193 303.795,320.061 304.319 " stroke="none" fill="#fc504c" fill-rule="evenodd"></path></g></svg>