<svg id="svg" version="1.1" xmlns="http://www.w3.org/2000/svg" xmlns:xlink="http://www.w3.org/1999/xlink" width="400" height="309.1633466135458" viewBox="0, 0, 400,309.1633466135458"><g id="svgg"><path id="path0" d="M15.159 158.082 L 15.159 298.531 202.088 298.453 L 389.018 298.376 389.018 158.082 L 389.018 17.788 202.088 17.710 L 15.159 17.633 15.159 158.082 M351.740 57.822 L 351.740 60.579 349.347 62.695 C 348.030 63.858,346.801 64.950,346.616 65.120 C 346.431 65.290,345.322 66.265,344.152 67.285 C 342.982 68.306,340.765 70.257,339.226 71.621 C 337.686 72.984,335.870 74.573,335.189 75.152 C 334.509 75.731,332.978 77.071,331.787 78.129 C 330.596 79.188,328.229 81.274,326.527 82.764 C 323.207 85.674,319.374 89.055,318.823 89.561 C 318.636 89.732,317.510 90.706,316.320 91.726 C 315.130 92.746,313.529 94.158,312.763 94.864 C 311.996 95.570,310.742 96.663,309.977 97.293 C 309.211 97.923,307.958 99.018,307.193 99.726 C 306.427 100.433,304.826 101.846,303.635 102.865 C 302.444 103.884,301.400 104.793,301.315 104.884 C 301.230 104.976,299.907 106.150,298.376 107.493 C 296.845 108.835,294.617 110.793,293.426 111.843 C 290.667 114.276,286.551 117.882,280.725 122.970 C 278.192 125.182,275.897 127.200,275.624 127.456 C 275.070 127.976,275.305 127.769,266.821 135.179 C 263.418 138.151,260.565 140.658,260.480 140.752 C 260.394 140.845,259.350 141.755,258.159 142.773 C 256.968 143.792,255.924 144.698,255.839 144.786 C 255.754 144.875,253.944 146.473,251.817 148.337 C 249.691 150.201,247.881 151.805,247.796 151.901 C 247.711 151.997,244.857 154.500,241.454 157.463 C 238.051 160.427,235.197 162.927,235.112 163.020 C 234.987 163.156,228.652 168.717,224.131 172.659 C 221.610 174.857,214.521 181.125,214.385 181.276 C 214.300 181.371,213.743 181.848,213.148 182.336 C 212.272 183.054,208.701 186.201,207.145 187.627 C 202.252 192.111,202.088 192.178,200.219 190.476 C 199.418 189.747,198.206 188.684,197.525 188.115 C 196.845 187.546,195.661 186.507,194.894 185.806 C 194.127 185.105,192.527 183.699,191.336 182.680 C 190.146 181.662,189.103 180.757,189.018 180.670 C 188.706 180.349,185.706 177.676,183.631 175.870 C 182.458 174.849,181.346 173.875,181.159 173.705 C 180.847 173.420,172.135 165.789,169.994 163.924 C 168.368 162.509,162.649 157.460,160.330 155.394 C 159.100 154.297,157.409 152.818,156.572 152.106 C 154.960 150.734,140.402 137.947,140.139 137.672 C 140.054 137.583,138.801 136.468,137.355 135.194 C 135.909 133.920,134.656 132.806,134.571 132.719 C 134.486 132.631,133.442 131.726,132.251 130.706 C 131.060 129.686,129.528 128.348,128.848 127.732 C 128.167 127.117,126.218 125.393,124.517 123.902 C 122.815 122.411,118.708 118.809,115.391 115.898 C 112.073 112.987,108.940 110.240,108.430 109.793 C 107.920 109.345,105.553 107.252,103.171 105.142 C 100.789 103.031,98.272 100.819,97.577 100.226 C 95.763 98.679,84.020 88.366,83.836 88.158 C 83.751 88.062,81.941 86.461,79.814 84.601 C 77.688 82.741,75.878 81.144,75.793 81.053 C 75.708 80.963,74.665 80.055,73.476 79.037 C 72.286 78.018,71.126 77.008,70.896 76.793 C 70.666 76.577,67.185 73.516,63.159 69.991 C 56.483 64.145,53.866 61.817,52.703 60.689 C 52.263 60.263,52.081 55.678,52.488 55.272 C 52.601 55.159,119.979 55.066,202.217 55.066 L 351.740 55.066 351.740 57.822 M55.329 112.837 C 56.630 113.985,59.018 116.094,60.634 117.523 C 62.251 118.953,63.991 120.487,64.501 120.934 C 68.519 124.446,73.190 128.554,73.318 128.687 C 73.480 128.856,78.062 132.909,79.658 134.296 C 80.169 134.740,82.537 136.831,84.919 138.942 C 87.301 141.053,89.818 143.265,90.513 143.857 C 92.327 145.405,104.069 155.718,104.254 155.926 C 104.339 156.022,106.148 157.622,108.275 159.483 C 110.402 161.343,112.212 162.939,112.297 163.030 C 112.382 163.121,113.426 164.029,114.617 165.047 C 115.808 166.065,116.922 167.051,117.092 167.238 C 117.372 167.544,125.172 174.428,129.151 177.881 C 131.862 180.233,145.796 192.487,146.945 193.529 C 147.541 194.070,149.420 195.732,151.121 197.223 C 152.823 198.714,156.912 202.315,160.209 205.226 C 163.506 208.137,166.847 211.072,167.634 211.750 C 168.421 212.427,171.013 214.709,173.395 216.820 C 175.777 218.931,178.144 221.022,178.654 221.466 C 182.030 224.404,187.342 229.079,187.471 229.225 C 187.556 229.321,190.410 231.831,193.813 234.803 C 197.216 237.775,200.347 240.522,200.770 240.908 C 202.050 242.073,202.144 242.033,205.793 238.760 C 207.031 237.650,208.531 236.341,209.126 235.852 C 210.353 234.843,210.354 234.842,212.410 232.942 C 213.241 232.174,216.636 229.168,219.954 226.262 C 232.135 215.591,234.367 213.630,235.740 212.396 C 236.511 211.704,238.106 210.302,239.285 209.281 C 240.465 208.260,242.770 206.241,244.408 204.795 C 246.047 203.349,248.894 200.843,250.737 199.227 C 255.675 194.894,257.009 193.720,259.562 191.457 C 262.096 189.211,266.852 185.028,270.214 182.087 C 271.399 181.050,274.184 178.598,276.401 176.640 C 278.619 174.681,281.077 172.523,281.865 171.845 C 283.700 170.263,290.593 164.186,290.797 163.970 C 290.882 163.879,291.926 162.971,293.117 161.953 C 294.308 160.934,295.909 159.528,296.674 158.828 C 297.440 158.129,300.503 155.428,303.480 152.827 C 312.285 145.137,318.665 139.522,318.948 139.215 C 319.033 139.123,320.077 138.214,321.267 137.196 C 322.457 136.177,324.058 134.766,324.824 134.060 C 325.591 133.354,326.934 132.171,327.809 131.431 C 329.208 130.247,342.352 118.709,345.244 116.127 C 349.566 112.266,351.016 111.064,351.353 111.062 C 351.908 111.059,351.924 260.482,351.369 261.036 C 350.828 261.578,53.194 261.578,52.653 261.036 C 52.247 260.631,52.083 111.361,52.488 110.956 C 52.816 110.628,52.845 110.647,55.329 112.837 " stroke="none" fill="#fc1c1c" fill-rule="evenodd"></path><path id="path1" d="M0.000 154.679 L 0.000 309.358 200.000 309.358 L 400.000 309.358 400.000 154.679 L 400.000 0.000 200.000 0.000 L 0.000 0.000 0.000 154.679 M389.018 158.082 L 389.018 298.376 202.088 298.453 L 15.159 298.531 15.159 158.082 L 15.159 17.633 202.088 17.710 L 389.018 17.788 389.018 158.082 M52.488 55.272 C 52.081 55.678,52.263 60.263,52.703 60.689 C 53.866 61.817,56.483 64.145,63.159 69.991 C 67.185 73.516,70.666 76.577,70.896 76.793 C 71.126 77.008,72.286 78.018,73.476 79.037 C 74.665 80.055,75.708 80.963,75.793 81.053 C 75.878 81.144,77.688 82.741,79.814 84.601 C 81.941 86.461,83.751 88.062,83.836 88.158 C 84.020 88.366,95.763 98.679,97.577 100.226 C 98.272 100.819,100.789 103.031,103.171 105.142 C 105.553 107.252,107.920 109.345,108.430 109.793 C 108.940 110.240,112.073 112.987,115.391 115.898 C 118.708 118.809,122.815 122.411,124.517 123.902 C 126.218 125.393,128.167 127.117,128.848 127.732 C 129.528 128.348,131.060 129.686,132.251 130.706 C 133.442 131.726,134.486 132.631,134.571 132.719 C 134.656 132.806,135.909 133.920,137.355 135.194 C 138.801 136.468,140.054 137.583,140.139 137.672 C 140.402 137.947,154.960 150.734,156.572 152.106 C 157.409 152.818,159.100 154.297,160.330 155.394 C 162.649 157.460,168.368 162.509,169.994 163.924 C 172.135 165.789,180.847 173.420,181.159 173.705 C 181.346 173.875,182.458 174.849,183.631 175.870 C 185.706 177.676,188.706 180.349,189.018 180.670 C 189.103 180.757,190.146 181.662,191.336 182.680 C 192.527 183.699,194.127 185.105,194.894 185.806 C 195.661 186.507,196.845 187.546,197.525 188.115 C 198.206 188.684,199.418 189.747,200.219 190.476 C 202.088 192.178,202.252 192.111,207.145 187.627 C 208.701 186.201,212.272 183.054,213.148 182.336 C 213.743 181.848,214.300 181.371,214.385 181.276 C 214.521 181.125,221.610 174.857,224.131 172.659 C 228.652 168.717,234.987 163.156,235.112 163.020 C 235.197 162.927,238.051 160.427,241.454 157.463 C 244.857 154.500,247.711 151.997,247.796 151.901 C 247.881 151.805,249.691 150.201,251.817 148.337 C 253.944 146.473,255.754 144.875,255.839 144.786 C 255.924 144.698,256.968 143.792,258.159 142.773 C 259.350 141.755,260.394 140.845,260.480 140.752 C 260.565 140.658,263.418 138.151,266.821 135.179 C 275.305 127.769,275.070 127.976,275.624 127.456 C 275.897 127.200,278.192 125.182,280.725 122.970 C 286.551 117.882,290.667 114.276,293.426 111.843 C 294.617 110.793,296.845 108.835,298.376 107.493 C 299.907 106.150,301.230 104.976,301.315 104.884 C 301.400 104.793,302.444 103.884,303.635 102.865 C 304.826 101.846,306.427 100.433,307.193 99.726 C 307.958 99.018,309.211 97.923,309.977 97.293 C 310.742 96.663,311.996 95.570,312.763 94.864 C 313.529 94.158,315.130 92.746,316.320 91.726 C 317.510 90.706,318.636 89.732,318.823 89.561 C 319.374 89.055,323.207 85.674,326.527 82.764 C 328.229 81.274,330.596 79.188,331.787 78.129 C 332.978 77.071,334.509 75.731,335.189 75.152 C 335.870 74.573,337.686 72.984,339.226 71.621 C 340.765 70.257,342.982 68.306,344.152 67.285 C 345.322 66.265,346.431 65.290,346.616 65.120 C 346.801 64.950,348.030 63.858,349.347 62.695 L 351.740 60.579 351.740 57.822 L 351.740 55.066 202.217 55.066 C 119.979 55.066,52.601 55.159,52.488 55.272 M52.488 110.956 C 52.083 111.361,52.247 260.631,52.653 261.036 C 53.194 261.578,350.828 261.578,351.369 261.036 C 351.924 260.482,351.908 111.059,351.353 111.062 C 351.016 111.064,349.566 112.266,345.244 116.127 C 342.352 118.709,329.208 130.247,327.809 131.431 C 326.934 132.171,325.591 133.354,324.824 134.060 C 324.058 134.766,322.457 136.177,321.267 137.196 C 320.077 138.214,319.033 139.123,318.948 139.215 C 318.665 139.522,312.285 145.137,303.480 152.827 C 300.503 155.428,297.440 158.129,296.674 158.828 C 295.909 159.528,294.308 160.934,293.117 161.953 C 291.926 162.971,290.882 163.879,290.797 163.970 C 290.593 164.186,283.700 170.263,281.865 171.845 C 281.077 172.523,278.619 174.681,276.401 176.640 C 274.184 178.598,271.399 181.050,270.214 182.087 C 266.852 185.028,262.096 189.211,259.562 191.457 C 257.009 193.720,255.675 194.894,250.737 199.227 C 248.894 200.843,246.047 203.349,244.408 204.795 C 242.770 206.241,240.465 208.260,239.285 209.281 C 238.106 210.302,236.511 211.704,235.740 212.396 C 234.367 213.630,232.135 215.591,219.954 226.262 C 216.636 229.168,213.241 232.174,212.410 232.942 C 210.354 234.842,210.353 234.843,209.126 235.852 C 208.531 236.341,207.031 237.650,205.793 238.760 C 202.144 242.033,202.050 242.073,200.770 240.908 C 200.347 240.522,197.216 237.775,193.813 234.803 C 190.410 231.831,187.556 229.321,187.471 229.225 C 187.342 229.079,182.030 224.404,178.654 221.466 C 178.144 221.022,175.777 218.931,173.395 216.820 C 171.013 214.709,168.421 212.427,167.634 211.750 C 166.847 211.072,163.506 208.137,160.209 205.226 C 156.912 202.315,152.823 198.714,151.121 197.223 C 149.420 195.732,147.541 194.070,146.945 193.529 C 145.796 192.487,131.862 180.233,129.151 177.881 C 125.172 174.428,117.372 167.544,117.092 167.238 C 116.922 167.051,115.808 166.065,114.617 165.047 C 113.426 164.029,112.382 163.121,112.297 163.030 C 112.212 162.939,110.402 161.343,108.275 159.483 C 106.148 157.622,104.339 156.022,104.254 155.926 C 104.069 155.718,92.327 145.405,90.513 143.857 C 89.818 143.265,87.301 141.053,84.919 138.942 C 82.537 136.831,80.169 134.740,79.658 134.296 C 78.062 132.909,73.480 128.856,73.318 128.687 C 73.190 128.554,68.519 124.446,64.501 120.934 C 63.991 120.487,62.251 118.953,60.634 117.523 C 52.078 109.958,52.858 110.586,52.488 110.956 " stroke="none" fill="#fcfbfb" fill-rule="evenodd"></path></g></svg>