<svg id="svg" version="1.1" xmlns="http://www.w3.org/2000/svg" xmlns:xlink="http://www.w3.org/1999/xlink" width="400" height="334.42622950819674" viewBox="0, 0, 400,334.42622950819674"><g id="svgg"><path id="path0" d="M264.214 174.483 C 263.342 174.796,261.394 175.629,260.790 175.948 C 260.471 176.116,260.035 176.254,259.821 176.254 C 258.273 176.254,245.940 183.450,241.973 186.668 C 239.102 188.997,231.782 196.631,229.832 199.331 C 228.702 200.895,227.623 202.356,227.434 202.578 C 227.245 202.800,227.090 203.064,227.090 203.165 C 227.090 203.662,224.531 207.358,224.187 207.358 C 223.969 207.358,222.388 206.643,220.674 205.769 C 217.861 204.336,216.387 203.660,212.709 202.118 C 212.065 201.848,211.237 201.492,210.870 201.327 C 209.288 200.619,201.213 198.110,197.993 197.328 C 197.349 197.171,195.920 196.819,194.816 196.544 C 191.269 195.662,185.609 194.567,181.773 194.021 C 180.485 193.837,178.264 193.517,176.837 193.310 C 167.380 191.933,156.636 191.475,133.779 191.473 C 113.293 191.472,106.781 191.631,100.000 192.299 C 86.599 193.620,79.601 194.700,71.572 196.687 C 70.008 197.074,68.202 197.504,67.559 197.642 C 63.184 198.582,53.080 202.710,47.826 205.703 C 43.966 207.902,39.312 211.860,37.062 214.858 C 36.084 216.159,35.196 217.299,35.088 217.391 C 34.608 217.799,32.169 223.428,31.821 224.929 C 31.610 225.842,31.212 227.541,30.936 228.706 C 30.357 231.153,30.259 238.462,30.764 241.600 C 30.945 242.725,31.243 244.699,31.427 245.987 C 31.611 247.274,31.908 248.930,32.085 249.666 C 32.263 250.401,32.564 251.728,32.753 252.613 C 33.117 254.310,33.369 255.091,35.212 260.212 C 37.252 265.880,43.560 277.776,46.154 280.846 C 46.430 281.172,47.480 282.568,48.489 283.947 C 52.849 289.912,58.412 295.704,64.558 300.678 C 66.484 302.236,68.135 303.602,68.227 303.712 C 68.319 303.823,68.545 303.974,68.729 304.048 C 68.913 304.122,70.375 305.044,71.977 306.098 C 76.916 309.346,81.313 311.601,87.124 313.868 C 88.411 314.370,89.766 314.904,90.134 315.055 C 90.502 315.205,91.179 315.420,91.639 315.532 C 92.099 315.644,93.303 315.970,94.314 316.255 C 103.877 318.958,109.387 319.373,135.619 319.366 C 161.746 319.358,167.027 318.958,176.589 316.255 C 177.600 315.970,178.804 315.644,179.264 315.532 C 179.724 315.420,180.401 315.205,180.769 315.055 C 181.137 314.904,182.492 314.372,183.779 313.873 C 187.158 312.563,187.628 312.363,189.298 311.526 C 193.308 309.515,196.267 307.847,198.926 306.098 C 200.528 305.044,201.990 304.122,202.174 304.048 C 202.358 303.974,202.584 303.822,202.676 303.710 C 202.768 303.598,204.348 302.314,206.187 300.857 C 209.751 298.033,216.401 291.562,218.581 288.796 C 219.306 287.877,220.073 286.940,220.285 286.715 C 220.976 285.980,225.967 278.794,226.621 277.592 C 226.971 276.948,227.333 276.346,227.425 276.254 C 227.804 275.874,229.231 273.181,230.967 269.565 C 232.927 265.484,233.041 265.227,233.941 262.876 C 234.258 262.048,234.623 261.145,234.752 260.870 C 234.987 260.369,236.286 256.246,237.253 252.933 C 237.534 251.970,237.934 250.239,238.142 249.086 C 238.350 247.933,238.648 246.463,238.804 245.819 C 238.960 245.176,239.329 242.467,239.624 239.799 C 240.272 233.934,241.150 229.449,242.143 226.923 C 244.153 221.810,244.672 220.693,246.221 218.138 C 246.920 216.985,247.492 215.971,247.492 215.884 C 247.492 215.798,247.709 215.462,247.974 215.138 C 248.239 214.814,249.427 213.344,250.613 211.873 C 251.799 210.401,253.125 208.908,253.559 208.554 C 253.993 208.200,255.310 207.034,256.486 205.962 C 257.663 204.890,258.817 204.013,259.051 204.013 C 259.285 204.013,259.526 203.897,259.588 203.754 C 259.768 203.334,265.138 200.000,265.634 200.000 C 265.883 200.000,266.230 199.864,266.405 199.698 C 266.579 199.533,267.998 198.873,269.556 198.234 C 272.682 196.951,273.307 196.364,272.656 195.323 C 272.428 194.957,272.241 194.372,272.241 194.023 C 272.241 193.673,272.016 192.956,271.741 192.430 C 271.466 191.903,271.241 191.217,271.240 190.906 C 271.238 190.595,271.087 190.247,270.903 190.134 C 270.719 190.020,270.569 189.652,270.569 189.316 C 270.569 188.980,270.344 188.274,270.069 187.747 C 269.794 187.220,269.568 186.535,269.567 186.224 C 269.566 185.913,269.415 185.565,269.231 185.452 C 269.047 185.338,268.896 184.951,268.896 184.591 C 268.896 184.232,268.759 183.676,268.592 183.357 C 268.424 183.037,268.035 182.023,267.727 181.104 C 267.420 180.184,267.083 179.206,266.980 178.930 C 266.876 178.654,266.472 177.537,266.082 176.447 C 265.360 174.432,265.105 174.164,264.214 174.483 M145.819 215.373 C 157.092 215.699,161.484 216.055,173.244 217.593 C 177.321 218.126,178.287 218.289,184.114 219.432 C 186.137 219.829,188.395 220.269,189.130 220.411 C 193.525 221.258,203.400 224.270,207.191 225.920 C 216.097 229.797,216.420 230.660,210.033 233.524 C 209.390 233.812,208.186 234.359,207.358 234.738 C 205.920 235.397,196.437 238.508,193.980 239.128 C 183.381 241.799,173.470 243.376,158.271 244.811 C 148.659 245.719,123.023 245.558,109.365 244.504 C 100.735 243.838,83.044 240.987,80.001 239.772 C 79.578 239.603,78.912 239.465,78.520 239.465 C 78.128 239.465,77.344 239.318,76.780 239.139 C 76.215 238.960,73.721 238.182,71.237 237.408 C 62.382 234.652,55.752 231.384,56.270 230.032 C 56.784 228.694,69.265 223.444,75.251 222.049 C 75.895 221.898,77.324 221.528,78.428 221.225 C 79.532 220.922,81.112 220.549,81.940 220.395 C 82.768 220.241,84.574 219.871,85.953 219.571 C 89.090 218.890,91.892 218.398,94.482 218.072 C 95.585 217.933,97.692 217.645,99.164 217.432 C 109.389 215.951,116.433 215.484,133.946 215.128 C 135.050 215.106,140.393 215.216,145.819 215.373 M66.054 261.058 C 67.157 261.370,68.690 261.827,69.460 262.073 C 71.393 262.689,79.355 264.571,82.609 265.180 C 89.688 266.505,93.777 267.122,98.328 267.552 C 100.443 267.752,103.568 268.072,105.272 268.263 C 118.926 269.793,147.442 269.915,162.375 268.505 C 164.398 268.314,167.483 268.031,169.231 267.876 C 175.968 267.278,186.973 265.505,193.813 263.916 C 197.368 263.090,201.238 262.110,201.839 261.884 C 202.207 261.745,203.411 261.369,204.515 261.048 C 205.619 260.727,206.872 260.328,207.299 260.161 C 208.294 259.773,208.780 260.076,208.513 260.918 C 208.146 262.074,203.213 269.790,202.344 270.569 C 202.241 270.661,201.641 271.413,201.010 272.241 C 197.587 276.734,185.859 286.957,184.127 286.957 C 184.034 286.957,183.015 287.528,181.862 288.225 C 180.709 288.923,178.336 290.069,176.589 290.770 C 174.841 291.472,173.110 292.180,172.742 292.343 C 167.169 294.813,161.187 295.304,136.622 295.307 C 106.393 295.311,98.518 294.118,89.129 288.112 C 88.136 287.476,87.229 286.957,87.115 286.957 C 86.764 286.957,82.525 284.121,81.068 282.912 C 80.313 282.286,79.312 281.472,78.843 281.104 C 71.746 275.526,59.073 258.476,63.294 260.185 C 63.708 260.353,64.950 260.745,66.054 261.058 " stroke="none" fill="#1d2d45" fill-rule="evenodd"></path><path id="path1" d="M139.981 13.924 C 138.878 15.155,129.417 26.780,127.223 29.601 C 126.185 30.935,126.133 31.531,126.978 32.377 C 128.232 33.631,129.742 36.286,130.724 38.963 C 132.707 44.369,130.903 52.766,126.359 59.281 C 120.731 67.350,119.183 70.014,117.537 74.460 C 114.321 83.148,114.768 96.249,118.609 105.853 C 118.903 106.589,119.261 107.492,119.404 107.860 C 121.277 112.672,126.261 121.570,127.309 121.972 C 127.679 122.114,129.721 120.880,130.435 120.083 C 130.527 119.980,131.501 119.227,132.600 118.409 C 133.699 117.591,134.827 116.735,135.108 116.507 C 135.389 116.278,137.989 114.265,140.886 112.032 C 146.590 107.636,146.523 107.725,145.366 106.014 C 141.949 100.959,139.449 93.677,139.486 88.886 C 139.528 83.485,140.388 81.349,145.636 73.603 C 155.431 59.144,158.068 44.985,153.503 31.359 C 152.181 27.414,148.441 20.135,147.186 19.064 C 147.078 18.972,146.444 18.219,145.777 17.391 C 144.431 15.723,142.609 13.790,141.720 13.088 C 141.208 12.683,141.007 12.779,139.981 13.924 M70.707 60.619 C 69.638 61.952,68.679 63.119,68.574 63.211 C 68.470 63.303,67.183 64.883,65.714 66.722 C 64.245 68.561,62.893 70.229,62.709 70.429 C 62.525 70.629,61.848 71.446,61.204 72.245 C 60.560 73.043,59.544 74.286,58.946 75.007 C 57.629 76.596,57.627 76.625,58.790 77.998 C 65.678 86.126,64.763 95.337,55.800 108.102 C 43.653 125.401,44.059 144.635,56.996 164.688 C 59.105 167.957,59.170 168.011,60.083 167.282 C 60.469 166.974,64.641 163.731,69.355 160.075 C 74.069 156.418,77.926 153.298,77.926 153.141 C 77.926 152.983,77.355 151.911,76.657 150.758 C 75.559 148.945,74.235 146.321,73.239 143.980 C 73.082 143.612,72.799 142.784,72.609 142.140 C 72.420 141.497,72.033 140.228,71.751 139.322 C 69.938 133.503,71.570 127.337,76.935 119.732 C 78.168 117.985,79.593 115.803,80.103 114.883 C 81.981 111.492,83.503 108.510,83.688 107.860 C 83.793 107.492,84.325 105.911,84.870 104.348 C 90.215 89.033,86.676 72.348,75.631 60.786 C 72.643 57.658,73.069 57.672,70.707 60.619 M201.500 58.450 C 201.313 58.585,199.589 60.652,197.668 63.043 C 195.747 65.435,194.093 67.467,193.992 67.559 C 193.891 67.651,192.611 69.231,191.147 71.070 C 189.683 72.910,188.142 74.789,187.721 75.247 C 186.699 76.361,186.751 76.770,188.129 78.452 C 194.655 86.417,193.562 95.583,184.559 108.387 C 181.546 112.671,178.595 117.998,178.595 119.153 C 178.595 119.450,178.445 119.786,178.261 119.900 C 178.077 120.013,177.926 120.401,177.926 120.760 C 177.926 121.120,177.791 121.675,177.626 121.995 C 175.646 125.818,175.637 139.524,177.609 145.987 C 180.108 154.173,183.112 160.708,186.782 165.943 L 188.112 167.839 189.792 166.618 C 190.716 165.947,191.636 165.245,191.838 165.057 C 192.039 164.869,195.453 162.232,199.423 159.197 C 207.682 152.884,207.272 153.366,206.033 151.413 C 198.087 138.882,198.086 130.934,206.030 119.565 C 217.161 103.636,219.349 87.219,212.337 72.248 C 210.219 67.726,207.463 63.712,203.894 59.950 C 202.153 58.115,202.051 58.051,201.500 58.450 M338.963 124.650 C 333.957 124.994,329.884 126.600,322.830 131.011 C 320.395 132.533,318.337 133.779,318.257 133.779 C 318.177 133.779,314.073 136.308,309.137 139.398 C 304.202 142.488,299.939 145.127,299.664 145.264 C 299.033 145.576,285.403 153.979,280.602 157.016 C 279.958 157.423,275.787 159.999,271.334 162.741 C 263.318 167.675,262.898 168.021,263.541 169.152 C 263.722 169.471,264.483 171.614,265.231 173.913 C 265.979 176.212,266.722 178.395,266.882 178.763 C 267.042 179.130,267.423 180.184,267.729 181.104 C 268.036 182.023,268.424 183.037,268.592 183.357 C 268.759 183.676,268.896 184.215,268.896 184.555 C 268.896 184.895,268.999 185.276,269.126 185.402 C 269.352 185.629,269.773 186.712,270.769 189.632 C 271.345 191.320,272.113 193.186,272.591 194.059 C 272.766 194.378,272.910 195.006,272.910 195.453 C 272.910 195.900,273.059 196.315,273.240 196.377 C 273.422 196.438,273.885 197.391,274.269 198.495 C 275.600 202.321,275.160 202.171,281.104 200.839 C 282.391 200.551,284.197 200.170,285.117 199.994 C 286.037 199.818,287.768 199.444,288.963 199.164 C 290.159 198.884,291.890 198.507,292.809 198.326 C 294.721 197.950,296.496 197.572,299.833 196.829 C 301.120 196.543,302.851 196.166,303.679 195.993 C 304.507 195.819,306.237 195.441,307.525 195.153 C 308.813 194.865,310.659 194.491,311.627 194.321 C 312.595 194.152,313.512 193.936,313.664 193.842 C 313.817 193.748,314.755 193.521,315.750 193.337 C 318.374 192.853,320.587 192.400,323.244 191.805 C 324.532 191.516,326.338 191.120,327.258 190.926 C 328.177 190.731,329.908 190.352,331.104 190.084 C 332.299 189.816,333.955 189.468,334.783 189.310 C 335.610 189.152,337.341 188.776,338.629 188.475 C 341.059 187.905,342.910 187.521,345.903 186.964 C 348.838 186.419,355.249 184.197,357.023 183.111 C 357.943 182.548,359.136 181.866,359.673 181.595 C 362.222 180.313,368.232 173.573,369.803 170.234 C 371.288 167.078,372.041 165.208,372.296 164.047 C 375.924 147.500,368.668 133.052,353.512 126.645 C 352.434 126.189,351.269 125.847,348.161 125.074 C 346.793 124.734,341.376 124.484,338.963 124.650 " stroke="none" fill="#fc1e1e" fill-rule="evenodd"></path><path id="path2" d="M0.000 167.224 L 0.000 334.448 200.000 334.448 L 400.000 334.448 400.000 167.224 L 400.000 0.000 200.000 0.000 L 0.000 0.000 0.000 167.224 M143.511 14.301 C 149.577 20.769,153.815 28.651,155.244 36.120 C 155.801 39.032,155.975 49.363,155.503 51.505 C 154.248 57.200,152.918 61.420,151.479 64.273 C 149.682 67.834,148.005 70.697,145.872 73.845 C 139.911 82.642,139.051 85.415,140.151 92.308 C 140.587 95.036,140.897 96.069,142.313 99.498 C 143.141 101.502,144.364 103.784,146.002 106.379 L 146.904 107.808 145.997 108.469 C 145.498 108.833,143.934 110.049,142.522 111.171 C 141.111 112.293,139.356 113.654,138.623 114.196 C 137.890 114.738,137.216 115.266,137.124 115.369 C 137.032 115.472,136.054 116.222,134.950 117.036 C 133.846 117.851,132.868 118.603,132.776 118.709 C 132.684 118.814,132.007 119.346,131.271 119.891 C 130.535 120.436,129.557 121.229,129.097 121.654 C 128.637 122.079,127.960 122.384,127.592 122.333 C 125.777 122.082,118.221 107.789,117.023 102.341 C 116.881 101.697,116.470 99.891,116.109 98.328 C 114.351 90.721,114.623 80.717,116.722 75.753 C 116.878 75.385,117.273 74.331,117.600 73.411 C 118.660 70.431,120.466 67.129,122.905 63.712 C 127.402 57.414,129.183 54.135,130.572 49.603 C 131.778 45.667,130.845 37.980,128.892 35.760 C 128.637 35.469,128.428 35.118,128.428 34.980 C 128.428 34.841,127.901 34.085,127.258 33.299 C 125.553 31.220,125.679 30.772,129.142 26.589 C 130.817 24.565,133.636 21.104,135.407 18.896 C 137.177 16.689,138.777 14.715,138.962 14.509 C 139.146 14.304,139.635 13.740,140.048 13.255 C 141.105 12.015,141.470 12.125,143.511 14.301 M75.537 60.154 C 76.522 61.191,77.725 62.567,78.210 63.211 C 78.696 63.855,79.185 64.457,79.298 64.548 C 79.410 64.640,80.247 65.920,81.157 67.391 C 90.993 83.290,89.805 101.305,77.740 119.199 C 72.268 127.315,71.572 129.044,71.572 134.513 C 71.572 136.199,71.714 138.040,71.888 138.605 C 73.819 144.875,74.789 147.172,77.014 150.745 C 78.580 153.259,78.511 153.576,75.997 155.417 C 74.943 156.188,72.566 157.994,70.714 159.430 C 59.297 168.284,59.445 168.179,58.874 167.822 C 57.564 167.004,51.444 155.951,50.320 152.372 C 50.026 151.435,49.658 150.368,49.502 150.000 C 49.347 149.632,49.128 148.955,49.016 148.495 C 48.904 148.035,48.573 146.831,48.279 145.819 C 45.847 137.437,46.228 126.917,49.247 119.064 C 50.870 114.844,51.917 113.058,57.488 105.023 C 64.132 95.438,64.635 86.374,58.942 78.801 C 57.830 77.322,57.533 76.685,57.745 76.233 C 57.980 75.730,65.660 66.079,67.673 63.755 C 68.012 63.364,69.212 61.877,70.338 60.452 C 72.760 57.388,72.902 57.380,75.537 60.154 M204.410 60.117 C 207.180 62.976,210.491 67.654,212.173 71.086 C 214.200 75.224,214.664 76.588,216.095 82.609 C 216.638 84.890,216.678 95.362,216.151 97.200 C 215.947 97.912,215.606 99.323,215.394 100.334 C 215.030 102.075,214.332 104.371,213.718 105.853 C 213.565 106.221,213.187 107.199,212.877 108.027 C 211.879 110.691,207.353 118.799,206.343 119.732 C 204.652 121.294,201.122 128.451,200.652 131.271 C 200.181 134.098,201.230 141.809,202.289 143.298 C 202.425 143.489,202.737 144.237,202.984 144.960 C 203.365 146.079,205.319 149.685,207.041 152.448 C 207.621 153.377,208.521 152.559,197.595 161.036 C 187.292 169.029,188.196 168.475,187.331 167.323 C 186.945 166.809,186.477 166.206,186.291 165.984 C 186.105 165.762,185.953 165.473,185.953 165.341 C 185.953 165.210,185.742 164.865,185.483 164.575 C 184.217 163.153,179.264 153.223,179.264 152.107 C 179.264 151.849,179.140 151.496,178.988 151.321 C 178.731 151.025,178.555 150.486,177.415 146.488 C 174.783 137.258,175.091 126.990,178.244 118.896 C 179.619 115.366,183.779 108.242,185.429 106.592 C 185.717 106.304,185.953 105.982,185.953 105.878 C 185.953 105.773,186.469 104.970,187.099 104.092 C 191.221 98.354,192.950 89.467,190.953 84.281 C 190.563 83.269,190.164 82.178,190.067 81.856 C 189.969 81.534,189.756 81.271,189.593 81.271 C 189.431 81.271,189.292 81.083,189.285 80.853 C 189.278 80.623,188.610 79.617,187.801 78.617 C 186.355 76.831,186.234 76.069,187.268 75.251 C 187.384 75.159,189.052 73.127,190.974 70.736 C 194.905 65.844,195.347 65.300,195.819 64.762 C 196.003 64.553,197.054 63.253,198.155 61.873 C 201.948 57.118,201.598 57.217,204.410 60.117 M349.164 124.963 C 350.360 125.251,351.639 125.607,352.007 125.755 C 352.375 125.904,353.353 126.278,354.181 126.587 C 355.829 127.203,359.763 129.294,360.397 129.892 C 360.616 130.098,361.214 130.569,361.727 130.936 C 363.729 132.375,368.227 137.281,368.227 138.027 C 368.227 138.266,368.350 138.462,368.500 138.462 C 368.744 138.462,371.257 143.284,371.898 144.983 C 373.768 149.937,374.072 159.340,372.530 164.548 C 371.911 166.640,369.425 171.999,368.771 172.653 C 368.529 172.894,367.908 173.766,367.390 174.589 C 366.476 176.041,361.804 180.698,360.539 181.417 C 360.196 181.613,358.888 182.375,357.633 183.110 C 356.378 183.846,355.201 184.499,355.017 184.561 C 354.833 184.624,353.704 185.018,352.508 185.439 C 349.922 186.348,348.548 186.717,344.983 187.464 C 343.512 187.772,341.781 188.150,341.137 188.303 C 340.493 188.457,338.763 188.827,337.291 189.125 C 335.819 189.423,334.089 189.799,333.445 189.961 C 332.801 190.123,331.070 190.497,329.599 190.792 C 328.127 191.088,326.461 191.474,325.896 191.651 C 325.331 191.828,324.473 191.973,323.989 191.973 C 323.505 191.973,322.763 192.108,322.340 192.272 C 321.918 192.436,320.368 192.821,318.896 193.127 C 317.425 193.434,315.468 193.841,314.548 194.032 C 311.522 194.661,308.214 195.375,307.023 195.657 C 304.833 196.174,301.425 196.902,297.659 197.657 C 296.310 197.927,294.138 198.400,290.134 199.297 C 288.122 199.747,283.621 200.701,282.107 200.997 C 281.371 201.141,279.640 201.509,278.261 201.815 L 275.753 202.372 275.254 201.628 C 274.729 200.845,273.979 198.997,273.683 197.762 C 273.550 197.202,273.378 197.098,272.958 197.323 C 272.089 197.788,268.874 199.214,267.224 199.865 C 266.396 200.191,265.268 200.734,264.716 201.070 C 264.164 201.406,263.449 201.772,263.127 201.883 C 262.805 201.994,262.542 202.218,262.542 202.380 C 262.542 202.543,262.329 202.676,262.068 202.676 C 261.807 202.676,261.544 202.791,261.483 202.932 C 261.421 203.074,260.544 203.713,259.533 204.354 C 255.531 206.889,246.154 217.307,246.154 219.218 C 246.154 219.296,245.815 219.933,245.401 220.633 C 244.988 221.333,244.369 222.659,244.027 223.579 C 243.685 224.498,243.181 225.853,242.906 226.589 C 241.509 230.331,240.904 233.270,240.497 238.294 C 240.224 241.669,239.672 245.124,239.104 247.014 C 238.935 247.579,238.796 248.512,238.796 249.088 C 238.796 249.664,238.665 250.481,238.505 250.904 C 238.345 251.327,237.979 252.500,237.692 253.512 C 236.010 259.446,236.030 259.387,235.117 261.199 C 234.933 261.565,234.783 262.031,234.783 262.236 C 234.783 262.441,234.575 263.082,234.321 263.662 C 234.067 264.241,233.600 265.318,233.285 266.054 C 232.038 268.959,228.657 275.585,228.422 275.585 C 228.284 275.585,228.087 275.849,227.984 276.171 C 227.530 277.583,222.505 285.172,220.925 286.829 C 220.729 287.035,219.896 288.013,219.075 289.003 C 216.569 292.022,209.472 299.064,207.150 300.836 C 205.945 301.756,204.784 302.666,204.570 302.860 C 203.744 303.605,200.351 306.020,200.129 306.020 C 200.001 306.020,199.403 306.396,198.800 306.856 C 198.197 307.316,197.543 307.692,197.347 307.692 C 197.151 307.692,196.990 307.821,196.990 307.979 C 196.990 308.137,195.824 308.865,194.398 309.596 C 192.972 310.327,191.505 311.087,191.137 311.285 C 190.130 311.826,186.547 313.464,185.786 313.732 C 185.202 313.937,184.335 314.267,181.438 315.389 C 179.220 316.248,177.647 316.722,177.015 316.722 C 176.618 316.722,176.201 316.873,176.087 317.057 C 175.973 317.241,175.428 317.391,174.875 317.391 C 174.322 317.391,173.551 317.561,173.163 317.769 C 172.775 317.977,171.543 318.277,170.426 318.436 C 169.309 318.595,167.341 318.883,166.054 319.074 C 161.368 319.773,154.252 319.945,132.441 319.888 C 110.911 319.832,106.344 319.650,102.637 318.703 C 101.972 318.534,100.993 318.395,100.463 318.396 C 99.932 318.397,98.821 318.182,97.993 317.918 C 97.166 317.654,95.811 317.266,94.983 317.057 C 93.151 316.593,90.374 315.758,89.465 315.396 C 88.168 314.881,85.778 313.964,85.117 313.729 C 82.209 312.695,71.587 306.972,71.293 306.282 C 71.232 306.138,70.981 306.020,70.736 306.020 C 70.491 306.020,70.240 305.907,70.178 305.769 C 70.117 305.631,69.239 304.960,68.227 304.277 C 67.216 303.595,65.928 302.616,65.366 302.103 C 64.804 301.590,63.750 300.730,63.025 300.192 C 60.954 298.654,55.034 292.774,52.227 289.465 C 50.823 287.809,49.333 286.080,48.917 285.622 C 48.501 285.164,48.161 284.669,48.161 284.521 C 48.161 284.374,47.851 283.921,47.472 283.514 C 46.443 282.409,42.475 276.423,42.475 275.975 C 42.475 275.761,42.359 275.585,42.217 275.585 C 42.074 275.585,41.664 275.021,41.306 274.331 C 40.947 273.641,40.310 272.611,39.892 272.042 C 39.473 271.473,39.130 270.849,39.130 270.655 C 39.130 270.461,38.583 269.196,37.915 267.844 C 35.403 262.764,35.117 262.134,35.117 261.686 C 35.117 261.261,34.432 259.488,33.738 258.115 C 33.577 257.795,33.445 257.261,33.445 256.928 C 33.445 256.594,33.310 256.178,33.146 256.003 C 32.823 255.661,32.151 253.071,31.891 251.171 C 31.803 250.527,31.604 249.699,31.448 249.331 C 30.165 246.295,29.554 230.728,30.602 227.759 C 30.878 226.977,31.104 225.838,31.104 225.229 C 31.104 224.619,31.254 224.027,31.438 223.913 C 31.622 223.799,31.773 223.497,31.773 223.242 C 31.773 222.474,34.171 217.654,35.266 216.222 C 35.828 215.487,36.513 214.590,36.789 214.229 C 37.418 213.407,40.353 210.475,41.659 209.365 C 43.396 207.887,45.408 206.355,45.610 206.355 C 45.718 206.355,46.599 205.847,47.569 205.227 C 49.536 203.969,54.882 201.338,55.472 201.338 C 55.681 201.338,55.853 201.187,55.853 201.003 C 55.853 200.819,56.199 200.669,56.622 200.669 C 57.045 200.669,57.534 200.539,57.709 200.381 C 57.884 200.223,58.855 199.826,59.866 199.499 C 60.878 199.173,62.007 198.791,62.375 198.652 C 64.874 197.705,66.190 197.324,66.965 197.324 C 67.454 197.324,67.947 197.174,68.060 196.990 C 68.174 196.806,68.616 196.656,69.042 196.656 C 69.469 196.656,70.358 196.430,71.019 196.154 C 71.679 195.878,72.742 195.652,73.381 195.652 C 74.020 195.652,74.635 195.502,74.749 195.318 C 74.863 195.134,75.559 194.983,76.296 194.983 C 77.033 194.983,77.936 194.823,78.303 194.626 C 79.034 194.235,80.224 194.055,92.475 192.482 C 96.574 191.956,101.250 191.583,111.037 190.999 C 118.202 190.571,149.116 190.570,156.020 190.997 C 166.768 191.662,170.814 191.986,174.582 192.486 C 176.697 192.766,179.482 193.134,180.769 193.303 C 186.668 194.077,187.985 194.291,188.377 194.535 C 188.607 194.678,189.548 194.905,190.468 195.039 C 191.388 195.173,192.818 195.436,193.645 195.623 C 198.264 196.669,198.973 196.855,199.197 197.079 C 199.332 197.214,199.736 197.324,200.094 197.324 C 200.771 197.324,203.747 198.208,204.761 198.709 C 205.081 198.867,205.529 198.997,205.758 198.997 C 206.134 198.997,209.605 200.204,211.706 201.065 C 215.408 202.584,218.984 204.233,222.193 205.903 C 222.771 206.203,223.466 206.555,223.737 206.684 C 224.172 206.890,226.087 204.525,226.087 203.782 C 226.087 203.668,226.463 203.082,226.923 202.479 C 227.383 201.876,227.759 201.299,227.759 201.197 C 227.759 201.095,227.972 200.746,228.233 200.422 C 228.965 199.511,231.868 195.873,232.259 195.375 C 233.681 193.567,237.719 189.532,239.799 187.841 C 241.179 186.719,242.521 185.595,242.783 185.342 C 243.446 184.702,249.202 180.936,249.518 180.936 C 249.661 180.936,249.827 180.805,249.889 180.645 C 250.038 180.253,257.264 176.553,259.365 175.793 C 264.529 173.923,265.087 173.467,264.273 171.779 C 264.085 171.389,263.669 170.343,263.348 169.455 L 262.765 167.840 263.740 167.042 C 264.277 166.604,264.839 166.239,264.989 166.233 C 265.139 166.226,265.755 165.844,266.358 165.385 C 266.961 164.925,267.542 164.548,267.649 164.548 C 267.756 164.548,270.486 162.893,273.716 160.870 C 276.946 158.846,279.728 157.191,279.900 157.191 C 280.071 157.191,280.262 157.074,280.323 156.932 C 280.434 156.675,285.839 153.177,286.125 153.177 C 286.207 153.177,289.508 151.145,293.460 148.662 C 297.412 146.179,300.736 144.147,300.847 144.147 C 300.958 144.147,301.541 143.771,302.144 143.311 C 302.747 142.851,303.352 142.475,303.489 142.475 C 303.625 142.475,304.363 142.045,305.129 141.519 C 306.467 140.601,314.840 135.400,316.221 134.630 C 316.589 134.425,317.748 133.698,318.797 133.015 C 319.845 132.331,320.849 131.773,321.026 131.773 C 321.204 131.773,321.399 131.658,321.460 131.518 C 321.768 130.816,330.453 126.087,331.434 126.087 C 331.731 126.087,332.116 125.964,332.291 125.815 C 334.092 124.270,344.171 123.761,349.164 124.963 M119.398 216.097 C 117.834 216.252,114.448 216.532,111.873 216.720 C 105.152 217.210,100.604 217.645,99.833 217.873 C 99.465 217.981,97.960 218.225,96.488 218.414 C 91.967 218.995,89.901 219.327,87.291 219.893 C 85.911 220.192,84.105 220.569,83.278 220.730 C 81.943 220.989,80.882 221.242,76.254 222.404 C 73.262 223.155,72.679 223.332,72.004 223.694 C 71.607 223.906,70.904 224.080,70.443 224.080 C 69.982 224.080,69.512 224.231,69.398 224.415 C 69.284 224.599,68.833 224.749,68.395 224.749 C 67.956 224.749,67.516 224.882,67.416 225.043 C 67.316 225.205,66.442 225.596,65.473 225.911 C 64.505 226.226,62.508 227.091,61.037 227.834 C 59.565 228.576,58.024 229.352,57.611 229.558 C 56.872 229.928,56.563 230.769,57.167 230.769 C 57.338 230.769,57.676 230.958,57.919 231.188 C 58.669 231.899,65.508 235.117,66.270 235.117 C 66.537 235.117,66.899 235.237,67.074 235.383 C 67.248 235.529,68.294 235.923,69.398 236.258 C 70.502 236.593,71.706 236.989,72.074 237.137 C 72.441 237.286,73.119 237.485,73.579 237.580 C 75.238 237.923,77.437 238.546,78.005 238.835 C 78.325 238.998,78.946 239.130,79.385 239.130 C 79.824 239.130,80.823 239.356,81.605 239.632 C 82.387 239.908,83.430 240.134,83.922 240.134 C 84.414 240.134,84.959 240.270,85.134 240.437 C 85.309 240.604,86.204 240.815,87.124 240.904 C 88.043 240.994,90.151 241.322,91.806 241.633 C 95.020 242.236,97.413 242.553,103.010 243.114 C 104.941 243.308,106.823 243.554,107.191 243.660 C 109.197 244.239,120.453 244.623,135.452 244.623 C 150.450 244.623,161.706 244.239,163.712 243.660 C 164.080 243.554,165.962 243.308,167.893 243.114 C 173.490 242.553,175.883 242.236,179.097 241.633 C 180.753 241.322,182.860 240.994,183.779 240.904 C 184.699 240.815,185.594 240.604,185.769 240.437 C 185.944 240.270,186.489 240.134,186.981 240.134 C 187.473 240.134,188.516 239.908,189.298 239.632 C 190.080 239.356,191.079 239.130,191.518 239.130 C 191.957 239.130,192.578 238.998,192.898 238.835 C 193.466 238.546,195.665 237.923,197.324 237.580 C 197.784 237.485,198.462 237.286,198.829 237.137 C 199.197 236.989,200.401 236.593,201.505 236.258 C 202.609 235.923,203.655 235.529,203.829 235.383 C 204.004 235.237,204.370 235.117,204.642 235.117 C 205.215 235.117,207.358 234.179,211.181 232.256 C 213.856 230.910,214.635 230.030,213.478 229.660 C 213.147 229.555,212.124 229.036,211.204 228.507 C 210.284 227.979,208.328 227.063,206.856 226.471 C 205.385 225.880,203.919 225.250,203.600 225.072 C 203.280 224.895,202.789 224.749,202.508 224.749 C 202.227 224.749,201.736 224.614,201.417 224.448 C 201.097 224.282,199.933 223.885,198.829 223.565 C 197.726 223.245,196.522 222.864,196.154 222.718 C 195.786 222.573,195.033 222.382,194.482 222.294 C 193.930 222.206,192.575 221.885,191.472 221.580 C 190.368 221.275,188.712 220.886,187.793 220.716 C 186.873 220.546,184.992 220.168,183.612 219.878 C 180.978 219.323,178.844 218.983,174.415 218.414 C 172.943 218.225,171.438 217.982,171.070 217.875 C 170.233 217.630,165.465 217.170,159.365 216.746 C 156.789 216.566,153.102 216.267,151.171 216.081 C 147.018 215.680,123.487 215.692,119.398 216.097 M205.686 261.204 C 205.410 261.367,204.281 261.755,203.177 262.067 C 202.074 262.379,200.418 262.846,199.498 263.105 C 198.579 263.364,197.364 263.719,196.799 263.895 C 196.234 264.070,195.367 264.214,194.871 264.214 C 194.376 264.214,193.710 264.348,193.390 264.511 C 192.613 264.909,189.196 265.610,187.124 265.797 C 186.204 265.880,185.309 266.085,185.134 266.252 C 184.959 266.419,184.191 266.555,183.428 266.555 C 182.664 266.555,181.603 266.707,181.070 266.892 C 180.032 267.252,176.506 267.711,171.000 268.202 C 169.122 268.369,167.437 268.597,167.257 268.709 C 164.905 270.162,108.895 270.040,102.843 268.569 C 101.109 268.147,98.328 268.136,98.328 268.550 C 98.328 268.895,99.968 271.962,100.301 272.241 C 100.412 272.333,100.711 272.784,100.966 273.244 C 104.737 280.033,119.020 294.299,122.575 294.827 C 125.465 295.256,157.885 294.738,161.706 294.202 C 166.300 293.557,170.301 292.699,172.074 291.979 C 174.430 291.021,175.488 290.565,175.999 290.285 C 176.318 290.110,176.799 289.967,177.068 289.967 C 177.537 289.967,178.442 289.519,182.107 287.472 C 184.063 286.380,189.090 283.094,189.708 282.504 C 189.942 282.281,190.811 281.574,191.639 280.934 C 193.332 279.625,200.000 272.987,200.000 272.611 C 200.000 272.477,200.265 272.075,200.588 271.719 C 200.912 271.362,201.698 270.393,202.335 269.565 C 202.973 268.737,203.594 267.985,203.716 267.893 C 204.034 267.653,205.324 265.492,205.562 264.799 C 205.673 264.477,205.897 264.214,206.059 264.214 C 206.222 264.214,206.355 264.061,206.355 263.873 C 206.355 263.685,206.733 262.933,207.195 262.201 L 208.035 260.870 207.111 260.889 C 206.603 260.900,205.962 261.042,205.686 261.204 " stroke="none" fill="#fbfbfb" fill-rule="evenodd"></path><path id="path3" d="M140.409 12.821 C 140.165 13.067,139.491 13.857,138.910 14.577 C 136.071 18.093,130.996 24.339,128.631 27.227 C 127.180 29.000,126.067 30.527,126.160 30.619 C 126.252 30.712,126.761 30.219,127.290 29.524 C 127.819 28.829,130.587 25.390,133.440 21.882 C 136.294 18.374,139.063 14.958,139.594 14.292 C 141.182 12.298,142.012 12.704,145.686 17.274 C 146.403 18.166,147.078 18.972,147.186 19.064 C 150.369 21.779,154.815 33.648,155.642 41.639 C 155.719 42.375,155.730 41.848,155.669 40.468 C 155.267 31.522,150.954 22.237,143.511 14.301 C 141.634 12.300,141.152 12.070,140.409 12.821 M126.113 31.404 C 126.099 31.661,126.614 32.514,127.258 33.299 C 127.901 34.085,128.428 34.841,128.428 34.980 C 128.428 35.118,128.637 35.469,128.893 35.760 C 129.149 36.050,129.742 37.341,130.212 38.629 C 130.683 39.916,131.075 40.714,131.085 40.400 C 131.103 39.848,130.897 39.253,129.837 36.789 C 129.307 35.558,127.739 33.138,126.978 32.377 C 126.731 32.130,126.441 31.705,126.334 31.432 C 126.179 31.036,126.134 31.031,126.113 31.404 M131.104 44.649 C 131.104 46.458,131.186 47.855,131.288 47.754 C 131.389 47.652,131.472 46.255,131.472 44.649 C 131.472 43.042,131.389 41.645,131.288 41.544 C 131.186 41.443,131.104 42.840,131.104 44.649 M155.579 47.681 C 155.452 50.531,154.565 54.697,153.281 58.470 C 152.823 59.818,152.515 60.988,152.597 61.070 C 152.803 61.276,154.031 57.798,154.617 55.351 C 155.716 50.762,155.901 49.584,155.773 47.993 C 155.648 46.430,155.635 46.410,155.579 47.681 M130.466 49.833 C 130.025 51.519,129.896 51.845,128.553 54.682 C 127.370 57.180,125.964 59.427,122.905 63.712 C 120.466 67.129,118.660 70.431,117.600 73.411 C 117.273 74.331,116.849 75.407,116.658 75.803 C 116.467 76.199,116.370 76.701,116.443 76.920 C 116.515 77.138,116.925 76.288,117.353 75.030 C 118.865 70.584,120.638 67.484,126.359 59.281 C 128.513 56.194,131.362 49.728,131.007 48.737 C 130.926 48.512,130.683 49.005,130.466 49.833 M70.338 60.452 C 69.212 61.877,68.012 63.364,67.673 63.755 C 65.660 66.079,57.980 75.730,57.745 76.233 C 57.533 76.685,57.830 77.322,58.942 78.801 C 62.926 84.101,63.976 90.579,61.796 96.415 C 61.605 96.927,61.533 97.431,61.637 97.534 C 61.741 97.638,62.137 96.676,62.518 95.397 C 64.293 89.437,62.875 82.819,58.790 77.998 C 57.627 76.625,57.629 76.596,58.946 75.007 C 59.544 74.286,60.560 73.043,61.204 72.245 C 61.848 71.446,62.525 70.629,62.709 70.429 C 62.893 70.229,64.245 68.561,65.714 66.722 C 67.183 64.883,68.468 63.303,68.569 63.211 C 69.307 62.540,72.894 57.860,72.670 57.860 C 72.514 57.860,71.465 59.026,70.338 60.452 M200.931 58.612 C 200.505 59.026,199.256 60.493,198.155 61.873 C 197.054 63.253,196.003 64.553,195.819 64.762 C 195.347 65.300,194.905 65.844,190.974 70.736 C 189.052 73.127,187.384 75.159,187.268 75.251 C 186.234 76.069,186.355 76.831,187.801 78.617 C 188.610 79.617,189.278 80.623,189.285 80.853 C 189.292 81.083,189.411 81.271,189.548 81.272 C 189.686 81.273,190.075 81.988,190.412 82.861 C 191.413 85.453,191.684 85.950,191.462 84.783 C 191.186 83.334,189.490 80.114,188.129 78.452 C 186.751 76.770,186.699 76.361,187.721 75.247 C 188.142 74.789,189.685 72.910,191.149 71.071 C 192.614 69.232,194.041 67.472,194.321 67.161 C 194.600 66.850,196.256 64.792,198.000 62.588 C 199.744 60.384,201.393 58.486,201.664 58.369 C 203.047 57.775,209.508 66.241,212.515 72.589 C 213.340 74.329,214.022 75.562,214.031 75.330 C 214.039 75.097,213.916 74.646,213.756 74.327 C 213.596 74.007,212.881 72.549,212.167 71.086 C 210.497 67.663,207.188 62.983,204.410 60.117 C 201.938 57.567,201.986 57.588,200.931 58.612 M75.631 60.786 C 81.130 66.541,84.999 74.086,86.740 82.441 C 86.832 82.884,86.892 82.780,86.918 82.131 C 86.959 81.094,86.843 80.651,85.439 76.449 C 84.138 72.559,80.521 65.550,79.298 64.548 C 79.185 64.457,78.696 63.855,78.210 63.211 C 76.939 61.526,73.770 58.194,73.438 58.194 C 73.282 58.194,74.270 59.360,75.631 60.786 M151.317 63.629 C 150.784 64.779,150.287 65.853,150.214 66.016 C 149.827 66.879,150.750 65.773,151.207 64.827 C 152.490 62.172,152.612 61.865,152.454 61.707 C 152.362 61.615,151.850 62.480,151.317 63.629 M149.328 67.779 C 149.003 68.465,147.338 71.091,145.628 73.614 C 139.424 82.771,138.260 87.157,140.156 94.232 C 140.820 96.708,141.481 98.228,140.992 96.154 C 138.665 86.282,139.241 83.646,145.865 73.845 C 148.570 69.842,150.290 66.901,150.060 66.670 C 149.983 66.594,149.654 67.093,149.328 67.779 M214.231 76.589 C 214.972 79.828,215.565 81.679,215.656 81.037 C 215.714 80.633,215.601 80.003,215.406 79.638 C 215.210 79.273,215.043 78.700,215.035 78.366 C 215.027 78.032,214.799 77.308,214.530 76.756 C 214.110 75.897,214.067 75.873,214.231 76.589 M115.820 79.264 C 114.556 85.107,114.663 93.953,116.048 98.161 L 116.378 99.164 116.244 97.993 C 116.170 97.349,115.947 95.704,115.749 94.337 C 115.113 89.959,115.310 81.978,116.106 79.881 C 116.291 79.393,116.392 78.640,116.330 78.209 C 116.256 77.691,116.083 78.049,115.820 79.264 M215.776 83.110 C 215.792 84.708,216.318 86.136,216.331 84.615 C 216.337 83.972,216.212 83.144,216.054 82.776 C 215.809 82.208,215.768 82.258,215.776 83.110 M87.216 86.455 C 87.470 90.422,87.470 90.318,87.197 94.147 C 87.015 96.709,87.037 96.933,87.344 95.652 C 87.789 93.798,87.778 85.486,87.329 84.114 C 87.095 83.399,87.063 84.071,87.216 86.455 M191.717 89.639 C 191.696 94.964,190.118 99.890,187.076 104.124 C 186.433 105.019,185.984 105.828,186.078 105.922 C 186.285 106.129,188.205 103.166,189.415 100.772 C 191.600 96.448,192.722 90.679,192.036 87.291 C 191.782 86.033,191.729 86.418,191.717 89.639 M216.507 89.799 C 216.506 91.455,216.562 92.174,216.632 91.398 C 216.702 90.622,216.703 89.267,216.634 88.388 C 216.565 87.509,216.508 88.144,216.507 89.799 M216.114 94.523 C 216.081 95.098,215.968 96.077,215.864 96.697 C 215.710 97.616,215.744 97.717,216.049 97.238 C 216.256 96.914,216.368 95.936,216.299 95.064 C 216.222 94.084,216.151 93.877,216.114 94.523 M86.328 99.331 C 86.088 100.527,85.735 101.924,85.543 102.435 C 85.351 102.947,85.279 103.451,85.383 103.555 C 85.487 103.659,85.745 103.090,85.956 102.290 C 86.168 101.490,86.495 100.297,86.684 99.637 C 86.873 98.978,86.968 98.150,86.896 97.798 C 86.824 97.446,86.568 98.135,86.328 99.331 M141.137 97.431 C 141.137 98.115,144.124 104.176,145.366 106.014 C 146.523 107.725,146.590 107.636,140.886 112.032 C 137.989 114.265,135.389 116.278,135.108 116.507 C 134.827 116.735,133.699 117.591,132.600 118.409 C 131.501 119.227,130.527 119.980,130.435 120.083 C 129.721 120.880,127.679 122.114,127.309 121.972 C 126.503 121.663,121.549 113.232,120.414 110.238 C 120.213 109.707,119.960 109.360,119.853 109.467 C 119.545 109.775,122.920 116.259,125.020 119.398 C 127.107 122.515,127.768 122.881,129.097 121.654 C 129.557 121.229,130.535 120.436,131.271 119.891 C 132.007 119.346,132.684 118.814,132.776 118.709 C 132.868 118.603,133.846 117.851,134.950 117.036 C 136.054 116.222,137.032 115.472,137.124 115.369 C 137.216 115.266,137.890 114.738,138.623 114.196 C 139.356 113.654,141.111 112.293,142.522 111.171 C 143.934 110.049,145.498 108.833,145.997 108.469 L 146.904 107.808 146.002 106.379 C 143.888 103.030,141.806 98.896,141.806 98.046 C 141.806 97.855,141.656 97.605,141.472 97.492 C 141.288 97.378,141.137 97.351,141.137 97.431 M60.384 100.069 C 59.847 101.227,58.585 103.378,57.580 104.849 C 56.575 106.321,54.956 108.695,53.982 110.125 C 50.813 114.778,47.430 122.624,47.522 125.107 C 47.538 125.554,47.819 124.941,48.146 123.746 C 49.834 117.564,51.391 114.381,55.800 108.102 C 58.889 103.702,61.668 98.885,61.467 98.279 C 61.409 98.106,60.922 98.912,60.384 100.069 M215.108 100.021 C 214.865 101.205,214.526 102.520,214.356 102.942 C 213.963 103.919,213.964 104.694,214.358 104.013 C 214.813 103.228,215.783 99.076,215.661 98.440 C 215.600 98.125,215.351 98.836,215.108 100.021 M116.524 100.167 C 116.650 100.719,116.874 101.697,117.023 102.341 C 117.433 104.117,119.438 109.102,119.655 108.885 C 119.759 108.780,119.687 108.356,119.494 107.943 C 118.684 106.205,118.034 104.368,117.406 102.043 C 116.754 99.627,116.072 98.177,116.524 100.167 M84.329 105.963 C 83.582 108.011,83.412 108.906,83.941 108.001 C 84.418 107.186,85.350 104.302,85.189 104.141 C 85.110 104.062,84.723 104.882,84.329 105.963 M213.739 104.684 C 213.631 105.371,211.991 109.444,211.400 110.491 C 210.998 111.202,210.751 111.866,210.850 111.965 C 211.064 112.179,213.378 107.277,213.378 106.611 C 213.378 106.359,213.545 105.986,213.750 105.782 C 213.955 105.577,214.042 105.208,213.944 104.962 C 213.845 104.716,213.753 104.591,213.739 104.684 M183.250 109.615 C 181.073 112.852,178.590 117.420,178.601 118.170 C 178.604 118.386,179.281 117.207,180.106 115.552 C 180.931 113.896,182.585 111.150,183.782 109.448 C 184.978 107.747,185.841 106.355,185.701 106.355 C 185.560 106.355,184.457 107.822,183.250 109.615 M82.389 110.610 C 80.456 114.408,79.145 116.601,76.935 119.732 C 74.632 122.997,72.104 127.400,72.377 127.672 C 72.461 127.757,72.949 127.021,73.460 126.037 C 74.624 123.798,74.565 123.893,77.641 119.338 C 80.169 115.597,83.797 109.104,83.517 108.824 C 83.438 108.744,82.930 109.548,82.389 110.610 M209.513 114.097 C 209.017 115.081,207.453 117.542,206.036 119.565 C 200.396 127.618,199.191 131.667,200.501 138.150 C 201.031 140.771,202.926 146.349,203.195 146.080 C 203.328 145.947,202.633 143.848,202.269 143.282 C 201.201 141.625,200.185 134.073,200.652 131.271 C 201.123 128.445,204.697 121.206,206.349 119.732 C 207.110 119.054,210.805 112.701,210.574 112.469 C 210.485 112.381,210.008 113.113,209.513 114.097 M178.170 118.931 C 178.036 119.065,177.926 119.406,177.926 119.688 C 177.926 120.064,178.025 120.102,178.298 119.829 C 178.503 119.624,178.613 119.283,178.542 119.072 C 178.472 118.860,178.304 118.797,178.170 118.931 M177.338 121.610 C 175.209 128.694,175.070 136.936,176.950 144.624 C 177.307 146.082,177.693 147.361,177.808 147.467 C 177.923 147.573,177.914 147.207,177.787 146.656 C 176.359 140.448,176.192 139.109,176.164 133.612 C 176.135 128.051,176.646 124.060,177.670 121.856 C 177.854 121.460,177.942 120.950,177.867 120.723 C 177.791 120.496,177.553 120.895,177.338 121.610 M337.793 124.416 C 336.597 124.568,335.242 124.859,334.783 125.062 C 333.972 125.421,333.977 125.427,334.950 125.245 C 339.034 124.484,344.519 124.480,349.164 125.235 C 350.249 125.411,350.232 125.391,348.934 124.961 C 347.158 124.373,340.641 124.055,337.793 124.416 M332.274 125.753 C 332.030 126.148,332.357 126.148,333.278 125.753 C 333.922 125.475,333.920 125.464,333.214 125.442 C 332.811 125.429,332.388 125.569,332.274 125.753 M351.003 125.753 C 351.924 126.148,352.251 126.148,352.007 125.753 C 351.893 125.569,351.470 125.429,351.067 125.442 C 350.361 125.464,350.358 125.475,351.003 125.753 M329.599 126.661 C 328.251 127.337,321.615 131.198,321.405 131.429 C 321.313 131.529,320.666 131.911,319.968 132.277 C 319.270 132.644,318.292 133.285,317.794 133.704 C 316.493 134.798,319.206 133.317,323.031 130.846 C 325.549 129.219,329.922 126.865,331.438 126.320 C 331.781 126.197,331.728 126.143,331.271 126.149 C 330.903 126.154,330.151 126.384,329.599 126.661 M353.512 126.623 C 356.287 127.858,357.143 128.308,359.218 129.620 C 364.785 133.142,370.079 140.009,371.910 146.084 C 372.156 146.901,372.186 146.916,372.212 146.233 C 372.228 145.817,372.104 145.215,371.937 144.895 C 371.770 144.576,370.990 142.997,370.204 141.388 C 369.417 139.778,368.650 138.462,368.500 138.462 C 368.350 138.462,368.227 138.266,368.227 138.027 C 368.227 137.281,363.729 132.375,361.727 130.936 C 361.214 130.569,360.579 130.061,360.314 129.809 C 359.618 129.145,353.480 126.086,352.863 126.095 C 352.576 126.099,352.868 126.337,353.512 126.623 M47.071 127.090 C 46.940 127.550,46.847 128.679,46.866 129.599 L 46.901 131.271 47.207 129.431 C 47.564 127.289,47.471 125.694,47.071 127.090 M71.605 129.759 C 71.086 132.179,71.181 137.698,71.767 139.130 C 72.204 140.200,72.227 140.214,72.031 139.298 C 71.579 137.183,71.521 131.910,71.931 130.182 C 72.161 129.215,72.264 128.340,72.160 128.236 C 72.056 128.132,71.806 128.818,71.605 129.759 M46.592 133.278 C 46.594 134.381,46.656 134.792,46.731 134.191 C 46.805 133.590,46.804 132.687,46.727 132.185 C 46.651 131.682,46.590 132.174,46.592 133.278 M311.204 137.646 C 308.445 139.370,305.636 141.162,304.963 141.628 C 304.290 142.094,303.627 142.475,303.490 142.475 C 303.353 142.475,302.747 142.851,302.144 143.311 C 301.541 143.771,300.958 144.147,300.847 144.147 C 300.736 144.147,297.412 146.179,293.460 148.662 C 289.508 151.145,286.207 153.177,286.125 153.177 C 285.839 153.177,280.434 156.675,280.323 156.932 C 280.262 157.074,280.071 157.191,279.900 157.191 C 279.728 157.191,276.946 158.846,273.716 160.870 C 270.486 162.893,267.756 164.548,267.649 164.548 C 267.542 164.548,266.961 164.925,266.358 165.385 C 265.755 165.844,265.139 166.226,264.989 166.233 C 264.373 166.260,262.807 167.847,262.976 168.272 C 263.120 168.633,263.166 168.624,263.197 168.227 C 263.218 167.952,266.880 165.483,271.334 162.741 C 275.787 159.999,279.958 157.423,280.602 157.016 C 281.945 156.166,297.542 146.493,298.384 145.987 C 298.691 145.803,299.368 145.416,299.889 145.128 C 301.280 144.358,316.166 135.062,316.538 134.731 C 317.551 133.830,315.636 134.876,311.204 137.646 M46.856 137.319 C 46.874 138.407,47.015 139.674,47.168 140.134 C 47.335 140.636,47.371 139.901,47.257 138.294 C 47.030 135.095,46.810 134.558,46.856 137.319 M72.263 140.803 C 72.251 141.290,72.751 142.773,73.503 144.482 C 74.192 146.047,73.905 144.656,73.089 142.475 C 72.642 141.279,72.270 140.527,72.263 140.803 M47.522 142.284 C 47.492 143.250,47.644 143.861,48.654 146.823 C 49.265 148.616,49.113 147.638,48.212 143.980 C 47.815 142.370,47.540 141.695,47.522 142.284 M203.364 146.560 C 203.341 146.841,204.693 149.299,206.033 151.413 C 207.272 153.366,207.682 152.884,199.423 159.197 C 195.453 162.232,192.039 164.869,191.838 165.057 C 191.636 165.245,190.716 165.947,189.792 166.618 L 188.112 167.839 186.782 165.944 C 185.242 163.752,185.196 163.672,182.399 158.361 C 181.236 156.154,180.281 154.525,180.276 154.742 C 180.262 155.387,184.601 163.576,185.485 164.575 C 185.743 164.865,185.953 165.210,185.953 165.341 C 185.953 165.473,186.105 165.762,186.291 165.984 C 186.477 166.206,186.945 166.809,187.331 167.323 C 188.190 168.469,187.452 168.903,196.451 161.953 C 204.965 155.378,207.358 153.451,207.358 153.172 C 207.358 153.050,206.608 151.684,205.691 150.137 C 203.541 146.510,203.388 146.274,203.364 146.560 M74.582 146.914 C 74.582 147.171,76.021 149.794,77.143 151.582 C 77.574 152.268,77.926 152.964,77.926 153.128 C 77.926 153.292,74.069 156.418,69.355 160.075 C 64.641 163.731,60.469 166.974,60.083 167.282 C 59.168 168.012,59.107 167.960,56.969 164.646 C 54.281 160.479,52.227 156.241,49.710 149.666 C 49.388 148.824,49.192 148.582,49.181 149.013 C 49.172 149.390,49.289 149.842,49.442 150.017 C 49.595 150.191,49.909 151.012,50.140 151.839 C 51.093 155.251,57.489 166.958,58.872 167.821 C 59.446 168.180,59.286 168.293,70.714 159.430 C 72.566 157.994,74.943 156.188,75.997 155.417 C 78.526 153.564,78.587 153.264,76.948 150.669 C 76.199 149.482,75.580 148.395,75.575 148.252 C 75.561 147.931,74.582 146.611,74.582 146.914 M372.418 147.993 C 373.182 152.601,373.300 154.191,373.156 157.860 C 373.025 161.179,373.057 161.661,373.310 160.201 C 373.759 157.618,373.429 150.348,372.779 148.495 C 372.440 147.526,372.311 147.347,372.418 147.993 M177.931 148.188 C 177.937 148.694,178.630 150.782,178.977 151.338 C 179.092 151.522,179.290 152.160,179.418 152.755 C 179.546 153.351,179.815 153.940,180.016 154.064 C 180.261 154.216,180.297 154.079,180.126 153.650 C 179.985 153.298,179.498 151.884,179.043 150.508 C 178.192 147.928,177.923 147.368,177.931 148.188 M372.389 163.359 C 372.264 164.031,372.244 164.663,372.346 164.765 C 372.449 164.868,372.635 164.402,372.761 163.731 C 372.887 163.060,372.906 162.427,372.804 162.325 C 372.702 162.223,372.515 162.688,372.389 163.359 M371.251 166.976 C 370.827 167.940,370.244 169.256,369.956 169.900 C 368.932 172.195,365.824 176.243,363.173 178.737 C 361.692 180.131,360.605 181.266,360.758 181.260 C 361.310 181.240,366.463 176.054,367.387 174.589 C 367.907 173.766,368.529 172.894,368.771 172.653 C 369.162 172.262,369.799 171.007,371.744 166.794 C 372.065 166.098,372.260 165.459,372.176 165.375 C 372.092 165.291,371.676 166.012,371.251 166.976 M264.507 172.876 C 264.353 173.857,263.720 174.217,259.365 175.793 C 257.264 176.553,250.038 180.253,249.889 180.645 C 249.827 180.805,249.661 180.936,249.518 180.936 C 249.202 180.936,243.446 184.702,242.783 185.342 C 242.521 185.595,241.179 186.719,239.799 187.841 C 237.719 189.532,233.681 193.567,232.259 195.375 C 231.868 195.873,228.965 199.511,228.233 200.422 C 227.972 200.746,227.759 201.095,227.759 201.197 C 227.759 201.299,227.383 201.876,226.923 202.479 C 226.463 203.082,226.087 203.668,226.087 203.782 C 226.087 204.525,224.172 206.890,223.737 206.684 C 223.466 206.555,222.771 206.203,222.193 205.903 C 218.984 204.233,215.408 202.584,211.706 201.065 C 209.605 200.204,206.134 198.997,205.758 198.997 C 205.529 198.997,205.081 198.867,204.761 198.709 C 203.747 198.208,200.771 197.324,200.094 197.324 C 199.736 197.324,199.332 197.214,199.197 197.079 C 198.973 196.855,198.264 196.669,193.645 195.623 C 192.818 195.436,191.388 195.173,190.468 195.039 C 189.548 194.905,188.607 194.678,188.377 194.535 C 187.985 194.291,186.668 194.077,180.769 193.303 C 179.482 193.134,176.697 192.766,174.582 192.486 C 170.814 191.986,166.768 191.662,156.020 190.997 C 149.116 190.570,118.202 190.571,111.037 190.999 C 101.250 191.583,96.574 191.956,92.475 192.482 C 80.224 194.055,79.034 194.235,78.303 194.626 C 77.936 194.823,77.033 194.983,76.296 194.983 C 75.559 194.983,74.863 195.134,74.749 195.318 C 74.635 195.502,74.020 195.652,73.381 195.652 C 72.742 195.652,71.679 195.878,71.019 196.154 C 70.358 196.430,69.469 196.656,69.042 196.656 C 68.616 196.656,68.174 196.806,68.060 196.990 C 67.947 197.174,67.454 197.324,66.965 197.324 C 66.190 197.324,64.874 197.705,62.375 198.652 C 62.007 198.791,60.878 199.173,59.866 199.499 C 58.855 199.826,57.884 200.223,57.709 200.381 C 57.534 200.539,57.045 200.669,56.622 200.669 C 56.199 200.669,55.853 200.819,55.853 201.003 C 55.853 201.187,55.681 201.338,55.472 201.338 C 54.882 201.338,49.536 203.969,47.569 205.227 C 46.599 205.847,45.718 206.355,45.610 206.355 C 45.408 206.355,43.396 207.887,41.659 209.365 C 40.353 210.475,37.418 213.407,36.789 214.229 C 36.513 214.590,35.828 215.487,35.266 216.222 C 34.171 217.654,31.773 222.474,31.773 223.242 C 31.773 223.497,31.622 223.799,31.438 223.913 C 31.254 224.027,31.104 224.619,31.104 225.229 C 31.104 225.838,30.878 226.977,30.602 227.759 C 29.554 230.728,30.165 246.295,31.448 249.331 C 31.604 249.699,31.803 250.527,31.891 251.171 C 32.151 253.071,32.823 255.661,33.146 256.003 C 33.310 256.178,33.445 256.594,33.445 256.928 C 33.445 257.261,33.577 257.795,33.738 258.115 C 34.432 259.488,35.117 261.261,35.117 261.686 C 35.117 262.134,35.403 262.764,37.915 267.844 C 38.583 269.196,39.130 270.461,39.130 270.655 C 39.130 270.849,39.473 271.473,39.892 272.042 C 40.310 272.611,40.947 273.641,41.306 274.331 C 41.664 275.021,42.074 275.585,42.217 275.585 C 42.359 275.585,42.475 275.761,42.475 275.975 C 42.475 276.423,46.443 282.409,47.472 283.514 C 47.851 283.921,48.161 284.374,48.161 284.521 C 48.161 284.669,48.501 285.164,48.917 285.622 C 49.333 286.080,50.823 287.809,52.227 289.465 C 55.034 292.774,60.954 298.654,63.025 300.192 C 63.750 300.730,64.804 301.590,65.366 302.103 C 65.928 302.616,67.216 303.595,68.227 304.277 C 69.239 304.960,70.117 305.631,70.178 305.769 C 70.240 305.907,70.491 306.020,70.736 306.020 C 70.981 306.020,71.232 306.138,71.293 306.282 C 71.587 306.972,82.209 312.695,85.117 313.729 C 85.778 313.964,88.168 314.881,89.465 315.396 C 90.374 315.758,93.151 316.593,94.983 317.057 C 95.811 317.266,97.166 317.654,97.993 317.918 C 98.821 318.182,99.932 318.397,100.463 318.396 C 100.993 318.395,101.972 318.534,102.637 318.703 C 108.556 320.215,156.518 320.495,166.054 319.074 C 167.341 318.883,169.309 318.595,170.426 318.436 C 171.543 318.277,172.775 317.977,173.163 317.769 C 173.551 317.561,174.322 317.391,174.875 317.391 C 175.428 317.391,175.973 317.241,176.087 317.057 C 176.201 316.873,176.618 316.722,177.015 316.722 C 177.647 316.722,179.220 316.248,181.438 315.389 C 184.335 314.267,185.202 313.937,185.786 313.732 C 186.547 313.464,190.130 311.826,191.137 311.285 C 191.505 311.087,192.972 310.327,194.398 309.596 C 195.824 308.865,196.990 308.137,196.990 307.979 C 196.990 307.821,197.151 307.692,197.347 307.692 C 197.543 307.692,198.197 307.316,198.800 306.856 C 199.403 306.396,200.001 306.020,200.129 306.020 C 200.351 306.020,203.744 303.605,204.570 302.860 C 204.784 302.666,205.945 301.756,207.150 300.836 C 209.472 299.064,216.569 292.022,219.075 289.003 C 219.896 288.013,220.729 287.035,220.925 286.829 C 222.505 285.172,227.530 277.583,227.984 276.171 C 228.087 275.849,228.284 275.585,228.422 275.585 C 228.656 275.585,232.064 268.909,233.245 266.137 C 233.539 265.447,234.005 264.371,234.281 263.745 C 234.557 263.120,234.783 262.441,234.783 262.236 C 234.783 261.884,234.887 261.626,235.680 260.033 C 235.989 259.411,236.361 258.207,237.692 253.512 C 237.979 252.500,238.345 251.327,238.505 250.904 C 238.665 250.481,238.796 249.664,238.796 249.088 C 238.796 248.512,238.935 247.579,239.104 247.014 C 239.672 245.124,240.224 241.669,240.497 238.294 C 240.904 233.270,241.509 230.331,242.906 226.589 C 243.181 225.853,243.685 224.498,244.027 223.579 C 244.369 222.659,244.988 221.333,245.401 220.633 C 245.815 219.933,246.154 219.296,246.154 219.218 C 246.154 217.307,255.531 206.889,259.533 204.354 C 260.544 203.713,261.421 203.074,261.483 202.932 C 261.544 202.791,261.807 202.676,262.068 202.676 C 262.329 202.676,262.542 202.543,262.542 202.380 C 262.542 202.218,262.805 201.994,263.127 201.883 C 263.449 201.772,264.164 201.406,264.716 201.070 C 265.268 200.734,266.396 200.191,267.224 199.865 C 268.929 199.192,272.115 197.776,272.993 197.301 C 273.448 197.055,273.581 197.116,273.590 197.572 C 273.604 198.229,274.551 200.050,274.570 199.456 C 274.582 199.087,273.636 196.623,273.378 196.351 C 273.307 196.275,272.984 196.441,272.661 196.720 C 272.338 196.998,270.870 197.715,269.398 198.313 C 267.926 198.910,266.579 199.535,266.405 199.700 C 266.230 199.865,265.883 200.000,265.634 200.000 C 265.138 200.000,259.768 203.334,259.588 203.754 C 259.526 203.897,259.285 204.013,259.051 204.013 C 258.817 204.013,257.663 204.890,256.486 205.962 C 255.310 207.034,253.993 208.200,253.559 208.554 C 253.125 208.908,251.799 210.401,250.613 211.873 C 249.427 213.344,248.239 214.814,247.974 215.138 C 247.709 215.462,247.492 215.798,247.492 215.884 C 247.492 215.971,246.920 216.985,246.221 218.138 C 244.672 220.693,244.153 221.810,242.143 226.923 C 241.150 229.449,240.272 233.934,239.624 239.799 C 239.329 242.467,238.960 245.176,238.804 245.819 C 238.648 246.463,238.350 247.933,238.142 249.086 C 237.934 250.239,237.534 251.970,237.253 252.933 C 236.286 256.246,234.987 260.369,234.752 260.870 C 234.623 261.145,234.258 262.048,233.941 262.876 C 233.041 265.227,232.927 265.484,230.967 269.565 C 229.231 273.181,227.804 275.874,227.425 276.254 C 227.333 276.346,226.971 276.948,226.621 277.592 C 225.967 278.794,220.976 285.980,220.285 286.715 C 220.073 286.940,219.306 287.877,218.581 288.796 C 216.401 291.562,209.751 298.033,206.187 300.857 C 204.348 302.314,202.768 303.598,202.676 303.710 C 202.584 303.822,202.358 303.974,202.174 304.048 C 201.990 304.122,200.528 305.044,198.926 306.098 C 196.267 307.847,193.308 309.515,189.298 311.526 C 187.628 312.363,187.158 312.563,183.779 313.873 C 182.492 314.372,181.137 314.904,180.769 315.055 C 180.401 315.205,179.724 315.420,179.264 315.532 C 178.804 315.644,177.600 315.970,176.589 316.255 C 167.027 318.958,161.746 319.358,135.619 319.366 C 109.387 319.373,103.877 318.958,94.314 316.255 C 93.303 315.970,92.099 315.644,91.639 315.532 C 91.179 315.420,90.502 315.205,90.134 315.055 C 89.766 314.904,88.411 314.370,87.124 313.868 C 81.313 311.601,76.916 309.346,71.977 306.098 C 70.375 305.044,68.913 304.122,68.729 304.048 C 68.545 303.974,68.319 303.823,68.227 303.712 C 68.135 303.602,66.484 302.236,64.558 300.678 C 58.412 295.704,52.849 289.912,48.489 283.947 C 47.480 282.568,46.430 281.172,46.154 280.846 C 43.560 277.776,37.252 265.880,35.212 260.212 C 33.369 255.091,33.117 254.310,32.753 252.613 C 32.564 251.728,32.263 250.401,32.085 249.666 C 31.908 248.930,31.611 247.274,31.427 245.987 C 31.243 244.699,30.945 242.725,30.764 241.600 C 30.259 238.462,30.357 231.153,30.936 228.706 C 31.212 227.541,31.610 225.842,31.821 224.929 C 32.169 223.428,34.608 217.799,35.088 217.391 C 35.196 217.299,36.084 216.159,37.062 214.858 C 39.312 211.860,43.966 207.902,47.826 205.703 C 53.080 202.710,63.184 198.582,67.559 197.642 C 68.202 197.504,70.008 197.074,71.572 196.687 C 78.040 195.086,84.237 194.016,92.140 193.134 C 106.007 191.588,108.933 191.471,133.779 191.473 C 156.636 191.475,167.380 191.933,176.837 193.310 C 178.264 193.517,180.485 193.837,181.773 194.021 C 185.609 194.567,191.269 195.662,194.816 196.544 C 195.920 196.819,197.349 197.171,197.993 197.328 C 201.564 198.196,209.174 200.595,211.371 201.546 C 212.015 201.824,212.843 202.180,213.211 202.336 C 213.579 202.492,214.707 202.971,215.719 203.400 C 216.730 203.829,218.960 204.895,220.674 205.769 C 222.388 206.643,223.969 207.358,224.187 207.358 C 224.531 207.358,227.090 203.662,227.090 203.165 C 227.090 203.064,227.245 202.800,227.434 202.578 C 227.623 202.356,228.702 200.895,229.832 199.331 C 231.782 196.631,239.102 188.997,241.973 186.668 C 245.940 183.450,258.273 176.254,259.821 176.254 C 260.035 176.254,260.471 176.116,260.790 175.948 C 261.639 175.500,263.597 174.691,264.465 174.429 C 265.256 174.191,265.345 173.845,264.901 172.742 C 264.648 172.113,264.624 172.121,264.507 172.876 M359.373 181.709 C 359.009 181.928,357.956 182.563,357.032 183.121 C 356.107 183.678,353.545 184.709,351.338 185.410 C 346.511 186.945,346.385 186.993,347.659 186.816 C 351.027 186.349,359.250 182.873,360.050 181.578 C 360.288 181.194,360.197 181.211,359.373 181.709 M343.813 187.304 C 343.353 187.455,341.998 187.809,340.803 188.090 C 339.607 188.371,339.156 188.541,339.799 188.467 C 341.710 188.250,344.701 187.648,345.540 187.312 L 346.321 186.999 345.485 187.013 C 345.025 187.021,344.273 187.152,343.813 187.304 M336.455 188.963 C 335.797 189.389,336.970 189.389,337.960 188.963 C 338.572 188.700,338.558 188.674,337.793 188.657 C 337.333 188.647,336.731 188.785,336.455 188.963 M333.350 189.504 C 333.237 189.617,332.648 189.838,332.040 189.994 L 330.936 190.279 332.107 190.142 C 332.751 190.067,333.880 189.863,334.615 189.690 L 335.953 189.375 334.755 189.336 C 334.096 189.315,333.464 189.390,333.350 189.504 M327.926 190.725 C 324.069 191.704,323.262 191.958,324.415 191.827 C 326.051 191.641,330.495 190.687,330.706 190.476 C 330.975 190.207,329.417 190.347,327.926 190.725 M320.903 192.308 C 320.290 192.571,320.304 192.597,321.070 192.614 C 321.530 192.624,322.132 192.486,322.408 192.308 C 323.066 191.882,321.893 191.882,320.903 192.308 M317.391 192.992 C 316.931 193.145,315.678 193.444,314.606 193.655 C 313.534 193.867,312.743 194.126,312.848 194.231 C 313.033 194.415,315.046 194.027,318.562 193.130 C 319.822 192.808,319.987 192.704,319.231 192.708 C 318.679 192.711,317.851 192.839,317.391 192.992 M272.241 194.442 C 272.241 194.718,272.391 195.037,272.575 195.151 C 272.759 195.264,272.910 195.131,272.910 194.856 C 272.910 194.580,272.759 194.261,272.575 194.147 C 272.391 194.033,272.241 194.166,272.241 194.442 M309.197 194.739 C 305.394 195.704,304.541 195.970,305.686 195.833 C 307.260 195.645,309.973 195.084,311.204 194.691 C 312.646 194.232,311.044 194.270,309.197 194.739 M301.505 196.411 C 297.702 197.376,296.849 197.642,297.993 197.505 C 299.568 197.317,302.281 196.756,303.512 196.364 C 304.954 195.904,303.351 195.942,301.505 196.411 M294.147 198.004 C 293.595 198.157,291.940 198.531,290.468 198.836 C 287.369 199.479,285.348 200.117,287.291 199.838 C 287.935 199.746,289.139 199.519,289.967 199.333 C 290.794 199.147,292.375 198.826,293.478 198.620 C 295.618 198.220,297.050 197.659,295.819 197.703 C 295.452 197.716,294.699 197.852,294.147 198.004 M274.591 200.334 C 274.594 200.610,274.861 201.180,275.184 201.600 L 275.772 202.363 278.271 201.812 C 279.645 201.509,281.446 201.130,282.274 200.969 C 283.102 200.809,284.306 200.528,284.950 200.345 L 286.120 200.013 284.783 200.158 C 284.047 200.237,282.391 200.541,281.104 200.833 C 275.709 202.056,275.939 202.054,275.224 200.882 C 274.872 200.305,274.587 200.059,274.591 200.334 M123.746 215.392 C 114.502 215.644,107.491 216.226,99.164 217.432 C 97.692 217.645,95.585 217.933,94.482 218.072 C 91.892 218.398,89.090 218.890,85.953 219.571 C 84.574 219.871,82.768 220.241,81.940 220.395 C 81.112 220.549,79.532 220.922,78.428 221.225 C 77.324 221.528,75.895 221.898,75.251 222.049 C 69.265 223.444,56.784 228.694,56.270 230.032 C 55.752 231.384,62.382 234.652,71.237 237.408 C 73.721 238.182,76.215 238.960,76.780 239.139 C 77.344 239.318,78.128 239.465,78.520 239.465 C 78.912 239.465,79.578 239.603,80.001 239.772 C 83.044 240.987,100.735 243.838,109.365 244.504 C 123.023 245.558,148.659 245.719,158.271 244.811 C 173.470 243.376,183.381 241.799,193.980 239.128 C 196.437 238.508,205.920 235.397,207.358 234.738 C 208.186 234.359,209.390 233.812,210.033 233.524 C 216.420 230.660,216.097 229.797,207.191 225.920 C 203.400 224.270,193.525 221.258,189.130 220.411 C 188.395 220.269,186.137 219.829,184.114 219.432 C 178.287 218.289,177.321 218.126,173.244 217.593 C 161.484 216.055,157.092 215.699,145.819 215.373 C 140.393 215.216,135.050 215.106,133.946 215.128 C 132.843 215.150,128.253 215.269,123.746 215.392 M151.171 216.081 C 153.102 216.267,156.789 216.566,159.365 216.746 C 165.465 217.170,170.233 217.630,171.070 217.875 C 171.438 217.982,172.943 218.225,174.415 218.414 C 178.844 218.983,180.978 219.323,183.612 219.878 C 184.992 220.168,186.873 220.546,187.793 220.716 C 188.712 220.886,190.368 221.275,191.472 221.580 C 192.575 221.885,193.930 222.206,194.482 222.294 C 195.033 222.382,195.786 222.573,196.154 222.718 C 196.522 222.864,197.726 223.245,198.829 223.565 C 199.933 223.885,201.097 224.282,201.417 224.448 C 201.736 224.614,202.227 224.749,202.508 224.749 C 202.789 224.749,203.280 224.895,203.600 225.072 C 203.919 225.250,205.385 225.880,206.856 226.471 C 208.328 227.063,210.284 227.979,211.204 228.507 C 212.124 229.036,213.147 229.555,213.478 229.660 C 214.635 230.030,213.856 230.910,211.181 232.256 C 207.358 234.179,205.215 235.117,204.642 235.117 C 204.370 235.117,204.004 235.237,203.829 235.383 C 203.655 235.529,202.609 235.923,201.505 236.258 C 200.401 236.593,199.197 236.989,198.829 237.137 C 198.462 237.286,197.784 237.485,197.324 237.580 C 195.665 237.923,193.466 238.546,192.898 238.835 C 192.578 238.998,191.957 239.130,191.518 239.130 C 191.079 239.130,190.080 239.356,189.298 239.632 C 188.516 239.908,187.473 240.134,186.981 240.134 C 186.489 240.134,185.944 240.270,185.769 240.437 C 185.594 240.604,184.699 240.815,183.779 240.904 C 182.860 240.994,180.753 241.322,179.097 241.633 C 175.883 242.236,173.490 242.553,167.893 243.114 C 165.962 243.308,164.080 243.554,163.712 243.660 C 161.706 244.239,150.450 244.623,135.452 244.623 C 120.453 244.623,109.197 244.239,107.191 243.660 C 106.823 243.554,104.941 243.308,103.010 243.114 C 97.413 242.553,95.020 242.236,91.806 241.633 C 90.151 241.322,88.043 240.994,87.124 240.904 C 86.204 240.815,85.309 240.604,85.134 240.437 C 84.959 240.270,84.414 240.134,83.922 240.134 C 83.430 240.134,82.387 239.908,81.605 239.632 C 80.823 239.356,79.824 239.130,79.385 239.130 C 78.946 239.130,78.325 238.998,78.005 238.835 C 77.437 238.546,75.238 237.923,73.579 237.580 C 73.119 237.485,72.441 237.286,72.074 237.137 C 71.706 236.989,70.502 236.593,69.398 236.258 C 68.294 235.923,67.248 235.529,67.074 235.383 C 66.899 235.237,66.537 235.117,66.270 235.117 C 65.508 235.117,58.669 231.899,57.919 231.188 C 57.676 230.958,57.338 230.769,57.167 230.769 C 56.563 230.769,56.872 229.928,57.611 229.558 C 58.024 229.352,59.565 228.576,61.037 227.834 C 62.508 227.091,64.505 226.226,65.473 225.911 C 66.442 225.596,67.316 225.205,67.416 225.043 C 67.516 224.882,67.956 224.749,68.395 224.749 C 68.833 224.749,69.284 224.599,69.398 224.415 C 69.512 224.231,69.982 224.080,70.443 224.080 C 70.904 224.080,71.607 223.906,72.004 223.694 C 72.679 223.332,73.262 223.155,76.254 222.404 C 80.882 221.242,81.943 220.989,83.278 220.730 C 84.105 220.569,85.911 220.192,87.291 219.893 C 89.901 219.327,91.967 218.995,96.488 218.414 C 97.960 218.225,99.465 217.981,99.833 217.873 C 100.604 217.645,105.152 217.210,111.873 216.720 C 114.448 216.532,117.834 216.252,119.398 216.097 C 123.487 215.692,147.018 215.680,151.171 216.081 M62.542 260.426 C 62.542 263.286,72.917 276.446,78.843 281.104 C 79.312 281.472,80.313 282.286,81.068 282.912 C 82.525 284.121,86.764 286.957,87.115 286.957 C 87.229 286.957,88.136 287.476,89.129 288.112 C 98.518 294.118,106.393 295.311,136.622 295.307 C 161.187 295.304,167.169 294.813,172.742 292.343 C 173.110 292.180,174.841 291.472,176.589 290.770 C 178.336 290.069,180.709 288.923,181.862 288.225 C 183.015 287.528,184.034 286.957,184.127 286.957 C 185.859 286.957,197.587 276.734,201.010 272.241 C 201.641 271.413,202.241 270.661,202.344 270.569 C 203.213 269.790,208.146 262.074,208.513 260.918 C 208.780 260.076,208.294 259.773,207.299 260.161 C 206.872 260.328,205.619 260.727,204.515 261.048 C 203.411 261.369,202.207 261.745,201.839 261.884 C 201.238 262.110,197.368 263.090,193.813 263.916 C 186.973 265.505,175.968 267.278,169.231 267.876 C 167.483 268.031,164.398 268.314,162.375 268.505 C 147.442 269.915,118.926 269.793,105.272 268.263 C 103.568 268.072,100.443 267.752,98.328 267.552 C 93.777 267.122,89.688 266.505,82.609 265.180 C 79.355 264.571,71.393 262.689,69.460 262.073 C 68.690 261.827,67.157 261.370,66.054 261.058 C 64.950 260.745,63.708 260.353,63.294 260.185 C 62.697 259.943,62.542 259.993,62.542 260.426 M207.195 262.201 C 206.733 262.933,206.355 263.685,206.355 263.873 C 206.355 264.061,206.222 264.214,206.059 264.214 C 205.897 264.214,205.673 264.477,205.562 264.799 C 205.324 265.492,204.034 267.653,203.716 267.893 C 203.594 267.985,202.973 268.737,202.335 269.565 C 201.698 270.393,200.912 271.362,200.588 271.719 C 200.265 272.075,200.000 272.477,200.000 272.611 C 200.000 272.987,193.332 279.625,191.639 280.934 C 190.811 281.574,189.942 282.281,189.708 282.504 C 188.039 284.098,178.099 289.967,177.068 289.967 C 176.799 289.967,176.318 290.110,175.999 290.285 C 175.488 290.565,174.430 291.021,172.074 291.979 C 170.301 292.699,166.300 293.557,161.706 294.202 C 157.885 294.738,125.465 295.256,122.575 294.827 C 119.020 294.299,104.737 280.033,100.966 273.244 C 100.711 272.784,100.412 272.333,100.301 272.241 C 99.968 271.962,98.328 268.895,98.328 268.550 C 98.328 268.136,101.109 268.147,102.843 268.569 C 108.895 270.040,164.905 270.162,167.257 268.709 C 167.437 268.597,169.122 268.369,171.000 268.202 C 176.506 267.711,180.032 267.252,181.070 266.892 C 181.603 266.707,182.664 266.555,183.428 266.555 C 184.191 266.555,184.959 266.419,185.134 266.252 C 185.309 266.085,186.204 265.880,187.124 265.797 C 189.196 265.610,192.613 264.909,193.390 264.511 C 193.710 264.348,194.376 264.214,194.871 264.214 C 195.367 264.214,196.234 264.070,196.799 263.895 C 197.364 263.719,198.579 263.364,199.498 263.105 C 200.418 262.846,202.074 262.379,203.177 262.067 C 204.281 261.755,205.410 261.367,205.686 261.204 C 205.962 261.042,206.603 260.900,207.111 260.889 L 208.035 260.870 207.195 262.201 " stroke="none" fill="#aab6c2" fill-rule="evenodd"></path></g></svg>