<svg id="svg" version="1.1" xmlns="http://www.w3.org/2000/svg" xmlns:xlink="http://www.w3.org/1999/xlink" width="400" height="154.83870967741936" viewBox="0, 0, 400,154.83870967741936"><g id="svgg"><path id="path0" d="M0.000 77.419 L 0.000 154.839 200.000 154.839 L 400.000 154.839 400.000 77.419 L 400.000 0.000 200.000 0.000 L 0.000 0.000 0.000 77.419 M63.515 38.293 C 96.552 48.103,103.430 92.194,74.880 111.145 C 58.685 121.894,37.149 119.774,23.458 106.083 C -5.825 76.801,23.882 26.525,63.515 38.293 M211.068 40.647 C 242.398 55.533,242.210 99.457,210.753 114.409 C 182.277 127.944,148.700 102.616,153.776 71.429 C 158.169 44.437,186.739 29.086,211.068 40.647 M345.570 38.184 C 377.448 46.487,386.907 85.796,362.341 107.882 C 342.747 125.499,311.040 119.189,299.108 95.298 C 283.782 64.610,312.324 29.524,345.570 38.184 " stroke="none" fill="#000000" fill-rule="evenodd"></path></g></svg>