<svg id="svg" version="1.1" xmlns="http://www.w3.org/2000/svg" xmlns:xlink="http://www.w3.org/1999/xlink" width="400" height="403.77358490566036" viewBox="0, 0, 400,403.77358490566036"><g id="svgg"><path id="path0" d="M176.200 101.238 C 175.100 101.420,171.950 101.825,169.200 102.138 C 166.450 102.451,163.538 102.995,162.730 103.347 C 161.921 103.698,160.211 104.107,158.930 104.255 C 157.648 104.404,156.238 104.760,155.795 105.046 C 155.352 105.333,154.002 105.775,152.795 106.029 C 151.588 106.283,150.323 106.734,149.984 107.031 C 149.645 107.329,148.441 107.771,147.310 108.014 C 146.178 108.257,145.038 108.713,144.777 109.028 C 144.516 109.342,144.102 109.600,143.857 109.600 C 143.612 109.600,142.509 110.028,141.406 110.551 C 140.303 111.075,138.950 111.708,138.400 111.960 C 137.850 112.211,136.500 112.943,135.400 113.587 C 134.300 114.230,132.827 115.034,132.127 115.372 C 131.427 115.711,130.730 116.189,130.579 116.435 C 130.427 116.681,129.739 117.141,129.051 117.458 C 128.363 117.775,127.260 118.436,126.600 118.927 C 125.940 119.418,124.230 120.687,122.800 121.749 C 118.756 124.750,117.053 126.259,112.257 131.085 C 107.121 136.253,104.400 139.193,104.400 139.574 C 104.400 139.720,103.500 140.957,102.400 142.322 C 101.300 143.687,100.400 144.912,100.400 145.044 C 100.400 145.176,99.950 145.819,99.400 146.473 C 98.850 147.127,98.400 147.896,98.400 148.182 C 98.400 148.468,98.115 148.938,97.767 149.227 C 97.419 149.516,96.834 150.324,96.467 151.024 C 94.774 154.252,93.868 155.816,93.588 156.000 C 93.420 156.110,93.083 156.944,92.839 157.853 C 92.594 158.763,92.147 159.712,91.845 159.962 C 91.543 160.213,91.183 160.987,91.043 161.683 C 90.904 162.378,90.501 163.268,90.146 163.659 C 89.792 164.051,89.344 165.219,89.150 166.255 C 88.957 167.291,88.530 168.435,88.202 168.797 C 87.875 169.159,87.423 170.423,87.199 171.604 C 86.975 172.786,86.537 174.143,86.225 174.618 C 85.913 175.094,85.478 176.780,85.258 178.365 C 85.039 179.950,84.652 181.497,84.398 181.803 C 84.144 182.108,83.685 184.753,83.377 187.679 C 83.070 190.606,82.606 193.720,82.346 194.600 C 81.997 195.779,81.830 209.051,81.712 245.000 C 81.608 276.334,81.409 293.943,81.156 294.200 C 80.919 294.440,75.926 294.680,68.681 294.800 L 56.600 295.000 56.493 306.600 C 56.397 317.151,56.449 318.245,57.070 318.700 C 58.133 319.478,312.111 319.430,312.757 318.652 C 313.080 318.263,313.182 314.741,313.106 306.552 L 313.000 295.000 300.919 294.800 C 293.440 294.676,288.682 294.443,288.428 294.188 C 288.152 293.913,287.970 278.498,287.875 247.588 C 287.778 216.037,287.586 200.132,287.270 197.400 C 287.015 195.200,286.645 191.283,286.448 188.695 C 286.251 186.107,285.905 183.767,285.679 183.495 C 285.453 183.223,284.985 181.508,284.639 179.684 C 284.294 177.859,283.829 176.028,283.608 175.614 C 283.386 175.200,283.006 173.903,282.763 172.731 C 282.519 171.559,282.072 170.206,281.768 169.725 C 281.464 169.244,281.021 167.987,280.785 166.932 C 280.548 165.876,280.119 164.740,279.831 164.406 C 279.543 164.073,279.181 163.271,279.027 162.624 C 278.873 161.978,278.399 160.960,277.973 160.363 C 277.548 159.765,277.200 159.031,277.200 158.731 C 277.200 158.431,276.759 157.537,276.221 156.744 C 275.682 155.952,275.122 154.830,274.977 154.251 C 274.832 153.673,274.573 153.200,274.402 153.200 C 274.231 153.200,273.785 152.555,273.411 151.767 C 272.764 150.404,271.215 147.889,270.460 146.975 C 270.266 146.741,269.879 146.111,269.600 145.575 C 269.320 145.039,268.801 144.298,268.446 143.929 C 268.091 143.561,267.350 142.601,266.800 141.798 C 265.518 139.925,262.002 135.675,259.863 133.414 C 258.949 132.447,257.999 131.418,257.754 131.128 C 257.127 130.386,252.154 125.977,250.000 124.254 C 248.128 122.755,247.658 122.396,245.000 120.428 C 244.120 119.776,242.926 118.877,242.346 118.429 C 241.766 117.981,240.821 117.436,240.246 117.217 C 239.671 116.999,239.200 116.649,239.200 116.441 C 239.200 116.233,238.584 115.859,237.832 115.611 C 237.080 115.362,236.270 114.925,236.033 114.640 C 235.659 114.189,232.870 112.722,229.600 111.254 C 229.050 111.008,228.330 110.649,228.000 110.457 C 226.380 109.515,222.849 108.067,221.626 107.843 C 220.871 107.704,219.971 107.343,219.626 107.040 C 219.282 106.738,218.012 106.283,216.805 106.029 C 215.598 105.775,214.248 105.333,213.805 105.046 C 213.362 104.760,211.934 104.402,210.632 104.251 C 209.329 104.100,207.520 103.648,206.612 103.246 C 205.648 102.820,203.384 102.397,201.180 102.231 C 199.101 102.075,195.891 101.689,194.048 101.373 C 190.420 100.753,179.627 100.671,176.200 101.238 M193.791 126.020 C 197.557 126.276,200.093 126.631,200.619 126.976 C 201.080 127.278,202.524 127.649,203.828 127.800 C 205.133 127.952,206.838 128.397,207.618 128.789 C 208.399 129.181,209.788 129.629,210.707 129.784 C 211.625 129.939,212.787 130.383,213.288 130.771 C 213.790 131.159,214.800 131.592,215.532 131.734 C 216.265 131.877,217.325 132.355,217.886 132.796 C 218.448 133.238,219.219 133.600,219.600 133.600 C 219.981 133.600,220.758 133.966,221.327 134.414 C 221.897 134.862,222.911 135.420,223.581 135.653 C 224.252 135.887,224.800 136.242,224.800 136.442 C 224.800 136.643,225.520 137.095,226.400 137.447 C 227.280 137.799,228.000 138.218,228.000 138.379 C 228.000 138.540,228.443 138.873,228.984 139.120 C 229.526 139.367,230.291 139.853,230.684 140.200 C 231.078 140.547,232.660 141.832,234.200 143.054 C 238.074 146.129,240.605 148.576,243.496 152.040 C 244.855 153.668,246.334 155.379,246.783 155.842 C 247.233 156.305,247.600 156.868,247.600 157.093 C 247.600 157.318,247.881 157.735,248.225 158.021 C 248.568 158.306,249.426 159.453,250.130 160.570 C 250.833 161.686,251.637 162.960,251.915 163.400 C 252.193 163.840,252.775 164.920,253.210 165.800 C 253.644 166.680,254.270 167.749,254.600 168.176 C 254.930 168.604,255.200 169.254,255.200 169.623 C 255.200 169.991,255.543 170.728,255.961 171.260 C 256.380 171.793,256.916 172.942,257.152 173.814 C 257.387 174.686,257.828 175.760,258.131 176.200 C 258.434 176.640,258.802 177.772,258.948 178.715 C 259.094 179.658,259.571 181.095,260.007 181.909 C 260.443 182.722,260.800 184.050,260.800 184.858 C 260.800 185.667,261.200 187.470,261.689 188.864 L 262.577 191.400 262.699 242.598 C 262.813 290.602,262.778 293.827,262.134 294.298 C 261.263 294.934,109.495 295.045,107.826 294.410 L 106.800 294.020 106.804 247.110 C 106.808 200.161,107.056 189.491,108.182 187.772 C 108.480 187.316,108.849 185.876,109.000 184.572 C 109.152 183.267,109.591 181.570,109.977 180.800 C 110.362 180.030,110.810 178.680,110.972 177.800 C 111.135 176.920,111.589 175.660,111.982 175.000 C 112.375 174.340,112.822 173.274,112.973 172.632 C 113.125 171.989,113.598 171.020,114.025 170.478 C 114.451 169.936,114.800 169.191,114.800 168.824 C 114.800 168.456,115.250 167.545,115.800 166.800 C 116.350 166.055,116.800 165.237,116.800 164.984 C 116.800 164.731,117.150 164.207,117.577 163.821 C 118.005 163.434,118.469 162.597,118.609 161.961 C 118.748 161.325,119.092 160.669,119.373 160.502 C 119.654 160.336,120.103 159.781,120.372 159.270 C 120.641 158.758,121.121 158.038,121.438 157.670 C 121.756 157.301,123.048 155.734,124.308 154.187 C 126.792 151.137,127.564 150.267,129.400 148.441 C 133.753 144.113,137.770 140.800,138.666 140.800 C 138.960 140.800,139.200 140.552,139.200 140.249 C 139.200 139.945,139.727 139.479,140.371 139.212 C 141.015 138.945,141.633 138.490,141.744 138.201 C 141.855 137.912,142.479 137.558,143.131 137.415 C 143.784 137.272,144.634 136.805,145.021 136.377 C 145.407 135.950,145.931 135.600,146.184 135.600 C 146.437 135.600,147.255 135.150,148.000 134.600 C 148.745 134.050,149.656 133.600,150.024 133.600 C 150.391 133.600,151.128 133.257,151.660 132.839 C 152.193 132.420,153.342 131.884,154.214 131.648 C 155.086 131.413,156.169 130.960,156.620 130.643 C 157.072 130.326,158.152 129.934,159.020 129.772 C 159.889 129.610,161.230 129.162,162.000 128.777 C 162.770 128.391,164.467 127.952,165.772 127.800 C 167.076 127.649,168.535 127.268,169.014 126.954 C 170.699 125.850,183.948 125.350,193.791 126.020 M147.500 347.232 C 146.481 347.825,146.417 370.567,147.433 370.957 C 148.260 371.275,221.340 371.275,222.167 370.957 C 222.934 370.663,223.136 348.976,222.386 347.574 C 221.908 346.681,149.018 346.348,147.500 347.232 " stroke="none" fill="#0a0a0a" fill-rule="evenodd"></path><path id="path1" d="M0.000 201.800 L 0.000 403.600 200.000 403.600 L 400.000 403.600 400.000 201.800 L 400.000 0.000 200.000 0.000 L 0.000 0.000 0.000 201.800 M328.397 23.386 C 328.949 23.665,330.346 24.115,331.501 24.387 C 332.657 24.658,333.683 25.011,333.782 25.170 C 333.880 25.330,335.105 26.041,336.503 26.751 C 337.900 27.460,339.574 28.496,340.222 29.054 C 340.870 29.611,341.957 30.547,342.638 31.133 C 344.540 32.772,347.574 36.670,348.878 39.149 C 349.524 40.377,350.203 41.566,350.387 41.791 C 350.571 42.016,350.929 43.010,351.181 44.000 C 351.434 44.990,351.924 46.520,352.271 47.400 C 353.312 50.043,353.188 59.490,352.071 62.702 C 351.592 64.077,351.200 65.410,351.200 65.663 C 351.200 70.152,342.444 80.023,335.000 83.927 C 326.951 88.149,312.719 88.108,306.214 83.846 C 305.672 83.491,305.051 83.200,304.835 83.200 C 304.134 83.200,299.052 79.193,297.059 77.069 C 293.544 73.322,291.460 69.746,289.559 64.200 C 288.155 60.101,288.118 48.844,289.500 45.849 C 289.995 44.776,290.400 43.643,290.400 43.332 C 290.400 39.460,299.092 29.630,305.400 26.367 C 306.280 25.912,307.450 25.286,308.000 24.976 C 308.550 24.666,309.321 24.409,309.713 24.406 C 310.105 24.403,311.095 24.098,311.913 23.730 C 314.822 22.419,326.019 22.185,328.397 23.386 M199.200 100.381 C 199.750 100.691,202.117 101.167,204.459 101.437 C 206.802 101.707,209.142 102.193,209.659 102.517 C 210.177 102.840,211.565 103.210,212.744 103.339 C 213.923 103.467,215.508 103.939,216.267 104.386 C 217.025 104.834,218.094 105.200,218.641 105.200 C 219.189 105.200,220.482 105.650,221.515 106.200 C 222.548 106.750,223.776 107.200,224.243 107.200 C 224.710 107.200,225.536 107.549,226.078 107.975 C 226.620 108.402,227.589 108.879,228.232 109.036 C 228.874 109.193,229.813 109.642,230.319 110.033 C 230.824 110.425,231.767 110.861,232.414 111.003 C 233.061 111.145,233.703 111.443,233.839 111.664 C 233.976 111.885,234.878 112.405,235.844 112.819 C 236.810 113.233,237.600 113.744,237.600 113.955 C 237.600 114.166,238.214 114.541,238.965 114.788 C 239.715 115.036,240.430 115.500,240.552 115.819 C 240.675 116.139,241.109 116.400,241.518 116.400 C 241.926 116.400,242.683 116.850,243.200 117.400 C 243.717 117.950,244.368 118.400,244.647 118.400 C 244.926 118.400,245.390 118.731,245.677 119.137 C 245.965 119.542,246.650 120.109,247.200 120.396 C 247.750 120.684,248.290 121.038,248.400 121.183 C 248.510 121.328,249.050 121.754,249.600 122.130 C 251.394 123.358,260.800 132.135,260.800 132.582 C 260.800 132.699,262.060 134.069,263.600 135.628 C 265.140 137.186,266.400 138.603,266.400 138.776 C 266.400 138.949,266.943 139.790,267.606 140.645 C 268.270 141.500,269.086 142.560,269.420 143.000 C 269.754 143.440,270.561 144.500,271.214 145.355 C 271.866 146.210,272.400 147.096,272.400 147.324 C 272.400 147.551,272.687 148.054,273.037 148.441 C 273.717 149.192,274.750 150.950,275.808 153.158 C 276.166 153.905,276.716 154.773,277.029 155.086 C 277.342 155.400,277.713 156.138,277.853 156.728 C 277.993 157.318,278.331 158.070,278.603 158.400 C 278.876 158.730,279.324 159.720,279.600 160.600 C 279.876 161.480,280.335 162.470,280.621 162.800 C 280.906 163.130,281.359 164.300,281.626 165.400 C 281.894 166.500,282.342 167.670,282.623 168.000 C 282.903 168.330,283.259 169.320,283.415 170.200 C 283.570 171.080,284.014 172.340,284.400 173.000 C 284.786 173.660,285.226 175.349,285.377 176.754 C 285.528 178.158,285.940 179.747,286.292 180.284 C 286.696 180.900,287.045 182.716,287.237 185.191 C 287.404 187.352,287.868 189.993,288.268 191.060 C 288.954 192.890,289.002 195.841,289.117 243.300 L 289.240 293.600 301.040 293.600 C 310.905 293.600,313.036 293.701,314.036 294.219 L 315.233 294.837 315.116 307.202 C 315.005 319.026,314.965 319.593,314.200 320.170 C 312.915 321.141,55.955 321.110,55.149 320.139 C 54.226 319.028,54.129 295.123,55.045 294.362 C 55.582 293.916,58.286 293.759,68.161 293.600 L 80.600 293.400 80.800 241.800 C 80.963 199.660,81.099 189.980,81.540 189.000 C 81.837 188.340,82.331 185.930,82.637 183.645 C 82.943 181.360,83.382 179.263,83.612 178.985 C 83.843 178.707,84.215 177.337,84.438 175.940 C 84.662 174.543,85.195 172.805,85.623 172.077 C 86.050 171.350,86.400 170.306,86.400 169.759 C 86.400 169.211,86.850 167.918,87.400 166.885 C 87.950 165.852,88.400 164.624,88.400 164.157 C 88.400 163.690,88.749 162.864,89.175 162.322 C 89.602 161.780,90.079 160.811,90.236 160.168 C 90.393 159.526,90.842 158.587,91.233 158.081 C 91.625 157.576,92.061 156.633,92.203 155.986 C 92.345 155.339,92.643 154.697,92.864 154.561 C 93.085 154.424,93.605 153.522,94.019 152.556 C 94.433 151.590,94.944 150.800,95.155 150.800 C 95.366 150.800,95.746 150.170,96.000 149.400 C 96.254 148.630,96.601 148.000,96.770 148.000 C 96.940 148.000,97.398 147.291,97.789 146.424 C 98.180 145.557,98.748 144.752,99.050 144.636 C 99.353 144.520,99.600 144.160,99.600 143.835 C 99.600 143.511,99.931 143.010,100.337 142.723 C 100.742 142.435,101.308 141.750,101.596 141.200 C 103.744 137.092,118.587 122.355,122.700 120.246 C 123.415 119.879,124.000 119.400,124.000 119.180 C 124.000 118.960,124.405 118.600,124.900 118.380 C 125.746 118.004,127.607 116.767,129.381 115.401 C 129.811 115.071,130.370 114.800,130.623 114.800 C 130.876 114.800,131.569 114.350,132.162 113.800 C 132.756 113.250,133.478 112.800,133.767 112.800 C 134.056 112.800,134.721 112.469,135.246 112.064 C 135.771 111.659,136.818 111.117,137.574 110.859 C 138.330 110.601,139.230 110.146,139.574 109.849 C 139.918 109.551,140.726 109.182,141.368 109.029 C 142.011 108.876,142.980 108.402,143.522 107.975 C 144.064 107.549,144.890 107.200,145.357 107.200 C 145.824 107.200,147.052 106.750,148.085 106.200 C 149.118 105.650,150.445 105.200,151.034 105.200 C 151.624 105.200,152.699 104.833,153.425 104.384 C 154.151 103.936,155.702 103.467,156.872 103.342 C 158.043 103.217,159.720 102.785,160.600 102.383 C 161.480 101.980,163.730 101.527,165.600 101.374 C 167.470 101.222,169.360 100.903,169.800 100.664 C 171.947 99.500,197.212 99.257,199.200 100.381 M175.000 127.192 C 174.120 127.380,172.907 127.723,172.304 127.955 C 171.702 128.187,169.992 128.495,168.504 128.640 C 167.017 128.785,165.057 129.235,164.150 129.639 C 163.242 130.044,161.712 130.497,160.750 130.648 C 159.787 130.798,158.582 131.244,158.072 131.640 C 157.561 132.036,156.358 132.477,155.399 132.621 C 154.439 132.765,153.561 133.125,153.448 133.420 C 153.334 133.716,152.467 134.166,151.521 134.420 C 150.574 134.675,149.710 135.020,149.600 135.188 C 149.490 135.355,148.680 135.883,147.800 136.361 C 146.920 136.839,145.480 137.661,144.600 138.187 C 143.720 138.714,142.460 139.454,141.800 139.832 C 141.140 140.210,140.365 140.852,140.077 141.260 C 139.790 141.667,139.370 142.000,139.145 142.000 C 137.915 142.000,130.172 149.261,125.933 154.390 C 121.492 159.764,120.686 160.911,118.178 165.437 C 117.336 166.957,116.520 168.290,116.365 168.400 C 116.210 168.510,115.879 169.359,115.630 170.287 C 115.380 171.214,114.913 172.121,114.592 172.300 C 114.271 172.480,113.848 173.483,113.653 174.528 C 113.458 175.573,113.025 176.737,112.692 177.114 C 112.360 177.491,111.956 178.610,111.796 179.600 C 111.636 180.590,111.233 181.933,110.899 182.584 C 110.565 183.235,110.068 185.305,109.794 187.184 C 109.520 189.063,109.003 191.687,108.646 193.016 C 108.061 195.193,108.007 200.278,108.098 244.416 L 108.200 293.400 184.871 293.501 L 261.542 293.602 261.806 291.488 C 262.416 286.607,261.756 195.496,261.099 193.800 C 260.757 192.920,260.273 190.499,260.021 188.419 C 259.770 186.340,259.397 184.437,259.193 184.192 C 258.989 183.946,258.539 182.523,258.192 181.030 C 257.846 179.537,257.323 177.929,257.030 177.458 C 256.737 176.986,256.387 176.000,256.252 175.268 C 256.117 174.535,255.645 173.475,255.204 172.914 C 254.762 172.352,254.400 171.662,254.400 171.380 C 254.400 171.098,253.767 169.727,252.993 168.334 C 252.219 166.940,251.219 165.080,250.771 164.200 C 250.322 163.320,249.420 161.880,248.765 161.000 C 248.111 160.120,247.270 158.950,246.897 158.400 C 246.524 157.850,246.123 157.310,246.007 157.200 C 245.891 157.090,245.309 156.347,244.715 155.549 C 242.061 151.986,232.055 142.492,230.300 141.872 C 229.915 141.736,229.600 141.443,229.600 141.221 C 229.600 140.998,228.925 140.441,228.100 139.982 C 227.275 139.522,225.880 138.716,225.000 138.188 C 224.120 137.661,222.680 136.839,221.800 136.361 C 220.920 135.883,220.110 135.355,220.000 135.188 C 219.890 135.020,219.056 134.683,218.147 134.439 C 217.237 134.194,216.274 133.730,216.006 133.408 C 215.739 133.085,214.863 132.710,214.060 132.573 C 213.257 132.437,212.150 132.011,211.600 131.628 C 211.050 131.244,209.813 130.805,208.850 130.652 C 207.888 130.500,206.358 130.044,205.450 129.639 C 204.543 129.235,202.568 128.784,201.062 128.637 C 199.556 128.490,197.576 128.082,196.662 127.729 C 194.761 126.996,177.882 126.578,175.000 127.192 M222.735 345.237 C 224.647 345.904,224.827 347.238,224.706 359.866 L 224.600 371.000 223.200 371.705 C 221.307 372.658,147.012 372.606,145.861 371.651 C 145.273 371.162,145.200 369.756,145.200 358.827 C 145.200 345.706,145.241 345.423,147.200 345.083 C 149.599 344.666,221.517 344.813,222.735 345.237 " stroke="none" fill="#fbfbfb" fill-rule="evenodd"></path><path id="path2" d="M316.400 23.154 C 315.410 23.320,313.739 23.758,312.686 24.128 C 311.633 24.497,310.437 24.800,310.027 24.800 C 308.150 24.800,301.284 29.173,298.033 32.438 C 296.181 34.299,293.297 38.194,292.682 39.664 C 292.352 40.455,291.895 41.217,291.668 41.358 C 291.440 41.499,291.029 42.646,290.754 43.907 C 290.478 45.168,289.971 46.642,289.627 47.182 C 288.687 48.655,288.721 60.877,289.669 62.614 C 290.033 63.281,290.454 64.541,290.603 65.414 C 290.753 66.286,291.218 67.488,291.637 68.084 C 292.057 68.680,292.400 69.319,292.400 69.504 C 292.400 71.164,299.152 78.950,302.333 80.958 C 303.213 81.513,304.049 82.155,304.190 82.384 C 304.331 82.613,304.762 82.800,305.146 82.800 C 305.530 82.800,306.455 83.250,307.200 83.800 C 307.945 84.350,308.982 84.800,309.504 84.800 C 310.025 84.800,311.385 85.205,312.526 85.700 C 314.372 86.501,315.259 86.600,320.600 86.600 C 325.941 86.600,326.828 86.501,328.674 85.700 C 329.815 85.205,331.175 84.800,331.696 84.800 C 332.218 84.800,333.255 84.350,334.000 83.800 C 334.745 83.250,335.602 82.800,335.904 82.800 C 337.237 82.800,343.749 77.176,346.222 73.888 C 351.505 66.865,354.171 54.519,351.813 48.000 C 351.455 47.010,350.996 45.465,350.794 44.567 C 350.417 42.892,347.201 36.828,346.046 35.612 C 345.691 35.239,344.577 34.048,343.572 32.967 C 340.675 29.849,338.732 28.413,334.059 25.935 C 332.882 25.311,331.605 24.800,331.222 24.800 C 330.839 24.800,329.462 24.432,328.163 23.982 C 325.558 23.080,319.421 22.648,316.400 23.154 " stroke="none" fill="#fc1f1e" fill-rule="evenodd"></path><path id="path3" d="M319.500 22.689 C 320.215 22.778,321.385 22.778,322.100 22.689 C 322.815 22.601,322.230 22.528,320.800 22.528 C 319.370 22.528,318.785 22.601,319.500 22.689 M312.800 23.395 C 312.250 23.707,310.858 24.163,309.707 24.408 C 308.556 24.653,307.513 25.017,307.390 25.216 C 307.267 25.414,306.409 25.941,305.483 26.386 C 299.372 29.322,290.400 39.402,290.400 43.332 C 290.400 43.643,289.995 44.776,289.500 45.849 C 288.118 48.844,288.155 60.101,289.559 64.200 C 291.460 69.746,293.544 73.322,297.059 77.069 C 299.151 79.299,304.139 83.194,304.921 83.209 C 305.185 83.214,305.850 83.570,306.400 84.000 C 306.950 84.430,307.660 84.786,307.978 84.791 C 308.295 84.796,307.945 84.350,307.200 83.800 C 306.455 83.250,305.530 82.800,305.146 82.800 C 304.762 82.800,304.331 82.613,304.190 82.384 C 304.049 82.155,303.213 81.513,302.333 80.958 C 299.152 78.950,292.400 71.164,292.400 69.504 C 292.400 69.319,292.057 68.680,291.637 68.084 C 291.218 67.488,290.753 66.286,290.603 65.414 C 290.454 64.541,290.033 63.281,289.669 62.614 C 288.721 60.877,288.687 48.655,289.627 47.182 C 289.971 46.642,290.478 45.168,290.754 43.907 C 291.029 42.646,291.440 41.499,291.668 41.358 C 291.895 41.217,292.352 40.455,292.682 39.664 C 293.297 38.194,296.181 34.299,298.033 32.438 C 301.284 29.173,308.150 24.800,310.027 24.800 C 310.437 24.800,311.633 24.497,312.686 24.128 C 313.739 23.758,315.410 23.332,316.400 23.181 L 318.200 22.907 316.000 22.868 C 314.766 22.846,313.361 23.077,312.800 23.395 M325.200 23.214 C 326.190 23.390,327.788 23.818,328.750 24.167 C 329.713 24.515,330.820 24.800,331.210 24.800 C 331.600 24.800,332.882 25.311,334.059 25.935 C 338.732 28.413,340.675 29.849,343.572 32.967 C 344.577 34.048,345.691 35.239,346.046 35.612 C 347.201 36.828,350.417 42.892,350.794 44.567 C 350.996 45.465,351.455 47.010,351.813 48.000 C 354.171 54.519,351.505 66.865,346.222 73.888 C 343.749 77.176,337.237 82.800,335.904 82.800 C 335.602 82.800,334.745 83.250,334.000 83.800 C 333.255 84.350,332.224 84.800,331.709 84.800 C 331.195 84.800,330.105 85.095,329.287 85.456 C 328.469 85.817,327.080 86.245,326.200 86.406 L 324.600 86.700 325.970 86.750 C 330.237 86.906,338.737 82.512,343.624 77.624 C 347.038 74.211,351.200 67.639,351.200 65.663 C 351.200 65.410,351.592 64.077,352.071 62.702 C 353.188 59.490,353.312 50.043,352.271 47.400 C 351.924 46.520,351.434 44.990,351.181 44.000 C 350.929 43.010,350.571 42.016,350.387 41.791 C 350.203 41.566,349.524 40.377,348.878 39.149 C 347.574 36.670,344.540 32.772,342.638 31.133 C 341.957 30.547,340.870 29.611,340.222 29.054 C 339.574 28.496,337.900 27.460,336.503 26.751 C 335.105 26.041,333.880 25.330,333.782 25.170 C 333.683 25.011,332.657 24.658,331.501 24.387 C 330.346 24.115,328.914 23.647,328.320 23.346 C 327.726 23.046,326.376 22.821,325.320 22.847 L 323.400 22.894 325.200 23.214 M311.149 85.820 C 312.562 86.363,314.433 86.776,315.349 86.747 L 317.000 86.693 315.200 86.406 C 314.210 86.248,312.731 85.823,311.913 85.460 C 311.095 85.097,310.015 84.809,309.513 84.820 C 308.975 84.831,309.647 85.242,311.149 85.820 M319.111 87.093 C 320.051 87.178,321.491 87.177,322.311 87.091 C 323.130 87.005,322.360 86.936,320.600 86.937 C 318.840 86.939,318.170 87.009,319.111 87.093 M172.600 99.952 C 171.500 100.105,170.240 100.426,169.800 100.664 C 169.360 100.903,167.470 101.222,165.600 101.374 C 163.730 101.527,161.480 101.980,160.600 102.383 C 159.720 102.785,158.043 103.217,156.872 103.342 C 155.702 103.467,154.151 103.936,153.425 104.384 C 152.699 104.833,151.624 105.200,151.034 105.200 C 150.445 105.200,149.118 105.650,148.085 106.200 C 147.052 106.750,145.824 107.200,145.357 107.200 C 144.890 107.200,144.064 107.549,143.522 107.975 C 142.980 108.402,142.011 108.876,141.368 109.029 C 140.726 109.182,139.918 109.551,139.574 109.849 C 139.230 110.146,138.330 110.601,137.574 110.859 C 136.818 111.117,135.771 111.659,135.246 112.064 C 134.721 112.469,134.056 112.800,133.767 112.800 C 133.478 112.800,132.756 113.250,132.162 113.800 C 131.569 114.350,130.876 114.800,130.623 114.800 C 130.370 114.800,129.811 115.071,129.381 115.401 C 127.607 116.767,125.746 118.004,124.900 118.380 C 124.405 118.600,124.000 118.960,124.000 119.180 C 124.000 119.400,123.415 119.879,122.700 120.246 C 118.587 122.355,103.744 137.092,101.596 141.200 C 101.308 141.750,100.742 142.435,100.337 142.723 C 99.931 143.010,99.600 143.511,99.600 143.835 C 99.600 144.160,99.353 144.520,99.050 144.636 C 98.748 144.752,98.180 145.557,97.789 146.424 C 97.398 147.291,96.940 148.000,96.770 148.000 C 96.601 148.000,96.254 148.630,96.000 149.400 C 95.746 150.170,95.366 150.800,95.155 150.800 C 94.944 150.800,94.433 151.590,94.019 152.556 C 93.605 153.522,93.085 154.424,92.864 154.561 C 92.643 154.697,92.345 155.339,92.203 155.986 C 92.061 156.633,91.625 157.576,91.233 158.081 C 90.842 158.587,90.393 159.526,90.236 160.168 C 90.079 160.811,89.602 161.780,89.175 162.322 C 88.749 162.864,88.400 163.690,88.400 164.157 C 88.400 164.624,87.950 165.852,87.400 166.885 C 86.850 167.918,86.400 169.211,86.400 169.759 C 86.400 170.306,86.050 171.350,85.623 172.077 C 85.195 172.805,84.662 174.543,84.438 175.940 C 84.215 177.337,83.843 178.707,83.612 178.985 C 83.382 179.263,82.943 181.360,82.637 183.645 C 82.331 185.930,81.837 188.340,81.540 189.000 C 81.099 189.980,80.963 199.660,80.800 241.800 L 80.600 293.400 68.161 293.600 C 58.286 293.759,55.582 293.916,55.045 294.362 C 54.129 295.123,54.226 319.028,55.149 320.139 C 55.955 321.110,312.915 321.141,314.200 320.170 C 314.965 319.593,315.005 319.026,315.116 307.202 L 315.233 294.837 314.036 294.219 C 313.036 293.701,310.905 293.600,301.040 293.600 L 289.240 293.600 289.117 243.300 C 289.002 195.841,288.954 192.890,288.268 191.060 C 287.868 189.993,287.404 187.352,287.237 185.191 C 287.045 182.716,286.696 180.900,286.292 180.284 C 285.940 179.747,285.528 178.158,285.377 176.754 C 285.226 175.349,284.786 173.660,284.400 173.000 C 284.014 172.340,283.570 171.080,283.415 170.200 C 283.259 169.320,282.903 168.330,282.623 168.000 C 282.342 167.670,281.894 166.500,281.626 165.400 C 281.359 164.300,280.906 163.130,280.621 162.800 C 280.335 162.470,279.876 161.480,279.600 160.600 C 279.324 159.720,278.876 158.730,278.603 158.400 C 278.331 158.070,277.993 157.318,277.853 156.728 C 277.713 156.138,277.342 155.400,277.029 155.086 C 276.716 154.773,276.166 153.905,275.808 153.158 C 274.750 150.950,273.717 149.192,273.037 148.441 C 272.687 148.054,272.400 147.551,272.400 147.324 C 272.400 147.096,271.866 146.210,271.214 145.355 C 270.561 144.500,269.754 143.440,269.420 143.000 C 269.086 142.560,268.270 141.500,267.606 140.645 C 266.943 139.790,266.400 138.949,266.400 138.776 C 266.400 138.603,265.140 137.186,263.600 135.628 C 262.060 134.069,260.800 132.699,260.800 132.582 C 260.800 132.135,251.394 123.358,249.600 122.130 C 249.050 121.754,248.510 121.328,248.400 121.183 C 248.290 121.038,247.750 120.684,247.200 120.396 C 246.650 120.109,245.965 119.542,245.677 119.137 C 245.390 118.731,244.926 118.400,244.647 118.400 C 244.368 118.400,243.717 117.950,243.200 117.400 C 242.683 116.850,241.926 116.400,241.518 116.400 C 241.109 116.400,240.675 116.139,240.552 115.819 C 240.430 115.500,239.715 115.036,238.965 114.788 C 238.214 114.541,237.600 114.166,237.600 113.955 C 237.600 113.744,236.810 113.233,235.844 112.819 C 234.878 112.405,233.976 111.885,233.839 111.664 C 233.703 111.443,233.061 111.145,232.414 111.003 C 231.767 110.861,230.824 110.425,230.319 110.033 C 229.813 109.642,228.874 109.193,228.232 109.036 C 227.589 108.879,226.620 108.402,226.078 107.975 C 225.536 107.549,224.710 107.200,224.243 107.200 C 223.776 107.200,222.548 106.750,221.515 106.200 C 220.482 105.650,219.189 105.200,218.641 105.200 C 218.094 105.200,217.025 104.834,216.267 104.386 C 215.508 103.939,213.923 103.467,212.744 103.339 C 211.565 103.210,210.177 102.840,209.659 102.517 C 209.142 102.193,206.802 101.707,204.459 101.437 C 202.117 101.167,199.750 100.691,199.200 100.381 C 198.098 99.758,176.497 99.410,172.600 99.952 M197.310 100.994 C 198.698 101.316,201.176 101.697,202.817 101.842 C 204.458 101.987,206.368 102.335,207.062 102.617 C 207.756 102.898,209.376 103.340,210.662 103.599 C 213.650 104.201,223.846 107.633,225.800 108.694 C 226.240 108.933,227.680 109.611,229.000 110.200 C 230.320 110.789,231.940 111.552,232.600 111.896 C 233.260 112.239,234.340 112.794,235.000 113.129 C 235.660 113.464,236.296 113.879,236.414 114.053 C 236.532 114.227,237.252 114.654,238.014 115.002 C 239.525 115.692,240.336 116.232,245.951 120.290 C 252.151 124.770,261.609 133.765,265.232 138.627 C 266.204 139.932,267.180 141.214,267.400 141.476 C 267.620 141.738,268.250 142.600,268.800 143.393 C 269.350 144.185,270.295 145.480,270.900 146.271 C 271.505 147.063,272.000 147.933,272.000 148.206 C 272.000 148.479,272.298 148.949,272.662 149.251 C 273.026 149.553,273.575 150.340,273.882 151.000 C 274.189 151.660,275.042 153.221,275.779 154.470 C 276.515 155.718,277.326 157.369,277.579 158.138 C 277.833 158.907,278.302 159.752,278.620 160.017 C 278.939 160.282,279.200 160.754,279.200 161.067 C 279.200 161.380,279.650 162.482,280.200 163.515 C 280.750 164.548,281.201 165.755,281.202 166.197 C 281.204 166.639,281.499 167.540,281.858 168.200 C 282.561 169.494,283.722 173.155,284.648 177.000 C 284.966 178.320,285.499 180.260,285.833 181.311 C 286.167 182.362,286.718 185.512,287.057 188.311 C 287.396 191.110,287.828 194.570,288.016 196.000 C 288.205 197.430,288.368 219.857,288.379 245.838 C 288.399 290.920,288.433 293.106,289.125 293.732 C 289.757 294.304,291.385 294.401,301.825 294.494 L 313.800 294.600 313.906 306.666 C 313.999 317.241,313.933 318.810,313.377 319.366 C 312.463 320.280,57.427 320.347,56.176 319.433 C 55.227 318.739,54.722 296.058,55.631 294.962 C 56.013 294.502,58.294 294.400,68.200 294.400 C 77.602 294.400,80.398 294.285,80.731 293.883 C 81.029 293.524,81.204 278.155,81.305 243.383 C 81.435 198.517,81.517 193.149,82.109 190.950 C 82.471 189.602,82.880 187.262,83.018 185.750 C 83.156 184.237,83.605 181.920,84.015 180.600 C 84.426 179.280,84.941 177.300,85.161 176.200 C 85.615 173.924,86.965 169.765,88.018 167.400 C 88.410 166.520,88.847 165.227,88.991 164.528 C 89.134 163.828,89.510 163.041,89.826 162.779 C 90.142 162.517,90.400 162.113,90.400 161.883 C 90.400 161.652,90.918 160.369,91.550 159.032 C 92.183 157.694,92.822 156.330,92.970 156.000 C 93.117 155.670,93.673 154.680,94.204 153.800 C 94.735 152.920,95.561 151.480,96.039 150.600 C 96.517 149.720,97.042 148.910,97.207 148.800 C 97.371 148.690,97.842 147.943,98.253 147.139 C 101.621 140.555,114.534 126.799,122.979 120.800 C 124.682 119.590,126.293 118.398,126.558 118.152 C 126.822 117.905,127.660 117.385,128.420 116.996 C 129.179 116.607,129.890 116.158,130.000 115.998 C 130.110 115.838,130.920 115.317,131.800 114.839 C 132.680 114.361,134.120 113.535,135.000 113.004 C 135.880 112.473,136.870 111.917,137.200 111.770 C 140.628 110.235,143.140 109.067,143.800 108.702 C 145.696 107.653,155.916 104.208,158.938 103.599 C 160.224 103.340,161.883 102.874,162.625 102.564 C 163.367 102.254,164.655 101.994,165.487 101.986 C 166.319 101.978,168.440 101.690,170.200 101.346 C 177.378 99.940,191.953 99.751,197.310 100.994 M173.200 126.802 C 172.430 126.973,170.000 127.496,167.800 127.965 C 165.600 128.434,163.440 128.981,163.000 129.181 C 162.560 129.381,161.480 129.754,160.600 130.011 C 158.528 130.616,154.080 132.338,152.800 133.033 C 152.250 133.331,151.170 133.852,150.400 134.191 C 149.630 134.529,148.100 135.333,147.000 135.975 C 145.900 136.618,144.592 137.333,144.094 137.564 C 143.071 138.039,141.198 139.318,139.358 140.800 C 138.674 141.350,137.600 142.160,136.971 142.600 C 133.498 145.028,126.228 152.298,123.800 155.771 C 123.360 156.400,122.545 157.474,121.988 158.158 C 120.089 160.491,115.575 168.158,115.006 170.017 C 114.841 170.557,114.479 171.270,114.203 171.600 C 113.927 171.930,113.475 172.920,113.199 173.800 C 112.923 174.680,112.476 175.850,112.207 176.400 C 109.955 180.997,107.973 190.703,107.551 199.200 C 106.937 211.546,107.280 292.933,107.949 293.739 C 108.720 294.668,261.194 294.771,261.964 293.843 C 262.772 292.870,262.352 194.903,261.527 191.800 C 261.176 190.480,260.771 188.500,260.628 187.400 C 260.388 185.565,259.961 184.022,258.221 178.700 C 256.853 174.515,256.240 172.956,255.588 172.000 C 255.212 171.450,254.781 170.602,254.630 170.115 C 253.993 168.061,249.143 160.049,246.400 156.517 C 241.605 150.344,230.218 139.600,228.471 139.600 C 228.280 139.600,227.802 139.245,227.409 138.810 C 227.016 138.376,226.313 137.905,225.847 137.763 C 225.381 137.621,224.730 137.284,224.400 137.012 C 223.222 136.044,216.799 132.888,213.152 131.485 C 208.323 129.628,205.763 128.818,202.785 128.205 C 201.143 127.868,198.630 127.327,197.200 127.004 C 194.365 126.364,175.880 126.208,173.200 126.802 M196.662 127.729 C 197.576 128.082,199.556 128.490,201.062 128.637 C 202.568 128.784,204.543 129.235,205.450 129.639 C 206.358 130.044,207.888 130.500,208.850 130.652 C 209.813 130.805,211.050 131.244,211.600 131.628 C 212.150 132.011,213.257 132.437,214.060 132.573 C 214.863 132.710,215.739 133.085,216.006 133.408 C 216.274 133.730,217.237 134.194,218.147 134.439 C 219.056 134.683,219.890 135.020,220.000 135.188 C 220.110 135.355,220.920 135.883,221.800 136.361 C 222.680 136.839,224.120 137.661,225.000 138.188 C 225.880 138.716,227.275 139.522,228.100 139.982 C 228.925 140.441,229.600 140.998,229.600 141.221 C 229.600 141.443,229.915 141.736,230.300 141.872 C 232.055 142.492,242.061 151.986,244.715 155.549 C 245.309 156.347,245.891 157.090,246.007 157.200 C 246.123 157.310,246.524 157.850,246.897 158.400 C 247.270 158.950,248.111 160.120,248.765 161.000 C 249.420 161.880,250.322 163.320,250.771 164.200 C 251.219 165.080,252.219 166.940,252.993 168.334 C 253.767 169.727,254.400 171.098,254.400 171.380 C 254.400 171.662,254.762 172.352,255.204 172.914 C 255.645 173.475,256.117 174.535,256.252 175.268 C 256.387 176.000,256.737 176.986,257.030 177.458 C 257.323 177.929,257.846 179.537,258.192 181.030 C 258.539 182.523,258.989 183.946,259.193 184.192 C 259.397 184.437,259.770 186.340,260.021 188.419 C 260.273 190.499,260.757 192.920,261.099 193.800 C 261.756 195.496,262.416 286.607,261.806 291.488 L 261.542 293.602 184.871 293.501 L 108.200 293.400 108.098 244.416 C 108.007 200.278,108.061 195.193,108.646 193.016 C 109.003 191.687,109.520 189.063,109.794 187.184 C 110.068 185.305,110.565 183.235,110.899 182.584 C 111.233 181.933,111.636 180.590,111.796 179.600 C 111.956 178.610,112.360 177.491,112.692 177.114 C 113.025 176.737,113.458 175.573,113.653 174.528 C 113.848 173.483,114.271 172.480,114.592 172.300 C 114.913 172.121,115.380 171.214,115.630 170.287 C 115.879 169.359,116.210 168.510,116.365 168.400 C 116.520 168.290,117.336 166.957,118.178 165.437 C 120.686 160.911,121.492 159.764,125.933 154.390 C 130.172 149.261,137.915 142.000,139.145 142.000 C 139.370 142.000,139.790 141.667,140.077 141.260 C 140.365 140.852,141.140 140.210,141.800 139.832 C 142.460 139.454,143.720 138.714,144.600 138.187 C 145.480 137.661,146.920 136.839,147.800 136.361 C 148.680 135.883,149.490 135.355,149.600 135.188 C 149.710 135.020,150.574 134.675,151.521 134.420 C 152.467 134.166,153.334 133.716,153.448 133.420 C 153.561 133.125,154.439 132.765,155.399 132.621 C 156.358 132.477,157.561 132.036,158.072 131.640 C 158.582 131.244,159.787 130.798,160.750 130.648 C 161.712 130.497,163.242 130.044,164.150 129.639 C 165.057 129.235,167.017 128.785,168.504 128.640 C 169.992 128.495,171.702 128.187,172.304 127.955 C 174.731 127.021,176.991 126.856,185.800 126.970 C 193.063 127.063,195.350 127.223,196.662 127.729 M147.200 345.083 C 145.241 345.423,145.200 345.706,145.200 358.827 C 145.200 369.756,145.273 371.162,145.861 371.651 C 147.012 372.606,221.307 372.658,223.200 371.705 L 224.600 371.000 224.706 359.866 C 224.827 347.238,224.647 345.904,222.735 345.237 C 221.517 344.813,149.599 344.666,147.200 345.083 M222.240 345.906 C 223.458 346.720,223.600 348.113,223.600 359.294 C 223.600 367.585,223.471 370.769,223.120 371.120 C 222.611 371.629,147.944 371.860,146.633 371.357 C 146.075 371.143,146.000 369.698,146.000 359.234 C 146.000 347.035,146.073 346.423,147.600 345.878 C 148.529 345.546,221.742 345.574,222.240 345.906 " stroke="none" fill="#8a8a8a" fill-rule="evenodd"></path><path id="path4" d="M176.800 100.393 C 174.930 100.573,171.960 101.001,170.200 101.346 C 168.440 101.690,166.319 101.978,165.487 101.986 C 164.655 101.994,163.367 102.254,162.625 102.564 C 161.883 102.874,160.224 103.340,158.938 103.599 C 155.916 104.208,145.696 107.653,143.800 108.702 C 143.140 109.067,140.628 110.235,137.200 111.770 C 136.870 111.917,135.880 112.473,135.000 113.004 C 134.120 113.535,132.680 114.361,131.800 114.839 C 130.920 115.317,130.110 115.838,130.000 115.998 C 129.890 116.158,129.179 116.607,128.420 116.996 C 127.660 117.385,126.822 117.905,126.558 118.152 C 126.293 118.398,124.682 119.590,122.979 120.800 C 114.534 126.799,101.621 140.555,98.253 147.139 C 97.842 147.943,97.371 148.690,97.207 148.800 C 97.042 148.910,96.517 149.720,96.039 150.600 C 95.561 151.480,94.735 152.920,94.204 153.800 C 93.673 154.680,93.117 155.670,92.970 156.000 C 92.822 156.330,92.183 157.694,91.550 159.032 C 90.918 160.369,90.400 161.652,90.400 161.883 C 90.400 162.113,90.142 162.517,89.826 162.779 C 89.510 163.041,89.134 163.828,88.991 164.528 C 88.847 165.227,88.410 166.520,88.018 167.400 C 86.965 169.765,85.615 173.924,85.161 176.200 C 84.941 177.300,84.426 179.280,84.015 180.600 C 83.605 181.920,83.156 184.237,83.018 185.750 C 82.880 187.262,82.471 189.602,82.109 190.950 C 81.517 193.149,81.435 198.517,81.305 243.383 C 81.204 278.155,81.029 293.524,80.731 293.883 C 80.398 294.285,77.602 294.400,68.200 294.400 C 58.294 294.400,56.013 294.502,55.631 294.962 C 54.722 296.058,55.227 318.739,56.176 319.433 C 57.427 320.347,312.463 320.280,313.377 319.366 C 313.933 318.810,313.999 317.241,313.906 306.666 L 313.800 294.600 301.825 294.494 C 291.385 294.401,289.757 294.304,289.125 293.732 C 288.433 293.106,288.399 290.920,288.379 245.838 C 288.368 219.857,288.205 197.430,288.016 196.000 C 287.828 194.570,287.396 191.110,287.057 188.311 C 286.718 185.512,286.167 182.362,285.833 181.311 C 285.499 180.260,284.966 178.320,284.648 177.000 C 283.722 173.155,282.561 169.494,281.858 168.200 C 281.499 167.540,281.204 166.639,281.202 166.197 C 281.201 165.755,280.750 164.548,280.200 163.515 C 279.650 162.482,279.200 161.380,279.200 161.067 C 279.200 160.754,278.939 160.282,278.620 160.017 C 278.302 159.752,277.833 158.907,277.579 158.138 C 277.326 157.369,276.515 155.718,275.779 154.470 C 275.042 153.221,274.189 151.660,273.882 151.000 C 273.575 150.340,273.026 149.553,272.662 149.251 C 272.298 148.949,272.000 148.479,272.000 148.206 C 272.000 147.933,271.505 147.063,270.900 146.271 C 270.295 145.480,269.350 144.185,268.800 143.393 C 268.250 142.600,267.620 141.738,267.400 141.476 C 267.180 141.214,266.204 139.932,265.232 138.627 C 261.609 133.765,252.151 124.770,245.951 120.290 C 240.336 116.232,239.525 115.692,238.014 115.002 C 237.252 114.654,236.532 114.227,236.414 114.053 C 236.296 113.879,235.660 113.464,235.000 113.129 C 234.340 112.794,233.260 112.239,232.600 111.896 C 231.940 111.552,230.320 110.789,229.000 110.200 C 227.680 109.611,226.240 108.933,225.800 108.694 C 223.846 107.633,213.650 104.201,210.662 103.599 C 209.376 103.340,207.756 102.898,207.062 102.617 C 206.368 102.335,204.458 101.987,202.817 101.842 C 201.176 101.697,198.698 101.316,197.310 100.994 C 194.284 100.292,181.702 99.924,176.800 100.393 M194.048 101.373 C 195.891 101.689,199.101 102.075,201.180 102.231 C 203.384 102.397,205.648 102.820,206.612 103.246 C 207.520 103.648,209.329 104.100,210.632 104.251 C 211.934 104.402,213.362 104.760,213.805 105.046 C 214.248 105.333,215.598 105.775,216.805 106.029 C 218.012 106.283,219.282 106.738,219.626 107.040 C 219.971 107.343,220.871 107.704,221.626 107.843 C 222.849 108.067,226.380 109.515,228.000 110.457 C 228.330 110.649,229.050 111.008,229.600 111.254 C 232.870 112.722,235.659 114.189,236.033 114.640 C 236.270 114.925,237.080 115.362,237.832 115.611 C 238.584 115.859,239.200 116.233,239.200 116.441 C 239.200 116.649,239.671 116.999,240.246 117.217 C 240.821 117.436,241.766 117.981,242.346 118.429 C 242.926 118.877,244.120 119.776,245.000 120.428 C 247.658 122.396,248.128 122.755,250.000 124.254 C 252.154 125.977,257.127 130.386,257.754 131.128 C 257.999 131.418,258.949 132.447,259.863 133.414 C 262.002 135.675,265.518 139.925,266.800 141.798 C 267.350 142.601,268.091 143.561,268.446 143.929 C 268.801 144.298,269.320 145.039,269.600 145.575 C 269.879 146.111,270.266 146.741,270.460 146.975 C 271.215 147.889,272.764 150.404,273.411 151.767 C 273.785 152.555,274.231 153.200,274.402 153.200 C 274.573 153.200,274.832 153.673,274.977 154.251 C 275.122 154.830,275.682 155.952,276.221 156.744 C 276.759 157.537,277.200 158.431,277.200 158.731 C 277.200 159.031,277.548 159.765,277.973 160.363 C 278.399 160.960,278.873 161.978,279.027 162.624 C 279.181 163.271,279.543 164.073,279.831 164.406 C 280.119 164.740,280.548 165.876,280.785 166.932 C 281.021 167.987,281.464 169.244,281.768 169.725 C 282.072 170.206,282.519 171.559,282.763 172.731 C 283.006 173.903,283.386 175.200,283.608 175.614 C 283.829 176.028,284.294 177.859,284.639 179.684 C 284.985 181.508,285.453 183.223,285.679 183.495 C 285.905 183.767,286.251 186.107,286.448 188.695 C 286.645 191.283,287.015 195.200,287.270 197.400 C 287.586 200.132,287.778 216.037,287.875 247.588 C 287.970 278.498,288.152 293.913,288.428 294.188 C 288.682 294.443,293.440 294.676,300.919 294.800 L 313.000 295.000 313.106 306.552 C 313.182 314.741,313.080 318.263,312.757 318.652 C 312.111 319.430,58.133 319.478,57.070 318.700 C 56.449 318.245,56.397 317.151,56.493 306.600 L 56.600 295.000 68.681 294.800 C 75.926 294.680,80.919 294.440,81.156 294.200 C 81.409 293.943,81.608 276.334,81.712 245.000 C 81.830 209.051,81.997 195.779,82.346 194.600 C 82.606 193.720,83.070 190.606,83.377 187.679 C 83.685 184.753,84.144 182.108,84.398 181.803 C 84.652 181.497,85.039 179.950,85.258 178.365 C 85.478 176.780,85.913 175.094,86.225 174.618 C 86.537 174.143,86.975 172.786,87.199 171.604 C 87.423 170.423,87.875 169.159,88.202 168.797 C 88.530 168.435,88.957 167.291,89.150 166.255 C 89.344 165.219,89.792 164.051,90.146 163.659 C 90.501 163.268,90.904 162.378,91.043 161.683 C 91.183 160.987,91.543 160.213,91.845 159.962 C 92.147 159.712,92.594 158.763,92.839 157.853 C 93.083 156.944,93.420 156.110,93.588 156.000 C 93.868 155.816,94.774 154.252,96.467 151.024 C 96.834 150.324,97.419 149.516,97.767 149.227 C 98.115 148.938,98.400 148.468,98.400 148.182 C 98.400 147.896,98.850 147.127,99.400 146.473 C 99.950 145.819,100.400 145.176,100.400 145.044 C 100.400 144.912,101.300 143.687,102.400 142.322 C 103.500 140.957,104.400 139.720,104.400 139.574 C 104.400 139.193,107.121 136.253,112.257 131.085 C 117.053 126.259,118.756 124.750,122.800 121.749 C 124.230 120.687,125.940 119.418,126.600 118.927 C 127.260 118.436,128.363 117.775,129.051 117.458 C 129.739 117.141,130.427 116.681,130.579 116.435 C 130.730 116.189,131.427 115.711,132.127 115.372 C 132.827 115.034,134.300 114.230,135.400 113.587 C 136.500 112.943,137.850 112.211,138.400 111.960 C 138.950 111.708,140.303 111.075,141.406 110.551 C 142.509 110.028,143.612 109.600,143.857 109.600 C 144.102 109.600,144.516 109.342,144.777 109.028 C 145.038 108.713,146.178 108.257,147.310 108.014 C 148.441 107.771,149.645 107.329,149.984 107.031 C 150.323 106.734,151.588 106.283,152.795 106.029 C 154.002 105.775,155.352 105.333,155.795 105.046 C 156.238 104.760,157.648 104.404,158.930 104.255 C 160.211 104.107,161.921 103.698,162.730 103.347 C 163.538 102.995,166.450 102.451,169.200 102.138 C 171.950 101.825,175.100 101.420,176.200 101.238 C 179.627 100.671,190.420 100.753,194.048 101.373 M174.842 126.050 C 171.742 126.259,169.558 126.598,169.014 126.954 C 168.535 127.268,167.076 127.649,165.772 127.800 C 164.467 127.952,162.770 128.391,162.000 128.777 C 161.230 129.162,159.889 129.610,159.020 129.772 C 158.152 129.934,157.072 130.326,156.620 130.643 C 156.169 130.960,155.086 131.413,154.214 131.648 C 153.342 131.884,152.193 132.420,151.660 132.839 C 151.128 133.257,150.391 133.600,150.024 133.600 C 149.656 133.600,148.745 134.050,148.000 134.600 C 147.255 135.150,146.437 135.600,146.184 135.600 C 145.931 135.600,145.407 135.950,145.021 136.377 C 144.634 136.805,143.784 137.272,143.131 137.415 C 142.479 137.558,141.855 137.912,141.744 138.201 C 141.633 138.490,141.015 138.945,140.371 139.212 C 139.727 139.479,139.200 139.945,139.200 140.249 C 139.200 140.552,138.960 140.800,138.666 140.800 C 137.770 140.800,133.753 144.113,129.400 148.441 C 127.564 150.267,126.792 151.137,124.308 154.187 C 123.048 155.734,121.756 157.301,121.438 157.670 C 121.121 158.038,120.641 158.758,120.372 159.270 C 120.103 159.781,119.654 160.336,119.373 160.502 C 119.092 160.669,118.748 161.325,118.609 161.961 C 118.469 162.597,118.005 163.434,117.577 163.821 C 117.150 164.207,116.800 164.731,116.800 164.984 C 116.800 165.237,116.350 166.055,115.800 166.800 C 115.250 167.545,114.800 168.456,114.800 168.824 C 114.800 169.191,114.451 169.936,114.025 170.478 C 113.598 171.020,113.125 171.989,112.973 172.632 C 112.822 173.274,112.375 174.340,111.982 175.000 C 111.589 175.660,111.135 176.920,110.972 177.800 C 110.810 178.680,110.362 180.030,109.977 180.800 C 109.591 181.570,109.152 183.267,109.000 184.572 C 108.849 185.876,108.480 187.316,108.182 187.772 C 107.056 189.491,106.808 200.161,106.804 247.110 L 106.800 294.020 107.826 294.410 C 109.495 295.045,261.263 294.934,262.134 294.298 C 262.778 293.827,262.813 290.602,262.699 242.598 L 262.577 191.400 261.689 188.864 C 261.200 187.470,260.800 185.667,260.800 184.858 C 260.800 184.050,260.443 182.722,260.007 181.909 C 259.571 181.095,259.094 179.658,258.948 178.715 C 258.802 177.772,258.434 176.640,258.131 176.200 C 257.828 175.760,257.387 174.686,257.152 173.814 C 256.916 172.942,256.380 171.793,255.961 171.260 C 255.543 170.728,255.200 169.991,255.200 169.623 C 255.200 169.254,254.930 168.604,254.600 168.176 C 254.270 167.749,253.644 166.680,253.210 165.800 C 252.775 164.920,252.193 163.840,251.915 163.400 C 251.637 162.960,250.833 161.686,250.130 160.570 C 249.426 159.453,248.568 158.306,248.225 158.021 C 247.881 157.735,247.600 157.318,247.600 157.093 C 247.600 156.868,247.233 156.305,246.783 155.842 C 246.334 155.379,244.855 153.668,243.496 152.040 C 240.605 148.576,238.074 146.129,234.200 143.054 C 232.660 141.832,231.078 140.547,230.684 140.200 C 230.291 139.853,229.526 139.367,228.984 139.120 C 228.443 138.873,228.000 138.540,228.000 138.379 C 228.000 138.218,227.280 137.799,226.400 137.447 C 225.520 137.095,224.800 136.643,224.800 136.442 C 224.800 136.242,224.252 135.887,223.581 135.653 C 222.911 135.420,221.897 134.862,221.327 134.414 C 220.758 133.966,219.981 133.600,219.600 133.600 C 219.219 133.600,218.448 133.238,217.886 132.796 C 217.325 132.355,216.265 131.877,215.532 131.734 C 214.800 131.592,213.790 131.159,213.288 130.771 C 212.787 130.383,211.625 129.939,210.707 129.784 C 209.788 129.629,208.399 129.181,207.618 128.789 C 206.838 128.397,205.133 127.952,203.828 127.800 C 202.524 127.649,201.080 127.278,200.619 126.976 C 198.910 125.856,185.080 125.359,174.842 126.050 M197.200 127.004 C 198.630 127.327,201.143 127.868,202.785 128.205 C 205.763 128.818,208.323 129.628,213.152 131.485 C 216.799 132.888,223.222 136.044,224.400 137.012 C 224.730 137.284,225.381 137.621,225.847 137.763 C 226.313 137.905,227.016 138.376,227.409 138.810 C 227.802 139.245,228.280 139.600,228.471 139.600 C 230.218 139.600,241.605 150.344,246.400 156.517 C 249.143 160.049,253.993 168.061,254.630 170.115 C 254.781 170.602,255.212 171.450,255.588 172.000 C 256.240 172.956,256.853 174.515,258.221 178.700 C 259.961 184.022,260.388 185.565,260.628 187.400 C 260.771 188.500,261.176 190.480,261.527 191.800 C 262.352 194.903,262.772 292.870,261.964 293.843 C 261.194 294.771,108.720 294.668,107.949 293.739 C 107.280 292.933,106.937 211.546,107.551 199.200 C 107.973 190.703,109.955 180.997,112.207 176.400 C 112.476 175.850,112.923 174.680,113.199 173.800 C 113.475 172.920,113.927 171.930,114.203 171.600 C 114.479 171.270,114.841 170.557,115.006 170.017 C 115.575 168.158,120.089 160.491,121.988 158.158 C 122.545 157.474,123.360 156.400,123.800 155.771 C 126.228 152.298,133.498 145.028,136.971 142.600 C 137.600 142.160,138.674 141.350,139.358 140.800 C 141.198 139.318,143.071 138.039,144.094 137.564 C 144.592 137.333,145.900 136.618,147.000 135.975 C 148.100 135.333,149.630 134.529,150.400 134.191 C 151.170 133.852,152.250 133.331,152.800 133.033 C 154.080 132.338,158.528 130.616,160.600 130.011 C 161.480 129.754,162.560 129.381,163.000 129.181 C 163.440 128.981,165.600 128.434,167.800 127.965 C 170.000 127.496,172.430 126.973,173.200 126.802 C 175.880 126.208,194.365 126.364,197.200 127.004 M147.600 345.878 C 146.073 346.423,146.000 347.035,146.000 359.234 C 146.000 369.698,146.075 371.143,146.633 371.357 C 147.944 371.860,222.611 371.629,223.120 371.120 C 223.471 370.769,223.600 367.585,223.600 359.294 C 223.600 348.113,223.458 346.720,222.240 345.906 C 221.742 345.574,148.529 345.546,147.600 345.878 M222.386 347.574 C 223.136 348.976,222.934 370.663,222.167 370.957 C 221.340 371.275,148.260 371.275,147.433 370.957 C 146.417 370.567,146.481 347.825,147.500 347.232 C 149.018 346.348,221.908 346.681,222.386 347.574 " stroke="none" fill="#747474" fill-rule="evenodd"></path></g></svg>