<svg id="svg" version="1.1" xmlns="http://www.w3.org/2000/svg" xmlns:xlink="http://www.w3.org/1999/xlink" width="400" height="403.2967032967033" viewBox="0, 0, 400,403.2967032967033"><g id="svgg"><path id="path0" d="M293.289 24.588 C 291.095 25.273,289.026 26.858,287.809 28.786 C 286.800 30.385,286.700 30.767,271.378 91.954 C 266.894 109.858,263.175 124.554,263.113 124.612 C 263.051 124.669,260.660 124.083,257.800 123.310 C 240.204 118.551,224.226 124.606,216.005 139.149 C 213.583 143.433,212.659 146.666,206.197 173.438 L 205.126 177.875 196.349 177.889 L 187.571 177.904 187.822 175.652 C 189.130 163.931,182.475 147.595,172.231 137.382 C 139.177 104.425,82.760 128.682,83.632 175.476 C 83.671 177.541,83.634 179.283,83.551 179.346 C 83.468 179.409,81.870 180.052,80.000 180.774 C 47.976 193.142,27.134 222.633,25.354 258.099 L 25.088 263.406 22.934 264.357 C 17.750 266.645,17.179 268.431,17.174 282.373 C 17.169 294.632,17.290 296.347,18.466 300.800 C 24.119 322.198,41.482 336.149,64.400 337.705 L 65.800 337.800 66.263 341.200 C 68.029 354.166,68.476 357.471,69.422 364.600 C 70.870 375.499,72.301 378.403,77.068 380.112 C 80.355 381.290,311.387 381.150,314.000 379.969 C 319.552 377.458,319.671 377.100,322.806 353.600 C 323.290 349.970,323.989 344.930,324.360 342.400 L 325.033 337.800 326.817 337.696 C 348.638 336.422,366.223 322.273,372.266 301.126 C 373.303 297.498,373.336 297.051,373.498 284.090 L 373.666 270.781 372.433 268.597 C 371.207 266.425,371.200 266.378,371.200 260.390 C 371.200 226.277,351.221 195.709,320.100 182.205 C 317.466 181.062,315.600 180.022,315.600 179.697 C 315.600 179.392,316.036 177.220,316.570 174.871 C 321.474 153.270,310.623 136.316,288.600 131.173 C 285.154 130.368,283.600 129.884,283.600 129.617 C 283.600 129.464,288.929 108.112,295.442 82.169 C 307.035 35.992,307.275 34.955,306.854 32.855 C 305.520 26.209,299.618 22.611,293.289 24.588 M252.400 143.627 C 255.150 144.301,257.531 144.981,257.692 145.138 C 258.122 145.559,248.560 183.341,247.930 183.712 C 247.639 183.884,245.819 184.921,243.888 186.016 C 241.956 187.112,240.019 188.231,239.583 188.503 C 238.903 188.928,238.357 188.765,235.696 187.341 C 233.993 186.430,231.025 185.014,229.100 184.195 C 227.175 183.375,225.600 182.622,225.600 182.520 C 225.600 182.261,227.595 174.037,230.615 161.847 C 233.430 150.485,234.058 148.836,236.501 146.393 C 240.607 142.287,244.303 141.644,252.400 143.627 M142.298 143.849 C 158.900 147.313,170.225 165.275,166.054 181.525 L 165.508 183.650 161.017 185.886 L 156.525 188.122 152.963 186.114 C 139.541 178.553,126.761 175.234,110.400 175.061 L 104.600 175.000 104.693 172.400 C 105.359 153.713,123.514 139.929,142.298 143.849 M283.885 151.585 C 295.106 154.535,298.572 160.250,295.913 171.417 L 295.027 175.141 286.813 175.119 C 282.269 175.108,277.200 175.314,275.466 175.582 C 273.742 175.848,272.254 175.987,272.158 175.892 C 272.020 175.753,277.581 152.780,278.208 150.900 C 278.440 150.205,278.809 150.250,283.885 151.585 M295.200 196.641 C 326.966 201.680,350.363 228.582,350.397 260.106 L 350.400 263.211 337.900 263.106 L 325.400 263.000 325.165 258.200 C 324.910 252.996,324.817 252.483,323.315 248.000 C 316.334 227.165,292.747 215.500,272.891 223.064 C 271.951 223.423,271.123 223.645,271.051 223.558 C 270.979 223.471,270.331 222.281,269.611 220.912 C 267.496 216.893,263.179 210.659,259.817 206.769 C 256.273 202.669,256.229 202.950,260.719 201.032 C 271.775 196.309,283.609 194.802,295.200 196.641 M119.888 196.624 C 150.548 201.064,173.881 226.630,175.080 257.100 L 175.321 263.200 162.917 263.200 L 150.514 263.200 150.232 258.749 C 148.656 233.835,126.712 216.832,102.570 221.819 C 84.630 225.524,71.221 242.230,71.202 260.900 L 71.200 263.200 58.800 263.200 L 46.400 263.200 46.403 259.900 C 46.442 221.350,81.596 191.080,119.888 196.624 M207.522 199.643 C 235.832 204.497,257.517 229.020,258.684 257.500 L 258.918 263.200 247.709 263.200 L 236.501 263.200 236.295 258.700 C 235.229 235.372,212.796 217.210,190.445 221.579 C 189.260 221.810,188.070 222.000,187.799 222.000 C 187.529 222.000,186.452 220.515,185.405 218.700 C 182.715 214.035,179.887 209.903,176.887 206.254 C 173.922 202.647,173.834 202.888,178.661 201.402 C 188.002 198.526,197.597 197.942,207.522 199.643 M291.167 242.652 C 298.423 244.691,303.821 251.701,304.301 259.706 L 304.512 263.212 292.156 263.106 C 281.590 263.015,279.818 262.916,279.927 262.418 C 280.298 260.724,278.947 246.782,278.174 244.324 C 277.492 242.154,285.656 241.103,291.167 242.652 M115.816 242.621 C 123.591 244.645,129.200 252.013,129.200 260.202 L 129.200 263.200 110.741 263.200 L 92.282 263.200 92.505 259.464 C 93.218 247.520,104.189 239.593,115.816 242.621 M199.970 242.388 C 208.739 243.655,216.431 253.234,215.322 261.505 L 215.095 263.200 205.747 263.200 L 196.400 263.200 196.400 260.569 C 196.400 257.020,195.648 248.843,195.005 245.400 C 194.295 241.603,194.343 241.574,199.970 242.388 M352.569 289.000 C 352.486 301.709,344.852 311.804,332.400 315.669 L 329.400 316.600 195.200 316.600 L 61.000 316.600 58.200 315.656 C 45.716 311.447,38.598 302.046,38.093 289.099 L 37.894 283.999 195.247 284.099 L 352.600 284.200 352.569 289.000 M303.401 338.002 C 303.761 338.585,301.201 358.628,300.653 359.514 C 300.419 359.893,277.249 360.000,195.208 360.000 L 90.064 360.000 89.858 358.900 C 89.745 358.295,89.365 355.640,89.012 353.000 C 88.660 350.360,88.051 345.909,87.658 343.109 C 87.165 339.593,87.077 337.964,87.372 337.841 C 88.323 337.446,303.157 337.606,303.401 338.002 " stroke="none" fill="#fc1d1d" fill-rule="evenodd"></path><path id="path1" d="M0.000 201.600 L 0.000 403.200 200.000 403.200 L 400.000 403.200 400.000 201.600 L 400.000 0.000 200.000 0.000 L 0.000 0.000 0.000 201.600 M300.022 24.608 C 303.642 25.885,306.035 28.773,306.854 32.855 C 307.275 34.955,307.035 35.992,295.442 82.169 C 288.929 108.112,283.600 129.464,283.600 129.617 C 283.600 129.884,285.154 130.368,288.600 131.173 C 310.623 136.316,321.474 153.270,316.570 174.871 C 316.036 177.220,315.600 179.392,315.600 179.697 C 315.600 180.022,317.466 181.062,320.100 182.205 C 351.221 195.709,371.200 226.277,371.200 260.390 C 371.200 266.378,371.207 266.425,372.433 268.597 L 373.666 270.781 373.498 284.090 C 373.336 297.051,373.303 297.498,372.266 301.126 C 366.223 322.273,348.638 336.422,326.817 337.696 L 325.033 337.800 324.360 342.400 C 323.989 344.930,323.290 349.970,322.806 353.600 C 319.671 377.100,319.552 377.458,314.000 379.969 C 311.387 381.150,80.355 381.290,77.068 380.112 C 72.301 378.403,70.870 375.499,69.422 364.600 C 68.476 357.471,68.029 354.166,66.263 341.200 L 65.800 337.800 64.400 337.705 C 41.482 336.149,24.119 322.198,18.466 300.800 C 17.290 296.347,17.169 294.632,17.174 282.373 C 17.179 268.431,17.750 266.645,22.934 264.357 L 25.088 263.406 25.354 258.099 C 27.134 222.633,47.976 193.142,80.000 180.774 C 81.870 180.052,83.468 179.409,83.551 179.346 C 83.634 179.283,83.671 177.541,83.632 175.476 C 82.760 128.682,139.177 104.425,172.231 137.382 C 182.475 147.595,189.130 163.931,187.822 175.652 L 187.571 177.904 196.349 177.889 L 205.126 177.875 206.197 173.438 C 212.659 146.666,213.583 143.433,216.005 139.149 C 224.226 124.606,240.204 118.551,257.800 123.310 C 260.660 124.083,263.051 124.669,263.113 124.612 C 263.175 124.554,266.894 109.858,271.378 91.954 C 286.700 30.767,286.800 30.385,287.809 28.786 C 290.294 24.849,295.580 23.041,300.022 24.608 M242.200 142.960 C 235.641 145.034,234.197 147.387,230.615 161.847 C 227.595 174.037,225.600 182.261,225.600 182.520 C 225.600 182.622,227.175 183.375,229.100 184.195 C 231.025 185.014,233.993 186.430,235.696 187.341 C 238.357 188.765,238.903 188.928,239.583 188.503 C 240.019 188.231,241.956 187.112,243.888 186.016 C 245.819 184.921,247.639 183.884,247.930 183.712 C 248.560 183.341,258.122 145.559,257.692 145.138 C 256.175 143.653,244.983 142.079,242.200 142.960 M132.762 143.248 C 117.435 144.840,105.224 157.522,104.693 172.400 L 104.600 175.000 110.400 175.061 C 126.761 175.234,139.541 178.553,152.963 186.114 L 156.525 188.122 161.017 185.886 L 165.508 183.650 166.054 181.525 C 171.204 161.462,153.490 141.095,132.762 143.248 M278.208 150.900 C 277.581 152.780,272.020 175.753,272.158 175.892 C 272.254 175.987,273.742 175.848,275.466 175.582 C 277.200 175.314,282.269 175.108,286.813 175.119 L 295.027 175.141 295.913 171.417 C 298.572 160.250,295.106 154.535,283.885 151.585 C 278.809 150.250,278.440 150.205,278.208 150.900 M281.200 196.063 C 274.266 196.497,267.484 198.142,260.719 201.032 C 256.229 202.950,256.273 202.669,259.817 206.769 C 263.179 210.659,267.496 216.893,269.611 220.912 C 270.331 222.281,270.979 223.471,271.051 223.558 C 271.123 223.645,271.951 223.423,272.891 223.064 C 292.747 215.500,316.334 227.165,323.315 248.000 C 324.817 252.483,324.910 252.996,325.165 258.200 L 325.400 263.000 337.900 263.106 L 350.400 263.211 350.397 260.106 C 350.358 223.183,318.531 193.727,281.200 196.063 M101.000 196.788 C 69.543 201.869,46.434 228.582,46.403 259.900 L 46.400 263.200 58.800 263.200 L 71.200 263.200 71.202 260.900 C 71.221 242.230,84.630 225.524,102.570 221.819 C 126.712 216.832,148.656 233.835,150.232 258.749 L 150.514 263.200 162.917 263.200 L 175.321 263.200 175.080 257.100 C 173.595 219.371,138.432 190.743,101.000 196.788 M192.400 198.844 C 187.906 199.133,183.162 200.016,178.661 201.402 C 173.834 202.888,173.922 202.647,176.887 206.254 C 179.887 209.903,182.715 214.035,185.405 218.700 C 186.452 220.515,187.529 222.000,187.799 222.000 C 188.070 222.000,189.260 221.810,190.445 221.579 C 212.796 217.210,235.229 235.372,236.295 258.700 L 236.501 263.200 247.709 263.200 L 258.918 263.200 258.684 257.500 C 257.278 223.188,227.237 196.605,192.400 198.844 M282.133 242.183 C 278.945 242.898,277.903 243.462,278.174 244.324 C 278.947 246.782,280.298 260.724,279.927 262.418 C 279.818 262.916,281.590 263.015,292.156 263.106 L 304.512 263.212 304.301 259.706 C 303.611 248.192,292.943 239.760,282.133 242.183 M106.527 242.418 C 99.005 243.905,92.998 251.208,92.505 259.464 L 92.282 263.200 110.741 263.200 L 129.200 263.200 129.200 260.202 C 129.200 248.387,118.558 240.040,106.527 242.418 M194.664 242.300 C 194.564 242.465,194.717 243.860,195.005 245.400 C 195.648 248.843,196.400 257.020,196.400 260.569 L 196.400 263.200 205.747 263.200 L 215.095 263.200 215.322 261.505 C 216.163 255.233,211.378 247.110,204.989 243.965 C 201.965 242.476,195.220 241.389,194.664 242.300 M38.093 289.099 C 38.598 302.046,45.716 311.447,58.200 315.656 L 61.000 316.600 195.200 316.600 L 329.400 316.600 332.400 315.669 C 344.852 311.804,352.486 301.709,352.569 289.000 L 352.600 284.200 195.247 284.099 L 37.894 283.999 38.093 289.099 M87.372 337.841 C 87.077 337.964,87.165 339.593,87.658 343.109 C 88.051 345.909,88.660 350.360,89.012 353.000 C 89.365 355.640,89.745 358.295,89.858 358.900 L 90.064 360.000 195.208 360.000 C 277.249 360.000,300.419 359.893,300.653 359.514 C 301.201 358.628,303.761 338.585,303.401 338.002 C 303.157 337.606,88.323 337.446,87.372 337.841 " stroke="none" fill="#fcfbfb" fill-rule="evenodd"></path></g></svg>