<svg id="svg" version="1.1" xmlns="http://www.w3.org/2000/svg" xmlns:xlink="http://www.w3.org/1999/xlink" width="400" height="372.64957264957263" viewBox="0, 0, 400,372.64957264957263"><g id="svgg"><path id="path0" d="M0.000 186.325 L 0.000 372.650 200.000 372.650 L 400.000 372.650 400.000 186.325 L 400.000 0.000 200.000 0.000 L 0.000 0.000 0.000 186.325 M227.605 30.998 C 323.501 53.625,386.624 137.180,383.893 237.873 C 383.211 263.032,373.187 277.767,351.852 284.977 L 347.863 286.325 278.063 286.489 L 208.262 286.654 206.444 290.478 C 199.743 304.568,183.121 312.915,168.091 309.737 C 165.741 309.239,163.658 308.833,163.462 308.832 C 163.267 308.832,162.975 313.255,162.814 318.661 C 162.402 332.529,160.106 338.849,152.618 346.724 C 133.757 366.560,100.213 358.082,92.914 331.635 C 91.827 327.696,91.738 325.828,91.738 306.992 L 91.738 286.610 69.943 286.601 C 42.350 286.591,38.145 285.682,30.343 278.043 C 21.884 269.759,20.517 264.726,20.524 241.880 L 20.528 226.496 22.761 222.507 C 23.989 220.313,26.486 216.689,28.309 214.453 C 32.555 209.246,185.381 42.948,189.862 38.659 C 199.220 29.702,211.526 27.204,227.605 30.998 M209.295 54.506 C 207.209 55.649,204.048 58.641,198.553 64.672 L 190.766 73.219 194.386 73.654 C 206.247 75.080,211.995 76.044,219.297 77.832 C 273.045 90.999,315.273 131.917,330.806 185.882 C 332.767 192.696,335.605 207.506,335.620 211.004 C 335.640 215.641,334.926 215.385,347.815 215.385 L 359.314 215.385 358.862 210.399 C 352.164 136.509,298.343 73.929,225.641 55.497 C 214.335 52.631,212.879 52.542,209.295 54.506 M171.183 97.950 C 167.838 98.279,167.618 98.404,164.563 101.709 C 162.825 103.590,138.540 130.000,110.597 160.399 L 59.789 215.670 73.057 215.984 C 96.350 216.536,108.012 223.618,113.823 240.741 L 115.371 245.299 115.663 285.564 L 115.954 325.829 117.671 328.299 C 121.770 334.194,130.482 335.105,135.155 330.127 C 138.925 326.110,138.717 329.159,139.031 273.462 L 139.316 222.992 140.741 220.890 C 144.880 214.782,153.331 213.605,158.767 218.379 C 162.802 221.921,162.647 220.740,162.963 250.427 L 163.248 277.208 164.672 279.721 C 170.052 289.212,183.366 287.557,185.795 277.095 C 186.071 275.903,186.304 268.495,186.311 260.632 C 186.331 240.101,188.022 234.614,197.097 225.631 C 207.494 215.339,207.046 215.407,264.871 215.395 L 311.793 215.385 311.399 211.823 C 303.839 143.469,239.513 91.228,171.183 97.950 M214.553 121.661 C 241.693 128.560,250.916 161.878,231.117 181.505 C 202.461 209.914,156.560 176.455,174.437 140.190 C 181.561 125.741,198.969 117.700,214.553 121.661 M202.564 145.417 C 191.483 149.290,192.520 165.008,204.027 167.593 C 209.041 168.720,214.672 165.615,216.780 160.560 C 220.413 151.850,211.456 142.309,202.564 145.417 M134.034 170.116 C 143.077 176.385,139.407 190.732,128.471 191.861 C 117.659 192.977,110.999 180.367,118.117 172.260 C 122.126 167.694,129.172 166.745,134.034 170.116 M277.944 170.075 C 282.550 173.123,284.444 179.861,282.111 184.900 C 276.379 197.280,258.026 192.171,259.428 178.586 C 260.330 169.847,270.521 165.162,277.944 170.075 M218.567 240.024 C 212.826 241.542,210.256 246.588,210.256 256.348 L 210.256 262.705 277.066 262.549 L 343.875 262.393 347.420 260.755 C 354.356 257.552,358.947 250.956,359.425 243.507 L 359.694 239.316 290.246 239.375 C 244.390 239.414,220.040 239.634,218.567 240.024 M44.448 247.721 C 44.451 256.207,44.944 258.433,47.327 260.716 L 49.076 262.393 70.486 262.556 L 91.896 262.718 91.597 256.003 C 91.265 248.532,90.889 247.173,88.354 244.286 C 85.010 240.477,84.870 240.456,63.589 240.456 L 44.444 240.456 44.448 247.721 " stroke="none" fill="#000000" fill-rule="evenodd"></path></g></svg>