<svg id="svg" version="1.1" xmlns="http://www.w3.org/2000/svg" xmlns:xlink="http://www.w3.org/1999/xlink" width="400" height="345.20547945205476" viewBox="0, 0, 400,345.20547945205476"><g id="svgg"><path id="path0" d="M0.000 172.712 L 0.000 345.423 200.000 345.423 L 400.000 345.423 400.000 172.712 L 400.000 0.000 200.000 0.000 L 0.000 0.000 0.000 172.712 M224.180 26.411 C 226.364 26.685,229.361 27.305,230.840 27.790 C 232.318 28.274,233.924 28.670,234.409 28.670 C 234.893 28.670,236.404 29.049,237.766 29.513 C 239.128 29.976,240.864 30.462,241.623 30.593 C 242.383 30.724,243.894 31.200,244.981 31.650 C 246.068 32.101,247.249 32.470,247.607 32.470 C 247.964 32.470,248.941 32.834,249.779 33.279 C 250.616 33.724,251.913 34.203,252.661 34.344 C 253.409 34.484,254.762 34.975,255.669 35.434 C 256.576 35.894,257.612 36.269,257.971 36.269 C 258.331 36.269,259.195 36.656,259.892 37.129 C 260.588 37.601,261.581 38.090,262.099 38.214 C 262.616 38.338,263.661 38.791,264.421 39.221 C 265.181 39.650,266.307 40.106,266.922 40.235 C 267.537 40.363,268.135 40.620,268.250 40.806 C 268.365 40.993,270.038 41.933,271.967 42.895 C 277.271 45.541,278.932 46.449,279.973 47.267 C 280.495 47.678,281.067 48.014,281.244 48.014 C 281.421 48.014,282.061 48.364,282.666 48.792 C 283.270 49.220,284.076 49.757,284.456 49.985 C 297.646 57.916,312.570 70.562,323.102 82.731 C 325.404 85.392,327.578 87.879,327.931 88.258 C 328.983 89.386,334.970 97.407,336.566 99.827 C 337.381 101.062,338.347 102.519,338.713 103.065 C 340.517 105.757,341.330 107.039,342.134 108.463 C 343.296 110.521,343.672 111.139,344.760 112.781 C 345.264 113.541,345.792 114.551,345.935 115.026 C 346.077 115.501,346.461 116.200,346.789 116.580 C 347.116 116.960,347.593 117.815,347.848 118.480 C 348.104 119.145,348.595 120.060,348.940 120.513 C 349.286 120.966,349.568 121.510,349.568 121.722 C 349.568 122.095,350.836 124.878,352.537 128.239 C 352.994 129.141,353.368 130.058,353.368 130.276 C 353.368 130.494,353.817 131.621,354.367 132.780 C 355.751 135.702,356.801 138.378,357.363 140.415 C 357.625 141.364,358.155 142.757,358.540 143.510 C 358.925 144.263,359.240 145.170,359.240 145.527 C 359.240 145.884,359.693 147.522,360.246 149.167 C 360.799 150.813,361.347 152.836,361.465 153.663 C 361.582 154.491,361.907 155.611,362.188 156.153 C 362.468 156.695,362.860 158.311,363.059 159.743 C 363.259 161.175,363.726 163.232,364.098 164.314 C 364.471 165.395,364.929 167.641,365.118 169.304 C 365.306 170.967,365.756 173.852,366.118 175.715 C 368.283 186.864,368.178 220.003,365.961 225.043 C 365.543 225.993,365.096 227.256,364.966 227.850 C 364.837 228.444,364.350 229.446,363.885 230.076 C 363.420 230.707,363.040 231.491,363.040 231.820 C 363.040 232.148,362.684 232.856,362.250 233.393 C 361.816 233.930,360.844 235.283,360.091 236.399 C 356.557 241.637,349.360 247.283,343.523 249.397 C 334.228 252.763,339.876 252.512,273.705 252.508 C 208.089 252.504,212.908 252.294,212.220 255.191 C 211.463 258.380,204.449 266.374,200.518 268.526 C 199.948 268.838,199.249 269.236,198.964 269.409 C 193.691 272.626,185.575 273.861,178.238 272.563 C 173.430 271.713,173.751 271.213,173.733 279.576 C 173.725 283.400,173.589 287.150,173.431 287.910 C 172.805 290.923,171.299 295.440,170.642 296.275 C 170.260 296.760,169.948 297.416,169.948 297.733 C 169.948 300.922,158.775 311.475,154.374 312.442 C 153.781 312.572,152.622 312.977,151.798 313.341 C 148.166 314.948,136.535 314.940,132.988 313.329 C 132.133 312.941,131.185 312.620,130.881 312.616 C 128.073 312.577,116.062 302.766,116.062 300.511 C 116.062 300.354,115.696 299.786,115.249 299.249 C 114.801 298.712,114.240 297.651,114.001 296.891 C 113.763 296.131,113.336 295.143,113.054 294.694 C 111.371 292.016,110.881 286.423,110.876 269.803 C 110.873 261.144,110.756 253.888,110.616 253.679 C 109.875 252.568,108.816 252.504,91.121 252.504 C 74.450 252.504,73.239 252.463,70.896 251.813 C 69.524 251.434,68.134 251.123,67.807 251.123 C 65.166 251.123,57.070 245.416,54.205 241.535 C 51.712 238.158,51.487 237.694,49.300 231.434 C 48.991 230.549,48.877 226.005,48.877 214.508 L 48.877 198.791 50.247 196.373 C 51.000 195.043,51.746 193.800,51.903 193.610 C 52.061 193.420,52.533 192.782,52.952 192.193 C 55.504 188.604,57.760 185.955,63.506 179.796 C 71.914 170.784,72.805 169.816,77.023 165.112 C 79.950 161.848,84.822 156.594,90.155 150.948 C 90.630 150.446,92.263 148.656,93.782 146.971 C 99.803 140.297,100.772 139.232,104.464 135.249 C 106.568 132.978,108.523 130.877,108.808 130.579 C 110.409 128.910,114.524 124.437,116.926 121.756 C 121.372 116.792,127.370 110.258,130.555 106.908 C 132.181 105.199,135.752 101.313,138.490 98.273 C 143.263 92.975,149.278 86.417,151.468 84.123 C 154.474 80.973,157.344 77.864,160.247 74.611 C 163.019 71.506,166.574 67.611,170.518 63.359 C 171.059 62.775,173.460 60.210,175.853 57.660 C 178.246 55.109,180.733 52.404,181.380 51.647 C 190.450 41.039,199.670 31.841,202.761 30.318 C 203.427 29.990,204.206 29.574,204.491 29.393 C 209.187 26.421,216.018 25.387,224.180 26.411 M215.199 47.863 C 212.732 48.745,213.268 48.242,203.926 58.438 C 198.039 64.863,198.016 64.924,201.496 64.950 C 202.288 64.956,204.646 65.269,206.736 65.645 C 208.826 66.021,212.319 66.573,214.499 66.871 C 216.680 67.169,219.007 67.640,219.670 67.918 C 220.334 68.195,222.041 68.584,223.464 68.782 C 224.887 68.980,226.479 69.363,227.001 69.633 C 227.524 69.903,228.992 70.366,230.263 70.661 C 231.534 70.955,233.134 71.476,233.817 71.817 C 234.501 72.158,235.760 72.610,236.615 72.821 C 237.470 73.032,238.785 73.522,239.538 73.908 C 240.290 74.295,241.089 74.611,241.312 74.611 C 241.536 74.611,242.785 75.093,244.089 75.681 C 248.120 77.499,250.927 78.815,251.468 79.138 C 251.753 79.309,252.763 79.845,253.713 80.329 C 256.403 81.700,262.062 85.061,265.837 87.530 C 269.591 89.985,270.165 90.410,274.611 94.022 C 276.036 95.180,277.979 96.710,278.929 97.423 C 281.483 99.339,290.288 108.165,293.265 111.792 C 299.713 119.649,299.642 119.555,303.738 125.734 C 304.808 127.349,305.960 129.048,306.296 129.510 C 307.490 131.148,311.711 139.208,314.177 144.560 C 316.552 149.715,317.249 151.435,318.621 155.527 C 318.923 156.429,319.419 157.906,319.722 158.808 C 320.025 159.711,320.494 161.304,320.763 162.349 C 321.033 163.394,321.633 165.492,322.096 167.012 C 322.560 168.532,323.037 170.688,323.158 171.803 C 323.278 172.919,323.605 174.473,323.884 175.258 C 324.298 176.420,325.382 185.618,325.387 188.014 C 325.390 189.365,327.234 189.637,336.378 189.637 C 345.464 189.637,346.498 189.447,345.968 187.874 C 345.879 187.609,345.640 184.973,345.436 182.016 C 345.222 178.917,344.793 175.685,344.421 174.386 C 344.067 173.147,343.671 171.136,343.541 169.918 C 343.411 168.700,342.938 166.537,342.491 165.112 C 342.044 163.687,341.575 161.744,341.450 160.794 C 341.324 159.845,340.945 158.437,340.608 157.667 C 340.271 156.897,339.880 155.502,339.740 154.566 C 339.600 153.631,339.197 152.300,338.844 151.609 C 338.491 150.918,338.019 149.593,337.794 148.665 C 337.569 147.737,337.112 146.511,336.778 145.941 C 336.444 145.371,336.062 144.361,335.928 143.696 C 335.794 143.031,335.409 142.008,335.073 141.423 C 334.737 140.837,334.269 139.775,334.034 139.063 C 333.799 138.350,333.236 137.119,332.783 136.327 C 332.330 135.536,331.958 134.637,331.956 134.330 C 331.954 134.023,331.663 133.401,331.311 132.948 C 330.959 132.495,330.473 131.503,330.231 130.743 C 329.989 129.983,329.598 129.128,329.361 128.843 C 329.124 128.558,328.237 126.998,327.389 125.377 C 326.541 123.756,325.563 121.968,325.215 121.404 C 323.662 118.888,317.864 109.954,317.377 109.326 C 317.229 109.136,316.735 108.512,316.277 107.939 C 315.820 107.366,314.352 105.440,313.014 103.659 C 306.912 95.532,292.055 80.959,284.811 75.993 C 284.118 75.518,282.948 74.663,282.211 74.093 C 280.185 72.527,278.933 71.665,275.822 69.694 C 275.443 69.454,274.565 68.830,273.872 68.307 C 273.179 67.785,272.461 67.358,272.277 67.358 C 272.092 67.358,271.545 67.046,271.060 66.665 C 270.576 66.284,268.806 65.253,267.128 64.375 C 265.449 63.498,263.843 62.586,263.558 62.349 C 263.273 62.112,262.469 61.735,261.772 61.511 C 261.075 61.288,260.317 60.879,260.089 60.604 C 259.861 60.329,259.498 60.106,259.284 60.109 C 259.070 60.112,257.807 59.589,256.477 58.946 C 251.485 56.536,250.177 55.959,249.706 55.957 C 249.440 55.957,248.290 55.491,247.150 54.922 C 246.010 54.354,244.782 53.888,244.420 53.887 C 244.059 53.887,242.970 53.515,242.002 53.061 C 241.034 52.607,239.542 52.122,238.687 51.983 C 237.832 51.844,236.589 51.459,235.924 51.127 C 235.259 50.794,233.965 50.413,233.049 50.280 C 232.133 50.146,230.423 49.677,229.250 49.238 C 228.076 48.799,226.109 48.324,224.878 48.183 C 223.648 48.043,222.035 47.714,221.294 47.453 C 219.457 46.805,217.852 46.913,215.199 47.863 M176.385 88.479 C 175.188 89.686,173.146 91.839,171.847 93.264 C 170.548 94.689,168.528 96.865,167.358 98.100 C 166.187 99.335,163.921 101.838,162.321 103.661 C 159.376 107.019,151.959 115.061,148.017 119.171 C 146.833 120.406,144.421 123.048,142.659 125.043 C 139.996 128.058,134.332 134.206,130.570 138.168 C 130.095 138.668,128.385 140.529,126.770 142.304 C 125.155 144.079,123.446 145.947,122.971 146.455 C 122.496 146.963,120.242 149.445,117.962 151.970 C 115.682 154.495,113.117 157.301,112.263 158.206 C 108.466 162.224,103.430 167.686,100.000 171.508 C 96.013 175.950,89.656 182.836,86.772 185.838 C 84.868 187.820,84.304 188.631,84.370 189.292 L 84.456 190.155 94.819 190.375 C 105.737 190.607,109.248 191.013,111.785 192.336 C 112.522 192.721,114.214 193.550,115.544 194.177 C 120.149 196.350,124.482 200.479,127.591 205.657 C 127.947 206.250,128.515 207.136,128.852 207.625 C 129.189 208.114,129.699 209.358,129.984 210.389 C 130.270 211.419,130.789 212.962,131.139 213.817 C 131.738 215.281,131.785 217.403,131.950 250.432 L 132.124 285.492 133.232 287.611 C 137.109 295.029,146.865 295.405,150.947 288.294 L 152.159 286.183 152.332 242.142 L 152.504 198.100 153.455 196.101 C 157.453 187.698,167.791 187.474,172.742 195.682 L 173.575 197.064 173.748 220.380 L 173.921 243.696 174.857 245.596 C 178.937 253.878,188.984 254.079,193.081 245.961 L 194.057 244.028 194.209 229.700 L 194.361 215.371 195.469 212.090 C 196.630 208.653,198.293 205.145,199.317 203.972 C 199.649 203.592,200.018 202.958,200.138 202.563 C 200.695 200.719,208.567 194.042,211.119 193.249 C 211.558 193.113,212.306 192.731,212.781 192.401 C 213.256 192.071,215.398 191.315,217.541 190.719 L 221.438 189.637 262.031 189.637 C 296.974 189.637,302.761 189.567,303.602 189.132 L 304.579 188.627 304.100 186.628 C 303.836 185.528,303.462 183.019,303.268 181.052 C 303.074 179.085,302.684 176.923,302.402 176.247 C 302.120 175.572,301.721 173.917,301.515 172.570 C 301.309 171.223,300.854 169.421,300.504 168.566 C 300.153 167.712,299.628 166.040,299.335 164.851 C 299.043 163.663,298.580 162.341,298.305 161.915 C 298.030 161.489,297.695 160.518,297.560 159.758 C 297.424 158.998,297.045 157.988,296.716 157.513 C 296.387 157.038,296.009 156.261,295.874 155.786 C 295.595 154.795,291.305 146.102,289.824 143.523 C 289.278 142.573,288.433 141.097,287.947 140.242 C 287.460 139.387,286.596 138.066,286.028 137.306 C 285.459 136.546,284.733 135.535,284.415 135.060 C 282.209 131.773,281.363 130.657,278.394 127.116 C 274.072 121.961,270.222 118.108,264.416 113.127 C 259.979 109.321,258.441 108.154,253.886 105.137 C 252.841 104.445,251.191 103.351,250.219 102.706 C 249.247 102.061,247.425 101.018,246.171 100.387 C 244.917 99.755,243.691 99.083,243.448 98.892 C 243.204 98.702,242.493 98.374,241.867 98.163 C 241.241 97.952,240.299 97.474,239.774 97.100 C 239.248 96.725,238.361 96.309,237.803 96.174 C 237.244 96.040,236.152 95.563,235.376 95.115 C 234.599 94.667,233.666 94.296,233.303 94.290 C 232.940 94.284,231.714 93.817,230.579 93.253 C 229.444 92.689,228.200 92.226,227.815 92.225 C 227.431 92.223,226.333 91.857,225.377 91.411 C 224.420 90.966,222.916 90.493,222.034 90.361 C 221.151 90.229,219.602 89.830,218.591 89.475 C 217.580 89.120,215.509 88.658,213.990 88.448 C 212.470 88.238,210.060 87.740,208.636 87.342 C 206.260 86.678,204.901 86.604,192.304 86.451 L 178.562 86.284 176.385 88.479 M219.689 107.401 C 222.008 108.030,225.451 109.396,226.452 110.085 C 227.007 110.466,228.362 111.376,229.464 112.107 C 234.183 115.239,240.760 123.517,240.760 126.325 C 240.760 126.670,241.093 127.573,241.501 128.330 C 243.199 131.486,243.188 143.978,241.484 147.393 C 241.086 148.191,240.760 149.082,240.760 149.374 C 240.760 152.422,230.313 164.753,227.718 164.768 C 227.577 164.769,226.762 165.235,225.907 165.803 C 225.052 166.371,224.076 166.837,223.737 166.838 C 223.399 166.839,222.156 167.267,220.974 167.789 C 217.978 169.114,205.306 169.265,202.936 168.004 C 202.176 167.600,201.021 167.154,200.368 167.013 C 198.325 166.571,192.834 163.170,190.274 160.761 C 188.845 159.415,184.801 154.420,184.801 154.000 C 184.801 153.816,184.335 152.987,183.765 152.159 C 183.195 151.331,182.729 150.385,182.729 150.057 C 182.729 149.730,182.356 148.670,181.899 147.702 C 181.270 146.365,180.992 144.964,180.747 141.883 C 180.299 136.266,180.793 130.295,181.899 127.946 C 182.356 126.978,182.729 125.959,182.729 125.682 C 182.729 125.405,183.195 124.443,183.765 123.544 C 184.335 122.646,184.801 121.781,184.801 121.622 C 184.801 121.180,187.457 117.851,189.609 115.596 C 193.627 111.386,200.332 107.766,205.354 107.096 C 208.185 106.718,217.936 106.926,219.689 107.401 M208.556 128.339 C 198.962 130.962,199.683 145.644,209.497 147.495 C 217.078 148.926,222.550 143.432,221.268 135.677 C 220.311 129.896,214.703 126.658,208.556 128.339 M145.416 148.679 C 154.106 151.715,155.584 161.934,148.122 167.396 L 146.287 168.739 142.459 168.739 C 136.466 168.739,132.533 165.302,131.717 159.353 C 131.241 155.882,134.551 150.395,137.824 149.226 C 138.489 148.989,139.577 148.587,140.242 148.333 C 141.952 147.680,142.700 147.730,145.416 148.679 M272.625 148.939 C 280.655 151.857,281.757 162.399,274.559 167.444 L 272.712 168.739 268.912 168.739 C 255.832 168.739,254.321 152.374,267.012 148.157 C 268.163 147.775,270.202 148.059,272.625 148.939 M224.352 211.054 C 220.537 211.371,216.444 214.985,215.857 218.554 C 215.335 221.726,215.485 229.814,216.082 230.666 L 216.619 231.434 273.336 231.425 C 305.145 231.421,330.583 231.283,331.261 231.111 C 338.594 229.253,344.353 224.202,345.661 218.480 C 346.893 213.096,346.988 212.125,346.345 211.482 C 345.758 210.895,231.092 210.492,224.352 211.054 M70.664 211.942 C 70.035 212.570,70.044 212.448,70.093 220.380 C 70.136 227.205,70.356 228.241,72.039 229.524 C 74.584 231.465,74.242 231.434,92.562 231.434 C 112.904 231.434,110.881 232.039,110.881 225.949 C 110.881 217.736,109.179 214.316,104.078 212.274 L 101.893 211.399 86.550 211.399 C 73.062 211.399,71.141 211.465,70.664 211.942 " stroke="none" fill="#fc4b4b" fill-rule="evenodd"></path><path id="path1" d="M212.781 26.434 C 210.226 26.816,206.411 28.178,204.491 29.393 C 204.206 29.574,203.427 29.990,202.761 30.318 C 199.670 31.841,190.450 41.039,181.380 51.647 C 180.733 52.404,178.246 55.109,175.853 57.660 C 173.460 60.210,171.059 62.775,170.518 63.359 C 166.574 67.611,163.019 71.506,160.247 74.611 C 157.344 77.864,154.474 80.973,151.468 84.123 C 149.278 86.417,143.263 92.975,138.490 98.273 C 135.752 101.313,132.181 105.199,130.555 106.908 C 127.370 110.258,121.372 116.792,116.926 121.756 C 114.524 124.437,110.409 128.910,108.808 130.579 C 108.523 130.877,106.568 132.978,104.464 135.249 C 100.772 139.232,99.803 140.297,93.782 146.971 C 92.263 148.656,90.630 150.446,90.155 150.948 C 84.822 156.594,79.950 161.848,77.023 165.112 C 72.805 169.816,71.914 170.784,63.506 179.796 C 57.760 185.955,55.504 188.604,52.952 192.193 C 52.533 192.782,52.061 193.420,51.903 193.610 C 51.746 193.800,51.000 195.043,50.247 196.373 L 48.877 198.791 48.877 214.508 C 48.877 226.005,48.991 230.549,49.300 231.434 C 51.487 237.694,51.712 238.158,54.205 241.535 C 57.070 245.416,65.166 251.123,67.807 251.123 C 68.134 251.123,69.524 251.434,70.896 251.813 C 73.239 252.463,74.450 252.504,91.121 252.504 C 108.816 252.504,109.875 252.568,110.616 253.679 C 110.756 253.888,110.873 261.144,110.876 269.803 C 110.881 286.423,111.371 292.016,113.054 294.694 C 113.336 295.143,113.763 296.131,114.001 296.891 C 114.240 297.651,114.801 298.712,115.249 299.249 C 115.696 299.786,116.062 300.354,116.062 300.511 C 116.062 302.766,128.073 312.577,130.881 312.616 C 131.185 312.620,132.133 312.941,132.988 313.329 C 136.535 314.940,148.166 314.948,151.798 313.341 C 152.622 312.977,153.781 312.572,154.374 312.442 C 158.775 311.475,169.948 300.922,169.948 297.733 C 169.948 297.416,170.260 296.760,170.642 296.275 C 171.299 295.440,172.805 290.923,173.431 287.910 C 173.589 287.150,173.725 283.400,173.733 279.576 C 173.751 271.213,173.430 271.713,178.238 272.563 C 185.575 273.861,193.691 272.626,198.964 269.409 C 199.249 269.236,199.948 268.838,200.518 268.526 C 204.449 266.374,211.463 258.380,212.220 255.191 C 212.908 252.294,208.089 252.504,273.705 252.508 C 339.876 252.512,334.228 252.763,343.523 249.397 C 349.360 247.283,356.557 241.637,360.091 236.399 C 360.844 235.283,361.816 233.930,362.250 233.393 C 362.684 232.856,363.040 232.148,363.040 231.820 C 363.040 231.491,363.420 230.707,363.885 230.076 C 364.350 229.446,364.837 228.444,364.966 227.850 C 365.096 227.256,365.543 225.993,365.961 225.043 C 368.178 220.003,368.283 186.864,366.118 175.715 C 365.756 173.852,365.306 170.967,365.118 169.304 C 364.929 167.641,364.471 165.395,364.098 164.314 C 363.726 163.232,363.259 161.175,363.059 159.743 C 362.860 158.311,362.468 156.695,362.188 156.153 C 361.907 155.611,361.582 154.491,361.465 153.663 C 361.347 152.836,360.799 150.813,360.246 149.167 C 359.693 147.522,359.240 145.884,359.240 145.527 C 359.240 145.170,358.925 144.263,358.540 143.510 C 358.155 142.757,357.625 141.364,357.363 140.415 C 356.801 138.378,355.751 135.702,354.367 132.780 C 353.817 131.621,353.368 130.494,353.368 130.276 C 353.368 130.058,352.994 129.141,352.537 128.239 C 350.836 124.878,349.568 122.095,349.568 121.722 C 349.568 121.510,349.286 120.966,348.940 120.513 C 348.595 120.060,348.104 119.145,347.848 118.480 C 347.593 117.815,347.116 116.960,346.789 116.580 C 346.461 116.200,346.077 115.501,345.935 115.026 C 345.792 114.551,345.264 113.541,344.760 112.781 C 343.672 111.139,343.296 110.521,342.134 108.463 C 341.330 107.039,340.517 105.757,338.713 103.065 C 338.347 102.519,337.381 101.062,336.566 99.827 C 334.970 97.407,328.983 89.386,327.931 88.258 C 327.578 87.879,325.404 85.392,323.102 82.731 C 312.570 70.562,297.646 57.916,284.456 49.985 C 284.076 49.757,283.270 49.220,282.666 48.792 C 282.061 48.364,281.421 48.014,281.244 48.014 C 281.067 48.014,280.495 47.678,279.973 47.267 C 278.932 46.449,277.271 45.541,271.967 42.895 C 270.038 41.933,268.365 40.993,268.250 40.806 C 268.135 40.620,267.537 40.363,266.922 40.235 C 266.307 40.106,265.181 39.650,264.421 39.221 C 263.661 38.791,262.616 38.338,262.099 38.214 C 261.581 38.090,260.588 37.601,259.892 37.129 C 259.195 36.656,258.331 36.269,257.971 36.269 C 257.612 36.269,256.576 35.894,255.669 35.434 C 254.762 34.975,253.409 34.484,252.661 34.344 C 251.913 34.203,250.616 33.724,249.779 33.279 C 248.941 32.834,247.964 32.470,247.607 32.470 C 247.249 32.470,246.068 32.101,244.981 31.650 C 243.894 31.200,242.383 30.724,241.623 30.593 C 240.864 30.462,239.128 29.976,237.766 29.513 C 236.404 29.049,234.893 28.670,234.409 28.670 C 233.924 28.670,232.318 28.274,230.840 27.790 C 225.751 26.123,218.497 25.578,212.781 26.434 M221.294 47.453 C 222.035 47.714,223.648 48.043,224.878 48.183 C 226.109 48.324,228.076 48.799,229.250 49.238 C 230.423 49.677,232.133 50.146,233.049 50.280 C 233.965 50.413,235.259 50.794,235.924 51.127 C 236.589 51.459,237.832 51.844,238.687 51.983 C 239.542 52.122,241.034 52.607,242.002 53.061 C 242.970 53.515,244.059 53.887,244.420 53.887 C 244.782 53.888,246.010 54.354,247.150 54.922 C 248.290 55.491,249.440 55.957,249.706 55.957 C 250.177 55.959,251.485 56.536,256.477 58.946 C 257.807 59.589,259.070 60.112,259.284 60.109 C 259.498 60.106,259.861 60.329,260.089 60.604 C 260.317 60.879,261.075 61.288,261.772 61.511 C 262.469 61.735,263.273 62.112,263.558 62.349 C 263.843 62.586,265.449 63.498,267.128 64.375 C 268.806 65.253,270.576 66.284,271.060 66.665 C 271.545 67.046,272.092 67.358,272.277 67.358 C 272.461 67.358,273.179 67.785,273.872 68.307 C 274.565 68.830,275.443 69.454,275.822 69.694 C 278.933 71.665,280.185 72.527,282.211 74.093 C 282.948 74.663,284.118 75.518,284.811 75.993 C 292.055 80.959,306.912 95.532,313.014 103.659 C 314.352 105.440,315.820 107.366,316.277 107.939 C 316.735 108.512,317.229 109.136,317.377 109.326 C 317.864 109.954,323.662 118.888,325.215 121.404 C 325.563 121.968,326.541 123.756,327.389 125.377 C 328.237 126.998,329.124 128.558,329.361 128.843 C 329.598 129.128,329.989 129.983,330.231 130.743 C 330.473 131.503,330.959 132.495,331.311 132.948 C 331.663 133.401,331.954 134.023,331.956 134.330 C 331.958 134.637,332.330 135.536,332.783 136.327 C 333.236 137.119,333.799 138.350,334.034 139.063 C 334.269 139.775,334.737 140.837,335.073 141.423 C 335.409 142.008,335.794 143.031,335.928 143.696 C 336.062 144.361,336.444 145.371,336.778 145.941 C 337.112 146.511,337.569 147.737,337.794 148.665 C 338.019 149.593,338.491 150.918,338.844 151.609 C 339.197 152.300,339.600 153.631,339.740 154.566 C 339.880 155.502,340.271 156.897,340.608 157.667 C 340.945 158.437,341.324 159.845,341.450 160.794 C 341.575 161.744,342.044 163.687,342.491 165.112 C 342.938 166.537,343.411 168.700,343.541 169.918 C 343.671 171.136,344.067 173.147,344.421 174.386 C 344.793 175.685,345.222 178.917,345.436 182.016 C 345.640 184.973,345.879 187.609,345.968 187.874 C 346.498 189.447,345.464 189.637,336.378 189.637 C 327.234 189.637,325.390 189.365,325.387 188.014 C 325.382 185.618,324.298 176.420,323.884 175.258 C 323.605 174.473,323.278 172.919,323.158 171.803 C 323.037 170.688,322.560 168.532,322.096 167.012 C 321.633 165.492,321.033 163.394,320.763 162.349 C 320.494 161.304,320.025 159.711,319.722 158.808 C 319.419 157.906,318.923 156.429,318.621 155.527 C 317.249 151.435,316.552 149.715,314.177 144.560 C 311.711 139.208,307.490 131.148,306.296 129.510 C 305.960 129.048,304.808 127.349,303.738 125.734 C 299.642 119.555,299.713 119.649,293.265 111.792 C 290.288 108.165,281.483 99.339,278.929 97.423 C 277.979 96.710,276.036 95.180,274.611 94.022 C 270.165 90.410,269.591 89.985,265.837 87.530 C 262.062 85.061,256.403 81.700,253.713 80.329 C 252.763 79.845,251.753 79.309,251.468 79.138 C 250.927 78.815,248.120 77.499,244.089 75.681 C 242.785 75.093,241.536 74.611,241.312 74.611 C 241.089 74.611,240.290 74.295,239.538 73.908 C 238.785 73.522,237.470 73.032,236.615 72.821 C 235.760 72.610,234.501 72.158,233.817 71.817 C 233.134 71.476,231.534 70.955,230.263 70.661 C 228.992 70.366,227.524 69.903,227.001 69.633 C 226.479 69.363,224.887 68.980,223.464 68.782 C 222.041 68.584,220.334 68.195,219.670 67.918 C 219.007 67.640,216.680 67.169,214.499 66.871 C 212.319 66.573,208.826 66.021,206.736 65.645 C 204.646 65.269,202.288 64.956,201.496 64.950 C 199.853 64.938,198.964 64.670,198.964 64.187 C 198.964 63.898,204.374 57.861,210.921 50.844 C 213.918 47.633,218.011 46.294,221.294 47.453 M208.636 87.342 C 210.060 87.740,212.470 88.238,213.990 88.448 C 215.509 88.658,217.580 89.120,218.591 89.475 C 219.602 89.830,221.151 90.229,222.034 90.361 C 222.916 90.493,224.420 90.966,225.377 91.411 C 226.333 91.857,227.431 92.223,227.815 92.225 C 228.200 92.226,229.444 92.689,230.579 93.253 C 231.714 93.817,232.940 94.284,233.303 94.290 C 233.666 94.296,234.599 94.667,235.376 95.115 C 236.152 95.563,237.244 96.040,237.803 96.174 C 238.361 96.309,239.248 96.725,239.774 97.100 C 240.299 97.474,241.241 97.952,241.867 98.163 C 242.493 98.374,243.204 98.702,243.448 98.892 C 243.691 99.083,244.917 99.755,246.171 100.387 C 247.425 101.018,249.247 102.061,250.219 102.706 C 251.191 103.351,252.841 104.445,253.886 105.137 C 258.441 108.154,259.979 109.321,264.416 113.127 C 270.222 118.108,274.072 121.961,278.394 127.116 C 281.363 130.657,282.209 131.773,284.415 135.060 C 284.733 135.535,285.459 136.546,286.028 137.306 C 286.596 138.066,287.460 139.387,287.947 140.242 C 288.433 141.097,289.278 142.573,289.824 143.523 C 291.305 146.102,295.595 154.795,295.874 155.786 C 296.009 156.261,296.387 157.038,296.716 157.513 C 297.045 157.988,297.424 158.998,297.560 159.758 C 297.695 160.518,298.030 161.489,298.305 161.915 C 298.580 162.341,299.043 163.663,299.335 164.851 C 299.628 166.040,300.153 167.712,300.504 168.566 C 300.854 169.421,301.309 171.223,301.515 172.570 C 301.721 173.917,302.120 175.572,302.402 176.247 C 302.684 176.923,303.074 179.085,303.268 181.052 C 303.462 183.019,303.836 185.528,304.100 186.628 L 304.579 188.627 303.602 189.132 C 302.761 189.567,296.974 189.637,262.031 189.637 L 221.438 189.637 217.541 190.719 C 215.398 191.315,213.256 192.071,212.781 192.401 C 212.306 192.731,211.558 193.113,211.119 193.249 C 208.567 194.042,200.695 200.719,200.138 202.563 C 200.018 202.958,199.649 203.592,199.317 203.972 C 198.293 205.145,196.630 208.653,195.469 212.090 L 194.361 215.371 194.209 229.700 L 194.057 244.028 193.081 245.961 C 188.984 254.079,178.937 253.878,174.857 245.596 L 173.921 243.696 173.748 220.380 L 173.575 197.064 172.742 195.682 C 167.791 187.474,157.453 187.698,153.455 196.101 L 152.504 198.100 152.332 242.142 L 152.159 286.183 150.947 288.294 C 146.865 295.405,137.109 295.029,133.232 287.611 L 132.124 285.492 131.950 250.432 C 131.785 217.403,131.738 215.281,131.139 213.817 C 130.789 212.962,130.270 211.419,129.984 210.389 C 129.699 209.358,129.189 208.114,128.852 207.625 C 128.515 207.136,127.947 206.250,127.591 205.657 C 124.482 200.479,120.149 196.350,115.544 194.177 C 114.214 193.550,112.522 192.721,111.785 192.336 C 109.248 191.013,105.737 190.607,94.819 190.375 L 84.456 190.155 84.370 189.292 C 84.304 188.631,84.868 187.820,86.772 185.838 C 89.656 182.836,96.013 175.950,100.000 171.508 C 103.430 167.686,108.466 162.224,112.263 158.206 C 113.117 157.301,115.682 154.495,117.962 151.970 C 120.242 149.445,122.496 146.963,122.971 146.455 C 123.446 145.947,125.155 144.079,126.770 142.304 C 128.385 140.529,130.095 138.668,130.570 138.168 C 134.332 134.206,139.996 128.058,142.659 125.043 C 144.421 123.048,146.833 120.406,148.017 119.171 C 151.959 115.061,159.376 107.019,162.321 103.661 C 163.921 101.838,166.187 99.335,167.358 98.100 C 168.528 96.865,170.548 94.689,171.847 93.264 C 173.146 91.839,175.188 89.686,176.385 88.479 L 178.562 86.284 192.304 86.451 C 204.901 86.604,206.260 86.678,208.636 87.342 M205.354 107.096 C 200.332 107.766,193.627 111.386,189.609 115.596 C 187.457 117.851,184.801 121.180,184.801 121.622 C 184.801 121.781,184.335 122.646,183.765 123.544 C 183.195 124.443,182.729 125.405,182.729 125.682 C 182.729 125.959,182.356 126.978,181.899 127.946 C 180.793 130.295,180.299 136.266,180.747 141.883 C 180.992 144.964,181.270 146.365,181.899 147.702 C 182.356 148.670,182.729 149.730,182.729 150.057 C 182.729 150.385,183.195 151.331,183.765 152.159 C 184.335 152.987,184.801 153.816,184.801 154.000 C 184.801 154.420,188.845 159.415,190.274 160.761 C 192.834 163.170,198.325 166.571,200.368 167.013 C 201.021 167.154,202.176 167.600,202.936 168.004 C 205.306 169.265,217.978 169.114,220.974 167.789 C 222.156 167.267,223.399 166.839,223.737 166.838 C 224.076 166.837,225.052 166.371,225.907 165.803 C 226.762 165.235,227.577 164.769,227.718 164.768 C 230.313 164.753,240.760 152.422,240.760 149.374 C 240.760 149.082,241.086 148.191,241.484 147.393 C 243.188 143.978,243.199 131.486,241.501 128.330 C 241.093 127.573,240.760 126.670,240.760 126.325 C 240.760 123.517,234.183 115.239,229.464 112.107 C 228.362 111.376,227.007 110.466,226.452 110.085 C 225.451 109.396,222.008 108.030,219.689 107.401 C 217.936 106.926,208.185 106.718,205.354 107.096 M214.589 128.346 C 224.156 130.825,223.692 145.665,213.991 147.495 C 206.308 148.945,200.343 143.003,201.986 135.536 C 203.262 129.736,208.476 126.762,214.589 128.346 M140.242 148.333 C 139.577 148.587,138.489 148.989,137.824 149.226 C 134.551 150.395,131.241 155.882,131.717 159.353 C 132.533 165.302,136.466 168.739,142.459 168.739 L 146.287 168.739 148.122 167.396 C 155.584 161.934,154.106 151.715,145.416 148.679 C 142.700 147.730,141.952 147.680,140.242 148.333 M267.012 148.157 C 254.321 152.374,255.832 168.739,268.912 168.739 L 272.712 168.739 274.559 167.444 C 278.033 165.010,279.166 162.873,279.180 158.734 C 279.193 154.932,278.711 153.696,276.282 151.305 C 273.914 148.974,269.284 147.402,267.012 148.157 M346.345 211.482 C 346.988 212.125,346.893 213.096,345.661 218.480 C 344.353 224.202,338.594 229.253,331.261 231.111 C 330.583 231.283,305.145 231.421,273.336 231.425 L 216.619 231.434 216.082 230.666 C 215.485 229.814,215.335 221.726,215.857 218.554 C 216.444 214.985,220.537 211.371,224.352 211.054 C 231.092 210.492,345.758 210.895,346.345 211.482 M104.078 212.274 C 109.179 214.316,110.881 217.736,110.881 225.949 C 110.881 232.039,112.904 231.434,92.562 231.434 C 68.594 231.434,69.428 232.102,70.088 213.410 C 70.161 211.350,69.759 211.399,86.550 211.399 L 101.893 211.399 104.078 212.274 " stroke="none" fill="#fcf8f8" fill-rule="evenodd"></path></g></svg>