<svg id="svg" version="1.1" xmlns="http://www.w3.org/2000/svg" xmlns:xlink="http://www.w3.org/1999/xlink" width="400" height="358.07365439093485" viewBox="0, 0, 400,358.07365439093485"><g id="svgg"><path id="path0" d="M199.105 5.949 C 198.415 6.024,196.000 6.263,193.738 6.479 C 158.302 9.869,129.591 39.980,127.528 75.918 C 126.222 98.676,134.196 118.787,150.933 134.951 L 154.771 138.658 154.664 193.859 L 154.557 249.060 155.362 250.850 C 157.580 255.785,163.268 258.479,168.335 256.993 C 169.673 256.601,172.396 254.973,177.081 251.765 C 200.844 235.494,201.863 234.833,202.583 235.218 C 203.196 235.547,213.502 242.496,222.560 248.690 C 233.027 255.846,234.434 256.724,236.099 257.140 C 240.978 258.360,246.400 255.591,248.644 250.734 L 249.418 249.060 249.597 193.545 L 249.776 138.029 251.383 136.606 C 291.855 100.777,281.858 34.175,232.766 12.581 C 231.289 11.932,229.758 11.252,229.364 11.072 C 222.626 7.984,206.100 5.186,199.105 5.949 M209.669 27.966 C 224.849 30.201,238.000 38.620,246.535 51.567 C 248.784 54.978,251.515 60.331,251.963 62.204 C 252.095 62.755,252.319 63.366,252.461 63.563 C 252.603 63.760,253.056 65.291,253.468 66.965 C 259.691 92.254,248.247 117.160,225.246 128.384 C 197.221 142.061,163.240 128.554,152.258 99.373 C 140.292 67.575,160.953 32.613,194.449 27.979 C 200.123 27.194,204.399 27.191,209.669 27.966 M77.171 112.326 C 67.741 114.399,60.587 120.698,57.564 129.591 L 56.759 131.961 56.664 201.875 L 56.568 271.789 55.768 271.967 C 55.328 272.065,51.746 272.188,47.807 272.241 C 38.838 272.361,36.632 273.371,34.307 278.424 C 33.340 280.526,32.830 313.021,33.652 320.172 C 34.861 330.686,41.458 338.797,51.481 342.090 L 53.894 342.883 201.970 342.883 L 350.045 342.883 352.498 342.077 C 362.077 338.934,368.724 331.261,370.261 321.576 C 370.830 317.991,370.750 281.274,370.169 279.678 C 367.919 273.484,365.810 272.395,355.595 272.158 L 347.896 271.979 347.709 202.507 L 347.522 133.035 346.731 130.528 C 343.811 121.273,337.469 115.081,328.580 112.808 C 325.936 112.131,324.632 112.086,307.910 112.086 L 290.063 112.086 290.063 122.637 L 290.063 133.187 306.868 133.290 C 325.429 133.404,325.255 133.381,325.918 135.753 C 326.235 136.886,326.300 242.131,325.994 258.849 L 325.757 271.799 285.150 271.799 C 241.455 271.799,242.633 271.750,239.435 273.711 C 237.870 274.670,234.915 278.377,234.915 279.380 C 234.915 279.862,230.976 289.094,230.552 289.605 C 230.129 290.115,174.201 290.295,173.488 289.789 C 173.285 289.644,172.013 286.867,170.662 283.617 C 167.703 276.496,166.994 275.414,164.011 273.457 C 161.474 271.792,161.665 271.799,118.731 271.799 L 78.066 271.799 78.066 203.733 L 78.066 135.666 79.053 134.678 L 80.040 133.691 92.541 133.453 C 99.416 133.321,107.351 133.214,110.175 133.214 L 115.309 133.214 115.309 122.650 L 115.309 112.086 96.598 112.127 C 86.307 112.150,77.565 112.240,77.171 112.326 M177.880 151.260 C 179.094 151.709,181.115 152.300,184.781 153.278 C 196.077 156.294,213.328 155.591,225.006 151.640 C 226.385 151.174,227.648 150.875,227.812 150.977 C 228.307 151.283,228.191 225.962,227.695 225.962 C 227.467 225.962,226.057 225.131,224.562 224.116 C 200.226 207.582,203.449 208.023,187.113 218.992 C 181.659 222.655,176.969 225.739,176.691 225.845 C 176.259 226.011,176.186 220.643,176.186 188.400 C 176.186 167.699,176.264 150.761,176.358 150.761 C 176.453 150.761,177.137 150.986,177.880 151.260 M153.676 299.015 C 154.859 301.871,156.047 304.691,156.314 305.282 C 157.184 307.201,159.329 309.335,161.424 310.363 L 163.474 311.370 201.970 311.370 L 240.466 311.370 242.515 310.363 C 245.493 308.902,246.743 307.204,249.257 301.205 C 250.463 298.326,251.686 295.448,251.973 294.808 L 252.496 293.644 300.823 293.644 L 349.150 293.644 349.150 306.212 C 349.150 320.339,349.147 320.353,346.565 321.386 C 344.547 322.193,59.402 322.225,57.472 321.418 C 54.837 320.317,54.792 320.065,54.791 306.086 L 54.790 293.641 103.157 293.732 L 151.525 293.823 153.676 299.015 " stroke="none" fill="#1d2d45" fill-rule="evenodd"></path><path id="path1" d="M0.000 179.051 L 0.000 358.102 200.000 358.102 L 400.000 358.102 400.000 179.051 L 400.000 0.000 200.000 0.000 L 0.000 0.000 0.000 179.051 M208.554 5.747 C 213.511 6.316,218.939 7.239,219.320 7.577 C 219.507 7.743,220.071 7.884,220.573 7.891 C 221.075 7.898,223.339 8.553,225.604 9.345 C 227.869 10.137,230.085 10.875,230.528 10.985 C 230.971 11.095,231.334 11.327,231.334 11.501 C 231.334 11.675,231.585 11.817,231.892 11.817 C 232.555 11.817,238.980 15.046,239.152 15.466 C 239.218 15.626,239.446 15.756,239.658 15.756 C 240.010 15.756,243.443 17.794,243.868 18.255 C 243.966 18.362,244.691 18.874,245.479 19.393 C 249.923 22.323,257.890 29.918,261.385 34.557 C 265.844 40.474,269.046 46.105,271.771 52.820 C 271.931 53.214,272.244 53.939,272.466 54.432 C 273.041 55.704,274.306 59.802,274.306 60.392 C 274.306 60.664,274.454 61.167,274.635 61.509 C 274.968 62.138,275.651 65.288,276.517 70.188 C 277.128 73.645,277.159 87.796,276.562 90.779 C 276.325 91.961,275.857 94.378,275.522 96.150 C 275.186 97.923,274.776 99.526,274.609 99.714 C 274.442 99.901,274.306 100.317,274.306 100.638 C 274.306 101.446,272.852 106.100,272.470 106.517 C 272.298 106.705,272.158 107.056,272.158 107.298 C 272.158 107.986,268.323 116.332,267.819 116.741 C 267.698 116.840,267.486 117.283,267.347 117.726 C 267.209 118.169,266.946 118.532,266.762 118.532 C 266.578 118.532,266.428 118.731,266.428 118.975 C 266.428 119.355,263.393 124.111,262.826 124.620 C 262.716 124.718,262.394 125.136,262.110 125.548 C 260.656 127.658,258.353 130.232,254.369 134.198 L 249.964 138.585 249.870 194.001 L 249.776 249.418 248.765 251.477 C 248.209 252.610,247.605 253.536,247.423 253.536 C 247.240 253.536,247.090 253.778,247.090 254.073 C 247.090 254.548,251.686 254.611,286.303 254.611 L 325.515 254.611 325.515 195.049 L 325.515 135.487 324.690 134.712 C 323.871 133.943,323.740 133.937,306.874 133.844 L 289.884 133.751 289.884 122.650 L 289.884 111.549 305.819 111.436 C 323.892 111.307,328.946 111.720,332.498 113.613 C 332.892 113.823,333.993 114.387,334.945 114.865 C 339.445 117.126,346.285 125.115,346.285 128.110 C 346.285 128.475,346.443 128.932,346.637 129.126 C 347.776 130.265,347.844 134.009,347.963 202.727 L 348.082 271.345 355.330 271.528 C 366.084 271.799,369.347 273.770,370.816 280.881 C 371.921 286.234,371.186 323.675,369.952 324.910 C 369.737 325.124,369.556 325.630,369.549 326.034 C 369.467 330.799,359.334 340.953,353.447 342.169 C 352.757 342.312,351.967 342.611,351.691 342.835 C 350.698 343.637,54.386 343.391,51.746 342.585 C 43.030 339.927,36.953 333.792,33.945 324.617 C 32.698 320.813,32.651 280.882,33.890 278.201 C 36.299 272.992,39.021 271.757,48.610 271.522 L 55.858 271.345 55.984 203.264 C 56.064 159.498,56.239 134.352,56.473 132.856 C 57.873 123.912,64.141 116.358,72.874 113.091 C 76.502 111.733,79.386 111.555,97.762 111.552 L 115.488 111.549 115.583 122.739 L 115.677 133.930 106.075 133.930 L 96.473 133.930 97.096 138.854 C 98.228 147.811,100.318 157.350,102.569 163.832 C 110.584 186.910,122.347 204.892,139.738 220.647 C 144.193 224.683,153.107 231.692,153.786 231.692 C 153.895 231.692,153.984 210.582,153.984 184.781 C 153.984 158.979,153.851 137.869,153.688 137.869 C 152.758 137.869,147.282 132.143,141.782 125.420 C 139.563 122.707,136.665 117.844,134.262 112.802 C 133.276 110.734,132.314 108.762,132.125 108.420 C 131.936 108.078,131.782 107.619,131.782 107.400 C 131.782 107.181,131.561 106.494,131.292 105.873 C 131.022 105.253,130.516 103.778,130.167 102.596 C 129.818 101.415,129.397 100.045,129.232 99.552 C 129.066 99.060,128.762 97.690,128.555 96.509 C 128.349 95.327,127.916 92.910,127.593 91.137 C 126.779 86.664,126.779 74.484,127.593 70.009 C 127.915 68.236,128.337 65.900,128.531 64.816 C 129.452 59.656,132.571 51.198,135.739 45.267 C 140.364 36.606,147.780 27.650,154.879 22.151 C 155.470 21.693,156.266 21.034,156.648 20.686 C 157.029 20.338,157.461 20.054,157.607 20.054 C 157.753 20.054,158.087 19.852,158.350 19.606 C 160.436 17.653,166.978 13.960,172.784 11.458 C 175.128 10.448,176.214 10.034,177.977 9.477 C 179.060 9.135,180.269 8.725,180.662 8.566 C 186.167 6.351,200.873 4.864,208.554 5.747 M194.987 28.254 C 194.593 28.418,193.184 28.667,191.857 28.807 C 190.530 28.948,189.352 29.211,189.240 29.392 C 189.127 29.574,188.728 29.722,188.353 29.722 C 187.581 29.722,184.808 30.588,183.115 31.358 C 182.494 31.640,181.842 31.871,181.666 31.871 C 181.000 31.871,172.511 36.518,171.889 37.223 C 171.791 37.334,170.749 38.141,169.575 39.015 C 161.956 44.684,155.088 54.270,152.113 63.384 C 150.905 67.085,150.748 67.619,150.379 69.312 C 149.341 74.072,149.010 82.787,149.681 87.735 C 151.560 101.613,159.317 114.702,170.543 122.943 C 172.067 124.062,173.477 124.978,173.676 124.978 C 173.875 124.978,174.038 125.101,174.038 125.251 C 174.038 125.560,174.140 125.617,178.740 127.885 C 182.379 129.679,188.206 131.782,189.537 131.782 C 189.994 131.782,190.520 131.924,190.707 132.098 C 192.605 133.860,207.769 133.587,215.423 131.653 C 220.006 130.495,230.491 125.753,231.692 124.296 C 231.791 124.176,232.838 123.364,234.020 122.491 C 240.542 117.671,247.261 109.165,250.300 101.880 C 250.957 100.304,251.712 98.507,251.978 97.887 C 252.244 97.266,252.462 96.499,252.462 96.181 C 252.462 95.863,252.607 95.324,252.784 94.982 C 255.226 90.266,255.226 70.880,252.784 66.164 C 252.607 65.822,252.461 65.258,252.460 64.911 C 252.459 64.564,252.217 63.818,251.923 63.254 C 251.628 62.689,251.388 62.096,251.388 61.936 C 251.388 61.775,250.904 60.599,250.313 59.322 C 249.722 58.046,249.239 56.905,249.239 56.787 C 249.239 56.394,245.575 50.703,243.918 48.523 C 240.913 44.568,236.355 40.170,232.600 37.601 C 231.880 37.108,231.093 36.544,230.851 36.347 C 227.584 33.689,217.275 29.605,211.280 28.595 C 208.392 28.108,195.961 27.848,194.987 28.254 M207.124 58.506 C 210.918 66.158,212.163 68.364,212.796 68.552 C 213.634 68.800,218.966 69.584,223.993 70.198 C 225.568 70.391,227.631 70.709,228.576 70.905 C 229.522 71.102,230.760 71.262,231.328 71.262 C 231.897 71.262,232.815 71.438,233.370 71.654 L 234.378 72.045 226.379 79.802 L 218.381 87.559 218.773 90.064 C 218.988 91.442,219.389 93.859,219.664 95.434 C 221.606 106.566,222.028 109.336,221.814 109.550 C 221.644 109.720,216.131 106.988,209.907 103.649 C 208.266 102.768,205.817 101.475,204.465 100.775 L 202.007 99.503 197.064 102.083 C 194.346 103.501,190.269 105.629,188.004 106.811 C 185.739 107.993,183.686 109.117,183.442 109.309 C 181.936 110.499,181.901 109.650,183.162 102.417 C 184.158 96.707,184.778 93.036,185.150 90.648 C 185.346 89.394,185.585 88.241,185.681 88.085 C 185.778 87.928,182.290 84.340,177.930 80.111 C 169.914 72.334,169.514 71.787,171.633 71.483 C 172.266 71.392,173.912 71.132,175.291 70.905 C 176.670 70.679,178.926 70.348,180.304 70.171 C 187.568 69.236,190.418 68.793,191.232 68.474 C 192.093 68.137,194.265 64.090,200.453 51.298 C 201.143 49.870,201.834 48.702,201.986 48.702 C 202.139 48.702,204.451 53.114,207.124 58.506 M176.544 188.543 L 176.544 225.608 180.215 223.189 C 182.234 221.859,183.966 220.688,184.064 220.588 C 184.163 220.487,186.419 218.958,189.078 217.189 C 191.737 215.420,193.993 213.889,194.091 213.787 C 197.150 210.615,203.253 209.819,207.341 212.058 C 208.823 212.869,211.451 214.664,211.579 214.951 C 211.644 215.098,211.863 215.219,212.064 215.219 C 212.266 215.219,213.041 215.703,213.787 216.294 C 214.533 216.885,215.308 217.368,215.510 217.368 C 215.711 217.368,215.930 217.489,215.995 217.637 C 216.061 217.784,217.323 218.711,218.800 219.696 C 220.278 220.680,221.567 221.567,221.665 221.665 C 222.253 222.253,226.996 225.246,227.339 225.246 C 227.649 225.246,227.753 216.025,227.753 188.362 L 227.753 151.477 226.879 151.477 C 226.398 151.477,225.914 151.624,225.803 151.804 C 225.691 151.984,224.917 152.244,224.080 152.382 C 223.244 152.520,222.399 152.756,222.202 152.907 C 221.843 153.182,221.248 153.310,213.966 154.679 C 205.636 156.244,187.466 155.271,181.737 152.953 C 180.440 152.428,177.351 151.477,176.944 151.477 C 176.652 151.477,176.544 161.507,176.544 188.543 M199.403 237.014 C 198.091 237.928,194.265 240.528,190.901 242.793 C 187.538 245.058,184.785 247.009,184.784 247.127 C 184.775 247.729,196.984 251.068,204.118 252.415 C 212.703 254.035,229.902 255.261,229.902 254.252 C 229.902 254.056,229.752 253.894,229.569 253.894 C 229.386 253.894,229.021 253.693,228.758 253.447 C 228.495 253.201,226.752 251.970,224.883 250.712 C 223.015 249.454,218.585 246.474,215.040 244.088 C 211.495 241.703,208.514 239.669,208.415 239.568 C 208.317 239.468,207.028 238.589,205.551 237.615 C 204.073 236.641,202.811 235.716,202.745 235.559 C 202.525 235.030,201.803 235.345,199.403 237.014 M55.148 306.098 C 55.148 319.366,55.147 319.360,56.922 320.759 C 57.355 321.100,88.940 321.197,201.970 321.204 L 346.464 321.214 347.538 320.355 L 348.612 319.496 348.715 306.570 L 348.817 293.644 300.852 293.644 L 252.887 293.644 251.754 296.419 C 251.131 297.945,250.380 299.758,250.085 300.448 C 249.790 301.137,249.411 302.023,249.243 302.417 C 247.720 305.990,246.972 307.279,245.674 308.567 C 244.160 310.069,242.264 311.191,241.238 311.191 C 240.935 311.191,240.587 311.352,240.466 311.549 C 240.320 311.784,227.100 311.907,201.970 311.907 C 176.839 311.907,163.619 311.784,163.474 311.549 C 163.352 311.352,163.004 311.191,162.701 311.191 C 161.125 311.191,156.132 307.232,156.132 305.982 C 156.132 305.858,155.649 304.711,155.058 303.435 C 154.467 302.158,153.984 300.962,153.984 300.776 C 153.984 300.590,153.831 300.158,153.643 299.816 C 153.456 299.474,153.075 298.630,152.797 297.941 C 152.518 297.252,152.003 296.003,151.650 295.166 L 151.010 293.644 103.079 293.644 L 55.148 293.644 55.148 306.098 " stroke="none" fill="#fbfbfb" fill-rule="evenodd"></path><path id="path2" d="M201.430 50.138 C 201.074 50.825,198.858 55.255,196.506 59.982 C 194.154 64.709,192.165 68.644,192.086 68.726 C 191.929 68.889,189.937 69.200,183.885 70.005 C 175.961 71.060,170.457 71.964,170.457 72.211 C 170.457 72.296,173.938 75.779,178.193 79.951 L 185.930 87.538 185.745 88.979 C 185.643 89.772,185.053 93.321,184.433 96.867 C 182.738 106.555,182.345 109.029,182.475 109.172 C 182.589 109.297,187.015 107.103,191.406 104.744 C 192.587 104.109,195.449 102.591,197.765 101.370 L 201.977 99.150 207.613 102.086 C 210.713 103.701,214.056 105.463,215.040 106.001 C 219.007 108.168,221.347 109.301,221.513 109.134 C 221.610 109.038,221.284 106.641,220.790 103.808 C 218.954 93.276,218.395 90.030,218.204 88.787 C 218.010 87.524,218.085 87.436,225.745 80.019 C 230.001 75.898,233.483 72.422,233.483 72.293 C 233.483 72.047,230.700 71.490,226.500 70.895 C 218.225 69.722,216.266 69.444,214.400 69.173 C 211.700 68.781,212.164 69.433,206.771 58.449 L 202.077 48.888 201.430 50.138 " stroke="none" fill="#fc1e1d" fill-rule="evenodd"></path><path id="path3" d="M194.987 5.781 C 191.286 6.178,185.470 7.197,184.781 7.568 C 183.925 8.028,184.960 7.951,187.466 7.368 C 195.151 5.580,208.158 5.573,216.555 7.352 C 219.417 7.959,219.784 7.988,219.320 7.577 C 218.939 7.239,213.511 6.316,208.554 5.747 C 204.821 5.318,199.164 5.332,194.987 5.781 M182.095 8.117 C 181.701 8.203,181.056 8.404,180.662 8.564 C 180.269 8.724,179.060 9.135,177.977 9.477 C 176.214 10.034,175.128 10.448,172.784 11.458 C 166.978 13.960,160.436 17.653,158.350 19.606 C 158.087 19.852,157.753 20.054,157.607 20.054 C 157.461 20.054,157.029 20.338,156.648 20.686 C 156.266 21.034,155.470 21.693,154.879 22.151 C 144.156 30.457,135.213 43.446,130.557 57.475 C 129.118 61.812,128.965 62.357,128.702 64.100 C 128.324 66.610,128.758 65.677,129.619 62.131 C 135.705 37.074,155.406 16.781,181.379 8.816 C 183.852 8.058,184.278 7.642,182.095 8.117 M220.949 8.312 C 224.089 9.217,229.004 10.877,229.857 11.322 C 230.952 11.894,231.334 11.940,231.334 11.501 C 231.334 11.327,230.971 11.095,230.528 10.985 C 230.085 10.875,227.869 10.137,225.604 9.345 C 223.339 8.553,221.083 7.915,220.591 7.928 C 219.847 7.947,219.908 8.012,220.949 8.312 M234.736 13.476 C 250.265 21.304,262.400 33.573,269.509 48.631 C 271.230 52.278,272.153 53.506,270.731 50.259 C 268.566 45.312,265.092 39.476,261.385 34.557 C 257.890 29.918,249.923 22.323,245.479 19.393 C 244.691 18.874,243.966 18.362,243.868 18.255 C 243.443 17.794,240.010 15.756,239.658 15.756 C 239.446 15.756,239.218 15.626,239.152 15.466 C 238.989 15.067,232.564 11.813,231.982 11.834 C 231.724 11.843,232.963 12.582,234.736 13.476 M197.493 27.589 C 193.519 28.008,190.120 28.561,189.848 28.833 C 189.542 29.139,194.049 28.630,195.099 28.240 C 195.555 28.071,198.647 27.932,201.970 27.932 C 205.292 27.932,208.384 28.071,208.840 28.240 C 209.865 28.621,214.401 29.143,214.104 28.846 C 213.235 27.977,201.929 27.121,197.493 27.589 M187.466 29.356 C 177.153 32.014,166.303 39.601,159.128 49.174 C 156.548 52.616,152.194 60.640,152.656 61.101 C 152.785 61.230,153.059 60.869,153.265 60.300 C 155.827 53.244,162.955 43.941,169.575 39.015 C 170.749 38.141,171.791 37.334,171.889 37.223 C 172.511 36.518,181.000 31.871,181.666 31.871 C 181.842 31.871,182.494 31.640,183.115 31.358 C 184.808 30.588,187.581 29.722,188.353 29.722 C 188.728 29.722,189.135 29.561,189.257 29.364 C 189.508 28.958,189.020 28.956,187.466 29.356 M215.040 29.312 C 215.434 29.480,217.309 30.131,219.206 30.758 C 222.872 31.968,229.205 35.008,230.851 36.347 C 231.093 36.544,231.880 37.108,232.600 37.601 C 238.086 41.354,243.644 47.414,247.630 53.989 C 248.377 55.223,249.066 56.156,249.159 56.063 C 249.253 55.970,248.481 54.557,247.445 52.924 C 240.457 41.913,231.324 34.564,219.338 30.308 C 216.897 29.441,213.510 28.656,215.040 29.312 M201.241 49.687 C 200.490 51.193,200.484 51.209,200.660 51.209 C 200.750 51.209,201.157 50.645,201.564 49.955 C 201.971 49.266,202.175 48.702,202.018 48.702 C 201.861 48.702,201.511 49.145,201.241 49.687 M197.569 57.137 C 196.050 60.182,194.816 62.793,194.826 62.939 C 194.837 63.085,196.136 60.650,197.713 57.527 C 199.290 54.403,200.524 51.792,200.456 51.724 C 200.387 51.655,199.088 54.091,197.569 57.137 M271.449 52.709 C 271.490 53.278,274.280 60.916,274.291 60.490 C 274.312 59.725,272.860 55.054,272.470 54.628 C 272.298 54.441,272.158 54.008,272.158 53.665 C 272.158 53.322,271.996 52.942,271.799 52.820 C 271.603 52.698,271.445 52.649,271.449 52.709 M204.358 53.631 C 204.471 54.078,204.704 54.530,204.878 54.637 C 205.368 54.940,205.248 54.285,204.673 53.515 C 204.172 52.845,204.161 52.849,204.358 53.631 M249.239 56.791 C 249.239 56.907,249.722 58.046,250.313 59.322 C 250.904 60.599,251.388 61.864,251.388 62.135 C 251.388 62.405,251.572 62.740,251.798 62.879 C 252.393 63.247,251.958 61.744,250.656 58.930 C 249.684 56.831,249.239 56.159,249.239 56.791 M206.267 57.565 C 206.267 57.736,206.500 58.188,206.786 58.571 C 207.287 59.241,207.298 59.237,207.101 58.455 C 206.897 57.646,206.267 56.974,206.267 57.565 M274.306 61.497 C 274.306 61.664,274.533 62.681,274.810 63.756 C 277.230 73.154,277.230 87.392,274.808 97.349 C 274.504 98.598,274.344 99.709,274.451 99.817 C 274.707 100.073,274.860 99.562,275.497 96.329 C 276.870 89.361,276.992 88.078,276.992 80.573 C 276.992 73.080,276.776 70.804,275.534 65.175 C 275.252 63.894,275.021 62.574,275.021 62.241 C 275.022 61.908,274.861 61.536,274.664 61.415 C 274.467 61.293,274.306 61.330,274.306 61.497 M151.725 63.108 C 150.440 66.543,149.228 72.167,150.045 70.904 C 150.236 70.609,150.394 70.010,150.397 69.574 C 150.403 68.814,150.803 67.384,152.060 63.635 C 152.782 61.481,152.499 61.036,151.725 63.108 M209.132 63.294 C 209.132 63.465,209.365 63.918,209.651 64.300 C 210.152 64.971,210.163 64.967,209.966 64.184 C 209.762 63.376,209.132 62.703,209.132 63.294 M252.324 64.470 C 252.452 65.153,252.713 65.873,252.905 66.070 C 253.132 66.303,253.165 65.989,252.999 65.175 C 252.859 64.485,252.597 63.765,252.418 63.574 C 252.219 63.364,252.182 63.715,252.324 64.470 M210.206 65.368 C 210.206 66.806,212.397 69.149,213.674 69.077 C 214.031 69.057,213.778 68.866,213.111 68.653 C 212.182 68.356,211.737 67.903,211.214 66.720 C 210.605 65.344,210.206 64.808,210.206 65.368 M192.689 66.907 C 192.201 67.863,191.627 68.396,190.801 68.661 C 189.747 68.998,189.715 69.044,190.510 69.072 C 191.003 69.089,191.585 68.984,191.805 68.840 C 192.246 68.549,193.855 65.533,193.569 65.533 C 193.470 65.533,193.074 66.151,192.689 66.907 M128.050 67.055 C 126.532 74.488,126.666 91.804,128.263 94.539 C 128.610 95.134,128.374 92.655,127.795 89.626 C 127.329 87.187,127.327 73.969,127.792 71.537 C 128.344 68.650,128.624 66.249,128.408 66.249 C 128.302 66.249,128.140 66.611,128.050 67.055 M253.178 67.122 C 253.178 67.471,253.409 68.667,253.692 69.778 C 254.575 73.258,254.972 80.118,254.570 84.960 C 254.369 87.372,253.974 90.256,253.692 91.368 C 253.170 93.421,253.024 94.812,253.367 94.469 C 254.989 92.847,255.604 77.107,254.300 70.586 C 253.588 67.026,253.178 65.760,253.178 67.122 M184.638 69.509 C 183.476 69.679,182.429 69.913,182.312 70.030 C 182.063 70.280,186.067 69.860,187.746 69.461 L 188.899 69.187 187.825 69.194 C 187.234 69.198,185.800 69.340,184.638 69.509 M216.652 69.453 C 218.421 69.869,222.062 70.220,220.949 69.867 C 220.457 69.711,219.006 69.487,217.726 69.370 C 216.154 69.227,215.805 69.254,216.652 69.453 M177.619 70.546 L 176.365 70.810 177.619 70.815 C 178.308 70.817,179.355 70.696,179.946 70.546 L 181.021 70.273 179.946 70.278 C 179.355 70.280,178.308 70.401,177.619 70.546 M224.071 70.512 C 224.705 70.676,226.236 70.901,227.473 71.013 C 229.130 71.163,229.392 71.135,228.469 70.907 C 227.780 70.737,226.249 70.512,225.067 70.407 C 223.556 70.272,223.261 70.304,224.071 70.512 M170.904 71.632 C 169.709 72.112,169.823 72.305,173.232 75.553 C 174.955 77.196,178.470 80.568,181.042 83.048 C 183.615 85.527,182.269 84.121,178.052 79.922 C 173.835 75.724,170.445 72.229,170.518 72.156 C 170.591 72.082,171.454 71.869,172.434 71.682 C 173.985 71.387,174.054 71.340,172.963 71.325 C 172.274 71.316,171.347 71.453,170.904 71.632 M231.782 71.673 C 234.036 72.181,234.490 71.551,225.783 79.982 C 217.648 87.859,217.643 87.866,218.465 90.242 C 218.683 90.870,218.718 90.599,218.585 89.332 L 218.396 87.527 226.315 79.878 C 234.702 71.777,234.798 71.630,231.813 71.415 L 230.081 71.290 231.782 71.673 M149.171 73.569 C 148.857 75.666,148.913 86.513,149.247 88.021 C 149.390 88.671,149.508 85.327,149.508 80.591 C 149.508 71.162,149.514 71.287,149.171 73.569 M185.302 89.688 C 185.165 90.602,185.133 91.430,185.232 91.528 C 185.330 91.627,185.523 90.960,185.660 90.046 C 185.797 89.133,185.828 88.305,185.730 88.207 C 185.631 88.108,185.439 88.775,185.302 89.688 M149.896 91.316 C 150.247 93.671,150.802 94.763,150.533 92.569 C 150.412 91.585,150.166 90.537,149.985 90.242 C 149.775 89.898,149.743 90.284,149.896 91.316 M219.035 93.465 C 219.402 96.306,219.865 97.840,219.629 95.434 C 219.514 94.252,219.286 92.963,219.123 92.569 C 218.940 92.127,218.906 92.469,219.035 93.465 M184.273 95.643 C 184.139 96.657,184.101 97.559,184.189 97.648 C 184.277 97.736,184.463 96.981,184.602 95.971 C 184.741 94.961,184.779 94.059,184.686 93.967 C 184.594 93.874,184.408 94.629,184.273 95.643 M150.919 95.524 C 151.290 97.079,152.281 99.584,152.455 99.410 C 152.642 99.223,151.101 94.539,150.853 94.539 C 150.760 94.539,150.789 94.982,150.919 95.524 M252.701 95.136 C 252.569 95.267,252.462 95.686,252.462 96.066 C 252.462 96.447,252.244 97.266,251.978 97.887 C 251.712 98.507,250.957 100.304,250.300 101.880 C 247.261 109.165,240.542 117.671,234.020 122.491 C 232.838 123.364,231.791 124.176,231.692 124.296 C 231.068 125.053,222.865 129.189,219.720 130.332 C 212.716 132.878,204.222 133.895,196.998 133.053 C 191.895 132.458,190.293 132.393,192.283 132.862 C 212.138 137.536,235.636 127.101,247.391 108.388 C 250.485 103.462,254.571 93.266,252.701 95.136 M128.721 97.182 C 128.860 98.143,129.102 99.271,129.257 99.689 C 129.413 100.106,129.824 101.415,130.171 102.596 C 130.518 103.778,131.022 105.253,131.292 105.873 C 131.561 106.494,131.782 107.181,131.782 107.400 C 131.782 107.619,131.936 108.078,132.125 108.420 C 132.314 108.762,133.278 110.734,134.267 112.802 C 136.880 118.268,141.175 125.336,141.883 125.336 C 142.028 125.336,141.039 123.684,139.685 121.665 C 135.305 115.136,131.489 106.537,129.632 99.015 C 128.732 95.370,128.344 94.589,128.721 97.182 M220.107 99.731 C 220.226 100.716,220.384 101.589,220.458 101.671 C 220.738 101.985,220.524 99.338,220.215 98.657 C 219.995 98.175,219.960 98.526,220.107 99.731 M183.581 99.795 C 183.152 102.025,182.919 104.018,183.108 103.841 C 183.360 103.603,184.094 99.104,183.911 98.921 C 183.836 98.846,183.687 99.240,183.581 99.795 M199.533 100.421 C 197.243 101.637,196.225 102.331,197.506 101.802 C 197.893 101.643,199.047 101.073,200.070 100.536 C 201.125 99.983,202.211 99.651,202.577 99.769 C 203.117 99.944,203.135 99.915,202.686 99.592 C 201.979 99.083,202.121 99.046,199.533 100.421 M152.734 100.671 C 155.122 108.495,164.887 120.102,173.695 125.585 C 179.436 129.159,191.810 133.953,190.713 132.178 C 190.578 131.960,190.072 131.782,189.588 131.782 C 188.212 131.782,182.436 129.707,178.740 127.885 C 174.140 125.617,174.038 125.560,174.038 125.251 C 174.038 125.101,173.875 124.978,173.676 124.978 C 172.067 124.978,162.955 116.567,159.595 111.980 C 156.716 108.051,153.268 101.908,153.268 100.709 C 153.268 100.490,153.089 100.201,152.871 100.066 C 152.599 99.898,152.556 100.088,152.734 100.671 M203.402 100.077 C 203.402 100.176,204.208 100.665,205.192 101.164 C 206.177 101.663,206.983 101.991,206.983 101.892 C 206.983 101.794,206.177 101.305,205.192 100.806 C 204.208 100.307,203.402 99.979,203.402 100.077 M272.753 104.512 C 271.997 106.831,270.282 110.935,268.942 113.630 C 267.603 116.326,266.639 118.532,266.801 118.532 C 266.963 118.532,267.209 118.169,267.347 117.726 C 267.486 117.283,267.698 116.840,267.819 116.741 C 268.323 116.332,272.158 107.986,272.158 107.298 C 272.158 107.056,272.299 106.705,272.472 106.517 C 272.893 106.062,274.398 101.077,274.246 100.639 C 274.181 100.450,273.509 102.192,272.753 104.512 M207.493 102.374 C 207.600 102.547,208.053 102.781,208.499 102.893 C 209.282 103.091,209.286 103.079,208.616 102.578 C 207.846 102.003,207.191 101.884,207.493 102.374 M192.927 103.874 C 192.189 104.264,191.585 104.663,191.585 104.761 C 191.585 104.858,192.229 104.610,193.017 104.208 C 193.805 103.806,194.449 103.400,194.449 103.305 C 194.449 103.071,194.447 103.072,192.927 103.874 M209.490 103.302 C 209.490 103.473,212.581 105.172,213.876 105.713 C 215.461 106.375,214.252 105.523,211.996 104.387 C 210.618 103.692,209.490 103.204,209.490 103.302 M221.027 104.924 C 221.031 105.416,221.157 106.303,221.307 106.893 L 221.580 107.968 221.587 106.893 C 221.591 106.303,221.465 105.416,221.307 104.924 L 221.020 104.029 221.027 104.924 M182.521 105.649 C 182.390 106.137,182.299 107.019,182.318 107.610 C 182.345 108.467,182.417 108.358,182.670 107.073 C 183.016 105.312,182.902 104.223,182.521 105.649 M185.765 107.633 C 184.830 108.120,184.064 108.599,184.064 108.697 C 184.064 108.795,184.870 108.467,185.855 107.968 C 186.840 107.469,187.645 106.983,187.645 106.887 C 187.645 106.651,187.678 106.638,185.765 107.633 M221.693 108.798 C 221.675 109.105,221.385 109.198,220.859 109.064 L 220.054 108.859 220.863 109.275 C 221.752 109.733,222.202 109.526,221.910 108.796 C 221.755 108.409,221.717 108.409,221.693 108.798 M182.150 109.311 C 182.380 109.682,183.263 109.648,183.504 109.259 C 183.613 109.083,183.315 108.962,182.843 108.991 C 182.371 109.019,182.059 109.163,182.150 109.311 M79.499 111.726 C 79.006 111.885,86.862 112.031,96.956 112.050 L 115.309 112.086 115.309 122.650 L 115.309 133.214 110.175 133.214 C 107.351 133.214,99.416 133.321,92.541 133.453 L 80.040 133.691 79.053 134.678 L 78.066 135.666 78.066 203.733 L 78.066 271.799 118.731 271.799 C 161.665 271.799,161.474 271.792,164.011 273.457 C 166.994 275.414,167.703 276.496,170.662 283.617 C 172.013 286.867,173.285 289.644,173.488 289.789 C 174.201 290.295,230.129 290.115,230.552 289.605 C 230.976 289.094,234.915 279.862,234.915 279.380 C 234.915 278.377,237.870 274.670,239.435 273.711 C 242.633 271.750,241.455 271.799,285.150 271.799 L 325.757 271.799 325.994 258.849 C 326.300 242.131,326.235 136.886,325.918 135.753 C 325.255 133.381,325.429 133.404,306.868 133.290 L 290.063 133.187 290.063 122.637 L 290.063 112.086 307.878 112.050 C 319.429 112.027,325.206 111.899,324.307 111.688 C 323.544 111.509,315.487 111.405,306.402 111.456 L 289.884 111.549 289.884 122.650 L 289.884 133.751 306.874 133.844 C 323.740 133.937,323.871 133.943,324.690 134.712 L 325.515 135.487 325.515 195.049 L 325.515 254.611 286.303 254.611 C 251.686 254.611,247.090 254.548,247.090 254.073 C 247.090 253.778,247.240 253.536,247.423 253.536 C 247.605 253.536,248.209 252.610,248.765 251.477 L 249.776 249.418 249.870 194.001 L 249.964 138.585 254.369 134.198 C 258.353 130.232,260.656 127.658,262.110 125.548 C 262.394 125.136,262.716 124.718,262.826 124.620 C 263.408 124.098,266.519 119.220,266.367 119.067 C 266.268 118.969,265.363 120.138,264.355 121.664 C 261.031 126.701,255.914 132.595,251.383 136.606 L 249.776 138.029 249.597 193.545 L 249.418 249.060 248.644 250.734 C 246.400 255.591,240.978 258.360,236.099 257.140 C 234.434 256.724,233.027 255.846,222.560 248.690 C 217.896 245.501,203.400 235.672,202.958 235.399 C 202.808 235.306,202.691 235.361,202.697 235.520 C 202.702 235.680,203.951 236.611,205.472 237.590 C 206.992 238.568,208.317 239.455,208.415 239.560 C 208.514 239.665,211.495 241.703,215.040 244.088 C 218.585 246.474,223.015 249.454,224.883 250.712 C 226.752 251.970,228.495 253.201,228.758 253.447 C 229.021 253.693,229.386 253.894,229.569 253.894 C 229.752 253.894,229.902 254.056,229.902 254.252 C 229.902 255.261,212.703 254.035,204.118 252.415 C 196.983 251.068,184.774 247.729,184.784 247.127 C 184.786 247.009,186.841 245.531,189.350 243.844 C 200.588 236.289,202.286 235.113,202.151 234.977 C 201.980 234.806,196.019 238.798,177.081 251.765 C 172.396 254.973,169.673 256.601,168.335 256.993 C 163.268 258.479,157.580 255.785,155.362 250.850 L 154.557 249.060 154.664 193.890 L 154.771 138.720 150.139 134.087 C 147.592 131.539,144.741 128.568,143.805 127.484 C 142.869 126.401,142.227 125.756,142.379 126.052 C 143.431 128.097,152.784 137.869,153.688 137.869 C 153.851 137.869,153.984 158.979,153.984 184.781 C 153.984 210.582,153.895 231.692,153.786 231.692 C 153.107 231.692,144.193 224.683,139.738 220.647 C 122.347 204.892,110.584 186.910,102.569 163.832 C 100.318 157.350,98.228 147.811,97.096 138.854 L 96.473 133.930 106.075 133.930 L 115.677 133.930 115.583 122.739 L 115.488 111.549 97.941 111.493 C 88.290 111.463,79.991 111.568,79.499 111.726 M73.709 112.799 C 64.813 115.725,56.388 125.593,56.622 132.813 C 56.662 134.031,56.682 134.007,56.950 132.413 C 58.598 122.627,66.637 114.641,77.171 112.326 C 77.626 112.226,77.495 112.162,76.813 112.150 C 76.222 112.140,74.825 112.431,73.709 112.799 M328.723 112.825 C 330.192 113.209,332.024 113.853,332.795 114.254 C 333.565 114.656,334.263 114.916,334.347 114.833 C 334.558 114.621,332.024 113.160,331.447 113.160 C 331.187 113.160,330.395 112.919,329.688 112.623 C 328.981 112.328,327.874 112.095,327.227 112.106 C 326.371 112.120,326.776 112.315,328.723 112.825 M335.304 115.419 C 339.652 118.238,342.726 121.602,344.853 125.868 C 345.640 127.446,346.284 128.447,346.285 128.092 C 346.285 125.190,337.391 114.836,335.014 114.972 C 334.812 114.983,334.942 115.185,335.304 115.419 M346.290 129.114 C 346.293 129.301,346.538 130.179,346.834 131.065 L 347.372 132.677 347.168 131.065 C 346.994 129.686,346.274 128.086,346.290 129.114 M347.630 202.396 C 347.681 240.272,347.793 271.452,347.878 271.684 C 347.988 271.985,350.225 272.139,355.664 272.221 C 362.773 272.329,363.392 272.391,364.727 273.135 C 367.450 274.654,369.408 276.974,370.098 279.499 C 370.302 280.243,370.437 280.385,370.537 279.960 C 370.955 278.200,367.619 274.080,364.624 272.658 C 362.658 271.723,362.298 271.679,355.327 271.515 L 348.075 271.344 348.040 203.264 C 348.020 165.820,347.899 134.811,347.771 134.356 C 347.643 133.901,347.580 164.519,347.630 202.396 M56.137 135.363 C 55.992 135.855,55.872 166.652,55.869 203.801 L 55.864 271.344 48.612 271.522 C 40.330 271.725,38.558 272.227,35.956 275.107 C 33.016 278.360,33.127 277.425,33.103 299.194 L 33.081 318.532 33.282 299.373 C 33.507 277.917,33.448 278.389,36.276 275.440 C 39.047 272.551,39.763 272.357,48.405 272.158 C 52.673 272.059,56.259 271.884,56.373 271.769 C 56.488 271.653,56.541 240.713,56.492 203.013 C 56.442 165.313,56.282 134.870,56.137 135.363 M176.186 188.362 C 176.186 221.486,176.250 226.014,176.716 225.836 C 177.485 225.540,183.706 221.324,183.706 221.098 C 183.706 220.853,183.450 221.008,179.678 223.529 L 176.544 225.623 176.544 188.550 C 176.544 157.295,176.622 151.477,177.038 151.477 C 177.309 151.477,178.110 151.719,178.817 152.014 C 179.524 152.310,180.390 152.541,180.741 152.527 C 181.487 152.499,180.965 152.252,178.514 151.473 C 177.726 151.223,176.880 150.943,176.634 150.851 C 176.278 150.718,176.186 158.370,176.186 188.362 M224.888 151.700 C 222.943 152.421,222.796 152.528,223.993 152.350 C 224.781 152.233,225.578 151.989,225.765 151.807 C 225.953 151.626,226.476 151.477,226.929 151.477 L 227.753 151.477 227.753 188.362 C 227.753 216.025,227.649 225.246,227.339 225.246 C 226.996 225.246,222.253 222.253,221.665 221.665 C 221.567 221.567,220.278 220.680,218.800 219.696 C 217.323 218.711,216.061 217.784,215.995 217.637 C 215.930 217.489,215.711 217.368,215.510 217.368 C 215.308 217.368,214.533 216.885,213.787 216.294 C 213.041 215.703,212.266 215.219,212.064 215.219 C 211.863 215.219,211.644 215.098,211.579 214.951 C 211.451 214.664,208.823 212.869,207.341 212.058 C 204.989 210.770,201.018 210.158,199.841 210.902 C 199.501 211.117,200.113 211.217,201.632 211.195 C 205.542 211.139,205.066 210.871,224.562 224.116 C 226.057 225.131,227.468 225.962,227.697 225.962 C 228.246 225.962,228.123 151.043,227.574 150.918 C 227.377 150.873,226.168 151.225,224.888 151.700 M181.737 152.845 C 181.934 153.037,182.820 153.298,183.706 153.425 C 185.689 153.709,184.908 153.119,182.811 152.749 C 181.879 152.584,181.504 152.618,181.737 152.845 M220.433 152.954 C 219.657 153.136,218.932 153.380,218.822 153.496 C 218.497 153.839,221.812 153.224,222.184 152.873 C 222.589 152.491,222.366 152.501,220.433 152.954 M185.963 153.853 C 186.491 154.381,194.188 155.378,197.493 155.347 L 201.074 155.313 196.659 155.015 C 194.231 154.851,190.950 154.471,189.368 154.171 C 186.192 153.569,185.626 153.516,185.963 153.853 M214.324 154.196 C 212.945 154.473,209.803 154.837,207.341 155.006 L 202.865 155.313 206.446 155.361 C 209.727 155.404,217.441 154.388,217.989 153.841 C 218.310 153.519,217.122 153.635,214.324 154.196 M197.314 211.752 C 196.268 212.299,194.350 213.507,194.091 213.782 C 193.993 213.887,191.737 215.415,189.078 217.177 C 186.419 218.940,184.176 220.429,184.094 220.486 C 184.012 220.544,184.018 220.664,184.107 220.752 C 184.195 220.841,186.921 219.123,190.164 216.935 C 193.407 214.747,196.786 212.584,197.672 212.128 C 198.559 211.672,199.042 211.295,198.747 211.292 C 198.451 211.288,197.807 211.495,197.314 211.752 M370.707 300.090 C 370.707 310.627,370.836 318.845,370.994 318.353 C 371.151 317.860,371.280 309.642,371.280 300.090 C 371.280 290.537,371.151 282.319,370.994 281.826 C 370.836 281.334,370.707 289.552,370.707 300.090 M54.872 305.998 C 54.782 320.090,54.820 320.310,57.472 321.418 C 59.402 322.225,344.547 322.193,346.565 321.386 C 349.162 320.347,349.159 320.364,349.071 306.122 L 348.992 293.465 348.802 306.480 L 348.612 319.496 347.538 320.355 L 346.464 321.214 201.970 321.204 C 88.931 321.197,57.358 321.100,56.938 320.759 C 55.321 319.445,55.336 319.568,55.139 306.212 L 54.951 293.465 54.872 305.998 M151.119 293.739 C 151.119 293.870,151.347 294.507,151.626 295.153 C 151.905 295.800,152.397 296.974,152.718 297.762 C 153.039 298.550,153.456 299.474,153.643 299.816 C 153.831 300.158,153.984 300.581,153.984 300.755 C 153.984 301.323,155.471 304.451,155.654 304.268 C 155.752 304.170,154.905 301.861,153.773 299.136 C 151.920 294.678,151.119 293.049,151.119 293.739 M251.987 294.778 C 251.692 295.435,250.463 298.326,249.257 301.205 C 246.783 307.108,245.498 308.887,242.696 310.291 C 241.355 310.963,241.128 311.165,241.898 311.003 C 244.825 310.387,247.005 307.763,249.477 301.880 C 249.767 301.191,250.145 300.304,250.317 299.910 C 251.557 297.074,252.783 293.845,252.665 293.727 C 252.587 293.649,252.282 294.122,251.987 294.778 M155.959 305.478 C 156.103 305.931,156.365 306.475,156.541 306.687 C 158.740 309.325,160.449 310.667,162.041 311.005 C 162.835 311.174,162.647 310.998,161.325 310.335 C 159.560 309.449,156.491 306.431,156.491 305.582 C 156.491 305.342,156.312 305.035,156.094 304.900 C 155.823 304.733,155.780 304.915,155.959 305.478 M163.529 311.638 C 163.620 311.786,180.919 311.907,201.970 311.907 C 223.021 311.907,240.319 311.786,240.410 311.638 C 240.501 311.491,223.203 311.370,201.970 311.370 C 180.736 311.370,163.438 311.491,163.529 311.638 M33.349 320.511 C 33.147 329.297,41.658 339.508,51.746 342.585 C 54.386 343.391,350.698 343.637,351.691 342.835 C 351.967 342.611,352.757 342.312,353.447 342.169 C 359.334 340.953,369.467 330.799,369.549 326.034 C 369.556 325.630,369.736 325.125,369.950 324.912 C 370.163 324.698,370.399 323.498,370.474 322.244 L 370.610 319.964 370.257 321.934 C 368.555 331.441,361.898 338.992,352.498 342.077 L 350.045 342.883 201.970 342.883 L 53.894 342.883 51.481 342.090 C 41.765 338.898,34.951 330.766,33.690 320.859 L 33.394 318.532 33.349 320.511 " stroke="none" fill="#c4ccdb" fill-rule="evenodd"></path></g></svg>