<svg id="svg" version="1.1" xmlns="http://www.w3.org/2000/svg" xmlns:xlink="http://www.w3.org/1999/xlink" width="400" height="379.4871794871795" viewBox="0, 0, 400,379.4871794871795"><g id="svgg"><path id="path0" d="M46.110 28.083 C 45.693 28.263,44.839 28.430,44.213 28.454 C 42.094 28.536,34.915 33.231,34.915 34.534 C 34.915 34.743,34.755 34.915,34.560 34.915 C 34.366 34.915,33.469 36.409,32.568 38.235 L 30.930 41.556 30.930 139.469 C 30.930 232.415,30.964 237.458,31.603 238.899 C 33.197 242.491,36.158 247.003,36.947 247.043 C 37.226 247.057,38.025 247.636,40.117 249.342 C 40.369 249.547,40.796 249.721,41.066 249.728 C 41.335 249.735,42.239 250.071,43.074 250.474 C 44.556 251.190,46.169 251.208,111.775 251.221 C 171.953 251.232,179.046 251.295,179.802 251.824 L 180.645 252.415 180.645 289.585 C 180.645 310.029,180.602 326.795,180.550 326.844 C 180.498 326.893,167.903 327.021,152.562 327.129 L 124.668 327.324 124.668 345.541 L 124.668 363.757 198.861 363.757 L 273.055 363.757 273.154 345.755 C 273.231 331.605,273.150 327.688,272.774 327.450 C 272.511 327.283,260.064 327.144,245.113 327.141 C 222.563 327.136,217.856 327.046,217.498 326.615 C 216.618 325.554,217.112 252.424,218.004 251.772 C 218.634 251.312,228.515 251.232,285.936 251.225 C 352.062 251.217,353.157 251.205,354.785 250.466 C 355.695 250.053,356.677 249.715,356.967 249.715 C 357.258 249.715,357.495 249.565,357.495 249.382 C 357.495 249.198,357.995 248.841,358.607 248.588 C 359.218 248.335,359.810 247.887,359.923 247.593 C 360.036 247.299,360.312 247.059,360.538 247.059 C 360.972 247.059,362.243 245.780,363.188 244.392 C 363.501 243.932,364.056 243.164,364.421 242.686 C 364.787 242.207,365.085 241.582,365.085 241.296 C 365.085 241.010,365.358 240.386,365.692 239.910 C 366.865 238.235,366.956 231.067,366.959 139.469 C 366.962 48.556,366.875 41.532,365.712 39.279 C 365.389 38.653,365.023 37.884,364.900 37.571 C 364.533 36.638,363.796 35.472,363.082 34.695 C 361.113 32.553,359.531 31.125,359.127 31.122 C 358.876 31.121,358.535 30.906,358.368 30.645 C 357.946 29.986,355.363 28.803,353.321 28.333 C 351.192 27.843,47.241 27.596,46.110 28.083 M329.960 64.980 C 330.489 65.736,330.550 73.453,330.550 139.728 L 330.550 213.633 329.720 214.406 L 328.889 215.180 198.955 215.180 C 110.113 215.180,68.788 215.056,68.286 214.787 C 67.376 214.300,67.100 65.500,68.008 64.592 C 68.360 64.240,97.959 64.137,198.916 64.137 L 329.369 64.137 329.960 64.980 M124.717 121.917 C 124.417 123.036,124.409 156.494,124.709 157.274 C 125.013 158.067,271.998 158.211,272.789 157.419 C 273.388 156.821,273.448 122.910,272.852 121.797 C 272.466 121.075,271.235 121.063,198.703 121.063 L 124.946 121.063 124.717 121.917 " stroke="none" fill="#4d4d4d" fill-rule="evenodd"></path><path id="path1" d="M0.000 189.753 L 0.000 379.507 200.000 379.507 L 400.000 379.507 400.000 189.753 L 400.000 0.000 200.000 0.000 L 0.000 0.000 0.000 189.753 M353.378 27.230 C 353.639 27.491,354.202 27.709,354.630 27.716 C 355.529 27.730,358.635 29.185,359.499 29.998 C 359.822 30.302,360.635 30.971,361.305 31.485 C 362.591 32.471,365.222 35.825,365.850 37.279 C 366.055 37.753,366.373 38.397,366.558 38.710 C 367.920 41.017,367.906 40.014,368.017 139.390 C 368.112 224.851,368.058 236.213,367.554 237.189 C 367.240 237.796,366.983 238.637,366.983 239.059 C 366.983 240.488,364.443 244.707,362.281 246.869 C 360.940 248.209,357.755 250.474,357.210 250.474 C 356.920 250.474,356.426 250.731,356.113 251.044 C 355.800 251.357,355.032 251.613,354.407 251.613 C 353.782 251.613,352.898 251.826,352.442 252.087 C 351.791 252.460,337.314 252.602,285.009 252.751 L 218.406 252.941 218.309 289.658 L 218.213 326.376 245.324 326.376 C 262.022 326.376,272.810 326.518,273.410 326.746 L 274.383 327.116 274.383 345.681 C 274.383 362.259,274.319 364.270,273.783 364.476 C 272.531 364.956,124.278 364.733,123.795 364.250 C 123.122 363.577,123.140 327.309,123.814 326.872 C 124.075 326.704,136.670 326.480,151.803 326.376 L 179.317 326.186 179.317 289.564 L 179.317 252.941 112.713 252.751 C 60.590 252.603,45.878 252.459,45.042 252.087 C 44.454 251.826,43.570 251.613,43.076 251.613 C 42.583 251.613,41.923 251.357,41.610 251.044 C 41.297 250.731,40.803 250.474,40.513 250.474 C 39.268 250.474,33.872 245.715,32.983 243.833 C 32.786 243.416,32.186 242.306,31.649 241.366 C 29.790 238.115,29.843 241.012,29.818 139.658 C 29.794 40.450,29.789 40.765,31.290 38.622 C 31.614 38.160,31.879 37.551,31.879 37.268 C 31.879 36.168,36.955 30.361,37.917 30.361 C 38.144 30.361,38.330 30.205,38.330 30.015 C 38.330 29.395,43.358 27.288,45.920 26.834 C 48.496 26.378,352.918 26.770,353.378 27.230 M68.405 139.753 L 68.501 213.852 198.861 213.852 L 329.222 213.852 329.222 139.848 L 329.222 65.844 198.766 65.749 L 68.309 65.654 68.405 139.753 M273.928 120.759 C 274.824 121.655,274.556 158.135,273.649 158.620 C 272.235 159.377,124.874 159.145,124.034 158.385 C 123.163 157.597,122.935 121.619,123.795 120.759 C 124.458 120.096,273.265 120.096,273.928 120.759 " stroke="none" fill="#fcfcfc" fill-rule="evenodd"></path><path id="path2" d="M47.438 27.216 C 40.781 27.982,35.132 32.016,32.030 38.218 L 30.550 41.176 30.550 139.658 L 30.550 238.140 31.788 240.653 C 34.407 245.970,40.514 251.287,43.926 251.221 C 44.655 251.206,41.861 249.749,41.066 249.728 C 40.796 249.721,40.369 249.547,40.117 249.342 C 38.025 247.636,37.226 247.057,36.947 247.043 C 36.158 247.003,33.197 242.491,31.603 238.899 C 30.964 237.458,30.930 232.415,30.930 139.469 L 30.930 41.556 32.568 38.235 C 33.469 36.409,34.366 34.915,34.560 34.915 C 34.755 34.915,34.915 34.743,34.915 34.534 C 34.915 33.169,41.393 29.002,44.592 28.311 C 46.866 27.819,350.329 27.718,352.751 28.208 C 354.698 28.602,357.975 30.021,358.368 30.641 C 358.535 30.904,358.876 31.121,359.127 31.122 C 359.531 31.125,361.113 32.553,363.082 34.695 C 363.796 35.472,364.533 36.638,364.900 37.571 C 365.023 37.884,365.389 38.653,365.712 39.279 C 366.875 41.532,366.962 48.556,366.959 139.469 C 366.956 231.067,366.865 238.235,365.692 239.910 C 365.358 240.386,365.085 241.010,365.085 241.296 C 365.085 241.582,364.787 242.207,364.421 242.686 C 364.056 243.164,363.501 243.932,363.188 244.392 C 362.243 245.780,360.972 247.059,360.538 247.059 C 360.312 247.059,360.036 247.299,359.923 247.593 C 359.810 247.887,359.218 248.335,358.607 248.588 C 357.995 248.841,357.495 249.198,357.495 249.382 C 357.495 249.565,357.258 249.715,356.967 249.715 C 356.677 249.715,355.695 250.053,354.785 250.466 C 353.875 250.879,353.429 251.220,353.794 251.225 C 358.429 251.283,365.847 243.285,366.961 237.027 C 367.530 233.834,367.522 44.845,366.953 42.049 C 365.653 35.656,360.693 30.265,353.989 27.958 L 351.613 27.140 200.190 27.101 C 116.907 27.080,48.169 27.132,47.438 27.216 M68.008 64.592 C 67.100 65.500,67.376 214.300,68.286 214.787 C 68.788 215.056,110.113 215.180,198.955 215.180 L 328.889 215.180 329.720 214.406 L 330.550 213.633 330.550 139.728 C 330.550 73.453,330.489 65.736,329.960 64.980 L 329.369 64.137 198.916 64.137 C 97.959 64.137,68.360 64.240,68.008 64.592 M329.398 65.250 C 329.665 65.749,329.791 89.707,329.791 140.006 L 329.791 214.027 328.937 214.233 C 328.468 214.346,269.592 214.392,198.102 214.335 L 68.121 214.231 68.026 139.888 C 67.955 85.253,68.043 65.409,68.357 65.031 C 69.155 64.068,328.883 64.287,329.398 65.250 M124.573 120.934 C 123.770 121.259,123.894 157.715,124.699 158.024 C 126.304 158.640,272.800 158.265,273.422 157.644 C 274.313 156.753,274.143 121.622,273.245 121.054 C 272.659 120.685,125.487 120.566,124.573 120.934 M272.852 121.797 C 273.448 122.910,273.388 156.821,272.789 157.419 C 271.998 158.211,125.013 158.067,124.709 157.274 C 124.409 156.494,124.417 123.036,124.717 121.917 L 124.946 121.063 198.703 121.063 C 271.235 121.063,272.466 121.075,272.852 121.797 M46.110 251.635 C 46.945 251.807,77.194 251.959,113.331 251.971 C 168.209 251.989,179.105 252.077,179.462 252.508 C 179.775 252.884,179.864 262.940,179.793 289.794 L 179.696 326.565 152.408 326.663 C 133.017 326.732,124.971 326.883,124.609 327.184 C 123.775 327.876,123.863 363.775,124.699 364.096 C 125.803 364.520,272.474 364.359,273.270 363.934 C 274.193 363.439,274.445 327.845,273.529 327.252 C 273.269 327.083,260.674 326.860,245.541 326.755 L 218.027 326.565 217.930 289.794 C 217.859 262.940,217.948 252.884,218.261 252.508 C 218.618 252.077,229.514 251.989,284.392 251.971 C 320.529 251.959,350.778 251.807,351.613 251.635 C 352.448 251.462,322.893 251.301,285.936 251.277 C 228.457 251.240,218.634 251.311,218.004 251.772 C 217.112 252.424,216.618 325.554,217.498 326.615 C 217.856 327.046,222.563 327.136,245.113 327.141 C 260.064 327.144,272.511 327.283,272.774 327.450 C 273.150 327.688,273.231 331.605,273.154 345.755 L 273.055 363.757 198.861 363.757 L 124.668 363.757 124.668 345.541 L 124.668 327.324 152.562 327.129 C 167.903 327.021,180.498 326.893,180.550 326.844 C 180.602 326.795,180.645 310.029,180.645 289.585 L 180.645 252.415 179.802 251.824 C 179.045 251.294,172.013 251.238,111.775 251.277 C 74.824 251.301,45.275 251.462,46.110 251.635 " stroke="none" fill="#a4a4a4" fill-rule="evenodd"></path><path id="path3" d="M367.549 139.469 C 367.549 191.651,367.593 212.942,367.647 186.782 C 367.701 160.622,367.701 117.927,367.647 91.905 C 367.593 65.883,367.549 87.287,367.549 139.469 M115.560 64.799 C 241.656 65.057,329.322 65.058,329.163 64.801 C 329.067 64.644,270.378 64.558,198.744 64.610 C 127.110 64.661,89.677 64.746,115.560 64.799 M123.894 139.848 C 123.894 149.450,123.943 153.323,124.004 148.456 C 124.064 143.589,124.064 135.733,124.003 130.999 C 123.943 126.264,123.894 130.247,123.894 139.848 M124.802 158.350 C 124.959 158.507,158.295 158.593,198.881 158.540 L 272.676 158.444 198.596 158.254 C 157.852 158.150,124.645 158.193,124.802 158.350 M123.893 327.609 C 123.793 327.870,123.756 336.110,123.810 345.920 L 123.909 363.757 124.099 345.446 C 124.203 335.375,124.240 327.135,124.182 327.135 C 124.123 327.135,123.993 327.348,123.893 327.609 " stroke="none" fill="#acacac" fill-rule="evenodd"></path><path id="path4" d="M45.920 26.834 C 43.358 27.288,38.330 29.395,38.330 30.015 C 38.330 30.205,38.144 30.361,37.917 30.361 C 36.953 30.361,31.865 36.184,31.890 37.258 C 31.897 37.534,32.281 37.146,32.744 36.393 C 35.463 31.979,39.183 29.251,44.598 27.702 C 48.769 26.509,348.948 26.508,353.119 27.701 C 357.160 28.856,358.753 29.751,361.736 32.540 C 363.381 34.078,364.147 34.628,363.649 33.915 C 363.193 33.261,362.209 32.237,361.462 31.638 C 360.715 31.040,359.836 30.302,359.508 29.998 C 358.625 29.180,355.524 27.729,354.630 27.716 C 354.202 27.709,353.639 27.491,353.378 27.230 C 352.918 26.770,48.496 26.378,45.920 26.834 M364.339 35.579 C 364.332 35.840,364.471 36.053,364.648 36.053 C 364.935 36.053,365.872 37.934,366.633 40.038 C 366.872 40.700,366.912 40.670,366.945 39.800 C 366.966 39.251,366.727 38.590,366.414 38.330 C 366.101 38.070,365.844 37.641,365.844 37.377 C 365.844 36.743,364.355 34.964,364.339 35.579 M31.171 38.769 C 30.901 39.200,30.491 40.431,30.258 41.503 C 29.762 43.788,29.388 233.719,29.877 235.294 C 30.038 235.816,30.256 192.268,30.361 138.520 C 30.542 44.862,30.579 40.744,31.242 39.528 C 32.006 38.129,31.949 37.523,31.171 38.769 M367.252 42.694 C 367.639 45.140,367.647 233.728,367.260 236.243 C 366.985 238.033,367.000 238.087,367.531 237.192 C 368.405 235.720,368.410 43.980,367.537 42.074 L 366.952 40.797 367.252 42.694 M68.162 65.496 C 67.682 66.748,67.904 213.483,68.387 213.966 C 69.051 214.629,328.672 214.629,329.336 213.966 C 329.999 213.303,329.999 66.014,329.336 65.351 C 328.543 64.559,68.466 64.703,68.162 65.496 M329.222 139.848 L 329.222 213.852 198.861 213.852 L 68.501 213.852 68.405 139.753 L 68.309 65.654 198.766 65.749 L 329.222 65.844 329.222 139.848 M123.795 120.759 C 122.935 121.619,123.163 157.597,124.034 158.385 C 124.874 159.145,272.235 159.377,273.649 158.620 C 274.556 158.135,274.824 121.655,273.928 120.759 C 273.265 120.096,124.458 120.096,123.795 120.759 M273.611 121.417 C 273.866 121.893,274.004 128.361,274.004 139.802 L 274.004 157.452 273.160 158.043 C 272.404 158.573,264.705 158.634,198.596 158.634 L 124.875 158.634 124.283 157.730 C 123.631 156.735,123.568 122.159,124.216 121.157 C 124.815 120.232,273.115 120.490,273.611 121.417 M30.408 237.514 C 30.358 238.845,31.535 241.828,31.798 241.038 C 31.882 240.787,31.730 240.316,31.461 239.992 C 31.192 239.668,30.856 238.692,30.714 237.823 C 30.469 236.326,30.453 236.310,30.408 237.514 M366.060 240.519 C 364.484 244.380,360.573 248.596,357.116 250.163 C 356.622 250.387,356.626 250.425,357.142 250.448 C 359.561 250.556,367.640 241.225,366.934 239.139 C 366.857 238.910,366.463 239.531,366.060 240.519 M31.879 242.024 C 31.879 242.237,32.135 242.624,32.448 242.884 C 32.761 243.144,33.019 243.549,33.022 243.785 C 33.037 244.980,39.305 250.505,40.581 250.448 C 41.097 250.425,41.101 250.387,40.607 250.163 C 38.195 249.070,35.804 246.899,33.264 243.494 C 32.502 242.472,31.879 241.811,31.879 242.024 M41.366 250.847 C 41.366 251.302,43.046 251.761,43.722 251.490 C 43.992 251.382,43.838 251.280,43.381 251.263 C 42.924 251.247,42.444 251.063,42.315 250.854 C 42.014 250.366,41.366 250.361,41.366 250.847 M355.408 250.854 C 355.279 251.063,354.799 251.247,354.342 251.263 C 353.885 251.280,353.731 251.382,354.001 251.490 C 354.677 251.761,356.357 251.302,356.357 250.847 C 356.357 250.361,355.709 250.366,355.408 250.854 M45.161 252.078 C 45.915 252.462,59.812 252.601,112.713 252.751 L 179.317 252.941 179.317 289.564 L 179.317 326.186 151.803 326.376 C 136.670 326.480,124.075 326.704,123.814 326.872 C 123.140 327.309,123.122 363.577,123.795 364.250 C 124.278 364.733,272.531 364.956,273.783 364.476 C 274.319 364.270,274.383 362.259,274.383 345.681 L 274.383 327.116 273.410 326.746 C 272.810 326.518,262.022 326.376,245.324 326.376 L 218.213 326.376 218.309 289.658 L 218.406 252.941 285.009 252.751 C 339.205 252.597,351.754 252.469,352.372 252.062 C 353.056 251.612,353.000 251.584,351.811 251.785 C 351.084 251.908,320.818 252.008,284.553 252.007 C 219.859 252.007,218.608 252.020,218.224 252.737 C 217.962 253.228,217.865 265.479,217.930 290.017 L 218.027 326.565 245.541 326.755 C 260.674 326.860,273.269 327.083,273.529 327.252 C 274.203 327.688,274.222 363.198,273.548 363.871 C 272.886 364.534,124.837 364.534,124.175 363.871 C 123.501 363.198,123.520 327.688,124.194 327.252 C 124.454 327.083,137.049 326.860,152.182 326.755 L 179.696 326.565 179.794 289.753 C 179.885 255.866,179.843 252.904,179.264 252.479 C 178.777 252.120,163.977 252.015,113.033 252.009 C 76.951 252.004,46.706 251.909,45.821 251.797 C 44.330 251.610,44.282 251.630,45.161 252.078 " stroke="none" fill="#bababa" fill-rule="evenodd"></path></g></svg>