<svg id="svg" version="1.1" xmlns="http://www.w3.org/2000/svg" xmlns:xlink="http://www.w3.org/1999/xlink" width="400" height="403.6697247706422" viewBox="0, 0, 400,403.6697247706422"><g id="svgg"><path id="path0" d="M102.600 45.798 C 81.998 48.192,70.211 58.747,58.377 85.400 C 49.577 105.220,47.210 132.668,52.400 154.700 C 52.620 155.635,52.959 157.075,53.154 157.900 C 54.899 165.288,58.411 173.924,65.395 188.000 C 70.601 198.494,74.590 206.085,75.589 207.400 C 75.756 207.620,76.344 208.610,76.895 209.600 C 81.809 218.428,91.236 232.706,99.343 243.600 C 102.248 247.504,111.982 260.042,112.386 260.400 C 112.510 260.510,114.133 262.400,115.992 264.600 C 128.232 279.081,144.749 295.242,160.415 308.066 C 170.013 315.922,183.256 325.838,189.817 330.081 C 194.491 333.104,202.286 337.814,207.475 340.751 C 210.788 342.627,224.912 349.600,225.398 349.600 C 225.507 349.600,226.902 350.201,228.498 350.935 C 230.094 351.670,233.650 353.127,236.400 354.174 C 239.150 355.221,241.760 356.232,242.200 356.421 C 243.481 356.971,255.147 360.793,257.580 361.461 C 258.801 361.795,260.340 362.223,261.000 362.410 C 267.527 364.262,278.224 366.514,289.246 368.358 C 292.859 368.962,298.741 368.912,305.200 368.222 C 335.125 365.027,360.381 347.641,367.562 325.293 C 375.626 300.198,375.012 289.869,364.917 280.817 C 362.934 279.038,356.392 274.400,355.867 274.400 C 355.770 274.400,353.646 273.258,351.146 271.862 C 346.059 269.022,343.667 267.708,339.000 265.190 C 337.240 264.241,333.460 262.178,330.600 260.607 C 324.822 257.432,318.250 254.182,312.200 251.506 C 294.900 243.854,287.110 246.529,277.321 263.483 C 262.942 288.389,252.925 292.911,232.606 283.670 C 222.349 279.006,198.942 263.645,189.801 255.580 C 172.822 240.599,162.679 229.407,146.114 207.376 C 127.257 182.297,127.241 172.221,146.030 152.658 C 157.621 140.590,159.266 133.374,154.019 117.600 C 152.380 112.675,150.652 107.767,150.005 106.200 C 149.824 105.760,148.471 102.250,146.998 98.400 C 144.290 91.319,143.998 90.592,142.408 87.000 C 141.921 85.900,141.291 84.460,141.008 83.800 C 140.725 83.140,140.095 81.700,139.608 80.600 C 137.875 76.685,137.655 76.143,135.807 71.200 C 134.778 68.450,133.784 65.840,133.596 65.400 C 133.409 64.960,132.760 63.430,132.154 62.000 C 127.785 51.694,121.460 46.613,112.000 45.812 C 110.350 45.672,108.550 45.497,108.000 45.422 C 107.450 45.348,105.020 45.517,102.600 45.798 " stroke="none" fill="#fc1c1c" fill-rule="evenodd"></path><path id="path1" d="M0.000 201.800 L 0.000 403.600 200.000 403.600 L 400.000 403.600 400.000 201.800 L 400.000 0.000 200.000 0.000 L 0.000 0.000 0.000 201.800 M112.000 45.812 C 121.460 46.613,127.785 51.694,132.154 62.000 C 132.760 63.430,133.409 64.960,133.596 65.400 C 133.784 65.840,134.778 68.450,135.807 71.200 C 137.655 76.143,137.875 76.685,139.608 80.600 C 140.095 81.700,140.725 83.140,141.008 83.800 C 141.291 84.460,141.921 85.900,142.408 87.000 C 143.998 90.592,144.290 91.319,146.998 98.400 C 148.471 102.250,149.824 105.760,150.005 106.200 C 150.652 107.767,152.380 112.675,154.019 117.600 C 159.266 133.374,157.621 140.590,146.030 152.658 C 127.241 172.221,127.257 182.297,146.114 207.376 C 162.679 229.407,172.822 240.599,189.801 255.580 C 198.942 263.645,222.349 279.006,232.606 283.670 C 252.925 292.911,262.942 288.389,277.321 263.483 C 287.110 246.529,294.900 243.854,312.200 251.506 C 318.250 254.182,324.822 257.432,330.600 260.607 C 333.460 262.178,337.240 264.241,339.000 265.190 C 343.667 267.708,346.059 269.022,351.146 271.862 C 353.646 273.258,355.770 274.400,355.867 274.400 C 356.392 274.400,362.934 279.038,364.917 280.817 C 375.012 289.869,375.626 300.198,367.562 325.293 C 360.381 347.641,335.125 365.027,305.200 368.222 C 298.741 368.912,292.859 368.962,289.246 368.358 C 278.224 366.514,267.527 364.262,261.000 362.410 C 260.340 362.223,258.801 361.795,257.580 361.461 C 255.147 360.793,243.481 356.971,242.200 356.421 C 241.760 356.232,239.150 355.221,236.400 354.174 C 233.650 353.127,230.094 351.670,228.498 350.935 C 226.902 350.201,225.507 349.600,225.398 349.600 C 225.289 349.600,222.038 348.077,218.174 346.216 C 199.336 337.140,181.717 325.502,160.415 308.066 C 144.749 295.242,128.232 279.081,115.992 264.600 C 114.133 262.400,112.510 260.510,112.386 260.400 C 111.982 260.042,102.248 247.504,99.343 243.600 C 91.236 232.706,81.809 218.428,76.895 209.600 C 76.344 208.610,75.756 207.620,75.589 207.400 C 73.010 204.004,59.624 176.679,56.386 168.200 C 55.398 165.612,53.690 160.170,53.154 157.900 C 52.959 157.075,52.620 155.635,52.400 154.700 C 47.210 132.668,49.577 105.220,58.377 85.400 C 68.268 63.125,77.606 52.838,92.447 47.871 C 96.710 46.444,105.423 45.072,108.000 45.422 C 108.550 45.497,110.350 45.672,112.000 45.812 " stroke="none" fill="#fcfbfb" fill-rule="evenodd"></path></g></svg>