<svg id="svg" version="1.1" xmlns="http://www.w3.org/2000/svg" xmlns:xlink="http://www.w3.org/1999/xlink" width="400" height="362.753036437247" viewBox="0, 0, 400,362.753036437247"><g id="svgg"><path id="path0" d="M198.185 12.191 C 186.872 12.945,179.627 13.935,169.328 16.136 C 165.031 17.054,158.431 18.842,154.083 20.266 C 150.242 21.524,144.912 23.488,144.016 23.976 C 143.669 24.165,143.224 24.319,143.027 24.319 C 142.829 24.319,141.643 24.788,140.390 25.360 C 139.137 25.933,137.296 26.762,136.298 27.204 C 128.160 30.802,116.990 37.257,107.999 43.557 C 84.756 59.843,64.443 84.544,52.205 111.403 C 49.705 116.890,46.916 123.970,45.850 127.536 C 45.544 128.562,45.170 129.728,45.020 130.127 C 44.474 131.577,42.792 137.640,41.747 141.924 C 41.576 142.623,41.277 143.848,41.083 144.646 C 40.005 149.063,38.626 158.045,37.684 166.788 C 36.008 182.328,37.651 203.023,42.106 222.505 C 49.698 255.708,73.258 292.525,100.181 313.261 C 101.080 313.953,101.897 314.601,101.996 314.701 C 104.041 316.745,120.866 328.131,121.842 328.131 C 121.945 328.131,122.473 328.446,123.014 328.832 C 124.002 329.535,136.942 336.116,137.337 336.116 C 137.453 336.116,138.492 336.541,139.645 337.061 C 142.427 338.315,142.616 338.390,146.824 339.932 C 148.820 340.664,150.780 341.399,151.180 341.567 C 154.221 342.842,165.122 345.815,171.688 347.159 C 173.385 347.507,175.426 347.930,176.225 348.101 C 177.690 348.413,180.695 348.851,186.025 349.530 C 198.433 351.111,214.539 351.106,226.679 349.519 C 233.451 348.633,235.104 348.394,236.479 348.101 C 237.278 347.930,239.319 347.507,241.016 347.159 C 247.188 345.895,254.732 343.871,259.891 342.094 C 263.813 340.743,270.487 338.233,272.414 337.385 C 278.530 334.692,285.476 331.262,288.854 329.266 C 289.911 328.642,290.840 328.131,290.919 328.131 C 291.104 328.131,297.340 324.265,297.845 323.837 C 298.057 323.657,298.599 323.313,299.048 323.073 C 306.734 318.960,323.642 304.300,333.197 293.466 C 342.703 282.688,350.000 272.028,356.798 258.984 C 361.431 250.096,364.551 242.338,368.769 229.220 C 369.258 227.699,371.501 218.745,371.996 216.334 C 377.126 191.391,376.814 167.992,371.003 141.924 C 370.034 137.579,366.060 124.650,364.811 121.779 C 364.637 121.379,364.071 119.948,363.554 118.598 C 361.743 113.875,355.767 101.407,353.486 97.592 C 348.042 88.491,338.246 74.466,335.772 72.232 C 335.661 72.132,334.511 70.826,333.215 69.328 C 329.513 65.049,322.306 57.925,316.865 53.165 C 310.233 47.363,299.353 39.505,292.850 35.820 C 291.991 35.334,290.227 34.327,288.929 33.584 C 284.812 31.227,277.924 27.827,272.595 25.521 C 263.684 21.665,252.779 18.160,243.376 16.130 C 235.557 14.443,232.428 13.947,222.868 12.884 C 218.156 12.360,202.320 11.915,198.185 12.191 M259.321 104.361 C 266.212 105.965,273.263 109.614,278.158 114.108 C 279.724 115.547,280.030 115.687,281.061 115.440 C 281.695 115.288,283.113 114.959,284.211 114.710 C 288.845 113.656,295.913 111.044,300.997 108.507 C 305.267 106.376,305.435 106.634,302.951 111.503 C 300.213 116.869,296.388 121.548,292.065 124.821 C 289.320 126.900,288.360 127.769,288.813 127.765 C 288.977 127.763,290.172 127.600,291.470 127.401 C 293.705 127.059,294.538 126.885,298.639 125.903 C 300.753 125.397,305.981 123.715,308.091 122.862 C 308.948 122.515,309.740 122.323,309.850 122.434 C 310.932 123.515,296.703 138.377,291.436 141.666 C 290.805 142.060,290.744 142.581,290.744 147.603 C 290.744 155.476,289.548 165.726,287.849 172.414 C 278.403 209.589,256.887 235.136,221.696 250.961 C 219.085 252.134,215.126 253.558,211.071 254.780 C 208.517 255.550,199.252 257.681,196.915 258.036 C 195.517 258.248,192.985 258.628,191.289 258.881 C 187.216 259.489,169.107 259.485,164.247 258.876 C 159.538 258.285,155.897 257.736,154.083 257.343 C 146.457 255.688,146.894 255.805,140.472 253.681 C 132.979 251.202,122.278 246.418,118.715 243.954 C 118.204 243.601,117.490 243.205,117.128 243.074 C 115.434 242.462,117.340 242.209,122.408 242.374 C 128.216 242.562,135.781 241.920,141.198 240.777 C 142.695 240.461,144.492 240.084,145.191 239.938 C 146.493 239.667,152.781 237.627,154.083 237.054 C 154.483 236.878,155.381 236.526,156.080 236.272 C 160.949 234.500,173.100 227.344,173.644 225.928 C 173.801 225.518,173.441 225.407,171.949 225.403 C 159.432 225.368,145.222 215.500,138.885 202.444 C 136.857 198.265,136.621 198.444,144.102 198.494 C 149.842 198.533,153.324 198.158,154.060 197.423 C 154.166 197.317,153.234 196.941,151.990 196.587 C 140.633 193.362,132.179 186.197,126.879 175.306 C 124.581 170.584,123.049 164.898,123.049 161.092 C 123.049 158.697,123.260 158.457,124.708 159.211 C 128.916 161.401,140.109 163.896,140.109 162.645 C 140.109 162.462,139.088 161.500,137.840 160.507 C 124.069 149.548,119.767 130.850,127.158 114.076 C 128.439 111.167,129.001 110.708,129.945 111.796 C 137.070 120.011,146.088 127.948,154.072 133.031 C 159.613 136.558,168.088 141.165,171.869 142.706 C 184.200 147.730,196.030 150.625,208.122 151.578 L 211.344 151.831 211.098 150.417 C 206.183 122.180,231.598 97.907,259.321 104.361 " stroke="none" fill="#040404" fill-rule="evenodd"></path><path id="path1" d="M0.000 181.488 L 0.000 362.976 200.000 362.976 L 400.000 362.976 400.000 181.488 L 400.000 0.000 200.000 0.000 L 0.000 0.000 0.000 181.488 M222.868 12.884 C 232.428 13.947,235.557 14.443,243.376 16.130 C 247.741 17.073,254.318 18.857,258.621 20.266 C 268.966 23.654,280.227 28.602,288.929 33.584 C 290.227 34.327,291.991 35.334,292.850 35.820 C 305.680 43.090,322.835 57.332,333.215 69.328 C 334.511 70.826,335.661 72.132,335.772 72.232 C 338.246 74.466,348.042 88.491,353.486 97.592 C 355.767 101.407,361.743 113.875,363.554 118.598 C 364.071 119.948,364.637 121.379,364.811 121.779 C 366.060 124.650,370.034 137.579,371.003 141.924 C 376.814 167.992,377.126 191.391,371.996 216.334 C 371.501 218.745,369.258 227.699,368.769 229.220 C 364.551 242.338,361.431 250.096,356.798 258.984 C 353.256 265.780,351.266 269.160,347.172 275.331 C 335.223 293.344,312.527 315.859,299.048 323.073 C 298.599 323.313,298.057 323.657,297.845 323.837 C 297.340 324.265,291.104 328.131,290.919 328.131 C 290.840 328.131,289.911 328.642,288.854 329.266 C 285.476 331.262,278.530 334.692,272.414 337.385 C 270.487 338.233,263.813 340.743,259.891 342.094 C 254.732 343.871,247.188 345.895,241.016 347.159 C 239.319 347.507,237.278 347.930,236.479 348.101 C 235.104 348.394,233.451 348.633,226.679 349.519 C 211.614 351.488,189.153 350.857,176.225 348.101 C 175.426 347.930,173.385 347.507,171.688 347.159 C 165.122 345.815,154.221 342.842,151.180 341.567 C 150.780 341.399,148.820 340.664,146.824 339.932 C 142.616 338.390,142.427 338.315,139.645 337.061 C 138.492 336.541,137.453 336.116,137.337 336.116 C 136.942 336.116,124.002 329.535,123.014 328.832 C 122.473 328.446,121.945 328.131,121.842 328.131 C 120.866 328.131,104.041 316.745,101.996 314.701 C 101.897 314.601,101.080 313.953,100.181 313.261 C 73.258 292.525,49.698 255.708,42.106 222.505 C 37.651 203.023,36.008 182.328,37.684 166.788 C 38.626 158.045,40.005 149.063,41.083 144.646 C 41.277 143.848,41.576 142.623,41.747 141.924 C 42.792 137.640,44.474 131.577,45.020 130.127 C 45.170 129.728,45.544 128.562,45.850 127.536 C 54.445 98.780,77.583 66.497,103.792 46.693 C 113.866 39.081,126.309 31.621,136.298 27.204 C 137.296 26.762,139.137 25.933,140.390 25.360 C 141.643 24.788,142.829 24.319,143.027 24.319 C 143.224 24.319,143.669 24.165,144.016 23.976 C 144.912 23.488,150.242 21.524,154.083 20.266 C 158.431 18.842,165.031 17.054,169.328 16.136 C 175.749 14.764,177.236 14.503,184.664 13.444 C 186.974 13.115,193.757 12.486,198.185 12.191 C 202.320 11.915,218.156 12.360,222.868 12.884 M245.191 103.787 C 222.466 106.709,207.139 127.672,211.098 150.417 L 211.344 151.831 208.122 151.578 C 203.645 151.225,196.804 150.256,193.466 149.502 C 186.474 147.922,178.556 145.431,171.869 142.706 C 168.088 141.165,159.613 136.558,154.072 133.031 C 146.088 127.948,137.070 120.011,129.945 111.796 C 129.001 110.708,128.439 111.167,127.158 114.076 C 119.767 130.850,124.069 149.548,137.840 160.507 C 139.088 161.500,140.109 162.462,140.109 162.645 C 140.109 163.896,128.916 161.401,124.708 159.211 C 120.348 156.942,124.051 171.670,130.180 180.976 C 135.186 188.579,142.682 193.943,151.990 196.587 C 153.234 196.941,154.166 197.317,154.060 197.423 C 153.324 198.158,149.842 198.533,144.102 198.494 C 136.621 198.444,136.857 198.265,138.885 202.444 C 144.685 214.394,154.219 221.813,167.695 224.864 C 168.993 225.157,170.907 225.400,171.949 225.403 C 173.441 225.407,173.801 225.518,173.644 225.928 C 173.100 227.344,160.949 234.500,156.080 236.272 C 155.381 236.526,154.483 236.878,154.083 237.054 C 152.781 237.627,146.493 239.667,145.191 239.938 C 144.492 240.084,142.695 240.461,141.198 240.777 C 135.781 241.920,128.216 242.562,122.408 242.374 C 117.340 242.209,115.434 242.462,117.128 243.074 C 117.490 243.205,118.204 243.601,118.715 243.954 C 122.278 246.418,132.979 251.202,140.472 253.681 C 146.894 255.805,146.457 255.688,154.083 257.343 C 155.897 257.736,159.538 258.285,164.247 258.876 C 169.107 259.485,187.216 259.489,191.289 258.881 C 192.985 258.628,195.517 258.248,196.915 258.036 C 199.252 257.681,208.517 255.550,211.071 254.780 C 215.126 253.558,219.085 252.134,221.696 250.961 C 256.887 235.136,278.403 209.589,287.849 172.414 C 289.548 165.726,290.744 155.476,290.744 147.603 C 290.744 142.581,290.805 142.060,291.436 141.666 C 296.703 138.377,310.932 123.515,309.850 122.434 C 309.740 122.323,308.948 122.515,308.091 122.862 C 303.520 124.709,296.462 126.637,291.470 127.401 C 290.172 127.600,288.977 127.763,288.813 127.765 C 288.360 127.769,289.320 126.900,292.065 124.821 C 296.388 121.548,300.213 116.869,302.951 111.503 C 305.435 106.634,305.267 106.376,300.997 108.507 C 295.913 111.044,288.845 113.656,284.211 114.710 C 283.113 114.959,281.695 115.288,281.061 115.440 C 280.030 115.687,279.724 115.547,278.158 114.108 C 269.644 106.290,256.858 102.287,245.191 103.787 " stroke="none" fill="#fbfbfb" fill-rule="evenodd"></path></g></svg>