<svg id="svg" version="1.1" xmlns="http://www.w3.org/2000/svg" xmlns:xlink="http://www.w3.org/1999/xlink" width="400" height="400" viewBox="0, 0, 400,400"><g id="svgg"><path id="path0" d="M358.983 35.700 C 358.878 35.975,358.838 44.210,358.896 54.000 L 359.000 71.800 370.900 71.906 L 382.800 72.012 382.800 53.606 L 382.800 35.200 370.987 35.200 C 361.906 35.200,359.131 35.316,358.983 35.700 M182.100 35.862 C 181.710 36.021,181.600 40.076,181.600 54.233 L 181.600 72.400 193.804 72.400 L 206.008 72.400 205.904 54.100 L 205.800 35.800 194.200 35.728 C 187.820 35.689,182.375 35.749,182.100 35.862 M157.400 221.007 C 146.875 222.656,138.072 226.102,129.726 231.841 C 125.329 234.864,123.472 236.407,118.395 241.258 C 116.354 243.208,111.651 248.652,109.806 251.200 C 106.822 255.321,106.762 255.363,104.961 254.600 C 93.748 249.852,87.631 250.985,69.400 261.188 C 53.327 270.183,47.770 282.087,52.776 296.800 C 53.597 299.211,58.397 311.588,59.214 313.400 C 59.412 313.840,60.306 316.090,61.200 318.400 C 62.094 320.710,62.996 322.960,63.205 323.400 C 63.414 323.840,64.582 326.810,65.800 330.000 C 67.018 333.190,68.178 336.160,68.377 336.600 C 68.576 337.040,69.482 339.290,70.390 341.600 C 71.298 343.910,72.202 346.160,72.399 346.600 C 72.597 347.040,73.764 350.010,74.993 353.200 C 76.222 356.390,77.392 359.360,77.594 359.800 C 77.796 360.240,78.981 363.210,80.228 366.400 C 86.189 381.657,92.548 387.672,104.384 389.247 C 113.474 390.458,116.213 389.532,135.526 378.727 C 141.759 375.239,146.524 369.834,148.684 363.800 C 149.078 362.700,149.580 361.668,149.800 361.506 C 150.020 361.344,166.326 361.209,186.036 361.206 C 223.087 361.200,225.697 361.103,231.600 359.515 C 233.250 359.071,234.960 358.623,235.400 358.520 C 235.840 358.417,236.560 358.187,237.000 358.008 C 237.440 357.829,238.790 357.284,240.000 356.797 C 242.745 355.691,247.036 353.431,254.000 349.424 C 256.970 347.715,260.390 345.766,261.600 345.093 C 262.810 344.421,265.572 342.819,267.737 341.535 C 269.903 340.251,271.725 339.200,271.786 339.200 C 271.848 339.200,274.576 337.652,277.849 335.761 C 281.122 333.869,284.790 331.771,286.000 331.098 C 287.210 330.425,288.871 329.452,289.692 328.937 C 290.513 328.422,291.275 328.000,291.385 328.000 C 291.496 328.000,292.762 327.280,294.200 326.400 C 295.638 325.520,296.897 324.800,296.999 324.800 C 297.101 324.800,298.169 324.170,299.373 323.400 C 300.577 322.630,301.639 322.000,301.733 322.000 C 301.827 322.000,304.085 320.740,306.752 319.200 C 309.418 317.660,313.782 315.140,316.448 313.600 C 319.115 312.060,321.346 310.800,321.408 310.800 C 321.469 310.800,323.800 309.450,326.587 307.800 C 329.374 306.150,331.729 304.800,331.820 304.800 C 331.911 304.800,333.162 304.080,334.600 303.200 C 336.038 302.320,337.283 301.600,337.367 301.600 C 337.450 301.600,339.800 300.250,342.587 298.600 C 345.374 296.950,347.710 295.600,347.777 295.600 C 347.844 295.600,349.947 294.408,352.450 292.952 C 359.903 288.614,363.354 286.635,364.552 286.010 C 373.102 281.553,379.619 262.037,376.244 251.000 C 370.547 232.374,342.381 223.509,313.600 231.282 C 311.950 231.728,310.240 232.188,309.800 232.304 C 309.360 232.420,308.820 232.645,308.600 232.803 C 308.380 232.961,307.700 233.209,307.089 233.355 C 305.906 233.638,303.858 234.537,297.301 237.652 C 295.046 238.724,293.115 239.600,293.010 239.600 C 292.904 239.600,291.419 240.243,289.709 241.029 C 287.999 241.815,286.060 242.699,285.400 242.994 C 284.740 243.289,283.210 243.979,282.000 244.527 C 280.790 245.074,277.910 246.366,275.600 247.398 C 273.290 248.430,270.262 249.797,268.872 250.437 C 267.482 251.077,266.296 251.600,266.236 251.600 C 266.131 251.600,265.925 250.950,264.580 246.349 C 262.053 237.711,254.992 230.460,246.095 227.366 L 243.000 226.290 218.200 225.959 C 197.998 225.689,193.103 225.519,191.800 225.040 C 190.238 224.467,189.312 224.191,184.800 222.953 C 176.181 220.589,165.091 219.801,157.400 221.007 M175.400 245.204 C 176.500 245.467,180.190 246.568,183.600 247.649 L 189.800 249.616 197.634 249.608 C 201.943 249.604,213.063 249.719,222.345 249.865 L 239.221 250.131 240.241 251.150 C 243.493 254.402,242.927 262.720,239.343 264.353 C 238.657 264.666,231.404 264.800,215.181 264.800 L 192.000 264.800 192.000 276.600 L 192.000 288.400 217.206 288.400 C 245.243 288.400,244.762 288.440,250.000 285.661 C 254.775 283.128,258.207 281.409,260.413 280.443 C 264.038 278.858,266.078 277.949,268.600 276.800 C 272.026 275.238,274.036 274.332,278.800 272.200 C 283.564 270.068,285.574 269.162,289.000 267.600 C 292.457 266.024,294.464 265.119,299.200 263.001 C 301.510 261.968,304.300 260.709,305.400 260.203 C 316.538 255.087,317.765 254.632,323.800 253.389 C 328.199 252.483,338.694 252.475,342.800 253.375 C 354.180 255.871,355.815 257.728,352.323 264.200 C 351.205 266.273,348.415 268.090,334.200 276.002 C 333.320 276.492,331.160 277.742,329.400 278.779 C 327.640 279.817,325.120 281.266,323.800 281.998 C 319.374 284.455,318.616 284.886,315.000 286.995 C 313.020 288.150,310.590 289.546,309.600 290.096 C 308.610 290.646,305.370 292.489,302.400 294.190 C 299.430 295.891,296.100 297.786,295.000 298.400 C 293.900 299.014,291.140 300.615,288.867 301.958 C 286.594 303.301,284.682 304.400,284.618 304.400 C 284.554 304.400,282.476 305.570,280.000 307.000 C 277.524 308.430,275.435 309.600,275.357 309.600 C 275.279 309.600,274.231 310.230,273.027 311.000 C 271.823 311.770,270.763 312.400,270.670 312.400 C 270.577 312.400,268.476 313.570,266.000 315.000 C 263.524 316.430,261.448 317.600,261.387 317.600 C 261.325 317.600,259.503 318.651,257.337 319.935 C 255.172 321.219,252.346 322.855,251.058 323.570 C 249.770 324.286,245.180 326.891,240.858 329.359 C 231.331 334.800,228.649 335.961,223.600 336.826 C 221.722 337.148,204.539 337.243,154.577 337.206 L 145.754 337.200 145.117 335.700 C 144.766 334.875,143.281 331.140,141.816 327.400 C 140.351 323.660,138.989 320.240,138.789 319.800 C 138.588 319.360,137.873 317.560,137.200 315.800 C 136.527 314.040,135.812 312.240,135.611 311.800 C 135.411 311.360,134.054 307.940,132.597 304.200 C 131.139 300.460,129.784 297.040,129.586 296.600 C 129.387 296.160,128.673 294.360,128.000 292.600 C 127.327 290.840,126.612 289.040,126.411 288.600 C 125.111 285.749,122.000 277.394,122.000 276.752 C 122.000 276.326,123.095 274.238,124.434 272.113 C 134.586 255.999,146.773 246.744,160.600 244.647 C 162.775 244.317,173.361 244.716,175.400 245.204 M95.295 276.789 C 95.847 277.223,96.707 278.618,97.208 279.889 C 97.708 281.160,98.354 282.740,98.644 283.400 C 98.933 284.060,100.174 287.210,101.400 290.400 C 102.626 293.590,103.877 296.740,104.178 297.400 C 104.480 298.060,105.306 300.130,106.012 302.000 C 106.719 303.870,107.532 305.940,107.818 306.600 C 108.105 307.260,109.535 310.860,110.996 314.600 C 112.458 318.340,113.815 321.760,114.012 322.200 C 114.210 322.640,116.275 327.860,118.602 333.800 C 120.929 339.740,122.994 344.960,123.191 345.400 C 127.289 354.533,127.209 356.194,122.549 358.600 C 121.697 359.040,118.391 360.831,115.203 362.580 C 108.819 366.082,107.498 366.395,105.811 364.810 C 105.255 364.288,104.800 363.694,104.800 363.491 C 104.800 363.287,104.545 362.554,104.232 361.860 C 103.920 361.167,102.286 357.090,100.601 352.800 C 98.917 348.510,97.378 344.640,97.181 344.200 C 96.985 343.760,96.273 341.960,95.600 340.200 C 94.927 338.440,94.223 336.640,94.036 336.200 C 93.849 335.760,93.383 334.590,93.000 333.600 C 92.617 332.610,92.155 331.440,91.972 331.000 C 91.790 330.560,90.898 328.310,89.990 326.000 C 89.082 323.690,88.181 321.440,87.987 321.000 C 87.793 320.560,85.728 315.340,83.398 309.400 C 81.068 303.460,78.994 298.240,78.789 297.800 C 74.058 287.642,74.184 285.771,79.800 282.801 C 81.560 281.870,83.180 280.976,83.400 280.815 C 83.738 280.567,87.348 278.587,91.200 276.537 C 92.621 275.781,94.132 275.874,95.295 276.789 " stroke="none" fill="#1d2d44" fill-rule="evenodd"></path><path id="path1" d="M277.000 65.193 C 225.150 69.436,193.995 122.863,215.999 169.800 C 234.536 209.341,284.760 223.768,321.800 200.192 C 348.811 183.000,361.181 151.367,353.316 119.600 C 345.047 86.199,311.608 62.360,277.000 65.193 M290.699 96.200 C 290.819 101.553,290.990 102.400,291.956 102.400 C 293.796 102.400,300.499 105.105,303.921 107.228 C 304.844 107.801,304.899 109.854,304.022 111.000 C 303.854 111.220,303.243 112.750,302.664 114.400 C 299.381 123.762,299.126 124.167,297.306 122.883 C 296.044 121.993,292.289 120.238,289.614 119.288 C 282.310 116.694,274.989 120.465,279.347 124.576 C 280.485 125.649,286.199 128.800,287.007 128.800 C 287.563 128.800,294.425 132.379,296.165 133.576 C 310.633 143.530,309.090 164.266,293.316 171.853 L 290.422 173.245 290.311 178.923 L 290.200 184.600 282.112 184.708 L 274.023 184.816 273.912 179.547 L 273.800 174.278 270.400 173.364 C 265.249 171.980,258.004 168.142,258.009 166.800 C 258.012 166.168,258.156 165.737,260.812 158.400 C 261.728 155.870,262.649 153.215,262.858 152.500 C 263.311 150.949,263.652 150.900,265.327 152.150 C 274.235 158.796,286.480 159.544,287.461 153.502 C 287.984 150.276,286.025 148.440,278.439 145.050 C 264.440 138.793,259.956 133.514,259.880 123.200 C 259.816 114.575,263.496 108.720,271.669 104.444 L 274.600 102.910 274.712 97.571 C 274.849 91.060,274.098 91.580,283.200 91.701 L 290.600 91.800 290.699 96.200 " stroke="none" fill="#fc1c1c" fill-rule="evenodd"></path><path id="path2" d="M0.000 200.000 L 0.000 400.000 200.000 400.000 L 400.000 400.000 400.000 200.000 L 400.000 0.000 200.000 0.000 L 0.000 0.000 0.000 200.000 M383.104 53.574 C 383.186 68.168,383.100 72.216,382.704 72.468 C 382.121 72.838,359.982 72.921,359.033 72.557 C 358.369 72.303,358.017 35.716,358.672 35.061 C 358.822 34.911,364.357 34.836,370.972 34.894 L 383.000 35.000 383.104 53.574 M205.904 54.106 L 206.008 72.812 193.704 72.706 L 181.400 72.600 181.296 54.446 C 181.220 41.263,181.317 36.141,181.650 35.740 C 182.024 35.289,184.275 35.208,193.954 35.294 L 205.800 35.400 205.904 54.106 M294.200 65.598 C 313.817 69.516,330.544 79.427,340.445 93.000 C 341.408 94.320,342.306 95.490,342.440 95.600 C 344.028 96.896,350.138 108.667,351.917 113.859 C 363.673 148.159,349.941 184.376,318.286 202.552 C 316.133 203.789,314.293 204.800,314.197 204.800 C 314.101 204.800,313.072 205.233,311.911 205.762 C 272.010 223.945,221.687 200.083,211.185 158.000 C 207.662 143.886,207.648 133.058,211.132 118.800 C 214.512 104.969,225.064 89.359,237.400 79.942 C 242.432 76.101,253.182 70.000,254.918 70.000 C 255.205 70.000,255.611 69.846,255.820 69.658 C 257.023 68.575,267.625 65.963,274.600 65.032 C 277.040 64.706,291.880 65.134,294.200 65.598 M275.467 92.267 C 275.320 92.413,275.197 94.798,275.194 97.567 C 275.187 103.166,275.169 103.225,273.200 103.988 C 259.694 109.226,255.531 126.647,265.399 136.629 C 268.717 139.986,271.416 141.647,279.000 145.001 C 284.870 147.597,287.238 149.416,287.833 151.790 C 289.767 159.493,275.856 160.007,265.564 152.612 L 263.674 151.255 263.271 152.327 C 262.631 154.027,260.937 158.813,260.202 161.000 C 259.832 162.100,259.368 163.307,259.172 163.683 C 257.955 166.010,258.256 167.347,260.271 168.568 C 263.592 170.580,265.328 171.435,267.600 172.180 C 268.810 172.576,270.213 173.058,270.719 173.250 C 271.224 173.443,272.057 173.600,272.570 173.600 C 274.116 173.600,274.368 174.394,274.487 179.625 L 274.600 184.600 282.200 184.600 L 289.800 184.600 289.911 178.900 L 290.022 173.200 292.907 171.774 C 299.570 168.481,303.111 164.364,305.218 157.462 C 305.798 155.561,305.799 147.239,305.220 146.660 C 304.989 146.429,304.800 145.906,304.800 145.498 C 304.800 141.191,297.644 133.891,290.200 130.605 C 280.177 126.179,277.995 124.648,278.006 122.046 C 278.028 116.967,285.258 116.631,294.722 121.270 C 296.989 122.381,298.913 123.220,298.998 123.135 C 299.084 123.050,300.162 120.284,301.395 116.990 C 302.629 113.695,303.914 110.378,304.251 109.618 C 304.821 108.336,304.812 108.197,304.132 107.689 C 302.828 106.713,296.239 103.627,294.880 103.356 C 294.154 103.211,292.894 102.863,292.080 102.584 L 290.600 102.076 290.488 97.038 L 290.376 92.000 283.055 92.000 C 279.028 92.000,275.613 92.120,275.467 92.267 M173.600 220.404 C 179.070 220.895,182.108 221.550,188.600 223.641 C 193.221 225.129,200.403 225.490,226.857 225.563 C 244.668 225.612,248.452 226.428,255.033 231.636 C 258.402 234.303,262.800 239.708,262.800 241.181 C 262.800 241.411,262.980 241.600,263.200 241.600 C 263.420 241.600,263.600 241.848,263.600 242.150 C 263.600 242.453,264.027 243.668,264.549 244.850 C 265.071 246.033,265.627 247.764,265.784 248.698 C 266.136 250.793,266.494 251.034,268.120 250.271 C 270.466 249.170,283.432 243.369,286.200 242.183 C 288.415 241.234,292.169 239.512,296.400 237.504 C 306.838 232.550,312.132 230.737,320.800 229.150 C 324.825 228.412,342.431 228.391,345.800 229.119 C 347.120 229.404,349.460 229.919,351.000 230.262 C 369.509 234.392,378.095 244.352,377.499 261.000 C 377.397 263.860,377.130 266.650,376.908 267.200 C 376.685 267.750,376.286 268.920,376.021 269.800 C 375.384 271.915,372.231 278.295,371.097 279.760 C 368.098 283.639,361.430 289.200,359.778 289.200 C 359.671 289.200,358.823 289.680,357.893 290.267 C 355.774 291.605,349.537 295.200,349.335 295.200 C 349.252 295.200,348.439 295.670,347.529 296.245 C 346.619 296.819,345.138 297.693,344.237 298.187 C 343.337 298.681,340.552 300.281,338.050 301.743 C 335.547 303.204,333.423 304.400,333.330 304.400 C 333.237 304.400,332.177 305.030,330.973 305.800 C 329.769 306.570,328.701 307.200,328.599 307.200 C 328.497 307.200,327.238 307.920,325.800 308.800 C 324.362 309.680,323.125 310.400,323.050 310.400 C 322.976 310.400,321.359 311.300,319.457 312.400 C 317.556 313.500,314.444 315.300,312.543 316.400 C 310.641 317.500,309.024 318.400,308.950 318.400 C 308.875 318.400,307.638 319.120,306.200 320.000 C 304.762 320.880,303.495 321.600,303.383 321.600 C 303.272 321.600,302.040 322.320,300.647 323.200 C 299.254 324.080,298.001 324.800,297.865 324.800 C 297.728 324.800,296.631 325.430,295.427 326.200 C 294.223 326.970,293.143 327.600,293.026 327.600 C 292.910 327.600,291.638 328.320,290.200 329.200 C 288.762 330.080,287.496 330.800,287.385 330.800 C 287.275 330.800,286.439 331.270,285.529 331.845 C 284.619 332.419,283.138 333.289,282.237 333.778 C 281.337 334.267,278.999 335.597,277.043 336.734 C 275.086 337.870,273.417 338.800,273.335 338.800 C 273.252 338.800,272.513 339.222,271.692 339.738 C 270.164 340.699,261.374 345.788,257.817 347.771 C 256.726 348.379,253.396 350.267,250.417 351.966 C 247.438 353.664,243.920 355.549,242.600 356.153 C 241.280 356.757,239.930 357.383,239.600 357.544 C 239.270 357.706,237.920 358.169,236.600 358.575 C 235.280 358.980,233.840 359.447,233.400 359.612 C 228.044 361.619,220.575 361.975,183.508 361.988 L 149.615 362.000 149.353 363.100 C 148.190 367.978,142.053 375.714,137.350 378.229 C 135.986 378.959,134.210 379.940,129.800 382.400 C 117.010 389.534,116.248 389.800,108.600 389.800 C 102.516 389.800,99.535 389.196,96.000 387.248 C 95.010 386.702,93.782 386.037,93.272 385.771 C 87.761 382.891,83.878 377.249,79.392 365.600 C 77.089 359.621,76.923 359.206,75.841 356.740 C 75.488 355.936,75.200 355.027,75.200 354.720 C 75.200 354.412,75.050 353.989,74.867 353.780 C 74.685 353.571,73.774 351.420,72.844 349.000 C 71.914 346.580,70.992 344.240,70.797 343.800 C 70.601 343.360,69.695 341.110,68.783 338.800 C 67.871 336.490,66.872 334.033,66.563 333.340 C 66.253 332.646,66.000 331.827,66.000 331.520 C 66.000 331.212,65.849 330.789,65.664 330.580 C 65.479 330.371,65.092 329.570,64.804 328.800 C 64.516 328.030,64.061 326.860,63.794 326.200 C 63.527 325.540,62.993 324.190,62.606 323.200 C 62.220 322.210,61.755 321.040,61.572 320.600 C 61.390 320.160,60.495 317.910,59.583 315.600 C 58.671 313.290,57.699 310.860,57.423 310.200 C 57.146 309.540,56.692 308.370,56.413 307.600 C 56.134 306.830,55.657 305.633,55.353 304.940 C 55.049 304.246,54.800 303.577,54.800 303.451 C 54.800 303.326,54.366 302.273,53.835 301.112 C 46.870 285.870,51.920 270.281,66.400 262.321 C 67.390 261.777,69.280 260.738,70.600 260.013 C 71.920 259.287,74.890 257.649,77.200 256.372 C 86.993 250.958,96.093 250.196,104.744 254.065 C 105.703 254.494,106.527 254.790,106.575 254.723 C 124.815 229.105,146.548 217.977,173.600 220.404 M160.600 245.226 C 149.558 246.489,137.469 254.525,128.737 266.405 C 127.144 268.573,122.400 276.343,122.400 276.785 C 122.400 277.156,124.391 282.450,125.189 284.200 C 125.389 284.640,126.746 288.060,128.203 291.800 C 129.661 295.540,131.016 298.960,131.214 299.400 C 131.413 299.840,132.127 301.640,132.800 303.400 C 133.473 305.160,134.181 306.960,134.373 307.400 C 134.565 307.840,135.211 309.460,135.808 311.000 C 136.405 312.540,137.047 314.160,137.235 314.600 C 137.422 315.040,138.127 316.840,138.800 318.600 C 139.473 320.360,140.189 322.160,140.391 322.600 C 140.593 323.040,141.770 325.999,143.008 329.175 C 144.245 332.351,145.519 335.456,145.839 336.075 L 146.421 337.200 181.536 337.200 C 224.369 337.200,224.500 337.190,233.000 333.143 C 234.540 332.410,236.736 331.222,237.881 330.505 C 239.025 329.787,240.037 329.200,240.130 329.200 C 240.223 329.200,242.324 328.030,244.800 326.600 C 247.276 325.170,249.377 324.000,249.470 324.000 C 249.563 324.000,250.623 323.370,251.827 322.600 C 253.031 321.830,254.106 321.200,254.216 321.200 C 254.326 321.200,255.087 320.778,255.908 320.263 C 256.729 319.748,258.480 318.728,259.800 317.998 C 264.127 315.603,264.959 315.129,268.660 312.952 C 270.674 311.769,272.519 310.800,272.760 310.800 C 273.002 310.800,273.200 310.620,273.200 310.400 C 273.200 310.180,273.350 310.000,273.534 310.000 C 273.718 310.000,276.682 308.389,280.122 306.419 C 283.562 304.450,287.147 302.401,288.088 301.866 C 289.030 301.331,291.848 299.702,294.350 298.246 C 296.853 296.791,298.946 295.600,299.000 295.600 C 299.054 295.600,301.124 294.430,303.600 293.000 C 306.076 291.570,308.165 290.400,308.243 290.400 C 308.321 290.400,309.369 289.770,310.573 289.000 C 311.777 288.230,312.864 287.600,312.989 287.600 C 313.114 287.600,313.887 287.178,314.708 286.663 C 315.529 286.148,317.280 285.128,318.600 284.398 C 322.625 282.170,323.325 281.767,325.444 280.460 C 326.569 279.767,327.600 279.200,327.736 279.200 C 327.873 279.200,328.969 278.570,330.173 277.800 C 331.377 277.030,332.464 276.400,332.589 276.400 C 332.714 276.400,333.487 275.978,334.308 275.463 C 335.129 274.948,336.880 273.928,338.200 273.198 C 348.697 267.388,350.515 266.188,351.653 264.325 C 355.193 258.524,353.872 256.483,345.200 254.353 C 339.520 252.957,326.267 252.751,323.281 254.012 C 322.776 254.225,322.015 254.400,321.590 254.400 C 320.496 254.400,315.076 256.253,312.000 257.679 C 310.570 258.342,308.410 259.326,307.200 259.866 C 305.990 260.406,304.280 261.187,303.400 261.601 C 302.520 262.015,300.900 262.748,299.800 263.230 C 298.700 263.712,296.720 264.598,295.400 265.199 C 289.615 267.834,288.488 268.342,286.600 269.169 C 285.500 269.651,283.880 270.385,283.000 270.800 C 282.120 271.215,280.500 271.948,279.400 272.430 C 278.300 272.912,276.320 273.798,275.000 274.400 C 273.680 275.002,271.700 275.902,270.600 276.400 C 269.500 276.898,267.430 277.838,266.000 278.488 C 264.570 279.138,262.860 279.910,262.200 280.203 C 261.540 280.496,259.772 281.290,258.272 281.968 C 256.772 282.645,255.470 283.200,255.380 283.200 C 255.289 283.200,254.267 283.790,253.108 284.512 C 250.144 286.357,248.508 287.109,244.800 288.331 C 242.396 289.123,192.688 289.537,191.767 288.773 C 191.002 288.138,190.919 265.241,191.680 264.480 C 192.043 264.117,197.951 264.000,215.818 264.000 C 238.698 264.000,239.499 263.975,240.176 263.226 C 242.641 260.502,242.541 254.079,239.993 251.532 L 238.862 250.400 221.531 250.378 C 197.522 250.348,188.461 249.951,185.600 248.804 C 177.238 245.452,168.967 244.268,160.600 245.226 M89.957 277.742 C 86.841 279.378,84.550 280.672,81.424 282.563 C 80.116 283.353,78.811 284.000,78.524 284.000 C 78.236 284.000,78.000 284.180,78.000 284.400 C 78.000 284.620,77.740 284.800,77.423 284.800 C 75.811 284.800,75.184 287.530,76.241 289.940 C 77.451 292.697,77.579 293.008,78.788 296.110 C 79.455 297.821,80.000 299.486,80.000 299.810 C 80.000 300.135,80.180 300.400,80.400 300.400 C 80.620 300.400,80.800 300.664,80.800 300.986 C 80.800 301.309,81.055 302.164,81.367 302.886 C 81.678 303.609,82.204 304.830,82.535 305.600 C 82.866 306.370,83.603 308.260,84.172 309.800 C 84.742 311.340,85.386 313.005,85.604 313.500 C 85.822 313.995,86.177 314.805,86.392 315.300 C 86.608 315.795,87.782 318.810,89.000 322.000 C 90.218 325.190,91.373 328.160,91.567 328.600 C 91.760 329.040,92.207 330.057,92.559 330.860 C 92.912 331.664,93.200 332.573,93.200 332.880 C 93.200 333.188,93.351 333.611,93.536 333.820 C 93.721 334.029,94.108 334.830,94.396 335.600 C 94.684 336.370,95.139 337.540,95.406 338.200 C 95.673 338.860,96.207 340.210,96.594 341.200 C 96.980 342.190,97.449 343.360,97.636 343.800 C 97.823 344.240,98.527 346.040,99.200 347.800 C 99.873 349.560,100.580 351.360,100.771 351.800 C 100.962 352.240,101.407 353.257,101.759 354.060 C 102.112 354.864,102.400 355.685,102.400 355.885 C 102.400 356.086,102.748 356.971,103.174 357.852 C 103.600 358.733,104.070 359.938,104.218 360.531 C 104.367 361.123,104.649 361.706,104.844 361.827 C 105.040 361.948,105.200 362.387,105.200 362.803 C 105.200 363.219,105.837 364.045,106.615 364.638 L 108.030 365.718 110.315 364.559 C 111.572 363.921,112.690 363.306,112.800 363.192 C 112.910 363.077,114.350 362.311,116.000 361.489 C 124.061 357.471,126.000 356.143,126.000 354.639 C 126.000 353.725,124.090 348.416,123.546 347.820 C 123.356 347.611,123.200 347.188,123.200 346.880 C 123.200 346.573,122.912 345.664,122.559 344.860 C 122.207 344.057,121.762 343.040,121.571 342.600 C 121.380 342.160,120.673 340.360,120.000 338.600 C 119.327 336.840,118.623 335.040,118.436 334.600 C 118.249 334.160,117.780 332.990,117.394 332.000 C 117.007 331.010,116.466 329.660,116.191 329.000 C 115.915 328.340,115.025 326.090,114.213 324.000 C 113.401 321.910,112.508 319.660,112.228 319.000 C 111.949 318.340,111.495 317.170,111.220 316.400 C 110.944 315.630,110.567 314.640,110.380 314.200 C 110.193 313.760,109.298 311.510,108.390 309.200 C 107.482 306.890,106.578 304.640,106.382 304.200 C 106.185 303.760,105.473 301.960,104.800 300.200 C 104.127 298.440,103.423 296.640,103.236 296.200 C 103.049 295.760,102.580 294.590,102.194 293.600 C 101.807 292.610,101.266 291.260,100.991 290.600 C 100.715 289.940,99.828 287.690,99.020 285.600 C 97.507 281.689,97.336 281.274,96.166 278.667 C 95.532 277.256,94.349 276.400,93.031 276.400 C 92.746 276.400,91.363 277.004,89.957 277.742 " stroke="none" fill="#fbfbfb" fill-rule="evenodd"></path><path id="path3" d="M358.672 35.061 C 358.017 35.716,358.369 72.303,359.033 72.557 C 359.982 72.921,382.121 72.838,382.704 72.468 C 383.100 72.216,383.186 68.168,383.104 53.574 L 383.000 35.000 370.972 34.894 C 364.357 34.836,358.822 34.911,358.672 35.061 M181.645 35.746 C 181.319 36.139,181.221 41.375,181.296 54.446 L 181.400 72.600 193.800 72.609 L 206.200 72.618 193.900 72.503 L 181.600 72.388 181.600 54.202 L 181.600 36.015 182.500 35.792 C 182.995 35.670,188.468 35.621,194.662 35.685 C 200.856 35.748,205.841 35.665,205.739 35.500 C 205.371 34.907,182.144 35.144,181.645 35.746 M382.800 53.606 L 382.800 72.012 370.900 71.906 L 359.000 71.800 358.896 54.000 C 358.838 44.210,358.878 35.975,358.983 35.700 C 359.131 35.316,361.906 35.200,370.987 35.200 L 382.800 35.200 382.800 53.606 M276.700 65.089 C 277.415 65.178,278.585 65.178,279.300 65.089 C 280.015 65.001,279.430 64.928,278.000 64.928 C 276.570 64.928,275.985 65.001,276.700 65.089 M285.500 65.089 C 286.215 65.178,287.385 65.178,288.100 65.089 C 288.815 65.001,288.230 64.928,286.800 64.928 C 285.370 64.928,284.785 65.001,285.500 65.089 M270.800 65.600 L 269.800 65.920 270.800 65.913 C 271.350 65.909,272.340 65.768,273.000 65.600 L 274.200 65.295 273.000 65.287 C 272.340 65.283,271.350 65.424,270.800 65.600 M290.433 65.349 C 290.525 65.431,291.500 65.601,292.600 65.728 C 293.949 65.884,294.274 65.849,293.600 65.620 C 292.601 65.280,290.118 65.068,290.433 65.349 M296.800 66.400 C 297.350 66.576,298.160 66.720,298.600 66.720 C 299.233 66.720,299.192 66.654,298.400 66.400 C 297.850 66.224,297.040 66.080,296.600 66.080 C 295.967 66.080,296.008 66.146,296.800 66.400 M261.800 67.600 C 261.296 67.817,261.222 67.944,261.600 67.944 C 261.930 67.944,262.560 67.789,263.000 67.600 C 263.504 67.383,263.578 67.256,263.200 67.256 C 262.870 67.256,262.240 67.411,261.800 67.600 M301.600 67.600 C 302.968 68.038,304.019 68.038,303.000 67.600 C 302.560 67.411,301.840 67.262,301.400 67.268 C 300.757 67.277,300.796 67.343,301.600 67.600 M258.600 68.614 C 257.600 69.096,257.566 69.151,258.400 68.948 C 259.533 68.671,260.807 68.021,260.200 68.030 C 259.980 68.033,259.260 68.296,258.600 68.614 M309.600 70.134 C 309.600 70.237,310.181 70.524,310.891 70.772 C 311.601 71.019,312.006 71.057,311.791 70.856 C 311.335 70.429,309.600 69.858,309.600 70.134 M314.000 72.200 C 314.990 72.730,315.980 73.164,316.200 73.164 C 316.420 73.164,315.790 72.730,314.800 72.200 C 313.810 71.670,312.820 71.236,312.600 71.236 C 312.380 71.236,313.010 71.670,314.000 72.200 M316.800 73.379 C 316.800 73.489,317.340 73.859,318.000 74.200 C 318.660 74.541,319.200 74.731,319.200 74.621 C 319.200 74.511,318.660 74.141,318.000 73.800 C 317.340 73.459,316.800 73.269,316.800 73.379 M242.900 76.046 C 241.537 76.919,241.095 77.506,242.300 76.843 C 243.218 76.339,244.656 75.227,244.400 75.219 C 244.290 75.216,243.615 75.588,242.900 76.046 M321.600 76.094 C 321.710 76.216,323.330 77.437,325.200 78.808 C 327.070 80.178,329.095 81.760,329.700 82.324 C 330.305 82.888,330.797 83.181,330.793 82.975 C 330.789 82.769,328.944 81.230,326.693 79.556 C 323.004 76.812,321.053 75.486,321.600 76.094 M236.446 80.621 C 235.481 81.379,234.851 81.997,235.046 81.994 C 235.241 81.991,236.120 81.368,237.000 80.609 C 239.064 78.830,238.713 78.837,236.446 80.621 M232.778 83.900 L 231.400 85.400 232.900 84.022 C 234.296 82.738,234.584 82.400,234.278 82.400 C 234.212 82.400,233.537 83.075,232.778 83.900 M331.212 83.200 C 331.215 83.310,333.222 85.470,335.672 88.000 C 338.123 90.530,339.783 92.122,339.364 91.537 C 338.523 90.366,331.203 82.880,331.212 83.200 M227.200 89.400 C 226.228 90.390,225.523 91.200,225.633 91.200 C 225.743 91.200,226.628 90.390,227.600 89.400 C 228.572 88.410,229.277 87.600,229.167 87.600 C 229.057 87.600,228.172 88.410,227.200 89.400 M275.300 91.865 C 274.935 92.012,274.800 93.498,274.800 97.353 C 274.800 100.932,274.645 102.795,274.320 103.120 C 273.955 103.485,273.953 103.600,274.312 103.600 C 275.005 103.600,275.193 102.349,275.302 97.000 L 275.400 92.200 282.900 92.091 L 290.400 91.982 290.400 96.968 C 290.400 99.709,290.535 102.037,290.700 102.139 C 291.005 102.328,290.908 93.017,290.595 92.100 C 290.425 91.600,276.487 91.386,275.300 91.865 M222.895 94.700 C 221.695 96.235,220.049 98.760,220.483 98.400 C 220.910 98.046,224.404 93.200,224.233 93.200 C 224.142 93.200,223.540 93.875,222.895 94.700 M342.415 95.800 C 342.417 96.020,342.786 96.650,343.236 97.200 C 343.779 97.864,343.915 97.931,343.640 97.400 C 342.966 96.095,342.412 95.372,342.415 95.800 M292.800 102.782 C 293.130 103.005,293.745 103.191,294.167 103.194 C 295.190 103.202,294.871 102.973,293.400 102.644 C 292.524 102.448,292.362 102.485,292.800 102.782 M216.075 105.819 C 214.870 108.300,215.005 108.647,216.246 106.261 C 216.801 105.194,217.187 104.253,217.103 104.170 C 217.019 104.086,216.557 104.828,216.075 105.819 M268.122 106.629 L 267.000 107.658 268.300 106.754 C 269.015 106.257,269.600 105.793,269.600 105.725 C 269.600 105.409,269.158 105.680,268.122 106.629 M265.200 109.000 C 264.454 109.770,264.013 110.387,264.222 110.371 C 264.582 110.344,267.054 107.600,266.718 107.600 C 266.629 107.600,265.946 108.230,265.200 109.000 M350.467 110.820 C 350.701 111.492,350.967 111.967,351.057 111.876 C 351.256 111.678,350.501 109.600,350.231 109.600 C 350.127 109.600,350.233 110.149,350.467 110.820 M213.644 111.244 C 213.398 111.951,213.266 112.600,213.352 112.685 C 213.438 112.771,213.709 112.262,213.956 111.556 C 214.202 110.849,214.334 110.200,214.248 110.115 C 214.162 110.029,213.891 110.538,213.644 111.244 M262.784 112.023 C 262.305 112.696,262.000 113.333,262.107 113.440 C 262.214 113.547,262.677 112.996,263.137 112.217 C 264.164 110.477,263.963 110.367,262.784 112.023 M211.429 117.429 C 211.281 118.015,211.238 118.572,211.332 118.666 C 211.427 118.760,211.624 118.358,211.771 117.771 C 211.919 117.185,211.962 116.628,211.868 116.534 C 211.773 116.440,211.576 116.842,211.429 117.429 M260.200 118.000 C 260.048 118.691,260.007 119.341,260.109 119.442 C 260.211 119.544,260.409 119.053,260.550 118.350 C 260.883 116.683,260.560 116.360,260.200 118.000 M280.938 118.306 C 280.684 118.468,282.072 118.600,284.023 118.600 C 285.974 118.600,287.262 118.478,286.885 118.328 C 285.953 117.958,281.511 117.942,280.938 118.306 M278.875 119.616 C 278.394 120.064,278.000 120.634,278.000 120.882 C 278.000 121.130,278.045 121.258,278.100 121.167 C 278.155 121.075,278.636 120.505,279.170 119.900 C 280.306 118.611,280.133 118.444,278.875 119.616 M353.450 120.000 C 353.590 120.770,353.861 121.760,354.054 122.200 C 354.294 122.749,354.324 122.561,354.150 121.600 C 354.010 120.830,353.739 119.840,353.546 119.400 C 353.306 118.851,353.276 119.039,353.450 120.000 M210.600 120.800 C 210.448 121.491,210.407 122.141,210.509 122.242 C 210.611 122.344,210.809 121.853,210.950 121.150 C 211.283 119.483,210.960 119.160,210.600 120.800 M259.724 123.000 C 259.726 124.320,259.801 124.812,259.890 124.093 C 259.979 123.374,259.977 122.294,259.886 121.693 C 259.795 121.092,259.722 121.680,259.724 123.000 M299.200 122.780 C 299.200 123.096,298.893 123.213,298.399 123.084 C 297.959 122.969,297.700 123.038,297.823 123.237 C 297.946 123.437,298.296 123.600,298.600 123.600 C 299.233 123.600,299.798 122.865,299.440 122.507 C 299.308 122.375,299.200 122.498,299.200 122.780 M354.495 124.000 C 354.495 124.550,354.632 125.540,354.800 126.200 C 355.072 127.270,355.105 127.292,355.105 126.400 C 355.105 125.850,354.968 124.860,354.800 124.200 C 354.528 123.130,354.495 123.108,354.495 124.000 M278.767 124.545 C 279.300 125.201,280.800 126.193,280.800 125.889 C 280.800 125.813,280.215 125.322,279.500 124.799 C 278.696 124.210,278.416 124.113,278.767 124.545 M209.418 126.618 C 209.265 127.639,209.222 128.555,209.322 128.655 C 209.422 128.755,209.629 128.002,209.782 126.982 C 209.935 125.961,209.978 125.045,209.878 124.945 C 209.778 124.845,209.571 125.598,209.418 126.618 M260.006 127.433 C 260.009 127.855,260.195 128.470,260.418 128.800 C 260.715 129.238,260.752 129.076,260.556 128.200 C 260.227 126.729,259.998 126.410,260.006 127.433 M355.500 132.600 C 355.591 135.020,355.727 137.180,355.801 137.400 C 356.071 138.197,355.898 130.568,355.619 129.400 C 355.462 128.740,355.408 130.180,355.500 132.600 M287.600 129.400 C 288.150 129.714,288.780 129.972,289.000 129.972 C 289.220 129.972,288.950 129.714,288.400 129.400 C 287.850 129.086,287.220 128.828,287.000 128.828 C 286.780 128.828,287.050 129.086,287.600 129.400 M208.914 131.800 C 208.917 132.900,208.995 133.303,209.087 132.695 C 209.179 132.086,209.177 131.186,209.082 130.695 C 208.987 130.203,208.911 130.700,208.914 131.800 M294.200 132.607 C 294.640 132.966,295.360 133.435,295.800 133.651 L 296.600 134.044 295.800 133.393 C 295.360 133.034,294.640 132.565,294.200 132.349 L 293.400 131.956 294.200 132.607 M297.400 134.766 C 298.178 135.661,300.400 137.398,300.400 137.112 C 300.400 137.034,299.545 136.267,298.500 135.408 C 297.455 134.549,296.960 134.260,297.400 134.766 M208.548 138.400 C 208.548 140.710,208.614 141.655,208.695 140.500 C 208.776 139.345,208.776 137.455,208.695 136.300 C 208.614 135.145,208.548 136.090,208.548 138.400 M264.800 136.564 C 265.797 137.676,268.800 140.197,268.800 139.923 C 268.800 139.843,267.675 138.804,266.300 137.613 C 264.925 136.423,264.250 135.951,264.800 136.564 M301.788 139.400 C 303.677 141.917,303.921 142.141,302.962 140.476 C 302.543 139.748,301.770 138.758,301.244 138.276 C 300.681 137.760,300.905 138.222,301.788 139.400 M355.681 142.250 C 355.637 144.037,355.511 146.108,355.401 146.850 L 355.203 148.200 355.617 146.883 C 355.845 146.158,355.971 144.088,355.897 142.283 L 355.763 139.000 355.681 142.250 M208.914 144.600 C 208.917 145.700,208.995 146.103,209.087 145.495 C 209.179 144.886,209.177 143.986,209.082 143.495 C 208.987 143.003,208.911 143.500,208.914 144.600 M276.400 144.134 C 276.400 144.237,276.981 144.524,277.691 144.772 C 278.401 145.019,278.806 145.057,278.591 144.856 C 278.135 144.429,276.400 143.858,276.400 144.134 M304.828 145.476 C 304.813 145.958,304.980 146.464,305.200 146.600 C 305.673 146.892,305.673 146.501,305.200 145.400 C 304.869 144.629,304.855 144.631,304.828 145.476 M283.600 147.311 C 283.600 147.387,284.185 147.878,284.900 148.401 C 285.704 148.990,285.984 149.087,285.633 148.655 C 285.100 147.999,283.600 147.007,283.600 147.311 M209.270 148.200 C 209.257 148.640,209.395 149.720,209.577 150.600 C 209.855 151.945,209.908 152.009,209.907 151.000 C 209.905 149.599,209.308 146.970,209.270 148.200 M305.740 152.200 C 305.737 155.270,305.799 155.735,306.005 154.200 C 306.153 153.100,306.154 151.300,306.009 150.200 C 305.805 148.667,305.743 149.134,305.740 152.200 M354.618 151.018 C 354.465 152.039,354.422 152.955,354.522 153.055 C 354.622 153.155,354.829 152.402,354.982 151.382 C 355.135 150.361,355.178 149.445,355.078 149.345 C 354.978 149.245,354.771 149.998,354.618 151.018 M287.400 152.800 C 287.400 153.858,287.532 154.516,287.694 154.262 C 287.856 154.008,287.988 153.350,287.988 152.800 C 287.988 152.250,287.856 151.592,287.694 151.338 C 287.532 151.084,287.400 151.742,287.400 152.800 M210.406 155.033 C 210.409 155.455,210.595 156.070,210.818 156.400 C 211.115 156.838,211.152 156.676,210.956 155.800 C 210.627 154.329,210.398 154.010,210.406 155.033 M285.800 156.212 C 285.140 156.753,284.794 157.197,285.030 157.198 C 285.267 157.199,285.883 156.750,286.400 156.200 C 287.585 154.938,287.348 154.943,285.800 156.212 M353.450 156.450 C 353.117 158.117,353.440 158.440,353.800 156.800 C 353.952 156.109,353.993 155.459,353.891 155.358 C 353.789 155.256,353.591 155.747,353.450 156.450 M305.029 157.829 C 304.881 158.415,304.838 158.972,304.932 159.066 C 305.027 159.160,305.224 158.758,305.371 158.171 C 305.519 157.585,305.562 157.028,305.468 156.934 C 305.373 156.840,305.176 157.242,305.029 157.829 M280.400 157.600 L 277.000 157.851 280.200 157.919 C 281.960 157.957,283.670 157.813,284.000 157.600 C 284.330 157.387,284.420 157.243,284.200 157.281 C 283.980 157.318,282.270 157.462,280.400 157.600 M211.268 158.000 C 211.288 159.039,211.918 160.746,211.932 159.800 C 211.938 159.360,211.789 158.640,211.600 158.200 C 211.389 157.710,211.261 157.632,211.268 158.000 M352.600 159.600 C 352.450 160.073,352.417 160.550,352.527 160.660 C 352.637 160.770,352.850 160.473,353.000 160.000 C 353.150 159.527,353.183 159.050,353.073 158.940 C 352.963 158.830,352.750 159.127,352.600 159.600 M302.023 164.300 C 301.291 165.345,301.031 165.897,301.446 165.527 C 302.171 164.880,303.799 162.400,303.500 162.400 C 303.420 162.400,302.755 163.255,302.023 164.300 M213.223 164.126 C 213.189 164.614,214.885 168.448,215.059 168.274 C 215.142 168.192,214.768 167.151,214.228 165.962 C 213.688 164.773,213.236 163.947,213.223 164.126 M258.249 165.415 C 258.112 165.773,258.018 166.456,258.041 166.933 C 258.067 167.481,258.203 167.286,258.410 166.403 C 258.760 164.916,258.665 164.333,258.249 165.415 M299.196 167.533 C 298.864 167.900,297.964 168.710,297.196 169.332 C 296.428 169.955,296.160 170.277,296.600 170.048 C 297.717 169.466,300.687 166.826,300.200 166.848 C 299.980 166.858,299.528 167.167,299.196 167.533 M260.600 169.007 C 261.040 169.366,261.760 169.835,262.200 170.051 L 263.000 170.444 262.200 169.793 C 261.760 169.434,261.040 168.965,260.600 168.749 L 259.800 168.356 260.600 169.007 M216.404 171.433 C 216.409 171.899,218.750 176.000,219.012 176.000 C 219.119 176.000,218.634 174.965,217.933 173.700 C 216.453 171.028,216.399 170.947,216.404 171.433 M266.000 171.831 C 266.000 172.101,268.078 172.856,268.276 172.657 C 268.367 172.567,267.892 172.301,267.220 172.067 C 266.549 171.833,266.000 171.727,266.000 171.831 M347.078 173.005 C 346.712 173.772,346.495 174.400,346.596 174.400 C 346.870 174.400,348.084 171.951,347.901 171.768 C 347.814 171.681,347.444 172.238,347.078 173.005 M268.833 172.944 C 268.925 173.023,269.540 173.208,270.200 173.356 C 271.076 173.552,271.238 173.515,270.800 173.218 C 270.260 172.853,268.432 172.598,268.833 172.944 M290.198 173.300 C 289.896 174.150,289.783 184.780,290.078 184.481 C 290.337 184.220,290.737 172.798,290.487 172.799 C 290.426 172.800,290.295 173.025,290.198 173.300 M272.800 173.957 C 273.795 174.233,273.801 174.264,273.912 179.517 C 273.973 182.423,274.153 184.800,274.312 184.801 C 274.766 184.802,274.402 174.684,273.927 174.112 C 273.693 173.830,273.119 173.618,272.651 173.640 C 271.900 173.675,271.917 173.712,272.800 173.957 M220.764 179.133 C 220.980 179.536,221.471 180.121,221.855 180.433 C 222.287 180.784,222.190 180.504,221.601 179.700 C 220.551 178.265,220.157 177.998,220.764 179.133 M340.961 182.500 C 339.924 183.875,338.346 185.765,337.455 186.700 C 336.563 187.635,335.957 188.400,336.108 188.400 C 336.260 188.400,337.089 187.635,337.951 186.700 C 339.612 184.898,343.319 180.000,343.023 180.000 C 342.926 180.000,341.998 181.125,340.961 182.500 M226.287 186.200 C 228.369 188.634,234.008 194.336,233.990 193.989 C 233.985 193.885,231.788 191.550,229.107 188.800 C 226.427 186.050,225.158 184.880,226.287 186.200 M334.221 190.329 L 333.043 191.800 334.521 190.422 C 336.049 188.997,336.210 188.780,335.700 188.829 C 335.535 188.845,334.870 189.520,334.221 190.329 M330.400 193.709 C 329.410 194.639,327.970 195.907,327.200 196.527 L 325.800 197.654 327.200 196.730 C 328.847 195.644,332.946 191.996,332.504 192.009 C 332.337 192.014,331.390 192.779,330.400 193.709 M239.200 197.992 C 239.970 198.687,240.960 199.445,241.400 199.677 C 242.462 200.236,241.804 199.636,239.600 198.035 L 237.800 196.728 239.200 197.992 M242.400 200.173 C 242.400 200.466,248.497 204.001,248.992 203.995 C 249.216 203.993,248.590 203.530,247.600 202.968 C 246.610 202.406,245.035 201.500,244.100 200.956 C 243.165 200.412,242.400 200.059,242.400 200.173 M254.000 206.333 C 254.330 206.536,255.050 206.824,255.600 206.971 C 256.295 207.157,256.417 207.125,256.000 206.867 C 255.670 206.664,254.950 206.376,254.400 206.229 C 253.705 206.043,253.583 206.075,254.000 206.333 M303.400 208.615 C 301.816 209.163,301.814 209.166,303.200 208.938 C 303.970 208.812,304.870 208.554,305.200 208.366 C 306.081 207.864,305.230 207.982,303.400 208.615 M263.800 209.600 C 264.240 209.789,264.870 209.944,265.200 209.944 C 265.578 209.944,265.504 209.817,265.000 209.600 C 264.560 209.411,263.930 209.256,263.600 209.256 C 263.222 209.256,263.296 209.383,263.800 209.600 M299.800 209.600 C 299.296 209.817,299.222 209.944,299.600 209.944 C 299.930 209.944,300.560 209.789,301.000 209.600 C 301.504 209.383,301.578 209.256,301.200 209.256 C 300.870 209.256,300.240 209.411,299.800 209.600 M267.000 210.390 C 267.764 210.728,270.314 210.957,269.967 210.656 C 269.875 210.576,268.990 210.404,268.000 210.273 C 266.798 210.114,266.466 210.153,267.000 210.390 M296.000 210.400 C 294.633 210.688,294.628 210.695,295.800 210.719 C 296.460 210.733,297.360 210.589,297.800 210.400 C 298.762 209.987,297.964 209.987,296.000 210.400 M275.400 211.665 C 276.500 211.811,279.650 211.930,282.400 211.930 C 285.150 211.930,288.300 211.811,289.400 211.665 C 290.500 211.519,287.350 211.400,282.400 211.400 C 277.450 211.400,274.300 211.519,275.400 211.665 M163.500 220.296 C 164.875 220.374,167.125 220.374,168.500 220.296 C 169.875 220.218,168.750 220.154,166.000 220.154 C 163.250 220.154,162.125 220.218,163.500 220.296 M153.052 221.224 C 135.174 225.076,120.246 235.836,106.570 254.728 C 106.519 254.798,105.732 254.496,104.822 254.056 C 103.911 253.616,102.588 253.153,101.883 253.027 C 100.447 252.771,100.733 252.929,104.356 254.397 L 106.512 255.271 107.363 254.335 C 107.830 253.821,108.930 252.410,109.806 251.200 C 111.651 248.652,116.354 243.208,118.395 241.258 C 123.472 236.407,125.329 234.864,129.726 231.841 C 138.072 226.102,146.875 222.656,157.400 221.007 C 160.299 220.552,160.412 220.503,158.600 220.482 C 157.500 220.470,155.003 220.804,153.052 221.224 M174.000 220.792 C 180.599 221.890,183.463 222.524,188.538 224.008 C 189.383 224.256,190.160 224.374,190.263 224.270 C 190.525 224.008,185.472 222.532,179.864 221.232 C 178.799 220.986,176.549 220.703,174.864 220.605 C 171.958 220.435,171.914 220.445,174.000 220.792 M191.910 225.001 C 193.007 225.512,196.435 225.642,213.110 225.810 C 224.049 225.920,235.340 226.074,238.200 226.153 C 241.060 226.232,242.860 226.161,242.200 225.996 C 241.540 225.830,234.790 225.657,227.200 225.610 C 211.332 225.513,193.063 225.018,191.600 224.646 C 190.909 224.470,191.004 224.580,191.910 225.001 M246.288 227.410 C 255.040 230.516,262.081 237.806,264.580 246.349 C 265.925 250.950,266.131 251.600,266.236 251.600 C 266.296 251.600,267.482 251.077,268.872 250.437 C 270.262 249.797,273.290 248.430,275.600 247.398 C 277.910 246.366,280.790 245.074,282.000 244.527 C 283.210 243.979,284.740 243.289,285.400 242.994 C 286.060 242.699,287.999 241.815,289.709 241.029 C 291.419 240.243,292.904 239.600,293.010 239.600 C 293.115 239.600,295.046 238.724,297.301 237.652 C 303.858 234.537,305.906 233.638,307.089 233.355 C 307.700 233.209,308.380 232.961,308.600 232.803 C 309.034 232.491,309.223 232.436,314.664 231.018 C 318.418 230.041,321.762 229.461,327.400 228.810 L 330.600 228.440 326.557 228.600 C 324.334 228.688,321.724 228.934,320.757 229.148 C 319.791 229.361,317.920 229.753,316.600 230.018 C 311.195 231.104,305.212 233.321,296.400 237.504 C 292.169 239.512,288.415 241.234,286.200 242.183 C 283.432 243.369,270.466 249.170,268.120 250.271 C 266.494 251.034,266.136 250.793,265.784 248.698 C 265.627 247.764,265.071 246.033,264.549 244.850 C 264.027 243.668,263.600 242.453,263.600 242.150 C 263.600 241.848,263.420 241.600,263.200 241.600 C 262.980 241.600,262.800 241.411,262.800 241.181 C 262.800 240.598,260.372 236.910,258.785 235.081 C 255.574 231.383,248.711 227.171,245.000 226.622 C 243.794 226.443,244.111 226.637,246.288 227.410 M338.800 228.770 C 342.596 229.352,346.691 229.610,345.718 229.205 C 345.233 229.004,342.983 228.748,340.718 228.636 C 337.620 228.484,337.145 228.517,338.800 228.770 M347.000 229.796 C 347.220 229.868,348.840 230.249,350.600 230.641 C 362.204 233.226,370.233 238.414,374.059 245.800 C 379.094 255.518,377.871 269.277,371.118 278.900 C 370.693 279.505,370.500 280.000,370.690 280.000 C 371.409 280.000,374.921 273.257,376.002 269.800 C 376.277 268.920,376.685 267.750,376.908 267.200 C 377.497 265.745,377.756 256.143,377.270 253.800 C 374.616 241.032,367.353 234.390,351.636 230.360 C 349.249 229.748,345.464 229.287,347.000 229.796 M159.674 244.781 C 156.427 245.297,156.667 245.659,160.023 245.310 C 163.747 244.922,168.446 244.914,172.600 245.288 C 174.979 245.502,175.544 245.469,174.800 245.157 C 173.510 244.616,162.444 244.341,159.674 244.781 M153.283 246.411 C 142.564 250.219,132.679 259.026,124.434 272.113 C 123.095 274.238,122.000 276.326,122.000 276.752 C 122.000 277.394,125.111 285.749,126.411 288.600 C 126.612 289.040,127.327 290.840,128.000 292.600 C 128.673 294.360,129.387 296.160,129.586 296.600 C 129.784 297.040,131.139 300.460,132.597 304.200 C 134.054 307.940,135.411 311.360,135.611 311.800 C 135.812 312.240,136.527 314.040,137.200 315.800 C 137.873 317.560,138.588 319.360,138.789 319.800 C 138.989 320.240,140.351 323.660,141.816 327.400 C 145.312 336.326,145.693 337.200,146.087 337.200 C 146.271 337.200,146.159 336.694,145.839 336.075 C 145.519 335.456,144.245 332.351,143.008 329.175 C 141.770 325.999,140.593 323.040,140.391 322.600 C 140.189 322.160,139.473 320.360,138.800 318.600 C 138.127 316.840,137.422 315.040,137.235 314.600 C 137.047 314.160,136.405 312.540,135.808 311.000 C 135.211 309.460,134.565 307.840,134.373 307.400 C 134.181 306.960,133.473 305.160,132.800 303.400 C 132.127 301.640,131.413 299.840,131.214 299.400 C 131.016 298.960,129.661 295.540,128.203 291.800 C 126.746 288.060,125.389 284.640,125.189 284.200 C 124.391 282.450,122.400 277.156,122.400 276.785 C 122.400 276.343,127.144 268.573,128.737 266.405 C 135.378 257.370,145.083 249.679,153.200 247.019 C 154.410 246.622,155.760 246.153,156.200 245.976 L 157.000 245.654 156.200 245.656 C 155.760 245.657,154.447 245.997,153.283 246.411 M176.800 245.984 C 177.350 246.161,178.970 246.634,180.400 247.034 C 181.830 247.435,184.031 248.176,185.292 248.682 C 186.553 249.187,187.993 249.591,188.492 249.580 C 188.991 249.569,186.790 248.675,183.600 247.594 C 180.410 246.512,177.350 245.635,176.800 245.645 L 175.800 245.663 176.800 245.984 M196.400 250.018 C 200.030 250.167,211.069 250.314,220.931 250.345 L 238.862 250.400 239.993 251.532 C 242.541 254.079,242.641 260.502,240.176 263.226 C 239.499 263.975,238.698 264.000,215.818 264.000 C 197.951 264.000,192.043 264.117,191.680 264.480 C 190.919 265.241,191.002 288.138,191.767 288.773 C 192.670 289.522,242.345 289.124,244.881 288.348 C 246.701 287.791,247.756 287.200,246.930 287.200 C 246.709 287.200,245.644 287.468,244.564 287.796 C 242.914 288.296,238.552 288.392,217.300 288.396 L 192.000 288.400 192.000 276.600 L 192.000 264.800 215.181 264.800 C 231.404 264.800,238.657 264.666,239.343 264.353 C 242.927 262.720,243.493 254.402,240.241 251.150 L 239.221 250.131 222.345 249.865 C 213.063 249.719,201.943 249.633,197.634 249.673 L 189.800 249.746 196.400 250.018 M88.600 251.975 C 85.285 252.522,81.629 253.934,77.200 256.377 C 74.890 257.651,71.920 259.287,70.600 260.013 C 69.280 260.738,67.390 261.777,66.400 262.321 C 57.208 267.374,51.464 275.677,50.986 284.600 L 50.837 287.400 51.387 284.000 C 53.108 273.353,57.421 267.892,69.400 261.188 C 85.017 252.448,89.443 251.134,98.600 252.518 C 99.985 252.727,100.401 252.697,99.954 252.420 C 99.079 251.879,91.083 251.566,88.600 251.975 M328.400 252.817 C 324.694 253.121,319.779 254.085,319.259 254.610 C 318.943 254.929,321.817 254.475,323.200 253.987 C 324.929 253.376,333.661 252.895,337.000 253.226 C 338.760 253.400,340.830 253.538,341.600 253.531 L 343.000 253.520 341.600 253.206 C 339.284 252.686,332.446 252.485,328.400 252.817 M343.600 253.956 C 343.930 254.151,345.010 254.428,346.000 254.572 C 347.143 254.738,347.581 254.701,347.200 254.470 C 346.870 254.271,345.790 253.993,344.800 253.854 C 343.685 253.698,343.228 253.736,343.600 253.956 M316.600 255.221 C 316.160 255.422,315.280 255.775,314.645 256.005 C 314.009 256.234,313.572 256.505,313.673 256.606 C 313.847 256.781,318.415 255.307,318.767 254.963 C 319.082 254.655,317.399 254.854,316.600 255.221 M348.800 255.272 C 353.025 257.039,353.994 258.289,353.210 260.953 C 351.912 265.361,350.971 266.129,338.200 273.198 C 336.880 273.928,335.129 274.948,334.308 275.463 C 333.487 275.978,332.714 276.400,332.589 276.400 C 332.464 276.400,331.377 277.030,330.173 277.800 C 328.969 278.570,327.873 279.200,327.736 279.200 C 327.600 279.200,326.569 279.767,325.444 280.460 C 323.325 281.767,322.625 282.170,318.600 284.398 C 317.280 285.128,315.529 286.148,314.708 286.663 C 313.887 287.178,313.125 287.600,313.014 287.600 C 312.599 287.600,308.767 290.100,308.931 290.264 C 309.025 290.358,311.325 289.141,314.042 287.559 C 319.094 284.619,319.642 284.307,323.800 281.998 C 325.120 281.266,327.640 279.817,329.400 278.779 C 331.160 277.742,333.320 276.492,334.200 276.002 C 351.152 266.567,351.870 266.031,353.479 261.600 C 354.657 258.358,351.907 254.675,348.421 254.827 C 348.069 254.842,348.232 255.035,348.800 255.272 M309.600 258.250 C 307.950 259.037,306.170 259.848,305.645 260.052 C 305.119 260.256,304.792 260.525,304.917 260.651 C 305.043 260.776,306.706 260.141,308.612 259.240 C 310.519 258.338,312.230 257.600,312.416 257.600 C 312.601 257.600,312.864 257.420,313.000 257.200 C 313.405 256.544,312.756 256.744,309.600 258.250 M300.171 262.527 C 298.175 263.447,295.565 264.636,294.371 265.169 C 293.177 265.702,290.850 266.758,289.200 267.515 C 287.550 268.273,285.770 269.057,285.245 269.258 C 284.719 269.458,284.386 269.720,284.506 269.839 C 284.625 269.958,285.595 269.659,286.661 269.175 C 287.727 268.690,289.680 267.802,291.000 267.201 C 296.676 264.616,297.907 264.060,299.800 263.224 C 303.662 261.521,304.400 261.161,304.400 260.981 C 304.400 260.637,303.786 260.861,300.171 262.527 M279.771 271.727 C 277.775 272.647,275.165 273.836,273.971 274.369 C 272.777 274.902,270.540 275.914,269.000 276.617 C 266.186 277.904,264.457 278.674,260.413 280.443 C 258.340 281.350,255.785 282.629,250.094 285.609 C 248.716 286.331,247.666 286.999,247.762 287.095 C 248.009 287.342,250.643 286.077,253.108 284.526 C 254.267 283.797,255.289 283.200,255.380 283.200 C 255.470 283.200,256.772 282.645,258.272 281.968 C 259.772 281.290,261.540 280.496,262.200 280.203 C 262.860 279.910,264.570 279.138,266.000 278.488 C 267.430 277.838,269.500 276.898,270.600 276.400 C 271.700 275.902,273.770 274.962,275.200 274.312 C 278.120 272.984,279.356 272.431,282.100 271.219 C 283.145 270.758,284.000 270.295,284.000 270.190 C 284.000 269.836,283.407 270.052,279.771 271.727 M91.200 276.537 C 87.348 278.587,83.738 280.567,83.400 280.815 C 83.180 280.976,81.560 281.870,79.800 282.801 C 74.184 285.771,74.058 287.642,78.789 297.800 C 78.994 298.240,81.068 303.460,83.398 309.400 C 85.728 315.340,87.793 320.560,87.987 321.000 C 88.181 321.440,89.082 323.690,89.990 326.000 C 90.898 328.310,91.790 330.560,91.972 331.000 C 92.155 331.440,92.617 332.610,93.000 333.600 C 93.383 334.590,93.849 335.760,94.036 336.200 C 94.223 336.640,94.927 338.440,95.600 340.200 C 96.273 341.960,96.985 343.760,97.181 344.200 C 97.378 344.640,98.917 348.510,100.601 352.800 C 102.286 357.090,103.920 361.167,104.232 361.860 C 104.545 362.554,104.800 363.287,104.800 363.491 C 104.800 363.694,105.255 364.288,105.811 364.810 C 107.498 366.395,108.819 366.082,115.203 362.580 C 118.391 360.831,121.697 359.040,122.549 358.600 C 126.750 356.431,127.109 355.172,125.000 350.000 C 124.237 348.130,123.610 346.386,123.607 346.124 C 123.603 345.862,123.413 345.532,123.184 345.390 C 122.737 345.114,123.073 347.070,123.598 347.800 C 124.155 348.576,126.000 353.827,126.000 354.639 C 126.000 356.143,124.061 357.471,116.000 361.489 C 114.350 362.311,112.910 363.077,112.800 363.192 C 112.690 363.306,111.572 363.921,110.315 364.559 L 108.030 365.718 106.615 364.638 C 105.837 364.045,105.200 363.219,105.200 362.803 C 105.200 362.387,105.040 361.948,104.844 361.827 C 104.649 361.706,104.367 361.123,104.218 360.531 C 104.070 359.938,103.600 358.733,103.174 357.852 C 102.748 356.971,102.400 356.086,102.400 355.885 C 102.400 355.685,102.112 354.864,101.759 354.060 C 101.407 353.257,100.962 352.240,100.771 351.800 C 100.580 351.360,99.873 349.560,99.200 347.800 C 98.527 346.040,97.823 344.240,97.636 343.800 C 97.449 343.360,96.980 342.190,96.594 341.200 C 96.207 340.210,95.673 338.860,95.406 338.200 C 95.139 337.540,94.684 336.370,94.396 335.600 C 94.108 334.830,93.721 334.029,93.536 333.820 C 93.351 333.611,93.200 333.188,93.200 332.880 C 93.200 332.573,92.912 331.664,92.559 330.860 C 92.207 330.057,91.760 329.040,91.567 328.600 C 91.373 328.160,90.218 325.190,89.000 322.000 C 87.782 318.810,86.608 315.795,86.392 315.300 C 86.177 314.805,85.822 313.995,85.604 313.500 C 85.386 313.005,84.742 311.340,84.172 309.800 C 83.603 308.260,82.866 306.370,82.535 305.600 C 82.204 304.830,81.678 303.609,81.367 302.886 C 81.055 302.164,80.800 301.309,80.800 300.986 C 80.800 300.664,80.620 300.400,80.400 300.400 C 80.180 300.400,80.000 300.135,80.000 299.810 C 80.000 299.486,79.455 297.821,78.788 296.110 C 77.579 293.008,77.451 292.697,76.241 289.940 C 75.184 287.530,75.811 284.800,77.423 284.800 C 77.740 284.800,78.000 284.620,78.000 284.400 C 78.000 284.180,78.236 284.000,78.525 284.000 C 78.814 284.000,80.235 283.286,81.682 282.413 C 93.791 275.110,94.677 274.993,96.948 280.400 C 97.535 281.796,99.961 287.962,100.787 290.155 C 101.027 290.791,101.315 291.219,101.427 291.106 C 101.608 290.925,100.101 286.759,98.639 283.400 C 98.352 282.740,97.708 281.160,97.208 279.889 C 95.819 276.361,93.726 275.193,91.200 276.537 M367.963 282.900 C 366.733 284.275,365.208 285.670,364.573 286.000 C 363.358 286.632,359.965 288.578,352.450 292.952 C 349.947 294.408,347.844 295.600,347.777 295.600 C 347.710 295.600,345.374 296.950,342.587 298.600 C 339.800 300.250,337.450 301.600,337.367 301.600 C 337.283 301.600,336.038 302.320,334.600 303.200 C 333.162 304.080,331.911 304.800,331.820 304.800 C 331.729 304.800,329.374 306.150,326.587 307.800 C 323.800 309.450,321.469 310.800,321.408 310.800 C 321.346 310.800,319.115 312.060,316.448 313.600 C 313.782 315.140,309.418 317.660,306.752 319.200 C 304.085 320.740,301.838 322.000,301.758 322.000 C 301.334 322.000,297.591 324.524,297.761 324.694 C 297.872 324.805,299.136 324.154,300.571 323.248 C 302.006 322.342,303.272 321.600,303.383 321.600 C 303.495 321.600,304.762 320.880,306.200 320.000 C 307.638 319.120,308.875 318.400,308.950 318.400 C 309.024 318.400,310.641 317.500,312.543 316.400 C 314.444 315.300,317.556 313.500,319.457 312.400 C 321.359 311.300,322.976 310.400,323.050 310.400 C 323.125 310.400,324.362 309.680,325.800 308.800 C 327.238 307.920,328.497 307.200,328.599 307.200 C 328.701 307.200,329.769 306.570,330.973 305.800 C 332.177 305.030,333.237 304.400,333.330 304.400 C 333.423 304.400,335.547 303.204,338.050 301.743 C 340.552 300.281,343.337 298.681,344.237 298.187 C 345.138 297.693,346.619 296.819,347.529 296.245 C 348.439 295.670,349.252 295.200,349.335 295.200 C 349.537 295.200,355.774 291.605,357.893 290.267 C 358.823 289.680,359.675 289.200,359.785 289.200 C 361.160 289.200,368.990 283.017,370.044 281.100 C 370.667 279.965,370.324 280.262,367.963 282.900 M50.856 290.048 C 50.805 291.733,52.829 299.613,53.566 300.599 C 53.731 300.820,54.103 301.630,54.393 302.400 C 54.683 303.170,55.142 304.340,55.413 305.000 C 55.684 305.660,56.134 306.830,56.413 307.600 C 56.692 308.370,57.146 309.540,57.423 310.200 C 57.699 310.860,58.671 313.290,59.583 315.600 C 60.495 317.910,61.390 320.160,61.572 320.600 C 61.755 321.040,62.220 322.210,62.606 323.200 C 62.993 324.190,63.554 325.567,63.854 326.260 C 64.154 326.954,64.400 327.607,64.400 327.712 C 64.400 328.226,65.672 330.861,65.839 330.694 C 66.009 330.524,64.211 325.555,63.201 323.400 C 62.994 322.960,62.094 320.710,61.200 318.400 C 60.306 316.090,59.412 313.840,59.214 313.400 C 56.107 306.512,51.807 294.236,51.297 290.800 C 50.926 288.298,50.909 288.270,50.856 290.048 M304.445 292.460 C 302.600 293.547,300.089 294.994,298.866 295.675 C 297.643 296.355,295.102 297.807,293.221 298.900 C 291.339 299.994,289.030 301.327,288.088 301.864 C 287.147 302.400,283.562 304.450,280.122 306.419 C 276.682 308.389,273.718 310.000,273.534 310.000 C 273.350 310.000,273.200 310.180,273.200 310.400 C 273.200 310.620,273.002 310.800,272.760 310.800 C 272.519 310.800,270.674 311.769,268.660 312.952 C 264.959 315.129,264.127 315.603,259.800 317.998 C 258.480 318.728,256.729 319.748,255.908 320.263 C 255.087 320.778,254.326 321.200,254.216 321.200 C 254.106 321.200,253.031 321.830,251.827 322.600 C 250.623 323.370,249.563 324.000,249.470 324.000 C 249.377 324.000,247.276 325.170,244.800 326.600 C 242.324 328.030,240.223 329.200,240.130 329.200 C 240.037 329.200,239.025 329.787,237.881 330.505 C 236.006 331.680,231.473 333.972,229.400 334.792 C 227.457 335.561,225.093 336.115,221.578 336.624 L 217.800 337.171 221.200 336.985 C 227.040 336.666,230.232 335.428,240.858 329.359 C 245.180 326.891,249.770 324.286,251.058 323.570 C 252.346 322.855,255.172 321.219,257.337 319.935 C 259.503 318.651,261.325 317.600,261.387 317.600 C 261.448 317.600,263.524 316.430,266.000 315.000 C 268.476 313.570,270.577 312.400,270.670 312.400 C 270.763 312.400,271.823 311.770,273.027 311.000 C 274.231 310.230,275.279 309.600,275.357 309.600 C 275.435 309.600,277.524 308.430,280.000 307.000 C 282.476 305.570,284.554 304.400,284.618 304.400 C 284.682 304.400,286.594 303.301,288.867 301.958 C 291.140 300.615,293.900 299.014,295.000 298.400 C 301.227 294.923,307.850 291.088,308.180 290.768 C 309.027 289.947,307.646 290.573,304.445 292.460 M101.765 292.200 C 102.065 293.515,103.028 295.963,103.376 296.293 C 103.554 296.462,103.561 296.151,103.392 295.602 C 102.955 294.185,101.545 291.237,101.765 292.200 M103.600 296.910 C 103.600 297.176,105.687 302.647,106.382 304.200 C 106.578 304.640,107.482 306.890,108.390 309.200 C 109.298 311.510,110.193 313.760,110.380 314.200 C 110.567 314.640,110.944 315.630,111.220 316.400 C 111.495 317.170,111.949 318.340,112.228 319.000 C 112.738 320.204,115.172 326.392,115.987 328.555 C 116.227 329.191,116.515 329.619,116.627 329.506 C 116.802 329.331,115.154 324.723,114.014 322.200 C 113.816 321.760,112.458 318.340,110.996 314.600 C 109.535 310.860,108.105 307.260,107.820 306.600 C 107.534 305.940,106.621 303.600,105.792 301.400 C 104.456 297.857,103.600 296.103,103.600 296.910 M295.200 325.761 C 294.430 326.263,292.720 327.267,291.400 327.990 C 290.080 328.714,288.820 329.438,288.600 329.600 C 288.380 329.762,287.210 330.440,286.000 331.108 C 284.790 331.775,281.122 333.869,277.849 335.761 C 274.576 337.652,271.848 339.200,271.786 339.200 C 271.725 339.200,269.903 340.251,267.737 341.535 C 265.572 342.819,262.810 344.421,261.600 345.093 C 260.390 345.766,256.970 347.715,254.000 349.424 C 247.036 353.431,242.745 355.691,240.000 356.797 C 238.790 357.284,237.440 357.829,237.000 358.008 C 236.560 358.187,235.750 358.443,235.200 358.577 C 234.650 358.710,233.210 359.100,232.000 359.443 C 230.790 359.786,228.270 360.302,226.400 360.589 C 223.868 360.979,223.431 361.124,224.689 361.156 C 226.323 361.199,231.771 360.236,233.400 359.616 C 233.840 359.449,235.280 358.980,236.600 358.575 C 237.920 358.169,239.270 357.706,239.600 357.544 C 239.930 357.383,241.280 356.757,242.600 356.153 C 243.920 355.549,247.438 353.664,250.417 351.966 C 253.396 350.267,256.726 348.379,257.817 347.771 C 261.374 345.788,270.164 340.699,271.692 339.738 C 272.513 339.222,273.252 338.800,273.335 338.800 C 273.417 338.800,275.086 337.870,277.043 336.734 C 278.999 335.597,281.337 334.267,282.237 333.778 C 283.138 333.289,284.619 332.419,285.529 331.845 C 286.439 331.270,287.275 330.800,287.385 330.800 C 287.496 330.800,288.714 330.121,290.093 329.292 C 291.472 328.463,293.260 327.440,294.066 327.019 C 295.829 326.100,297.557 324.812,297.000 324.832 C 296.780 324.840,295.970 325.258,295.200 325.761 M116.812 330.286 C 116.805 330.554,117.095 331.454,117.455 332.286 C 118.469 334.627,118.689 335.172,120.000 338.600 C 120.673 340.360,121.382 342.160,121.576 342.600 C 121.769 343.040,122.038 343.741,122.173 344.157 C 122.308 344.574,122.514 344.820,122.629 344.704 C 122.745 344.588,121.642 341.457,120.178 337.747 C 117.412 330.736,116.833 329.453,116.812 330.286 M66.000 331.640 C 66.000 331.881,66.253 332.646,66.563 333.340 C 66.872 334.033,67.871 336.490,68.783 338.800 C 69.695 341.110,70.600 343.360,70.795 343.800 C 71.132 344.559,73.454 350.479,74.387 352.955 C 74.627 353.591,74.920 354.013,75.039 353.894 C 75.218 353.715,73.941 350.204,72.386 346.600 C 72.196 346.160,71.295 343.910,70.383 341.600 C 69.471 339.290,68.495 336.860,68.214 336.200 C 67.932 335.540,67.384 334.145,66.996 333.100 C 66.300 331.223,66.000 330.783,66.000 331.640 M75.231 354.800 C 75.217 355.130,75.474 355.916,75.802 356.546 C 76.131 357.176,76.400 357.930,76.400 358.222 C 76.400 358.514,76.599 358.876,76.843 359.026 C 77.148 359.215,77.192 359.005,76.985 358.352 C 76.409 356.538,75.256 354.204,75.231 354.800 M77.200 359.809 C 77.200 360.477,81.817 371.781,83.292 374.726 C 85.571 379.275,89.803 383.958,93.272 385.771 C 93.782 386.037,95.010 386.702,96.000 387.248 C 99.535 389.196,102.516 389.800,108.600 389.800 C 116.248 389.800,117.010 389.534,129.800 382.400 C 134.210 379.940,135.986 378.959,137.350 378.229 C 141.822 375.837,149.309 366.527,149.177 363.522 C 149.164 363.235,148.735 363.922,148.223 365.048 C 145.400 371.255,141.427 375.439,134.913 379.066 C 118.527 388.190,116.607 389.026,111.041 389.453 C 99.175 390.365,88.781 384.662,83.604 374.400 C 82.369 371.952,78.000 361.074,78.000 360.447 C 78.000 360.227,77.820 359.936,77.600 359.800 C 77.380 359.664,77.200 359.668,77.200 359.809 M149.700 361.465 C 149.425 361.576,149.214 361.967,149.232 362.333 C 149.251 362.749,149.339 362.812,149.465 362.500 C 149.624 362.106,156.927 361.991,183.933 361.957 C 202.780 361.933,219.280 361.779,220.600 361.615 C 221.920 361.452,206.620 361.305,186.600 361.290 C 166.580 361.275,149.975 361.354,149.700 361.465 " stroke="none" fill="#a7acb5" fill-rule="evenodd"></path></g></svg>